<svg width="180" height="180" viewBox="0 0 180 180" fill="none" xmlns="http://www.w3.org/2000/svg">
<g clip-path="url(#clip0_480_1941)">
<rect width="180" height="180" fill="#478358"/>
<path d="M73.1959 51.7006C110.467 38.8432 146.355 44.8709 159.213 82.1415C172.07 119.412 152.279 160.049 115.008 172.906C77.7378 185.764 37.101 165.973 24.2437 128.702C11.3864 91.4314 35.9252 64.5579 73.1959 51.7006Z" fill="#69C04A"/>
<path d="M28.9836 55.7156H26.3304C21.816 55.8344 18.6876 59.7944 18.6876 63.5168C18.6876 67.4372 20.7864 69.8132 23.3604 70.6052C20.3508 75.1592 15.4008 82.1684 15.4008 82.208L18.7272 83.7524L26.0532 71.0804L25.8552 83H29.5776L28.9836 55.7156ZM21.0636 63.794C21.0636 60.7844 23.4792 57.8144 26.2908 57.7352L26.0928 68.9024C25.8948 68.942 25.7364 68.942 25.578 68.942C22.9644 68.942 21.0636 66.6848 21.0636 63.794ZM46.2424 80.624V69.536L43.0348 66.764L37.4116 67.0016L37.4908 59.636L45.6484 59.1608L45.094 55.6364H35.1148L34.3228 83H43.0348L46.2424 80.624ZM37.174 80.1092L37.372 69.0212L41.6092 68.8232L43.3912 70.724L43.3516 78.2084L41.9656 79.3172L37.174 80.1092ZM58.2375 62.4872L63.5835 82.9604H67.4247L59.1087 55.8344H56.2179L47.5059 82.9604H50.8323L58.2375 62.4872ZM75.2176 83H79.9696L83.6128 78.1292L84.0484 60.7052L79.2172 55.676H72.0496L68.644 60.5468L68.248 77.9708L75.2176 83ZM77.4748 58.2104L80.0092 61.7348L79.2172 77.7728L76.6828 80.2676L71.4952 76.5452L72.01 60.5072L73.7524 58.0916L77.4748 58.2104ZM99.454 56.1908L95.9296 55.8344L95.6524 66.1304L90.0292 67.4768L88.5244 65.9324L89.9896 55.874L86.188 55.7156L85.4356 67.358L89.5144 70.6052L95.5732 68.5064L95.2168 82.4852L98.662 83.0792L99.454 56.1908ZM120.597 82.9604L120.637 55.7156H116.36L116.241 68.6252L107.331 68.4272L107.41 55.7156H104.203L104.678 82.9604H107.212L107.331 70.4864H116.241L116.083 82.9604H120.597ZM125.395 56.1116L126.583 80.8616L129.157 83H135.81L137.592 79.2776L136.839 69.932L134.067 66.8432L129.87 66.5264L129.395 55.8344L125.395 56.1116ZM145.076 55.8344H140.562L140.879 83H144.086L145.076 55.8344ZM133.196 69.2192L134.107 70.6844L134.82 79.0796L133.988 80.9804L130.503 80.5844L129.989 68.942L133.196 69.2192ZM160.369 49.0628C159.221 49.9736 158.191 50.3696 157.201 50.3696C155.776 50.3696 154.429 49.6172 152.885 48.548L151.063 51.0032C152.608 52.3892 154.39 53.0228 156.093 53.0228C158.112 53.0228 160.013 52.1516 161.32 50.726L160.369 49.0628ZM162.627 83L161.637 55.6364H159.063L154.073 75.3176L154.192 55.7552L149.836 55.676L151.816 83H154.429L159.459 62.6852L160.567 83H162.627ZM57.2964 95.8344L41.8524 96.7056L42.0108 98.844H47.832L47.3568 123L50.9208 122.564L52.1088 98.844L57.1776 98.9232L57.2964 95.8344ZM58.1048 123.238L69.1532 122.366L73.034 108.15L71.9648 101.933L68.8364 95.2404L58.9364 96.9828L60.4412 100.982L66.698 98.7252L68.9948 102.566L69.668 107.358L60.758 106.962L60.8768 110.209L69.8264 109.972L66.7772 119.872L58.2236 119.119L58.1048 123.238ZM77.106 126.762L76.4724 122.96H92.7876V126.604L95.0844 126.881L95.5992 121.733L94.926 120.624L91.5996 120.703L88.3128 96.5076L87.1248 95.4384H83.7192L77.4228 120.901L74.4924 120.941L73.8984 121.812L74.5716 126.96L77.106 126.762ZM84.9072 99.1212L87.6 120.743L80.1948 120.862L84.9072 99.1212ZM98.1822 126.762L97.5486 122.96H113.864V126.604L116.161 126.881L116.675 121.733L116.002 120.624L112.676 120.703L109.389 96.5076L108.201 95.4384H104.795L98.499 120.901L95.5686 120.941L94.9746 121.812L95.6478 126.96L98.1822 126.762ZM105.983 99.1212L108.676 120.743L101.271 120.862L105.983 99.1212ZM136.207 123.079L135.217 95.9928L131.851 95.7948L122.624 114.842L123.139 95.874H118.783L118.744 122.723L121.357 122.842L131.455 102.052L132.01 123.079H136.207Z" fill="white"/>
<path d="M96.0001 17.5C82.8001 17.9 76.1667 37.3333 74.5001 47C69.7001 36.6 76.5001 14.6667 80.5001 5L96.0001 17.5Z" fill="#FF843F"/>
</g>
<defs>
<clipPath id="clip0_480_1941">
<rect width="180" height="180" fill="white"/>
</clipPath>
</defs>
</svg>
