<svg width="180" height="180" viewBox="0 0 180 180" fill="none" xmlns="http://www.w3.org/2000/svg">
<g clip-path="url(#clip0_486_4055)">
<rect width="180" height="180" fill="#566B1A"/>
<path d="M116.551 33.1942L104.296 60.0283L96.5642 56.4972L105.911 36.0305L90.2506 23.3817L95.6403 17.598L108.819 29.6631L163.214 17.6769L168.672 20.1694L116.551 33.1942Z" fill="#44251F"/>
<path d="M147.662 123.082C131.372 158.751 89.252 174.461 53.5835 158.171C17.9149 141.881 2.20519 99.7611 18.4948 64.0925C34.7844 28.4239 68.3887 31.3616 104.057 47.6512C139.726 63.9409 163.952 87.4139 147.662 123.082Z" fill="#26871B"/>
<path d="M36.5269 158.04C23.3269 149.24 20.6935 129.707 21.0269 121.04C25.5269 101.54 39 122.629 41.5 130.629C44 138.629 53.0269 169.04 36.5269 158.04Z" fill="#59B04F"/>
<path d="M31.2623 32.7156H28.6091C24.0947 32.8344 20.9663 36.7944 20.9663 40.5168C20.9663 44.4372 23.0651 46.8132 25.6391 47.6052C22.6295 52.1592 17.6795 59.1684 17.6795 59.208L21.0059 60.7524L28.3319 48.0804L28.1339 60H31.8563L31.2623 32.7156ZM23.3423 40.794C23.3423 37.7844 25.7579 34.8144 28.5695 34.7352L28.3715 45.9024C28.1735 45.942 28.0151 45.942 27.8567 45.942C25.2431 45.942 23.3423 43.6848 23.3423 40.794ZM48.5211 57.624V46.536L45.3135 43.764L39.6903 44.0016L39.7695 36.636L47.9271 36.1608L47.3727 32.6364H37.3935L36.6015 60H45.3135L48.5211 57.624ZM39.4527 57.1092L39.6507 46.0212L43.8879 45.8232L45.6699 47.724L45.6303 55.2084L44.2443 56.3172L39.4527 57.1092ZM60.5162 39.4872L65.8622 59.9604H69.7034L61.3874 32.8344H58.4966L49.7846 59.9604H53.111L60.5162 39.4872ZM77.4963 60H82.2483L85.8915 55.1292L86.3271 37.7052L81.4959 32.676H74.3283L70.9227 37.5468L70.5267 54.9708L77.4963 60ZM79.7535 35.2104L82.2879 38.7348L81.4959 54.7728L78.9615 57.2676L73.7739 53.5452L74.2887 37.5072L76.0311 35.0916L79.7535 35.2104ZM101.733 33.1908L98.2083 32.8344L97.9311 43.1304L92.3079 44.4768L90.8031 42.9324L92.2683 32.874L88.4667 32.7156L87.7143 44.358L91.7931 47.6052L97.8519 45.5064L97.4955 59.4852L100.941 60.0792L101.733 33.1908ZM122.876 59.9604L122.916 32.7156H118.639L118.52 45.6252L109.61 45.4272L109.689 32.7156H106.482L106.957 59.9604H109.491L109.61 47.4864H118.52L118.362 59.9604H122.876ZM133.416 60H138.168L141.811 55.1292L142.247 37.7052L137.415 32.676L130.248 32.676L126.842 37.5468L126.446 54.9708L133.416 60ZM135.673 35.2104L138.207 38.7348L137.415 54.7728L134.881 57.2676L129.693 53.5452L130.208 37.5072L131.951 35.0916L135.673 35.2104ZM148.584 36.8736L156.662 36.438V32.9136H146.327L145.772 60H156.662V56.634L148.029 55.8816L148.267 47.2884L154.722 48.1596V45.2688H148.346L148.584 36.8736ZM32.5883 97.624V86.536L29.3807 83.764L23.7575 84.0016L23.8367 76.636L31.9943 76.1608L31.4399 72.6364H21.4607L20.6687 100H29.3807L32.5883 97.624ZM23.5199 97.1092L23.7179 86.0212L27.9551 85.8232L29.7371 87.724L29.6975 95.2084L28.3115 96.3172L23.5199 97.1092ZM44.5834 79.4872L49.9294 99.9604H53.7706L45.4546 72.8344H42.5638L33.8518 99.9604H37.1782L44.5834 79.4872ZM72.4238 100L75.1166 99.4456L67.1966 72.5176H63.5534L55.2374 99.3268L59.1182 100.396L61.613 90.8524L69.4538 90.1792L72.4238 100ZM65.4938 76.9924L68.8994 88.318L62.1674 88.714L65.4938 76.9924ZM92.8682 85.942L100.63 100.119L104.59 98.7328L95.0462 83.962L102.927 75.1312L100.749 72.9136L92.591 83.7244H91.7594L91.8386 72.9532L87.5222 72.7552L87.3638 83.7244H87.2846L79.127 72.9136L76.5926 75.7648L84.2354 84.8332L75.8798 99.604L79.6022 100.554L87.0074 85.942L87.3242 85.9816L87.1658 100.158L91.4426 99.9604L91.5614 86.1004L92.8682 85.942ZM109.989 76.8736L118.068 76.438V72.9136H107.732L107.178 100H118.068V96.634L109.435 95.8816L109.673 87.2884L116.127 88.1596V85.2688H109.752L109.989 76.8736ZM136.914 99.9604L136.953 72.7156H132.677L132.558 85.6252L123.648 85.4272L123.727 72.7156H120.52L120.995 99.9604H123.529L123.648 87.4864H132.558L132.399 99.9604H136.914ZM145.949 100H153.79L156.126 94.9708L153.116 93.466L151.572 96.832L147.097 96.6736L144.286 93.1492L145.078 77.9428L147.097 75.3292L150.938 76.0816L152.602 79.7248L155.413 78.2596L152.918 72.7156H145.117L141.038 77.5864L140.524 94.9708L145.949 100ZM77.1 112.557L61.3788 113.468L61.5372 115.686H67.596L67.0812 139.881L70.4868 139.406L71.6748 115.686L76.9416 115.765L77.1 112.557ZM80.4363 112.834L79.6047 140H89.8215L92.7519 137.703L93.0291 126.734L89.4255 124.358L92.5143 117.072L90.0591 112.953L80.4363 112.834ZM90.2175 128.437L90.0195 135.802L87.6831 137.505L83.8815 137.149L83.9211 126.892L87.5643 126.298L90.2175 128.437ZM86.1387 124.239L83.9211 124.675L83.9607 115.329L87.5247 115.29L88.9899 117.468L86.1387 124.239ZM103.058 140H107.81L111.454 135.129L111.889 117.705L107.058 112.676H99.8904L96.4848 117.547L96.0888 134.971L103.058 140ZM105.316 115.21L107.85 118.735L107.058 134.773L104.524 137.268L99.336 133.545L99.8508 117.507L101.593 115.092L105.316 115.21Z" fill="white"/>
</g>
<defs>
<clipPath id="clip0_486_4055">
<rect width="180" height="180" fill="white"/>
</clipPath>
</defs>
</svg>
