<svg width="180" height="180" viewBox="0 0 180 180" fill="none" xmlns="http://www.w3.org/2000/svg">
<g clip-path="url(#clip0_492_3124)">
<rect width="180" height="180" fill="#D3951A"/>
<path fill-rule="evenodd" clip-rule="evenodd" d="M87.0877 15.5L89.5 -12L91.4298 15.5H96V26.5H93V28.5H94C95.6578 48.8912 100.49 80.8091 109.604 110.5H113V120.864C115.257 127.318 117.734 133.58 120.441 139.5H125V148.709C132.318 162.334 141.09 173.363 151.5 179.5H118C115.886 173.725 113.294 165.877 110.548 156.5H68.9524C66.2064 165.877 63.6138 173.725 61.5 179.5H28C38.1742 173.503 46.7833 162.831 54 149.632V139.5H59.0589C61.6773 133.775 64.0795 127.729 66.2767 121.5H66V110.5H69.8962C79.01 80.8091 83.8422 48.8912 85.5 28.5H86V26.5H83V15.5H87.0877ZM80.3153 110.5C85.3305 85.8181 89.2096 58.1126 89.4844 31.5H90.0156C90.2904 58.1126 94.1695 85.8181 99.1847 110.5H80.3153ZM73.6278 139.5C75.0965 133.808 76.5577 127.783 77.9652 121.5H101.535C102.942 127.783 104.404 133.808 105.872 139.5H73.6278Z" fill="#6B291A"/>
<path d="M39.6127 68.4688L43.3863 81H47.7295L40.2179 56.2936H36.2307L31.8519 81H34.0947L35.9815 68.4332L39.6127 68.4688ZM37.2275 60.1028L39.1143 66.8668L36.2307 66.76L37.2275 60.1028ZM53.4124 58.2516H61.6716V81.2136L65.6944 80.7508V56.5072H51.3832L50.3508 57.2192V81H53.4124V58.2516ZM73.0914 70.9964L82.3474 70.8184L85.5158 68.1484L85.5514 60.3876L82.1694 56.6496H69.9586V81H72.9846L73.0914 70.9964ZM73.0914 68.8604L73.1982 59.1772L80.1758 59.6044L82.7746 61.5268L82.0982 66.8312L80.425 68.7892L73.0914 68.8604ZM90.3557 60.2096L97.6181 59.818V56.6496H88.3265L87.8281 81H97.6181V77.974L89.8573 77.2976L90.0709 69.5724L95.8737 70.3556V67.7568H90.1421L90.3557 60.2096ZM108.945 62.5592L113.751 80.9644H117.204L109.728 56.5784H107.129L99.2972 80.9644H102.288L108.945 62.5592ZM125.259 56.4716H121.343L119.813 81H127.716L133.127 77.44L133.376 70.2844L130.493 67.116L124.512 68.54L125.259 56.4716ZM128.997 70.0352L130.493 71.6016L130.279 76.0516L125.9 78.864L123.942 78.4724L124.405 71.1032L128.997 70.0352ZM144.444 56.5784L143.696 81H152.881L155.516 78.9352L155.765 69.074L152.525 66.938L155.302 60.3876L153.095 56.6852L144.444 56.5784ZM153.237 70.6048L153.059 77.2264L150.959 78.7572L147.541 78.4368L147.577 69.2164L150.852 68.6824L153.237 70.6048ZM149.57 66.8312L147.577 67.2228L147.612 58.8212L150.816 58.7856L152.134 60.7436L149.57 66.8312ZM47.023 117H50.5474L50.0846 93.2192L49.0522 92.2936L34.741 92.5072V116.751L38.7638 117.214V94.2516H47.2722L47.023 117ZM68.6484 117L71.0692 116.502L63.9492 92.2936H60.674L53.198 116.395L56.6868 117.356L58.9296 108.776L65.9784 108.171L68.6484 117ZM62.4184 96.3164L65.48 106.498L59.428 106.854L62.4184 96.3164ZM76.8461 106.996L86.1021 106.818L89.2705 104.148L89.3061 96.3876L85.9241 92.6496H73.7133V117H76.7393L76.8461 106.996ZM76.8461 104.86L76.9529 95.1772L83.9305 95.6044L86.5293 97.5268L85.8529 102.831L84.1797 104.789L76.8461 104.86ZM107.282 117.071L106.392 92.7208L103.366 92.5428L95.0716 109.666L95.5344 92.614H91.6184L91.5828 116.751L93.9324 116.858L103.01 98.1676L103.509 117.071H107.282ZM124.853 104.362L131.83 117.107L135.39 115.861L126.811 102.582L133.895 94.6432L131.937 92.6496L124.603 102.368H123.856L123.927 92.6852L120.047 92.5072L119.904 102.368H119.833L112.499 92.6496L110.221 95.2128L117.092 103.365L109.58 116.644L112.927 117.498L119.584 104.362L119.869 104.398L119.726 117.142L123.571 116.964L123.678 104.504L124.853 104.362ZM140.244 96.2096L147.507 95.818V92.6496H138.215L137.717 117H147.507V113.974L139.746 113.298L139.96 105.572L145.762 106.356V103.757H140.031L140.244 96.2096Z" fill="white"/>
</g>
<defs>
<clipPath id="clip0_492_3124">
<rect width="180" height="180" fill="white"/>
</clipPath>
</defs>
</svg>
