<svg width="180" height="180" viewBox="0 0 180 180" fill="none" xmlns="http://www.w3.org/2000/svg">
<g clip-path="url(#clip0_486_4042)">
<rect width="180" height="180" fill="#6B291A"/>
<path d="M44.5 120.5C6.1 134.9 -12.1667 110.5 -16.5 96.5L-26 -18.5L185 -22.5C195.667 19.3333 214.2 108 203 128C189 153 133 154.5 112.5 161C96.1 166.2 100.333 178.833 104.5 184.5C70.5 160.5 155.5 144 149 115.5C142.5 87 92.5 102.5 44.5 120.5Z" fill="#938CE3"/>
<path d="M24.3187 67.1508L28.1203 89.9604H32.6347L27.7639 62.7156H23.1703L17.8639 89.6832L20.3983 90.4356L24.3187 67.1508ZM50.9058 90L53.5986 89.4456L45.6786 62.5176H42.0354L33.7194 89.3268L37.6002 90.396L40.095 80.8524L47.9358 80.1792L50.9058 90ZM43.9758 66.9924L47.3814 78.318L40.6494 78.714L43.9758 66.9924ZM55.0542 89.4852L66.5382 89.802L68.6766 80.9712L68.0034 78.1596L63.9246 75.6252L66.7758 73.0116L67.845 65.1312L63.4494 62.9136L56.0442 64.8144L57.1134 68.1804L61.9446 65.5668L63.885 66.5172L63.8454 72.0216L61.6278 74.8332H57.9846V77.2488L61.311 77.328L64.9542 80.5356L63.5286 87.3072L55.569 86.0004L55.0542 89.4852ZM73.1109 88.7724L76.2393 90L83.8029 62.874H80.3973L77.0313 74.8332L73.3881 62.676L70.7349 63.5472L75.8037 79.2288L73.1109 88.7724ZM89.8793 78.8724L100.175 78.6744L103.7 75.7044L103.739 67.0716L99.9773 62.9136H86.3945V90H89.7605L89.8793 78.8724ZM89.8793 76.4964L89.9981 65.7252L97.7597 66.2004L100.651 68.3388L99.8981 74.2392L98.0369 76.4172L89.8793 76.4964ZM122.666 89.9604L122.706 62.7156H118.429L118.31 75.6252L109.4 75.4272L109.479 62.7156H106.272L106.747 89.9604H109.281L109.4 77.4864H118.31L118.152 89.9604H122.666ZM127.464 63.1116L128.652 87.8616L131.226 90H137.879L139.661 86.2776L138.908 76.932L136.136 73.8432L131.939 73.5264L131.464 62.8344L127.464 63.1116ZM147.145 62.8344H142.631L142.948 90H146.155L147.145 62.8344ZM135.265 76.2192L136.176 77.6844L136.889 86.0796L136.057 87.9804L132.572 87.5844L132.058 75.942L135.265 76.2192ZM154.716 66.8736L162.795 66.438V62.9136H152.459L151.905 90H162.795V86.634L154.162 85.8816L154.399 77.2884L160.854 78.1596V75.2688H154.479L154.716 66.8736ZM65.1856 130H73.0264L75.3628 124.971L72.3532 123.466L70.8088 126.832L66.334 126.674L63.5224 123.149L64.3144 107.943L66.334 105.329L70.1752 106.082L71.8384 109.725L74.65 108.26L72.1552 102.716H64.354L60.2752 107.586L59.7604 124.971L65.1856 130ZM94.7452 129.96L94.7848 102.716H90.508L90.3892 115.625L81.4792 115.427L81.5584 102.716H78.3508L78.826 129.96H81.3604L81.4792 117.486H90.3892L90.2308 129.96H94.7452ZM99.5429 103.112L100.731 127.862L103.305 130H109.958L111.74 126.278L110.987 116.932L108.215 113.843L104.018 113.526L103.543 102.834L99.5429 103.112ZM119.224 102.834H114.71L115.027 130H118.234L119.224 102.834ZM107.344 116.219L108.255 117.684L108.968 126.08L108.136 127.98L104.651 127.584L104.137 115.942L107.344 116.219Z" fill="white"/>
<path d="M46.5 43.4992C20.5 59.0992 -23.3333 49.9992 -42 43.4992L-40.5 -18.5L25.5 -21.5C23.6667 -4.83361 28.7 26.1993 63.5 17C98.3 7.80066 120.333 20.8331 127 28.4992C111 17.9992 79 23.9992 46.5 43.4992Z" fill="#6B291A"/>
</g>
<defs>
<clipPath id="clip0_486_4042">
<rect width="180" height="180" fill="white"/>
</clipPath>
</defs>
</svg>
