<svg width="180" height="180" viewBox="0 0 180 180" fill="none" xmlns="http://www.w3.org/2000/svg">
<g clip-path="url(#clip0_461_2292)">
<rect width="180" height="180" fill="#E1B37E"/>
<path fill-rule="evenodd" clip-rule="evenodd" d="M76.1385 74.7738L114.805 55.682L136.864 52.1705L158.421 39.1279L162.933 0L188 49.1607L114.216 98.2297L185.995 121.898L162.432 138.452L57.1472 135.328L37.6 147.984L0 153V112.367L27.2964 98.8896L17.0453 27.0885L39.6053 11.0361L76.1385 74.7738ZM98.7627 138.452H74.1974C71.8578 142.967 73.7962 149.99 86.2293 149.99C98.3558 149.99 98.5913 143.309 98.7506 138.791C98.7546 138.677 98.7586 138.564 98.7627 138.452ZM21.0467 71.0847L23.7806 95.5123C23.728 95.5141 23.6746 95.516 23.6206 95.518C21.4843 95.597 18.3256 95.7138 16.976 83.6553C15.5923 71.292 18.6695 68.9954 21.0467 71.0847ZM19.5482 61.4559L18.2187 49.5765C17.0626 48.5605 15.5662 49.6773 16.2391 55.6897C16.8954 61.5539 18.4315 61.4971 19.4704 61.4586L19.5482 61.4559ZM125.258 138.452H108.789C108.792 138.52 108.795 138.589 108.797 138.658C108.904 141.409 109.062 145.475 117.192 145.475C125.527 145.475 126.827 141.201 125.258 138.452Z" fill="#8C9269"/>
<path d="M72.3077 97.88L72.6021 98.8357L73.3077 98.6183V97.88H72.3077ZM72.3077 86.16H73.3077V85.4561L72.645 85.2186L72.3077 86.16ZM65.3877 83.68L65.725 82.7386L65.5419 82.673L65.3476 82.6808L65.3877 83.68ZM45.4277 84.48L44.4279 84.4565L44.4029 85.5219L45.4677 85.4792L45.4277 84.48ZM45.6277 75.96L45.595 74.9605L44.6501 74.9914L44.6279 75.9365L45.6277 75.96ZM71.3477 75.12L71.3803 76.1195L72.4425 76.0848L72.3433 75.0267L71.3477 75.12ZM71.1077 72.56L72.1033 72.4667L72.0182 71.5587L71.1063 71.56L71.1077 72.56ZM42.5877 72.6L42.5863 71.6L41.6567 71.6013L41.5902 72.5285L42.5877 72.6ZM40.7477 98.28L39.7502 98.2085L39.7186 98.6499L40.0239 98.9701L40.7477 98.28ZM42.3877 100L41.6639 100.69L41.9594 101H42.3877V100ZM65.4277 100V101H65.5782L65.7221 100.956L65.4277 100ZM44.8277 97.48L43.829 97.4274L43.7709 98.5318L44.8755 98.4789L44.8277 97.48ZM45.3877 86.84L45.3434 85.841L44.4367 85.8811L44.389 86.7874L45.3877 86.84ZM62.5477 86.08L62.8066 85.1141L62.6576 85.0742L62.5034 85.081L62.5477 86.08ZM68.0677 87.56L69.0674 87.5806L69.0836 86.7971L68.3266 86.5941L68.0677 87.56ZM67.9077 95.32L68.1694 96.2851L68.892 96.0892L68.9074 95.3406L67.9077 95.32ZM63.1877 96.6L63.2355 97.5989L63.3443 97.5936L63.4494 97.5651L63.1877 96.6ZM73.3077 97.88V86.16H71.3077V97.88H73.3077ZM72.645 85.2186L65.725 82.7386L65.0503 84.6214L71.9703 87.1014L72.645 85.2186ZM65.3476 82.6808L45.3876 83.4808L45.4677 85.4792L65.4277 84.6792L65.3476 82.6808ZM46.4274 84.5035L46.6274 75.9835L44.6279 75.9365L44.4279 84.4565L46.4274 84.5035ZM45.6603 76.9595L71.3803 76.1195L71.315 74.1205L45.595 74.9605L45.6603 76.9595ZM72.3433 75.0267L72.1033 72.4667L70.112 72.6533L70.352 75.2133L72.3433 75.0267ZM71.1063 71.56L42.5863 71.6L42.5891 73.6L71.1091 73.56L71.1063 71.56ZM41.5902 72.5285L39.7502 98.2085L41.7451 98.3515L43.5851 72.6715L41.5902 72.5285ZM40.0239 98.9701L41.6639 100.69L43.1114 99.3099L41.4714 97.5899L40.0239 98.9701ZM42.3877 101H65.4277V99H42.3877V101ZM65.7221 100.956L72.6021 98.8357L72.0132 96.9243L65.1332 99.0443L65.7221 100.956ZM45.8263 97.5326L46.3863 86.8926L44.389 86.7874L43.829 97.4274L45.8263 97.5326ZM45.4319 87.839L62.5919 87.079L62.5034 85.081L45.3434 85.841L45.4319 87.839ZM62.2887 87.0459L67.8087 88.5259L68.3266 86.5941L62.8066 85.1141L62.2887 87.0459ZM67.0679 87.5394L66.9079 95.2994L68.9074 95.3406L69.0674 87.5806L67.0679 87.5394ZM67.6459 94.3549L62.9259 95.6349L63.4494 97.5651L68.1694 96.2851L67.6459 94.3549ZM63.1398 95.6011L44.7798 96.4811L44.8755 98.4789L63.2355 97.5989L63.1398 95.6011ZM78.0752 86.88H77.0752V87.7988L77.9906 87.8764L78.0752 86.88ZM87.0352 87.64L86.9506 88.6364L87.9067 88.7175L88.0272 87.7656L87.0352 87.64ZM87.4352 84.48L88.4272 84.6056L88.5697 83.48H87.4352V84.48ZM78.0752 84.48V83.48H77.0752V84.48H78.0752ZM77.9906 87.8764L86.9506 88.6364L87.1197 86.6436L78.1597 85.8836L77.9906 87.8764ZM88.0272 87.7656L88.4272 84.6056L86.4431 84.3544L86.0431 87.5144L88.0272 87.7656ZM87.4352 83.48H78.0752V85.48H87.4352V83.48ZM77.0752 84.48V86.88H79.0752V84.48H77.0752ZM97.2483 83.96L96.2674 83.7652L96.0371 84.9252L97.2192 84.9596L97.2483 83.96ZM97.2083 92.2L98.0009 91.5903L97.4876 90.923L96.7425 91.3151L97.2083 92.2ZM94.1683 93.8L93.7025 92.9151L92.8602 93.3584L93.2615 94.2216L94.1683 93.8ZM100.768 81.64L99.7756 81.5193L99.6393 82.64H100.768V81.64ZM101.488 75.72L101.633 74.7306L100.619 74.582L100.496 75.5993L101.488 75.72ZM112.408 77.32L112.263 78.3094L113.408 78.4772V77.32H112.408ZM112.408 74.04H113.408V73.1255L112.497 73.044L112.408 74.04ZM99.4483 72.88L99.5374 71.884L98.6424 71.8039L98.4674 72.6852L99.4483 72.88ZM97.2192 84.9596C100.632 85.0588 103.715 85.4564 105.914 86.3991C107.003 86.8658 107.822 87.4437 108.365 88.1338C108.897 88.8085 109.208 89.6428 109.208 90.72H111.208C111.208 89.2172 110.76 87.9415 109.936 86.8962C109.125 85.8663 107.993 85.1142 106.702 84.5609C104.142 83.4636 100.745 83.0612 97.2773 82.9604L97.2192 84.9596ZM109.208 90.72C109.208 92.3492 108.682 93.4147 107.96 94.0798C107.224 94.7586 106.176 95.12 104.968 95.12V97.12C106.561 97.12 108.132 96.6414 109.316 95.5502C110.515 94.4453 111.208 92.8108 111.208 90.72H109.208ZM104.968 95.12C102.361 95.12 99.813 93.946 98.0009 91.5903L96.4157 92.8097C98.6035 95.654 101.735 97.12 104.968 97.12V95.12ZM96.7425 91.3151L93.7025 92.9151L94.634 94.6849L97.674 93.0849L96.7425 91.3151ZM93.2615 94.2216C95.5563 99.1576 100.246 101.68 104.808 101.68V99.68C100.971 99.68 97.0202 97.5624 95.0751 93.3784L93.2615 94.2216ZM104.808 101.68C108.343 101.68 111.038 100.494 112.847 98.5946C114.645 96.7073 115.488 94.1979 115.488 91.68H113.488C113.488 93.7621 112.792 95.7527 111.399 97.2154C110.018 98.6656 107.874 99.68 104.808 99.68V101.68ZM115.488 91.68C115.488 88.7412 114.32 85.9404 111.834 83.8931C109.364 81.8588 105.685 80.64 100.768 80.64V82.64C105.372 82.64 108.552 83.7812 110.563 85.4369C112.557 87.0796 113.488 89.2988 113.488 91.68H115.488ZM101.761 81.7607L102.481 75.8407L100.496 75.5993L99.7756 81.5193L101.761 81.7607ZM101.343 76.7094L112.263 78.3094L112.553 76.3306L101.633 74.7306L101.343 76.7094ZM113.408 77.32V74.04H111.408V77.32H113.408ZM112.497 73.044L99.5374 71.884L99.3591 73.876L112.319 75.036L112.497 73.044ZM98.4674 72.6852L96.2674 83.7652L98.2291 84.1548L100.429 73.0748L98.4674 72.6852ZM118.162 78.16L117.312 77.6329L116.723 78.5836L117.733 79.0634L118.162 78.16ZM122.122 80.04L121.693 80.9434L122.314 81.2382L122.812 80.7639L122.122 80.04ZM118.162 96.8L117.192 97.0425L117.194 97.0501L117.196 97.0577L118.162 96.8ZM119.122 100.4L118.156 100.658L118.354 101.4H119.122V100.4ZM138.682 100.4V101.4H139.682V100.4H138.682ZM138.682 96.68H139.682V95.6565L138.659 95.6803L138.682 96.68ZM123.362 97.12L122.505 96.6055L121.572 98.16L123.384 98.1198L123.362 97.12ZM140.122 78.64C140.122 76.0998 138.942 74.2322 137.099 73.0444C135.306 71.889 132.934 71.4 130.482 71.4V73.4C132.71 73.4 134.658 73.851 136.015 74.7256C137.322 75.5678 138.122 76.8202 138.122 78.64H140.122ZM130.482 71.4C127.76 71.4 125.024 72.0889 122.707 73.1921C120.404 74.2888 118.425 75.8383 117.312 77.6329L119.012 78.6871C119.859 77.3217 121.48 75.9912 123.567 74.9979C125.64 74.011 128.084 73.4 130.482 73.4V71.4ZM117.733 79.0634L121.693 80.9434L122.551 79.1366L118.591 77.2566L117.733 79.0634ZM122.812 80.7639C125.323 78.3704 127.721 76.68 131.082 76.68V74.68C126.924 74.68 124.041 76.8296 121.432 79.3161L122.812 80.7639ZM131.082 76.68C131.983 76.68 132.614 76.856 132.998 77.1396C133.327 77.3826 133.602 77.7966 133.602 78.64H135.602C135.602 77.2834 135.117 76.2174 134.186 75.5304C133.31 74.884 132.181 74.68 131.082 74.68V76.68ZM133.602 78.64C133.602 79.0414 133.432 79.6272 133.011 80.4065C132.599 81.1684 131.994 82.0289 131.241 82.956C129.734 84.8091 127.707 86.8359 125.656 88.7426C123.61 90.6453 121.565 92.4048 120.028 93.7277C119.264 94.3853 118.616 94.943 118.164 95.3512C117.94 95.5532 117.746 95.7344 117.606 95.8807C117.539 95.9504 117.46 96.0372 117.392 96.1289C117.36 96.1724 117.307 96.2497 117.261 96.3496C117.235 96.4051 117.103 96.6857 117.192 97.0425L119.132 96.5575C119.218 96.8993 119.09 97.159 119.076 97.1879C119.043 97.2612 119.009 97.3061 119.005 97.3117C118.993 97.3276 119 97.3162 119.048 97.2666C119.137 97.1742 119.286 97.0322 119.504 96.8358C119.935 96.4473 120.561 95.9078 121.333 95.2435C122.867 93.9227 124.939 92.1397 127.018 90.2074C129.092 88.2791 131.198 86.1784 132.792 84.2178C133.589 83.2379 134.277 82.27 134.77 81.3577C135.254 80.4628 135.602 79.5286 135.602 78.64H133.602ZM117.196 97.0577L118.156 100.658L120.088 100.142L119.128 96.5423L117.196 97.0577ZM119.122 101.4H138.682V99.4H119.122V101.4ZM139.682 100.4V96.68H137.682V100.4H139.682ZM138.659 95.6803C136.074 95.7404 133.589 95.8205 131.08 95.9005C128.57 95.9805 126.034 96.0604 123.34 96.1202L123.384 98.1198C126.09 98.0596 128.634 97.9795 131.144 97.8995C133.655 97.8195 136.13 97.7396 138.705 97.6797L138.659 95.6803ZM124.22 97.6345C124.159 97.7353 124.093 97.8015 124.093 97.8019C124.076 97.8195 124.064 97.8311 124.061 97.8335C124.055 97.8394 124.055 97.8387 124.068 97.8279C124.091 97.8078 124.131 97.7749 124.19 97.7264C124.309 97.6302 124.479 97.4936 124.701 97.315C125.141 96.9603 125.767 96.4553 126.514 95.8341C128.008 94.5927 129.994 92.8832 131.981 90.9703C133.962 89.0619 135.968 86.928 137.486 84.8374C138.971 82.7911 140.122 80.6096 140.122 78.64H138.122C138.122 79.9304 137.318 81.6639 135.867 83.6626C134.448 85.617 132.537 87.6581 130.593 89.5297C128.655 91.3968 126.708 93.0723 125.236 94.2959C124.5 94.9072 123.884 95.4047 123.447 95.7569C123.23 95.9317 123.051 96.0747 122.927 96.1759C122.866 96.2261 122.811 96.2714 122.768 96.3079C122.747 96.3254 122.722 96.3477 122.697 96.3709C122.685 96.3821 122.665 96.401 122.643 96.4245C122.637 96.4309 122.567 96.5016 122.505 96.6055L124.22 97.6345Z" fill="white"/>
</g>
<defs>
<clipPath id="clip0_461_2292">
<rect width="180" height="180" fill="white"/>
</clipPath>
</defs>
</svg>
