<svg width="180" height="180" viewBox="0 0 180 180" fill="none" xmlns="http://www.w3.org/2000/svg">
<g clip-path="url(#clip0_486_4046)">
<rect width="180" height="180" fill="#B06969"/>
<path d="M43.4357 22.244L34.1432 29.2057C39.2539 36.1674 38.3248 55.6601 38.3248 73.7606C38.3248 91.861 -5.73148 188.794 17.4998 212C40.7312 235.206 196.814 217.746 207.5 208C218.186 198.254 162.38 84.4352 152.158 62.1577C141.936 39.8803 128.462 38.0238 121.028 34.3109C115.081 31.3406 108.328 14.1993 105.696 6L95.0092 8.78468C98.1067 13.2711 104.023 24.6574 102.908 34.3109C101.514 46.3779 88.0398 53.8037 69.4548 51.9472C54.5867 50.4621 45.9137 31.5262 43.4357 22.244Z" fill="#FB8EEA"/>
<path d="M15.9344 99.8812C16.8056 99.9604 18.8648 100 19.6568 100C26.3096 100 29.4776 96.9112 29.4776 92.2384C29.4776 87.922 26.5472 84.6352 20.8844 84.5164L21.2408 75.2104L28.9232 75.0124L29.3588 72.7156L17.3204 72.9532L15.9344 99.8812ZM21.716 97.03C21.32 97.03 20.8844 97.03 20.4092 96.9904L20.8844 86.5756C24.5672 86.734 26.666 88.8328 26.666 92.1196C26.666 94.6144 25.1216 97.03 21.716 97.03ZM47.9281 100L50.6209 99.4456L42.7009 72.5176H39.0577L30.7417 99.3268L34.6225 100.396L37.1173 90.8524L44.9581 90.1792L47.9281 100ZM40.9981 76.9924L44.4037 88.318L37.6717 88.714L40.9981 76.9924ZM65.4817 97.624V86.536L62.2741 83.764L56.6509 84.0016L56.7301 76.636L64.8877 76.1608L64.3333 72.6364H54.3541L53.5621 100H62.2741L65.4817 97.624ZM56.4133 97.1092L56.6113 86.0212L60.8485 85.8232L62.6305 87.724L62.5909 95.2084L61.2049 96.3172L56.4133 97.1092ZM83.9316 100L86.6244 99.4456L78.7044 72.5176H75.0612L66.7452 99.3268L70.626 100.396L73.1208 90.8524L80.9616 90.1792L83.9316 100ZM77.0016 76.9924L80.4072 88.318L73.6752 88.714L77.0016 76.9924ZM111.727 72.8344L96.2831 73.7056L96.4415 75.844H102.263L101.787 100L105.351 99.5644L106.539 75.844L111.608 75.9232L111.727 72.8344ZM126.316 100L129.009 99.4456L121.089 72.5176H117.446L109.13 99.3268L113.01 100.396L115.505 90.8524L123.346 90.1792L126.316 100ZM119.386 76.9924L122.792 88.318L116.06 88.714L119.386 76.9924ZM148.344 99.9604L148.384 72.7156H144.107L143.988 85.6252L135.078 85.4272L135.158 72.7156H131.95L132.425 99.9604H134.96L135.078 87.4864H143.988L143.83 99.9604H148.344ZM161.577 88.12L161.102 100H164.23V72.874H154.607L152.192 76.1608V85.3876L154.211 88.12H156.627L152.033 99.406L155.399 100.396L159.835 88.12H161.577ZM161.577 85.546H156.627L155.122 83.8828V77.3884L156.785 75.2896H161.577V85.546Z" fill="white"/>
</g>
<defs>
<clipPath id="clip0_486_4046">
<rect width="180" height="180" fill="white"/>
</clipPath>
</defs>
</svg>
