<svg width="180" height="180" viewBox="0 0 180 180" fill="none" xmlns="http://www.w3.org/2000/svg">
<g clip-path="url(#clip0_461_2177)">
<rect width="180" height="180" fill="#CC4163"/>
<path d="M56.5 112.5L151.5 6L156.5 14L84.5 131.5L56.5 112.5Z" fill="#EEAA25"/>
<path d="M73.9998 138C73.9998 146.837 45.9996 148 49.4996 158.5C52.9997 169 37.4994 156.5 38.9996 144.5C40.4997 132.5 49.1633 122 57.9998 122C66.8364 122 73.9998 129.163 73.9998 138Z" fill="#F0C3E9"/>
<path d="M23.0693 99.8812C23.9405 99.9604 25.9997 100 26.7917 100C33.4445 100 36.6125 96.9112 36.6125 92.2384C36.6125 87.922 33.6821 84.6352 28.0193 84.5164L28.3757 75.2104L36.0581 75.0124L36.4937 72.7156L24.4553 72.9532L23.0693 99.8812ZM28.8509 97.03C28.4549 97.03 28.0193 97.03 27.5441 96.9904L28.0193 86.5756C31.7021 86.734 33.8009 88.8328 33.8009 92.1196C33.8009 94.6144 32.2565 97.03 28.8509 97.03ZM42.5098 76.8736L50.5882 76.438V72.9136H40.2526L39.6982 100H50.5882V96.634L41.9554 95.8816L42.193 87.2884L48.6478 88.1596V85.2688H42.2722L42.5098 76.8736ZM63.1875 79.4872L68.5335 99.9604H72.3747L64.0587 72.8344H61.1679L52.4559 99.9604H55.7823L63.1875 79.4872ZM84.1863 79.4872L89.5323 99.9604H93.3735L85.0575 72.8344H82.1667L73.4547 99.9604H76.7811L84.1863 79.4872ZM113.739 100.079L112.749 72.9928L109.383 72.7948L100.156 91.8424L100.671 72.874H96.3148L96.2752 99.7228L98.8888 99.8416L108.987 79.0516L109.541 100.079H113.739ZM134.867 99.9604L134.907 72.7156H130.63L130.511 85.6252L121.601 85.4272L121.68 72.7156H118.473L118.948 99.9604H121.482L121.601 87.4864H130.511L130.353 99.9604H134.867ZM157.129 100.079L156.139 72.9928L152.773 72.7948L143.546 91.8424L144.061 72.874H139.705L139.665 99.7228L142.279 99.8416L152.377 79.0516L152.931 100.079H157.129Z" fill="white"/>
</g>
<defs>
<clipPath id="clip0_461_2177">
<rect width="180" height="180" fill="white"/>
</clipPath>
</defs>
</svg>
