<svg width="180" height="180" viewBox="0 0 180 180" fill="none" xmlns="http://www.w3.org/2000/svg">
<g clip-path="url(#clip0_480_2104)">
<rect width="180" height="180" fill="#304034"/>
<path d="M52 94L63.2714 170.843L63.2714 208H90.5001H117.729V170.843L129 94H90.5001H52Z" fill="#67886F"/>
<rect x="98" y="120.755" width="50.4337" height="50.4337" rx="16" transform="rotate(-14.6491 98 120.755)" fill="#AED8FF"/>
<rect width="36.6332" height="36.6332" rx="13" transform="matrix(-0.967493 -0.252898 -0.252898 0.967493 78.7065 108.264)" fill="#8FC9FF"/>
<path d="M136.904 79.4846L76.4444 35.7915C73.8397 45.4547 73.1711 67.5101 91.3341 78.4271C109.497 89.344 129.282 83.6808 136.904 79.4846Z" fill="#CA8647"/>
<path d="M11.6045 98.8932C12.3877 98.9644 14.2389 99 14.9509 99C20.9317 99 23.7797 96.2232 23.7797 92.0224C23.7797 88.142 21.1453 85.1872 16.0545 85.0804L16.3749 76.7144L23.2813 76.5364L23.6729 74.4716L12.8505 74.6852L11.6045 98.8932ZM16.8021 96.33C16.4461 96.33 16.0545 96.33 15.6273 96.2944L16.0545 86.9316C19.3653 87.074 21.2521 88.9608 21.2521 91.9156C21.2521 94.1584 19.8637 96.33 16.8021 96.33ZM42.2533 99.0712L41.3633 74.7208L38.3373 74.5428L30.0425 91.6664L30.5053 74.614H26.5893L26.5537 98.7508L28.9033 98.8576L37.9813 80.1676L38.4797 99.0712H42.2533ZM57.2248 96.864V86.896L54.3412 84.404L49.286 84.6176L49.3572 77.996L56.6908 77.5688L56.1924 74.4004H47.2212L46.5092 99H54.3412L57.2248 96.864ZM49.0724 96.4012L49.2504 86.4332L53.0596 86.2552L54.6616 87.964L54.626 94.6924L53.38 95.6892L49.0724 96.4012ZM68.0083 80.5592L72.8143 98.9644H76.2675L68.7915 74.5784H66.1927L58.3607 98.9644H61.3511L68.0083 80.5592ZM83.2731 99H87.5451L90.8203 94.6212L91.2119 78.9572L86.8687 74.436H80.4251L77.3635 78.8148L77.0075 94.4788L83.2731 99ZM85.3023 76.7144L87.5807 79.8828L86.8687 94.3008L84.5903 96.5436L79.9267 93.1972L80.3895 78.7792L81.9559 76.6076L85.3023 76.7144ZM98.9555 99H106.004L108.105 94.4788L105.399 93.126L104.011 96.152L99.9879 96.0096L97.4603 92.8412L98.1723 79.1708L99.9879 76.8212L103.441 77.4976L104.936 80.7728L107.464 79.4556L105.221 74.4716H98.2079L94.5411 78.8504L94.0783 94.4788L98.9555 99ZM123.914 99H128.186L131.461 94.6212L131.853 78.9572L127.51 74.436H121.066L118.005 78.8148L117.649 94.4788L123.914 99ZM125.943 76.7144L128.222 79.8828L127.51 94.3008L125.231 96.5436L120.568 93.1972L121.031 78.7792L122.597 76.6076L125.943 76.7144ZM143.032 80.5592L147.838 98.9644H151.292L143.816 74.5784H141.217L133.385 98.9644H136.375L143.032 80.5592ZM154.363 102.382L153.793 98.9644H168.461V102.24L170.525 102.489L170.988 97.8608L170.383 96.864L167.393 96.9352L164.438 75.1836L163.37 74.2224H160.308L154.648 97.1132L152.013 97.1488L151.479 97.932L152.085 102.56L154.363 102.382ZM161.376 77.5332L163.797 96.9708L157.14 97.0776L161.376 77.5332Z" fill="white"/>
</g>
<defs>
<clipPath id="clip0_480_2104">
<rect width="180" height="180" fill="white"/>
</clipPath>
</defs>
</svg>
