<svg width="180" height="180" viewBox="0 0 180 180" fill="none" xmlns="http://www.w3.org/2000/svg">
<rect width="180" height="180" fill="#717171"/>
<g clip-path="url(#clip0_461_2297)">
<path fill-rule="evenodd" clip-rule="evenodd" d="M141.131 90H168L119.536 199H62.1745L16 90L94.1237 90L94.842 88.0212C82.5592 81.2997 72.8185 69.5979 68.9735 54.1888C58.0764 10.5573 95.3823 -1.3068 95.3823 -1.3068C78.6203 26.7883 86.4913 50.8031 102.988 62.7097L115.86 22.6961L92.5655 12.7283L121.897 -5.57446L167.095 12.5753L163.673 40.0413L141.67 31.6607L121.518 70.2188C146.409 73.3703 165.048 43.8166 165.048 43.8166L200.855 57.2235L186.654 77.6635L167.276 66.9861C159.972 78.171 150.86 85.6916 141.131 90Z" fill="#242320"/>
</g>
<path d="M44.7958 80H48.9142L48.1222 52.9136H44.7958V63.5264C43.3702 64.7936 41.5486 65.15 39.8854 65.15C37.945 65.15 36.3214 64.16 36.3214 59.2892V53.1116L32.5198 52.9532L32.599 60.2C32.6782 65.7044 35.8066 67.8428 39.4498 67.8428C41.3902 67.8428 43.4098 67.1696 44.7958 66.1796V80ZM56.4964 56.8736L64.5748 56.438V52.9136H54.2392L53.6848 80H64.5748V76.634L55.942 75.8816L56.1796 67.2884L62.6344 68.1596V65.2688H56.2588L56.4964 56.8736ZM70.5114 68.8724L80.8074 68.6744L84.3318 65.7044L84.3714 57.0716L80.6094 52.9136H67.0266V80H70.3926L70.5114 68.8724ZM70.5114 66.4964L70.6302 55.7252L78.3918 56.2004L81.2826 58.3388L80.5302 64.2392L78.669 66.4172L70.5114 66.4964ZM103.298 79.9604L103.338 52.7156H99.0611L98.9423 65.6252L90.0323 65.4272L90.1115 52.7156H86.9039L87.3791 79.9604H89.9135L90.0323 67.4864H98.9423L98.7839 79.9604H103.298ZM108.096 53.1116L109.284 77.8616L111.858 80H118.511L120.293 76.2776L119.541 66.932L116.769 63.8432L112.571 63.5264L112.096 52.8344L108.096 53.1116ZM127.777 52.8344H123.263L123.58 80H126.787L127.777 52.8344ZM115.897 66.2192L116.808 67.6844L117.521 76.0796L116.689 77.9804L113.205 77.5844L112.69 65.942L115.897 66.2192ZM143.07 46.0628C141.922 46.9736 140.892 47.3696 139.902 47.3696C138.477 47.3696 137.13 46.6172 135.586 45.548L133.764 48.0032C135.309 49.3892 137.091 50.0228 138.794 50.0228C140.813 50.0228 142.714 49.1516 144.021 47.726L143.07 46.0628ZM145.328 80L144.338 52.6364H141.764L136.774 72.3176L136.893 52.7552L132.537 52.676L134.517 80H137.13L142.16 59.6852L143.268 80H145.328ZM32.1102 108.872L42.4062 108.674L45.9306 105.704L45.9702 97.0716L42.2082 92.9136H28.6254V120H31.9914L32.1102 108.872ZM32.1102 106.496L32.229 95.7252L39.9906 96.2004L42.8814 98.3388L42.129 104.239L40.2678 106.417L32.1102 106.496ZM49.3344 118.772L52.4628 120L60.0264 92.874H56.6208L53.2548 104.833L49.6116 92.676L46.9584 93.5472L52.0272 109.229L49.3344 118.772ZM66.8552 120H74.696L77.0324 114.971L74.0228 113.466L72.4784 116.832L68.0036 116.674L65.192 113.149L65.984 97.9428L68.0036 95.3292L71.8448 96.0816L73.508 99.7248L76.3196 98.2596L73.8248 92.7156H66.0236L61.9448 97.5864L61.43 114.971L66.8552 120ZM84.2575 120H92.0983L94.4347 114.971L91.4251 113.466L89.8807 116.832L85.4059 116.674L82.5943 113.149L83.3863 97.9428L85.4059 95.3292L89.2471 96.0816L90.9103 99.7248L93.7219 98.2596L91.2271 92.7156H83.4259L79.3471 97.5864L78.8323 114.971L84.2575 120ZM102.769 104.754L110.53 120.119L114.49 118.733L104.432 103.13L112.827 95.1312L110.649 92.9136L102.491 102.536H101.66L101.739 92.9532L97.7791 92.7552L97.4227 120.158L101.343 119.96L101.462 104.912L102.769 104.754ZM133.836 120.079L132.846 92.9928L129.48 92.7948L120.253 111.842L120.768 92.874H116.412L116.372 119.723L118.986 119.842L129.084 99.0516L129.638 120.079H133.836ZM149.103 86.0628C147.955 86.9736 146.925 87.3696 145.935 87.3696C144.51 87.3696 143.163 86.6172 141.619 85.548L139.797 88.0032C141.342 89.3892 143.124 90.0228 144.826 90.0228C146.846 90.0228 148.747 89.1516 150.054 87.726L149.103 86.0628ZM151.36 120L150.37 92.6364H147.796L142.807 112.318L142.926 92.7552L138.57 92.676L140.55 120H143.163L148.192 99.6852L149.301 120H151.36Z" fill="white"/>
<defs>
<clipPath id="clip0_461_2297">
<rect width="180" height="180" fill="white"/>
</clipPath>
</defs>
</svg>
