<svg width="180" height="180" viewBox="0 0 180 180" fill="none" xmlns="http://www.w3.org/2000/svg">
<g clip-path="url(#clip0_486_4009)">
<rect width="180" height="180" fill="#3A3F6D"/>
<path d="M68.6988 149.955C68.6988 149.955 71.5068 100.842 110.364 79.3223C113.094 78.5825 111.972 82.5498 111.972 82.5498C111.972 82.5498 122.649 75.9932 124.754 78.3532C126.859 80.7133 124.996 81.9506 124.996 81.9506C124.996 81.9506 134.181 77.9963 136.286 80.3564C138.391 82.7164 135.163 84.3237 135.163 84.3237C135.163 84.3237 145.088 83.0994 148.558 85.0895C152.028 87.0797 147.933 88.1894 147.933 88.1894C147.933 88.1894 168.764 92.0681 170.614 98.893C172.463 105.718 159.566 104.085 159.566 104.085C159.566 104.085 162.041 107.81 154.846 108.294C154.846 108.294 154.349 109.162 150.254 110.271C150.254 110.271 149.501 115.604 142.306 116.088C142.306 116.088 141.681 119.188 134.486 119.673C134.486 119.673 131.871 126.242 126.539 125.489C126.539 125.489 128.643 127.849 117.851 128.576C107.059 129.303 75.7789 143.641 71.7986 150.58C70.306 153.182 68.5711 152.187 68.6988 149.955Z" fill="#3CB200"/>
<path d="M78.893 81.5514C78.893 81.5514 43.7019 91.334 19.2759 69.1742C18.1024 67.4326 21.1596 67.272 21.1596 67.272C21.1596 67.272 13.9954 61.3368 15.1504 59.2926C16.3053 57.2483 17.6208 58.2612 17.6208 58.2612C17.6208 58.2612 12.6429 52.7521 13.7979 50.7079C14.9528 48.6636 16.855 50.5473 16.855 50.5473C16.855 50.5473 13.6188 43.8648 14.187 40.9497C14.7552 38.0347 16.5154 40.6471 16.5154 40.6471C16.5154 40.6471 14.2551 25.0773 18.6092 22.1438C22.9633 19.2102 24.9025 28.6657 24.9025 28.6657C24.9025 28.6657 26.9283 26.0347 28.991 30.9756C28.991 30.9756 29.7198 31.1176 31.48 33.7301C31.48 33.7301 35.4079 32.9828 37.4707 37.9236C37.4707 37.9236 39.7991 37.621 41.8618 42.5619C41.8618 42.5619 47.1053 42.8275 47.8525 46.7554C47.8525 46.7554 49.0075 44.7112 52.1016 52.1224C55.1958 59.5337 72.7603 78.0866 78.5904 79.2231C80.7767 79.6492 80.4926 81.1068 78.893 81.5514Z" fill="#41A20F"/>
<path d="M113.138 30.3043L161.943 72.0954C164.855 63.9774 166.976 45.0772 152.159 34.4203C137.343 23.7634 119.972 27.2359 113.138 30.3043Z" fill="#B9DE24"/>
<path d="M14.8765 80H18.9949L18.2029 52.9136H14.8765V63.5264C13.4509 64.7936 11.6293 65.15 9.96605 65.15C8.02565 65.15 6.40205 64.16 6.40205 59.2892V53.1116L2.60045 52.9532L2.67965 60.2C2.75885 65.7044 5.88725 67.8428 9.53045 67.8428C11.4709 67.8428 13.4905 67.1696 14.8765 66.1796V80ZM26.577 56.8736L34.6554 56.438V52.9136H24.3198L23.7654 80H34.6554V76.634L26.0226 75.8816L26.2602 67.2884L32.715 68.1596V65.2688H26.3394L26.577 56.8736ZM40.592 68.8724L50.888 68.6744L54.4124 65.7044L54.452 57.0716L50.69 52.9136H37.1072V80H40.4732L40.592 68.8724ZM40.592 66.4964L40.7108 55.7252L48.4724 56.2004L51.3632 58.3388L50.6108 64.2392L48.7496 66.4172L40.592 66.4964ZM73.3789 79.9604L73.4185 52.7156H69.1417L69.0229 65.6252L60.113 65.4272L60.1922 52.7156H56.9846L57.4598 79.9604H59.9942L60.113 67.4864H69.0229L68.8645 79.9604H73.3789ZM95.6403 80.0792L94.6503 52.9928L91.2843 52.7948L82.0575 71.8424L82.5723 52.874H78.2163L78.1767 79.7228L80.7903 79.8416L90.8883 59.0516L91.4427 80.0792H95.6403ZM112.254 53.1908L108.73 52.8344L108.453 63.1304L102.83 64.4768L101.325 62.9324L102.79 52.874L98.9884 52.7156L98.236 64.358L102.315 67.6052L108.374 65.5064L108.017 79.4852L111.462 80.0792L112.254 53.1908ZM133.398 79.9604L133.437 52.7156H129.16L129.042 65.6252L120.132 65.4272L120.211 52.7156H117.003L117.478 79.9604H120.013L120.132 67.4864H129.042L128.883 79.9604H133.398ZM138.195 53.1116L139.383 77.8616L141.957 80H148.61L150.392 76.2776L149.64 66.932L146.868 63.8432L142.67 63.5264L142.195 52.8344L138.195 53.1116ZM157.877 52.8344H153.362L153.679 80H156.887L157.877 52.8344ZM145.997 66.2192L146.907 67.6844L147.62 76.0796L146.789 77.9804L143.304 77.5844L142.789 65.942L145.997 66.2192ZM173.17 46.0628C172.021 46.9736 170.992 47.3696 170.002 47.3696C168.576 47.3696 167.23 46.6172 165.685 45.548L163.864 48.0032C165.408 49.3892 167.19 50.0228 168.893 50.0228C170.913 50.0228 172.813 49.1516 174.12 47.726L173.17 46.0628ZM175.427 80L174.437 52.6364H171.863L166.873 72.3176L166.992 52.7552L162.636 52.676L164.616 80H167.23L172.259 59.6852L173.368 80H175.427ZM43.4916 102.774L36.126 92.7552L34.74 93.3492L33.0768 120L36.1656 120.356L36.8784 99.6852L43.1352 107.843L50.5404 99.804L51.2532 120.04L54.6984 119.842L53.946 94.1016L51.8868 92.7552L43.4916 102.774ZM65.2596 120H70.0116L73.6548 115.129L74.0904 97.7052L69.2592 92.676H62.0916L58.686 97.5468L58.29 114.971L65.2596 120ZM67.5168 95.2104L70.0512 98.7348L69.2592 114.773L66.7248 117.268L61.5372 113.545L62.052 97.5072L63.7944 95.0916L67.5168 95.2104ZM80.2692 120.119L84.3876 108.041L89.2584 120.198L92.4264 119.05L85.932 105.15L91.3968 92.9928L87.9912 92.7156L84.3876 103.21L79.596 92.9136L77.1012 94.1412L82.5264 105.15L76.3092 119.842L80.2692 120.119ZM113.371 120.079L112.381 92.9928L109.015 92.7948L99.7886 111.842L100.303 92.874H95.9474L95.9078 119.723L98.5214 119.842L108.619 99.0516L109.174 120.079H113.371ZM130.915 92.5572L115.194 93.468L115.352 95.6856H121.411L120.896 119.881L124.302 119.406L125.49 95.6856L130.756 95.7648L130.915 92.5572ZM138.311 120H143.063L146.706 115.129L147.142 97.7052L142.31 92.676H135.143L131.737 97.5468L131.341 114.971L138.311 120ZM140.568 95.2104L143.102 98.7348L142.31 114.773L139.776 117.268L134.588 113.545L135.103 97.5072L136.846 95.0916L140.568 95.2104Z" fill="white"/>
<path d="M96 21C96 29.2843 88.6127 36 79.5 36C70.3873 36 63 29.2843 63 21C63 12.7157 70.3873 6 79.5 6C88.6127 6 96 12.7157 96 21Z" fill="#713FFF"/>
<path d="M58 157C58 162.523 53.299 167 47.5 167C41.701 167 37 162.523 37 157C37 151.477 41.701 147 47.5 147C53.299 147 58 151.477 58 157Z" fill="#713FFF"/>
</g>
<defs>
<clipPath id="clip0_486_4009">
<rect width="180" height="180" fill="white"/>
</clipPath>
</defs>
</svg>
