<svg width="180" height="180" viewBox="0 0 180 180" fill="none" xmlns="http://www.w3.org/2000/svg">
<g clip-path="url(#clip0_486_3987)">
<rect width="180" height="180" fill="#4B93C7"/>
<ellipse cx="87.95" cy="116.634" rx="84.0283" ry="18.4233" transform="rotate(-12.877 87.95 116.634)" fill="#3A3935"/>
<path d="M24.5 83.4996L49.5 126.5L129.5 102.5L112.5 44C105.5 48.5004 77 43.4996 70 39.4996C63 35.4996 49.5 37.4996 45.5 51.4996C42.3 62.6996 30.1667 77.4996 24.5 83.4996Z" fill="#242320"/>
<path d="M19.1828 99.8812C20.054 99.9604 22.1132 100 22.9052 100C29.558 100 32.726 96.9112 32.726 92.2384C32.726 87.922 29.7956 84.6352 24.1328 84.5164L24.4892 75.2104L32.1716 75.0124L32.6072 72.7156L20.5688 72.9532L19.1828 99.8812ZM24.9644 97.03C24.5684 97.03 24.1328 97.03 23.6576 96.9904L24.1328 86.5756C27.8156 86.734 29.9144 88.8328 29.9144 92.1196C29.9144 94.6144 28.37 97.03 24.9644 97.03ZM41.5537 100H46.3057L49.9489 95.1292L50.3845 77.7052L45.5533 72.676H38.3857L34.9801 77.5468L34.5841 94.9708L41.5537 100ZM43.8109 75.2104L46.3453 78.7348L45.5533 94.7728L43.0189 97.2676L37.8313 93.5452L38.3461 77.5072L40.0885 75.0916L43.8109 75.2104ZM62.3449 88.12L61.8697 100H64.9981V72.874H55.3753L52.9597 76.1608V85.3876L54.9793 88.12H57.3949L52.8013 99.406L56.1673 100.396L60.6025 88.12H62.3449ZM62.3449 85.546H57.3949L55.8901 83.8828V77.3884L57.5533 75.2896H62.3449V85.546ZM73.2504 88.8724L83.5464 88.6744L87.0708 85.7044L87.1104 77.0716L83.3484 72.9136H69.7656V100H73.1316L73.2504 88.8724ZM73.2504 86.4964L73.3692 75.7252L81.1308 76.2004L84.0216 78.3388L83.2692 84.2392L81.408 86.4172L73.2504 86.4964ZM93.8801 100H101.721L104.057 94.9708L101.048 93.466L99.5033 96.832L95.0285 96.6736L92.2169 93.1492L93.0089 77.9428L95.0285 75.3292L98.8697 76.0816L100.533 79.7248L103.345 78.2596L100.85 72.7156H93.0485L88.9697 77.5864L88.4549 94.9708L93.8801 100ZM112.391 84.754L120.153 100.119L124.113 98.7328L114.054 83.1304L122.45 75.1312L120.272 72.9136L112.114 82.5364H111.282L111.362 72.9532L107.402 72.7552L107.045 100.158L110.966 99.9604L111.084 84.9124L112.391 84.754ZM143.458 100.079L142.468 72.9928L139.102 72.7948L129.875 91.8424L130.39 72.874H126.034L125.994 99.7228L128.608 99.8416L138.706 79.0516L139.26 100.079H143.458ZM158.726 66.0628C157.577 66.9736 156.548 67.3696 155.558 67.3696C154.132 67.3696 152.786 66.6172 151.241 65.548L149.42 68.0032C150.964 69.3892 152.746 70.0228 154.449 70.0228C156.469 70.0228 158.369 69.1516 159.676 67.726L158.726 66.0628ZM160.983 100L159.993 72.6364H157.419L152.429 92.3176L152.548 72.7552L148.192 72.676L150.172 100H152.786L157.815 79.6852L158.924 100H160.983Z" fill="white"/>
<path d="M86.0324 151.056C83.4273 155.39 75.0084 159.123 71.1246 160.448C83.3698 164.655 98.0477 158.568 103.856 154.998L101.405 146.581C99.0111 144.169 89.2889 145.64 86.0324 151.056Z" fill="#232222"/>
<path d="M115.847 142.375C120.371 144.633 129.479 143.264 133.467 142.297C125.394 152.419 109.742 155.163 102.926 155.269L100.475 146.851C101.2 143.532 110.192 139.553 115.847 142.375Z" fill="#232222"/>
</g>
<defs>
<clipPath id="clip0_486_3987">
<rect width="180" height="180" fill="white"/>
</clipPath>
</defs>
</svg>
