<svg width="180" height="180" viewBox="0 0 180 180" fill="none" xmlns="http://www.w3.org/2000/svg">
<g clip-path="url(#clip0_480_1946)">
<rect width="180" height="180" fill="#CC4163"/>
<path d="M53.9287 114.408C41.5423 102.833 7.14674 100.398 -8.50274 100.628L-11 182.622L186.283 184C196.439 174.354 211.456 146.93 190.279 114.408C163.808 73.7559 122.354 104.762 114.362 114.408C106.371 124.055 69.4117 128.878 53.9287 114.408Z" fill="#824C40"/>
<path d="M158 55.5L88 42L61 146.5H113L158 55.5Z" fill="#824C40"/>
<path d="M15.4773 32.676L11.5965 41.2296V32.676H7.91366L7.75526 60.0792H11.5173L11.5569 47.7636L17.2197 60.0792L20.6649 58.218L12.3489 44.6352L17.4177 34.2204L15.4773 32.676ZM38.3568 60L41.0496 59.4456L33.1296 32.5176H29.4864L21.1704 59.3268L25.0512 60.396L27.546 50.8524L35.3868 50.1792L38.3568 60ZM31.4268 36.9924L34.8324 48.318L28.1004 48.714L31.4268 36.9924ZM47.4756 48.8724L57.7716 48.6744L61.296 45.7044L61.3356 37.0716L57.5736 32.9136H43.9908V60H47.3568L47.4756 48.8724ZM47.4756 46.4964L47.5944 35.7252L55.356 36.2004L58.2468 38.3388L57.4944 44.2392L55.6332 46.4172L47.4756 46.4964ZM81.3317 60.0792L80.3417 32.9928L76.9757 32.7948L67.7489 51.8424L68.2637 32.874H63.9077L63.8681 59.7228L66.4817 59.8416L76.5797 39.0516L77.1341 60.0792H81.3317ZM97.9854 57.624V46.536L94.7778 43.764L89.1546 44.0016L89.2338 36.636L97.3914 36.1608L96.837 32.6364H86.8578L86.0658 60H94.7778L97.9854 57.624ZM88.917 57.1092L89.115 46.0212L93.3522 45.8232L95.1342 47.724L95.0946 55.2084L93.7086 56.3172L88.917 57.1092ZM105.308 60H113.148L115.485 54.9708L112.475 53.466L110.931 56.832L106.456 56.6736L103.644 53.1492L104.436 37.9428L106.456 35.3292L110.297 36.0816L111.96 39.7248L114.772 38.2596L112.277 32.7156H104.476L100.397 37.5864L99.8825 54.9708L105.308 60ZM123.819 44.754L131.58 60.1188L135.54 58.7328L125.482 43.1304L133.877 35.1312L131.699 32.9136L123.542 42.5364H122.71L122.789 32.9532L118.829 32.7552L118.473 60.1584L122.393 59.9604L122.512 44.9124L123.819 44.754ZM154.886 60.0792L153.896 32.9928L150.53 32.7948L141.303 51.8424L141.818 32.874H137.462L137.422 59.7228L140.036 59.8416L150.134 39.0516L150.688 60.0792H154.886ZM170.153 26.0628C169.005 26.9736 167.975 27.3696 166.985 27.3696C165.56 27.3696 164.213 26.6172 162.669 25.548L160.847 28.0032C162.392 29.3892 164.174 30.0228 165.876 30.0228C167.896 30.0228 169.797 29.1516 171.104 27.726L170.153 26.0628ZM172.41 60L171.42 32.6364H168.846L163.857 52.3176L163.976 32.7552L159.62 32.676L161.6 60H164.213L169.242 39.6852L170.351 60H172.41ZM34.585 75.7252L42.109 75.844L42.3862 72.9136H30.823L30.823 100.158H35.179L34.585 75.7252ZM49.6361 100H54.3881L58.0313 95.1292L58.4669 77.7052L53.6357 72.676H46.4681L43.0625 77.5468L42.6665 94.9708L49.6361 100ZM51.8933 75.2104L54.4277 78.7348L53.6357 94.7728L51.1013 97.2676L45.9137 93.5452L46.4285 77.5072L48.1709 75.0916L51.8933 75.2104ZM65.4774 88.8724L75.7734 88.6744L79.2978 85.7044L79.3374 77.0716L75.5754 72.9136H61.9926V100H65.3586L65.4774 88.8724ZM65.4774 86.4964L65.5962 75.7252L73.3578 76.2004L76.2486 78.3388L75.4962 84.2392L73.635 86.4172L65.4774 86.4964ZM90.3047 88.12L89.8295 100H92.9579V72.874H83.3351L80.9195 76.1608V85.3876L82.9391 88.12H85.3547L80.7611 99.406L84.1271 100.396L88.5623 88.12H90.3047ZM90.3047 85.546H85.3547L83.8499 83.8828V77.3884L85.5131 75.2896H90.3047V85.546ZM109.605 73.1908L106.081 72.8344L105.804 83.1304L100.181 84.4768L98.6758 82.9324L100.141 72.874L96.3394 72.7156L95.587 84.358L99.6658 87.6052L105.725 85.5064L105.368 99.4852L108.813 100.079L109.605 73.1908ZM131.818 100.079L130.828 72.9928L127.462 72.7948L118.235 91.8424L118.75 72.874H114.394L114.354 99.7228L116.968 99.8416L127.066 79.0516L127.62 100.079H131.818ZM147.086 66.0628C145.937 66.9736 144.908 67.3696 143.918 67.3696C142.492 67.3696 141.146 66.6172 139.601 65.548L137.78 68.0032C139.324 69.3892 141.106 70.0228 142.809 70.0228C144.828 70.0228 146.729 69.1516 148.036 67.726L147.086 66.0628ZM149.343 100L148.353 72.6364H145.779L140.789 92.3176L140.908 72.7552L136.552 72.676L138.532 100H141.146L146.175 79.6852L147.284 100H149.343ZM20.2576 138.416L21.6832 140H43.4632L42.5128 112.795L38.2756 113.389L39.82 137.109H32.8108L32.3356 125.744H29.4052L30.1972 137.03H23.4652L22.792 113.032L18.9508 112.676L20.2576 138.416ZM53.9674 140H58.7194L62.3626 135.129L62.7982 117.705L57.967 112.676H50.7994L47.3938 117.547L46.9978 134.971L53.9674 140ZM56.2246 115.21L58.759 118.735L57.967 134.773L55.4326 137.268L50.245 133.545L50.7598 117.507L52.5022 115.092L56.2246 115.21ZM71.6698 124.754L79.4314 140.119L83.3914 138.733L73.333 123.13L81.7282 115.131L79.5502 112.914L71.3926 122.536H70.561L70.6402 112.953L66.6802 112.755L66.3238 140.158L70.2442 139.96L70.363 124.912L71.6698 124.754ZM90.1642 140H94.9162L98.5594 135.129L98.995 117.705L94.1638 112.676H86.9962L83.5906 117.547L83.1946 134.971L90.1642 140ZM92.4214 115.21L94.9558 118.735L94.1638 134.773L91.6294 137.268L86.4418 133.545L86.9566 117.507L88.699 115.092L92.4214 115.21ZM111.431 119.487L116.777 139.96H120.618L112.302 112.834H109.411L100.699 139.96H104.025L111.431 119.487ZM139.271 140L141.964 139.446L134.044 112.518H130.401L122.085 139.327L125.965 140.396L128.46 130.852L136.301 130.179L139.271 140ZM132.341 116.992L135.747 128.318L129.015 128.714L132.341 116.992ZM145.42 143.762L144.786 139.96H161.101V143.604L163.398 143.881L163.913 138.733L163.24 137.624L159.913 137.703L156.627 113.508L155.439 112.438H152.033L145.737 137.901L142.806 137.941L142.212 138.812L142.885 143.96L145.42 143.762ZM153.221 116.121L155.914 137.743L148.509 137.862L153.221 116.121Z" fill="white"/>
<path d="M72.5081 160.357C38.0081 138.357 -6.99187 157.857 -9.49188 160.357C-13.4919 170.024 -21.7919 190.257 -22.9919 193.857C-24.1919 197.457 107.841 190.691 174.008 186.857C151.675 185.357 100.108 177.957 72.5081 160.357Z" fill="#653D35"/>
</g>
<defs>
<clipPath id="clip0_480_1946">
<rect width="180" height="180" fill="white"/>
</clipPath>
</defs>
</svg>
