<svg width="180" height="180" viewBox="0 0 180 180" fill="none" xmlns="http://www.w3.org/2000/svg">
<g clip-path="url(#clip0_480_2144)">
<rect width="180" height="180" fill="#EAB144"/>
<path d="M15 172L81 45.5L144 75.5L15 172Z" fill="#C62E2E"/>
<path d="M158.5 51.0001L118.5 58.0001C127.167 46.8334 144.7 24.2001 145.5 23.0001C146.3 21.8001 154.5 41.1667 158.5 51.0001Z" fill="#4CB469"/>
<path d="M128 0L115.5 56L102.5 13L128 0Z" fill="#4CB469"/>
<path d="M13.9947 81.2848L16.9851 60.5656L22.2539 73.346H24.4967L30.4419 61.5268L32.3643 81.2492L36.1379 80.9644L33.5747 57.148L30.5843 56.7208L23.4287 70.7472L17.6971 56.6496L15.0983 57.0056L10.3279 80.7508L13.9947 81.2848ZM44.4747 81H48.7467L52.0219 76.6212L52.4135 60.9572L48.0703 56.436H41.6267L38.5651 60.8148L38.2091 76.4788L44.4747 81ZM46.5039 58.7144L48.7823 61.8828L48.0703 76.3008L45.7919 78.5436L41.1283 75.1972L41.5911 60.7792L43.1575 58.6076L46.5039 58.7144ZM58.7158 70.9964L67.9718 70.8184L71.1402 68.1484L71.1758 60.3876L67.7938 56.6496H55.583V81H58.609L58.7158 70.9964ZM58.7158 68.8604L58.8226 59.1772L65.8002 59.6044L68.399 61.5268L67.7226 66.8312L66.0494 68.7892L58.7158 68.8604ZM78.2586 67.294L85.2362 81.1068L88.7962 79.8608L79.7538 65.8344L87.301 58.6432L85.343 56.6496L78.0094 65.3004H77.2618L77.333 56.6852L73.773 56.5072L73.4526 81.1424L76.977 80.9644L77.0838 67.4364L78.2586 67.294ZM94.8849 81H99.1569L102.432 76.6212L102.824 60.9572L98.4805 56.436H92.0369L88.9753 60.8148L88.6193 76.4788L94.8849 81ZM96.9141 58.7144L99.1925 61.8828L98.4805 76.3008L96.2021 78.5436L91.5385 75.1972L92.0013 60.7792L93.5677 58.6076L96.9141 58.7144ZM106.741 56.5784L105.993 81H115.178L117.812 78.9352L118.062 69.074L114.822 66.938L117.599 60.3876L115.392 56.6852L106.741 56.5784ZM115.534 70.6048L115.356 77.2264L113.256 78.7572L109.838 78.4368L109.874 69.2164L113.149 68.6824L115.534 70.6048ZM111.867 66.8312L109.874 67.2228L109.909 58.8212L113.113 58.7856L114.43 60.7436L111.867 66.8312ZM135.959 80.9644L135.995 56.4716H132.15L132.043 68.0772L124.033 67.8992L124.104 56.4716H121.221L121.648 80.9644H123.926L124.033 69.7504H132.043L131.901 80.9644H135.959ZM154.085 81L156.506 80.5016L149.386 56.2936H146.11L138.634 80.3948L142.123 81.356L144.366 72.7764L151.415 72.1712L154.085 81ZM147.855 60.3164L150.916 70.498L144.864 70.854L147.855 60.3164ZM166.385 70.32L165.958 81H168.77V56.614H160.119L157.948 59.5688V67.8636L159.763 70.32H161.935L157.805 80.466L160.831 81.356L164.819 70.32H166.385ZM166.385 68.006H161.935L160.582 66.5108V60.6724L162.077 58.7856H166.385V68.006ZM23.4106 101.514L16.789 92.5072L15.543 93.0412L14.0478 117L16.8246 117.32L17.4654 98.7372L23.0902 106.071L29.7474 98.844L30.3882 117.036L33.4854 116.858L32.809 93.7176L30.9578 92.5072L23.4106 101.514ZM50.4833 117L52.9041 116.502L45.7841 92.2936H42.5089L35.0329 116.395L38.5217 117.356L40.7645 108.776L47.8133 108.171L50.4833 117ZM44.2533 96.3164L47.3149 106.498L41.2629 106.854L44.2533 96.3164ZM58.6811 106.996L67.9371 106.818L71.1055 104.148L71.1411 96.3876L67.7591 92.6496H55.5483V117H58.5743L58.6811 106.996ZM58.6811 104.86L58.7879 95.1772L65.7655 95.6044L68.3643 97.5268L67.6879 102.831L66.0147 104.789L58.6811 104.86ZM76.7998 95.1772L83.5638 95.284L83.813 92.6496H73.4178V117.142H77.3338L76.7998 95.1772ZM96.4087 117L98.8295 116.502L91.7095 92.2936H88.4343L80.9583 116.395L84.4471 117.356L86.6899 108.776L93.7387 108.171L96.4087 117ZM90.1787 96.3164L93.2403 106.498L87.1883 106.854L90.1787 96.3164ZM104.606 106.996L113.862 106.818L117.031 104.148L117.066 96.3876L113.684 92.6496H101.474V117H104.5L104.606 106.996ZM104.606 104.86L104.713 95.1772L111.691 95.6044L114.29 97.5268L113.613 102.831L111.94 104.789L104.606 104.86ZM135.043 117.071L134.153 92.7208L131.127 92.5428L122.832 109.666L123.295 92.614H119.379L119.343 116.751L121.693 116.858L130.771 98.1676L131.269 117.071H135.043ZM150.814 92.3292L136.681 93.148L136.823 95.1416H142.27L141.807 116.893L144.869 116.466L145.937 95.1416L150.672 95.2128L150.814 92.3292ZM164.271 117L166.692 116.502L159.572 92.2936H156.297L148.821 116.395L152.31 117.356L154.552 108.776L161.601 108.171L164.271 117ZM158.041 96.3164L161.103 106.498L155.051 106.854L158.041 96.3164Z" fill="white"/>
</g>
<defs>
<clipPath id="clip0_480_2144">
<rect width="180" height="180" fill="white"/>
</clipPath>
</defs>
</svg>
