<svg width="180" height="180" viewBox="0 0 180 180" fill="none" xmlns="http://www.w3.org/2000/svg">
<g clip-path="url(#clip0_486_4043)">
<rect width="180" height="180" fill="#C87BBC"/>
<path d="M101.034 92.913H89.9998H84.1924V100.463H93.4844L98.7111 139.953L169.562 131.823L175.95 100.463L163.754 81.8789C173.046 78.1621 171.498 67.941 169.562 63.295C164.916 73.9807 149.042 72.3934 141.686 70.264C150.978 56.7907 137.814 41.8075 130.071 36C142.151 53.1901 125.038 66.0052 114.972 70.264L101.034 92.913Z" fill="#402B2B"/>
<path d="M78.966 92.913H90.0002H95.8076V100.463H86.5156L81.2889 139.953L10.4382 131.823L4.0498 100.463L16.2456 81.8789C6.9537 78.1621 8.50236 67.941 10.4382 63.295C15.0841 73.9807 30.9579 72.3934 38.314 70.264C29.0222 56.7907 42.1856 41.8075 49.9288 36C37.8493 53.1901 54.9619 66.0052 65.0282 70.264L78.966 92.913Z" fill="#402B2B"/>
<path d="M114.391 94.0742H156.786C156.205 102.592 150.978 119.627 134.717 119.627C118.456 119.627 114.391 102.592 114.391 94.0742Z" fill="#C87BBC"/>
<path d="M65.6088 94.0742H23.2144C23.7951 102.592 29.0218 119.627 45.2827 119.627C61.5435 119.627 65.6088 102.592 65.6088 94.0742Z" fill="#C87BBC"/>
<path d="M120.78 223L164.916 129.5V120.789L170.143 129.5L128.91 223H120.78Z" fill="#402B2B"/>
<path d="M55.2723 76.0796C50.0055 75.8816 45.6099 73.7432 45.6099 66.6944C45.6099 58.7348 49.2927 55.1708 56.1435 55.1708V52.7156C55.5495 52.6364 54.9555 52.6364 54.4011 52.6364C46.7187 52.6364 42.1647 58.8932 42.1647 67.3676C42.1647 74.8916 46.5999 80.3168 54.0447 80.3168C54.4407 80.3168 54.8367 80.3168 55.2723 80.2772V76.0796ZM61.9424 56.8736L70.0208 56.438V52.9136H59.6852L59.1308 80H70.0208V76.634L61.388 75.8816L61.6256 67.2884L68.0804 68.1596V65.2688H61.7048L61.9424 56.8736ZM73.3042 52.8344L72.4726 80H82.6894L85.6198 77.7032L85.897 66.734L82.2934 64.358L85.3822 57.0716L82.927 52.9532L73.3042 52.8344ZM83.0854 68.4368L82.8874 75.8024L80.551 77.5052L76.7494 77.1488L76.789 66.8924L80.4322 66.2984L83.0854 68.4368ZM79.0066 64.2392L76.789 64.6748L76.8286 55.3292L80.3926 55.2896L81.8578 57.4676L79.0066 64.2392ZM106.875 80.0792L105.885 52.9928L102.519 52.7948L93.2917 71.8424L93.8065 52.874H89.4505L89.4109 79.7228L92.0245 79.8416L102.123 59.0516L102.677 80.0792H106.875ZM123.489 53.1908L119.964 52.8344L119.687 63.1304L114.064 64.4768L112.559 62.9324L114.024 52.874L110.223 52.7156L109.47 64.358L113.549 67.6052L119.608 65.5064L119.251 79.4852L122.697 80.0792L123.489 53.1908ZM131.049 56.8736L139.127 56.438V52.9136L128.792 52.9136L128.237 80H139.127V76.634L130.495 75.8816L130.732 67.2884L137.187 68.1596V65.2688H130.811L131.049 56.8736ZM50.4007 120.317L53.7271 97.2696L59.5879 111.486H62.0827L68.6959 98.3388L70.8343 120.277L75.0319 119.96L72.1807 93.468L68.8543 92.9928L60.8947 108.595L54.5191 92.9136L51.6283 93.3096L46.3219 119.723L50.4007 120.317ZM76.8607 120.238L87.9091 119.366L91.7899 105.15L90.7207 98.9328L87.5923 92.2404L77.6923 93.9828L79.1971 97.9824L85.4539 95.7252L87.7507 99.5664L88.4239 104.358L79.5139 103.962L79.6327 107.209L88.5823 106.972L85.5331 116.872L76.9795 116.119L76.8607 120.238ZM98.8318 108.872L109.128 108.674L112.652 105.704L112.692 97.0716L108.93 92.9136H95.347V120H98.713L98.8318 108.872ZM98.8318 106.496L98.9506 95.7252L106.712 96.2004L109.603 98.3388L108.851 104.239L106.989 106.417L98.8318 106.496ZM132.688 120.079L131.698 92.9928L128.332 92.7948L119.105 111.842L119.62 92.874H115.264L115.224 119.723L117.838 119.842L127.936 99.0516L128.49 120.079H132.688Z" fill="white"/>
</g>
<defs>
<clipPath id="clip0_486_4043">
<rect width="180" height="180" fill="white"/>
</clipPath>
</defs>
</svg>
