<svg width="180" height="180" viewBox="0 0 180 180" fill="none" xmlns="http://www.w3.org/2000/svg">
<g clip-path="url(#clip0_486_4022)">
<rect width="180" height="180" fill="#478358"/>
<path d="M60.8091 147.5C59.6091 140.7 68.8093 136.499 81.8093 126.999C45.8093 109.5 27.8091 133.499 34.3089 151.001C40.158 166.75 62.3091 156 60.8091 147.5Z" fill="#C62E2E"/>
<path d="M108.809 100L67.8091 136.5C75.3091 161 99.3091 165.5 119.309 146.5C135.309 131.3 118.976 109.167 108.809 100Z" fill="#4CB469"/>
<path d="M75.3089 54.0006C80.5089 62.8006 103.476 93.6673 114.309 108.001L110.309 113L71.809 58C66.1424 51.5003 58.909 34.2009 75.3089 17.0009C91.7088 -0.199085 114.809 9.83425 124.309 17.0009L117.309 24.0006C81.3089 0.500607 68.8089 43.0006 75.3089 54.0006Z" fill="#4CB469"/>
<path d="M39.6897 60H43.6101L43.0953 33.5472L41.9469 32.5176L26.0277 32.7552V59.7228L30.5025 60.2376V34.6956H39.9669L39.6897 60ZM49.2117 58.7724L52.3401 60L59.9037 32.874H56.4981L53.1321 44.8332L49.4889 32.676L46.8357 33.5472L51.9045 49.2288L49.2117 58.7724ZM78.8897 59.9604L78.9293 32.7156H74.6525L74.5337 45.6252L65.6237 45.4272L65.7029 32.7156H62.4953L62.9705 59.9604H65.5049L65.6237 47.4864H74.5337L74.3753 59.9604H78.8897ZM84.9943 58.416L86.4199 60H108.2L107.249 32.7948L103.012 33.3888L104.557 57.1092H97.5475L97.0723 45.744H94.1419L94.9339 57.03H88.2019L87.5287 33.0324L83.6875 32.676L84.9943 58.416ZM139.282 60.0792L138.292 32.9928L134.926 32.7948L125.699 51.8424L126.214 32.874H121.858L121.818 59.7228L124.432 59.8416L134.53 39.0516L135.084 60.0792H139.282ZM141.679 59.4852L153.163 59.802L155.302 50.9712L154.628 48.1596L150.55 45.6252L153.401 43.0116L154.47 35.1312L150.074 32.9136L142.669 34.8144L143.738 38.1804L148.57 35.5668L150.51 36.5172L150.47 42.0216L148.253 44.8332H144.61V47.2488L147.936 47.328L151.579 50.5356L150.154 57.3072L142.194 56.0004L141.679 59.4852ZM6.89643 98.416L8.32203 100H30.102L29.1516 72.7948L24.9144 73.3888L26.4588 97.1092H19.4496L18.9744 85.744H16.044L16.836 97.03H10.104L9.43083 73.0324L5.58963 72.676L6.89643 98.416ZM50.229 100L52.9218 99.4456L45.0018 72.5176H41.3586L33.0426 99.3268L36.9234 100.396L39.4182 90.8524L47.259 90.1792L50.229 100ZM43.299 76.9924L46.7046 88.318L39.9726 88.714L43.299 76.9924ZM65.0899 82.774L57.7243 72.7552L56.3383 73.3492L54.6751 100L57.7639 100.356L58.4767 79.6852L64.7335 87.8428L72.1387 79.804L72.8515 100.04L76.2967 99.8416L75.5443 74.1016L73.4851 72.7552L65.0899 82.774ZM83.2452 74.6956H92.4324V100.238L96.9072 99.7228V72.7552H80.988L79.8396 73.5472V100H83.2452V74.6956ZM117.015 100L119.708 99.4456L111.788 72.5176H108.145L99.829 99.3268L103.71 100.396L106.205 90.8524L114.045 90.1792L117.015 100ZM110.085 76.9924L113.491 88.318L106.759 88.714L110.085 76.9924ZM139.044 99.9604L139.083 72.7156H134.807L134.688 85.6252L125.778 85.4272L125.857 72.7156H122.649L123.125 99.9604H125.659L125.778 87.4864H134.688L134.529 99.9604H139.044ZM148.079 100H155.92L158.256 94.9708L155.246 93.466L153.702 96.832L149.227 96.6736L146.416 93.1492L147.208 77.9428L149.227 75.3292L153.068 76.0816L154.732 79.7248L157.543 78.2596L155.048 72.7156H147.247L143.168 77.5864L142.654 94.9708L148.079 100ZM166.59 84.754L174.351 100.119L178.311 98.7328L168.253 83.1304L176.648 75.1312L174.47 72.9136L166.313 82.5364H165.481L165.56 72.9532L161.6 72.7552L161.244 100.158L165.164 99.9604L165.283 84.9124L166.59 84.754ZM73.574 140H78.326L81.9692 135.129L82.4048 117.705L77.5736 112.676H70.406L67.0004 117.547L66.6044 134.971L73.574 140ZM75.8312 115.21L78.3656 118.735L77.5736 134.773L75.0392 137.268L69.8516 133.545L70.3664 117.507L72.1088 115.092L75.8312 115.21ZM89.6924 115.725L97.2164 115.844L97.4936 112.914H85.9304V140.158H90.2864L89.6924 115.725ZM104.744 140H109.496L113.139 135.129L113.574 117.705L108.743 112.676H101.576L98.1699 117.547L97.7739 134.971L104.744 140ZM107.001 115.21L109.535 118.735L108.743 134.773L106.209 137.268L101.021 133.545L101.536 117.507L103.278 115.092L107.001 115.21Z" fill="white"/>
</g>
<defs>
<clipPath id="clip0_486_4022">
<rect width="180" height="180" fill="white"/>
</clipPath>
</defs>
</svg>
