<svg width="180" height="180" viewBox="0 0 180 180" fill="none" xmlns="http://www.w3.org/2000/svg">
<g clip-path="url(#clip0_486_4015)">
<rect width="180" height="180" fill="#CD67BD"/>
<path d="M191.14 58.7416C182.437 58.4157 168.198 69.9078 158.251 81.9317C160.312 70.0793 165.319 34.6594 151.438 35.0025C134.814 35.397 113.405 48.7244 113.064 58.0211C112.757 66.2714 122.858 79.4617 133.997 89.3415C120.371 87.1289 89.7125 83.5783 90.002 96.597C90.3938 113.338 103.628 134.899 112.86 135.259C121.563 135.585 135.802 124.075 145.749 112.069C143.688 123.921 138.681 159.324 152.562 158.998C169.186 158.603 190.595 145.276 190.953 135.962C191.26 127.729 181.142 114.521 170.003 104.642C183.629 106.871 214.288 110.405 213.998 97.3861C213.555 80.6624 200.304 59.1189 191.14 58.7416Z" fill="#FFC2BE"/>
<path d="M30.5428 -42.0392C22.0346 -37.6963 14.5467 -19.0767 11.453 -2.24347C7.08734 -14.6947 -7.0617 -51.2885 -20.1701 -43.5357C-35.8767 -34.267 -49.2491 -10.0548 -44.6031 -0.970822C-40.484 7.09309 -23.7581 14.3212 -7.8079 17.8237C-22.0385 22.9927 -53.2938 35.9902 -46.0536 48.3011C-36.7249 64.1214 -12.5212 77.6883 -3.48911 73.0958C5.01911 68.7529 12.4978 50.1167 15.6006 33.2999C19.9663 45.7512 34.1062 82.3285 47.2237 74.5922C62.9303 65.3235 76.3028 41.1114 71.6639 32.0018C67.5541 23.9543 50.8026 16.7189 34.8524 13.2163C49.0922 8.06375 80.3383 -4.95014 73.0981 -17.2611C63.7296 -33.0376 39.5189 -46.5789 30.5428 -42.0392Z" fill="#FFC2BE"/>
<path d="M53.5428 118.961C45.0346 123.304 37.5467 141.923 34.453 158.757C30.0873 146.305 15.9383 109.712 2.82992 117.464C-12.8767 126.733 -26.2491 150.945 -21.6031 160.029C-17.484 168.093 -0.758108 175.321 15.1921 178.824C0.961467 183.993 -30.2938 196.99 -23.0536 209.301C-13.7249 225.121 10.4788 238.688 19.5109 234.096C28.0191 229.753 35.4978 211.117 38.6006 194.3C42.9663 206.751 57.1062 243.329 70.2237 235.592C85.9303 226.323 99.3028 202.111 94.6639 193.002C90.5541 184.954 73.8026 177.719 57.8524 174.216C72.0922 169.064 103.338 156.05 96.0981 143.739C86.7296 127.962 62.5189 114.421 53.5428 118.961Z" fill="#FFC2BE"/>
<path d="M151 106C156.523 106 161 101.523 161 96C161 90.4772 156.523 86 151 86C145.477 86 141 90.4772 141 96C141 101.523 145.477 106 151 106Z" fill="#E2766F"/>
<path d="M17.5304 24.7461C22.8342 21.7836 24.7323 15.0824 21.7697 9.77855C18.8072 4.47471 12.106 2.57669 6.80218 5.53921C1.49834 8.50173 -0.399675 15.2029 2.56284 20.5068C5.52536 25.8106 12.2266 27.7086 17.5304 24.7461Z" fill="#E2766F"/>
<path d="M40.5304 185.746C45.8342 182.784 47.7323 176.082 44.7697 170.779C41.8072 165.475 35.106 163.577 29.8022 166.539C24.4983 169.502 22.6003 176.203 25.5628 181.507C28.5254 186.811 35.2266 188.709 40.5304 185.746Z" fill="#E2766F"/>
<path d="M26.6195 48.318C31.8467 47.4864 33.2723 43.2492 33.2723 39.7248C33.2723 36.3192 31.9259 33.1116 26.4611 33.1116H24.4415L23.4515 34.458L23.4119 60L26.8967 59.6436L26.6195 48.318ZM30.6587 40.2C30.6587 43.0908 29.2331 45.2688 26.5799 46.0212L26.4611 35.5668C29.3123 35.844 30.6587 37.5468 30.6587 40.2ZM41.5676 60H46.3196L49.9628 55.1292L50.3984 37.7052L45.5672 32.676H38.3996L34.994 37.5468L34.598 54.9708L41.5676 60ZM43.8248 35.2104L46.3592 38.7348L45.5672 54.7728L43.0328 57.2676L37.8452 53.5452L38.36 37.5072L40.1024 35.0916L43.8248 35.2104ZM63.1508 42.774L55.7852 32.7552L54.3992 33.3492L52.736 60L55.8248 60.3564L56.5376 39.6852L62.7944 47.8428L70.1996 39.804L70.9124 60.0396L74.3576 59.8416L73.6052 34.1016L71.546 32.7552L63.1508 42.774ZM93.2654 60L95.9582 59.4456L88.0382 32.5176H84.395L76.079 59.3268L79.9598 60.396L82.4546 50.8524L90.2954 50.1792L93.2654 60ZM86.3354 36.9924L89.741 48.318L83.009 48.714L86.3354 36.9924ZM99.3554 58.416L100.781 60H122.561L121.611 32.7948L117.373 33.3888L118.918 57.1092H111.909L111.433 45.744H108.503L109.295 57.03H102.563L101.89 33.0324L98.0486 32.676L99.3554 58.416ZM132.669 44.754L140.431 60.1188L144.391 58.7328L134.332 43.1304L142.728 35.1312L140.55 32.9136L132.392 42.5364H131.56L131.64 32.9532L127.68 32.7552L127.323 60.1584L131.244 59.9604L131.362 44.9124L132.669 44.754ZM151.164 60H155.916L159.559 55.1292L159.994 37.7052L155.163 32.676H147.996L144.59 37.5468L144.194 54.9708L151.164 60ZM153.421 35.2104L155.955 38.7348L155.163 54.7728L152.629 57.2676L147.441 53.5452L147.956 37.5072L149.698 35.0916L153.421 35.2104ZM64.8296 72.8344L63.998 100H74.2148L77.1452 97.7032L77.4224 86.734L73.8188 84.358L76.9076 77.0716L74.4524 72.9532L64.8296 72.8344ZM74.6108 88.4368L74.4128 95.8024L72.0764 97.5052L68.2748 97.1488L68.3144 86.8924L71.9576 86.2984L74.6108 88.4368ZM70.532 84.2392L68.3144 84.6748L68.354 75.3292L71.918 75.2896L73.3832 77.4676L70.532 84.2392ZM80.9363 73.1116L82.1243 97.8616L84.6983 100H91.3511L93.1331 96.2776L92.3807 86.932L89.6087 83.8432L85.4111 83.5264L84.9359 72.8344L80.9363 73.1116ZM100.618 72.8344H96.1031L96.4199 100H99.6275L100.618 72.8344ZM88.7375 86.2192L89.6483 87.6844L90.3611 96.0796L89.5295 97.9804L86.0447 97.5844L85.5299 85.942L88.7375 86.2192ZM115.911 66.0628C114.762 66.9736 113.733 67.3696 112.743 67.3696C111.317 67.3696 109.971 66.6172 108.426 65.548L106.605 68.0032C108.149 69.3892 109.931 70.0228 111.634 70.0228C113.653 70.0228 115.554 69.1516 116.861 67.726L115.911 66.0628ZM118.168 100L117.178 72.6364H114.604L109.614 92.3176L109.733 72.7552L105.377 72.676L107.357 100H109.971L115 79.6852L116.109 100H118.168ZM28.3905 124.754L36.1521 140.119L40.1121 138.733L30.0537 123.13L38.4489 115.131L36.2709 112.914L28.1133 122.536H27.2817L27.3609 112.953L23.4009 112.755L23.0445 140.158L26.9649 139.96L27.0837 124.912L28.3905 124.754ZM46.8849 140H51.6369L55.2801 135.129L55.7157 117.705L50.8845 112.676H43.7169L40.3113 117.547L39.9153 134.971L46.8849 140ZM49.1421 115.21L51.6765 118.735L50.8845 134.773L48.3501 137.268L43.1625 133.545L43.6773 117.507L45.4197 115.092L49.1421 115.21ZM64.5874 124.754L72.349 140.119L76.309 138.733L66.2506 123.13L74.6458 115.131L72.4678 112.914L64.3102 122.536H63.4786L63.5578 112.953L59.5978 112.755L59.2414 140.158L63.1618 139.96L63.2806 124.912L64.5874 124.754ZM91.7734 112.557L76.0522 113.468L76.2106 115.686H82.2694L81.7546 139.881L85.1602 139.406L86.3482 115.686L91.615 115.765L91.7734 112.557ZM97.0897 116.874L105.168 116.438V112.914H94.8325L94.2781 140H105.168V136.634L96.5353 135.882L96.7729 127.288L103.228 128.16V125.269H96.8521L97.0897 116.874ZM118.153 106.063C117.005 106.974 115.975 107.37 114.985 107.37C113.56 107.37 112.213 106.617 110.669 105.548L108.847 108.003C110.392 109.389 112.174 110.023 113.877 110.023C115.896 110.023 117.797 109.152 119.104 107.726L118.153 106.063ZM120.411 140L119.421 112.636H116.847L111.857 132.318L111.976 112.755L107.62 112.676L109.6 140H112.213L117.243 119.685L118.351 140H120.411ZM134.087 119.487L139.433 139.96H143.274L134.958 112.834H132.067L123.355 139.96H126.682L134.087 119.487ZM152.235 112.716H147.879L146.176 140H154.967L160.986 136.04L161.263 128.08L158.056 124.556L151.403 126.14L152.235 112.716ZM156.393 127.803L158.056 129.546L157.818 134.496L152.947 137.624L150.769 137.188L151.284 128.991L156.393 127.803Z" fill="white"/>
</g>
<defs>
<clipPath id="clip0_486_4015">
<rect width="180" height="180" fill="white"/>
</clipPath>
</defs>
</svg>
