<svg width="180" height="180" viewBox="0 0 180 180" fill="none" xmlns="http://www.w3.org/2000/svg">
<g clip-path="url(#clip0_486_3913)">
<rect width="180" height="180" fill="#D3951A"/>
<path d="M120.001 33C120.001 47.9117 107.465 60 92.001 60C76.537 60 64.001 47.9117 64.001 33C64.001 18.0883 76.537 6 92.001 6C107.465 6 120.001 18.0883 120.001 33Z" fill="#A87614"/>
<path fill-rule="evenodd" clip-rule="evenodd" d="M156.495 27.661C162.205 35.1139 160.793 45.7846 153.34 51.4946L89.3852 100.493L26.5355 51.3968C19.1366 45.617 17.824 34.9335 23.6038 27.5346C29.3836 20.1357 40.0671 18.8231 47.466 24.603L89.5872 57.5067L132.662 24.5052C140.115 18.7952 150.785 20.2081 156.495 27.661Z" fill="#A87614"/>
<path d="M142 77L39 81.48L55.5 189H117.5L142 77Z" fill="#867A11"/>
<path d="M129.5 134.5C99.5 154.5 63.3333 152.833 49 149.5L52.5 166.5C71.3 178.5 106.333 172.833 121.5 168.5L129.5 134.5Z" fill="#AC9D1C"/>
<path d="M136.5 103.5C123.7 125.1 80.3333 133.167 56.5 134.5L52.5 111C88.5 113 107.667 90.5 117 79L142 77L136.5 103.5Z" fill="#AC9D1C"/>
<path d="M6.82229 70.498C11.5215 69.7504 12.8031 65.9412 12.8031 62.7728C12.8031 59.7112 11.5927 56.8276 6.67989 56.8276H4.86429L3.97429 58.038L3.93869 81L7.07149 80.6796L6.82229 70.498ZM10.4535 63.2C10.4535 65.7988 9.17189 67.7568 6.78669 68.4332L6.67989 59.0348C9.24309 59.284 10.4535 60.8148 10.4535 63.2ZM20.2605 81H24.5325L27.8077 76.6212L28.1993 60.9572L23.8561 56.436H17.4125L14.3509 60.8148L13.9949 76.4788L20.2605 81ZM22.2897 58.7144L24.5681 61.8828L23.8561 76.3008L21.5777 78.5436L16.9141 75.1972L17.3769 60.7792L18.9433 58.6076L22.2897 58.7144ZM44.6832 68.362L51.6608 81.1068L55.2208 79.8608L46.6412 66.582L53.7256 58.6432L51.7676 56.6496L44.434 66.3684H43.6864L43.7576 56.6852L39.8772 56.5072L39.7348 66.3684H39.6636L32.33 56.6496L30.0516 59.2128L36.9224 67.3652L29.4108 80.644L32.7572 81.4984L39.4144 68.362L39.6992 68.3976L39.5568 81.1424L43.4016 80.9644L43.5084 68.5044L44.6832 68.362ZM58.7749 84.382L58.2053 80.9644H72.8725V84.2396L74.9373 84.4888L75.4001 79.8608L74.7949 78.864L71.8045 78.9352L68.8497 57.1836L67.7817 56.2224H64.7201L59.0597 79.1132L56.4253 79.1488L55.8913 79.932L56.4965 84.56L58.7749 84.382ZM65.7881 59.5332L68.2089 78.9708L61.5517 79.0776L65.7881 59.5332ZM79.787 60.2096L87.0494 59.818V56.6496H77.7578L77.2594 81H87.0494V77.974L79.2886 77.2976L79.5022 69.5724L85.305 70.3556V67.7568H79.5734L79.787 60.2096ZM93.0627 81H100.112L102.212 76.4788L99.5063 75.126L98.1179 78.152L94.0951 78.0096L91.5675 74.8412L92.2795 61.1708L94.0951 58.8212L97.5483 59.4976L99.0435 62.7728L101.571 61.4556L99.3283 56.4716H92.3151L88.6483 60.8504L88.1855 76.4788L93.0627 81ZM116.344 56.3292L102.211 57.148L102.353 59.1416H107.8L107.337 80.8932L110.399 80.466L111.467 59.1416L116.202 59.2128L116.344 56.3292ZM119.343 56.5784L118.596 81H127.781L130.415 78.9352L130.664 69.074L127.425 66.938L130.201 60.3876L127.994 56.6852L119.343 56.5784ZM128.137 70.6048L127.959 77.2264L125.858 78.7572L122.441 78.4368L122.476 69.2164L125.751 68.6824L128.137 70.6048ZM124.47 66.8312L122.476 67.2228L122.512 58.8212L125.716 58.7856L127.033 60.7436L124.47 66.8312ZM136.351 60.2096L143.613 59.818V56.6496L134.321 56.6496L133.823 81H143.613V77.974L135.852 77.2976L136.066 69.5724L141.869 70.3556V67.7568H136.137L136.351 60.2096ZM160.556 80.9644L160.591 56.4716H156.746L156.64 68.0772L148.63 67.8992L148.701 56.4716H145.817L146.244 80.9644H148.523L148.63 69.7504H156.64L156.497 80.9644H160.556ZM168.678 81H175.727L177.827 76.4788L175.122 75.126L173.733 78.152L169.71 78.0096L167.183 74.8412L167.895 61.1708L169.71 58.8212L173.164 59.4976L174.659 62.7728L177.186 61.4556L174.944 56.4716H167.93L164.264 60.8504L163.801 76.4788L168.678 81ZM27.831 103.294L34.8086 117.107L38.3686 115.861L29.3262 101.834L36.8734 94.6432L34.9154 92.6496L27.5818 101.3H26.8342L26.9054 92.6852L23.3454 92.5072L23.025 117.142L26.5494 116.964L26.6562 103.436L27.831 103.294ZM55.7598 117.071L54.8698 92.7208L51.8438 92.5428L43.549 109.666L44.0118 92.614H40.0958L40.0602 116.751L42.4098 116.858L51.4878 98.1676L51.9862 117.071H55.7598ZM69.4852 86.4908C68.4528 87.3096 67.5272 87.6656 66.6372 87.6656C65.3556 87.6656 64.1452 86.9892 62.7568 86.028L61.1192 88.2352C62.5076 89.4812 64.1096 90.0508 65.6404 90.0508C67.456 90.0508 69.1648 89.2676 70.3396 87.986L69.4852 86.4908ZM71.5144 117L70.6244 92.4004H68.3104L63.8248 110.094L63.9316 92.5072L60.0156 92.436L61.7956 117H64.1452L68.6664 98.7372L69.6632 117H71.5144ZM86.8222 94.2516H95.0814V117.214L99.1042 116.751V92.5072H84.793L83.7606 93.2192V117H86.8222V94.2516ZM104.116 115.896L106.928 117L113.728 92.614H110.666L107.64 103.365L104.365 92.436L101.98 93.2192L106.537 107.317L104.116 115.896ZM130.796 116.964L130.832 92.4716H126.987L126.88 104.077L118.87 103.899L118.941 92.4716H116.058L116.485 116.964H118.763L118.87 105.75H126.88L126.738 116.964H130.796ZM136.284 115.576L137.566 117H157.146L156.291 92.5428L152.482 93.0768L153.871 114.401H147.569L147.142 104.184H144.508L145.22 114.33H139.168L138.563 92.7564L135.109 92.436L136.284 115.576Z" fill="white"/>
</g>
<defs>
<clipPath id="clip0_486_3913">
<rect width="180" height="180" fill="white"/>
</clipPath>
</defs>
</svg>
