<svg width="180" height="180" viewBox="0 0 180 180" fill="none" xmlns="http://www.w3.org/2000/svg">
<g clip-path="url(#clip0_486_4032)">
<rect width="180" height="180" fill="#A85858"/>
<path d="M42.3485 26.5907C109.468 -0.993215 159.403 35.7799 165.39 97.5631C169.906 187.353 58.3767 181.399 31.4583 142.378C9.92359 111.161 33.0677 74.938 47.3315 60.7287C55.0734 113.767 98.9393 118.884 119.904 114.814L107.987 102.405L115.21 82.6543L89.6672 77.2874L98.6849 66.3705L81.6358 63.8061C64.5989 60.6336 48.3455 37.674 42.3485 26.5907Z" fill="#D75E5E"/>
<path d="M48.3677 52.676L44.4869 61.2296V52.676H40.8041L40.6457 80.0792H44.4077L44.4473 67.7636L50.1101 80.0792L53.5553 78.218L45.2393 64.6352L50.3081 54.2204L48.3677 52.676ZM64.7924 59.4872L70.1384 79.9604H73.9796L65.6636 52.8344H62.7728L54.0608 79.9604H57.3872L64.7924 59.4872ZM81.7724 80H86.5244L90.1676 75.1292L90.6032 57.7052L85.772 52.676H78.6044L75.1988 57.5468L74.8028 74.9708L81.7724 80ZM84.0296 55.2104L86.564 58.7348L85.772 74.7728L83.2376 77.2676L78.05 73.5452L78.5648 57.5072L80.3072 55.0916L84.0296 55.2104ZM94.9605 52.8344L94.1289 80H104.346L107.276 77.7032L107.553 66.734L103.95 64.358L107.038 57.0716L104.583 52.9532L94.9605 52.8344ZM104.742 68.4368L104.544 75.8024L102.207 77.5052L98.4057 77.1488L98.4453 66.8924L102.088 66.2984L104.742 68.4368ZM100.663 64.2392L98.4453 64.6748L98.4849 55.3292L102.049 55.2896L103.514 57.4676L100.663 64.2392ZM113.879 56.8736L121.957 56.438V52.9136H111.622L111.067 80H121.957V76.634L113.324 75.8816L113.562 67.2884L120.017 68.1596V65.2688H113.641L113.879 56.8736ZM127.894 68.8724L138.19 68.6744L141.714 65.7044L141.754 57.0716L137.992 52.9136L124.409 52.9136V80H127.775L127.894 68.8724ZM127.894 66.4964L128.013 55.7252L135.774 56.2004L138.665 58.3388L137.913 64.2392L136.051 66.4172L127.894 66.4964ZM59.6429 104.754L67.4045 120.119L71.3645 118.733L61.3061 103.13L69.7013 95.1312L67.5233 92.9136L59.3657 102.536H58.5341L58.6133 92.9532L54.6533 92.7552L54.2969 120.158L58.2173 119.96L58.3361 104.912L59.6429 104.754ZM82.1561 99.4872L87.5021 119.96H91.3433L83.0273 92.8344H80.1365L71.4245 119.96H74.7509L82.1561 99.4872ZM109.996 120L112.689 119.446L104.769 92.5176H101.126L92.81 119.327L96.6908 120.396L99.1856 110.852L107.026 110.179L109.996 120ZM103.066 96.9924L106.472 108.318L99.74 108.714L103.066 96.9924ZM127.55 117.624V106.536L124.342 103.764L118.719 104.002L118.798 96.636L126.956 96.1608L126.402 92.6364H116.422L115.63 120H124.342L127.55 117.624ZM118.482 117.109L118.68 106.021L122.917 105.823L124.699 107.724L124.659 115.208L123.273 116.317L118.482 117.109Z" fill="white"/>
<ellipse cx="159.357" cy="161.23" rx="34.4079" ry="26.7617" transform="rotate(-47.9423 159.357 161.23)" fill="#D75E5E"/>
</g>
<defs>
<clipPath id="clip0_486_4032">
<rect width="180" height="180" fill="white"/>
</clipPath>
</defs>
</svg>
