<svg width="180" height="180" viewBox="0 0 180 180" fill="none" xmlns="http://www.w3.org/2000/svg">
<g clip-path="url(#clip0_480_2142)">
<rect width="180" height="180" fill="#6B291A"/>
<path d="M121.788 41.1667C117.801 26.2147 130.268 16.1589 137 13C87.9012 20.3707 92.9369 59.769 101.592 78.5468C109.723 82.4954 126.771 59.8567 121.788 41.1667Z" fill="#CC7E6D"/>
<path d="M60.8684 109.44C45.5254 107.428 40.9793 92.0697 40.6242 84.6421C28.7283 132.845 67.0727 143.203 87.7319 142.357C94.481 136.344 80.0472 111.955 60.8684 109.44Z" fill="#CC7E6D"/>
<path d="M129.212 50.8333C133.199 65.7853 120.732 75.8411 114 79C163.099 71.6293 158.063 32.231 149.408 13.4532C141.277 9.5046 124.229 32.1433 129.212 50.8333Z" fill="#CC7E6D"/>
<path d="M72.6345 106.259C87.9775 108.271 92.5236 123.629 92.8788 131.057C104.775 82.8544 66.4302 72.4963 45.771 73.3427C39.022 79.3551 53.4557 103.744 72.6345 106.259Z" fill="#CC7E6D"/>
<path d="M128.823 159.876C119.981 169.954 105.88 175.271 95.8015 166.428C85.7232 157.586 88.8801 144.46 97.7228 134.382C106.566 124.304 114.187 125.144 124.266 133.987C134.344 142.83 137.666 149.797 128.823 159.876Z" fill="#C01A6A"/>
<path d="M74.5221 19.6922C83.0887 30.0061 86.1284 44.7665 75.8144 53.3331C65.5005 61.8998 53.0328 56.7234 44.4662 46.4094C35.8996 36.0955 37.9249 28.6996 48.2389 20.133C58.5528 11.5664 65.9555 9.37822 74.5221 19.6922Z" fill="#951AC0"/>
<path d="M29.8106 38.436L26.3218 46.1256V38.436H23.011L22.8686 63.0712H26.2506L26.2862 51.9996L31.377 63.0712L34.4742 61.398L26.9982 49.1872L31.555 39.8244L29.8106 38.436ZM41.7282 63H46.0002L49.2754 58.6212L49.667 42.9572L45.3238 38.436H38.8802L35.8186 42.8148L35.4626 58.4788L41.7282 63ZM43.7574 40.7144L46.0358 43.8828L45.3238 58.3008L43.0454 60.5436L38.3818 57.1972L38.8446 42.7792L40.411 40.6076L43.7574 40.7144ZM64.2997 58.1584L71.3129 56.8768L74.1965 47.9768L70.3873 41.462L64.5845 40.1448L64.6557 37.6884H61.4873L61.4161 40.216L54.3317 40.6076L51.3769 50.1484L53.9401 56.8056L61.1313 58.4788L61.0601 63H64.1929L64.2997 58.1584ZM61.1669 55.88L56.7169 54.99L54.8657 49.3296L56.7169 42.708L61.3805 42.2096L61.1669 55.88ZM70.4585 48.2972L68.8565 54.7408L64.3353 56.2004L64.5489 42.7436L67.6817 43.0284L70.4585 48.2972ZM79.5262 42.2096L86.7886 41.818V38.6496H77.497L76.9986 63H86.7886V59.974L79.0278 59.2976L79.2414 51.5724L85.0442 52.3556V49.7568H79.3126L79.5262 42.2096ZM98.4624 32.4908C97.43 33.3096 96.5044 33.6656 95.6144 33.6656C94.3328 33.6656 93.1224 32.9892 91.734 32.028L90.0964 34.2352C91.4848 35.4812 93.0868 36.0508 94.6176 36.0508C96.4332 36.0508 98.142 35.2676 99.3168 33.986L98.4624 32.4908ZM100.492 63L99.6016 38.4004H97.2876L92.802 56.0936L92.9088 38.5072L88.9928 38.436L90.7728 63H93.1224L97.6436 44.7372L98.6404 63H100.492ZM119.515 62.9644L119.55 38.4716H115.706L115.599 50.0772L107.589 49.8992L107.66 38.4716H104.776L105.204 62.9644H107.482L107.589 51.7504H115.599L115.456 62.9644H119.515ZM123.828 38.8276L124.896 61.0776L127.21 63H133.191L134.793 59.6536L134.116 51.252L131.624 48.4752L127.851 48.1904L127.424 38.5784L123.828 38.8276ZM141.521 38.5784H137.463L137.748 63H140.631L141.521 38.5784ZM130.841 50.6112L131.66 51.9284L132.301 59.4756L131.553 61.1844L128.42 60.8284L127.958 50.362L130.841 50.6112ZM155.269 32.4908C154.237 33.3096 153.311 33.6656 152.421 33.6656C151.14 33.6656 149.929 32.9892 148.541 32.028L146.903 34.2352C148.292 35.4812 149.894 36.0508 151.425 36.0508C153.24 36.0508 154.949 35.2676 156.124 33.986L155.269 32.4908ZM157.299 63L156.409 38.4004H154.095L149.609 56.0936L149.716 38.5072L145.8 38.436L147.58 63H149.929L154.451 44.7372L155.447 63H157.299ZM3.63664 102.382L3.06704 98.9644H17.7342L17.7342 102.24L19.799 102.489L20.2618 97.8608L19.6566 96.864L16.6662 96.9352L13.7114 75.1836L12.6434 74.2224H9.58184L3.92144 97.1132L1.28704 97.1488L0.753042 97.932L1.35824 102.56L3.63664 102.382ZM10.6498 77.5332L13.0706 96.9708L6.41344 97.0776L10.6498 77.5332ZM35.4355 86.362L42.4131 99.1068L45.9731 97.8608L37.3935 84.582L44.4779 76.6432L42.5199 74.6496L35.1863 84.3684H34.4387L34.5099 74.6852L30.6295 74.5072L30.4871 84.3684H30.4159L23.0823 74.6496L20.8039 77.2128L27.6747 85.3652L20.1631 98.644L23.5095 99.4984L30.1667 86.362L30.4515 86.3976L30.3091 99.1424L34.1539 98.9644L34.2607 86.5044L35.4355 86.362ZM63.9992 99.0712L63.1092 74.7208L60.0832 74.5428L51.7884 91.6664L52.2512 74.614H48.3352L48.2996 98.7508L50.6492 98.8576L59.7272 80.1676L60.2256 99.0712H63.9992ZM82.9935 98.9644L83.0291 74.4716H79.1843L79.0775 86.0772L71.0675 85.8992L71.1387 74.4716H68.2551L68.6823 98.9644H70.9607L71.0675 87.7504H79.0775L78.9351 98.9644H82.9935ZM107.479 74.3292L93.3456 75.148L93.488 77.1416H98.9348L98.472 98.8932L101.534 98.466L102.602 77.1416L107.336 77.2128L107.479 74.3292ZM114.128 99H118.4L121.675 94.6212L122.066 78.9572L117.723 74.436H111.28L108.218 78.8148L107.862 94.4788L114.128 99ZM116.157 76.7144L118.435 79.8828L117.723 94.3008L115.445 96.5436L110.781 93.1972L111.244 78.7792L112.81 76.6076L116.157 76.7144ZM139.974 98.9644L140.01 74.4716H136.165L136.058 86.0772L128.048 85.8992L128.12 74.4716H125.236L125.663 98.9644H127.942L128.048 87.7504H136.058L135.916 98.9644H139.974ZM159.987 99.0712L159.097 74.7208L156.071 74.5428L147.776 91.6664L148.239 74.614H144.323L144.288 98.7508L146.637 98.8576L155.715 80.1676L156.214 99.0712H159.987ZM169.049 85.294L176.027 99.1068L179.587 97.8608L170.544 83.8344L178.091 76.6432L176.133 74.6496L168.8 83.3004H168.052L168.123 74.6852L164.563 74.5072L164.243 99.1424L167.767 98.9644L167.874 85.4364L169.049 85.294ZM22.6797 135H29.7285L31.8289 130.479L29.1233 129.126L27.7349 132.152L23.7121 132.01L21.1845 128.841L21.8965 115.171L23.7121 112.821L27.1653 113.498L28.6605 116.773L31.1881 115.456L28.9453 110.472H21.9321L18.2653 114.85L17.8025 130.479L22.6797 135ZM50.0592 124.32L49.632 135H52.4444V110.614H43.7936L41.622 113.569V121.864L43.4376 124.32H45.6092L41.4796 134.466L44.5056 135.356L48.4928 124.32H50.0592ZM50.0592 122.006H45.6092L44.2564 120.511V114.672L45.7516 112.786H50.0592V122.006ZM60.1123 113.177L66.8763 113.284L67.1255 110.65H56.7303V135.142H60.6463L60.1123 113.177ZM73.6431 135H77.9151L81.1903 130.621L81.5819 114.957L77.2387 110.436H70.7951L67.7335 114.815L67.3775 130.479L73.6431 135ZM75.6723 112.714L77.9507 115.883L77.2387 130.301L74.9603 132.544L70.2967 129.197L70.7595 114.779L72.3259 112.608L75.6723 112.714ZM85.2142 138.382L84.6446 134.964H99.3118V138.24L101.377 138.489L101.839 133.861L101.234 132.864L98.2438 132.935L95.289 111.184L94.221 110.222H91.1594L85.499 133.113L82.8646 133.149L82.3306 133.932L82.9358 138.56L85.2142 138.382ZM92.2274 113.533L94.6482 132.971L87.991 133.078L92.2274 113.533ZM119.006 135L121.427 134.502L114.307 110.294H111.032L103.556 134.395L107.045 135.356L109.288 126.776L116.336 126.171L119.006 135ZM112.776 114.316L115.838 124.498L109.786 124.854L112.776 114.316ZM132.366 119.514L125.744 110.507L124.498 111.041L123.003 135L125.78 135.32L126.421 116.737L132.046 124.071L138.703 116.844L139.344 135.036L142.441 134.858L141.764 111.718L139.913 110.507L132.366 119.514ZM161.326 135.071L160.436 110.721L157.41 110.543L149.115 127.666L149.578 110.614H145.662L145.626 134.751L147.976 134.858L157.054 116.168L157.552 135.071H161.326Z" fill="white"/>
</g>
<defs>
<clipPath id="clip0_480_2142">
<rect width="180" height="180" fill="white"/>
</clipPath>
</defs>
</svg>
