<svg width="180" height="180" viewBox="0 0 180 180" fill="none" xmlns="http://www.w3.org/2000/svg">
<g clip-path="url(#clip0_461_2153)">
<rect width="180" height="180" fill="#4191CC"/>
<path d="M164.5 109.5C148.9 115.1 138.333 135.5 135 145L128.5 99L158 73L182 89C182.667 93.5 180.1 103.9 164.5 109.5Z" fill="#782121"/>
<path d="M60 168.5L57 158.5L72.5 133.5C87 130.333 115.7 124.3 114.5 125.5C113.3 126.7 127 139 134 145C99.5 141.5 94.5 154.5 85.5 164C78.3 171.6 65.5 170.167 60 168.5Z" fill="#973030"/>
<path d="M135 145.346L75.5714 61.0908C68.5556 51.1441 50.8095 57.3918 37.6032 66.0228C27.0381 72.9276 11.4656 63.1458 5 57.3918L48.3333 151.51C49.5714 166.306 75.5714 164.662 88.3651 151.51C98.6 140.989 123.72 143.017 135 145.346Z" fill="#CE3434"/>
<path d="M135 145.5L75.4958 61.041C68.4948 51.0568 80.4167 36.5146 93.045 27.0504C103.148 19.479 99.2086 1.51187 95.9762 -6.5253L170.052 66.2884C183.59 72.498 173.208 96.3653 156.455 103.9C143.052 109.927 136.634 134.107 135 145.5Z" fill="#B92020"/>
<path d="M11.5521 52.676L7.67126 61.2296V52.676H3.98846L3.83006 80.0792H7.59206L7.63166 67.7636L13.2945 80.0792L16.7397 78.218L8.42366 64.6352L13.4925 54.2204L11.5521 52.676ZM24.8088 80H29.5608L33.204 75.1292L33.6396 57.7052L28.8084 52.676H21.6408L18.2352 57.5468L17.8392 74.9708L24.8088 80ZM27.066 55.2104L29.6004 58.7348L28.8084 74.7728L26.274 77.2676L21.0864 73.5452L21.6012 57.5072L23.3436 55.0916L27.066 55.2104ZM42.2532 80H50.094L52.4304 74.9708L49.4208 73.466L47.8764 76.832L43.4016 76.6736L40.59 73.1492L41.382 57.9428L43.4016 55.3292L47.2428 56.0816L48.906 59.7248L51.7176 58.2596L49.2228 52.7156H41.4216L37.3428 57.5864L36.828 74.9708L42.2532 80ZM64.6451 62.774L57.2795 52.7552L55.8935 53.3492L54.2303 80L57.3191 80.3564L58.0319 59.6852L64.2887 67.8428L71.6939 59.804L72.4067 80.0396L75.8519 79.8416L75.0995 54.1016L73.0403 52.7552L64.6451 62.774ZM86.4131 80H91.1651L94.8083 75.1292L95.2439 57.7052L90.4127 52.676H83.2451L79.8395 57.5468L79.4435 74.9708L86.4131 80ZM88.6703 55.2104L91.2047 58.7348L90.4127 74.7728L87.8783 77.2676L82.6907 73.5452L83.2055 57.5072L84.9479 55.0916L88.6703 55.2104ZM102.175 54.6956H111.362V80.2376L115.837 79.7228V52.7552H99.9179L98.7695 53.5472V80H102.175V54.6956ZM126.322 80H131.074L134.718 75.1292L135.153 57.7052L130.322 52.676H123.154L119.749 57.5468L119.353 74.9708L126.322 80ZM128.58 55.2104L131.114 58.7348L130.322 74.7728L127.788 77.2676L122.6 73.5452L123.115 57.5072L124.857 55.0916L128.58 55.2104ZM147.589 59.4872L152.935 79.9604H156.776L148.46 52.8344H145.569L136.857 79.9604H140.184L147.589 59.4872ZM177.141 80.0792L176.151 52.9928L172.785 52.7948L163.558 71.8424L164.073 52.874H159.717L159.678 79.7228L162.291 79.8416L172.389 59.0516L172.944 80.0792H177.141ZM80.7381 92.5572L65.0169 93.468L65.1753 95.6856H71.2341L70.7193 119.881L74.1249 119.406L75.3128 95.6856L80.5796 95.7648L80.7381 92.5572ZM86.0543 96.8736L94.1327 96.438V92.9136H83.7971L83.2427 120H94.1327V116.634L85.4999 115.882L85.7375 107.288L92.1923 108.16V105.269H85.8167L86.0543 96.8736ZM112.979 119.96L113.019 92.7156H108.742L108.623 105.625L99.7129 105.427L99.7921 92.7156H96.5845L97.0597 119.96H99.5941L99.7129 107.486H108.623L108.465 119.96H112.979Z" fill="white"/>
</g>
<defs>
<clipPath id="clip0_461_2153">
<rect width="180" height="180" fill="white"/>
</clipPath>
</defs>
</svg>
