<svg width="180" height="180" viewBox="0 0 180 180" fill="none" xmlns="http://www.w3.org/2000/svg">
<g clip-path="url(#clip0_486_3962)">
<rect width="180" height="180" fill="#B842A5"/>
<path d="M152.5 25C120.1 34.6 37.3333 138 0 188.5L-14 184L-6.5 156C77.9 52.8 134.667 25.6667 152.5 25Z" fill="#7B206D"/>
<path d="M171.572 55.3294C176.073 69.7111 167.657 85.1461 152.774 89.8043C137.891 94.4626 122.177 86.5801 117.676 72.1984C113.174 57.8166 123.065 47.0929 137.948 42.4346C152.831 37.7764 167.071 40.9476 171.572 55.3294Z" fill="#951A81"/>
<path d="M66.572 43.3294C71.0734 57.7111 62.6574 73.1461 47.7744 77.8043C32.8913 82.4626 17.1772 74.5801 12.6758 60.1984C8.1745 45.8166 18.0651 35.0929 32.9481 30.4346C47.8311 25.7764 62.0707 28.9476 66.572 43.3294Z" fill="#951A81"/>
<path d="M106.178 98.3872C108.792 106.739 103.904 115.703 95.2608 118.409C86.6173 121.114 77.4912 116.536 74.877 108.184C72.2629 99.8317 78.0069 93.6038 86.6503 90.8985C95.2937 88.1932 103.563 90.0349 106.178 98.3872Z" fill="#951A81"/>
<path d="M110.178 36.3872C112.792 44.7395 107.904 53.7035 99.2608 56.4088C90.6173 59.1141 81.4912 54.5363 78.877 46.184C76.2629 37.8317 82.0069 31.6038 90.6503 28.8985C99.2937 26.1932 107.563 28.0349 110.178 36.3872Z" fill="#951A81"/>
<path d="M66.5047 130.221C68.0285 135.089 65.1795 140.314 60.1414 141.891C55.1032 143.468 49.7837 140.8 48.2599 135.931C46.7361 131.063 50.0842 127.433 55.1224 125.856C60.1606 124.279 64.9809 125.352 66.5047 130.221Z" fill="#951A81"/>
<path d="M12.0801 56.436L8.5913 64.1256V56.436H5.2805L5.1381 81.0712H8.5201L8.5557 69.9996L13.6465 81.0712L16.7437 79.398L9.2677 67.1872L13.8245 57.8244L12.0801 56.436ZM26.8458 62.5592L31.6518 80.9644H35.105L27.629 56.5784H25.0302L17.1982 80.9644H20.1886L26.8458 62.5592ZM42.7687 56.6496H39.4579L37.7135 81H40.5259L41.5227 69.9284L45.6523 70.32L45.5811 76.5144L48.1443 81H53.5911L55.7271 76.6568L55.9763 61.0996L51.9179 56.614H47.7171L45.7947 60.9572L45.6879 67.7568L41.7363 67.8636L42.7687 56.6496ZM48.7139 77.5468L47.3611 73.8444L47.7527 61.2776L49.5327 58.5008L52.9147 61.4912L52.5587 74.9124L51.3839 77.5468H48.7139ZM64.0046 67.294L70.9822 81.1068L74.5422 79.8608L65.4998 65.8344L73.047 58.6432L71.089 56.6496L63.7554 65.3004H63.0078L63.079 56.6852L59.519 56.5072L59.1986 81.1424L62.723 80.9644L62.8298 67.4364L64.0046 67.294ZM76.9814 56.5784L76.2338 81H85.4186L88.053 78.9352L88.3022 69.074L85.0626 66.938L87.8394 60.3876L85.6322 56.6852L76.9814 56.5784ZM85.7746 70.6048L85.5966 77.2264L83.4962 78.7572L80.0786 78.4368L80.1142 69.2164L83.3894 68.6824L85.7746 70.6048ZM82.1078 66.8312L80.1142 67.2228L80.1498 58.8212L83.3538 58.7856L84.671 60.7436L82.1078 66.8312ZM93.9887 60.2096L101.251 59.818V56.6496H91.9595L91.4611 81H101.251V77.974L93.4903 77.2976L93.7039 69.5724L99.5067 70.3556V67.7568H93.7751L93.9887 60.2096ZM118.194 80.9644L118.229 56.4716H114.384L114.278 68.0772L106.268 67.8992L106.339 56.4716H103.455L103.882 80.9644H106.161L106.268 69.7504H114.278L114.135 80.9644H118.194ZM137.245 80.9644L137.281 56.4716L133.436 56.4716L133.329 68.0772L125.319 67.8992L125.39 56.4716H122.507L122.934 80.9644H125.212L125.319 69.7504H133.329L133.187 80.9644H137.245ZM141.558 56.8276L142.626 79.0776L144.94 81H150.921L152.523 77.6536L151.847 69.252L149.355 66.4752L145.581 66.1904L145.154 56.5784L141.558 56.8276ZM159.252 56.5784H155.193L155.478 81H158.362L159.252 56.5784ZM148.572 68.6112L149.39 69.9284L150.031 77.4756L149.284 79.1844L146.151 78.8284L145.688 68.362L148.572 68.6112ZM173 50.4908C171.967 51.3096 171.042 51.6656 170.152 51.6656C168.87 51.6656 167.66 50.9892 166.271 50.028L164.634 52.2352C166.022 53.4812 167.624 54.0508 169.155 54.0508C170.971 54.0508 172.679 53.2676 173.854 51.986L173 50.4908ZM175.029 81L174.139 56.4004H171.825L167.339 74.0936L167.446 56.5072L163.53 56.436L165.31 81H167.66L172.181 62.7372L173.178 81H175.029ZM33.7238 103.294L40.7014 117.107L44.2614 115.861L35.219 101.834L42.7662 94.6432L40.8082 92.6496L33.4746 101.3H32.727L32.7982 92.6852L29.2382 92.5072L28.9178 117.142L32.4422 116.964L32.549 103.436L33.7238 103.294ZM50.3501 117H54.6221L57.8973 112.621L58.2889 96.9572L53.9457 92.436H47.5021L44.4405 96.8148L44.0845 112.479L50.3501 117ZM52.3793 94.7144L54.6577 97.8828L53.9457 112.301L51.6673 114.544L47.0037 111.197L47.4665 96.7792L49.0329 94.6076L52.3793 94.7144ZM66.2644 103.294L73.242 117.107L76.802 115.861L67.7596 101.834L75.3068 94.6432L73.3488 92.6496L66.0152 101.3H65.2676L65.3388 92.6852L61.7788 92.5072L61.4584 117.142L64.9828 116.964L65.0896 103.436L66.2644 103.294ZM90.7044 92.3292L76.5712 93.148L76.7136 95.1416H82.1604L81.6976 116.893L84.7592 116.466L85.8272 95.1416L90.562 95.2128L90.7044 92.3292ZM95.4837 96.2096L102.746 95.818V92.6496H93.4545L92.9561 117H102.746V113.974L94.9853 113.298L95.1989 105.572L101.002 106.356V103.757H95.2701L95.4837 96.2096ZM114.42 86.4908C113.387 87.3096 112.462 87.6656 111.572 87.6656C110.29 87.6656 109.08 86.9892 107.691 86.028L106.054 88.2352C107.442 89.4812 109.044 90.0508 110.575 90.0508C112.391 90.0508 114.099 89.2676 115.274 87.986L114.42 86.4908ZM116.449 117L115.559 92.4004H113.245L108.759 110.094L108.866 92.5072L104.95 92.436L106.73 117H109.08L113.601 98.7372L114.598 117H116.449ZM128.744 98.5592L133.55 116.964H137.003L129.527 92.5784H126.928L119.096 116.964H122.087L128.744 98.5592ZM145.058 92.4716H141.142L139.612 117H147.515L152.926 113.44L153.175 106.284L150.292 103.116L144.311 104.54L145.058 92.4716ZM148.796 106.035L150.292 107.602L150.078 112.052L145.699 114.864L143.741 114.472L144.204 107.103L148.796 106.035Z" fill="white"/>
</g>
<defs>
<clipPath id="clip0_486_3962">
<rect width="180" height="180" fill="white"/>
</clipPath>
</defs>
</svg>
