<svg width="180" height="180" viewBox="0 0 180 180" fill="none" xmlns="http://www.w3.org/2000/svg">
<g clip-path="url(#clip0_461_2155)">
<rect width="180" height="180" fill="#BC7745"/>
<path d="M-5.5 157C1.7 134.6 39.1667 144 57 151.5C47.8 119.5 27.5 103.5 18.5 99.5C12.8333 103.5 1.3 111.8 0.5 113C-0.3 114.2 -8.83333 130.167 -13 138L-5.5 157Z" fill="#FF843F"/>
<path d="M148 32.9999C112 23.3999 58.3333 35.1078 39 43.1078V54.1078C85 56.9078 124 113.5 137 139C156.2 107.8 130.5 67 148 32.9999Z" fill="#FF843F"/>
<path d="M137 138.608C119.8 95.8078 65.4999 62.2745 41.9999 54.1078C10.651 94.8614 20.1548 79.0874 18 95.5C49.5 117.5 56 150 56 150C89.5 138.608 114.5 127 137 138.608Z" fill="#FF843F"/>
<path d="M22 29.1078C34.4 57.1078 -8.16667 111.441 -31 135.108L-24 144.608C-5.2 144.608 29.8333 86.6078 45 57.6078C98.6 76.0078 129.667 123.274 138.5 144.608C132.5 87.8078 73.6667 56.2745 45 47.6078C81.4 23.6078 131.5 28.9411 152 34.6078C118.8 11.4078 58.5 28.2744 32.5 39.6078C31.7 34.0078 25.1667 30.2744 22 29.1078Z" fill="#3A6227"/>
<path d="M58 156.5C49.5 118.5 49 111.5 16.5 86.5L12 101C38.4 110.2 49.5 136 58 156.5Z" fill="#3A6227"/>
<path d="M21.3218 103.247L20.807 100H37.5974V103.247H39.7358L40.2902 97.9408L39.8942 97.3864L36.5678 97.4656L33.479 73.666L31.895 72.4384H28.2914L22.391 97.6636L18.5894 97.7032L18.1142 98.1784L18.9458 103.247H21.3218ZM29.4002 76.1608L31.9346 97.5052L25.0442 97.624L29.4002 76.1608ZM57.712 100L60.4048 99.4456L52.4848 72.5176H48.8416L40.5256 99.3268L44.4064 100.396L46.9012 90.8524L54.742 90.1792L57.712 100ZM50.782 76.9924L54.1876 88.318L47.4556 88.714L50.782 76.9924ZM73.8797 66.0628C72.7313 66.9736 71.7017 67.3696 70.7117 67.3696C69.2861 67.3696 67.9397 66.6172 66.3953 65.548L64.5737 68.0032C66.1181 69.3892 67.9001 70.0228 69.6029 70.0228C71.6225 70.0228 73.5233 69.1516 74.8301 67.726L73.8797 66.0628ZM76.1369 100L75.1469 72.6364H72.5729L67.5833 92.3176L67.7021 72.7552L63.3461 72.676L65.3261 100H67.9397L72.9689 79.6852L74.0777 100H76.1369ZM86.2491 84.754L94.0107 100.119L97.9707 98.7328L87.9123 83.1304L96.3075 75.1312L94.1295 72.9136L85.9719 82.5364H85.1403L85.2195 72.9532L81.2595 72.7552L80.9031 100.158L84.8235 99.9604L84.9423 84.9124L86.2491 84.754ZM117.316 100.079L116.326 72.9928L112.96 72.7948L103.733 91.8424L104.248 72.874H99.8919L99.8523 99.7228L102.466 99.8416L112.564 79.0516L113.118 100.079H117.316ZM125.535 88.8724L135.831 88.6744L139.355 85.7044L139.395 77.0716L135.633 72.9136H122.05V100H125.416L125.535 88.8724ZM125.535 86.4964L125.654 75.7252L133.415 76.2004L136.306 78.3388L135.554 84.2392L133.692 86.4172L125.535 86.4964ZM159.391 100.079L158.401 72.9928L155.035 72.7948L145.808 91.8424L146.323 72.874H141.967L141.927 99.7228L144.541 99.8416L154.639 79.0516L155.193 100.079H159.391Z" fill="white"/>
</g>
<defs>
<clipPath id="clip0_461_2155">
<rect width="180" height="180" fill="white"/>
</clipPath>
</defs>
</svg>
