<svg width="180" height="180" viewBox="0 0 180 180" fill="none" xmlns="http://www.w3.org/2000/svg">
<g clip-path="url(#clip0_480_1961)">
<rect width="180" height="180" fill="#6B291A"/>
<path d="M106 16.8971L85.7975 75H78L84.0253 13L106 16.8971Z" fill="#9F5341"/>
<path d="M72.7969 66.444L43.2052 81.2745C43.2052 81.2745 47.0336 120.86 63.0817 141.441C72.9286 153.93 85.7656 163.738 100.41 169.962L139.201 150.521C142.98 135.064 142.805 118.909 138.694 103.547C131.81 78.3725 102.389 51.6134 102.389 51.6134L72.7969 66.444Z" fill="#E7BD8C"/>
<path d="M36.2939 100.238C36.6107 100.277 36.9275 100.277 37.2443 100.277C45.3227 100.277 49.0847 93.0304 49.0847 85.7836C49.0847 77.824 45.1643 72.7156 37.4819 72.7156L37.6403 75.25C42.9071 75.25 44.8475 79.408 45.3623 83.566L38.9471 83.17L39.1451 87.0508L45.5207 86.1796C45.5207 91.4464 43.3427 95.9212 36.4127 96.1192L36.2939 100.238ZM56.4153 75.7252L63.9393 75.844L64.2165 72.9136H52.6533V100.158H57.0093L56.4153 75.7252ZM70.3372 75.7252L77.8612 75.844L78.1384 72.9136H66.5752V100.158H70.9312L70.3372 75.7252ZM80.101 87.0112L88.9714 87.7636L89.3674 84.6352H80.101V87.0112ZM110.117 99.9604L110.157 72.7156H105.88L105.761 85.6252L96.8512 85.4272L96.9304 72.7156H93.7228L94.198 99.9604H96.7324L96.8512 87.4864H105.761L105.603 99.9604H110.117ZM120.657 100H125.409L129.052 95.1292L129.488 77.7052L124.657 72.676H117.489L114.083 77.5468L113.687 94.9708L120.657 100ZM122.914 75.2104L125.449 78.7348L124.657 94.7728L122.122 97.2676L116.935 93.5452L117.449 77.5072L119.192 75.0916L122.914 75.2104ZM136.775 75.7252L144.299 75.844L144.577 72.9136H133.013V100.158H137.369L136.775 75.7252Z" fill="white"/>
<path d="M88 155.5C68 149.5 56 119 52.5 104.5C60.5 115.833 80 136.1 94 126.5C108 116.9 127.833 126.833 136 133L133.5 147C125.833 149.5 108 161.5 88 155.5Z" fill="#F4D7B4"/>
</g>
<defs>
<clipPath id="clip0_480_1961">
<rect width="180" height="180" fill="white"/>
</clipPath>
</defs>
</svg>
