<svg width="180" height="180" viewBox="0 0 180 180" fill="none" xmlns="http://www.w3.org/2000/svg">
<g clip-path="url(#clip0_486_4059)">
<rect width="180" height="180" fill="#275322"/>
<path d="M54 58.5L107.5 8L130 82L80 157.5L44 103L54 58.5Z" fill="#2DC4BA"/>
<path d="M89.5 76L107 9L129 82.5L89.5 76Z" fill="#5BF8EE"/>
<path d="M58.5 58L92.5 74L98 58L91 63.5L58.5 58Z" fill="#5BF8EE"/>
<path d="M75 107.5L80 157L129 82L90 76L75 107.5Z" fill="#5FE0D8"/>
<path d="M78.5 107.5L49 104.5L71 110L78.5 127V107.5Z" fill="#5FE0D8"/>
<path d="M47.0145 59.5248L47.2917 32.7948H43.2525L31.7685 54.7332L31.6497 32.9136L27.7293 33.3888L28.4421 59.9604H31.6497L43.6881 36.6756L43.4505 59.9604L47.0145 59.5248ZM49.7175 59.4852L61.2015 59.802L63.3399 50.9712L62.6667 48.1596L58.5879 45.6252L61.4391 43.0116L62.5083 35.1312L58.1127 32.9136L50.7075 34.8144L51.7767 38.1804L56.6079 35.5668L58.5483 36.5172L58.5087 42.0216L56.2911 44.8332H52.6479V47.2488L55.9743 47.328L59.6175 50.5356L58.1919 57.3072L50.2323 56.0004L49.7175 59.4852ZM67.7742 58.7724L70.9026 60L78.4662 32.874H75.0606L71.6946 44.8332L68.0514 32.676L65.3982 33.5472L70.467 49.2288L67.7742 58.7724ZM90.2846 42.774L82.919 32.7552L81.533 33.3492L79.8698 60L82.9586 60.3564L83.6714 39.6852L89.9282 47.8428L97.3334 39.804L98.0462 60.0396L101.491 59.8416L100.739 34.1016L98.6798 32.7552L90.2846 42.774ZM108.519 48.8724L118.815 48.6744L122.34 45.7044L122.379 37.0716L118.617 32.9136H105.034V60H108.4L108.519 48.8724ZM108.519 46.4964L108.638 35.7252L116.4 36.2004L119.29 38.3388L118.538 44.2392L116.677 46.4172L108.519 46.4964ZM125.743 58.7724L128.872 60L136.435 32.874L133.03 32.874L129.664 44.8332L126.02 32.676L123.367 33.5472L128.436 49.2288L125.743 58.7724ZM136.641 63.762L136.008 59.9604H152.323V63.6036L154.62 63.8808L155.135 58.7328L154.461 57.624L151.135 57.7032L147.848 33.5076L146.66 32.4384H143.255L136.958 57.9012L134.028 57.9408L133.434 58.812L134.107 63.96L136.641 63.762ZM144.443 36.1212L147.135 57.7428L139.73 57.8616L144.443 36.1212ZM77.2655 99.9604L77.3051 72.7156H73.0283L72.9095 85.6252L63.9995 85.4272L64.0787 72.7156H60.8711L61.3463 99.9604H63.8807L63.9995 87.4864H72.9095L72.7511 99.9604H77.2655ZM82.0633 73.1116L83.2513 97.8616L85.8253 100H92.4781L94.2601 96.2776L93.5077 86.932L90.7357 83.8432L86.5381 83.5264L86.0629 72.8344L82.0633 73.1116ZM101.744 72.8344H97.2301L97.5469 100H100.754L101.744 72.8344ZM89.8645 86.2192L90.7753 87.6844L91.4881 96.0796L90.6565 97.9804L87.1717 97.5844L86.6569 85.942L89.8645 86.2192ZM117.037 66.0628C115.889 66.9736 114.859 67.3696 113.869 67.3696C112.444 67.3696 111.097 66.6172 109.553 65.548L107.731 68.0032C109.276 69.3892 111.058 70.0228 112.761 70.0228C114.78 70.0228 116.681 69.1516 117.988 67.726L117.037 66.0628ZM119.295 100L118.305 72.6364H115.731L110.741 92.3176L110.86 72.7552L106.504 72.676L108.484 100H111.097L116.127 79.6852L117.235 100H119.295ZM44.1254 140H48.8774L52.5206 135.129L52.9562 117.705L48.125 112.676H40.9574L37.5518 117.547L37.1558 134.971L44.1254 140ZM46.3826 115.21L48.917 118.735L48.125 134.773L45.5906 137.268L40.403 133.545L40.9178 117.507L42.6602 115.092L46.3826 115.21ZM61.5698 140H69.4106L71.747 134.971L68.7374 133.466L67.193 136.832L62.7182 136.674L59.9066 133.149L60.6986 117.943L62.7182 115.329L66.5594 116.082L68.2226 119.725L71.0342 118.26L68.5394 112.716H60.7382L56.6594 117.586L56.1446 134.971L61.5698 140ZM87.467 112.557L71.7458 113.468L71.9042 115.686H77.963L77.4482 139.881L80.8538 139.406L82.0418 115.686L87.3086 115.765L87.467 112.557ZM93.4564 128.872L103.752 128.674L107.277 125.704L107.316 117.072L103.554 112.914H89.9716V140H93.3376L93.4564 128.872ZM93.4564 126.496L93.5752 115.725L101.337 116.2L104.228 118.339L103.475 124.239L101.614 126.417L93.4564 126.496ZM117.254 140H122.006L125.649 135.129L126.085 117.705L121.253 112.676H114.086L110.68 117.547L110.284 134.971L117.254 140ZM119.511 115.21L122.045 118.735L121.253 134.773L118.719 137.268L113.531 133.545L114.046 117.507L115.789 115.092L119.511 115.21ZM130.442 112.834L129.61 140H139.827L142.758 137.703L143.035 126.734L139.431 124.358L142.52 117.072L140.065 112.953L130.442 112.834ZM140.223 128.437L140.025 135.802L137.689 137.505L133.887 137.149L133.927 126.892L137.57 126.298L140.223 128.437ZM136.144 124.239L133.927 124.675L133.966 115.329L137.53 115.29L138.996 117.468L136.144 124.239Z" fill="white"/>
</g>
<defs>
<clipPath id="clip0_486_4059">
<rect width="180" height="180" fill="white"/>
</clipPath>
</defs>
</svg>
