<svg width="180" height="180" viewBox="0 0 180 180" fill="none" xmlns="http://www.w3.org/2000/svg">
<g clip-path="url(#clip0_551_1962)">
<rect width="180" height="180" fill="#C15FC4"/>
<path d="M32 159L232.886 -23L239 -11.625L48.5949 180L32 159Z" fill="#523295"/>
<path d="M67.2853 125.52L30.6761 153.413L53.339 179.562L86.4616 142.953L67.2853 125.52Z" fill="#EEBEE6"/>
<ellipse cx="42.1706" cy="166.768" rx="6.97318" ry="17.433" transform="rotate(-41.164 42.1706 166.768)" fill="#E2A6D9"/>
<path d="M38.5 100L44.0546 109.855L55.1435 112.092L47.4875 120.42L48.7862 131.658L38.5 126.95L28.2138 131.658L29.5125 120.42L21.8565 112.092L32.9454 109.855L38.5 100Z" fill="#5A3FFF"/>
<path d="M78 4L90.6962 26.8068L116.042 31.9848L98.5428 51.2582L101.511 77.2652L78 66.37L54.4886 77.2652L57.4572 51.2582L39.9577 31.9848L65.3038 26.8068L78 4Z" fill="#5A3FFF"/>
<path d="M25.5 40L29.785 47.8838L38.3393 49.6738L32.4332 56.3362L33.4351 65.3262L25.5 61.56L17.5649 65.3262L18.5668 56.3362L12.6607 49.6738L21.215 47.8838L25.5 40Z" fill="#5A3FFF"/>
<path d="M57.5866 76.1584C63.1046 76.0516 67.8394 71.744 67.8394 65.7276C67.8394 61.8116 65.2406 58.2872 58.8326 58.1448L59.0106 55.6884H55.2014L55.0234 58.1804C48.3306 58.6432 44.8062 63.2712 44.8062 68.1484C44.8062 72.7408 47.5118 76.1584 53.7774 76.4788L53.457 80.9644L57.2306 81L57.5866 76.1584ZM53.9554 73.88C49.897 73.7376 48.2594 70.7116 48.2594 67.5432C48.2594 64.0188 50.8226 60.4944 54.881 60.3876L53.9554 73.88ZM65.4186 66.2972C65.4186 69.9284 62.3926 73.6664 57.729 74.2004L58.6546 60.7436C63.3894 60.8504 65.4186 63.2712 65.4186 66.2972ZM73.1641 60.2096L80.4265 59.818V56.6496H71.1349L70.6365 81H80.4265V77.974L72.6657 77.2976L72.8793 69.5724L78.6821 70.3556V67.7568H72.9505L73.1641 60.2096ZM90.2135 70.32L89.7863 81H92.5987V56.614H83.9479L81.7763 59.5688V67.8636L83.5919 70.32H85.7635L81.6339 80.466L84.6599 81.356L88.6471 70.32H90.2135ZM90.2135 68.006H85.7635L84.4107 66.5108V60.6724L85.9059 58.7856H90.2135V68.006ZM120.546 81.0712L119.656 56.7208L116.63 56.5428L108.335 73.6664L108.798 56.614H104.882L104.846 80.7508L107.196 80.8576L116.274 62.1676L116.772 81.0712H120.546ZM122.701 80.5372L133.025 80.822L134.947 72.8832L134.342 70.3556L130.675 68.0772L133.239 65.7276L134.2 58.6432L130.248 56.6496L123.591 58.3584L124.552 61.3844L128.895 59.0348L130.64 59.8892L130.604 64.8376L128.611 67.3652H125.335V69.5368L128.326 69.608L131.601 72.4916L130.319 78.5792L123.164 77.4044L122.701 80.5372ZM45.9703 116.893C46.7535 116.964 48.6047 117 49.3167 117C55.2975 117 58.1455 114.223 58.1455 110.022C58.1455 106.142 55.5111 103.187 50.4203 103.08L50.7407 94.7144L57.6471 94.5364L58.0387 92.4716L47.2163 92.6852L45.9703 116.893ZM51.1679 114.33C50.8119 114.33 50.4203 114.33 49.9931 114.294L50.4203 104.932C53.7311 105.074 55.6179 106.961 55.6179 109.916C55.6179 112.158 54.2295 114.33 51.1679 114.33ZM66.0815 117H70.3535L73.6287 112.621L74.0203 96.9572L69.6771 92.436H63.2335L60.1719 96.8148L59.8159 112.479L66.0815 117ZM68.1107 94.7144L70.3891 97.8828L69.6771 112.301L67.3987 114.544L62.7351 111.197L63.1979 96.7792L64.7643 94.6076L68.1107 94.7144ZM85.4847 101.514L78.8631 92.5072L77.6171 93.0412L76.1219 117L78.8987 117.32L79.5395 98.7372L85.1643 106.071L91.8215 98.844L92.4623 117.036L95.5595 116.858L94.8831 93.7176L93.0319 92.5072L85.4847 101.514ZM109.46 114.864V104.896L106.577 102.404L101.521 102.618L101.593 95.996L108.926 95.5688L108.428 92.4004H99.4565L98.7445 117H106.577L109.46 114.864ZM101.308 114.401L101.486 104.433L105.295 104.255L106.897 105.964L106.861 112.692L105.615 113.689L101.308 114.401ZM114.761 96.2096L122.024 95.818V92.6496H112.732L112.234 117H122.024V113.974L114.263 113.298L114.476 105.572L120.279 106.356V103.757H114.548L114.761 96.2096ZM131.811 106.32L131.383 117H134.196V92.614H125.545L123.373 95.5688V103.864L125.189 106.32H127.361L123.231 116.466L126.257 117.356L130.244 106.32H131.811ZM131.811 104.006H127.361L126.008 102.511V96.6724L127.503 94.7856H131.811V104.006Z" fill="white"/>
</g>
<defs>
<clipPath id="clip0_551_1962">
<rect width="180" height="180" fill="white"/>
</clipPath>
</defs>
</svg>
