<svg width="180" height="180" viewBox="0 0 180 180" fill="none" xmlns="http://www.w3.org/2000/svg">
<g clip-path="url(#clip0_486_3942)">
<rect width="180" height="180" fill="#6B291A"/>
<path d="M159.144 109.956C146.212 145.202 101.925 173.62 65.1127 160.113C28.3002 146.606 12.9025 96.2885 25.8345 61.043C38.7665 25.7975 78.0744 10.9496 114.887 24.4565C151.699 37.9635 172.076 74.7105 159.144 109.956Z" fill="#849230"/>
<path d="M150.407 61.3289C160.609 93.9253 141.534 128.909 107.802 139.467C74.0692 150.025 38.4529 132.159 28.2505 99.5627C18.0481 66.9663 40.4653 42.6608 74.1978 32.1028C107.93 21.5449 140.205 28.7325 150.407 61.3289Z" fill="#B7C948"/>
<path d="M100.777 50.1542C97.7963 63.7804 104.353 75.6293 121.638 72.6671C142.499 66.1498 151.44 88.6635 132.963 92.2182C114.485 95.7729 114.486 93.4031 96.0085 117.693C77.5314 141.984 43.5573 106.437 55.4781 96.9577C67.3988 87.4786 66.8023 76.8142 64.4181 52.524C62.034 28.2337 103.757 36.5279 100.777 50.1542Z" fill="#8D9E22"/>
<path d="M51.6765 76.1584C57.1945 76.0516 61.9293 71.744 61.9293 65.7276C61.9293 61.8116 59.3305 58.2872 52.9225 58.1448L53.1005 55.6884H49.2913L49.1133 58.1804C42.4205 58.6432 38.8961 63.2712 38.8961 68.1484C38.8961 72.7408 41.6017 76.1584 47.8673 76.4788L47.5469 80.9644L51.3205 81L51.6765 76.1584ZM48.0453 73.88C43.9869 73.7376 42.3493 70.7116 42.3493 67.5432C42.3493 64.0188 44.9125 60.4944 48.9709 60.3876L48.0453 73.88ZM59.5085 66.2972C59.5085 69.9284 56.4825 73.6664 51.8189 74.2004L52.7445 60.7436C57.4793 60.8504 59.5085 63.2712 59.5085 66.2972ZM67.254 60.2096L74.5164 59.818V56.6496H65.2248L64.7264 81H74.5164V77.974L66.7556 77.2976L66.9692 69.5724L72.772 70.3556V67.7568H67.0404L67.254 60.2096ZM86.1901 50.4908C85.1577 51.3096 84.2321 51.6656 83.3421 51.6656C82.0605 51.6656 80.8501 50.9892 79.4617 50.028L77.8241 52.2352C79.2125 53.4812 80.8145 54.0508 82.3453 54.0508C84.1609 54.0508 85.8697 53.2676 87.0445 51.986L86.1901 50.4908ZM88.2193 81L87.3293 56.4004H85.0153L80.5297 74.0936L80.6365 56.5072L76.7205 56.436L78.5005 81H80.8501L85.3713 62.7372L86.3681 81H88.2193ZM94.8893 81.1068L98.5917 70.2488L102.971 81.178L105.819 80.1456L99.9801 67.65L104.893 56.7208L101.831 56.4716L98.5917 65.9056L94.2841 56.6496L92.0413 57.7532L96.9185 67.65L91.3293 80.8576L94.8893 81.1068ZM114.11 81H118.382L121.657 76.6212L122.049 60.9572L117.706 56.436H111.262L108.201 60.8148L107.845 76.4788L114.11 81ZM116.139 58.7144L118.418 61.8828L117.706 76.3008L115.427 78.5436L110.764 75.1972L111.227 60.7792L112.793 58.6076L116.139 58.7144ZM139.031 81L141.452 80.5016L134.332 56.2936H131.057L123.581 80.3948L127.07 81.356L129.313 72.7764L136.361 72.1712L139.031 81ZM132.801 60.3164L135.863 70.498L129.811 70.854L132.801 60.3164ZM23.2959 115.576L24.5775 117H44.1575L43.3031 92.5428L39.4939 93.0768L40.8823 114.401H34.5811L34.1539 104.184H31.5195L32.2315 114.33H26.1795L25.5743 92.7564L22.1211 92.436L23.2959 115.576ZM62.2515 117L64.6723 116.502L57.5523 92.2936H54.2771L46.8011 116.395L50.2899 117.356L52.5327 108.776L59.5815 108.171L62.2515 117ZM56.0215 96.3164L59.0831 106.498L53.0311 106.854L56.0215 96.3164ZM75.6112 101.514L68.9896 92.5072L67.7436 93.0412L66.2484 117L69.0252 117.32L69.666 98.7372L75.2908 106.071L81.948 98.844L82.5888 117.036L85.686 116.858L85.0096 93.7176L83.1584 92.5072L75.6112 101.514ZM91.9327 94.2516H100.192V117.214L104.215 116.751V92.5072H89.9035L88.8711 93.2192V117H91.9327V94.2516ZM122.292 117L124.713 116.502L117.593 92.2936H114.317L106.841 116.395L110.33 117.356L112.573 108.776L119.622 108.171L122.292 117ZM116.062 96.3164L119.123 106.498L113.071 106.854L116.062 96.3164ZM142.095 116.964L142.131 92.4716H138.286L138.179 104.077L130.169 103.899L130.24 92.4716H127.357L127.784 116.964H130.062L130.169 105.75H138.179L138.037 116.964H142.095ZM151.855 92.4716H147.939L146.408 117H154.311L159.723 113.44L159.972 106.284L157.088 103.116L151.107 104.54L151.855 92.4716ZM155.593 106.035L157.088 107.602L156.875 112.052L152.496 114.864L150.538 114.472L151.001 107.103L155.593 106.035Z" fill="white"/>
</g>
<defs>
<clipPath id="clip0_486_3942">
<rect width="180" height="180" fill="white"/>
</clipPath>
</defs>
</svg>
