<svg width="180" height="180" viewBox="0 0 180 180" fill="none" xmlns="http://www.w3.org/2000/svg">
<g clip-path="url(#clip0_480_1999)">
<rect width="180" height="180" fill="#FFB09E"/>
<path d="M98.2301 42.5227C92.1262 53.9048 98.2299 80.3816 107.557 101.436C93.2004 90.9821 49.4968 61.4278 40.9514 80.1375C30.6481 102.56 34.5057 139.832 46.5181 146.28C57.212 151.996 81.3345 147.013 101.648 138.562C89.8311 155.318 65.1716 194.007 82.653 202.067C105.066 212.326 142.324 208.516 148.77 196.498C155.216 184.481 148.77 158.64 139.443 137.585C153.8 147.99 197.503 177.594 206.049 158.884C216.352 136.462 212.494 99.1888 200.482 92.7406C189.788 87.0251 165.714 91.9591 145.352 100.459C157.169 83.7034 181.828 45.014 164.347 36.9537C141.934 26.6463 104.578 30.5056 98.2301 42.5227Z" fill="#4192B5"/>
<path d="M123.5 134C131.508 134 138 127.508 138 119.5C138 111.492 131.508 105 123.5 105C115.492 105 109 111.492 109 119.5C109 127.508 115.492 134 123.5 134Z" fill="#FFC81A"/>
<path d="M7.89061 52.874L8.16781 79.802L24.1662 79.8812L22.9782 85.7816L27.057 85.8608L28.4034 77.9804L27.255 76.8716H24.9582L25.7898 52.7948L22.5822 52.8344L22.4634 76.8716H12.1278L12.3654 52.7552L7.89061 52.874ZM32.8148 52.8344L31.9832 80H42.2L45.1304 77.7032L45.4076 66.734L41.804 64.358L44.8928 57.0716L42.4376 52.9532L32.8148 52.8344ZM42.596 68.4368L42.398 75.8024L40.0616 77.5052L36.26 77.1488L36.2996 66.8924L39.9428 66.2984L42.596 68.4368ZM38.5172 64.2392L36.2996 64.6748L36.3392 55.3292L39.9032 55.2896L41.3684 57.4676L38.5172 64.2392ZM51.7331 56.8736L59.8115 56.438V52.9136H49.4759L48.9215 80H59.8115V76.634L51.1787 75.8816L51.4163 67.2884L57.8711 68.1596V65.2688H51.4955L51.7331 56.8736ZM77.4703 52.5572L61.7491 53.468L61.9075 55.6856H67.9663L67.4515 79.8812L70.8571 79.406L72.0451 55.6856L77.3119 55.7648L77.4703 52.5572ZM84.8662 80H89.6182L93.2614 75.1292L93.697 57.7052L88.8658 52.676H81.6982L78.2926 57.5468L77.8966 74.9708L84.8662 80ZM87.1234 55.2104L89.6578 58.7348L88.8658 74.7728L86.3314 77.2676L81.1438 73.5452L81.6586 57.5072L83.401 55.0916L87.1234 55.2104ZM109.103 53.1908L105.578 52.8344L105.301 63.1304L99.6778 64.4768L98.173 62.9324L99.6382 52.874L95.8366 52.7156L95.0842 64.358L99.163 67.6052L105.222 65.5064L104.865 79.4852L108.311 80.0792L109.103 53.1908ZM130.246 79.9604L130.286 52.7156H126.009L125.89 65.6252L116.98 65.4272L117.059 52.7156H113.852L114.327 79.9604H116.861L116.98 67.4864H125.89L125.732 79.9604H130.246ZM135.044 53.1116L136.232 77.8616L138.806 80H145.459L147.241 76.2776L146.488 66.932L143.716 63.8432L139.519 63.5264L139.043 52.8344L135.044 53.1116ZM154.725 52.8344H150.211L150.527 80H153.735L154.725 52.8344ZM142.845 66.2192L143.756 67.6844L144.469 76.0796L143.637 77.9804L140.152 77.5844L139.637 65.942L142.845 66.2192ZM170.018 46.0628C168.87 46.9736 167.84 47.3696 166.85 47.3696C165.424 47.3696 164.078 46.6172 162.534 45.548L160.712 48.0032C162.256 49.3892 164.038 50.0228 165.741 50.0228C167.761 50.0228 169.662 49.1516 170.968 47.726L170.018 46.0628ZM172.275 80L171.285 52.6364H168.711L163.722 72.3176L163.84 52.7552L159.484 52.676L161.464 80H164.078L169.107 59.6852L170.216 80H172.275ZM35.621 120H43.4618L45.7982 114.971L42.7886 113.466L41.2442 116.832L36.7694 116.674L33.9578 113.149L34.7498 97.9428L36.7694 95.3292L40.6106 96.0816L42.2738 99.7248L45.0854 98.2596L42.5906 92.7156H34.7894L30.7106 97.5864L30.1958 114.971L35.621 120ZM60.7057 117.624V106.536L57.4981 103.764L51.8749 104.002L51.9541 96.636L60.1117 96.1608L59.5573 92.6364H49.5781L48.7861 120H57.4981L60.7057 117.624ZM51.6373 117.109L51.8353 106.021L56.0725 105.823L57.8545 107.724L57.8149 115.208L56.4289 116.317L51.6373 117.109ZM81.2544 120.079L80.2644 92.9928L76.8984 92.7948L67.6716 111.842L68.1864 92.874H63.8304L63.7908 119.723L66.4044 119.842L76.5024 99.0516L77.0568 120.079H81.2544ZM98.7978 92.5572L83.0766 93.468L83.235 95.6856H89.2938L88.779 119.881L92.1846 119.406L93.3726 95.6856L98.6394 95.7648L98.7978 92.5572ZM104.114 96.8736L112.193 96.438V92.9136H101.857L101.303 120H112.193V116.634L103.56 115.882L103.797 107.288L110.252 108.16V105.269H103.877L104.114 96.8736ZM131.039 119.96L131.078 92.7156H126.802L126.683 105.625L117.773 105.427L117.852 92.7156H114.644L115.12 119.96H117.654L117.773 107.486H126.683L126.524 119.96H131.039ZM141.895 92.7156H137.539L135.836 120H144.628L150.647 116.04L150.924 108.08L147.716 104.556L141.064 106.14L141.895 92.7156ZM146.053 107.803L147.716 109.546L147.479 114.496L142.608 117.624L140.43 117.188L140.945 108.991L146.053 107.803Z" fill="white"/>
</g>
<defs>
<clipPath id="clip0_480_1999">
<rect width="180" height="180" fill="white"/>
</clipPath>
</defs>
</svg>
