<svg width="180" height="180" viewBox="0 0 180 180" fill="none" xmlns="http://www.w3.org/2000/svg">
<g clip-path="url(#clip0_486_4012)">
<rect width="180" height="180" fill="#5A53B1"/>
<path fill-rule="evenodd" clip-rule="evenodd" d="M80.8986 24.9891C78.9869 28.9655 78.4499 32.9541 79.4501 36.1623C81.6714 43.2881 80.6902 48.9717 78.3048 53.1712C75.9747 57.2735 72.4182 59.7625 69.7186 60.8277L67.7645 55.8755C69.4691 55.2029 72.0142 53.4669 73.6757 50.5418C75.2819 47.7139 76.1822 43.568 74.3675 37.7468C72.8451 32.8632 73.8095 27.4478 76.1004 22.6824C78.4034 17.892 82.1723 13.4755 86.7317 10.4791C91.2984 7.47788 96.8186 5.80719 102.509 6.86418C108.241 7.9288 113.695 11.6763 118.246 18.6351L113.791 21.5493C109.839 15.5068 105.521 12.8385 101.537 12.0984C97.5112 11.3507 93.371 12.4863 89.6556 14.9281C85.9329 17.3746 82.7982 21.0377 80.8986 24.9891Z" fill="#B842A5"/>
<ellipse cx="87.8608" cy="117.263" rx="42.1466" ry="47.9141" transform="rotate(-23.3234 87.8608 117.263)" fill="#B842A5"/>
<ellipse cx="119.378" cy="37.9692" rx="19.0769" ry="22.1824" transform="rotate(-23.3234 119.378 37.9692)" fill="#722D67"/>
<path d="M53.0139 58.8525L70.5319 51.2995L78.2605 69.225L57.8907 78.0074L53.0139 58.8525Z" fill="#ED71D9"/>
<path d="M53.2606 65.0263L52.2067 62.582L27.9873 69.1592L31.6759 77.7145L53.2606 65.0263Z" fill="#ED70D9"/>
<path d="M16.3138 83.2472L15.799 80H32.5894V83.2472H34.7278L35.2822 77.9408L34.8862 77.3864L31.5598 77.4656L28.471 53.666L26.887 52.4384H23.2834L17.383 77.6636L13.5814 77.7032L13.1062 78.1784L13.9378 83.2472H16.3138ZM24.3922 56.1608L26.9266 77.5052L20.0362 77.624L24.3922 56.1608ZM38.1708 78.7724L41.2992 80L48.8628 52.874H45.4572L42.0912 64.8332L38.448 52.676L35.7948 53.5472L40.8636 69.2288L38.1708 78.7724ZM52.7613 78.416L54.1869 80H75.9669L75.0165 52.7948L70.7793 53.3888L72.3237 77.1092H65.3145L64.8393 65.744H61.9089L62.7009 77.03H55.9689L55.2957 53.0324L51.4545 52.676L52.7613 78.416ZM98.1927 80.0792L97.2027 52.9928L93.8367 52.7948L84.6099 71.8424L85.1247 52.874H80.7687L80.7291 79.7228L83.3427 79.8416L93.4407 59.0516L93.9951 80.0792H98.1927ZM107.164 80H115.005L117.341 74.9708L114.332 73.466L112.787 76.832L108.312 76.6736L105.501 73.1492L106.293 57.9428L108.312 55.3292L112.154 56.0816L113.817 59.7248L116.628 58.2596L114.134 52.7156H106.332L102.254 57.5864L101.739 74.9708L107.164 80ZM133.061 52.5572L117.34 53.468L117.498 55.6856H123.557L123.042 79.8812L126.448 79.406L127.636 55.6856L132.903 55.7648L133.061 52.5572ZM148.03 80L150.723 79.4456L142.803 52.5176H139.16L130.844 79.3268L134.725 80.396L137.219 70.8524L145.06 70.1792L148.03 80ZM141.1 56.9924L144.506 68.318L137.774 68.714L141.1 56.9924ZM161.712 68.12L161.237 80H164.366V52.874H154.743L152.327 56.1608V65.3876L154.347 68.12H156.762L152.169 79.406L155.535 80.396L159.97 68.12H161.712ZM161.712 65.546H156.762L155.258 63.8828V57.3884L156.921 55.2896H161.712V65.546ZM15.9186 102.774L8.55298 92.7552L7.16698 93.3492L5.50378 120L8.59258 120.356L9.30538 99.6852L15.5622 107.843L22.9674 99.804L23.6802 120.04L27.1254 119.842L26.373 94.1016L24.3138 92.7552L15.9186 102.774ZM46.0331 120L48.7259 119.446L40.8059 92.5176H37.1627L28.8467 119.327L32.7275 120.396L35.2223 110.852L43.0631 110.179L46.0331 120ZM39.1031 96.9924L42.5087 108.318L35.7767 108.714L39.1031 96.9924ZM55.152 108.872L65.448 108.674L68.9724 105.704L69.012 97.0716L65.25 92.9136H51.6672V120H55.0332L55.152 108.872ZM55.152 106.496L55.2708 95.7252L63.0324 96.2004L65.9232 98.3388L65.1708 104.239L63.3096 106.417L55.152 106.496ZM75.3065 95.7252L82.8305 95.844L83.1077 92.9136H71.5445V120.158H75.9005L75.3065 95.7252ZM97.1187 120L99.8115 119.446L91.8915 92.5176H88.2483L79.9323 119.327L83.8131 120.396L86.3079 110.852L94.1487 110.179L97.1187 120ZM90.1887 96.9924L93.5943 108.318L86.8623 108.714L90.1887 96.9924ZM106.238 108.872L116.534 108.674L120.058 105.704L120.097 97.0716L116.336 92.9136H102.753V120H106.119L106.238 108.872ZM106.238 106.496L106.356 95.7252L114.118 96.2004L117.009 98.3388L116.256 104.239L114.395 106.417L106.238 106.496ZM140.094 120.079L139.104 92.9928L135.738 92.7948L126.511 111.842L127.026 92.874H122.67L122.63 119.723L125.244 119.842L135.342 99.0516L135.896 120.079H140.094ZM157.637 92.5572L141.916 93.468L142.074 95.6856H148.133L147.618 119.881L151.024 119.406L152.212 95.6856L157.479 95.7648L157.637 92.5572ZM172.606 120L175.299 119.446L167.379 92.5176H163.736L155.42 119.327L159.301 120.396L161.795 110.852L169.636 110.179L172.606 120ZM165.676 96.9924L169.082 108.318L162.35 108.714L165.676 96.9924Z" fill="white"/>
</g>
<defs>
<clipPath id="clip0_486_4012">
<rect width="180" height="180" fill="white"/>
</clipPath>
</defs>
</svg>
