<svg width="180" height="180" viewBox="0 0 180 180" fill="none" xmlns="http://www.w3.org/2000/svg">
<g clip-path="url(#clip0_492_3133)">
<rect width="180" height="180" fill="#3EC26B"/>
<path d="M27.501 68.224L44.7633 72.9486L52.7299 96.1893L52.3271 87.3083L64.8944 87.2292L69.9001 94.0612L92.0756 95.2201L80.9501 83.0367L111.364 88.9976L104.787 74.1989L117.664 72.6028L128.349 62.5287L107.159 50.2953L93.9156 49.2967L117.568 23.2083L111.868 21.0182L110.715 -1.51311L97.856 1.45348L88.4844 -6.78357L70.8589 7.16799L63.0598 13.9879L59.7329 -8.56054L50.0138 -21.5669L37.6667 -12.1316L38.9646 -3.45207L25.6661 -8.56237L30.5655 29.0431L7.00047 15.8972L11.6437 48.4958L29.4184 63.2343L27.501 68.224Z" fill="#FFBE3F"/>
<path d="M139.595 195.657L148.714 183.052L170.06 183.668L162.71 181.283L166.485 171.032L173.574 169.045L181.291 151.352L167.977 156.685L182.119 133.754L168.066 134.587L170.701 123.619L165.767 111.846L149.338 125.354L144.48 135.827L130.474 108.609L126.951 112.578L108.263 106.634L106.749 118.005L97.1826 123.116L103.152 141.721L106.32 150.151L86.9538 145.971L73.4002 149.907L77.3071 162.838L84.7669 164.433L76.5459 173.694L108.646 181.194L90.7494 196.356L118.697 202.535L136.121 192.572L139.595 195.657Z" fill="#FFBE3F"/>
<path d="M32.7118 40.1584C38.2298 40.0516 42.9646 35.744 42.9646 29.7276C42.9646 25.8116 40.3658 22.2872 33.9578 22.1448L34.1358 19.6884H30.3266L30.1486 22.1804C23.4558 22.6432 19.9314 27.2712 19.9314 32.1484C19.9314 36.7408 22.637 40.1584 28.9026 40.4788L28.5822 44.9644L32.3558 45L32.7118 40.1584ZM29.0806 37.88C25.0222 37.7376 23.3846 34.7116 23.3846 31.5432C23.3846 28.0188 25.9478 24.4944 30.0062 24.3876L29.0806 37.88ZM40.5438 30.2972C40.5438 33.9284 37.5178 37.6664 32.8542 38.2004L33.7798 24.7436C38.5146 24.8504 40.5438 27.2712 40.5438 30.2972ZM48.8945 34.9964L58.1505 34.8184L61.3189 32.1484L61.3545 24.3876L57.9725 20.6496H45.7617V45H48.7877L48.8945 34.9964ZM48.8945 32.8604L49.0013 23.1772L55.9789 23.6044L58.5777 25.5268L57.9013 30.8312L56.2281 32.7892L48.8945 32.8604ZM75.6015 45L78.0223 44.5016L70.9023 20.2936H67.6271L60.1511 44.3948L63.6399 45.356L65.8827 36.7764L72.9315 36.1712L75.6015 45ZM69.3715 24.3164L72.4331 34.498L66.3811 34.854L69.3715 24.3164ZM95.4048 44.9644L95.4404 20.4716H91.5956L91.4888 32.0772L83.4788 31.8992L83.55 20.4716H80.6664L81.0936 44.9644H83.372L83.4788 33.7504H91.4888L91.3464 44.9644H95.4048ZM99.718 20.5072V44.822H114.35L113.282 50.1976L116.948 50.9096L118.123 43.6116L117.198 42.1876H115.418L115.346 20.258L111.502 20.5428L112.249 42.1876H102.459L102.637 20.97L99.718 20.5072ZM122.09 43.8964L124.902 45L131.702 20.614H128.64L125.614 31.3652L122.339 20.436L119.954 21.2192L124.511 35.3168L122.09 43.8964ZM131.931 44.5372L142.255 44.822L144.178 36.8832L143.572 34.3556L139.906 32.0772L142.469 29.7276L143.43 22.6432L139.478 20.6496L132.821 22.3584L133.782 25.3844L138.126 23.0348L139.87 23.8892L139.834 28.8376L137.841 31.3652H134.566V33.5368L137.556 33.608L140.831 36.4916L139.55 42.5792L132.394 41.4044L131.931 44.5372ZM151.226 45H158.274L160.375 40.4788L157.669 39.126L156.281 42.152L152.258 42.0096L149.73 38.8412L150.442 25.1708L152.258 22.8212L155.711 23.4976L157.206 26.7728L159.734 25.4556L157.491 20.4716H150.478L146.811 24.8504L146.348 40.4788L151.226 45ZM70.6449 67.294L77.6225 81.1068L81.1825 79.8608L72.1401 65.8344L79.6873 58.6432L77.7293 56.6496L70.3957 65.3004H69.6481L69.7193 56.6852L66.1593 56.5072L65.8389 81.1424L69.3633 80.9644L69.4701 67.4364L70.6449 67.294ZM98.5736 81.0712L97.6836 56.7208L94.6576 56.5428L86.3628 73.6664L86.8256 56.614H82.9096L82.874 80.7508L85.2236 80.8576L94.3016 62.1676L94.8 81.0712H98.5736ZM112.299 50.4908C111.267 51.3096 110.341 51.6656 109.451 51.6656C108.17 51.6656 106.959 50.9892 105.571 50.028L103.933 52.2352C105.322 53.4812 106.924 54.0508 108.454 54.0508C110.27 54.0508 111.979 53.2676 113.154 51.986L112.299 50.4908ZM114.328 81L113.438 56.4004H111.124L106.639 74.0936L106.746 56.5072L102.83 56.436L104.61 81H106.959L111.48 62.7372L112.477 81H114.328ZM28.9261 103.294L35.9037 117.107L39.4637 115.861L30.4213 101.834L37.9685 94.6432L36.0105 92.6496L28.6769 101.3H27.9293L28.0005 92.6852L24.4405 92.5072L24.1201 117.142L27.6445 116.964L27.7513 103.436L28.9261 103.294ZM49.1653 98.5592L53.9713 116.964H57.4245L49.9485 92.5784H47.3497L39.5177 116.964H42.5081L49.1653 98.5592ZM62.5606 96.2096L69.823 95.818V92.6496H60.5314L60.033 117H69.823V113.974L62.0622 113.298L62.2758 105.572L68.0786 106.356V103.757H62.347L62.5606 96.2096ZM86.7656 116.964L86.8012 92.4716H82.9564L82.8496 104.077L74.8396 103.899L74.9108 92.4716H72.0272L72.4544 116.964H74.7328L74.8396 105.75H82.8496L82.7072 116.964H86.7656ZM96.2407 117H100.513L103.788 112.621L104.18 96.9572L99.8363 92.436H93.3927L90.3311 96.8148L89.9751 112.479L96.2407 117ZM98.2699 94.7144L100.548 97.8828L99.8363 112.301L97.5579 114.544L92.8943 111.197L93.3571 96.7792L94.9235 94.6076L98.2699 94.7144ZM108.097 92.5784L107.349 117H116.534L119.168 114.935L119.417 105.074L116.178 102.938L118.955 96.3876L116.747 92.6852L108.097 92.5784ZM116.89 106.605L116.712 113.226L114.611 114.757L111.194 114.437L111.229 105.216L114.505 104.682L116.89 106.605ZM113.223 102.831L111.229 103.223L111.265 94.8212L114.469 94.7856L115.786 96.7436L113.223 102.831ZM122.576 92.8276L123.644 115.078L125.958 117H131.939L133.541 113.654L132.865 105.252L130.373 102.475L126.599 102.19L126.172 92.5784L122.576 92.8276ZM140.27 92.5784H136.211L136.496 117H139.38L140.27 92.5784ZM129.59 104.611L130.408 105.928L131.049 113.476L130.302 115.184L127.169 114.828L126.706 104.362L129.59 104.611ZM154.018 86.4908C152.985 87.3096 152.06 87.6656 151.17 87.6656C149.888 87.6656 148.678 86.9892 147.289 86.028L145.652 88.2352C147.04 89.4812 148.642 90.0508 150.173 90.0508C151.989 90.0508 153.697 89.2676 154.872 87.986L154.018 86.4908ZM156.047 117L155.157 92.4004H152.843L148.357 110.094L148.464 92.5072L144.548 92.436L146.328 117H148.678L153.199 98.7372L154.196 117H156.047ZM78.1007 128.899L74.9323 128.578L74.6831 137.834L69.6279 139.045L68.2751 137.656L69.5923 128.614L66.1747 128.472L65.4983 138.938L69.1651 141.857L74.6119 139.97L74.2915 152.537L77.3887 153.071L78.1007 128.899ZM96.1827 153L98.6035 152.502L91.4835 128.294H88.2083L80.7323 152.395L84.2211 153.356L86.4639 144.776L93.5127 144.171L96.1827 153ZM89.9527 132.316L93.0143 142.498L86.9623 142.854L89.9527 132.316ZM110.717 122.491C109.685 123.31 108.759 123.666 107.869 123.666C106.588 123.666 105.377 122.989 103.989 122.028L102.351 124.235C103.74 125.481 105.342 126.051 106.872 126.051C108.688 126.051 110.397 125.268 111.572 123.986L110.717 122.491ZM112.746 153L111.856 128.4H109.542L105.057 146.094L105.164 128.507L101.248 128.436L103.028 153H105.377L109.898 134.737L110.895 153H112.746Z" fill="white"/>
<path d="M39.1003 92.5951C45.6143 64.9031 68.9881 54.7607 79.8608 53.151C55.8383 50.3428 37.6376 73.9136 31.54 86.0501L39.1003 92.5951Z" fill="#FFBE3F"/>
</g>
<defs>
<clipPath id="clip0_492_3133">
<rect width="180" height="180" fill="white"/>
</clipPath>
</defs>
</svg>
