<svg width="180" height="180" viewBox="0 0 180 180" fill="none" xmlns="http://www.w3.org/2000/svg">
<g clip-path="url(#clip0_480_1975)">
<rect width="180" height="180" fill="#F0C3E9"/>
<path d="M87.7396 84.0189C20.2875 88.988 -8.88184 139.168 -15.035 163.637L-31 193L192.51 187.353L197 14C188.685 35.2692 155.192 79.0498 87.7396 84.0189Z" fill="#DB7BCC"/>
<path d="M113.64 146.633C53.0167 116.646 2.39902 145.049 -15.3319 162.999L-44.0002 180.18L151.387 288.865L243.322 141.83C225.355 155.926 174.264 176.62 113.64 146.633Z" fill="#CD65BC"/>
<path d="M46.9795 80L46.6627 52.676H42.3067L42.1879 62.774L30.9415 62.5364L31.0207 52.676H27.5359V80H30.7831L30.9019 64.6748H42.1879L42.0295 80H46.9795ZM54.5561 56.8736L62.6345 56.438V52.9136H52.2989L51.7445 80H62.6345V76.634L54.0017 75.8816L54.2393 67.2884L60.6941 68.1596V65.2688H54.3185L54.5561 56.8736ZM79.8967 65.942L87.6583 80.1188L91.6183 78.7328L82.0747 63.962L89.9551 55.1312L87.7771 52.9136L79.6195 63.7244H78.7879L78.8671 52.9532L74.5507 52.7552L74.3923 63.7244H74.3131L66.1555 52.9136L63.6211 55.7648L71.2639 64.8332L62.9083 79.604L66.6307 80.5544L74.0359 65.942L74.3527 65.9816L74.1943 80.1584L78.4711 79.9604L78.5899 66.1004L79.8967 65.942ZM110.601 79.9604L110.64 52.7156H106.363L106.245 65.6252L97.3346 65.4272L97.4138 52.7156H94.2062L94.6814 79.9604H97.2158L97.3346 67.4864H106.245L106.086 79.9604H110.601ZM115.398 53.1116L116.586 77.8616L119.16 80H125.813L127.595 76.2776L126.843 66.932L124.071 63.8432L119.873 63.5264L119.398 52.8344L115.398 53.1116ZM135.08 52.8344H130.565L130.882 80H134.09L135.08 52.8344ZM123.2 66.2192L124.11 67.6844L124.823 76.0796L123.992 77.9804L120.507 77.5844L119.992 65.942L123.2 66.2192ZM150.373 46.0628C149.224 46.9736 148.195 47.3696 147.205 47.3696C145.779 47.3696 144.433 46.6172 142.888 45.548L141.067 48.0032C142.611 49.3892 144.393 50.0228 146.096 50.0228C148.115 50.0228 150.016 49.1516 151.323 47.726L150.373 46.0628ZM152.63 80L151.64 52.6364H149.066L144.076 72.3176L144.195 52.7552L139.839 52.676L141.819 80H144.433L149.462 59.6852L150.571 80H152.63ZM51.8718 118.416L53.2974 120H75.0774L74.127 92.7948L69.8898 93.3888L71.4342 117.109H64.425L63.9498 105.744H61.0194L61.8114 117.03H55.0794L54.4062 93.0324L50.565 92.676L51.8718 118.416ZM82.6512 96.8736L90.7296 96.438V92.9136H80.394L79.8396 120H90.7296V116.634L82.0968 115.882L82.3344 107.288L88.7892 108.16V105.269H82.4136L82.6512 96.8736ZM103.329 99.4872L108.675 119.96H112.516L104.2 92.8344H101.309L92.5973 119.96H95.9237L103.329 99.4872ZM120.764 104.754L128.525 120.119L132.485 118.733L122.427 103.13L130.822 95.1312L128.644 92.9136L120.487 102.536H119.655L119.734 92.9532L115.774 92.7552L115.418 120.158L119.338 119.96L119.457 104.912L120.764 104.754Z" fill="white"/>
</g>
<defs>
<clipPath id="clip0_480_1975">
<rect width="180" height="180" fill="white"/>
</clipPath>
</defs>
</svg>
