<svg width="180" height="180" viewBox="0 0 180 180" fill="none" xmlns="http://www.w3.org/2000/svg">
<g clip-path="url(#clip0_461_2171)">
<rect width="180" height="180" fill="#1F6981"/>
<path d="M12.6672 99.3853C-42.8328 119.385 -52.3328 51.3853 -29.3328 15.3853C-29.3328 -32.2147 23.0004 -34.1147 49.167 -29.1147C57.0003 -25.2813 70.567 -11.0147 62.167 15.3853C51.667 48.3853 107.167 33.8853 125.167 74.8853C143.167 115.885 91.667 123.885 87.167 141.885C83.567 156.285 99.0003 155.552 107.167 153.385C89.667 166.385 56.167 137.385 72.667 117.385C89.167 97.3853 68.1672 79.3853 12.6672 99.3853Z" fill="#2EBEC7"/>
<path d="M39.3429 83.2472L38.8281 80H55.6185V83.2472H57.7569L58.3113 77.9408L57.9153 77.3864L54.5889 77.4656L51.5001 53.666L49.9161 52.4384H46.3125L40.4121 77.6636L36.6105 77.7032L36.1353 78.1784L36.9669 83.2472H39.3429ZM47.4213 56.1608L49.9557 77.5052L43.0653 77.624L47.4213 56.1608ZM75.1787 65.942L82.9403 80.1188L86.9003 78.7328L77.3567 63.962L85.2371 55.1312L83.0591 52.9136L74.9015 63.7244H74.0699L74.1491 52.9532L69.8327 52.7552L69.6743 63.7244H69.5951L61.4375 52.9136L58.9031 55.7648L66.5459 64.8332L58.1903 79.604L61.9127 80.5544L69.3179 65.942L69.6347 65.9816L69.4763 80.1584L73.7531 79.9604L73.8719 66.1004L75.1787 65.942ZM106.952 80.0792L105.962 52.9928L102.596 52.7948L93.3691 71.8424L93.8839 52.874H89.5279L89.4883 79.7228L92.1019 79.8416L102.2 59.0516L102.754 80.0792H106.952ZM128.08 79.9604L128.12 52.7156H123.843L123.724 65.6252L114.814 65.4272L114.894 52.7156H111.686L112.161 79.9604H114.696L114.814 67.4864H123.724L123.566 79.9604H128.08ZM132.482 67.0112L141.352 67.7636L141.748 64.6352H132.482V67.0112ZM58.2117 92.5572L42.4905 93.468L42.6489 95.6856H48.7077L48.1929 119.881L51.5985 119.406L52.7865 95.6856L58.0533 95.7648L58.2117 92.5572ZM65.6076 120H70.3596L74.0028 115.129L74.4384 97.7052L69.6072 92.676H62.4396L59.034 97.5468L58.638 114.971L65.6076 120ZM67.8648 95.2104L70.3992 98.7348L69.6072 114.773L67.0728 117.268L61.8852 113.545L62.4 97.5072L64.1424 95.0916L67.8648 95.2104ZM94.3584 119.96L94.398 92.7156H90.1212L90.0024 105.625L81.0924 105.427L81.1716 92.7156H77.964L78.4392 119.96H80.9736L81.0924 107.486H90.0024L89.844 119.96H94.3584ZM116.62 120.079L115.63 92.9928L112.264 92.7948L103.037 111.842L103.552 92.874H99.1958L99.1562 119.723L101.77 119.842L111.868 99.0516L112.422 120.079H116.62ZM126.7 104.754L134.461 120.119L138.421 118.733L128.363 103.13L136.758 95.1312L134.58 92.9136L126.423 102.536H125.591L125.67 92.9532L121.71 92.7552L121.354 120.158L125.274 119.96L125.393 104.912L126.7 104.754Z" fill="white"/>
<path fill-rule="evenodd" clip-rule="evenodd" d="M109 153V159L129 165.5L135 174L131 180H156.5L152 174C154.67 173.466 159.216 171.974 162.558 169.391C163.378 169.784 164.257 169.978 165.157 169.992C167.143 170.022 169.074 169.174 170.601 168.002C172.131 166.828 173.412 165.21 174.018 163.47C174.634 161.7 174.581 159.646 173.121 158.003C171.194 155.835 169.009 155.25 167.03 155.612C166.779 155.658 166.535 155.719 166.298 155.791C165.766 154.426 165.053 153.484 164.5 153H109ZM166.987 158.724C167.138 160.227 167.035 161.992 166.5 164C166.21 165.086 165.687 166.08 164.999 166.984C165.067 166.988 165.134 166.991 165.202 166.992C166.326 167.009 167.614 166.513 168.774 165.623C169.932 164.734 170.807 163.571 171.185 162.483C171.553 161.425 171.419 160.604 170.879 159.997C169.606 158.565 168.458 158.4 167.57 158.563C167.372 158.599 167.176 158.654 166.987 158.724Z" fill="#FFBE3F"/>
</g>
<defs>
<clipPath id="clip0_461_2171">
<rect width="180" height="180" fill="white"/>
</clipPath>
</defs>
</svg>
