<svg width="180" height="180" viewBox="0 0 180 180" fill="none" xmlns="http://www.w3.org/2000/svg">
<g clip-path="url(#clip0_480_2132)">
<rect width="180" height="180" fill="#4B93C7"/>
<path d="M44.4998 54.9999C44.0998 74.9999 75.9998 71.3333 91.9998 66.9999C77.8332 75.6666 45.4 90.7 29 81.5C12.6 72.3 -14.5 87.3333 -26 96L-17.5 -12C10.1667 -13.8334 68 -14.9 78 -4.50005C90.5 8.49995 44.9998 29.9999 44.4998 54.9999Z" fill="#71C3FF"/>
<path fill-rule="evenodd" clip-rule="evenodd" d="M14.8589 107.21L20.1178 120.212L69.1534 116.767L89.605 129.927L86.1963 146.435L141.453 124.084L126.443 115.027C131.761 111.529 140.304 104.311 145.282 95.7856C147.402 95.9181 149.477 95.5697 151.44 94.8098C155.77 93.1341 159.21 89.6054 161.492 85.7273C163.778 81.8425 165.138 77.2129 164.925 72.9097C164.708 68.5349 162.793 64.1306 158.19 61.8512C152.112 58.8417 146.865 59.4884 142.894 62.0082C142.39 62.3279 141.914 62.6731 141.465 63.0378C139.117 60.5457 136.745 59.1291 135.123 58.5654L14.8589 107.21ZM145.529 68.7879C147.173 71.9144 148.499 75.8289 149.098 80.6486C149.423 83.2567 149.159 85.8686 148.46 88.4297C148.611 88.3807 148.761 88.3274 148.909 88.2701C151.358 87.3221 153.715 85.1177 155.448 82.171C157.178 79.231 158.054 75.944 157.921 73.2561C157.791 70.6398 156.781 68.9785 155.078 68.1353C151.066 66.1486 148.433 66.7984 146.652 67.9289C146.253 68.182 145.878 68.4721 145.529 68.7879Z" fill="#FFBE3F"/>
<path d="M133.901 54.1233L62.9998 59.7219L65.0886 53.0408C82.3651 50.0603 89.0918 37.1458 90.2956 31.0612L99.6316 31.3606C104.259 42.0275 124.048 48.773 133.364 50.8124L133.901 54.1233Z" fill="#FFBE3F"/>
<path d="M98.9755 30.1081L90.7432 29.6298L86.9561 21.6355L101.274 17.7299L98.9755 30.1081Z" fill="#FFBE3F"/>
<path d="M50.4138 83.9192L49.951 81H65.0454V83.9192H66.9678L67.4662 79.1488L67.1102 78.6504L64.1198 78.7216L61.343 57.326L59.919 56.2224H56.6794L51.375 78.8996L47.9574 78.9352L47.5302 79.3624L48.2778 83.9192H50.4138ZM57.6762 59.5688L59.9546 78.7572L53.7602 78.864L57.6762 59.5688ZM82.6298 68.362L89.6074 81.1068L93.1674 79.8608L84.5878 66.582L91.6722 58.6432L89.7142 56.6496L82.3806 66.3684H81.633L81.7042 56.6852L77.8238 56.5072L77.6814 66.3684H77.6102L70.2766 56.6496L67.9982 59.2128L74.869 67.3652L67.3574 80.644L70.7038 81.4984L77.361 68.362L77.6458 68.3976L77.5034 81.1424L81.3482 80.9644L81.455 68.5044L82.6298 68.362ZM111.194 81.0712L110.304 56.7208L107.278 56.5428L98.9828 73.6664L99.4456 56.614H95.5296L95.494 80.7508L97.8436 80.8576L106.922 62.1676L107.42 81.0712H111.194ZM130.188 80.9644L130.223 56.4716H126.379L126.272 68.0772L118.262 67.8992L118.333 56.4716H115.449L115.877 80.9644H118.155L118.262 69.7504H126.272L126.129 80.9644H130.188ZM47.6488 95.1772L54.4128 95.284L54.662 92.6496H44.2668V117.142H48.1828L47.6488 95.1772ZM67.2577 117L69.6785 116.502L62.5585 92.2936H59.2833L51.8073 116.395L55.2961 117.356L57.5389 108.776L64.5877 108.171L67.2577 117ZM61.0277 96.3164L64.0893 106.498L58.0373 106.854L61.0277 96.3164ZM75.4555 106.996L84.7115 106.818L87.8799 104.148L87.9155 96.3876L84.5335 92.6496H72.3227V117H75.3487L75.4555 106.996ZM75.4555 104.86L75.5623 95.1772L82.5399 95.6044L85.1387 97.5268L84.4623 102.831L82.7891 104.789L75.4555 104.86ZM90.655 120.382L90.0854 116.964H104.753V120.24L106.817 120.489L107.28 115.861L106.675 114.864L103.685 114.935L100.73 93.1836L99.6618 92.2224H96.6002L90.9398 115.113L88.3054 115.149L87.7714 115.932L88.3766 120.56L90.655 120.382ZM97.6682 95.5332L100.089 114.971L93.4318 115.078L97.6682 95.5332ZM111.667 96.2096L118.929 95.818V92.6496H109.638L109.139 117H118.929V113.974L111.169 113.298L111.382 105.572L117.185 106.356V103.757H111.453L111.667 96.2096ZM135.872 116.964L135.908 92.4716H132.063L131.956 104.077L123.946 103.899L124.017 92.4716H121.134L121.561 116.964H123.839L123.946 105.75H131.956L131.814 116.964H135.872Z" fill="white"/>
</g>
<defs>
<clipPath id="clip0_480_2132">
<rect width="180" height="180" fill="white"/>
</clipPath>
</defs>
</svg>
