<svg width="180" height="180" viewBox="0 0 180 180" fill="none" xmlns="http://www.w3.org/2000/svg">
<g clip-path="url(#clip0_480_2366)">
<rect width="180" height="180" fill="#6B291A"/>
<path d="M60 32L84.6931 149C95.9327 124.153 131.241 114.822 146 111.56L60 32Z" fill="#BE7CDD"/>
<ellipse cx="117.352" cy="134.948" rx="37.2161" ry="22.1524" transform="rotate(-32.8908 117.352 134.948)" fill="#874AA4"/>
<path d="M28.1955 77.4756C23.4607 77.2976 19.5091 75.3752 19.5091 69.0384C19.5091 61.8828 22.8199 58.6788 28.9787 58.6788V56.4716C28.4447 56.4004 27.9107 56.4004 27.4123 56.4004C20.5059 56.4004 16.4119 62.0252 16.4119 69.6436C16.4119 76.4076 20.3991 81.2848 27.0919 81.2848C27.4479 81.2848 27.8039 81.2848 28.1955 81.2492V77.4756ZM34.7259 58.2516H42.9851V81.2136L47.0079 80.7508V56.5072H32.6967L31.6643 57.2192V81H34.7259V58.2516ZM56.4341 81H60.7061L63.9813 76.6212L64.3729 60.9572L60.0297 56.436H53.5861L50.5245 60.8148L50.1685 76.4788L56.4341 81ZM58.4633 58.7144L60.7417 61.8828L60.0297 76.3008L57.7513 78.5436L53.0877 75.1972L53.5505 60.7792L55.1169 58.6076L58.4633 58.7144ZM72.3484 67.294L79.326 81.1068L82.886 79.8608L73.8436 65.8344L81.3908 58.6432L79.4328 56.6496L72.0992 65.3004H71.3516L71.4228 56.6852L67.8628 56.5072L67.5424 81.1424L71.0668 80.9644L71.1736 67.4364L72.3484 67.294ZM88.9747 81H93.2467L96.5219 76.6212L96.9135 60.9572L92.5703 56.436H86.1267L83.0651 60.8148L82.7091 76.4788L88.9747 81ZM91.0039 58.7144L93.2823 61.8828L92.5703 76.3008L90.2919 78.5436L85.6283 75.1972L86.0911 60.7792L87.6575 58.6076L91.0039 58.7144ZM109.553 50.4908C108.52 51.3096 107.595 51.6656 106.705 51.6656C105.423 51.6656 104.213 50.9892 102.824 50.028L101.187 52.2352C102.575 53.4812 104.177 54.0508 105.708 54.0508C107.523 54.0508 109.232 53.2676 110.407 51.986L109.553 50.4908ZM111.582 81L110.692 56.4004H108.378L103.892 74.0936L103.999 56.5072L100.083 56.436L101.863 81H104.213L108.734 62.7372L109.731 81H111.582ZM130.605 80.9644L130.641 56.4716H126.796L126.689 68.0772L118.679 67.8992L118.75 56.4716H115.867L116.294 80.9644H118.572L118.679 69.7504H126.689L126.547 80.9644H130.605ZM140.08 81H144.352L147.627 76.6212L148.019 60.9572L143.676 56.436H137.232L134.171 60.8148L133.815 76.4788L140.08 81ZM142.109 58.7144L144.388 61.8828L143.676 76.3008L141.397 78.5436L136.734 75.1972L137.197 60.7792L138.763 58.6076L142.109 58.7144ZM160.658 50.4908C159.626 51.3096 158.7 51.6656 157.81 51.6656C156.528 51.6656 155.318 50.9892 153.93 50.028L152.292 52.2352C153.68 53.4812 155.282 54.0508 156.813 54.0508C158.629 54.0508 160.338 53.2676 161.512 51.986L160.658 50.4908ZM162.687 81L161.797 56.4004H159.483L154.998 74.0936L155.104 56.5072L151.188 56.436L152.968 81H155.318L159.839 62.7372L160.836 81H162.687ZM71.8511 116.964L71.8867 92.4716H68.0419L67.9351 104.077L59.9251 103.899L59.9963 92.4716H57.1127L57.5399 116.964H59.8183L59.9251 105.75H67.9351L67.7927 116.964H71.8511ZM81.3263 117H85.5983L88.8735 112.621L89.2651 96.9572L84.9219 92.436H78.4783L75.4167 96.8148L75.0607 112.479L81.3263 117ZM83.3555 94.7144L85.6339 97.8828L84.9219 112.301L82.6435 114.544L77.9799 111.197L78.4427 96.7792L80.0091 94.6076L83.3555 94.7144ZM103.115 92.8988L99.9462 92.5784L99.697 101.834L94.6418 103.045L93.289 101.656L94.6062 92.614L91.1886 92.4716L90.5122 102.938L94.179 105.857L99.6258 103.97L99.3054 116.537L102.403 117.071L103.115 92.8988ZM123.083 117.071L122.193 92.7208L119.167 92.5428L110.873 109.666L111.335 92.614H107.419L107.384 116.751L109.733 116.858L118.811 98.1676L119.31 117.071H123.083Z" fill="white"/>
<path d="M51.0026 15.6669L61.2264 21.6949L72.7556 18.8773L70.1819 30.4634L76.4243 40.5577L64.61 41.6903L56.9388 50.7465L52.2108 39.8603L41.2273 35.3631L50.1196 27.5025L51.0026 15.6669Z" fill="#E2B0FA"/>
</g>
<defs>
<clipPath id="clip0_480_2366">
<rect width="180" height="180" fill="white"/>
</clipPath>
</defs>
</svg>
