<svg width="180" height="180" viewBox="0 0 180 180" fill="none" xmlns="http://www.w3.org/2000/svg">
<g clip-path="url(#clip0_486_4050)">
<rect width="180" height="180" fill="#697548"/>
<path d="M126.5 69.4995L67.5 36.9995C132.7 15.3995 178.667 49.6662 193.5 69.4995V197H67.5C67.5 183.5 73.7 151.9 98.5 133.5C123.3 115.1 127.5 83.1662 126.5 69.4995Z" fill="#59C44D"/>
<path d="M29.4468 17C29.4468 17 17.225 45.6243 40.6154 64.3781C40.6154 64.3781 26.1367 79.1429 36.4692 106.07L11.3249 168.441L1.16658 174.393L-22.1271 173.905L-23.5673 176.843L36.7386 206.405L38.1787 203.468L23.5258 185.353L22.0084 173.678L55.9095 115.6C83.5236 107.275 86.3264 86.7862 86.3264 86.7862C115.477 93.7889 130.618 66.5955 130.618 66.5955L29.4468 17Z" fill="#06451B"/>
<path d="M29.9755 80.198C30.4111 80.2376 30.8071 80.2376 31.2427 80.2376C37.2619 80.2376 42.4495 77.7824 42.4495 71.684C42.4495 69.0704 41.0239 66.6152 38.2915 65.4668C40.6279 63.6848 41.8555 61.1504 41.8555 58.7348C41.8555 55.448 39.5587 52.5176 34.6483 52.5176C33.4207 52.5176 32.1931 52.7552 31.0447 53.1512L31.6387 55.5272C32.3515 55.3292 33.2227 55.1708 34.1335 55.1708C37.3411 55.1708 38.6875 56.9528 38.6875 59.012C38.6875 61.1504 37.2619 63.566 34.9651 64.7144C33.9355 64.7144 33.3811 64.754 32.8267 64.8332V67.2488C33.1039 67.2092 33.3811 67.2092 33.6583 67.2092C37.1827 67.2092 38.8063 69.11 38.8063 71.1296C38.8063 75.9608 33.7375 76.1984 30.4111 76.0004L29.9755 80.198ZM48.852 56.8736L56.9304 56.438V52.9136H46.5948L46.0404 80H56.9304V76.634L48.2976 75.8816L48.5352 67.2884L54.99 68.1596V65.2688H48.6144L48.852 56.8736ZM69.5297 59.4872L74.8757 79.9604H78.7169L70.4009 52.8344H67.5101L58.7981 79.9604H62.1245L69.5297 59.4872ZM84.4301 56.8736L92.5085 56.438V52.9136H82.1729L81.6185 80H92.5085V76.634L83.8757 75.8816L84.1133 67.2884L90.5681 68.1596V65.2688H84.1925L84.4301 56.8736ZM111.355 79.9604L111.394 52.7156H107.118L106.999 65.6252L98.0887 65.4272L98.1679 52.7156H94.9603L95.4355 79.9604H97.9699L98.0887 67.4864H106.999L106.84 79.9604H111.355ZM131.517 80L134.21 79.4456L126.29 52.5176H122.647L114.331 79.3268L118.212 80.396L120.707 70.8524L128.547 70.1792L131.517 80ZM124.587 56.9924L127.993 68.318L121.261 68.714L124.587 56.9924ZM145.199 68.12L144.724 80H147.853V52.874H138.23L135.814 56.1608V65.3876L137.834 68.12H140.249L135.656 79.406L139.022 80.396L143.457 68.12H145.199ZM145.199 65.546H140.249L138.745 63.8828V57.3884L140.408 55.2896L145.199 55.2896V65.546ZM15.9186 102.774L8.55298 92.7552L7.16698 93.3492L5.50378 120L8.59258 120.356L9.30538 99.6852L15.5622 107.843L22.9674 99.804L23.6802 120.04L27.1254 119.842L26.373 94.1016L24.3138 92.7552L15.9186 102.774ZM46.0331 120L48.7259 119.446L40.8059 92.5176H37.1627L28.8467 119.327L32.7275 120.396L35.2223 110.852L43.0631 110.179L46.0331 120ZM39.1031 96.9924L42.5087 108.318L35.7767 108.714L39.1031 96.9924ZM55.152 108.872L65.448 108.674L68.9724 105.704L69.012 97.0716L65.25 92.9136H51.6672V120H55.0332L55.152 108.872ZM55.152 106.496L55.2708 95.7252L63.0324 96.2004L65.9232 98.3388L65.1708 104.239L63.3096 106.417L55.152 106.496ZM75.3065 95.7252L82.8305 95.844L83.1077 92.9136H71.5445V120.158H75.9005L75.3065 95.7252ZM97.1187 120L99.8115 119.446L91.8915 92.5176H88.2483L79.9323 119.327L83.8131 120.396L86.3079 110.852L94.1487 110.179L97.1187 120ZM90.1887 96.9924L93.5943 108.318L86.8623 108.714L90.1887 96.9924ZM106.238 108.872L116.534 108.674L120.058 105.704L120.097 97.0716L116.336 92.9136H102.753V120H106.119L106.238 108.872ZM106.238 106.496L106.356 95.7252L114.118 96.2004L117.009 98.3388L116.256 104.239L114.395 106.417L106.238 106.496ZM140.094 120.079L139.104 92.9928L135.738 92.7948L126.511 111.842L127.026 92.874H122.67L122.63 119.723L125.244 119.842L135.342 99.0516L135.896 120.079H140.094ZM157.637 92.5572L141.916 93.468L142.074 95.6856H148.133L147.618 119.881L151.024 119.406L152.212 95.6856L157.479 95.7648L157.637 92.5572ZM172.606 120L175.299 119.446L167.379 92.5176H163.736L155.42 119.327L159.301 120.396L161.795 110.852L169.636 110.179L172.606 120ZM165.676 96.9924L169.082 108.318L162.35 108.714L165.676 96.9924Z" fill="white"/>
</g>
<defs>
<clipPath id="clip0_486_4050">
<rect width="180" height="180" fill="white"/>
</clipPath>
</defs>
</svg>
