<svg width="180" height="180" viewBox="0 0 180 180" fill="none" xmlns="http://www.w3.org/2000/svg">
<g clip-path="url(#clip0_486_4047)">
<rect width="180" height="180" fill="#C7A44B"/>
<ellipse cx="90" cy="162.5" rx="105" ry="78.5" fill="#278D1B"/>
<path d="M24.0011 38C20.8013 63.123 33.3338 93.6108 40 105.714L10.6685 117C0.00247097 85.2037 15.1127 51.0849 24.0011 38Z" fill="#278D1B"/>
<path d="M156.999 38C160.199 63.123 147.666 93.6108 141 105.714L170.331 117C180.998 85.2037 165.887 51.0849 156.999 38Z" fill="#278D1B"/>
<path d="M27.2105 80.198C27.6461 80.2376 28.0421 80.2376 28.4777 80.2376C34.4969 80.2376 39.6845 77.7824 39.6845 71.684C39.6845 69.0704 38.2589 66.6152 35.5265 65.4668C37.8629 63.6848 39.0905 61.1504 39.0905 58.7348C39.0905 55.448 36.7937 52.5176 31.8833 52.5176C30.6557 52.5176 29.4281 52.7552 28.2797 53.1512L28.8737 55.5272C29.5865 55.3292 30.4577 55.1708 31.3685 55.1708C34.5761 55.1708 35.9225 56.9528 35.9225 59.012C35.9225 61.1504 34.4969 63.566 32.2001 64.7144C31.1705 64.7144 30.6161 64.754 30.0617 64.8332V67.2488C30.3389 67.2092 30.6161 67.2092 30.8933 67.2092C34.4177 67.2092 36.0413 69.11 36.0413 71.1296C36.0413 75.9608 30.9725 76.1984 27.6461 76.0004L27.2105 80.198ZM46.087 56.8736L54.1654 56.438V52.9136H43.8298L43.2754 80H54.1654V76.634L45.5326 75.8816L45.7702 67.2884L52.225 68.1596V65.2688H45.8494L46.087 56.8736ZM66.7647 59.4872L72.1107 79.9604H75.9519L67.6359 52.8344H64.7451L56.0331 79.9604H59.3595L66.7647 59.4872ZM81.6651 56.8736L89.7435 56.438V52.9136H79.4079L78.8535 80H89.7435V76.634L81.1107 75.8816L81.3483 67.2884L87.8031 68.1596V65.2688H81.4275L81.6651 56.8736ZM108.59 79.9604L108.629 52.7156H104.352L104.234 65.6252L95.3237 65.4272L95.4029 52.7156H92.1953L92.6705 79.9604H95.2049L95.3237 67.4864H104.234L104.075 79.9604H108.59ZM113.387 53.1116L114.575 77.8616L117.149 80H123.802L125.584 76.2776L124.832 66.932L122.06 63.8432L117.862 63.5264L117.387 52.8344L113.387 53.1116ZM133.069 52.8344H128.554L128.871 80H132.079L133.069 52.8344ZM121.189 66.2192L122.099 67.6844L122.812 76.0796L121.981 77.9804L118.496 77.5844L117.981 65.942L121.189 66.2192ZM148.362 46.0628C147.213 46.9736 146.184 47.3696 145.194 47.3696C143.768 47.3696 142.422 46.6172 140.877 45.548L139.056 48.0032C140.6 49.3892 142.382 50.0228 144.085 50.0228C146.104 50.0228 148.005 49.1516 149.312 47.726L148.362 46.0628ZM150.619 80L149.629 52.6364H147.055L142.065 72.3176L142.184 52.7552L137.828 52.676L139.808 80H142.422L147.451 59.6852L148.56 80H150.619ZM37.2546 123.762L36.621 119.96H52.9362V123.604L55.233 123.881L55.7478 118.733L55.0746 117.624L51.7482 117.703L48.4614 93.5076L47.2734 92.4384H43.8678L37.5714 117.901L34.641 117.941L34.047 118.812L34.7202 123.96L37.2546 123.762ZM45.0558 96.1212L47.7486 117.743L40.3434 117.862L45.0558 96.1212ZM63.8748 92.7156H59.5188L57.816 120H66.6072L72.6264 116.04L72.9036 108.08L69.696 104.556L63.0432 106.14L63.8748 92.7156ZM68.0328 107.803L69.696 109.546L69.4584 114.496L64.5876 117.624L62.4096 117.188L62.9244 108.991L68.0328 107.803ZM83.9625 108.12L83.4873 120H86.6157V92.874H76.9929L74.5773 96.1608V105.388L76.5969 108.12H79.0125L74.4189 119.406L77.7849 120.396L82.2201 108.12H83.9625ZM83.9625 105.546H79.0125L77.5077 103.883V97.3884L79.1709 95.2896H83.9625V105.546ZM92.2148 92.8344L91.3832 120H101.6L104.53 117.703L104.808 106.734L101.204 104.358L104.293 97.0716L101.838 92.9532L92.2148 92.8344ZM101.996 108.437L101.798 115.802L99.4616 117.505L95.66 117.149L95.6996 106.892L99.3428 106.298L101.996 108.437ZM97.9172 104.239L95.6996 104.675L95.7392 95.3292L99.3032 95.2896L100.768 97.4676L97.9172 104.239ZM114.837 120H119.589L123.232 115.129L123.668 97.7052L118.836 92.676H111.669L108.263 97.5468L107.867 114.971L114.837 120ZM117.094 95.2104L119.628 98.7348L118.836 114.773L116.302 117.268L111.114 113.545L111.629 97.5072L113.372 95.0916L117.094 95.2104ZM136.103 99.4872L141.449 119.96H145.291L136.975 92.8344H134.084L125.372 119.96H128.698L136.103 99.4872Z" fill="white"/>
<path d="M50 172V182L93.5 185L90.5 168L67.5 162L50 172Z" fill="#1C5416"/>
<path d="M96.5 176.5V182H120.5L119 174.5H111.5L96.5 176.5Z" fill="#1C5416"/>
</g>
<defs>
<clipPath id="clip0_486_4047">
<rect width="180" height="180" fill="white"/>
</clipPath>
</defs>
</svg>
