<svg width="180" height="180" viewBox="0 0 180 180" fill="none" xmlns="http://www.w3.org/2000/svg">
<g clip-path="url(#clip0_480_2093)">
<rect width="180" height="180" fill="#713FFF"/>
<path d="M52.2467 122.511L62.9851 159.708L64.2273 169.196L96.9221 164.916L129.617 160.636L128.375 151.148L129.176 112.44L132.277 106.243L133.262 54L83.2582 60.5464L33.2544 67.0928L47.655 117.322L52.2467 122.511Z" fill="#511AC0"/>
<path d="M126.523 5.72864L81.0523 20.1081C85.0194 25.1281 96.0851 33.8775 108.611 28.7157C121.137 23.5539 125.771 11.2403 126.523 5.72864Z" fill="#FFB26A"/>
<path d="M107.904 56.4846L47.4444 12.7915C44.8397 22.4547 44.1711 44.5101 62.3341 55.4271C80.4972 66.344 100.282 60.6808 107.904 56.4846Z" fill="#FFB26A"/>
<path d="M65.0298 78.6724L71.687 78.0672L71.4378 74.7564L62.8582 74.792L62.4666 99H64.8162L65.0298 78.6724ZM76.9678 88.9964L86.2238 88.8184L89.3922 86.1484L89.4278 78.3876L86.0458 74.6496H73.835V99H76.861L76.9678 88.9964ZM76.9678 86.8604L77.0746 77.1772L84.0522 77.6044L86.651 79.5268L85.9746 84.8312L84.3014 86.7892L76.9678 86.8604ZM98.3614 99H102.633L105.909 94.6212L106.3 78.9572L101.957 74.436H95.5134L92.4518 78.8148L92.0958 94.4788L98.3614 99ZM100.391 76.7144L102.669 79.8828L101.957 94.3008L99.6786 96.5436L95.015 93.1972L95.4778 78.7792L97.0442 76.6076L100.391 76.7144ZM112.852 77.1772L119.616 77.284L119.865 74.6496H109.47V99.1424H113.386L112.852 77.1772Z" fill="white"/>
</g>
<defs>
<clipPath id="clip0_480_2093">
<rect width="180" height="180" fill="white"/>
</clipPath>
</defs>
</svg>
