<svg width="180" height="180" viewBox="0 0 180 180" fill="none" xmlns="http://www.w3.org/2000/svg">
<g clip-path="url(#clip0_480_2310)">
<rect width="180" height="180" fill="#FF843F"/>
<path d="M50.1884 103.366C57.2429 96.8487 61.698 91.9446 65.1927 87.7404C70.4115 88.6968 87.6394 95.201 82.5002 97.5003C76.0763 100.374 72.058 97.1795 61.4998 109.5C50.9417 121.82 41.3702 111.513 50.1884 103.366Z" fill="#C62E2E"/>
<path d="M84.4158 44.6083C80.1243 38.4818 74.9955 27.0941 79.6443 18.4502C84.8644 5.92924 90.4996 14.5001 90.5 17.5003C90.5003 20.5004 93.4746 31.3397 95.4633 35.5002C97.4521 39.6607 100.727 46.3787 112.947 49.1871C122.723 51.4338 178.055 31.121 188 31.5003L202 76.5003C176.883 69.6868 105.487 83.114 95.4633 88.1455L88.001 66.0913C88.5941 61.483 88.7073 50.7348 84.4158 44.6083Z" fill="#C62E2E"/>
<path d="M56.3408 65.1059L52.1888 48.7429C40.0473 47.4696 30.8585 54.1554 34.6223 64.0857C37.6334 72.0299 50.3559 68.0759 56.3408 65.1059Z" fill="#C62E2E"/>
<path d="M62.1758 74.9805L53.0024 62.9097C42.2448 66.3245 36.7421 75.2669 43.3664 82.134C48.6658 87.6278 58.1141 79.654 62.1758 74.9805Z" fill="#C62E2E"/>
<path d="M65.7807 89.0665L57.5095 78.1827C47.8098 81.2617 42.8482 89.3247 48.8211 95.5165C53.5994 100.47 62.1185 93.2804 65.7807 89.0665Z" fill="#C62E2E"/>
<path d="M94.8037 114.425C94.8037 114.425 98.3609 99.9321 99.9176 88.4823C102.795 67.3695 72.9984 21.4475 72.9984 21.4475L45.6822 31.6361C45.6822 31.6361 53.2367 85.8541 69.2373 99.9257C77.912 107.559 90.0911 116.182 90.0911 116.182L106.99 160.214L90.0202 170.759L91.0502 173.521L131.628 158.386L130.598 155.624L110.868 158.768L94.8037 114.425Z" fill="#7452D2"/>
<path d="M44.0971 69.9912L51.4153 83.2689C62.5554 81.4567 69.3015 73.4107 63.7475 65.6523C59.3044 59.4456 48.7959 65.9588 44.0971 69.9912Z" fill="#C62E2E"/>
<path d="M52.8527 82.6129L58.4996 92.8583C67.0957 91.4599 72.3012 85.2514 68.0156 79.2648C64.5871 74.4755 56.4785 79.5013 52.8527 82.6129Z" fill="#C62E2E"/>
<path d="M21.5977 88.498C26.2969 87.7504 27.5785 83.9412 27.5785 80.7728C27.5785 77.7112 26.3681 74.8276 21.4553 74.8276H19.6397L18.7497 76.038L18.7141 99L21.8469 98.6796L21.5977 88.498ZM25.2289 81.2C25.2289 83.7988 23.9473 85.7568 21.5621 86.4332L21.4553 77.0348C24.0185 77.284 25.2289 78.8148 25.2289 81.2ZM30.6214 97.8964L33.4338 99L40.2334 74.614H37.1718L34.1458 85.3652L30.8706 74.436L28.4854 75.2192L33.0422 89.3168L30.6214 97.8964ZM47.3693 85.294L54.3469 99.1068L57.9069 97.8608L48.8645 83.8344L56.4117 76.6432L54.4537 74.6496L47.1201 83.3004H46.3725L46.4437 74.6852L42.8837 74.5072L42.5633 99.1424L46.0877 98.9644L46.1945 85.4364L47.3693 85.294ZM74.5238 99L76.9446 98.5016L69.8246 74.2936H66.5494L59.0734 98.3948L62.5622 99.356L64.805 90.7764L71.8538 90.1712L74.5238 99ZM68.2938 78.3164L71.3554 88.498L65.3034 88.854L68.2938 78.3164ZM87.55 98.8932C88.3332 98.9644 90.1844 99 90.8964 99C96.8772 99 99.7252 96.2232 99.7252 92.0224C99.7252 88.142 97.0908 85.1872 92 85.0804L92.3204 76.7144L99.2268 76.5364L99.6184 74.4716L88.796 74.6852L87.55 98.8932ZM92.7476 96.33C92.3916 96.33 92 96.33 91.5728 96.2944L92 86.9316C95.3108 87.074 97.1976 88.9608 97.1976 91.9156C97.1976 94.1584 95.8092 96.33 92.7476 96.33ZM105.027 78.2096L112.289 77.818V74.6496H102.998L102.499 99H112.289V95.974L104.528 95.2976L104.742 87.5724L110.545 88.3556V85.7568H104.813L105.027 78.2096ZM129.232 98.9644L129.267 74.4716H125.423L125.316 86.0772L117.306 85.8992L117.377 74.4716H114.493L114.921 98.9644H117.199L117.306 87.7504H125.316L125.173 98.9644H129.232ZM138.992 74.4716H135.076L133.545 99H141.448L146.859 95.44L147.109 88.2844L144.225 85.116L138.244 86.54L138.992 74.4716ZM142.73 88.0352L144.225 89.6016L144.011 94.0516L139.633 96.864L137.675 96.4724L138.137 89.1032L142.73 88.0352ZM154.63 99H158.902L162.177 94.6212L162.568 78.9572L158.225 74.436H151.782L148.72 78.8148L148.364 94.4788L154.63 99ZM156.659 76.7144L158.937 79.8828L158.225 94.3008L155.947 96.5436L151.283 93.1972L151.746 78.7792L153.312 76.6076L156.659 76.7144Z" fill="white"/>
</g>
<defs>
<clipPath id="clip0_480_2310">
<rect width="180" height="180" fill="white"/>
</clipPath>
</defs>
</svg>
