<svg width="180" height="180" viewBox="0 0 180 180" fill="none" xmlns="http://www.w3.org/2000/svg">
<g clip-path="url(#clip0_480_2067)">
<rect width="180" height="180" fill="#CC4163"/>
<path d="M93.0984 168.222L58 76.3773L149.214 54.2736L151.902 78.5182L152.044 78.4836C159.621 73.0267 165.441 75.1622 168.281 76.9079C175.423 81.4425 179.064 93.2862 176.841 105.123C174.854 115.626 166.956 124.993 157.462 128.21L160.11 152.043L140.026 175.15L145.418 197.403L174.435 196.005L175.686 201.171L101.796 219.077L100.544 213.911L126.981 201.87L121.589 179.618L93.0984 168.222ZM169.629 103.731C171.237 95.1528 168.87 85.8851 164.341 83.0311C163.538 82.5198 161.059 80.957 156.391 84.3268C155.18 85.1911 154.033 86.13 152.918 87.0764L156.64 120.641C159.951 118.997 162.839 116.618 165.082 113.688C167.324 110.758 168.861 107.356 169.572 103.745L169.629 103.731Z" fill="#8E1D39"/>
<path d="M33.0317 139.215C28.0793 137.58 6.2091 103.195 -4.10696 86.2062C-7.17488 81.206 48.7116 31.5799 77.0383 7.39186C91.9563 22.1843 121.577 52.9582 120.718 57.7144C119.858 62.4705 61.9023 114.03 33.0317 139.215Z" fill="#FF843F"/>
<path d="M6.98861 60.6724L13.6458 60.0672L13.3966 56.7564L4.81701 56.792L4.42541 81H6.77501L6.98861 60.6724ZM20.9558 81H25.2278L28.503 76.6212L28.8946 60.9572L24.5514 56.436H18.1078L15.0462 60.8148L14.6902 76.4788L20.9558 81ZM22.985 58.7144L25.2634 61.8828L24.5514 76.3008L22.273 78.5436L17.6094 75.1972L18.0722 60.7792L19.6386 58.6076L22.985 58.7144ZM35.1969 70.9964L44.4529 70.8184L47.6213 68.1484L47.6569 60.3876L44.2749 56.6496H32.0641V81H35.0901L35.1969 70.9964ZM35.1969 68.8604L35.3037 59.1772L42.2813 59.6044L44.8801 61.5268L44.2037 66.8312L42.5305 68.7892L35.1969 68.8604ZM57.5164 70.32L57.0892 81H59.9016V56.614H51.2508L49.0792 59.5688V67.8636L50.8948 70.32H53.0664L48.9368 80.466L51.9628 81.356L55.95 70.32H57.5164ZM57.5164 68.006H53.0664L51.7136 66.5108V60.6724L53.2088 58.7856H57.5164V68.006ZM74.8675 56.8988L71.6991 56.5784L71.4499 65.8344L66.3947 67.0448L65.0419 65.6564L66.3591 56.614L62.9415 56.4716L62.2651 66.938L65.9319 69.8572L71.3787 67.9704L71.0583 80.5372L74.1555 81.0712L74.8675 56.8988ZM94.8363 81.0712L93.9463 56.7208L90.9203 56.5428L82.6255 73.6664L83.0883 56.614H79.1723L79.1367 80.7508L81.4863 80.8576L90.5643 62.1676L91.0627 81.0712H94.8363ZM108.562 50.4908C107.529 51.3096 106.604 51.6656 105.714 51.6656C104.432 51.6656 103.222 50.9892 101.833 50.028L100.196 52.2352C101.584 53.4812 103.186 54.0508 104.717 54.0508C106.533 54.0508 108.241 53.2676 109.416 51.986L108.562 50.4908ZM110.591 81L109.701 56.4004H107.387L102.901 74.0936L103.008 56.5072L99.0922 56.436L100.872 81H103.222L107.743 62.7372L108.74 81H110.591ZM125.97 70.9964L135.226 70.8184L138.394 68.1484L138.43 60.3876L135.048 56.6496H122.837V81H125.863L125.97 70.9964ZM125.97 68.8604L126.077 59.1772L133.054 59.6044L135.653 61.5268L134.977 66.8312L133.304 68.7892L125.97 68.8604ZM147.364 81H151.636L154.911 76.6212L155.302 60.9572L150.959 56.436H144.516L141.454 60.8148L141.098 76.4788L147.364 81ZM149.393 58.7144L151.671 61.8828L150.959 76.3008L148.681 78.5436L144.017 75.1972L144.48 60.7792L146.046 58.6076L149.393 58.7144ZM166.767 65.514L160.145 56.5072L158.899 57.0412L157.404 81L160.181 81.3204L160.821 62.7372L166.446 70.0708L173.103 62.844L173.744 81.0356L176.841 80.8576L176.165 57.7176L174.314 56.5072L166.767 65.514ZM28.2248 117H35.2736L37.374 112.479L34.6684 111.126L33.28 114.152L29.2572 114.01L26.7296 110.841L27.4416 97.1708L29.2572 94.8212L32.7104 95.4976L34.2056 98.7728L36.7332 97.4556L34.4904 92.4716H27.4772L23.8104 96.8504L23.3476 112.479L28.2248 117ZM56.3163 101.514L49.6947 92.5072L48.4487 93.0412L46.9535 117L49.7303 117.32L50.3711 98.7372L55.9959 106.071L62.6531 98.844L63.2939 117.036L66.3911 116.858L65.7147 93.7176L63.8635 92.5072L56.3163 101.514ZM83.389 117L85.8098 116.502L78.6898 92.2936H75.4146L67.9386 116.395L71.4274 117.356L73.6702 108.776L80.719 108.171L83.389 117ZM77.159 96.3164L80.2206 106.498L74.1686 106.854L77.159 96.3164ZM92.2631 117H99.3119L101.412 112.479L98.7067 111.126L97.3183 114.152L93.2955 114.01L90.7679 110.841L91.4799 97.1708L93.2955 94.8212L96.7487 95.4976L98.2439 98.7728L100.772 97.4556L98.5287 92.4716H91.5155L87.8487 96.8504L87.3859 112.479L92.2631 117ZM112.108 98.5592L116.914 116.964H120.368L112.892 92.5784H110.293L102.461 116.964H105.451L112.108 98.5592ZM127.373 117H131.645L134.921 112.621L135.312 96.9572L130.969 92.436H124.525L121.464 96.8148L121.108 112.479L127.373 117ZM129.403 94.7144L131.681 97.8828L130.969 112.301L128.691 114.544L124.027 111.197L124.49 96.7792L126.056 94.6076L129.403 94.7144ZM146.776 101.514L140.155 92.5072L138.909 93.0412L137.414 117L140.19 117.32L140.831 98.7372L146.456 106.071L153.113 98.844L153.754 117.036L156.851 116.858L156.175 93.7176L154.324 92.5072L146.776 101.514Z" fill="white"/>
</g>
<defs>
<clipPath id="clip0_480_2067">
<rect width="180" height="180" fill="white"/>
</clipPath>
</defs>
</svg>
