<svg width="180" height="180" viewBox="0 0 180 180" fill="none" xmlns="http://www.w3.org/2000/svg">
<g clip-path="url(#clip0_486_3899)">
<rect width="180" height="180" fill="#477F83"/>
<path d="M131.633 115.569C114.219 142.783 80.4133 144.53 51.8032 126.224C23.1931 107.917 10.6129 76.4907 28.0262 49.2762C45.4394 22.0617 82.7487 14.8401 111.359 33.1464C139.969 51.4526 149.046 88.3544 131.633 115.569Z" fill="#3D3535"/>
<path d="M124.376 106.907C109.775 129.727 81.428 131.191 57.4378 115.841C33.4477 100.491 22.899 74.139 37.5004 51.3191C52.1017 28.4992 83.3863 22.4438 107.377 37.7939C131.367 53.1441 138.978 84.087 124.376 106.907Z" fill="#544B4B"/>
<path d="M144.5 162.5C141.7 151.7 125.667 134.667 118 127.5C118.833 120.5 120.8 108.8 122 118C123.5 129.5 154 150 158 156C162 162 148 176 144.5 162.5Z" fill="#3D3535"/>
<path d="M39.564 60.6724L46.2212 60.0672L45.972 56.7564L37.3924 56.792L37.0008 81H39.3504L39.564 60.6724ZM53.5312 81H57.8032L61.0784 76.6212L61.47 60.9572L57.1268 56.436H50.6832L47.6216 60.8148L47.2656 76.4788L53.5312 81ZM55.5604 58.7144L57.8388 61.8828L57.1268 76.3008L54.8484 78.5436L50.1848 75.1972L50.6476 60.7792L52.214 58.6076L55.5604 58.7144ZM67.7723 70.9964L77.0283 70.8184L80.1967 68.1484L80.2323 60.3876L76.8503 56.6496H64.6395V81H67.6655L67.7723 70.9964ZM67.7723 68.8604L67.8791 59.1772L74.8567 59.6044L77.4555 61.5268L76.7791 66.8312L75.1059 68.7892L67.7723 68.8604ZM90.0918 70.32L89.6646 81H92.477V56.614H83.8262L81.6546 59.5688V67.8636L83.4702 70.32H85.6418L81.5122 80.466L84.5382 81.356L88.5254 70.32H90.0918ZM90.0918 68.006H85.6418L84.289 66.5108V60.6724L85.7842 58.7856H90.0918V68.006ZM107.443 56.8988L104.275 56.5784L104.025 65.8344L98.9701 67.0448L97.6173 65.6564L98.9345 56.614L95.5169 56.4716L94.8405 66.938L98.5073 69.8572L103.954 67.9704L103.634 80.5372L106.731 81.0712L107.443 56.8988ZM127.412 81.0712L126.522 56.7208L123.496 56.5428L115.201 73.6664L115.664 56.614H111.748L111.712 80.7508L114.062 80.8576L123.14 62.1676L123.638 81.0712H127.412ZM141.137 50.4908C140.105 51.3096 139.179 51.6656 138.289 51.6656C137.008 51.6656 135.797 50.9892 134.409 50.028L132.771 52.2352C134.16 53.4812 135.762 54.0508 137.292 54.0508C139.108 54.0508 140.817 53.2676 141.992 51.986L141.137 50.4908ZM143.166 81L142.276 56.4004H139.962L135.477 74.0936L135.584 56.5072L131.668 56.436L133.448 81H135.797L140.318 62.7372L141.315 81H143.166ZM60.0179 92.5784L46.1339 93.3616L46.2763 95.284H51.5095L51.0823 117L54.2863 116.608L55.3543 95.284L59.9111 95.3552L60.0179 92.5784ZM67.4374 117H71.7094L74.9846 112.621L75.3762 96.9572L71.033 92.436H64.5894L61.5278 96.8148L61.1718 112.479L67.4374 117ZM69.4666 94.7144L71.745 97.8828L71.033 112.301L68.7546 114.544L64.091 111.197L64.5538 96.7792L66.1202 94.6076L69.4666 94.7144ZM79.0085 120.382L78.4389 116.964H93.1061V120.24L95.1709 120.489L95.6337 115.861L95.0285 114.864L92.0381 114.935L89.0833 93.1836L88.0153 92.2224H84.9537L79.2933 115.113L76.6589 115.149L76.1249 115.932L76.7301 120.56L79.0085 120.382ZM86.0217 95.5332L88.4425 114.971L81.7853 115.078L86.0217 95.5332ZM97.9558 120.382L97.3862 116.964H112.053V120.24L114.118 120.489L114.581 115.861L113.976 114.864L110.985 114.935L108.031 93.1836L106.963 92.2224H103.901L98.2406 115.113L95.6062 115.149L95.0722 115.932L95.6774 120.56L97.9558 120.382ZM104.969 95.5332L107.39 114.971L100.733 115.078L104.969 95.5332ZM132.14 117.071L131.25 92.7208L128.224 92.5428L119.929 109.666L120.392 92.614H116.476L116.44 116.751L118.79 116.858L127.868 98.1676L128.366 117.071H132.14Z" fill="white"/>
</g>
<defs>
<clipPath id="clip0_486_3899">
<rect width="180" height="180" fill="white"/>
</clipPath>
</defs>
</svg>
