<svg width="180" height="180" viewBox="0 0 180 180" fill="none" xmlns="http://www.w3.org/2000/svg">
<g clip-path="url(#clip0_480_2303)">
<rect width="180" height="180" fill="#713FFF"/>
<path d="M21.5 71L13 39L152 26.5L156.5 55.5L106.5 71L96 161.5L77 71H21.5Z" fill="#FFBE3F"/>
<path d="M62.4732 80.5728L62.7224 56.5428H59.0912L48.7672 76.2652L48.6604 56.6496L45.136 57.0768L45.7768 80.9644H48.6604L59.4828 60.0316L59.2692 80.9644L62.4732 80.5728ZM75.0135 62.5592L79.8195 80.9644H83.2727L75.7967 56.5784H73.1979L65.3659 80.9644H68.3563L75.0135 62.5592ZM90.2784 81H94.5504L97.8256 76.6212L98.2172 60.9572L93.874 56.436H87.4304L84.3688 60.8148L84.0128 76.4788L90.2784 81ZM92.3076 58.7144L94.586 61.8828L93.874 76.3008L91.5956 78.5436L86.932 75.1972L87.3948 60.7792L88.9612 58.6076L92.3076 58.7144ZM116.125 80.9644L116.161 56.4716H112.316L112.209 68.0772L104.199 67.8992L104.27 56.4716H101.387L101.814 80.9644H104.092L104.199 69.7504H112.209L112.067 80.9644H116.125ZM134.251 81L136.672 80.5016L129.552 56.2936H126.277L118.801 80.3948L122.289 81.356L124.532 72.7764L131.581 72.1712L134.251 81ZM128.021 60.3164L131.083 70.498L125.031 70.854L128.021 60.3164ZM55.0877 117.285L58.0781 96.5656L63.3469 109.346H65.5897L71.5349 97.5268L73.4573 117.249L77.2309 116.964L74.6677 93.148L71.6773 92.7208L64.5217 106.747L58.7901 92.6496L56.1913 93.0056L51.4209 116.751L55.0877 117.285ZM94.2185 117L96.6393 116.502L89.5193 92.2936H86.2441L78.7681 116.395L82.2569 117.356L84.4997 108.776L91.5485 108.171L94.2185 117ZM87.9885 96.3164L91.0501 106.498L84.9981 106.854L87.9885 96.3164ZM103.093 117H110.141L112.242 112.479L109.536 111.126L108.148 114.152L104.125 114.01L101.597 110.841L102.309 97.1708L104.125 94.8212L107.578 95.4976L109.073 98.7728L111.601 97.4556L109.358 92.4716H102.345L98.6782 96.8504L98.2154 112.479L103.093 117ZM119.734 103.294L126.712 117.107L130.272 115.861L121.229 101.834L128.776 94.6432L126.818 92.6496L119.485 101.3H118.737L118.808 92.6852L115.248 92.5072L114.928 117.142L118.452 116.964L118.559 103.436L119.734 103.294Z" fill="white"/>
</g>
<defs>
<clipPath id="clip0_480_2303">
<rect width="180" height="180" fill="white"/>
</clipPath>
</defs>
</svg>
