<svg width="180" height="180" viewBox="0 0 180 180" fill="none" xmlns="http://www.w3.org/2000/svg">
<g clip-path="url(#clip0_486_4024)">
<rect width="180" height="180" fill="#D3951A"/>
<circle cx="72.0249" cy="45.0306" r="13" transform="rotate(-23.3999 72.0249 45.0306)" fill="#4E4141"/>
<path d="M54.0886 41.3512C55.6239 44.8992 53.9923 49.0201 50.4443 50.5555C46.8963 52.0908 42.7753 50.4593 41.24 46.9112C39.7046 43.3632 35.1805 25.0171 38.7285 23.4817C42.2765 21.9463 52.5532 37.8031 54.0886 41.3512Z" fill="#C01A6A"/>
<path d="M55.0649 76.3408L90.8574 60.8521L136.449 143.547L92.3967 162.61L55.0649 76.3408Z" fill="#D03030"/>
<path d="M43.0538 58.6572L72.4703 41.0244L82.3238 61.2767L50.2024 75.1768L43.0538 58.6572Z" fill="#602929"/>
<path d="M7.52648 60.198C7.96208 60.2376 8.35808 60.2376 8.79368 60.2376C14.8129 60.2376 20.0005 57.7824 20.0005 51.684C20.0005 49.0704 18.5749 46.6152 15.8425 45.4668C18.1789 43.6848 19.4065 41.1504 19.4065 38.7348C19.4065 35.448 17.1097 32.5176 12.1993 32.5176C10.9717 32.5176 9.74408 32.7552 8.59568 33.1512L9.18968 35.5272C9.90248 35.3292 10.7737 35.1708 11.6845 35.1708C14.8921 35.1708 16.2385 36.9528 16.2385 39.012C16.2385 41.1504 14.8129 43.566 12.5161 44.7144C11.4865 44.7144 10.9321 44.754 10.3777 44.8332V47.2488C10.6549 47.2092 10.9321 47.2092 11.2093 47.2092C14.7337 47.2092 16.3573 49.11 16.3573 51.1296C16.3573 55.9608 11.2885 56.1984 7.96208 56.0004L7.52648 60.198ZM38.9562 60L41.649 59.4456L33.729 32.5176H30.0858L21.7698 59.3268L25.6506 60.396L28.1454 50.8524L35.9862 50.1792L38.9562 60ZM32.0262 36.9924L35.4318 48.318L28.6998 48.714L32.0262 36.9924ZM59.4006 45.942L67.1622 60.1188L71.1222 58.7328L61.5786 43.962L69.459 35.1312L67.281 32.9136L59.1234 43.7244H58.2918L58.371 32.9532L54.0546 32.7552L53.8962 43.7244H53.817L45.6594 32.9136L43.125 35.7648L50.7678 44.8332L42.4122 59.604L46.1346 60.5544L53.5398 45.942L53.8566 45.9816L53.6982 60.1584L57.975 59.9604L58.0938 46.1004L59.4006 45.942ZM91.1737 60.0792L90.1837 32.9928L86.8177 32.7948L77.5909 51.8424L78.1057 32.874H73.7497L73.7101 59.7228L76.3237 59.8416L86.4217 39.0516L86.9761 60.0792H91.1737ZM99.6698 35.7252L107.194 35.844L107.471 32.9136H95.9078V60.1584H100.264L99.6698 35.7252ZM121.482 60L124.175 59.4456L116.255 32.5176H112.612L104.296 59.3268L108.176 60.396L110.671 50.8524L118.512 50.1792L121.482 60ZM114.552 36.9924L117.958 48.318L111.226 48.714L114.552 36.9924ZM136.986 32.5572L121.265 33.468L121.423 35.6856H127.482L126.967 59.8812L130.373 59.406L131.561 35.6856L136.828 35.7648L136.986 32.5572ZM142.303 36.8736L150.381 36.438V32.9136H140.045L139.491 60H150.381V56.634L141.748 55.8816L141.986 47.2884L148.441 48.1596V45.2688H142.065L142.303 36.8736ZM162.98 39.4872L168.326 59.9604H172.167L163.851 32.8344H160.961L152.249 59.9604H155.575L162.98 39.4872ZM58.074 72.7156H53.718L52.0152 100H60.8064L66.8256 96.04L67.1028 88.0804L63.8952 84.556L57.2424 86.14L58.074 72.7156ZM62.232 87.8032L63.8952 89.5456L63.6576 94.4956L58.7868 97.624L56.6088 97.1884L57.1236 88.9912L62.232 87.8032ZM86.1213 99.9604L86.1609 72.7156H81.8841L81.7653 85.6252L72.8553 85.4272L72.9345 72.7156H69.7269L70.2021 99.9604H72.7365L72.8553 87.4864H81.7653L81.6069 99.9604H86.1213ZM90.9191 73.1116L92.1071 97.8616L94.6811 100H101.334L103.116 96.2776L102.364 86.932L99.5915 83.8432L95.3939 83.5264L94.9187 72.8344L90.9191 73.1116ZM110.6 72.8344H106.086L106.403 100H109.61L110.6 72.8344ZM98.7203 86.2192L99.6311 87.6844L100.344 96.0796L99.5123 97.9804L96.0275 97.5844L95.5127 85.942L98.7203 86.2192ZM125.893 66.0628C124.745 66.9736 123.715 67.3696 122.725 67.3696C121.3 67.3696 119.953 66.6172 118.409 65.548L116.587 68.0032C118.132 69.3892 119.914 70.0228 121.617 70.0228C123.636 70.0228 125.537 69.1516 126.844 67.726L125.893 66.0628ZM128.151 100L127.161 72.6364H124.587L119.597 92.3176L119.716 72.7552L115.36 72.676L117.34 100H119.953L124.983 79.6852L126.091 100H128.151ZM43.1182 139.96L43.1578 112.716H38.881L38.7622 125.625L29.8522 125.427L29.9314 112.716H26.7238L27.199 139.96H29.7334L29.8522 127.486H38.7622L38.6038 139.96H43.1182ZM50.7276 116.874L58.806 116.438V112.914H48.4704L47.916 140H58.806V136.634L50.1732 135.882L50.4108 127.288L56.8656 128.16V125.269H50.49L50.7276 116.874ZM65.0198 115.725L72.5438 115.844L72.821 112.914H61.2578V140.158H65.6138L65.0198 115.725ZM78.6645 128.872L88.9605 128.674L92.4849 125.704L92.5245 117.072L88.7625 112.914H75.1797V140H78.5457L78.6645 128.872ZM78.6645 126.496L78.7833 115.725L86.5449 116.2L89.4357 118.339L88.6833 124.239L86.8221 126.417L78.6645 126.496ZM102.462 140H107.214L110.857 135.129L111.293 117.705L106.461 112.676H99.2939L95.8883 117.547L95.4923 134.971L102.462 140ZM104.719 115.21L107.253 118.735L106.461 134.773L103.927 137.268L98.7395 133.545L99.2543 117.507L100.997 115.092L104.719 115.21ZM131.213 139.96L131.252 112.716H126.976L126.857 125.625L117.947 125.427L118.026 112.716H114.818L115.294 139.96H117.828L117.947 127.486H126.857L126.698 139.96H131.213ZM153.474 140.079L152.484 112.993L149.118 112.795L139.891 131.842L140.406 112.874H136.05L136.011 139.723L138.624 139.842L148.722 119.052L149.277 140.079H153.474Z" fill="white"/>
</g>
<defs>
<clipPath id="clip0_486_4024">
<rect width="180" height="180" fill="white"/>
</clipPath>
</defs>
</svg>
