<svg width="180" height="180" viewBox="0 0 180 180" fill="none" xmlns="http://www.w3.org/2000/svg">
<g clip-path="url(#clip0_480_1983)">
<rect width="180" height="180" fill="#6B291A"/>
<path d="M82.4624 80.4672C74.1974 49.4304 100.044 28.5571 114 22C12.2098 37.2998 22.6497 119.081 40.5934 158.059C57.4497 166.256 92.7937 119.263 82.4624 80.4672Z" fill="#CC7E6D"/>
<path d="M98.5376 99.5328C106.803 130.57 80.9563 151.443 67 158C168.79 142.7 158.35 60.9189 140.407 21.9407C123.55 13.7444 88.2063 60.7367 98.5376 99.5328Z" fill="#CC7E6D"/>
<path d="M38.6227 79.5248L38.8999 52.7948H34.8607L23.3767 74.7332L23.2579 52.9136L19.3375 53.3888L20.0503 79.9604H23.2579L35.2963 56.6756L35.0587 79.9604L38.6227 79.5248ZM47.1469 68.8724L57.4429 68.6744L60.9673 65.7044L61.0069 57.0716L57.2449 52.9136H43.6621V80H47.0281L47.1469 68.8724ZM47.1469 66.4964L47.2657 55.7252L55.0273 56.2004L57.9181 58.3388L57.1657 64.2392L55.3045 66.4172L47.1469 66.4964ZM72.4494 59.4872L77.7954 79.9604H81.6366L73.3206 52.8344H70.4298L61.7178 79.9604H65.0442L72.4494 59.4872ZM100.29 80L102.983 79.4456L95.0626 52.5176H91.4194L83.1034 79.3268L86.9842 80.396L89.479 70.8524L97.3198 70.1792L100.29 80ZM93.3598 56.9924L96.7654 68.318L90.0334 68.714L93.3598 56.9924ZM122.318 79.9604L122.358 52.7156H118.081L117.962 65.6252L109.052 65.4272L109.131 52.7156H105.924L106.399 79.9604H108.933L109.052 67.4864H117.962L117.804 79.9604H122.318ZM127.631 83.762L126.997 79.9604H143.312V83.6036L145.609 83.8808L146.124 78.7328L145.451 77.624L142.124 77.7032L138.838 53.5076L137.65 52.4384L134.244 52.4384L127.948 77.9012L125.017 77.9408L124.423 78.812L125.096 83.96L127.631 83.762ZM135.432 56.1212L138.125 77.7428L130.72 77.8616L135.432 56.1212ZM152.429 80H160.27L162.607 74.9708L159.597 73.466L158.053 76.832L153.578 76.6736L150.766 73.1492L151.558 57.9428L153.578 55.3292L157.419 56.0816L159.082 59.7248L161.894 58.2596L159.399 52.7156H151.598L147.519 57.5864L147.004 74.9708L152.429 80ZM25.8243 104.754L33.5859 120.119L37.5459 118.733L27.4875 103.13L35.8827 95.1312L33.7047 92.9136L25.5471 102.536H24.7155L24.7947 92.9532L20.8347 92.7552L20.4783 120.158L24.3987 119.96L24.5175 104.912L25.8243 104.754ZM56.8911 120.079L55.9011 92.9928L52.5351 92.7948L43.3083 111.842L43.8231 92.874H39.4671L39.4275 119.723L42.0411 119.842L52.1391 99.0516L52.6935 120.079H56.8911ZM72.1588 86.0628C71.0104 86.9736 69.9808 87.3696 68.9908 87.3696C67.5652 87.3696 66.2188 86.6172 64.6744 85.548L62.8528 88.0032C64.3972 89.3892 66.1792 90.0228 67.882 90.0228C69.9016 90.0228 71.8024 89.1516 73.1092 87.726L72.1588 86.0628ZM74.416 120L73.426 92.6364H70.852L65.8624 112.318L65.9812 92.7552L61.6252 92.676L63.6052 120H66.2188L71.248 99.6852L72.3568 120H74.416ZM93.3841 104.754L101.146 120.119L105.106 118.733L95.0473 103.13L103.442 95.1312L101.264 92.9136L93.1069 102.536H92.2753L92.3545 92.9532L88.3945 92.7552L88.0381 120.158L91.9585 119.96L92.0773 104.912L93.3841 104.754ZM111.878 120H116.63L120.274 115.129L120.709 97.7052L115.878 92.676H108.71L105.305 97.5468L104.909 114.971L111.878 120ZM114.136 95.2104L116.67 98.7348L115.878 114.773L113.344 117.268L108.156 113.545L108.671 97.5072L110.413 95.0916L114.136 95.2104ZM136.986 114.614L144.787 113.189L147.995 103.289L143.758 96.042L137.303 94.5768L137.382 91.8444H133.858L133.779 94.656L125.898 95.0916L122.611 105.704L125.463 113.11L133.462 114.971L133.383 120H136.867L136.986 114.614ZM133.501 112.08L128.551 111.09L126.492 104.794L128.551 97.428L133.739 96.8736L133.501 112.08ZM143.837 103.645L142.055 110.813L137.026 112.436L137.263 97.4676L140.748 97.7844L143.837 103.645ZM153.923 96.8736L162.002 96.438V92.9136H151.666L151.112 120H162.002V116.634L153.369 115.882L153.607 107.288L160.061 108.16V105.269H153.686L153.923 96.8736Z" fill="white"/>
</g>
<defs>
<clipPath id="clip0_480_1983">
<rect width="180" height="180" fill="white"/>
</clipPath>
</defs>
</svg>
