<svg width="180" height="180" viewBox="0 0 180 180" fill="none" xmlns="http://www.w3.org/2000/svg">
<g clip-path="url(#clip0_486_4056)">
<rect width="180" height="180" fill="#1F3930"/>
<path d="M13 182.222C18.6489 176.811 29.2277 169.046 43.0068 162.843C37.4184 155.767 28.6346 144.183 29 142.722C29.4 141.122 35.5 114.723 46.5 109.723C59.5 106.223 82.9 112.822 90.5 117.222C91.2157 117.636 91.8069 118.231 92.2873 118.979C91.8143 107.825 94.5454 97.516 103.5 91.7219C129 75.2219 148.467 86.1954 155.5 91.7219C162.5 97.2227 165 121.133 165 126.723C165 131.77 147.317 157.025 142.472 163.469C150.125 166.806 154.136 170.1 155.5 172.222L167.5 185.722L13 182.222Z" fill="#26871B"/>
<path d="M81 144.223C81 154.716 72.0457 163.223 61 163.223C49.9543 163.223 45.5 154.716 45.5 144.223C45.5 133.729 49.9543 125.223 61 125.223C72.0457 125.223 81 133.729 81 144.223Z" fill="#ABDF93"/>
<path d="M63 144C63 148.418 59.4687 152 55.1127 152C50.7566 152 49 148.418 49 144C49 139.582 50.7566 136 55.1127 136C59.4687 136 63 139.582 63 144Z" fill="#26871B"/>
<path d="M145.5 134.223C145.5 148.03 139.359 159.223 125 159.223C110.641 159.223 99 148.03 99 134.223C99 120.416 110.641 109.223 125 109.223C139.359 109.223 145.5 120.416 145.5 134.223Z" fill="#ABDF93"/>
<path d="M117 136C117 140.418 113.469 144 109.113 144C104.757 144 103 140.418 103 136C103 131.582 104.757 128 109.113 128C113.469 128 117 131.582 117 136Z" fill="#26871B"/>
<path d="M38.6227 59.5248L38.8999 32.7948H34.8607L23.3767 54.7332L23.2579 32.9136L19.3375 33.3888L20.0503 59.9604H23.2579L35.2963 36.6756L35.0587 59.9604L38.6227 59.5248ZM47.1469 48.8724L57.4429 48.6744L60.9673 45.7044L61.0069 37.0716L57.2449 32.9136H43.6621V60H47.0281L47.1469 48.8724ZM47.1469 46.4964L47.2657 35.7252L55.0273 36.2004L57.9181 38.3388L57.1657 44.2392L55.3045 46.4172L47.1469 46.4964ZM72.4494 39.4872L77.7954 59.9604H81.6366L73.3206 32.8344H70.4298L61.7178 59.9604H65.0442L72.4494 39.4872ZM100.29 60L102.983 59.4456L95.0626 32.5176H91.4194L83.1034 59.3268L86.9842 60.396L89.479 50.8524L97.3198 50.1792L100.29 60ZM93.3598 36.9924L96.7654 48.318L90.0334 48.714L93.3598 36.9924ZM122.318 59.9604L122.358 32.7156H118.081L117.962 45.6252L109.052 45.4272L109.131 32.7156H105.924L106.399 59.9604H108.933L109.052 47.4864H117.962L117.804 59.9604H122.318ZM127.631 63.762L126.997 59.9604H143.312V63.6036L145.609 63.8808L146.124 58.7328L145.451 57.624L142.124 57.7032L138.838 33.5076L137.65 32.4384L134.244 32.4384L127.948 57.9012L125.017 57.9408L124.423 58.812L125.096 63.96L127.631 63.762ZM135.432 36.1212L138.125 57.7428L130.72 57.8616L135.432 36.1212ZM152.429 60H160.27L162.607 54.9708L159.597 53.466L158.053 56.832L153.578 56.6736L150.766 53.1492L151.558 37.9428L153.578 35.3292L157.419 36.0816L159.082 39.7248L161.894 38.2596L159.399 32.7156H151.598L147.519 37.5864L147.004 54.9708L152.429 60ZM69.4848 84.754L77.2464 100.119L81.2064 98.7328L71.148 83.1304L79.5432 75.1312L77.3652 72.9136L69.2076 82.5364H68.376L68.4552 72.9532L64.4952 72.7552L64.1388 100.158L68.0592 99.9604L68.178 84.9124L69.4848 84.754ZM99.6904 100L102.383 99.4456L94.4632 72.5176H90.82L82.504 99.3268L86.3848 100.396L88.8796 90.8524L96.7204 90.1792L99.6904 100ZM92.7604 76.9924L96.166 88.318L89.434 88.714L92.7604 76.9924ZM113.372 88.12L112.897 100H116.026V72.874H106.403L103.987 76.1608V85.3876L106.007 88.12H108.422L103.829 99.406L107.195 100.396L111.63 88.12H113.372ZM113.372 85.546H108.422L106.918 83.8828V77.3884L108.581 75.2896H113.372V85.546ZM33.3135 119.487L38.6595 139.96H42.5007L34.1847 112.834H31.2939L22.5819 139.96H25.9083L33.3135 119.487ZM53.8371 128.12L53.3619 140H56.4903V112.874H46.8675L44.4519 116.161V125.388L46.4715 128.12H48.8871L44.2935 139.406L47.6595 140.396L52.0947 128.12H53.8371ZM53.8371 125.546H48.8871L47.3823 123.883V117.388L49.0455 115.29H53.8371V125.546ZM65.0198 115.725L72.5438 115.844L72.821 112.914H61.2578V140.158H65.6138L65.0198 115.725ZM76.7847 138.772L79.9131 140L87.4767 112.874H84.0711L80.7051 124.833L77.0619 112.676L74.4087 113.547L79.4775 129.229L76.7847 138.772ZM91.3751 138.416L92.8007 140H114.581L113.63 112.795L109.393 113.389L110.938 137.109H103.928L103.453 125.744H100.523L101.315 137.03H94.5827L93.9095 113.032L90.0683 112.676L91.3751 138.416ZM124.689 124.754L132.451 140.119L136.411 138.733L126.352 123.13L134.747 115.131L132.569 112.914L124.412 122.536H123.58L123.659 112.953L119.699 112.755L119.343 140.158L123.263 139.96L123.382 124.912L124.689 124.754ZM154.894 140L157.587 139.446L149.667 112.518H146.024L137.708 139.327L141.589 140.396L144.084 130.852L151.924 130.179L154.894 140ZM147.964 116.992L151.37 128.318L144.638 128.714L147.964 116.992Z" fill="white"/>
</g>
<defs>
<clipPath id="clip0_486_4056">
<rect width="180" height="180" fill="white"/>
</clipPath>
</defs>
</svg>
