<svg width="180" height="180" viewBox="0 0 180 180" fill="none" xmlns="http://www.w3.org/2000/svg">
<g clip-path="url(#clip0_486_4052)">
<rect width="180" height="180" fill="#54B931"/>
<path d="M233.963 7.92948C215.292 7.23038 184.747 31.8828 163.409 57.676C167.83 32.2507 178.572 -43.7306 148.794 -42.9947C113.134 -42.1484 67.2066 -13.5589 66.4758 6.38394C65.8182 24.0823 87.4848 52.3775 111.38 73.5714C82.1504 68.8248 16.3832 61.2082 17.0044 89.1355C17.8447 125.047 46.2342 171.299 66.0374 172.071C84.7079 172.77 115.253 148.081 136.591 122.325C132.17 147.75 121.428 223.694 151.206 222.995C186.866 222.149 232.793 193.56 233.561 173.58C234.218 155.918 212.515 127.586 188.62 106.392C217.85 111.176 283.617 118.755 282.996 90.8282C282.046 54.9532 253.62 8.73897 233.963 7.92948Z" fill="#135F28"/>
<path d="M147.5 102C155.508 102 162 95.5081 162 87.5C162 79.4919 155.508 73 147.5 73C139.492 73 133 79.4919 133 87.5C133 95.5081 139.492 102 147.5 102Z" fill="#54B931"/>
<path d="M38.6227 59.5248L38.8999 32.7948H34.8607L23.3767 54.7332L23.2579 32.9136L19.3375 33.3888L20.0503 59.9604H23.2579L35.2963 36.6756L35.0587 59.9604L38.6227 59.5248ZM47.1469 48.8724L57.4429 48.6744L60.9673 45.7044L61.0069 37.0716L57.2449 32.9136H43.6621V60H47.0281L47.1469 48.8724ZM47.1469 46.4964L47.2657 35.7252L55.0273 36.2004L57.9181 38.3388L57.1657 44.2392L55.3045 46.4172L47.1469 46.4964ZM72.4494 39.4872L77.7954 59.9604H81.6366L73.3206 32.8344H70.4298L61.7178 59.9604H65.0442L72.4494 39.4872ZM100.29 60L102.983 59.4456L95.0626 32.5176H91.4194L83.1034 59.3268L86.9842 60.396L89.479 50.8524L97.3198 50.1792L100.29 60ZM93.3598 36.9924L96.7654 48.318L90.0334 48.714L93.3598 36.9924ZM122.318 59.9604L122.358 32.7156H118.081L117.962 45.6252L109.052 45.4272L109.131 32.7156H105.924L106.399 59.9604H108.933L109.052 47.4864H117.962L117.804 59.9604H122.318ZM127.631 63.762L126.997 59.9604H143.312V63.6036L145.609 63.8808L146.124 58.7328L145.451 57.624L142.124 57.7032L138.838 33.5076L137.65 32.4384L134.244 32.4384L127.948 57.9012L125.017 57.9408L124.423 58.812L125.096 63.96L127.631 63.762ZM135.432 36.1212L138.125 57.7428L130.72 57.8616L135.432 36.1212ZM152.429 60H160.27L162.607 54.9708L159.597 53.466L158.053 56.832L153.578 56.6736L150.766 53.1492L151.558 37.9428L153.578 35.3292L157.419 36.0816L159.082 39.7248L161.894 38.2596L159.399 32.7156H151.598L147.519 37.5864L147.004 54.9708L152.429 60ZM69.4848 84.754L77.2464 100.119L81.2064 98.7328L71.148 83.1304L79.5432 75.1312L77.3652 72.9136L69.2076 82.5364H68.376L68.4552 72.9532L64.4952 72.7552L64.1388 100.158L68.0592 99.9604L68.178 84.9124L69.4848 84.754ZM99.6904 100L102.383 99.4456L94.4632 72.5176H90.82L82.504 99.3268L86.3848 100.396L88.8796 90.8524L96.7204 90.1792L99.6904 100ZM92.7604 76.9924L96.166 88.318L89.434 88.714L92.7604 76.9924ZM113.372 88.12L112.897 100H116.026V72.874H106.403L103.987 76.1608V85.3876L106.007 88.12H108.422L103.829 99.406L107.195 100.396L111.63 88.12H113.372ZM113.372 85.546H108.422L106.918 83.8828V77.3884L108.581 75.2896H113.372V85.546ZM38.1088 119.487L43.4548 139.96H47.296L38.98 112.834H36.0892L27.3772 139.96H30.7036L38.1088 119.487ZM53.0092 116.874L61.0876 116.438V112.914H50.752L50.1976 140H61.0876V136.634L52.4548 135.882L52.6924 127.288L59.1472 128.16V125.269H52.7716L53.0092 116.874ZM67.3014 115.725L74.8254 115.844L75.1026 112.914H63.5394V140.158H67.8954L67.3014 115.725ZM80.2729 116.874L88.3513 116.438V112.914H78.0157L77.4613 140H88.3513V136.634L79.7185 135.882L79.9561 127.288L86.4109 128.16V125.269H80.0353L80.2729 116.874ZM107.197 139.96L107.237 112.716H102.96L102.841 125.625L93.9315 125.427L94.0107 112.716H90.8031L91.2783 139.96H93.8127L93.9315 127.486H102.841L102.683 139.96H107.197ZM112.51 143.762L111.876 139.96H128.192V143.604L130.488 143.881L131.003 138.733L130.33 137.624L127.004 137.703L123.717 113.508L122.529 112.438H119.123L112.827 137.901L109.896 137.941L109.302 138.812L109.976 143.96L112.51 143.762ZM120.311 116.121L123.004 137.743L115.599 137.862L120.311 116.121ZM150.099 140L152.792 139.446L144.872 112.518H141.229L132.913 139.327L136.794 140.396L139.288 130.852L147.129 130.179L150.099 140ZM143.169 116.992L146.575 128.318L139.843 128.714L143.169 116.992Z" fill="white"/>
</g>
<defs>
<clipPath id="clip0_486_4052">
<rect width="180" height="180" fill="white"/>
</clipPath>
</defs>
</svg>
