<svg width="180" height="180" viewBox="0 0 180 180" fill="none" xmlns="http://www.w3.org/2000/svg">
<g clip-path="url(#clip0_480_2376)">
<rect width="180" height="180" fill="#713FFF"/>
<path fill-rule="evenodd" clip-rule="evenodd" d="M89.7867 159.917C88.2271 156.464 88.3046 152.912 88.8735 150.636L91.784 151.364C91.3529 153.088 91.2804 155.936 92.5208 158.683C93.7312 161.363 96.2487 164.079 101.255 165.562C108.363 167.668 114.463 172.795 117.167 178.135C118.523 180.812 119.102 183.709 118.295 186.352C117.468 189.058 115.293 191.167 111.837 192.411L110.821 189.589C113.615 188.583 114.939 187.068 115.426 185.476C115.931 183.823 115.635 181.75 114.491 179.49C112.194 174.955 106.795 170.332 100.403 168.438C94.6088 166.722 91.3763 163.437 89.7867 159.917Z" fill="#FFBE3F"/>
<ellipse cx="90" cy="83" rx="47" ry="65" fill="#FFBE3F"/>
<path d="M71.8884 95.7604C68.186 95.7604 67.1536 90.812 67.1536 86.4688C67.1536 82.2324 68.6844 76.6432 72.1376 76.6432C75.1636 76.6432 77.0148 81.4136 77.0148 86.362C77.0148 91.2392 75.306 95.7604 71.8884 95.7604ZM71.924 99.2136C77.3708 99.2136 80.0052 92.8412 80.0052 86.5044C80.0052 80.31 77.4776 74.1512 72.4936 74.1512C66.6552 74.1512 64.8396 82.1612 64.8396 86.9316C64.8396 92.4496 66.406 99.2136 71.924 99.2136ZM97.9253 98.9644L97.9609 74.4716H94.1161L94.0093 86.0772L85.9993 85.8992L86.0705 74.4716H83.1869L83.6141 98.9644H85.8925L85.9993 87.7504H94.0093L93.8669 98.9644H97.9253ZM107.4 99H111.672L114.948 94.6212L115.339 78.9572L110.996 74.436H104.552L101.491 78.8148L101.135 94.4788L107.4 99ZM109.43 76.7144L111.708 79.8828L110.996 94.3008L108.718 96.5436L104.054 93.1972L104.517 78.7792L106.083 76.6076L109.43 76.7144Z" fill="white"/>
<path d="M80.5001 154C82.5 151.5 85.0001 147.833 85.5001 145H92.5003L101 154C93.0001 154.167 78.7332 156.209 80.5001 154Z" fill="#FFBE3F"/>
</g>
<defs>
<clipPath id="clip0_480_2376">
<rect width="180" height="180" fill="white"/>
</clipPath>
</defs>
</svg>
