<svg width="180" height="180" viewBox="0 0 180 180" fill="none" xmlns="http://www.w3.org/2000/svg">
<g clip-path="url(#clip0_486_4014)">
<rect width="180" height="180" fill="#6B291A"/>
<path d="M161.5 97.4997C115.9 79.8997 70.1667 103.166 53 117C45.1667 110.5 30.2 92.3998 33 71.9999C36.5 46.5001 87 27.4999 131.5 33.9999C167.1 39.1999 166.333 78.4998 161.5 97.4997Z" fill="#242320"/>
<path d="M49.8368 83.2472L49.322 80H66.1124V83.2472H68.2508L68.8052 77.9408L68.4092 77.3864L65.0828 77.4656L61.994 53.666L60.41 52.4384H56.8064L50.906 77.6636L47.1044 77.7032L46.6292 78.1784L47.4608 83.2472H49.8368ZM57.9152 56.1608L60.4496 77.5052L53.5592 77.624L57.9152 56.1608ZM85.6727 65.942L93.4343 80.1188L97.3943 78.7328L87.8507 63.962L95.7311 55.1312L93.5531 52.9136L85.3955 63.7244H84.5639L84.6431 52.9532L80.3267 52.7552L80.1683 63.7244H80.0891L71.9315 52.9136L69.3971 55.7648L77.0399 64.8332L68.6843 79.604L72.4067 80.5544L79.8119 65.942L80.1287 65.9816L79.9703 80.1584L84.2471 79.9604L84.3659 66.1004L85.6727 65.942ZM104.061 80H108.813L112.457 75.1292L112.892 57.7052L108.061 52.676H100.893L97.4877 57.5468L97.0917 74.9708L104.061 80ZM106.319 55.2104L108.853 58.7348L108.061 74.7728L105.527 77.2676L100.339 73.5452L100.854 57.5072L102.596 55.0916L106.319 55.2104ZM132.812 79.9604L132.852 52.7156H128.575L128.456 65.6252L119.546 65.4272L119.625 52.7156H116.418L116.893 79.9604H119.427L119.546 67.4864H128.456L128.298 79.9604H132.812ZM34.3823 92.676L30.5015 101.23V92.676H26.8187L26.6603 120.079H30.4223L30.4619 107.764L36.1247 120.079L39.5699 118.218L31.2539 104.635L36.3227 94.2204L34.3823 92.676ZM47.639 120H52.391L56.0342 115.129L56.4698 97.7052L51.6386 92.676H44.471L41.0654 97.5468L40.6694 114.971L47.639 120ZM49.8962 95.2104L52.4306 98.7348L51.6386 114.773L49.1042 117.268L43.9166 113.545L44.4314 97.5072L46.1738 95.0916L49.8962 95.2104ZM68.9055 99.4872L74.2515 119.96H78.0927L69.7767 92.8344H66.8859L58.1739 119.96H61.5003L68.9055 99.4872ZM89.9043 99.4872L95.2503 119.96H99.0915L90.7755 92.8344H87.8847L79.1727 119.96H82.4991L89.9043 99.4872ZM119.457 120.079L118.467 92.9928L115.101 92.7948L105.874 111.842L106.389 92.874H102.033L101.993 119.723L104.607 119.842L114.705 99.0516L115.259 120.079H119.457ZM140.585 119.96L140.625 92.7156H136.348L136.229 105.625L127.319 105.427L127.398 92.7156H124.191L124.666 119.96H127.2L127.319 107.486H136.229L136.071 119.96H140.585ZM143.047 119.485L154.531 119.802L156.669 110.971L155.996 108.16L151.917 105.625L154.768 103.012L155.837 95.1312L151.442 92.9136L144.037 94.8144L145.106 98.1804L149.937 95.5668L151.877 96.5172L151.838 102.022L149.62 104.833H145.977V107.249L149.303 107.328L152.947 110.536L151.521 117.307L143.561 116L143.047 119.485Z" fill="white"/>
<path d="M79.5 138.5L109 126L87 144L92.5 155.5L59.5 166L57 151.5H84L79.5 138.5Z" fill="#FFDFDF"/>
<path d="M62 165.5L57.5 151.5H52L54 167.5L62 165.5Z" fill="#FF0000"/>
<path d="M57.5 140C60.7 131.6 48.5 131.5 42 132.5C54 133.999 53 140 49 145C45.8 149 48.3333 152.333 50 153.5C48.5 148.5 53.5 150.5 57.5 140Z" fill="#F1E2E2"/>
</g>
<defs>
<clipPath id="clip0_486_4014">
<rect width="180" height="180" fill="white"/>
</clipPath>
</defs>
</svg>
