<svg width="180" height="180" viewBox="0 0 180 180" fill="none" xmlns="http://www.w3.org/2000/svg">
<g clip-path="url(#clip0_486_4051)">
<rect width="180" height="180" fill="#1F3930"/>
<path d="M33.3488 103.247L32.834 100H49.6244V103.247H51.7628L52.3172 97.9408L51.9212 97.3864L48.5948 97.4656L45.506 73.666L43.922 72.4384H40.3184L34.418 97.6636L30.6164 97.7032L30.1412 98.1784L30.9728 103.247H33.3488ZM41.4272 76.1608L43.9616 97.5052L37.0712 97.624L41.4272 76.1608ZM69.1846 85.942L76.9462 100.119L80.9062 98.7328L71.3626 83.962L79.243 75.1312L77.065 72.9136L68.9074 83.7244H68.0758L68.155 72.9532L63.8386 72.7552L63.6802 83.7244H63.601L55.4434 72.9136L52.909 75.7648L60.5518 84.8332L52.1962 99.604L55.9186 100.554L63.3238 85.942L63.6406 85.9816L63.4822 100.158L67.759 99.9604L67.8778 86.1004L69.1846 85.942ZM87.5732 100H92.3252L95.9684 95.1292L96.404 77.7052L91.5728 72.676H84.4052L80.9996 77.5468L80.6036 94.9708L87.5732 100ZM89.8304 75.2104L92.3648 78.7348L91.5728 94.7728L89.0384 97.2676L83.8508 93.5452L84.3656 77.5072L86.108 75.0916L89.8304 75.2104ZM105.276 84.754L113.037 100.119L116.997 98.7328L106.939 83.1304L115.334 75.1312L113.156 72.9136L104.998 82.5364H104.167L104.246 72.9532L100.286 72.7552L99.9297 100.158L103.85 99.9604L103.969 84.9124L105.276 84.754ZM121.69 76.8736L129.769 76.438V72.9136H119.433L118.879 100H129.769V96.634L121.136 95.8816L121.374 87.2884L127.828 88.1596V85.2688H121.453L121.69 76.8736ZM135.705 88.8724L146.001 88.6744L149.526 85.7044L149.565 77.0716L145.803 72.9136H132.221V100H135.587L135.705 88.8724ZM135.705 86.4964L135.824 75.7252L143.586 76.2004L146.477 78.3388L145.724 84.2392L143.863 86.4172L135.705 86.4964Z" fill="white"/>
<path d="M159.5 93C126.7 151.4 60.5 140.667 31.5 128C46.8333 138.167 84.5 156 112.5 146C140.5 136 155.5 106.5 159.5 93Z" fill="#FF0000"/>
<path d="M35.9999 122.5C33.8333 125 30.3999 132 33.9999 140C29.6666 136 23.9999 126.9 35.9999 122.5Z" fill="#FF0000"/>
<path d="M153.664 89.3145C156.679 90.6761 162.73 95.5923 162.815 104.365C165.073 98.9166 166.403 88.2793 153.664 89.3145Z" fill="#FF0000"/>
</g>
<defs>
<clipPath id="clip0_486_4051">
<rect width="180" height="180" fill="white"/>
</clipPath>
</defs>
</svg>
