<svg width="180" height="180" viewBox="0 0 180 180" fill="none" xmlns="http://www.w3.org/2000/svg">
<g clip-path="url(#clip0_486_4038)">
<rect width="180" height="180" fill="#242320"/>
<path d="M59.7035 77.1508L63.5051 99.9604H68.0195L63.1487 72.7156H58.5551L53.2487 99.6832L55.7831 100.436L59.7035 77.1508ZM86.2906 100L88.9834 99.4456L81.0634 72.5176H77.4202L69.1042 99.3268L72.985 100.396L75.4798 90.8524L83.3206 90.1792L86.2906 100ZM79.3606 76.9924L82.7662 88.318L76.0342 88.714L79.3606 76.9924ZM92.7562 72.8344L91.9246 100H102.141L105.072 97.7032L105.349 86.734L101.745 84.358L104.834 77.0716L102.379 72.9532L92.7562 72.8344ZM102.537 88.4368L102.339 95.8024L100.003 97.5052L96.2014 97.1488L96.241 86.8924L99.8842 86.2984L102.537 88.4368ZM98.4586 84.2392L96.241 84.6748L96.2806 75.3292L99.8446 75.2896L101.31 77.4676L98.4586 84.2392ZM124.228 100L126.92 99.4456L119 72.5176H115.357L107.041 99.3268L110.922 100.396L113.417 90.8524L121.258 90.1792L124.228 100ZM117.298 76.9924L120.703 88.318L113.971 88.714L117.298 76.9924Z" fill="white"/>
<path d="M47.5001 123.999C-2.49991 121.999 -12.9999 157.499 -11.9999 175.499L-9.5 177.5C-12 182.333 -17 193 -17 197C-17 201 120.667 198.667 189.5 197L214 184.5L202 9C189.833 18.1667 164.9 43.4 162.5 71C159.5 105.5 110 126.499 47.5001 123.999Z" fill="#FF0000"/>
<path d="M115.5 10.2099C165.5 12.2099 176 -23.2901 175 -41.2901L172.5 -43.291C175 -48.1243 180 -58.791 180 -62.791C180 -66.791 42.3334 -64.4577 -26.5 -62.791L-51 -50.291L-39 125.209C-26.8333 116.042 -1.89999 90.809 0.500005 63.209C3.50001 28.709 52.9999 7.70993 115.5 10.2099Z" fill="#FF0000"/>
<path d="M7.5 142.5C13.6667 137 31 126.9 51 130.5C76 135 19.5 156.5 7.5 142.5Z" fill="#242320"/>
<path d="M87 182.939C103.093 168.739 148.328 142.661 200.523 151.956C265.765 163.575 118.317 219.085 87 182.939Z" fill="#242320"/>
<path d="M50 143.124C52.4759 140.915 59.4351 136.858 67.465 138.304C77.5024 140.112 54.8179 148.747 50 143.124Z" fill="#242320"/>
</g>
<defs>
<clipPath id="clip0_486_4038">
<rect width="180" height="180" fill="white"/>
</clipPath>
</defs>
</svg>
