<svg width="180" height="180" viewBox="0 0 180 180" fill="none" xmlns="http://www.w3.org/2000/svg">
<g clip-path="url(#clip0_486_4003)">
<rect width="180" height="180" fill="#CC4163"/>
<path d="M48.0062 107.713C8.56803 90.7672 7.38123 26.3988 11.7176 -3.66718L137.016 -17.3335C162.806 -24.1667 218.357 -28.6766 234.242 7.94921C254.098 53.7314 206.854 107.713 183.575 107.713C160.296 107.713 134.277 120.013 137.016 135.046C139.755 150.079 126.061 156.912 120.583 135.046C115.106 113.18 97.3039 128.896 48.0062 107.713Z" fill="#EDB527"/>
<path d="M21.8711 60.4588L25.2887 80.9644H29.3471L24.9683 56.4716H20.8387L16.0683 80.7152L18.3467 81.3916L21.8711 60.4588ZM47.6594 81.0712L46.7694 56.7208L43.7434 56.5428L35.4486 73.6664L35.9114 56.614H31.9954L31.9598 80.7508L34.3094 80.8576L43.3874 62.1676L43.8858 81.0712H47.6594ZM60.2101 65.514L53.5885 56.5072L52.3425 57.0412L50.8473 81L53.6241 81.3204L54.2649 62.7372L59.8897 70.0708L66.5469 62.844L67.1877 81.0356L70.2849 80.8576L69.6085 57.7176L67.7573 56.5072L60.2101 65.514ZM79.7792 81H84.0512L87.3264 76.6212L87.718 60.9572L83.3748 56.436H76.9312L73.8696 60.8148L73.5136 76.4788L79.7792 81ZM81.8084 58.7144L84.0868 61.8828L83.3748 76.3008L81.0964 78.5436L76.4328 75.1972L76.8956 60.7792L78.462 58.6076L81.8084 58.7144ZM105.626 80.9644L105.662 56.4716H101.817L101.71 68.0772L93.6999 67.8992L93.7711 56.4716H90.8875L91.3147 80.9644H93.5931L93.6999 69.7504H101.71L101.568 80.9644H105.626ZM124.677 80.9644L124.713 56.4716H120.868L120.761 68.0772L112.751 67.8992L112.823 56.4716H109.939L110.366 80.9644H112.645L112.751 69.7504H120.761L120.619 80.9644H124.677ZM128.991 56.8276L130.059 79.0776L132.373 81H138.353L139.955 77.6536L139.279 69.252L136.787 66.4752L133.013 66.1904L132.586 56.5784L128.991 56.8276ZM146.684 56.5784H142.625L142.91 81H145.794L146.684 56.5784ZM136.004 68.6112L136.823 69.9284L137.463 77.4756L136.716 79.1844L133.583 78.8284L133.12 68.362L136.004 68.6112ZM160.432 50.4908C159.4 51.3096 158.474 51.6656 157.584 51.6656C156.303 51.6656 155.092 50.9892 153.704 50.028L152.066 52.2352C153.455 53.4812 155.057 54.0508 156.587 54.0508C158.403 54.0508 160.112 53.2676 161.287 51.986L160.432 50.4908ZM162.461 81L161.571 56.4004H159.257L154.772 74.0936L154.879 56.5072L150.963 56.436L152.743 81H155.092L159.613 62.7372L160.61 81H162.461ZM56.385 117H63.4338L65.5342 112.479L62.8286 111.126L61.4402 114.152L57.4174 114.01L54.8898 110.841L55.6018 97.1708L57.4174 94.8212L60.8706 95.4976L62.3658 98.7728L64.8934 97.4556L62.6506 92.4716H55.6374L51.9706 96.8504L51.5078 112.479L56.385 117ZM76.2303 98.5592L81.0363 116.964H84.4895L77.0135 92.5784H74.4147L66.5827 116.964H69.5731L76.2303 98.5592ZM101.259 117L103.679 116.502L96.5593 92.2936H93.2841L85.8081 116.395L89.2969 117.356L91.5397 108.776L98.5885 108.171L101.259 117ZM95.0285 96.3164L98.0901 106.498L92.0381 106.854L95.0285 96.3164ZM106.733 115.576L108.015 117H127.595L126.741 92.5428L122.931 93.0768L124.32 114.401H118.019L117.591 104.184H114.957L115.669 114.33H109.617L109.012 92.7564L105.559 92.436L106.733 115.576Z" fill="white"/>
</g>
<defs>
<clipPath id="clip0_486_4003">
<rect width="180" height="180" fill="white"/>
</clipPath>
</defs>
</svg>
