<svg width="180" height="180" viewBox="0 0 180 180" fill="none" xmlns="http://www.w3.org/2000/svg">
<g clip-path="url(#clip0_486_3995)">
<rect width="180" height="180" fill="#3EC26B"/>
<path d="M124.757 110.642L18.9104 38.1089C18.1517 52.773 23.3426 87.8128 50.1747 110.659C77.0068 133.506 111.076 120.167 124.757 110.642Z" fill="#FFBE3F"/>
<path d="M30.1969 57.1508L33.9985 79.9604H38.5129L33.6421 52.7156H29.0485L23.7421 79.6832L26.2765 80.4356L30.1969 57.1508ZM58.8827 80.0792L57.8927 52.9928L54.5267 52.7948L45.2999 71.8424L45.8147 52.874H41.4587L41.4191 79.7228L44.0327 79.8416L54.1307 59.0516L54.6851 80.0792H58.8827ZM72.8436 62.774L65.478 52.7552L64.092 53.3492L62.4288 80L65.5176 80.3564L66.2304 59.6852L72.4872 67.8428L79.8924 59.804L80.6052 80.0396L84.0504 79.8416L83.298 54.1016L81.2388 52.7552L72.8436 62.774ZM94.6115 80H99.3635L103.007 75.1292L103.442 57.7052L98.6111 52.676H91.4435L88.0379 57.5468L87.6419 74.9708L94.6115 80ZM96.8687 55.2104L99.4031 58.7348L98.6111 74.7728L96.0767 77.2676L90.8891 73.5452L91.4039 57.5072L93.1463 55.0916L96.8687 55.2104ZM123.362 79.9604L123.402 52.7156H119.125L119.006 65.6252L110.096 65.4272L110.176 52.7156H106.968L107.443 79.9604H109.978L110.096 67.4864H119.006L118.848 79.9604H123.362ZM140.04 53.1908L136.516 52.8344L136.239 63.1304L130.615 64.4768L129.111 62.9324L130.576 52.874L126.774 52.7156L126.022 64.358L130.101 67.6052L136.159 65.5064L135.803 79.4852L139.248 80.0792L140.04 53.1908ZM147.601 56.8736L155.679 56.438V52.9136H145.343L144.789 80H155.679V76.634L147.046 75.8816L147.284 67.2884L153.739 68.1596V65.2688H147.363L147.601 56.8736ZM71.7533 99.4872L77.0993 119.96H80.9405L72.6245 92.8344H69.7337L61.0217 119.96H64.3481L71.7533 99.4872ZM92.7522 99.4872L98.0982 119.96H101.939L93.6234 92.8344H90.7326L82.0206 119.96H85.347L92.7522 99.4872ZM109.732 120H114.484L118.127 115.129L118.563 97.7052L113.732 92.676H106.564L103.159 97.5468L102.763 114.971L109.732 120ZM111.989 95.2104L114.524 98.7348L113.732 114.773L111.197 117.268L106.01 113.545L106.525 97.5072L108.267 95.0916L111.989 95.2104Z" fill="white"/>
<path d="M171.5 112L63 180.5C76.1667 187 110.4 196.1 142 180.5C173.6 164.9 174.833 128.333 171.5 112Z" fill="#FFEC3F"/>
<path d="M41.0546 -64.4065L114.179 41.0321C120.104 27.5969 127.716 -6.99773 110.765 -37.8941C93.8144 -68.7905 57.2286 -68.4425 41.0546 -64.4065Z" fill="#FFEC3F"/>
</g>
<defs>
<clipPath id="clip0_486_3995">
<rect width="180" height="180" fill="white"/>
</clipPath>
</defs>
</svg>
