<svg width="180" height="180" viewBox="0 0 180 180" fill="none" xmlns="http://www.w3.org/2000/svg">
<rect width="180" height="180" fill="#85263D"/>
<path d="M51.9686 101.889C51.9686 101.889 93.7924 106.427 112.031 131.407C112.031 131.407 99.8778 155.062 76.478 154.991C53.0782 154.92 44.0777 137.517 41.8936 126.118" fill="#B842A5"/>
<path d="M139.896 70.4282C139.896 70.4282 110.384 100.449 112.031 131.407C112.031 131.407 136.373 142.003 154.445 127.098C172.517 112.193 168.536 93.0149 162.997 82.7899" fill="#B842A5"/>
<path d="M51.4316 110.895C51.4316 110.895 55.245 79.2226 41.8938 56.2033C28.5426 33.184 12.6814 71.161 27.6531 94.1184C42.6248 117.076 51.5462 120.378 53.2459 128.44" stroke="#B842A5" stroke-width="4" stroke-miterlimit="10"/>
<path d="M139.808 78.7546C139.808 78.7546 141.675 40.9366 111.961 27.3475C82.2465 13.7584 98.9707 66.9138 113.511 78.7546C128.051 90.5953 130.112 98.1272 128.201 102.745" stroke="#B842A5" stroke-width="4" stroke-miterlimit="10"/>
<path d="M61.1191 141.799C60.2384 141.799 31.0437 164.757 26.2704 141.799C21.4971 118.842 5.63588 106.48 3.87451 120.608" stroke="#B842A5" stroke-width="4" stroke-miterlimit="10"/>
<path d="M160.637 93.2356C162.398 91.4696 176.718 82.0659 168.677 70.4282" stroke="#B842A5" stroke-width="4" stroke-miterlimit="10"/>
<path d="M58.9919 60.32L62.3519 37.04L68.2719 51.4H70.7919L77.4719 38.12L79.6319 60.28L83.8719 59.96L80.9919 33.2L77.6319 32.72L69.5919 48.48L63.1519 32.64L60.2319 33.04L54.8719 59.72L58.9919 60.32ZM102.959 60L105.679 59.44L97.6791 32.24H93.9991L85.5991 59.32L89.5191 60.4L92.0391 50.76L99.9591 50.08L102.959 60ZM95.9591 36.76L99.3991 48.2L92.5991 48.6L95.9591 36.76ZM112.17 48.76L122.57 48.56L126.13 45.56L126.17 36.84L122.37 32.64H108.65V60H112.05L112.17 48.76ZM112.17 46.36L112.29 35.48L120.13 35.96L123.05 38.12L122.29 44.08L120.41 46.28L112.17 46.36ZM60.4328 75.08L83.4328 75.32L83.1928 72.6H57.5928L56.0328 74.16L56.0328 100H61.9928L60.4328 75.08ZM121.598 100.44L125.798 99.2L108.638 71.92L104.678 71.6L83.9975 98.96L88.0375 100.08L95.0775 90.72L115.798 91.16L121.598 100.44ZM106.238 75.84L113.958 88.24L96.6775 88.56L106.238 75.84ZM57.795 128.76L68.195 128.56L71.755 125.56L71.795 116.84L67.995 112.64H54.275V140H57.675L57.795 128.76ZM57.795 126.36L57.915 115.48L65.755 115.96L68.675 118.12L67.915 124.08L66.035 126.28L57.795 126.36ZM91.9931 140.08L90.9931 112.72L87.5931 112.52L78.2731 131.76L78.7931 112.6H74.3931L74.3531 139.72L76.9931 139.84L87.1931 118.84L87.7531 140.08H91.9931ZM109.714 112.28L93.8338 113.2L93.9938 115.44H100.114L99.5938 139.88L103.034 139.4L104.234 115.44L109.554 115.52L109.714 112.28ZM124.834 140L127.554 139.44L119.554 112.24H115.874L107.474 139.32L111.394 140.4L113.914 130.76L121.834 130.08L124.834 140ZM117.834 116.76L121.274 128.2L114.474 128.6L117.834 116.76Z" fill="white"/>
</svg>
