<svg width="180" height="180" viewBox="0 0 180 180" fill="none" xmlns="http://www.w3.org/2000/svg">
<g clip-path="url(#clip0_486_3991)">
<rect width="180" height="180" fill="#CC4163"/>
<path d="M80 140.5L32 30H40.5L94 140.5H80Z" fill="#6B291A"/>
<path d="M143.5 127.5L71.5 132.5L82.5 187H143.5V127.5Z" fill="#FF843F"/>
<path d="M107 145.767C105 136.967 96.1667 132.434 92 131.267C93.5 128.267 100 129.767 103.5 125.767C106.3 122.567 115.333 124.434 119.5 125.767C124 123.267 129 126.767 133 128.267C137 129.767 129.224 153.224 137.5 161.5C139.5 163.5 125 170 113 168.5C101 167 109.5 156.767 107 145.767Z" fill="#D9D9D9"/>
<path d="M18.5545 80.3168L21.8809 57.2696L27.7417 71.486H30.2365L36.8497 58.3388L38.9881 80.2772L43.1857 79.9604L40.3345 53.468L37.0081 52.9928L29.0485 68.5952L22.6729 52.9136L19.7821 53.3096L14.4757 79.7228L18.5545 80.3168ZM62.082 80L64.7748 79.4456L56.8548 52.5176H53.2116L44.8956 79.3268L48.7764 80.396L51.2712 70.8524L59.112 70.1792L62.082 80ZM55.152 56.9924L58.5576 68.318L51.8256 68.714L55.152 56.9924ZM71.2008 68.8724L81.4968 68.6744L85.0212 65.7044L85.0608 57.0716L81.2988 52.9136H67.716V80H71.082L71.2008 68.8724ZM71.2008 66.4964L71.3196 55.7252L79.0812 56.2004L81.972 58.3388L81.2196 64.2392L79.3584 66.4172L71.2008 66.4964ZM101.176 52.5572L85.4549 53.468L85.6133 55.6856H91.6721L91.1573 79.8812L94.5629 79.406L95.7509 55.6856L101.018 55.7648L101.176 52.5572ZM121.144 80.0792L120.154 52.9928L116.788 52.7948L107.562 71.8424L108.076 52.874H103.72L103.681 79.7228L106.294 79.8416L116.392 59.0516L116.947 80.0792H121.144ZM142.273 79.9604L142.312 52.7156H138.036L137.917 65.6252L129.007 65.4272L129.086 52.7156H125.878L126.354 79.9604H128.888L129.007 67.4864H137.917L137.758 79.9604H142.273ZM164.534 80.0792L163.544 52.9928L160.178 52.7948L150.951 71.8424L151.466 52.874H147.11L147.071 79.7228L149.684 79.8416L159.782 59.0516L160.337 80.0792H164.534ZM54.2509 123.762L53.6173 119.96H69.9325V123.604L72.2293 123.881L72.7441 118.733L72.0709 117.624L68.7445 117.703L65.4577 93.5076L64.2697 92.4384H60.8641L54.5677 117.901L51.6373 117.941L51.0433 118.812L51.7165 123.96L54.2509 123.762ZM62.0521 96.1212L64.7449 117.743L57.3397 117.862L62.0521 96.1212ZM78.2971 108.872L88.5931 108.674L92.1175 105.704L92.1571 97.0716L88.3951 92.9136H74.8123V120H78.1783L78.2971 108.872ZM78.2971 106.496L78.4159 95.7252L86.1775 96.2004L89.0683 98.3388L88.3159 104.239L86.4547 106.417L78.2971 106.496ZM108.005 120L110.698 119.446L102.778 92.5176H99.1344L90.8184 119.327L94.6992 120.396L97.194 110.852L105.035 110.179L108.005 120ZM101.075 96.9924L104.48 108.318L97.7484 108.714L101.075 96.9924ZM124.172 86.0628C123.024 86.9736 121.994 87.3696 121.004 87.3696C119.579 87.3696 118.232 86.6172 116.688 85.548L114.866 88.0032C116.411 89.3892 118.193 90.0228 119.896 90.0228C121.915 90.0228 123.816 89.1516 125.123 87.726L124.172 86.0628ZM126.43 120L125.44 92.6364H122.866L117.876 112.318L117.995 92.7552L113.639 92.676L115.619 120H118.232L123.262 99.6852L124.37 120H126.43Z" fill="white"/>
</g>
<defs>
<clipPath id="clip0_486_3991">
<rect width="180" height="180" fill="white"/>
</clipPath>
</defs>
</svg>
