<svg width="180" height="180" viewBox="0 0 180 180" fill="none" xmlns="http://www.w3.org/2000/svg">
<g clip-path="url(#clip0_527_3062)">
<rect width="180" height="180" fill="#242320"/>
<path d="M31.3158 -20.8896L5 17.8037V61.6074L31.3158 93H82.4854L119.766 61.6074L130 17.8037L89.0643 -26L31.3158 -20.8896Z" fill="#922B31"/>
<path d="M35.4211 10.4479L23 28.9816V49.9632L35.4211 65H59.5731L77.1696 49.9632L82 28.9816L62.6784 8L35.4211 10.4479Z" fill="#CD6022"/>
<path d="M40.2105 19.589L32 31.6196V45.2393L40.2105 55H56.1754L67.807 45.2393L71 31.6196L58.2281 18L40.2105 19.589Z" fill="#954213"/>
<path d="M21.5263 9.20245L15 18.3067V28.6135L21.5263 36H34.2164L43.462 28.6135L46 18.3067L35.848 8L21.5263 9.20245Z" fill="#F7B089"/>
<path d="M177.3 127.588L163.35 98.75L137.37 83.75L113.916 88.1475L92.25 118.899L98.1195 151.733L120.6 172.795L160.581 163.546L177.3 127.588Z" fill="#922B31"/>
<path d="M124.547 123.322L115.916 136.003V150.359L124.547 160.647H141.331L153.559 150.359L156.916 136.003L143.489 121.647L124.547 123.322Z" fill="#CD6022"/>
<path d="M128.684 131.074L123 139.202V148.405L128.684 155H139.737L147.789 148.405L150 139.202L141.158 130L128.684 131.074Z" fill="#954213"/>
<path d="M49.8584 57.3884L57.2636 56.7152L56.9864 53.0324L47.4428 53.072L47.0072 80H49.6208L49.8584 57.3884ZM68.5629 59.4872L73.9089 79.9604H77.7501L69.4341 52.8344H66.5433L57.8313 79.9604H61.1577L68.5629 59.4872ZM96.4033 80L99.0961 79.4456L91.1761 52.5176H87.5329L79.2169 79.3268L83.0977 80.396L85.5925 70.8524L93.4333 70.1792L96.4033 80ZM89.4733 56.9924L92.8789 68.318L86.1469 68.714L89.4733 56.9924ZM100.552 79.4852L112.036 79.802L114.174 70.9712L113.501 68.1596L109.422 65.6252L112.273 63.0116L113.342 55.1312L108.947 52.9136L101.542 54.8144L102.611 58.1804L107.442 55.5668L109.382 56.5172L109.343 62.0216L107.125 64.8332H103.482V67.2488L106.808 67.328L110.452 70.5356L109.026 77.3072L101.066 76.0004L100.552 79.4852ZM132.291 80L134.984 79.4456L127.064 52.5176H123.42L115.104 79.3268L118.985 80.396L121.48 70.8524L129.321 70.1792L132.291 80ZM125.361 56.9924L128.766 68.318L122.034 68.714L125.361 56.9924ZM50.4007 120.317L53.7271 97.2696L59.5879 111.486H62.0827L68.6959 98.3388L70.8343 120.277L75.0319 119.96L72.1807 93.468L68.8543 92.9928L60.8947 108.595L54.5191 92.9136L51.6283 93.3096L46.3219 119.723L50.4007 120.317ZM76.8607 120.238L87.9091 119.366L91.7899 105.15L90.7207 98.9328L87.5923 92.2404L77.6923 93.9828L79.1971 97.9824L85.4539 95.7252L87.7507 99.5664L88.4239 104.358L79.5139 103.962L79.6327 107.209L88.5823 106.972L85.5331 116.872L76.9795 116.119L76.8607 120.238ZM98.8318 108.872L109.128 108.674L112.652 105.704L112.692 97.0716L108.93 92.9136H95.347V120H98.713L98.8318 108.872ZM98.8318 106.496L98.9506 95.7252L106.712 96.2004L109.603 98.3388L108.851 104.239L106.989 106.417L98.8318 106.496ZM132.688 120.079L131.698 92.9928L128.332 92.7948L119.105 111.842L119.62 92.874H115.264L115.224 119.723L117.838 119.842L127.936 99.0516L128.49 120.079H132.688Z" fill="white"/>
<path d="M120.337 119.463L115.916 125.641V132.635L120.337 137.647H128.933L135.196 132.635L136.916 125.641L130.038 118.647L120.337 119.463Z" fill="#F7B089"/>
</g>
<defs>
<clipPath id="clip0_527_3062">
<rect width="180" height="180" fill="white"/>
</clipPath>
</defs>
</svg>
