<svg width="180" height="180" viewBox="0 0 180 180" fill="none" xmlns="http://www.w3.org/2000/svg">
<g clip-path="url(#clip0_486_4036)">
<rect width="180" height="180" fill="#478358"/>
<path d="M112.821 -48L-11.1484 38.2036C0.619035 45.3188 33.5132 53.8023 70.9502 30.8147C108.387 7.82708 114.462 -31.3066 112.821 -48Z" fill="#FF843F"/>
<path d="M136.687 62.4164L-12.4582 38.8584C-8.88718 52.138 8.98815 81.0252 51.9212 90.3374C94.8542 99.6495 126.321 75.6034 136.687 62.4164Z" fill="#FFA26D"/>
<path d="M85.265 154.102L-13.4437 39.8395C-19.2878 52.2873 -24.2809 85.8888 2.49987 120.713C29.2806 155.538 68.8353 157.483 85.265 154.102Z" fill="#FFBA7A"/>
<path d="M27.7994 80.2472L27.2846 77H44.075V80.2472H46.2134L46.7678 74.9408L46.3718 74.3864L43.0454 74.4656L39.9566 50.666L38.3726 49.4384H34.769L28.8686 74.6636L25.067 74.7032L24.5918 75.1784L25.4234 80.2472H27.7994ZM35.8778 53.1608L38.4122 74.5052L31.5218 74.624L35.8778 53.1608ZM48.8248 50.1116L50.0128 74.8616L52.5868 77H59.2396L61.0216 73.2776L60.2692 63.932L57.4972 60.8432L53.2996 60.5264L52.8244 49.8344L48.8248 50.1116ZM68.506 49.8344H63.9916L64.3084 77H67.516L68.506 49.8344ZM56.626 63.2192L57.5368 64.6844L58.2496 73.0796L57.418 74.9804L53.9332 74.5844L53.4184 62.942L56.626 63.2192ZM89.6598 76.9604L89.6994 49.7156H85.4226L85.3038 62.6252L76.3938 62.4272L76.473 49.7156H73.2654L73.7406 76.9604H76.275L76.3938 64.4864H85.3038L85.1454 76.9604H89.6598ZM110.852 76.9604L110.892 49.7156H106.615L106.496 62.6252L97.586 62.4272L97.6652 49.7156H94.4576L94.9328 76.9604H97.4672L97.586 64.4864H106.496L106.338 76.9604H110.852ZM115.65 50.1116L116.838 74.8616L119.412 77H126.065L127.847 73.2776L127.094 63.932L124.322 60.8432L120.125 60.5264L119.649 49.8344L115.65 50.1116ZM135.331 49.8344H130.817L131.133 77H134.341L135.331 49.8344ZM123.451 63.2192L124.362 64.6844L125.075 73.0796L124.243 74.9804L120.758 74.5844L120.243 62.942L123.451 63.2192ZM150.624 43.0628C149.476 43.9736 148.446 44.3696 147.456 44.3696C146.03 44.3696 144.684 43.6172 143.14 42.548L141.318 45.0032C142.862 46.3892 144.644 47.0228 146.347 47.0228C148.367 47.0228 150.268 46.1516 151.574 44.726L150.624 43.0628ZM152.881 77L151.891 49.6364H149.317L144.328 69.3176L144.446 49.7552L140.09 49.676L142.07 77H144.684L149.713 56.6852L150.822 77H152.881ZM35.801 114.624V103.536L32.5934 100.764L26.9702 101.002L27.0494 93.636L35.207 93.1608L34.6526 89.6364H24.6734L23.8814 117H32.5934L35.801 114.624ZM26.7326 114.109L26.9306 103.021L31.1678 102.823L32.9498 104.724L32.9102 112.208L31.5242 113.317L26.7326 114.109ZM41.6977 93.8736L49.7761 93.438V89.9136H39.4405L38.8861 117H49.7761V113.634L41.1433 112.882L41.3809 104.288L47.8357 105.16V102.269H41.4601L41.6977 93.8736ZM62.3754 96.4872L67.7214 116.96H71.5626L63.2466 89.8344H60.3558L51.6438 116.96H54.9702L62.3754 96.4872ZM83.3742 96.4872L88.7202 116.96H92.5614L84.2454 89.8344H81.3546L72.6426 116.96H75.969L83.3742 96.4872ZM112.927 117.079L111.937 89.9928L108.571 89.7948L99.3439 108.842L99.8587 89.874H95.5027L95.4631 116.723L98.0767 116.842L108.175 96.0516L108.729 117.079H112.927ZM134.055 116.96L134.095 89.7156H129.818L129.699 102.625L120.789 102.427L120.868 89.7156H117.661L118.136 116.96H120.67L120.789 104.486H129.699L129.541 116.96H134.055ZM156.316 117.079L155.326 89.9928L151.96 89.7948L142.734 108.842L143.248 89.874H138.892L138.853 116.723L141.466 116.842L151.564 96.0516L152.119 117.079H156.316Z" fill="white"/>
</g>
<defs>
<clipPath id="clip0_486_4036">
<rect width="180" height="180" fill="white"/>
</clipPath>
</defs>
</svg>
