<svg width="180" height="180" viewBox="0 0 180 180" fill="none" xmlns="http://www.w3.org/2000/svg">
<g clip-path="url(#clip0_480_2134)">
<rect width="180" height="180" fill="#477F83"/>
<path d="M24 63.2093L162.333 219L190 197.512L35.5278 54L24 63.2093Z" fill="#CC4163"/>
<path d="M75.4026 87L38 52.9155L57.4805 32L98 68.4085L75.4026 87Z" fill="#F4C4CF"/>
<path d="M61.8349 33.6739C49.4563 24.5435 56.6771 10.087 61.8349 4C61.8349 23.0217 109.802 39 117.538 51.1739C123.728 60.913 108.77 70.4493 100.518 74C105.933 64.8696 77.3081 45.087 61.8349 33.6739Z" fill="#4CB469"/>
<path d="M38.1047 84.2848L41.0951 63.5656L46.3639 76.346H48.6067L54.5519 64.5268L56.4743 84.2492L60.2479 83.9644L57.6847 60.148L54.6943 59.7208L47.5387 73.7472L41.8071 59.6496L39.2083 60.0056L34.4379 83.7508L38.1047 84.2848ZM71.0055 73.32L70.5783 84H73.3907V59.614H64.7399L62.5683 62.5688V70.8636L64.3839 73.32H66.5555L62.4259 83.466L65.4519 84.356L69.4391 73.32H71.0055ZM71.0055 71.006H66.5555L65.2027 69.5108V63.6724L66.6979 61.7856H71.0055V71.006ZM89.8874 59.3292L75.7542 60.148L75.8966 62.1416H81.3434L80.8806 83.8932L83.9422 83.466L85.0102 62.1416L89.745 62.2128L89.8874 59.3292ZM106.877 83.9644L106.913 59.4716H103.068L102.961 71.0772L94.9515 70.8992L95.0227 59.4716H92.1391L92.5663 83.9644H94.8447L94.9515 72.7504H102.961L102.819 83.9644H106.877ZM111.191 59.8276L112.259 82.0776L114.573 84H120.553L122.155 80.6536L121.479 72.252L118.987 69.4752L115.213 69.1904L114.786 59.5784L111.191 59.8276ZM128.884 59.5784H124.825L125.11 84H127.994L128.884 59.5784ZM118.204 71.6112L119.023 72.9284L119.663 80.4756L118.916 82.1844L115.783 81.8284L115.32 71.362L118.204 71.6112ZM142.632 53.4908C141.6 54.3096 140.674 54.6656 139.784 54.6656C138.503 54.6656 137.292 53.9892 135.904 53.028L134.266 55.2352C135.655 56.4812 137.257 57.0508 138.787 57.0508C140.603 57.0508 142.312 56.2676 143.487 54.986L142.632 53.4908ZM144.661 84L143.771 59.4004H141.457L136.972 77.0936L137.079 59.5072L133.163 59.436L134.943 84H137.292L141.813 65.7372L142.81 84H144.661ZM54.4903 120H61.5391L63.6395 115.479L60.9339 114.126L59.5455 117.152L55.5227 117.01L52.9951 113.841L53.7071 100.171L55.5227 97.8212L58.9759 98.4976L60.4711 101.773L62.9987 100.456L60.7559 95.4716H53.7427L50.0759 99.8504L49.6131 115.479L54.4903 120ZM67.0732 95.5784L66.3256 120H75.5104L78.1448 117.935L78.394 108.074L75.1544 105.938L77.9312 99.3876L75.724 95.6852L67.0732 95.5784ZM75.8664 109.605L75.6884 116.226L73.588 117.757L70.1704 117.437L70.206 108.216L73.4812 107.682L75.8664 109.605ZM72.1996 105.831L70.206 106.223L70.2416 97.8212L73.4456 97.7856L74.7628 99.7436L72.1996 105.831ZM97.2525 120.071L96.3625 95.7208L93.3365 95.5428L85.0417 112.666L85.5045 95.614H81.5885L81.5529 119.751L83.9025 119.858L92.9805 101.168L93.4789 120.071H97.2525ZM99.408 119.537L109.732 119.822L111.654 111.883L111.049 109.356L107.382 107.077L109.946 104.728L110.907 97.6432L106.955 95.6496L100.298 97.3584L101.259 100.384L105.602 98.0348L107.347 98.8892L107.311 103.838L105.318 106.365H102.042V108.537L105.033 108.608L108.308 111.492L107.026 117.579L99.8708 116.404L99.408 119.537ZM122.903 101.559L127.709 119.964H131.162L123.686 95.5784H121.088L113.256 119.964H116.246L122.903 101.559Z" fill="white"/>
</g>
<defs>
<clipPath id="clip0_480_2134">
<rect width="180" height="180" fill="white"/>
</clipPath>
</defs>
</svg>
