<svg width="180" height="180" viewBox="0 0 180 180" fill="none" xmlns="http://www.w3.org/2000/svg">
<g clip-path="url(#clip0_486_4019)">
<rect width="180" height="180" fill="#4B93C7"/>
<path d="M67.3179 153.276C67.3179 153.276 71.3463 82.8174 127.092 51.9454C131.009 50.884 129.398 56.5756 129.398 56.5756C129.398 56.5756 144.716 47.1694 147.736 50.5551C150.755 53.9409 148.083 55.716 148.083 55.716C148.083 55.716 161.26 50.0431 164.28 53.4289C167.299 56.8147 162.669 59.1205 162.669 59.1205C162.669 59.1205 176.907 57.364 181.885 60.2191C186.863 63.0742 180.988 64.6662 180.988 64.6662C180.988 64.6662 210.873 70.2307 213.527 80.0218C216.18 89.8129 197.678 87.4698 197.678 87.4698C197.678 87.4698 201.228 92.8138 190.906 93.5089C190.906 93.5089 190.193 94.7533 184.318 96.3453C184.318 96.3453 183.238 103.995 172.916 104.69C172.916 104.69 172.019 109.137 161.697 109.832C161.697 109.832 157.945 119.257 150.296 118.177C150.296 118.177 153.315 121.563 137.833 122.606C122.35 123.648 77.4753 144.217 71.765 154.173C69.6237 157.906 67.1348 156.479 67.3179 153.276Z" fill="#236CA2"/>
<path d="M69.8967 105.412C69.8967 105.412 84.8223 62.7026 59.3995 30.7268C57.3412 29.1362 56.8966 32.9019 56.8966 32.9019C56.8966 32.9019 50.1375 23.5689 47.5177 24.8318C44.898 26.0947 46.044 27.8022 46.044 27.8022C46.044 27.8022 39.6355 21.2058 37.0158 22.4687C34.396 23.7316 36.5711 26.2345 36.5711 26.2345C36.5711 26.2345 28.572 21.6963 24.9232 22.1638C21.2743 22.6314 24.3616 25.0174 24.3616 25.0174C24.3616 25.0174 5.29902 20.9697 1.32238 26.1152C-2.65425 31.2608 8.87682 34.4192 8.87682 34.4192C8.87682 34.4192 5.46173 36.7112 11.4026 39.6587C11.4026 39.6587 11.5195 40.5709 14.6068 42.9569C14.6068 42.9569 13.3668 47.7518 19.3077 50.6993C19.3077 50.6993 18.7462 53.5528 24.687 56.5003C24.687 56.5003 24.593 63.0028 29.3879 64.2427C29.3879 64.2427 26.7681 65.5056 35.6795 69.9269C44.5908 74.3482 66.108 97.5525 67.0432 104.85C67.3938 107.587 69.2183 107.353 69.8967 105.412Z" fill="#236CA2"/>
<path d="M36.2636 80.3168L39.59 57.2696L45.4508 71.486H47.9456L54.5588 58.3388L56.6972 80.2772L60.8948 79.9604L58.0436 53.468L54.7172 52.9928L46.7576 68.5952L40.382 52.9136L37.4912 53.3096L32.1848 79.7228L36.2636 80.3168ZM72.8611 68.12L72.3859 80H75.5143V52.874H65.8915L63.4759 56.1608V65.3876L65.4955 68.12H67.9111L63.3175 79.406L66.6835 80.396L71.1187 68.12H72.8611ZM72.8611 65.546H67.9111L66.4063 63.8828V57.3884L68.0695 55.2896H72.8611V65.546ZM93.8646 52.5572L78.1434 53.468L78.3018 55.6856H84.3606L83.8458 79.8812L87.2514 79.406L88.4394 55.6856L93.7062 55.7648L93.8646 52.5572ZM112.764 79.9604L112.803 52.7156H108.527L108.408 65.6252L99.4977 65.4272L99.5769 52.7156H96.3693L96.8445 79.9604H99.3789L99.4977 67.4864H108.408L108.249 79.9604H112.764ZM117.561 53.1116L118.749 77.8616L121.323 80H127.976L129.758 76.2776L129.006 66.932L126.234 63.8432L122.036 63.5264L121.561 52.8344L117.561 53.1116ZM137.243 52.8344H132.728L133.045 80H136.253L137.243 52.8344ZM125.363 66.2192L126.273 67.6844L126.986 76.0796L126.155 77.9804L122.67 77.5844L122.155 65.942L125.363 66.2192ZM152.536 46.0628C151.387 46.9736 150.358 47.3696 149.368 47.3696C147.942 47.3696 146.596 46.6172 145.051 45.548L143.23 48.0032C144.774 49.3892 146.556 50.0228 148.259 50.0228C150.279 50.0228 152.179 49.1516 153.486 47.726L152.536 46.0628ZM154.793 80L153.803 52.6364H151.229L146.239 72.3176L146.358 52.7552L142.002 52.676L143.982 80H146.596L151.625 59.6852L152.734 80H154.793ZM36.5173 123.247L36.0025 120H52.7929V123.247H54.9313L55.4857 117.941L55.0897 117.386L51.7633 117.466L48.6745 93.666L47.0905 92.4384H43.4869L37.5865 117.664L33.7849 117.703L33.3097 118.178L34.1413 123.247H36.5173ZM44.5957 96.1608L47.1301 117.505L40.2397 117.624L44.5957 96.1608ZM72.3531 105.942L80.1147 120.119L84.0747 118.733L74.5311 103.962L82.4115 95.1312L80.2335 92.9136L72.0759 103.724H71.2443L71.3235 92.9532L67.0071 92.7552L66.8487 103.724H66.7695L58.6119 92.9136L56.0775 95.7648L63.7203 104.833L55.3647 119.604L59.0871 120.554L66.4923 105.942L66.8091 105.982L66.6507 120.158L70.9275 119.96L71.0463 106.1L72.3531 105.942ZM87.4943 118.772L90.6227 120L98.1863 92.874H94.7807L91.4147 104.833L87.7715 92.676L85.1183 93.5472L90.1871 109.229L87.4943 118.772ZM109.688 99.4872L115.034 119.96H118.875L110.559 92.8344H107.668L98.9563 119.96H102.283L109.688 99.4872ZM124.588 96.8736L132.667 96.438V92.9136H122.331L121.777 120H132.667V116.634L124.034 115.882L124.272 107.288L130.726 108.16V105.269H124.351L124.588 96.8736ZM138.524 94.6956H147.711V120.238L152.186 119.723V92.7552H136.267L135.119 93.5472V120H138.524V94.6956Z" fill="white"/>
</g>
<defs>
<clipPath id="clip0_486_4019">
<rect width="180" height="180" fill="white"/>
</clipPath>
</defs>
</svg>
