<svg width="180" height="180" viewBox="0 0 180 180" fill="none" xmlns="http://www.w3.org/2000/svg">
<g clip-path="url(#clip0_480_2388)">
<rect width="180" height="180" fill="#6B291A"/>
<path fill-rule="evenodd" clip-rule="evenodd" d="M116.584 127.378C125.219 125.211 132.93 121.447 139.331 116.607L156.385 124.223C161.964 120.571 164.638 113.975 165.277 111.133L151.861 103.368C158.12 93.8454 160.59 82.7588 157.882 71.9711C157.591 70.8122 157.246 69.6785 156.849 68.5712C157.705 68.2744 158.565 67.9008 159.391 67.4371C162.223 65.8457 164.695 63.1526 165.086 58.8965C165.335 56.1901 164.443 54.0745 162.916 52.5997C161.989 51.7031 160.857 51.0706 159.666 50.6695C159.634 50.2656 159.564 49.8546 159.45 49.4391C158.823 47.1597 156.948 45.001 153.504 43.2157L152.403 45.2919C155.492 46.8932 156.774 48.617 157.172 50.0643C157.18 50.0968 157.189 50.1293 157.197 50.1618C155.344 50.0061 153.441 50.3319 152.003 51.1851C151.24 51.6375 150.575 52.2591 150.154 53.0671C149.726 53.8873 149.588 54.8281 149.774 55.8345C149.878 56.3985 150.076 56.9056 150.371 57.3294C138.829 43.5287 117.266 37.127 95.3112 42.6384C83.9422 45.4925 74.1745 51.1127 66.8908 58.3151C65.933 55.291 64.4656 53.2558 62.2764 53.3442C57.9728 53.5179 54.6108 58.4589 52.5304 63.0751C52.0209 63.1727 51.5114 63.2852 51.0022 63.413C47.5794 64.2723 44.4668 65.7489 41.7442 67.7028C37.6436 64.1372 31.2499 60.0831 26.7625 62.2594C22.0151 64.5618 26.7735 75.7412 30.9415 83.2335C29.8487 87.0654 29.5016 91.1835 30.0284 95.3623L25.001 97.286C25.4092 101.607 27.9434 110.301 32.5195 114.299L37.4933 111.948C44.3994 119.735 55.0025 123.535 65.4373 120.915C66.7055 120.597 67.9311 120.194 69.1101 119.713C69.6054 120.071 70.1096 120.419 70.6223 120.759L60.263 137.496C62.169 139.698 67.6415 144.249 74.2833 144.834L87.4326 127.852C96.439 129.928 106.47 129.917 116.584 127.378ZM150.692 57.718C152.841 60.3562 154.628 63.2579 155.987 66.3926C156.748 66.1344 157.51 65.8077 158.234 65.401C160.554 64.0971 162.43 62.0123 162.735 58.6941C162.922 56.6665 162.268 55.2494 161.265 54.2802C160.744 53.777 160.109 53.376 159.409 53.0802C159.152 53.9561 158.735 54.7613 158.23 55.4608C157.098 57.0282 155.415 58.219 153.792 58.5376C152.967 58.6995 152.055 58.6514 151.266 58.173C151.052 58.0438 150.861 57.8912 150.692 57.718ZM153.208 53.1935C154.15 52.6347 155.586 52.3533 157.121 52.5072C156.947 53.0731 156.668 53.6109 156.312 54.1028C155.449 55.2985 154.248 56.0631 153.344 56.2407C152.905 56.3267 152.643 56.2581 152.503 56.1733C152.386 56.1025 152.193 55.924 152.096 55.4021C151.998 54.8714 152.079 54.4627 152.25 54.1352C152.427 53.7955 152.739 53.4712 153.208 53.1935Z" fill="#E7B5E4"/>
<path d="M13.4645 98.8932C14.2477 98.9644 16.0989 99 16.8109 99C22.7917 99 25.6397 96.2232 25.6397 92.0224C25.6397 88.142 23.0053 85.1872 17.9145 85.0804L18.2349 76.7144L25.1413 76.5364L25.5329 74.4716L14.7105 74.6852L13.4645 98.8932ZM18.6621 96.33C18.3061 96.33 17.9145 96.33 17.4873 96.2944L17.9145 86.9316C21.2253 87.074 23.1121 88.9608 23.1121 91.9156C23.1121 94.1584 21.7237 96.33 18.6621 96.33ZM30.9413 78.2096L38.2037 77.818V74.6496H28.9121L28.4137 99H38.2037V95.974L30.4429 95.2976L30.6565 87.5724L36.4593 88.3556V85.7568H30.7277L30.9413 78.2096ZM40.1848 98.5372L50.5088 98.822L52.4312 90.8832L51.826 88.3556L48.1592 86.0772L50.7224 83.7276L51.6836 76.6432L47.732 74.6496L41.0748 76.3584L42.036 79.3844L46.3792 77.0348L48.1236 77.8892L48.088 82.8376L46.0944 85.3652H42.8192V87.5368L45.8096 87.608L49.0848 90.4916L47.8032 96.5792L40.6476 95.4044L40.1848 98.5372ZM55.3679 102.382L54.7983 98.9644H69.4655V102.24L71.5303 102.489L71.9931 97.8608L71.3879 96.864L68.3975 96.9352L65.4427 75.1836L64.3747 74.2224H61.3131L55.6527 97.1132L53.0183 97.1488L52.4843 97.932L53.0895 102.56L55.3679 102.382ZM62.3811 77.5332L64.8019 96.9708L58.1447 97.0776L62.3811 77.5332ZM76.38 78.2096L83.6424 77.818V74.6496H74.3508L73.8524 99H83.6424V95.974L75.8816 95.2976L76.0952 87.5724L81.898 88.3556V85.7568H76.1664L76.38 78.2096ZM100.585 98.9644L100.62 74.4716H96.7757L96.6689 86.0772L88.6589 85.8992L88.7301 74.4716H85.8465L86.2737 98.9644H88.5521L88.6589 87.7504H96.6689L96.5265 98.9644H100.585ZM107.426 78.2096L114.688 77.818V74.6496H105.396L104.898 99H114.688V95.974L106.927 95.2976L107.141 87.5724L112.944 88.3556V85.7568H107.212L107.426 78.2096ZM130.207 86.362L137.184 99.1068L140.744 97.8608L132.165 84.582L139.249 76.6432L137.291 74.6496L129.957 84.3684H129.21L129.281 74.6852L125.401 74.5072L125.258 84.3684H125.187L117.853 74.6496L115.575 77.2128L122.446 85.3652L114.934 98.644L118.281 99.4984L124.938 86.362L125.223 86.3976L125.08 99.1424L128.925 98.9644L129.032 86.5044L130.207 86.362ZM148.518 74.4716H144.602L143.071 99H150.974L156.385 95.44L156.634 88.2844L153.751 85.116L147.77 86.54L148.518 74.4716ZM152.256 88.0352L153.751 89.6016L153.537 94.0516L149.158 96.864L147.2 96.4724L147.663 89.1032L152.256 88.0352ZM161.521 78.2096L168.783 77.818V74.6496H159.492L158.993 99H168.783V95.974L161.023 95.2976L161.236 87.5724L167.039 88.3556V85.7568H161.307L161.521 78.2096Z" fill="white"/>
<path d="M106.5 46L83 55L86.5 57.5L108 51L106.5 46Z" fill="#A2579E"/>
</g>
<defs>
<clipPath id="clip0_480_2388">
<rect width="180" height="180" fill="white"/>
</clipPath>
</defs>
</svg>
