<svg width="180" height="180" viewBox="0 0 180 180" fill="none" xmlns="http://www.w3.org/2000/svg">
<g clip-path="url(#clip0_461_2175)">
<rect width="180" height="180" fill="#D76950"/>
<path d="M54 130L89 46L120.5 130H54Z" fill="#C62E2E"/>
<path d="M52 134L118 132L120 168H52V134Z" fill="#C62E2E"/>
<path d="M8 146L169 153V180H8V146Z" fill="#C62E2E"/>
<rect x="42" y="138" width="7" height="16" fill="#C62E2E"/>
<rect x="149" y="138" width="7" height="16" fill="#C62E2E"/>
<rect x="29" y="141" width="7" height="16" fill="#C62E2E"/>
<rect x="136" y="141" width="7" height="16" fill="#C62E2E"/>
<rect x="16" y="138" width="7" height="16" fill="#C62E2E"/>
<rect x="123" y="138" width="7" height="16" fill="#C62E2E"/>
<path d="M88 20L91.3677 30.3647H102.266L93.4491 36.7705L96.8168 47.1353L88 40.7295L79.1832 47.1353L82.5509 36.7705L73.7342 30.3647H84.6323L88 20Z" fill="#C62E2E"/>
<path d="M26.3855 80.3168L29.7119 57.2696L35.5727 71.486H38.0675L44.6807 58.3388L46.8191 80.2772L51.0167 79.9604L48.1655 53.468L44.8391 52.9928L36.8795 68.5952L30.5039 52.9136L27.6131 53.3096L22.3067 79.7228L26.3855 80.3168ZM60.2902 80H65.0422L68.6854 75.1292L69.121 57.7052L64.2898 52.676H57.1222L53.7166 57.5468L53.3206 74.9708L60.2902 80ZM62.5474 55.2104L65.0818 58.7348L64.2898 74.7728L61.7554 77.2676L56.5678 73.5452L57.0826 57.5072L58.825 55.0916L62.5474 55.2104ZM77.7346 80H85.5754L87.9118 74.9708L84.9022 73.466L83.3578 76.832L78.883 76.6736L76.0714 73.1492L76.8634 57.9428L78.883 55.3292L82.7242 56.0816L84.3874 59.7248L87.199 58.2596L84.7042 52.7156H76.903L72.8242 57.5864L72.3094 74.9708L77.7346 80ZM96.2458 64.754L104.007 80.1188L107.967 78.7328L97.909 63.1304L106.304 55.1312L104.126 52.9136L95.9686 62.5364H95.137L95.2162 52.9532L91.2562 52.7552L90.8998 80.1584L94.8202 79.9604L94.939 64.9124L96.2458 64.754ZM114.74 80H119.492L123.135 75.1292L123.571 57.7052L118.74 52.676H111.572L108.167 57.5468L107.771 74.9708L114.74 80ZM116.997 55.2104L119.532 58.7348L118.74 74.7728L116.205 77.2676L111.018 73.5452L111.533 57.5072L113.275 55.0916L116.997 55.2104ZM127.928 52.8344L127.097 80H137.313L140.244 77.7032L140.521 66.734L136.917 64.358L140.006 57.0716L137.551 52.9532L127.928 52.8344ZM137.709 68.4368L137.511 75.8024L135.175 77.5052L131.373 77.1488L131.413 66.8924L135.056 66.2984L137.709 68.4368ZM133.631 64.2392L131.413 64.6748L131.453 55.3292L135.017 55.2896L136.482 57.4676L133.631 64.2392ZM148.272 80H156.113L158.449 74.9708L155.44 73.466L153.895 76.832L149.421 76.6736L146.609 73.1492L147.401 57.9428L149.421 55.3292L153.262 56.0816L154.925 59.7248L157.737 58.2596L155.242 52.7156H147.441L143.362 57.5864L142.847 74.9708L148.272 80ZM34.4868 104.754L42.2484 120.119L46.2084 118.733L36.15 103.13L44.5452 95.1312L42.3672 92.9136L34.2096 102.536H33.378L33.4572 92.9532L29.4972 92.7552L29.1408 120.158L33.0612 119.96L33.18 104.912L34.4868 104.754ZM65.5536 120.079L64.5636 92.9928L61.1976 92.7948L51.9708 111.842L52.4856 92.874H48.1296L48.09 119.723L50.7036 119.842L60.8016 99.0516L61.356 120.079H65.5536ZM80.8213 86.0628C79.6729 86.9736 78.6433 87.3696 77.6533 87.3696C76.2277 87.3696 74.8813 86.6172 73.3369 85.548L71.5153 88.0032C73.0597 89.3892 74.8417 90.0228 76.5445 90.0228C78.5641 90.0228 80.4649 89.1516 81.7717 87.726L80.8213 86.0628ZM83.0785 120L82.0885 92.6364H79.5145L74.5249 112.318L74.6437 92.7552L70.2877 92.676L72.2677 120H74.8813L79.9105 99.6852L81.0193 120H83.0785ZM105.927 102.774L98.5618 92.7552L97.1758 93.3492L95.5126 120L98.6014 120.356L99.3142 99.6852L105.571 107.843L112.976 99.804L113.689 120.04L117.134 119.842L116.382 94.1016L114.323 92.7552L105.927 102.774ZM121.509 118.772L124.637 120L132.201 92.874H128.795L125.429 104.833L121.786 92.676L119.133 93.5472L124.202 109.229L121.509 118.772ZM143.702 99.4872L149.048 119.96H152.89L144.574 92.8344H141.683L132.971 119.96H136.297L143.702 99.4872Z" fill="white"/>
</g>
<defs>
<clipPath id="clip0_461_2175">
<rect width="180" height="180" fill="white"/>
</clipPath>
</defs>
</svg>
