<svg width="180" height="180" viewBox="0 0 180 180" fill="none" xmlns="http://www.w3.org/2000/svg">
<g clip-path="url(#clip0_461_2173)">
<rect width="180" height="180" fill="#85263D"/>
<path d="M-11 104.5L104.5 2.5L207 164.5L-8 134.5L-11 104.5Z" fill="#B842A5"/>
<path d="M55.8547 103L55.5379 75.676H51.1819L51.0631 85.774L39.8167 85.5364L39.8959 75.676H36.4111V103H39.6583L39.7771 87.6748H51.0631L50.9047 103H55.8547ZM63.4313 79.8736L71.5097 79.438V75.9136H61.1741L60.6197 103H71.5097V99.634L62.8769 98.8816L63.1145 90.2884L69.5693 91.1596V88.2688H63.1937L63.4313 79.8736ZM77.7235 78.7252L85.2475 78.844L85.5247 75.9136H73.9615V103.158H78.3175L77.7235 78.7252ZM92.7746 103H97.5266L101.17 98.1292L101.605 80.7052L96.7742 75.676H89.6066L86.201 80.5468L85.805 97.9708L92.7746 103ZM95.0318 78.2104L97.5662 81.7348L96.7742 97.7728L94.2398 100.268L89.0522 96.5452L89.567 80.5072L91.3094 78.0916L95.0318 78.2104ZM121.525 102.96L121.565 75.7156H117.288L117.169 88.6252L108.259 88.4272L108.339 75.7156H105.131L105.606 102.96H108.141L108.259 90.4864H117.169L117.011 102.96H121.525ZM143.787 103.079L142.797 75.9928L139.431 75.7948L130.204 94.8424L130.719 75.874H126.363L126.323 102.723L128.937 102.842L139.035 82.0516L139.589 103.079H143.787Z" fill="white"/>
<path d="M-1.5 80.5L100 -7.5L93 -10L-8 64L-1.5 80.5Z" fill="#B842A5"/>
<path d="M196 126.5L107 -13.5L114 -16L209.5 79.5L196 126.5Z" fill="#B842A5"/>
</g>
<defs>
<clipPath id="clip0_461_2173">
<rect width="180" height="180" fill="white"/>
</clipPath>
</defs>
</svg>
