<svg width="180" height="180" viewBox="0 0 180 180" fill="none" xmlns="http://www.w3.org/2000/svg">
<g clip-path="url(#clip0_461_2173)">
<rect width="180" height="180" fill="#85263D"/>
<path d="M-11 104.5L104.5 2.5L207 164.5L-8 134.5L-11 104.5Z" fill="#B842A5"/>
<path d="M44.6592 103L44.3424 75.676H39.9864L39.8676 85.774L28.6212 85.5364L28.7004 75.676H25.2156V103H28.4628L28.5816 87.6748H39.8676L39.7092 103H44.6592ZM52.2358 79.8736L60.3142 79.438V75.9136H49.9786L49.4242 103H60.3142V99.634L51.6814 98.8816L51.919 90.2884L58.3738 91.1596V88.2688H51.9982L52.2358 79.8736ZM66.528 78.7252L74.052 78.844L74.3292 75.9136H62.766V103.158H67.122L66.528 78.7252ZM80.1727 91.8724L90.4687 91.6744L93.9931 88.7044L94.0327 80.0716L90.2707 75.9136H76.6879V103H80.0539L80.1727 91.8724ZM80.1727 89.4964L80.2915 78.7252L88.0531 79.2004L90.9439 81.3388L90.1915 87.2392L88.3303 89.4172L80.1727 89.4964ZM103.97 103H108.722L112.365 98.1292L112.801 80.7052L107.97 75.676H100.802L97.3965 80.5468L97.0005 97.9708L103.97 103ZM106.227 78.2104L108.762 81.7348L107.97 97.7728L105.435 100.268L100.248 96.5452L100.762 80.5072L102.505 78.0916L106.227 78.2104ZM132.721 102.96L132.761 75.7156H128.484L128.365 88.6252L119.455 88.4272L119.534 75.7156H116.327L116.802 102.96H119.336L119.455 90.4864H128.365L128.207 102.96H132.721ZM154.982 103.079L153.992 75.9928L150.626 75.7948L141.4 94.8424L141.914 75.874H137.558L137.519 102.723L140.132 102.842L150.23 82.0516L150.785 103.079H154.982Z" fill="white"/>
<path d="M-1.5 80.5L100 -7.5L93 -10L-8 64L-1.5 80.5Z" fill="#B842A5"/>
<path d="M196 126.5L107 -13.5L114 -16L209.5 79.5L196 126.5Z" fill="#B842A5"/>
</g>
<defs>
<clipPath id="clip0_461_2173">
<rect width="180" height="180" fill="white"/>
</clipPath>
</defs>
</svg>
