<svg width="180" height="180" viewBox="0 0 180 180" fill="none" xmlns="http://www.w3.org/2000/svg">
<g clip-path="url(#clip0_486_3919)">
<rect width="180" height="180" fill="#F29F23"/>
<path d="M44.8655 -15.5003L-27.6341 -1.4998L39.7431 83.0682L63.3656 69.9925L44.8655 -15.5003Z" fill="#FF4C00"/>
<rect width="27" height="80" transform="matrix(-0.874909 0.484287 0.484287 0.874909 -23.3774 30)" fill="#FF4C00"/>
<path d="M64 -16H113L106 72H79L64 -16Z" fill="#FF4C00"/>
<path d="M135.5 -15.5003L208 -1.4998L140.623 83.0682L117 69.9925L135.5 -15.5003Z" fill="#FF4C00"/>
<rect x="203.743" y="30" width="27" height="80" transform="rotate(28.9658 203.743 30)" fill="#FF4C00"/>
<ellipse cx="90" cy="164" rx="101" ry="80" fill="#FF4D00"/>
<path d="M16.9935 77.7604C13.2911 77.7604 12.2587 72.812 12.2587 68.4688C12.2587 64.2324 13.7895 58.6432 17.2427 58.6432C20.2687 58.6432 22.1199 63.4136 22.1199 68.362C22.1199 73.2392 20.4111 77.7604 16.9935 77.7604ZM17.0291 81.2136C22.4759 81.2136 25.1103 74.8412 25.1103 68.5044C25.1103 62.31 22.5827 56.1512 17.5987 56.1512C11.7603 56.1512 9.94465 64.1612 9.94465 68.9316C9.94465 74.4496 11.5111 81.2136 17.0291 81.2136ZM31.4248 70.9964L40.6808 70.8184L43.8492 68.1484L43.8848 60.3876L40.5028 56.6496H28.292V81H31.318L31.4248 70.9964ZM31.4248 68.8604L31.5316 59.1772L38.5092 59.6044L41.108 61.5268L40.4316 66.8312L38.7584 68.7892L31.4248 68.8604ZM58.1318 81L60.5526 80.5016L53.4326 56.2936H50.1574L42.6814 80.3948L46.1702 81.356L48.413 72.7764L55.4618 72.1712L58.1318 81ZM51.9018 60.3164L54.9634 70.498L48.9114 70.854L51.9018 60.3164ZM77.9351 80.9644L77.9707 56.4716H74.1259L74.0191 68.0772L66.0091 67.8992L66.0803 56.4716H63.1967L63.6239 80.9644H65.9023L66.0091 69.7504H74.0191L73.8767 80.9644H77.9351ZM95.5627 68.362L102.54 81.1068L106.1 79.8608L97.5207 66.582L104.605 58.6432L102.647 56.6496L95.3135 66.3684H94.5659L94.6371 56.6852L90.7567 56.5072L90.6143 66.3684H90.5431L83.2095 56.6496L80.9311 59.2128L87.8019 67.3652L80.2903 80.644L83.6367 81.4984L90.2939 68.362L90.5787 68.3976L90.4363 81.1424L94.2811 80.9644L94.3879 68.5044L95.5627 68.362ZM110.954 60.2096L118.217 59.818V56.6496H108.925L108.427 81H118.217V77.974L110.456 77.2976L110.67 69.5724L116.472 70.3556V67.7568H110.741L110.954 60.2096ZM121.169 56.5784L120.421 81H129.606L132.24 78.9352L132.489 69.074L129.25 66.938L132.027 60.3876L129.819 56.6852L121.169 56.5784ZM129.962 70.6048L129.784 77.2264L127.683 78.7572L124.266 78.4368L124.301 69.2164L127.577 68.6824L129.962 70.6048ZM126.295 66.8312L124.301 67.2228L124.337 58.8212L127.541 58.7856L128.858 60.7436L126.295 66.8312ZM135.648 56.8276L136.716 79.0776L139.03 81H145.011L146.613 77.6536L145.937 69.252L143.445 66.4752L139.671 66.1904L139.244 56.5784L135.648 56.8276ZM153.341 56.5784H149.283L149.568 81H152.451L153.341 56.5784ZM142.661 68.6112L143.48 69.9284L144.121 77.4756L143.373 79.1844L140.241 78.8284L139.778 68.362L142.661 68.6112ZM167.09 50.4908C166.057 51.3096 165.132 51.6656 164.242 51.6656C162.96 51.6656 161.75 50.9892 160.361 50.028L158.724 52.2352C160.112 53.4812 161.714 54.0508 163.245 54.0508C165.061 54.0508 166.769 53.2676 167.944 51.986L167.09 50.4908ZM169.119 81L168.229 56.4004H165.915L161.429 74.0936L161.536 56.5072L157.62 56.436L159.4 81H161.75L166.271 62.7372L167.268 81H169.119ZM50.3016 116.537L60.6256 116.822L62.548 108.883L61.9428 106.356L58.276 104.077L60.8392 101.728L61.8004 94.6432L57.8488 92.6496L51.1916 94.3584L52.1528 97.3844L56.496 95.0348L58.2404 95.8892L58.2048 100.838L56.2112 103.365H52.936V105.537L55.9264 105.608L59.2016 108.492L57.92 114.579L50.7644 113.404L50.3016 116.537ZM78.8347 117L81.2555 116.502L74.1355 92.2936H70.8603L63.3843 116.395L66.8731 117.356L69.1159 108.776L76.1647 108.171L78.8347 117ZM72.6047 96.3164L75.6663 106.498L69.6143 106.854L72.6047 96.3164ZM88.7056 103.294L95.6832 117.107L99.2432 115.861L90.2008 101.834L97.748 94.6432L95.79 92.6496L88.4564 101.3H87.7088L87.78 92.6852L84.22 92.5072L83.8996 117.142L87.424 116.964L87.5308 103.436L88.7056 103.294ZM115.86 117L118.281 116.502L111.161 92.2936H107.886L100.41 116.395L103.898 117.356L106.141 108.776L113.19 108.171L115.86 117ZM109.63 96.3164L112.692 106.498L106.64 106.854L109.63 96.3164ZM129.798 92.3292L115.665 93.148L115.808 95.1416H121.254L120.792 116.893L123.853 116.466L124.921 95.1416L129.656 95.2128L129.798 92.3292Z" fill="white"/>
</g>
<defs>
<clipPath id="clip0_486_3919">
<rect width="180" height="180" fill="white"/>
</clipPath>
</defs>
</svg>
