<svg width="180" height="180" viewBox="0 0 180 180" fill="none" xmlns="http://www.w3.org/2000/svg">
<g clip-path="url(#clip0_461_2159)">
<rect width="180" height="180" fill="#E1B37E"/>
<circle cx="81" cy="47" r="38" fill="#EA864E"/>
<circle cx="119" cy="31" r="22" fill="#EA864E"/>
<circle cx="25" cy="61" r="11" fill="#EA864E"/>
<circle cx="32" cy="50" r="7" fill="#EA864E"/>
<circle cx="36" cy="137" r="7" fill="#EA864E"/>
<circle cx="60" cy="120" r="21" fill="#EA864E"/>
<path d="M155.246 161.189C176.032 121.315 153.239 105.305 141.862 82.802C130.485 60.299 133.881 33 133.881 33L80.0945 50.5234C80.0945 50.5234 98.8019 70.6382 102.859 95.5089C106.916 120.38 97.8766 146.845 138.203 166.741L150.002 190.485L130.221 204.384L131.189 207.354L184.976 189.83L184.008 186.861L159.78 187.368L155.246 161.189Z" fill="#BC7745"/>
<path d="M62.7575 80H66.6779L66.1631 53.5472L65.0147 52.5176L49.0955 52.7552V79.7228L53.5703 80.2376V54.6956H63.0347L62.7575 80ZM88.9114 80.0792L87.9214 52.9928L84.5554 52.7948L75.3286 71.8424L75.8434 52.874H71.4874L71.4478 79.7228L74.0614 79.8416L84.1594 59.0516L84.7138 80.0792H88.9114ZM110.04 79.9604L110.079 52.7156H105.803L105.684 65.6252L96.7739 65.4272L96.8531 52.7156H93.6455L94.1207 79.9604H96.6551L96.7739 67.4864H105.684L105.525 79.9604H110.04ZM130.202 80L132.895 79.4456L124.975 52.5176H121.332L113.016 79.3268L116.897 80.396L119.392 70.8524L127.232 70.1792L130.202 80ZM123.272 56.9924L126.678 68.318L119.946 68.714L123.272 56.9924ZM36.6524 104.754L44.414 120.119L48.374 118.733L38.3156 103.13L46.7108 95.1312L44.5328 92.9136L36.3752 102.536H35.5436L35.6228 92.9532L31.6628 92.7552L31.3064 120.158L35.2268 119.96L35.3456 104.912L36.6524 104.754ZM55.1469 120H59.8989L63.5421 115.129L63.9777 97.7052L59.1465 92.676H51.9789L48.5733 97.5468L48.1773 114.971L55.1469 120ZM57.4041 95.2104L59.9385 98.7348L59.1465 114.773L56.6121 117.268L51.4245 113.545L51.9393 97.5072L53.6817 95.0916L57.4041 95.2104ZM76.4133 99.4872L81.7593 119.96H85.6005L77.2845 92.8344H74.3937L65.6817 119.96H69.0081L76.4133 99.4872ZM104.254 120L106.946 119.446L99.0264 92.5176H95.3832L87.0672 119.327L90.948 120.396L93.4428 110.852L101.284 110.179L104.254 120ZM97.3236 96.9924L100.729 108.318L93.9972 108.714L97.3236 96.9924ZM110.402 123.762L109.769 119.96H126.084V123.604L128.381 123.881L128.896 118.733L128.222 117.624L124.896 117.703L121.609 93.5076L120.421 92.4384H117.016L110.719 117.901L107.789 117.941L107.195 118.812L107.868 123.96L110.402 123.762ZM118.204 96.1212L120.896 117.743L113.491 117.862L118.204 96.1212ZM147.992 120L150.684 119.446L142.764 92.5176H139.121L130.805 119.327L134.686 120.396L137.181 110.852L145.022 110.179L147.992 120ZM141.062 96.9924L144.467 108.318L137.735 108.714L141.062 96.9924Z" fill="white"/>
</g>
<defs>
<clipPath id="clip0_461_2159">
<rect width="180" height="180" fill="white"/>
</clipPath>
</defs>
</svg>
