<svg width="180" height="180" viewBox="0 0 180 180" fill="none" xmlns="http://www.w3.org/2000/svg">
<g clip-path="url(#clip0_486_4018)">
<rect width="180" height="180" fill="#4191CC"/>
<path d="M112.461 66L52.9613 18.5C46.9613 26.6667 40.2613 46.7 61.4613 61.5C82.6613 76.3 104.295 70.6667 112.461 66Z" fill="#FFBE3F"/>
<path d="M27 56L38 185L142.5 188L152.5 51.5L27 56Z" fill="#3F5565"/>
<path d="M58 56C57.8333 78.6667 68.3 124.4 111.5 126C165.5 128 155 83 151.5 69.5" stroke="#20303A" stroke-width="5"/>
<path d="M13.0528 46.0608L17.2504 60H22.0816L13.726 32.5176H9.29078L4.41999 60H6.91479L9.01359 46.0212L13.0528 46.0608ZM10.3996 36.7548L12.4984 44.2788L9.29078 44.16L10.3996 36.7548ZM41.3918 59.9604L41.4314 32.7156H37.1546L37.0358 45.6252L28.1258 45.4272L28.205 32.7156H24.9974L25.4726 59.9604H28.007L28.1258 47.4864H37.0358L36.8774 59.9604H41.3918ZM61.5544 60L64.2472 59.4456L56.3272 32.5176H52.684L44.368 59.3268L48.2488 60.396L50.7436 50.8524L58.5844 50.1792L61.5544 60ZM54.6244 36.9924L58.03 48.318L51.298 48.714L54.6244 36.9924ZM83.5829 59.9604L83.6225 32.7156H79.3457L79.2269 45.6252L70.3169 45.4272L70.3961 32.7156H67.1885L67.6637 59.9604H70.1981L70.3169 47.4864H79.2269L79.0685 59.9604H83.5829ZM103.745 60L106.438 59.4456L98.5182 32.5176H94.875L86.559 59.3268L90.4398 60.396L92.9346 50.8524L100.775 50.1792L103.745 60ZM96.8154 36.9924L100.221 48.318L93.489 48.714L96.8154 36.9924ZM113.617 60H121.457L123.794 54.9708L120.784 53.466L119.24 56.832L114.765 56.6736L111.953 53.1492L112.745 37.9428L114.765 35.3292L118.606 36.0816L120.269 39.7248L123.081 38.2596L120.586 32.7156H112.785L108.706 37.5864L108.191 54.9708L113.617 60ZM132.524 60H137.276L140.919 55.1292L141.355 37.7052L136.523 32.676H129.356L125.95 37.5468L125.554 54.9708L132.524 60ZM134.781 35.2104L137.315 38.7348L136.523 54.7728L133.989 57.2676L128.801 53.5452L129.316 37.5072L131.059 35.0916L134.781 35.2104ZM145.712 32.8344L144.88 60H155.097L158.027 57.7032L158.305 46.734L154.701 44.358L157.79 37.0716L155.335 32.9532L145.712 32.8344ZM155.493 48.4368L155.295 55.8024L152.959 57.5052L149.157 57.1488L149.197 46.8924L152.84 46.2984L155.493 48.4368ZM151.414 44.2392L149.197 44.6748L149.236 35.3292L152.8 35.2896L154.265 37.4676L151.414 44.2392ZM168.334 60H173.086L176.729 55.1292L177.165 37.7052L172.334 32.676H165.166L161.76 37.5468L161.364 54.9708L168.334 60ZM170.591 35.2104L173.126 38.7348L172.334 54.7728L169.799 57.2676L164.612 53.5452L165.126 37.5072L166.869 35.0916L170.591 35.2104ZM8.32058 87.0112L17.191 87.7636L17.587 84.6352H8.32058V87.0112ZM31.1692 82.774L23.8036 72.7552L22.4176 73.3492L20.7544 100L23.8432 100.356L24.556 79.6852L30.8128 87.8428L38.218 79.804L38.9308 100.04L42.376 99.8416L41.6236 74.1016L39.5644 72.7552L31.1692 82.774ZM61.2837 100L63.9765 99.4456L56.0565 72.5176H52.4133L44.0973 99.3268L47.9781 100.396L50.4729 90.8524L58.3137 90.1792L61.2837 100ZM54.3537 76.9924L57.7593 88.318L51.0273 88.714L54.3537 76.9924ZM83.3121 99.9604L83.3517 72.7156H79.0749L78.9561 85.6252L70.0461 85.4272L70.1253 72.7156H66.9177L67.3929 99.9604H69.9273L70.0461 87.4864H78.9561L78.7977 99.9604H83.3121ZM91.8719 75.7252L99.3959 75.844L99.6731 72.9136H88.1099V100.158H92.4659L91.8719 75.7252ZM106.923 100H111.675L115.318 95.1292L115.754 77.7052L110.923 72.676H103.755L100.349 77.5468L99.9534 94.9708L106.923 100ZM109.18 75.2104L111.715 78.7348L110.923 94.7728L108.388 97.2676L103.201 93.5452L103.715 77.5072L105.458 75.0916L109.18 75.2104ZM120.111 72.8344L119.279 100H129.496L132.427 97.7032L132.704 86.734L129.1 84.358L132.189 77.0716L129.734 72.9532L120.111 72.8344ZM129.892 88.4368L129.694 95.8024L127.358 97.5052L123.556 97.1488L123.596 86.8924L127.239 86.2984L129.892 88.4368ZM125.813 84.2392L123.596 84.6748L123.635 75.3292L127.199 75.2896L128.665 77.4676L125.813 84.2392ZM136.218 73.1116L137.406 97.8616L139.98 100H146.633L148.415 96.2776L147.662 86.932L144.89 83.8432L140.693 83.5264L140.217 72.8344L136.218 73.1116ZM155.899 72.8344H151.385L151.701 100H154.909L155.899 72.8344ZM144.019 86.2192L144.93 87.6844L145.643 96.0796L144.811 97.9804L141.326 97.5844L140.811 85.942L144.019 86.2192ZM171.192 66.0628C170.044 66.9736 169.014 67.3696 168.024 67.3696C166.598 67.3696 165.252 66.6172 163.708 65.548L161.886 68.0032C163.43 69.3892 165.212 70.0228 166.915 70.0228C168.935 70.0228 170.836 69.1516 172.142 67.726L171.192 66.0628ZM173.449 100L172.459 72.6364H169.885L164.896 92.3176L165.014 72.7552L160.658 72.676L162.638 100H165.252L170.281 79.6852L171.39 100H173.449ZM53.6751 114.696H62.8623V140.238L67.3371 139.723V112.755H51.4179L50.2695 113.547V140H53.6751V114.696ZM72.912 138.772L76.0404 140L83.604 112.874H80.1984L76.8324 124.833L73.1892 112.676L70.536 113.547L75.6048 129.229L72.912 138.772ZM102.59 139.96L102.63 112.716H98.3529L98.2341 125.625L89.3241 125.427L89.4033 112.716H86.1957L86.6709 139.96H89.2053L89.3241 127.486H98.2341L98.0757 139.96H102.59ZM108.695 138.416L110.12 140H131.9L130.95 112.795L126.713 113.389L128.257 137.109H121.248L120.773 125.744H117.842L118.634 137.03H111.902L111.229 113.032L107.388 112.676L108.695 138.416Z" fill="white"/>
</g>
<defs>
<clipPath id="clip0_486_4018">
<rect width="180" height="180" fill="white"/>
</clipPath>
</defs>
</svg>
