<svg width="180" height="180" viewBox="0 0 180 180" fill="none" xmlns="http://www.w3.org/2000/svg">
<g clip-path="url(#clip0_551_1999)">
<rect width="180" height="180" fill="#E8A5DD"/>
<path d="M53.293 81.3386C42.9281 112.444 49.1074 148.776 80.2196 159.144C111.332 169.511 135.149 146.65 145.514 115.545C155.879 84.4391 144.696 69.3837 113.584 59.0166C82.4714 48.6495 63.6578 50.2332 53.293 81.3386Z" fill="#B02367"/>
<path d="M24.4232 6L117 99.8835C100.669 106.885 62.0266 113.696 38.1029 84.9258C14.1793 56.1561 19.0149 20.3212 24.4232 6Z" fill="#FFC93F"/>
<path d="M12.0528 46.0608L16.2504 60H21.0816L12.726 32.5176H8.29078L3.41999 60H5.91479L8.01359 46.0212L12.0528 46.0608ZM9.39958 36.7548L11.4984 44.2788L8.29078 44.16L9.39958 36.7548ZM40.3918 59.9604L40.4314 32.7156H36.1546L36.0358 45.6252L27.1258 45.4272L27.205 32.7156H23.9974L24.4726 59.9604H27.007L27.1258 47.4864H36.0358L35.8774 59.9604H40.3918ZM60.5544 60L63.2472 59.4456L55.3272 32.5176H51.684L43.368 59.3268L47.2488 60.396L49.7436 50.8524L57.5844 50.1792L60.5544 60ZM53.6244 36.9924L57.03 48.318L50.298 48.714L53.6244 36.9924ZM82.5829 59.9604L82.6225 32.7156H78.3457L78.2269 45.6252L69.3169 45.4272L69.3961 32.7156H66.1885L66.6637 59.9604H69.1981L69.3169 47.4864H78.2269L78.0685 59.9604H82.5829ZM102.745 60L105.438 59.4456L97.5182 32.5176H93.875L85.559 59.3268L89.4398 60.396L91.9346 50.8524L99.7754 50.1792L102.745 60ZM95.8154 36.9924L99.221 48.318L92.489 48.714L95.8154 36.9924ZM112.617 60H120.457L122.794 54.9708L119.784 53.466L118.24 56.832L113.765 56.6736L110.953 53.1492L111.745 37.9428L113.765 35.3292L117.606 36.0816L119.269 39.7248L122.081 38.2596L119.586 32.7156H111.785L107.706 37.5864L107.191 54.9708L112.617 60ZM131.524 60H136.276L139.919 55.1292L140.355 37.7052L135.523 32.676H128.356L124.95 37.5468L124.554 54.9708L131.524 60ZM133.781 35.2104L136.315 38.7348L135.523 54.7728L132.989 57.2676L127.801 53.5452L128.316 37.5072L130.059 35.0916L133.781 35.2104ZM144.712 32.8344L143.88 60H154.097L157.027 57.7032L157.305 46.734L153.701 44.358L156.79 37.0716L154.335 32.9532L144.712 32.8344ZM154.493 48.4368L154.295 55.8024L151.959 57.5052L148.157 57.1488L148.197 46.8924L151.84 46.2984L154.493 48.4368ZM150.414 44.2392L148.197 44.6748L148.236 35.3292L151.8 35.2896L153.265 37.4676L150.414 44.2392ZM167.334 60H172.086L175.729 55.1292L176.165 37.7052L171.334 32.676H164.166L160.76 37.5468L160.364 54.9708L167.334 60ZM169.591 35.2104L172.126 38.7348L171.334 54.7728L168.799 57.2676L163.612 53.5452L164.126 37.5072L165.869 35.0916L169.591 35.2104ZM37.9615 82.774L30.5959 72.7552L29.2099 73.3492L27.5467 100L30.6355 100.356L31.3483 79.6852L37.6051 87.8428L45.0103 79.804L45.7231 100.04L49.1683 99.8416L48.4159 74.1016L46.3567 72.7552L37.9615 82.774ZM68.0761 100L70.7689 99.4456L62.8489 72.5176H59.2057L50.8897 99.3268L54.7705 100.396L57.2653 90.8524L65.1061 90.1792L68.0761 100ZM61.1461 76.9924L64.5517 88.318L57.8197 88.714L61.1461 76.9924ZM82.6201 79.4872L87.9661 99.9604H91.8073L83.4913 72.8344H80.6005L71.8885 99.9604H75.2149L82.6201 79.4872ZM112.173 100.079L111.183 72.9928L107.817 72.7948L98.5898 91.8424L99.1046 72.874H94.7486L94.709 99.7228L97.3226 99.8416L107.421 79.0516L107.975 100.079H112.173ZM133.301 99.9604L133.341 72.7156H129.064L128.945 85.6252L120.035 85.4272L120.114 72.7156H116.907L117.382 99.9604H119.916L120.035 87.4864H128.945L128.787 99.9604H133.301ZM143.841 100H148.593L152.236 95.1292L152.672 77.7052L147.84 72.676H140.673L137.267 77.5468L136.871 94.9708L143.841 100ZM146.098 75.2104L148.632 78.7348L147.84 94.7728L145.306 97.2676L140.118 93.5452L140.633 77.5072L142.376 75.0916L146.098 75.2104ZM63.8296 112.834L62.998 140H73.2148L76.1452 137.703L76.4224 126.734L72.8188 124.358L75.9076 117.072L73.4524 112.953L63.8296 112.834ZM73.6108 128.437L73.4128 135.802L71.0764 137.505L67.2748 137.149L67.3144 126.892L70.9576 126.298L73.6108 128.437ZM69.532 124.239L67.3144 124.675L67.354 115.329L70.918 115.29L72.3832 117.468L69.532 124.239ZM79.9363 113.112L81.1243 137.862L83.6983 140H90.3511L92.1331 136.278L91.3807 126.932L88.6087 123.843L84.4111 123.526L83.9359 112.834L79.9363 113.112ZM99.6175 112.834H95.1031L95.4199 140H98.6275L99.6175 112.834ZM87.7375 126.219L88.6483 127.684L89.3611 136.08L88.5295 137.98L85.0447 137.584L84.5299 125.942L87.7375 126.219ZM114.911 106.063C113.762 106.974 112.733 107.37 111.743 107.37C110.317 107.37 108.971 106.617 107.426 105.548L105.605 108.003C107.149 109.389 108.931 110.023 110.634 110.023C112.653 110.023 114.554 109.152 115.861 107.726L114.911 106.063ZM117.168 140L116.178 112.636H113.604L108.614 132.318L108.733 112.755L104.377 112.676L106.357 140H108.971L114 119.685L115.109 140H117.168Z" fill="white"/>
</g>
<defs>
<clipPath id="clip0_551_1999">
<rect width="180" height="180" fill="white"/>
</clipPath>
</defs>
</svg>
