<svg width="180" height="180" viewBox="0 0 180 180" fill="none" xmlns="http://www.w3.org/2000/svg">
<g clip-path="url(#clip0_486_4006)">
<rect width="180" height="180" fill="#7452D2"/>
<circle cx="91" cy="82" r="49" fill="#E7B5E4"/>
<ellipse cx="91" cy="176" rx="131" ry="83" fill="#B842A5"/>
<path d="M58.5002 153.523C62.5002 139.923 52.8335 114.523 47.5002 103.523C70.3003 91.5229 115.667 96.5229 135.5 100.523C132 101.523 125 104.223 125 107.023C125 110.523 115 116.523 120 142.523C120.094 143.013 120.181 143.482 120.261 143.929C121.352 144.245 122.889 145.184 125 147.023C140.5 160.523 135.5 160.523 129.5 168.523C123.5 176.523 126.5 174.023 135.5 188.023C144.5 202.023 140 211.023 129.5 212.523C121.1 213.723 81.3333 215.023 62.5 215.523C61.1667 206.023 55.8002 184.423 45.0002 174.023C31.5002 161.023 53.5002 170.523 58.5002 153.523Z" fill="#DC72CB"/>
<path d="M39.8839 77.318C45.1111 76.4864 46.5367 72.2492 46.5367 68.7248C46.5367 65.3192 45.1903 62.1116 39.7255 62.1116H37.7059L36.7159 63.458L36.6763 89L40.1611 88.6436L39.8839 77.318ZM43.9231 69.2C43.9231 72.0908 42.4975 74.2688 39.8443 75.0212L39.7255 64.5668C42.5767 64.844 43.9231 66.5468 43.9231 69.2ZM54.832 89H59.584L63.2272 84.1292L63.6628 66.7052L58.8316 61.676H51.664L48.2584 66.5468L47.8624 83.9708L54.832 89ZM57.0892 64.2104L59.6236 67.7348L58.8316 83.7728L56.2972 86.2676L51.1096 82.5452L51.6244 66.5072L53.3668 64.0916L57.0892 64.2104ZM64.8521 88.4852L76.336 88.802L78.4744 79.9712L77.8012 77.1596L73.7224 74.6252L76.5736 72.0116L77.6428 64.1312L73.2472 61.9136L65.8421 63.8144L66.9113 67.1804L71.7424 64.5668L73.6828 65.5172L73.6432 71.0216L71.4256 73.8332H67.7825V76.2488L71.1088 76.328L74.752 79.5356L73.3264 86.3072L65.3669 85.0004L64.8521 88.4852ZM87.8191 89H92.5711L96.2143 84.1292L96.6499 66.7052L91.8187 61.676H84.6511L81.2455 66.5468L80.8495 83.9708L87.8191 89ZM90.0763 64.2104L92.6107 67.7348L91.8187 83.7728L89.2843 86.2676L84.0967 82.5452L84.6115 66.5072L86.3539 64.0916L90.0763 64.2104ZM101.007 61.8344L100.176 89H110.392L113.323 86.7032L113.6 75.734L109.996 73.358L113.085 66.0716L110.63 61.9532L101.007 61.8344ZM110.788 77.4368L110.59 84.8024L108.254 86.5052L104.452 86.1488L104.492 75.8924L108.135 75.2984L110.788 77.4368ZM106.71 73.2392L104.492 73.6748L104.532 64.3292L108.096 64.2896L109.561 66.4676L106.71 73.2392ZM117.114 62.1116L118.302 86.8616L120.876 89H127.529L129.311 85.2776L128.558 75.932L125.786 72.8432L121.589 72.5264L121.113 61.8344L117.114 62.1116ZM136.795 61.8344H132.281L132.597 89H135.805L136.795 61.8344ZM124.915 75.2192L125.826 76.6844L126.539 85.0796L125.707 86.9804L122.222 86.5844L121.707 74.942L124.915 75.2192ZM152.088 55.0628C150.94 55.9736 149.91 56.3696 148.92 56.3696C147.494 56.3696 146.148 55.6172 144.604 54.548L142.782 57.0032C144.326 58.3892 146.108 59.0228 147.811 59.0228C149.831 59.0228 151.732 58.1516 153.038 56.726L152.088 55.0628ZM154.345 89L153.355 61.6364H150.781L145.792 81.3176L145.91 61.7552L141.554 61.676L143.534 89H146.148L151.177 68.6852L152.286 89H154.345ZM46.831 128.485L58.315 128.802L60.4534 119.971L59.7802 117.16L55.7014 114.625L58.5526 112.012L59.6218 104.131L55.2262 101.914L47.821 103.814L48.8902 107.18L53.7214 104.567L55.6618 105.517L55.6222 111.022L53.4046 113.833H49.7614V116.249L53.0878 116.328L56.731 119.536L55.3054 126.307L47.3458 125L46.831 128.485ZM78.57 129L81.2628 128.446L73.3428 101.518H69.6996L61.3837 128.327L65.2644 129.396L67.7592 119.852L75.6 119.179L78.57 129ZM71.64 105.992L75.0456 117.318L68.3136 117.714L71.64 105.992ZM89.5501 113.754L97.3117 129.119L101.272 127.733L91.2133 112.13L99.6085 104.131L97.4305 101.914L89.2729 111.536H88.4413L88.5205 101.953L84.5605 101.755L84.2041 129.158L88.1245 128.96L88.2433 113.912L89.5501 113.754ZM119.756 129L122.448 128.446L114.528 101.518H110.885L102.569 128.327L106.45 129.396L108.945 119.852L116.786 119.179L119.756 129ZM112.826 105.992L116.231 117.318L109.499 117.714L112.826 105.992ZM135.26 101.557L119.539 102.468L119.697 104.686H125.756L125.241 128.881L128.647 128.406L129.835 104.686L135.102 104.765L135.26 101.557Z" fill="white"/>
</g>
<defs>
<clipPath id="clip0_486_4006">
<rect width="180" height="180" fill="white"/>
</clipPath>
</defs>
</svg>
