<svg width="180" height="180" viewBox="0 0 180 180" fill="none" xmlns="http://www.w3.org/2000/svg">
<g clip-path="url(#clip0_492_3144)">
<rect width="180" height="180" fill="#F0C3E9"/>
<path d="M167.5 100.5C190.3 102.5 160 154.5 125.5 167L139.5 189C190.5 162 195.833 108.167 193.5 86.5L167.5 100.5Z" fill="#938CE3"/>
<path d="M124.5 62.8713C121.531 80.956 108.517 119.842 99.8059 144.371C112.528 114.361 159.02 87.715 181.823 77.7228C188.056 82.4581 199.102 92.8327 193.429 96.4487C186.337 100.969 168 96.4487 152 112C130.89 132.518 133.469 165.541 130.89 171.352C128.311 177.164 123.154 181.684 118.64 184.912C114.127 188.141 58.5 209 54.8123 160.5C52.6894 132.581 28.3784 93.2201 27.089 82.2429C25.7995 71.2656 38.6941 62.8713 54.8123 62.8713C67.7068 62.8713 90.0576 86.1172 98.0093 94.5115L83 126C81.2807 112.44 72.8649 80.8223 62.5493 77.7228C49.6547 73.8485 52.2336 79.0143 62.5493 103.552C70.8018 123.181 78.1404 136.821 79 145C79 132.086 80.6016 132.609 98.0093 96.4487C115.417 60.2884 108.97 11.8594 106.391 13.1509C104.328 14.184 97.7944 26.0652 94.7857 31.8767H86.4042L75.4438 62.8713L69.6413 60.2884L80.6016 31.8767L75.4438 26.711C79.3122 14.4424 98.0093 0.236521 108.97 3.46512C119.93 6.69372 128.846 36.3968 124.5 62.8713Z" fill="#938CE3"/>
<path d="M13.3408 88.498C18.04 87.7504 19.3216 83.9412 19.3216 80.7728C19.3216 77.7112 18.1112 74.8276 13.1984 74.8276H11.3828L10.4928 76.038L10.4572 99L13.59 98.6796L13.3408 88.498ZM16.972 81.2C16.972 83.7988 15.6904 85.7568 13.3052 86.4332L13.1984 77.0348C15.7616 77.284 16.972 78.8148 16.972 81.2ZM26.779 99H31.051L34.3262 94.6212L34.7178 78.9572L30.3746 74.436H23.931L20.8694 78.8148L20.5134 94.4788L26.779 99ZM28.8082 76.7144L31.0866 79.8828L30.3746 94.3008L28.0962 96.5436L23.4326 93.1972L23.8954 78.7792L25.4618 76.6076L28.8082 76.7144ZM35.7869 98.5372L46.1109 98.822L48.0333 90.8832L47.4281 88.3556L43.7613 86.0772L46.3245 83.7276L47.2857 76.6432L43.3341 74.6496L36.6769 76.3584L37.6381 79.3844L41.9813 77.0348L43.7257 77.8892L43.6901 82.8376L41.6965 85.3652H38.4213V87.5368L41.4117 87.608L44.6869 90.4916L43.4053 96.5792L36.2497 95.4044L35.7869 98.5372ZM56.4341 99H60.7061L63.9813 94.6212L64.3729 78.9572L60.0297 74.436H53.5861L50.5245 78.8148L50.1685 94.4788L56.4341 99ZM58.4633 76.7144L60.7417 79.8828L60.0297 94.3008L57.7513 96.5436L53.0877 93.1972L53.5505 78.7792L55.1169 76.6076L58.4633 76.7144ZM68.29 74.5784L67.5424 99H76.7272L79.3616 96.9352L79.6108 87.074L76.3712 84.938L79.148 78.3876L76.9408 74.6852L68.29 74.5784ZM77.0832 88.6048L76.9052 95.2264L74.8048 96.7572L71.3872 96.4368L71.4228 87.2164L74.698 86.6824L77.0832 88.6048ZM73.4164 84.8312L71.4228 85.2228L71.4584 76.8212L74.6624 76.7856L75.9796 78.7436L73.4164 84.8312ZM82.7697 74.8276L83.8377 97.0776L86.1517 99H92.1325L93.7345 95.6536L93.0581 87.252L90.5661 84.4752L86.7925 84.1904L86.3653 74.5784L82.7697 74.8276ZM100.463 74.5784H96.4045L96.6893 99H99.5729L100.463 74.5784ZM89.7829 86.6112L90.6017 87.9284L91.2425 95.4756L90.4949 97.1844L87.3621 96.8284L86.8993 86.362L89.7829 86.6112ZM114.211 68.4908C113.179 69.3096 112.253 69.6656 111.363 69.6656C110.082 69.6656 108.871 68.9892 107.483 68.028L105.845 70.2352C107.234 71.4812 108.836 72.0508 110.366 72.0508C112.182 72.0508 113.891 71.2676 115.066 69.986L114.211 68.4908ZM116.24 99L115.35 74.4004H113.036L108.551 92.0936L108.658 74.5072L104.742 74.436L106.522 99H108.871L113.392 80.7372L114.389 99H116.24ZM132.296 99H139.345L141.445 94.4788L138.739 93.126L137.351 96.152L133.328 96.0096L130.801 92.8412L131.513 79.1708L133.328 76.8212L136.781 77.4976L138.277 80.7728L140.804 79.4556L138.561 74.4716H131.548L127.881 78.8504L127.419 94.4788L132.296 99ZM157.944 99L160.365 98.5016L153.245 74.2936H149.969L142.493 98.3948L145.982 99.356L148.225 90.7764L155.274 90.1712L157.944 99ZM151.714 78.3164L154.775 88.498L148.723 88.854L151.714 78.3164ZM163.472 102.382L162.902 98.9644H177.569V102.24L179.634 102.489L180.097 97.8608L179.492 96.864L176.501 96.9352L173.546 75.1836L172.478 74.2224H169.417L163.756 97.1132L161.122 97.1488L160.588 97.932L161.193 102.56L163.472 102.382ZM170.485 77.5332L172.906 96.9708L166.248 97.0776L170.485 77.5332Z" fill="white"/>
</g>
<defs>
<clipPath id="clip0_492_3144">
<rect width="180" height="180" fill="white"/>
</clipPath>
</defs>
</svg>
