<svg width="180" height="180" viewBox="0 0 180 180" fill="none" xmlns="http://www.w3.org/2000/svg">
<g clip-path="url(#clip0_480_2331)">
<rect width="180" height="180" fill="#CC4163"/>
<rect x="32" y="90" width="58" height="55" fill="#FFBE3F"/>
<rect x="90" y="90" width="58" height="55" fill="#F06083"/>
<rect x="32" y="35" width="58" height="55" fill="#E8426A"/>
<rect x="90" y="35" width="58" height="55" fill="#A24058"/>
<path d="M18.6543 99H22.1787L21.7159 75.2192L20.6835 74.2936L6.37228 74.5072L6.37228 98.7508L10.3951 99.2136V76.2516H18.9035L18.6543 99ZM42.1664 99.0712L41.2764 74.7208L38.2504 74.5428L29.9556 91.6664L30.4184 74.614H26.5024L26.4668 98.7508L28.8164 98.8576L37.8944 80.1676L38.3928 99.0712H42.1664ZM51.2283 85.294L58.2059 99.1068L61.7659 97.8608L52.7235 83.8344L60.2707 76.6432L58.3127 74.6496L50.9791 83.3004H50.2315L50.3027 74.6852L46.7427 74.5072L46.4223 99.1424L49.9467 98.9644L50.0535 85.4364L51.2283 85.294ZM67.2666 99H74.3154L76.4158 94.4788L73.7102 93.126L72.3218 96.152L68.299 96.0096L65.7714 92.8412L66.4834 79.1708L68.299 76.8212L71.7522 77.4976L73.2474 80.7728L75.775 79.4556L73.5322 74.4716H66.519L62.8522 78.8504L62.3894 94.4788L67.2666 99ZM81.6296 78.2096L88.892 77.818V74.6496H79.6004L79.102 99H88.892V95.974L81.1312 95.2976L81.3448 87.5724L87.1476 88.3556V85.7568H81.416L81.6296 78.2096ZM100.219 80.5592L105.025 98.9644H108.478L101.002 74.5784H98.403L90.571 98.9644H93.5614L100.219 80.5592ZM116.533 74.4716H112.617L111.086 99H118.99L124.401 95.44L124.65 88.2844L121.766 85.116L115.786 86.54L116.533 74.4716ZM120.271 88.0352L121.766 89.6016L121.553 94.0516L117.174 96.864L115.216 96.4724L115.679 89.1032L120.271 88.0352ZM134.592 88.32L134.165 99H136.977V74.614H128.326L126.155 77.5688V85.8636L127.97 88.32H130.142L126.012 98.466L129.038 99.356L133.025 88.32H134.592ZM134.592 86.006H130.142L128.789 84.5108V78.6724L130.284 76.7856H134.592V86.006ZM144.396 88.9964L153.652 88.8184L156.82 86.1484L156.856 78.3876L153.474 74.6496H141.263V99H144.289L144.396 88.9964ZM144.396 86.8604L144.503 77.1772L151.48 77.6044L154.079 79.5268L153.403 84.8312L151.729 86.7892L144.396 86.8604ZM159.595 102.382L159.026 98.9644H173.693V102.24L175.758 102.489L176.22 97.8608L175.615 96.864L172.625 96.9352L169.67 75.1836L168.602 74.2224H165.54L159.88 97.1132L157.246 97.1488L156.712 97.932L157.317 102.56L159.595 102.382ZM166.608 77.5332L169.029 96.9708L162.372 97.0776L166.608 77.5332Z" fill="white"/>
</g>
<defs>
<clipPath id="clip0_480_2331">
<rect width="180" height="180" fill="white"/>
</clipPath>
</defs>
</svg>
