<svg width="180" height="180" viewBox="0 0 180 180" fill="none" xmlns="http://www.w3.org/2000/svg">
<g clip-path="url(#clip0_486_4013)">
<rect width="180" height="180" fill="#6B291A"/>
<path d="M31.5 143L13 116.5L144.5 42L161 63C99.8 95.4 121 136.833 145 150L134.5 157.5C88.5 109.9 45 129.833 31.5 143Z" fill="#B842A5"/>
<path d="M39.4873 79.5248L39.7645 52.7948H35.7253L24.2413 74.7332L24.1225 52.9136L20.2021 53.3888L20.9149 79.9604H24.1225L36.1609 56.6756L35.9233 79.9604L39.4873 79.5248ZM48.2887 55.7252L55.8127 55.844L56.0899 52.9136H44.5267V80.1584H48.8827L48.2887 55.7252ZM61.9334 68.8724L72.2294 68.6744L75.7538 65.7044L75.7934 57.0716L72.0314 52.9136H58.4486V80H61.8146L61.9334 68.8724ZM61.9334 66.4964L62.0522 55.7252L69.8138 56.2004L72.7046 58.3388L71.9522 64.2392L70.091 66.4172L61.9334 66.4964ZM95.7896 80.0792L94.7995 52.9928L91.4336 52.7948L82.2068 71.8424L82.7216 52.874H78.3656L78.326 79.7228L80.9396 79.8416L91.0375 59.0516L91.5919 80.0792H95.7896ZM104.761 80H112.602L114.938 74.9708L111.928 73.466L110.384 76.832L105.909 76.6736L103.098 73.1492L103.89 57.9428L105.909 55.3292L109.75 56.0816L111.414 59.7248L114.225 58.2596L111.73 52.7156H103.929L99.8504 57.5864L99.3356 74.9708L104.761 80ZM130.658 52.5572L114.937 53.468L115.095 55.6856H121.154L120.639 79.8812L124.045 79.406L125.233 55.6856L130.5 55.7648L130.658 52.5572ZM145.627 80L148.32 79.4456L140.4 52.5176L136.757 52.5176L128.441 79.3268L132.321 80.396L134.816 70.8524L142.657 70.1792L145.627 80ZM138.697 56.9924L142.103 68.318L135.371 68.714L138.697 56.9924ZM159.309 68.12L158.834 80H161.962V52.874H152.34L149.924 56.1608V65.3876L151.944 68.12H154.359L149.766 79.406L153.132 80.396L157.567 68.12H159.309ZM159.309 65.546H154.359L152.854 63.8828V57.3884L154.518 55.2896H159.309V65.546ZM36.795 120H44.6358L46.9722 114.971L43.9626 113.466L42.4182 116.832L37.9434 116.674L35.1318 113.149L35.9238 97.9428L37.9434 95.3292L41.7846 96.0816L43.4478 99.7248L46.2594 98.2596L43.7646 92.7156H35.9634L31.8846 97.5864L31.3698 114.971L36.795 120ZM62.6922 92.5572L46.971 93.468L47.1294 95.6856H53.1882L52.6734 119.881L56.079 119.406L57.267 95.6856L62.5338 95.7648L62.6922 92.5572ZM68.6816 108.872L78.9776 108.674L82.502 105.704L82.5416 97.0716L78.7796 92.9136H65.1969V120H68.5629L68.6816 108.872ZM68.6816 106.496L68.8004 95.7252L76.562 96.2004L79.4528 98.3388L78.7004 104.239L76.8392 106.417L68.6816 106.496ZM98.3894 120L101.082 119.446L93.1622 92.5176H89.519L81.203 119.327L85.0838 120.396L87.5786 110.852L95.4194 110.179L98.3894 120ZM91.4594 96.9924L94.865 108.318L88.133 108.714L91.4594 96.9924ZM108.261 120H116.101L118.438 114.971L115.428 113.466L113.884 116.832L109.409 116.674L106.597 113.149L107.389 97.9428L109.409 95.3292L113.25 96.0816L114.913 99.7248L117.725 98.2596L115.23 92.7156H107.429L103.35 97.5864L102.835 114.971L108.261 120ZM134.158 92.5572L118.437 93.468L118.595 95.6856H124.654L124.139 119.881L127.545 119.406L128.733 95.6856L133.999 95.7648L134.158 92.5572ZM142.721 92.7156H138.365L136.662 120H145.454L151.473 116.04L151.75 108.08L148.542 104.556L141.89 106.14L142.721 92.7156ZM146.879 107.803L148.542 109.546L148.305 114.496L143.434 117.624L141.256 117.188L141.771 108.991L146.879 107.803Z" fill="white"/>
</g>
<defs>
<clipPath id="clip0_486_4013">
<rect width="180" height="180" fill="white"/>
</clipPath>
</defs>
</svg>
