<svg width="180" height="180" viewBox="0 0 180 180" fill="none" xmlns="http://www.w3.org/2000/svg">
<g clip-path="url(#clip0_486_3997)">
<rect width="180" height="180" fill="#9D4633"/>
<path d="M93.9262 50.1825L118.041 62.7458L135.517 85.2026L124.98 105.428L117.914 105.702L123.869 113.255L110.796 132.653L102.108 136.04L103.298 147.044L91.7738 155.875L68.1368 149.989L47.523 139.25L39.3552 134.995L37.956 113.002L48.1108 103.951L41.1752 96.3818L50.0911 79.2684L60.4715 80.2259L55.3596 69.156L60.6281 59.0435L93.9262 50.1825Z" fill="#58B748"/>
<path d="M97.2729 49.4534L100.446 43.3623C93.6438 25.3809 74.913 21.5569 65.5594 22.0518L66.6705 14.224C85.3932 13.428 97.7965 25.8904 104.116 36.3181L108.823 27.2838L133.846 32.4083L118.511 58.0457L97.2729 49.4534Z" fill="#242320"/>
<path fill-rule="evenodd" clip-rule="evenodd" d="M82.6615 46.8168C85.1213 44.5629 87.8743 40.9165 90.2327 36.3897C92.5911 31.8629 94.002 27.5172 94.4395 24.2098C94.6598 22.5447 94.6134 21.2889 94.4186 20.4562C94.2714 19.8267 94.0922 19.6285 94.0426 19.5851C93.9786 19.5694 93.7135 19.5361 93.1132 19.7761C92.3192 20.0936 91.2635 20.7752 90.0251 21.9099C87.5652 24.1638 84.8123 27.8102 82.4539 32.337C80.0955 36.8638 78.6846 41.2094 78.247 44.5169C78.0268 46.182 78.0731 47.4378 78.2679 48.2704C78.4152 48.9 78.5944 49.0982 78.6439 49.1416C78.7079 49.1573 78.9731 49.1906 79.5734 48.9506C80.3674 48.6331 81.4231 47.9515 82.6615 46.8168ZM78.6281 49.1365C78.6282 49.1364 78.6306 49.1371 78.6353 49.1392C78.6304 49.1377 78.628 49.1367 78.6281 49.1365ZM78.6508 49.1473C78.6552 49.1499 78.6573 49.1515 78.6572 49.1517C78.6571 49.1518 78.6549 49.1505 78.6508 49.1473ZM94.0585 19.5902C94.0584 19.5903 94.0559 19.5896 94.0512 19.5874C94.0562 19.5889 94.0585 19.59 94.0585 19.5902ZM94.0358 19.5794C94.0313 19.5768 94.0293 19.5751 94.0294 19.575C94.0294 19.5749 94.0317 19.5762 94.0358 19.5794ZM77.4274 51.4767C80.8643 53.2673 87.6422 47.0569 92.5663 37.6055C97.4904 28.154 98.6961 19.0406 95.2592 17.25C91.8223 15.4594 85.0443 21.6697 80.1202 31.1212C75.1961 40.5726 73.9905 49.6861 77.4274 51.4767Z" fill="#242320"/>
<path d="M7.9713 57.3884L15.3765 56.7152L15.0993 53.0324L5.5557 53.072L5.1201 80H7.7337L7.9713 57.3884ZM21.2506 68.8724L31.5466 68.6744L35.071 65.7044L35.1106 57.0716L31.3486 52.9136H17.7658V80H21.1318L21.2506 68.8724ZM21.2506 66.4964L21.3694 55.7252L29.131 56.2004L32.0218 58.3388L31.2694 64.2392L29.4082 66.4172L21.2506 66.4964ZM50.9583 80L53.6511 79.4456L45.7311 52.5176H42.0879L33.7719 79.3268L37.6527 80.396L40.1475 70.8524L47.9883 70.1792L50.9583 80ZM44.0283 56.9924L47.4339 68.318L40.7019 68.714L44.0283 56.9924ZM72.9868 79.9604L73.0264 52.7156H68.7496L68.6308 65.6252L59.7208 65.4272L59.8 52.7156H56.5924L57.0676 79.9604H59.602L59.7208 67.4864H68.6308L68.4724 79.9604H72.9868ZM93.1493 80L95.8421 79.4456L87.9221 52.5176H84.2789L75.9629 79.3268L79.8437 80.396L82.3385 70.8524L90.1793 70.1792L93.1493 80ZM86.2193 56.9924L89.6249 68.318L82.8929 68.714L86.2193 56.9924ZM108.654 52.5572L92.9325 53.468L93.0909 55.6856H99.1497L98.6349 79.8812L102.04 79.406L103.228 55.6856L108.495 55.7648L108.654 52.5572ZM116.05 80H120.802L124.445 75.1292L124.88 57.7052L120.049 52.676H112.882L109.476 57.5468L109.08 74.9708L116.05 80ZM118.307 55.2104L120.841 58.7348L120.049 74.7728L117.515 77.2676L112.327 73.5452L112.842 57.5072L114.584 55.0916L118.307 55.2104ZM129.238 52.8344L128.406 80H138.623L141.553 77.7032L141.83 66.734L138.227 64.358L141.316 57.0716L138.86 52.9532L129.238 52.8344ZM139.019 68.4368L138.821 75.8024L136.484 77.5052L132.683 77.1488L132.722 66.8924L136.366 66.2984L139.019 68.4368ZM134.94 64.2392L132.722 64.6748L132.762 55.3292L136.326 55.2896L137.791 57.4676L134.94 64.2392ZM160.709 80L163.402 79.4456L155.482 52.5176H151.839L143.523 79.3268L147.403 80.396L149.898 70.8524L157.739 70.1792L160.709 80ZM153.779 56.9924L157.185 68.318L150.453 68.714L153.779 56.9924ZM174.391 68.12L173.916 80H177.044V52.874H167.422L165.006 56.1608V65.3876L167.026 68.12H169.441L164.848 79.406L168.214 80.396L172.649 68.12H174.391ZM174.391 65.546H169.441L167.936 63.8828V57.3884L169.6 55.2896H174.391V65.546ZM40.4117 102.774L33.0461 92.7552L31.6601 93.3492L29.9969 120L33.0857 120.356L33.7985 99.6852L40.0553 107.843L47.4605 99.804L48.1733 120.04L51.6185 119.842L50.8661 94.1016L48.8069 92.7552L40.4117 102.774ZM72.6251 120.079L71.6351 92.9928L68.2691 92.7948L59.0423 111.842L59.5571 92.874H55.2011L55.1615 119.723L57.7751 119.842L67.8731 99.0516L68.4275 120.079H72.6251ZM86.586 102.774L79.2204 92.7552L77.8344 93.3492L76.1712 120L79.26 120.356L79.9728 99.6852L86.2296 107.843L93.6348 99.804L94.3476 120.04L97.7928 119.842L97.0404 94.1016L94.9812 92.7552L86.586 102.774ZM108.354 120H113.106L116.749 115.129L117.185 97.7052L112.353 92.676H105.186L101.78 97.5468L101.384 114.971L108.354 120ZM110.611 95.2104L113.145 98.7348L112.353 114.773L109.819 117.268L104.631 113.545L105.146 97.5072L106.889 95.0916L110.611 95.2104ZM118.374 119.485L129.858 119.802L131.996 110.971L131.323 108.16L127.244 105.625L130.096 103.012L131.165 95.1312L126.769 92.9136L119.364 94.8144L120.433 98.1804L125.264 95.5668L127.205 96.5172L127.165 102.022L124.948 104.833H121.304V107.249L124.631 107.328L128.274 110.536L126.848 117.307L118.889 116L118.374 119.485ZM150.113 120L152.806 119.446L144.886 92.5176H141.243L132.927 119.327L136.807 120.396L139.302 110.852L147.143 110.179L150.113 120ZM143.183 96.9924L146.589 108.318L139.857 108.714L143.183 96.9924Z" fill="white"/>
</g>
<defs>
<clipPath id="clip0_486_3997">
<rect width="180" height="180" fill="white"/>
</clipPath>
</defs>
</svg>
