<svg width="180" height="180" viewBox="0 0 180 180" fill="none" xmlns="http://www.w3.org/2000/svg">
<g clip-path="url(#clip0_480_2316)">
<rect width="180" height="180" fill="#1E6CA5"/>
<path fill-rule="evenodd" clip-rule="evenodd" d="M140.515 18.5737C142.019 17.4111 143.785 17.322 145.882 18.4108C148.077 19.5501 150.412 21.9222 152.289 25.2093C156.053 31.8014 157.425 41.0447 153.113 48.6291C148.064 57.5098 146.284 65.2506 146.742 71.7989C147.202 78.3658 149.901 83.5428 153.463 87.2655C154.528 88.3779 155.4 90.4988 155.754 93.2612C156.099 95.9591 155.899 98.8845 155.199 101.268C154.469 103.755 153.375 105.1 152.393 105.541C151.926 105.75 151.147 105.892 149.953 105.416C142.481 87.7185 131.792 57.5273 131.589 40.9238C131.619 40.4258 131.666 39.8736 131.734 39.2702C131.965 37.2251 132.408 34.7965 133.081 32.2947C133.205 32.0598 133.337 31.8367 133.478 31.6258C133.391 31.6853 133.303 31.7452 133.215 31.8053C133.218 31.795 133.221 31.7846 133.224 31.7742C134.771 26.2609 137.265 21.0864 140.515 18.5737ZM127.163 35.939C127.464 34.1898 127.878 32.3172 128.41 30.4231C130.021 24.6846 132.872 18.1623 137.457 14.6179C140.851 11.9949 144.788 12.2093 148.186 13.973C151.486 15.6862 154.44 18.8939 156.631 22.7299C161.002 30.3842 162.883 41.561 157.459 51.1003C152.773 59.3432 151.357 66.1082 151.73 71.4499C152.103 76.7729 154.264 80.8703 157.075 83.8084C159.198 86.0264 160.297 89.3764 160.713 92.6255C161.138 95.9391 160.909 99.5658 159.997 102.675C159.115 105.681 157.415 108.769 154.438 110.103C151.751 111.308 148.806 110.771 145.869 108.885C126.236 108.639 85.8973 127.89 63.6862 140.038C62.4012 142.348 60.7364 144.763 58.8429 147.103C55.4514 151.292 51.159 155.446 46.5771 158.539C42.0454 161.597 36.9476 163.808 32.016 163.644C26.8385 163.472 22.3119 160.702 19.194 154.846C16.2788 149.371 15.4447 144.933 16.2486 141.078C17.045 137.258 19.3609 134.485 21.6467 132.195C22.4043 131.436 23.1511 130.726 23.8704 130.041C27.749 126.349 30.8306 123.416 30.5132 117.781C30.3372 114.655 28.6282 111.991 25.886 109.544C23.1213 107.076 19.5732 105.065 16.1847 103.212C15.9665 103.093 15.7482 102.974 15.5306 102.855L15.5284 102.854L15.5281 102.854L15.528 102.854C14.1018 102.076 12.7028 101.313 11.5024 100.579C10.1562 99.7564 8.80549 98.8236 7.88209 97.7527C6.90475 96.6192 6.06732 94.8809 6.89084 92.8926C7.56298 91.2698 9.13309 90.1293 10.8148 89.2339C16.5882 86.1599 23.0142 86.1156 28.5017 87.1574C30.4119 87.52 32.2414 88.02 33.9347 88.5912C63.2094 78.9156 104.519 51.3716 127.163 35.939ZM54.9565 143.957C57.226 141.153 58.9935 138.409 60.1115 136.077C58.0297 122.086 44.5073 104.675 34.6386 94.1885C32.581 93.3438 30.1576 92.561 27.5692 92.0696C22.7248 91.15 17.5753 91.2989 13.1646 93.6473C12.3959 94.0566 11.9714 94.3727 11.745 94.5724C12.1471 95.0032 12.8998 95.5733 14.1096 96.3126C15.1967 96.9768 16.4733 97.6735 17.9133 98.4594C18.133 98.5793 18.3565 98.7013 18.5837 98.8256C21.9276 100.654 25.9644 102.912 29.2154 105.813C32.4887 108.735 35.2261 112.541 35.5053 117.5C35.9637 125.64 30.9426 130.321 27.0166 133.981L27.0163 133.982L27.0159 133.982C26.3657 134.588 25.7457 135.166 25.1855 135.728C23.0785 137.839 21.6332 139.749 21.1433 142.098C20.6609 144.412 21.0155 147.628 23.6074 152.496C25.9968 156.984 29.0178 158.542 32.1818 158.647C35.5916 158.76 39.6292 157.196 43.7799 154.394C47.8805 151.627 51.8178 147.834 54.9565 143.957Z" fill="#71C3FF"/>
<path d="M10.6547 74.436L7.16591 82.1256V74.436H3.85511L3.71271 99.0712H7.09471L7.13031 87.9996L12.2211 99.0712L15.3183 97.398L7.84231 85.1872L12.3991 75.8244L10.6547 74.436ZM31.2232 99L33.644 98.5016L26.524 74.2936H23.2488L15.7728 98.3948L19.2616 99.356L21.5044 90.7764L28.5532 90.1712L31.2232 99ZM24.9932 78.3164L28.0548 88.498L22.0028 88.854L24.9932 78.3164ZM39.4209 88.9964L48.6769 88.8184L51.8453 86.1484L51.8809 78.3876L48.4989 74.6496H36.2881V99H39.3141L39.4209 88.9964ZM39.4209 86.8604L39.5277 77.1772L46.5053 77.6044L49.1041 79.5268L48.4277 84.8312L46.7545 86.7892L39.4209 86.8604ZM66.1279 99L68.5487 98.5016L61.4287 74.2936H58.1535L50.6775 98.3948L54.1663 99.356L56.4091 90.7764L63.4579 90.1712L66.1279 99ZM59.8979 78.3164L62.9595 88.498L56.9075 88.854L59.8979 78.3164ZM85.9312 98.9644L85.9668 74.4716H82.122L82.0152 86.0772L74.0052 85.8992L74.0764 74.4716H71.1928L71.62 98.9644H73.8984L74.0052 87.7504H82.0152L81.8728 98.9644H85.9312ZM102.455 74.3292L88.322 75.148L88.4644 77.1416H93.9112L93.4484 98.8932L96.51 98.466L97.578 77.1416L102.313 77.2128L102.455 74.3292ZM120.406 99.0712L119.516 74.7208L116.49 74.5428L108.196 91.6664L108.658 74.614H104.742L104.707 98.7508L107.056 98.8576L116.134 80.1676L116.633 99.0712H120.406ZM139.401 98.9644L139.436 74.4716H135.592L135.485 86.0772L127.475 85.8992L127.546 74.4716H124.662L125.09 98.9644H127.368L127.475 87.7504H135.485L135.342 98.9644H139.401ZM148.52 85.294L155.497 99.1068L159.057 97.8608L150.015 83.8344L157.562 76.6432L155.604 74.6496L148.271 83.3004H147.523L147.594 74.6852L144.034 74.5072L143.714 99.1424L147.238 98.9644L147.345 85.4364L148.52 85.294ZM175.674 99L178.095 98.5016L170.975 74.2936H167.7L160.224 98.3948L163.713 99.356L165.956 90.7764L173.004 90.1712L175.674 99ZM169.444 78.3164L172.506 88.498L166.454 88.854L169.444 78.3164Z" fill="white"/>
</g>
<defs>
<clipPath id="clip0_480_2316">
<rect width="180" height="180" fill="white"/>
</clipPath>
</defs>
</svg>
