<svg width="180" height="180" viewBox="0 0 180 180" fill="none" xmlns="http://www.w3.org/2000/svg">
<g clip-path="url(#clip0_480_1937)">
<rect width="180" height="180" fill="#713FFF"/>
<path d="M147.453 103.137C153.949 120.508 151.202 141.171 133.832 147.667C116.461 154.163 102.532 141.728 96.0359 124.357C89.5401 106.987 95.5512 98.248 112.922 91.7522C130.292 85.2563 140.957 85.767 147.453 103.137Z" fill="#C01A6A"/>
<path d="M76.9757 77.0947C68.133 87.173 54.0321 92.49 43.9538 83.6473C33.8756 74.8046 37.0325 61.6794 45.8752 51.6011C54.7179 41.5229 62.3398 42.3632 72.4181 51.2059C82.4963 60.0486 85.8185 67.0165 76.9757 77.0947Z" fill="#C01A6A"/>
<path d="M114.646 -7.96532C120.634 -3.86282 124.401 3.37317 120.299 9.36074C116.196 15.3483 108.938 14.4985 102.95 10.396C96.9628 6.29348 96.9226 2.14255 101.025 -3.84501C105.128 -9.83258 108.658 -12.0678 114.646 -7.96532Z" fill="#C01A6A"/>
<path d="M28.0871 60.3168L31.4135 37.2696L37.2743 51.486H39.7691L46.3823 38.3388L48.5207 60.2772L52.7183 59.9604L49.8671 33.468L46.5407 32.9928L38.5811 48.5952L32.2055 32.9136L29.3147 33.3096L24.0083 59.7228L28.0871 60.3168ZM71.6146 60L74.3074 59.4456L66.3874 32.5176H62.7442L54.4282 59.3268L58.309 60.396L60.8038 50.8524L68.6446 50.1792L71.6146 60ZM64.6846 36.9924L68.0902 48.318L61.3582 48.714L64.6846 36.9924ZM86.1586 39.4872L91.5046 59.9604H95.3458L87.0298 32.8344H84.139L75.427 59.9604H78.7534L86.1586 39.4872ZM115.711 60.0792L114.721 32.9928L111.355 32.7948L102.128 51.8424L102.643 32.874H98.287L98.2474 59.7228L100.861 59.8416L110.959 39.0516L111.513 60.0792H115.711ZM136.839 59.9604L136.879 32.7156L132.602 32.7156L132.483 45.6252L123.573 45.4272L123.653 32.7156H120.445L120.92 59.9604H123.455L123.573 47.4864H132.483L132.325 59.9604H136.839ZM147.379 60H152.131L155.774 55.1292L156.21 37.7052L151.379 32.676H144.211L140.806 37.5468L140.41 54.9708L147.379 60ZM149.636 35.2104L152.171 38.7348L151.379 54.7728L148.844 57.2676L143.657 53.5452L144.172 37.5072L145.914 35.0916L149.636 35.2104ZM63.8296 72.8344L62.998 100H73.2148L76.1452 97.7032L76.4224 86.734L72.8188 84.358L75.9076 77.0716L73.4524 72.9532L63.8296 72.8344ZM73.6108 88.4368L73.4128 95.8024L71.0764 97.5052L67.2748 97.1488L67.3144 86.8924L70.9576 86.2984L73.6108 88.4368ZM69.532 84.2392L67.3144 84.6748L67.354 75.3292L70.918 75.2896L72.3832 77.4676L69.532 84.2392ZM79.9363 73.1116L81.1243 97.8616L83.6983 100H90.3511L92.1331 96.2776L91.3807 86.932L88.6087 83.8432L84.4111 83.5264L83.9359 72.8344L79.9363 73.1116ZM99.6175 72.8344H95.1031L95.4199 100H98.6275L99.6175 72.8344ZM87.7375 86.2192L88.6483 87.6844L89.3611 96.0796L88.5295 97.9804L85.0447 97.5844L84.5299 85.942L87.7375 86.2192ZM114.911 66.0628C113.762 66.9736 112.733 67.3696 111.743 67.3696C110.317 67.3696 108.971 66.6172 107.426 65.548L105.605 68.0032C107.149 69.3892 108.931 70.0228 110.634 70.0228C112.653 70.0228 114.554 69.1516 115.861 67.726L114.911 66.0628ZM117.168 100L116.178 72.6364H113.604L108.614 92.3176L108.733 72.7552L104.377 72.676L106.357 100H108.971L114 79.6852L115.109 100H117.168ZM16.1579 115.725L23.6819 115.844L23.9591 112.914H12.3959L12.3959 140.158H16.7519L16.1579 115.725ZM31.9406 119.487L37.2866 139.96H41.1278L32.8118 112.834H29.921L21.209 139.96H24.5354L31.9406 119.487ZM61.4931 140.079L60.5031 112.993L57.1371 112.795L47.9103 131.842L48.4251 112.874H44.0691L44.0295 139.723L46.6431 139.842L56.7411 119.052L57.2955 140.079H61.4931ZM82.6215 139.96L82.6611 112.716H78.3843L78.2655 125.625L69.3555 125.427L69.4347 112.716H66.2271L66.7023 139.96H69.2367L69.3555 127.486H78.2655L78.1071 139.96H82.6215ZM101.002 112.557L85.2809 113.468L85.4393 115.686H91.4981L90.9833 139.881L94.3889 139.406L95.5769 115.686L100.844 115.765L101.002 112.557ZM104.338 112.834L103.507 140H113.724L116.654 137.703L116.931 126.734L113.328 124.358L116.416 117.072L113.961 112.953L104.338 112.834ZM114.12 128.437L113.922 135.802L111.585 137.505L107.784 137.149L107.823 126.892L111.466 126.298L114.12 128.437ZM110.041 124.239L107.823 124.675L107.863 115.329L111.427 115.29L112.892 117.468L110.041 124.239ZM123.257 116.874L131.335 116.438V112.914H120.999L120.445 140H131.335V136.634L122.702 135.882L122.94 127.288L129.395 128.16V125.269H123.019L123.257 116.874ZM144.32 106.063C143.172 106.974 142.142 107.37 141.152 107.37C139.727 107.37 138.38 106.617 136.836 105.548L135.014 108.003C136.559 109.389 138.341 110.023 140.044 110.023C142.063 110.023 143.964 109.152 145.271 107.726L144.32 106.063ZM146.578 140L145.588 112.636H143.014L138.024 132.318L138.143 112.755L133.787 112.676L135.767 140H138.38L143.41 119.685L144.518 140H146.578ZM167.738 139.96L167.778 112.716H163.501L163.382 125.625L154.472 125.427L154.552 112.716H151.344L151.819 139.96H154.354L154.472 127.486H163.382L163.224 139.96H167.738Z" fill="white"/>
<path d="M32.5319 155.465L24.9915 198.953L160.031 182.539L157.361 164.023C102.555 175.198 51.306 162.974 32.5319 155.465Z" fill="#B59BFF"/>
<ellipse cx="94.5023" cy="154.904" rx="55" ry="9" transform="rotate(4.09407 94.5023 154.904)" fill="#523A96"/>
</g>
<defs>
<clipPath id="clip0_480_1937">
<rect width="180" height="180" fill="white"/>
</clipPath>
</defs>
</svg>
