<svg width="180" height="180" viewBox="0 0 180 180" fill="none" xmlns="http://www.w3.org/2000/svg">
<g clip-path="url(#clip0_492_3148)">
<rect width="180" height="180" fill="#B842A5"/>
<path d="M87.6884 45.7546C92.3711 52.0734 93.6725 60.8171 87.3537 65.4999C81.0349 70.1827 73.9006 66.7464 69.2179 60.4276C64.5351 54.1088 65.9613 49.8428 72.2801 45.16C78.5989 40.4772 83.0056 39.4358 87.6884 45.7546Z" fill="#EE187F"/>
<path d="M92.5 52H44L89.9474 106.804L87.3947 170.529L60.5921 176.902V182H92.5H124.408V176.902L97.6053 170.529L95.0526 106.804L141 52H92.5Z" fill="#511AC0"/>
<path d="M7.85858 81.2848L10.849 60.5656L16.1178 73.346H18.3606L24.3058 61.5268L26.2282 81.2492L30.0018 80.9644L27.4386 57.148L24.4482 56.7208L17.2926 70.7472L11.561 56.6496L8.96218 57.0056L4.19178 80.7508L7.85858 81.2848ZM46.9894 81L49.4102 80.5016L42.2902 56.2936H39.015L31.539 80.3948L35.0278 81.356L37.2706 72.7764L44.3194 72.1712L46.9894 81ZM40.7594 60.3164L43.821 70.498L37.769 70.854L40.7594 60.3164ZM60.0643 62.5592L64.8703 80.9644H68.3235L60.8475 56.5784H58.2487L50.4167 80.9644H53.4071L60.0643 62.5592ZM86.6316 81.0712L85.7416 56.7208L82.7156 56.5428L74.4208 73.6664L74.8836 56.614H70.9676L70.932 80.7508L73.2816 80.8576L82.3596 62.1676L82.858 81.0712H86.6316ZM105.626 80.9644L105.662 56.4716H101.817L101.71 68.0772L93.6999 67.8992L93.7711 56.4716H90.8875L91.3147 80.9644H93.5931L93.6999 69.7504H101.71L101.568 80.9644H105.626ZM115.101 81H119.373L122.648 76.6212L123.04 60.9572L118.697 56.436H112.253L109.191 60.8148L108.835 76.4788L115.101 81ZM117.13 58.7144L119.409 61.8828L118.697 76.3008L116.418 78.5436L111.755 75.1972L112.217 60.7792L113.784 58.6076L117.13 58.7144ZM126.957 56.5784L126.209 81H135.394L138.029 78.9352L138.278 69.074L135.038 66.938L137.815 60.3876L135.608 56.6852L126.957 56.5784ZM135.75 70.6048L135.572 77.2264L133.472 78.7572L130.054 78.4368L130.09 69.2164L133.365 68.6824L135.75 70.6048ZM132.083 66.8312L130.09 67.2228L130.125 58.8212L133.329 58.7856L134.647 60.7436L132.083 66.8312ZM141.437 56.8276L142.505 79.0776L144.819 81H150.8L152.402 77.6536L151.725 69.252L149.233 66.4752L145.46 66.1904L145.032 56.5784L141.437 56.8276ZM159.13 56.5784H155.072L155.356 81H158.24L159.13 56.5784ZM148.45 68.6112L149.269 69.9284L149.91 77.4756L149.162 79.1844L146.029 78.8284L145.566 68.362L148.45 68.6112ZM172.878 50.4908C171.846 51.3096 170.92 51.6656 170.03 51.6656C168.749 51.6656 167.538 50.9892 166.15 50.028L164.512 52.2352C165.901 53.4812 167.503 54.0508 169.033 54.0508C170.849 54.0508 172.558 53.2676 173.733 51.986L172.878 50.4908ZM174.907 81L174.017 56.4004H171.703L167.218 74.0936L167.325 56.5072L163.409 56.436L165.189 81H167.538L172.059 62.7372L173.056 81H174.907ZM51.6061 117.107L55.3085 106.249L59.6873 117.178L62.5353 116.146L56.6969 103.65L61.6097 92.7208L58.5481 92.4716L55.3085 101.906L51.0009 92.6496L48.7581 93.7532L53.6353 103.65L48.0461 116.858L51.6061 117.107ZM79.4779 117L81.8987 116.502L74.7787 92.2936H71.5035L64.0275 116.395L67.5163 117.356L69.7591 108.776L76.8079 108.171L79.4779 117ZM73.2479 96.3164L76.3095 106.498L70.2575 106.854L73.2479 96.3164ZM85.2904 115.896L88.1028 117L94.9024 92.614H91.8408L88.8148 103.365L85.5396 92.436L83.1544 93.2192L87.7112 107.317L85.2904 115.896ZM111.971 116.964L112.006 92.4716H108.161L108.055 104.077L100.045 103.899L100.116 92.4716H97.2322L97.6594 116.964H99.9378L100.045 105.75H108.055L107.912 116.964H111.971ZM116.747 120.382L116.177 116.964H130.844V120.24L132.909 120.489L133.372 115.861L132.767 114.864L129.776 114.935L126.821 93.1836L125.753 92.2224H122.692L117.031 115.113L114.397 115.149L113.863 115.932L114.468 120.56L116.747 120.382ZM123.76 95.5332L126.181 114.971L119.523 115.078L123.76 95.5332Z" fill="white"/>
<path d="M132.988 39.255C126.334 46.8391 115.722 50.8403 108.138 44.1859C100.554 37.5316 102.93 27.6545 109.584 20.0704C116.238 12.4862 121.974 13.1186 129.558 19.7729C137.143 26.4273 139.642 31.6708 132.988 39.255Z" fill="#EE187F"/>
<path d="M78.1007 -8.21864C87.4077 -4.32266 94.5768 4.46454 90.6808 13.7716C86.7848 23.0787 76.6651 23.9686 67.3581 20.0726C58.051 16.1766 56.8258 10.5377 60.7218 1.23063C64.6178 -8.07644 68.7936 -12.1146 78.1007 -8.21864Z" fill="#EE187F"/>
</g>
<defs>
<clipPath id="clip0_492_3148">
<rect width="180" height="180" fill="white"/>
</clipPath>
</defs>
</svg>
