<svg width="180" height="180" viewBox="0 0 180 180" fill="none" xmlns="http://www.w3.org/2000/svg">
<g clip-path="url(#clip0_486_4033)">
<rect width="180" height="180" fill="#4191CC"/>
<path d="M-13.5 114C39.7 151.6 118 103 150.5 74C77.3 103.2 53 31.8333 50 -7.5H-13.5V114Z" fill="#FF3F6D"/>
<path d="M101 119C120.667 103 161.6 69.1 168 61.5L205 92.5L177 193.5L101 119Z" fill="#FFBE3F"/>
<path d="M32.0871 40.3168L35.4135 17.2696L41.2743 31.486H43.7691L50.3823 18.3388L52.5207 40.2772L56.7183 39.9604L53.8671 13.468L50.5407 12.9928L42.5811 28.5952L36.2055 12.9136L33.3147 13.3096L28.0083 39.7228L32.0871 40.3168ZM75.6146 40L78.3074 39.4456L70.3874 12.5176H66.7442L58.4282 39.3268L62.309 40.396L64.8038 30.8524L72.6446 30.1792L75.6146 40ZM68.6846 16.9924L72.0902 28.318L65.3582 28.714L68.6846 16.9924ZM90.1586 19.4872L95.5046 39.9604H99.3458L91.0298 12.8344H88.139L79.427 39.9604H82.7534L90.1586 19.4872ZM119.711 40.0792L118.721 12.9928L115.355 12.7948L106.128 31.8424L106.643 12.874H102.287L102.247 39.7228L104.861 39.8416L114.959 19.0516L115.513 40.0792H119.711ZM140.839 39.9604L140.879 12.7156H136.602L136.483 25.6252L127.573 25.4272L127.653 12.7156H124.445L124.92 39.9604H127.455L127.573 27.4864H136.483L136.325 39.9604H140.839ZM151.379 40H156.131L159.774 35.1292L160.21 17.7052L155.379 12.676H148.211L144.806 17.5468L144.41 34.9708L151.379 40ZM153.636 15.2104L156.171 18.7348L155.379 34.7728L152.844 37.2676L147.657 33.5452L148.172 17.5072L149.914 15.0916L153.636 15.2104ZM67.8296 52.8344L66.998 80H77.2148L80.1452 77.7032L80.4224 66.734L76.8188 64.358L79.9076 57.0716L77.4524 52.9532L67.8296 52.8344ZM77.6108 68.4368L77.4128 75.8024L75.0764 77.5052L71.2748 77.1488L71.3144 66.8924L74.9576 66.2984L77.6108 68.4368ZM73.532 64.2392L71.3144 64.6748L71.354 55.3292L74.918 55.2896L76.3832 57.4676L73.532 64.2392ZM83.9363 53.1116L85.1243 77.8616L87.6983 80H94.3511L96.1331 76.2776L95.3807 66.932L92.6087 63.8432L88.4111 63.5264L87.9359 52.8344L83.9363 53.1116ZM103.618 52.8344H99.1031L99.4199 80H102.628L103.618 52.8344ZM91.7375 66.2192L92.6483 67.6844L93.3611 76.0796L92.5295 77.9804L89.0447 77.5844L88.5299 65.942L91.7375 66.2192ZM118.911 46.0628C117.762 46.9736 116.733 47.3696 115.743 47.3696C114.317 47.3696 112.971 46.6172 111.426 45.548L109.605 48.0032C111.149 49.3892 112.931 50.0228 114.634 50.0228C116.653 50.0228 118.554 49.1516 119.861 47.726L118.911 46.0628ZM121.168 80L120.178 52.6364H117.604L112.614 72.3176L112.733 52.7552L108.377 52.676L110.357 80H112.971L118 59.6852L119.109 80H121.168ZM40.9743 94.6956H50.1615V120.238L54.6363 119.723V92.7552H38.7171L37.5687 93.5472V120H40.9743V94.6956ZM76.8433 120.079L75.8533 92.9928L72.4873 92.7948L63.2605 111.842L63.7753 92.874H59.4193L59.3797 119.723L61.9933 119.842L72.0913 99.0516L72.6457 120.079H76.8433ZM82.4089 92.8344L81.5773 120H91.7941L94.7245 117.703L95.0017 106.734L91.3981 104.358L94.4869 97.0716L92.0317 92.9532L82.4089 92.8344ZM92.1901 108.437L91.9921 115.802L89.6557 117.505L85.8541 117.149L85.8937 106.892L89.5369 106.298L92.1901 108.437ZM88.1113 104.239L85.8937 104.675L85.9333 95.3292L89.4973 95.2896L90.9625 97.4676L88.1113 104.239ZM114.91 119.96L114.95 92.7156H110.673L110.554 105.625L101.644 105.427L101.723 92.7156H98.5156L98.9908 119.96H101.525L101.644 107.486H110.554L110.396 119.96H114.91ZM125.45 120H130.202L133.845 115.129L134.281 97.7052L129.449 92.676H122.282L118.876 97.5468L118.48 114.971L125.45 120ZM127.707 95.2104L130.241 98.7348L129.449 114.773L126.915 117.268L121.727 113.545L122.242 97.5072L123.985 95.0916L127.707 95.2104ZM148.34 86.0628C147.191 86.9736 146.162 87.3696 145.172 87.3696C143.746 87.3696 142.4 86.6172 140.855 85.548L139.034 88.0032C140.578 89.3892 142.36 90.0228 144.063 90.0228C146.083 90.0228 147.983 89.1516 149.29 87.726L148.34 86.0628ZM150.597 120L149.607 92.6364H147.033L142.043 112.318L142.162 92.7552L137.806 92.676L139.786 120H142.4L147.429 99.6852L148.538 120H150.597ZM31.3905 144.754L39.1521 160.119L43.1121 158.733L33.0537 143.13L41.4489 135.131L39.2709 132.914L31.1133 142.536H30.2817L30.3609 132.953L26.4009 132.755L26.0445 160.158L29.9649 159.96L30.0837 144.912L31.3905 144.754ZM49.8849 160H54.6369L58.2801 155.129L58.7157 137.705L53.8845 132.676H46.7169L43.3113 137.547L42.9153 154.971L49.8849 160ZM52.1421 135.21L54.6765 138.735L53.8845 154.773L51.3501 157.268L46.1625 153.545L46.6773 137.507L48.4197 135.092L52.1421 135.21ZM67.5874 144.754L75.349 160.119L79.309 158.733L69.2506 143.13L77.6458 135.131L75.4678 132.914L67.3102 142.536H66.4786L66.5578 132.953L62.5978 132.755L62.2414 160.158L66.1618 159.96L66.2806 144.912L67.5874 144.754ZM94.7734 132.557L79.0522 133.468L79.2106 135.686H85.2694L84.7546 159.881L88.1602 159.406L89.3482 135.686L94.615 135.765L94.7734 132.557ZM100.09 136.874L108.168 136.438V132.914H97.8325L97.2781 160H108.168V156.634L99.5353 155.882L99.7729 147.288L106.228 148.16V145.269H99.8521L100.09 136.874ZM121.153 126.063C120.005 126.974 118.975 127.37 117.985 127.37C116.56 127.37 115.213 126.617 113.669 125.548L111.847 128.003C113.392 129.389 115.174 130.023 116.877 130.023C118.896 130.023 120.797 129.152 122.104 127.726L121.153 126.063ZM123.411 160L122.421 132.636H119.847L114.857 152.318L114.976 132.755L110.62 132.676L112.6 160H115.213L120.243 139.685L121.351 160H123.411ZM137.087 139.487L142.433 159.96H146.274L137.958 132.834H135.067L126.355 159.96H129.682L137.087 139.487ZM155.235 132.716H150.879L149.176 160H157.967L163.986 156.04L164.263 148.08L161.056 144.556L154.403 146.14L155.235 132.716ZM159.393 147.803L161.056 149.546L160.818 154.496L155.947 157.624L153.769 157.188L154.284 148.991L159.393 147.803Z" fill="white"/>
</g>
<defs>
<clipPath id="clip0_486_4033">
<rect width="180" height="180" fill="white"/>
</clipPath>
</defs>
</svg>
