<svg width="180" height="180" viewBox="0 0 180 180" fill="none" xmlns="http://www.w3.org/2000/svg">
<g clip-path="url(#clip0_492_3138)">
<rect width="180" height="180" fill="#6B291A"/>
<path fill-rule="evenodd" clip-rule="evenodd" d="M177.343 39.6016L146.87 21.39C139.114 16.7552 129.618 17.5717 122.836 22.717C122.847 22.6298 122.857 22.5425 122.867 22.4551C123.06 20.672 122.924 18.7623 122.16 16.9498C121.386 15.1118 120.017 13.4969 117.956 12.2652L115.904 15.6988C117.277 16.5191 118.049 17.4944 118.474 18.5028C118.91 19.5367 119.031 20.7296 118.89 22.0233C118.775 23.0858 118.489 24.1598 118.112 25.1729L111.884 21.451L101.111 39.4771L93.4161 52.3529L77.0001 79.8214L83.8672 83.9254L94.6402 65.8992L98.0737 67.9512L103.717 58.509L117.451 66.717L122.687 57.9549C125.641 59.1472 129.662 60.0006 133.77 59.317C138.12 58.5929 142.397 56.1663 145.48 51.0058C152.592 54.4768 159.061 59.3531 163.235 63.2072L177.343 39.6016ZM141.794 49.3651C139.93 48.6176 138.043 47.9892 136.159 47.5206C136.608 48.9136 136.885 50.4314 136.918 52.0692L132.919 52.1489C132.878 50.1021 132.325 48.285 131.487 46.7066C130.813 46.6431 130.143 46.6051 129.477 46.5945L124.77 54.4705C127.112 55.3214 130.131 55.8675 133.113 55.3712C136.171 54.8623 139.337 53.2392 141.794 49.3651Z" fill="#E2A225"/>
<path d="M47 73H133L123.444 180H62.1296L47 73Z" fill="#FFBE3F"/>
<path d="M41.1533 52.498C45.8525 51.7504 47.1341 47.9412 47.1341 44.7728C47.1341 41.7112 45.9237 38.8276 41.0109 38.8276H39.1953L38.3053 40.038L38.2697 63L41.4025 62.6796L41.1533 52.498ZM44.7845 45.2C44.7845 47.7988 43.5029 49.7568 41.1177 50.4332L41.0109 41.0348C43.5741 41.284 44.7845 42.8148 44.7845 45.2ZM50.1771 61.8964L52.9895 63L59.7891 38.614H56.7275L53.7015 49.3652L50.4263 38.436L48.0411 39.2192L52.5979 53.3168L50.1771 61.8964ZM65.9282 63H72.977L75.0774 58.4788L72.3718 57.126L70.9834 60.152L66.9606 60.0096L64.433 56.8412L65.145 43.1708L66.9606 40.8212L70.4138 41.4976L71.909 44.7728L74.4366 43.4556L72.1938 38.4716H65.1806L61.5138 42.8504L61.051 58.4788L65.9282 63ZM81.5727 63H88.6215L90.7219 58.4788L88.0163 57.126L86.6279 60.152L82.6051 60.0096L80.0775 56.8412L80.7895 43.1708L82.6051 40.8212L86.0583 41.4976L87.5535 44.7728L90.0811 43.4556L87.8383 38.4716H80.8251L77.1583 42.8504L76.6955 58.4788L81.5727 63ZM98.214 49.294L105.192 63.1068L108.752 61.8608L99.7092 47.8344L107.256 40.6432L105.298 38.6496L97.9648 47.3004H97.2172L97.2884 38.6852L93.7284 38.5072L93.408 63.1424L96.9324 62.9644L97.0392 49.4364L98.214 49.294ZM126.143 63.0712L125.253 38.7208L122.227 38.5428L113.932 55.6664L114.395 38.614H110.479L110.443 62.7508L112.793 62.8576L121.871 44.1676L122.369 63.0712H126.143ZM139.868 32.4908C138.836 33.3096 137.91 33.6656 137.02 33.6656C135.739 33.6656 134.528 32.9892 133.14 32.028L131.502 34.2352C132.891 35.4812 134.493 36.0508 136.023 36.0508C137.839 36.0508 139.548 35.2676 140.723 33.986L139.868 32.4908ZM141.897 63L141.007 38.4004H138.693L134.208 56.0936L134.315 38.5072L130.399 38.436L132.179 63H134.528L139.049 44.7372L140.046 63H141.897ZM28.6224 74.5784L27.8748 99H37.0596L39.694 96.9352L39.9432 87.074L36.7036 84.938L39.4804 78.3876L37.2732 74.6852L28.6224 74.5784ZM37.4156 88.6048L37.2376 95.2264L35.1372 96.7572L31.7196 96.4368L31.7552 87.2164L35.0304 86.6824L37.4156 88.6048ZM33.7488 84.8312L31.7552 85.2228L31.7908 76.8212L34.9948 76.7856L36.312 78.7436L33.7488 84.8312ZM45.6298 78.2096L52.8922 77.818V74.6496H43.6006L43.1022 99H52.8922V95.974L45.1314 95.2976L45.345 87.5724L51.1478 88.3556V85.7568H45.4162L45.6298 78.2096ZM58.9055 99H65.9543L68.0547 94.4788L65.3491 93.126L63.9607 96.152L59.9379 96.0096L57.4103 92.8412L58.1223 79.1708L59.9379 76.8212L63.3911 77.4976L64.8863 80.7728L67.4139 79.4556L65.1711 74.4716H58.1579L54.4911 78.8504L54.0283 94.4788L58.9055 99ZM73.2684 78.2096L80.5308 77.818V74.6496H71.2392L70.7408 99H80.5308V95.974L72.77 95.2976L72.9836 87.5724L78.7864 88.3556V85.7568H73.0548L73.2684 78.2096ZM97.4734 98.9644L97.509 74.4716H93.6642L93.5574 86.0772L85.5474 85.8992L85.6186 74.4716H82.735L83.1622 98.9644H85.4406L85.5474 87.7504H93.5574L93.415 98.9644H97.4734ZM116.525 98.9644L116.561 74.4716H112.716L112.609 86.0772L104.599 85.8992L104.67 74.4716H101.787L102.214 98.9644H104.492L104.599 87.7504H112.609L112.467 98.9644H116.525ZM136.538 99.0712L135.648 74.7208L132.622 74.5428L124.327 91.6664L124.79 74.614H120.874L120.838 98.7508L123.188 98.8576L132.266 80.1676L132.764 99.0712H136.538ZM150.263 68.4908C149.231 69.3096 148.305 69.6656 147.415 69.6656C146.134 69.6656 144.923 68.9892 143.535 68.028L141.897 70.2352C143.286 71.4812 144.888 72.0508 146.418 72.0508C148.234 72.0508 149.943 71.2676 151.118 69.986L150.263 68.4908ZM152.292 99L151.402 74.4004H149.088L144.603 92.0936L144.71 74.5072L140.794 74.436L142.574 99H144.923L149.444 80.7372L150.441 99H152.292ZM56.4544 112.252H64.7136V135.214L68.7364 134.751V110.507H54.4252L53.3928 111.219V135H56.4544V112.252ZM73.7482 133.896L76.5606 135L83.3602 110.614H80.2986L77.2726 121.365L73.9974 110.436L71.6122 111.219L76.169 125.317L73.7482 133.896ZM100.428 134.964L100.464 110.472H96.6192L96.5124 122.077L88.5024 121.899L88.5736 110.472H85.69L86.1172 134.964H88.3956L88.5024 123.75H96.5124L96.37 134.964H100.428ZM105.916 133.576L107.198 135H126.778L125.924 110.543L122.114 111.077L123.503 132.401H117.202L116.774 122.184H114.14L114.852 132.33H108.8L108.195 110.756L104.742 110.436L105.916 133.576Z" fill="white"/>
</g>
<defs>
<clipPath id="clip0_492_3138">
<rect width="180" height="180" fill="white"/>
</clipPath>
</defs>
</svg>
