<svg width="180" height="180" viewBox="0 0 180 180" fill="none" xmlns="http://www.w3.org/2000/svg">
<g clip-path="url(#clip0_486_4057)">
<rect width="180" height="180" fill="#26871B"/>
<path d="M89.9999 96.3514C64.7999 87.5514 58.8333 55.6847 58.9999 40.8514C76.8333 38.1847 108.5 31.8995 116.5 35.4995C126.5 39.9995 119 56.8514 119 80.3514C119 103.851 181 92.8514 202.5 126.351C219.7 153.151 204.333 180.185 194.5 190.351H54C119.5 186.351 121.5 107.351 89.9999 96.3514Z" fill="#224F1D"/>
<path d="M38.8561 76.0796C33.5893 75.8816 29.1937 73.7432 29.1937 66.6944C29.1937 58.7348 32.8765 55.1708 39.7273 55.1708V52.7156C39.1333 52.6364 38.5393 52.6364 37.9849 52.6364C30.3025 52.6364 25.7485 58.8932 25.7485 67.3676C25.7485 74.8916 30.1837 80.3168 37.6285 80.3168C38.0245 80.3168 38.4205 80.3168 38.8561 80.2772V76.0796ZM58.0794 80L60.7722 79.4456L52.8522 52.5176H49.209L40.893 79.3268L44.7738 80.396L47.2686 70.8524L55.1094 70.1792L58.0794 80ZM51.1494 56.9924L54.555 68.318L47.823 68.714L51.1494 56.9924ZM72.9403 62.774L65.5747 52.7552L64.1887 53.3492L62.5255 80L65.6143 80.3564L66.3271 59.6852L72.5839 67.8428L79.9891 59.804L80.7019 80.0396L84.1471 79.8416L83.3947 54.1016L81.3355 52.7552L72.9403 62.774ZM99.6096 77.624V66.536L96.402 63.764L90.7788 64.0016L90.858 56.636L99.0156 56.1608L98.4612 52.6364H88.482L87.69 80H96.402L99.6096 77.624ZM90.5412 77.1092L90.7392 66.0212L94.9764 65.8232L96.7584 67.724L96.7188 75.2084L95.3328 76.3172L90.5412 77.1092ZM103.526 78.7724L106.655 80L114.218 52.874H110.813L107.447 64.8332L103.804 52.676L101.15 53.5472L106.219 69.2288L103.526 78.7724ZM122.156 64.754L129.918 80.1188L133.878 78.7328L123.819 63.1304L132.214 55.1312L130.036 52.9136L121.879 62.5364H121.047L121.126 52.9532L117.166 52.7552L116.81 80.1584L120.73 79.9604L120.849 64.9124L122.156 64.754ZM152.361 80L155.054 79.4456L147.134 52.5176H143.491L135.175 79.3268L139.056 80.396L141.551 70.8524L149.391 70.1792L152.361 80ZM145.431 56.9924L148.837 68.318L142.105 68.714L145.431 56.9924ZM36.3424 117.624V106.536L33.1348 103.764L27.5116 104.002L27.5908 96.636L35.7484 96.1608L35.194 92.6364H25.2148L24.4228 120H33.1348L36.3424 117.624ZM27.274 117.109L27.472 106.021L31.7092 105.823L33.4912 107.724L33.4516 115.208L32.0656 116.317L27.274 117.109ZM54.7923 120L57.4851 119.446L49.5651 92.5176H45.9219L37.6059 119.327L41.4867 120.396L43.9815 110.852L51.8223 110.179L54.7923 120ZM47.8623 96.9924L51.2679 108.318L44.5359 108.714L47.8623 96.9924ZM58.9407 119.485L70.4247 119.802L72.5631 110.971L71.8899 108.16L67.8111 105.625L70.6623 103.012L71.7315 95.1312L67.3359 92.9136L59.9307 94.8144L60.9999 98.1804L65.8311 95.5668L67.7715 96.5172L67.7319 102.022L65.5143 104.833H61.8711V107.249L65.1975 107.328L68.8407 110.536L67.4151 117.307L59.4555 116L58.9407 119.485ZM93.6294 120.079L92.6394 92.9928L89.2734 92.7948L80.0466 111.842L80.5614 92.874H76.2054L76.1658 119.723L78.7794 119.842L88.8774 99.0516L89.4318 120.079H93.6294ZM107.273 99.4872L112.619 119.96H116.461L108.145 92.8344H105.254L96.5418 119.96H99.8682L107.273 99.4872ZM136.826 120.079L135.836 92.9928L132.47 92.7948L123.243 111.842L123.758 92.874H119.402L119.362 119.723L121.976 119.842L132.074 99.0516L132.628 120.079H136.826ZM146.906 104.754L154.668 120.119L158.628 118.733L148.569 103.13L156.964 95.1312L154.786 92.9136L146.629 102.536H145.797L145.876 92.9532L141.916 92.7552L141.56 120.158L145.48 119.96L145.599 104.912L146.906 104.754Z" fill="white"/>
<path d="M54 46L63.5 -4H113L127 42.5L54 46Z" fill="#91CFA2"/>
<path d="M84.5 163.408C84.5 179.408 65.8333 196.075 56.5 202.408L38 208.408C46.3333 204.756 62.6 192.844 61 174.408C59 151.363 84.5 143.408 84.5 163.408Z" fill="#224F1D"/>
</g>
<defs>
<clipPath id="clip0_486_4057">
<rect width="180" height="180" fill="white"/>
</clipPath>
</defs>
</svg>
