<svg width="180" height="180" viewBox="0 0 180 180" fill="none" xmlns="http://www.w3.org/2000/svg">
<g clip-path="url(#clip0_492_3154)">
<rect width="180" height="180" fill="#4191CC"/>
<path d="M73.0622 143.097C64.2828 108.885 112.082 33.444 137.079 0C152.168 27.2304 183.993 92.3275 190.578 134.873C198.809 188.054 84.0364 185.861 73.0622 143.097Z" fill="#AED8FF"/>
<path d="M25.264 80.3168L28.5904 57.2696L34.4512 71.486H36.946L43.5592 58.3388L45.6976 80.2772L49.8952 79.9604L47.044 53.468L43.7176 52.9928L35.758 68.5952L29.3824 52.9136L26.4916 53.3096L21.1852 79.7228L25.264 80.3168ZM59.1687 80H63.9207L67.5639 75.1292L67.9995 57.7052L63.1683 52.676H56.0007L52.5951 57.5468L52.1991 74.9708L59.1687 80ZM61.4259 55.2104L63.9603 58.7348L63.1683 74.7728L60.6339 77.2676L55.4463 73.5452L55.9611 57.5072L57.7035 55.0916L61.4259 55.2104ZM75.01 68.8724L85.306 68.6744L88.8304 65.7044L88.87 57.0716L85.108 52.9136H71.5252V80H74.8912L75.01 68.8724ZM75.01 66.4964L75.1288 55.7252L82.8904 56.2004L85.7812 58.3388L85.0288 64.2392L83.1676 66.4172L75.01 66.4964ZM95.6397 80H103.481L105.817 74.9708L102.807 73.466L101.263 76.832L96.7881 76.6736L93.9765 73.1492L94.7685 57.9428L96.7881 55.3292L100.629 56.0816L102.293 59.7248L105.104 58.2596L102.609 52.7156H94.8081L90.7293 57.5864L90.2145 74.9708L95.6397 80ZM114.151 64.754L121.912 80.1188L125.872 78.7328L115.814 63.1304L124.209 55.1312L122.031 52.9136L113.874 62.5364H113.042L113.121 52.9532L109.161 52.7552L108.805 80.1584L112.725 79.9604L112.844 64.9124L114.151 64.754ZM132.645 80H137.397L141.04 75.1292L141.476 57.7052L136.645 52.676L129.477 52.676L126.072 57.5468L125.676 74.9708L132.645 80ZM134.902 55.2104L137.437 58.7348L136.645 74.7728L134.11 77.2676L128.923 73.5452L129.438 57.5072L131.18 55.0916L134.902 55.2104ZM155.535 46.0628C154.387 46.9736 153.357 47.3696 152.367 47.3696C150.942 47.3696 149.595 46.6172 148.051 45.548L146.229 48.0032C147.774 49.3892 149.556 50.0228 151.259 50.0228C153.278 50.0228 155.179 49.1516 156.486 47.726L155.535 46.0628ZM157.793 80L156.803 52.6364H154.229L149.239 72.3176L149.358 52.7552L145.002 52.676L146.982 80H149.595L154.625 59.6852L155.733 80H157.793ZM68.4014 117.624V106.536L65.1938 103.764L59.5706 104.002L59.6498 96.636L67.8074 96.1608L67.253 92.6364H57.2738L56.4818 120H65.1938L68.4014 117.624ZM59.333 117.109L59.531 106.021L63.7682 105.823L65.5502 107.724L65.5106 115.208L64.1246 116.317L59.333 117.109ZM74.9713 108.872L85.2673 108.674L88.7917 105.704L88.8313 97.0716L85.0693 92.9136H71.4865V120H74.8525L74.9713 108.872ZM74.9713 106.496L75.0901 95.7252L82.8517 96.2004L85.7425 98.3388L84.9901 104.239L83.1289 106.417L74.9713 106.496ZM108.827 120.079L107.837 92.9928L104.471 92.7948L95.2446 111.842L95.7594 92.874H91.4034L91.3638 119.723L93.9774 119.842L104.075 99.0516L104.63 120.079H108.827ZM111.225 119.485L122.709 119.802L124.847 110.971L124.174 108.16L120.095 105.625L122.947 103.012L124.016 95.1312L119.62 92.9136L112.215 94.8144L113.284 98.1804L118.115 95.5668L120.056 96.5172L120.016 102.022L117.799 104.833H114.155V107.249L117.482 107.328L121.125 110.536L119.699 117.307L111.74 116L111.225 119.485Z" fill="white"/>
<ellipse cx="172.146" cy="130.371" rx="17" ry="26.5" transform="rotate(-17.399 172.146 130.371)" fill="#DBEEFF"/>
</g>
<defs>
<clipPath id="clip0_492_3154">
<rect width="180" height="180" fill="white"/>
</clipPath>
</defs>
</svg>
