<svg width="180" height="180" viewBox="0 0 180 180" fill="none" xmlns="http://www.w3.org/2000/svg">
<g clip-path="url(#clip0_461_2307)">
<rect width="180" height="180" fill="#D76950"/>
<g clip-path="url(#clip1_461_2307)">
<path d="M219.5 179L135 140C92.5202 149.618 15 179 15 179C31 189.8 158 183.5 219.5 179Z" fill="#FFBE3F"/>
<path d="M129.5 164.5C154.7 94.5 128.333 60.3333 112 52H119.5C153.9 62.8 166.5 121.5 168.5 149.5L129.5 164.5Z" fill="#613705"/>
<path d="M41.5 81.5L105.5 49.5L78 113L41.5 81.5Z" fill="#38864E"/>
<path d="M94 95L110 56.5L121.5 91.5L94 95Z" fill="#38864E"/>
<path d="M194.5 30.5L118 46.5L196.5 95L194.5 30.5Z" fill="#38864E"/>
<path d="M159.5 -3.5L112 42V-5.5L159.5 -3.5Z" fill="#38864E"/>
<path d="M43 36.5L108 46.5L94 -15L72 -11L43 36.5Z" fill="#38864E"/>
</g>
<path d="M69.1319 76.0796C63.8651 75.8816 59.4695 73.7432 59.4695 66.6944C59.4695 58.7348 63.1523 55.1708 70.0031 55.1708V52.7156C69.4091 52.6364 68.8151 52.6364 68.2607 52.6364C60.5783 52.6364 56.0243 58.8932 56.0243 67.3676C56.0243 74.8916 60.4595 80.3168 67.9043 80.3168C68.3003 80.3168 68.6963 80.3168 69.1319 80.2772V76.0796ZM75.8021 56.8736L83.8805 56.438V52.9136H73.5449L72.9905 80H83.8805V76.634L75.2477 75.8816L75.4853 67.2884L81.9401 68.1596V65.2688H75.5645L75.8021 56.8736ZM91.6783 64.754L99.4399 80.1188L103.4 78.7328L93.3415 63.1304L101.737 55.1312L99.5587 52.9136L91.4011 62.5364H90.5695L90.6487 52.9532L86.6887 52.7552L86.3323 80.1584L90.2527 79.9604L90.3715 64.9124L91.6783 64.754ZM109.519 80H117.359L119.696 74.9708L116.686 73.466L115.142 76.832L110.667 76.6736L107.855 73.1492L108.647 57.9428L110.667 55.3292L114.508 56.0816L116.171 59.7248L118.983 58.2596L116.488 52.7156H108.687L104.608 57.5864L104.093 74.9708L109.519 80ZM34.6835 119.96L34.7231 92.7156H30.4463L30.3275 105.625L21.4175 105.427L21.4967 92.7156H18.2891L18.7643 119.96H21.2987L21.4175 107.486H30.3275L30.1691 119.96H34.6835ZM54.8461 120L57.5389 119.446L49.6189 92.5176H45.9757L37.6597 119.327L41.5405 120.396L44.0353 110.852L51.8761 110.179L54.8461 120ZM47.9161 96.9924L51.3217 108.318L44.5897 108.714L47.9161 96.9924ZM72.7416 94.6956H81.9288V120.238L86.4036 119.723V92.7552H70.4844L69.336 93.5472V120H72.7416V94.6956ZM100.057 99.4872L105.403 119.96H109.244L100.928 92.8344H98.0373L89.3253 119.96H92.6517L100.057 99.4872ZM120.581 108.12L120.105 120H123.234V92.874H113.611L111.195 96.1608V105.388L113.215 108.12H115.631L111.037 119.406L114.403 120.396L118.838 108.12H120.581ZM120.581 105.546H115.631L114.126 103.883V97.3884L115.789 95.2896H120.581V105.546ZM142.812 105.942L150.573 120.119L154.533 118.733L144.99 103.962L152.87 95.1312L150.692 92.9136L142.534 103.724H141.703L141.782 92.9532L137.466 92.7552L137.307 103.724H137.228L129.07 92.9136L126.536 95.7648L134.179 104.833L125.823 119.604L129.546 120.554L136.951 105.942L137.268 105.982L137.109 120.158L141.386 119.96L141.505 106.1L142.812 105.942ZM159.933 96.8736L168.011 96.438V92.9136H157.676L157.121 120H168.011V116.634L159.378 115.882L159.616 107.288L166.071 108.16V105.269H159.695L159.933 96.8736Z" fill="white"/>
</g>
<defs>
<clipPath id="clip0_461_2307">
<rect width="180" height="180" fill="white"/>
</clipPath>
<clipPath id="clip1_461_2307">
<rect width="180" height="180" fill="white"/>
</clipPath>
</defs>
</svg>
