<svg width="180" height="180" viewBox="0 0 180 180" fill="none" xmlns="http://www.w3.org/2000/svg">
<g clip-path="url(#clip0_486_4058)">
<rect width="180" height="180" fill="#3F9D34"/>
<path fill-rule="evenodd" clip-rule="evenodd" d="M145.584 67.4034L104.151 80.3315L104.152 80.3321L145.584 67.404C151.977 70.4846 163.507 81.5253 158.485 101.043C153.278 121.278 135.298 107.645 125.81 100.45C123.858 98.9701 122.266 97.7626 121.218 97.1782C117.386 95.042 110.186 93.5238 105.012 92.7123C130.259 114.3 136.436 167.91 134.483 166.024C132.668 164.271 111.456 162.358 101.078 161.621C118.611 140.347 109.888 113.581 99.3102 96.2978L99.0697 96.4479C97.9729 101.341 96.3369 110.806 97.188 116.005C97.3818 117.189 97.9771 119.097 98.7066 121.435C102.253 132.803 108.974 154.342 88.1731 152.371C68.1095 150.47 61.6381 135.877 60.9104 128.818L87.631 93.5801L87.6308 93.58L60.9107 128.818C53.9173 130.022 38.1194 127.728 30.8747 108.922C23.3637 89.4243 45.9179 90.0834 57.8206 90.4312C60.2689 90.5028 62.2665 90.5611 63.4592 90.4282C67.6294 89.9635 73.9796 87.2494 78.6226 84.9632C74.577 82.6335 69.814 80.2582 66.4042 79.5603C65.2286 79.3197 63.2341 79.1965 60.7897 79.0455L60.7894 79.0455L60.7893 79.0454L60.7892 79.0454C48.904 78.3112 26.3831 76.92 35.6332 58.1849C44.5552 40.114 60.496 39.2642 67.3513 41.0981C68.7169 34.1344 76.4864 20.1893 96.6397 20.1175C117.534 20.043 108.885 40.8835 104.321 51.882C103.382 54.1442 102.616 55.9901 102.316 57.1519C101.725 59.4344 101.553 62.6129 101.601 65.874C104.463 62.8554 107.275 59.479 108.609 56.7694C109.139 55.6927 109.762 53.7938 110.526 51.4667C114.239 40.1525 121.275 18.7138 137.065 32.3972C152.296 45.5955 149.09 61.234 145.584 67.4034Z" fill="#1F3930"/>
<path d="M38.9079 52.8344L23.4639 53.7056L23.6223 55.844H29.4435L28.9683 80L32.5323 79.5644L33.7203 55.844L38.7891 55.9232L38.9079 52.8344ZM44.9039 68.8724L55.1999 68.6744L58.7243 65.7044L58.7639 57.0716L55.0019 52.9136H41.4191V80H44.7851L44.9039 68.8724ZM44.9039 66.4964L45.0227 55.7252L52.7843 56.2004L55.6751 58.3388L54.9227 64.2392L53.0615 66.4172L44.9039 66.4964ZM78.7601 80.0792L77.7701 52.9928L74.4041 52.7948L65.1773 71.8424L65.6921 52.874H61.3361L61.2965 79.7228L63.9101 79.8416L74.0081 59.0516L74.5625 80.0792H78.7601ZM92.4041 59.4872L97.7501 79.9604H101.591L93.2753 52.8344H90.3845L81.6725 79.9604H84.9989L92.4041 59.4872ZM121.957 80.0792L120.967 52.9928L117.601 52.7948L108.374 71.8424L108.889 52.874H104.533L104.493 79.7228L107.107 79.8416L117.205 59.0516L117.759 80.0792H121.957ZM130.928 80H138.769L141.105 74.9708L138.095 73.466L136.551 76.832L132.076 76.6736L129.265 73.1492L130.057 57.9428L132.076 55.3292L135.917 56.0816L137.581 59.7248L140.392 58.2596L137.897 52.7156L130.096 52.7156L126.017 57.5864L125.503 74.9708L130.928 80ZM156.825 52.5572L141.104 53.468L141.262 55.6856L147.321 55.6856L146.806 79.8812L150.212 79.406L151.4 55.6856L156.667 55.7648L156.825 52.5572ZM77.6909 119.96L77.7305 92.7156H73.4537L73.3349 105.625L64.4249 105.427L64.5041 92.7156H61.2965L61.7717 119.96H64.3061L64.4249 107.486H73.3349L73.1765 119.96H77.6909ZM99.9522 120.079L98.9622 92.9928L95.5962 92.7948L86.3694 111.842L86.8842 92.874H82.5282L82.4886 119.723L85.1022 119.842L95.2002 99.0516L95.7546 120.079H99.9522ZM110.032 104.754L117.794 120.119L121.754 118.733L111.696 103.13L120.091 95.1312L117.913 92.9136L109.755 102.536H108.924L109.003 92.9532L105.043 92.7552L104.686 120.158L108.607 119.96L108.726 104.912L110.032 104.754Z" fill="white"/>
</g>
<defs>
<clipPath id="clip0_486_4058">
<rect width="180" height="180" fill="white"/>
</clipPath>
</defs>
</svg>
