<svg width="180" height="180" viewBox="0 0 180 180" fill="none" xmlns="http://www.w3.org/2000/svg">
<g clip-path="url(#clip0_480_2395)">
<rect width="180" height="180" fill="#FABEB0"/>
<path d="M27.5788 78.5C11.9788 48.9 27.7455 23.1667 37.5788 14L151.579 6C139.912 24.1667 128.762 67.5306 143.5 90C174 136.5 161.5 171.5 148.579 188H37.5788C75.079 164 47.0788 115.5 27.5788 78.5Z" fill="#CCA06D"/>
<path d="M51.5928 77.4756C46.858 77.2976 42.9064 75.3752 42.9064 69.0384C42.9064 61.8828 46.2172 58.6788 52.376 58.6788V56.4716C51.842 56.4004 51.308 56.4004 50.8096 56.4004C43.9032 56.4004 39.8092 62.0252 39.8092 69.6436C39.8092 76.4076 43.7964 81.2848 50.4892 81.2848C50.8452 81.2848 51.2012 81.2848 51.5928 81.2492V77.4756ZM58.1231 58.2516H66.3823V81.2136L70.4051 80.7508V56.5072H56.0939L55.0615 57.2192V81H58.1231V58.2516ZM90.369 81.0712L89.479 56.7208L86.453 56.5428L78.1582 73.6664L78.621 56.614H74.705L74.6694 80.7508L77.019 80.8576L86.097 62.1676L86.5954 81.0712H90.369ZM98.434 81H105.483L107.583 76.4788L104.878 75.126L103.489 78.152L99.4664 78.0096L96.9388 74.8412L97.6508 61.1708L99.4664 58.8212L102.92 59.4976L104.415 62.7728L106.942 61.4556L104.7 56.4716H97.6864L94.0196 60.8504L93.5568 76.4788L98.434 81ZM115.431 81H119.703L122.979 76.6212L123.37 60.9572L119.027 56.436H112.583L109.522 60.8148L109.166 76.4788L115.431 81ZM117.461 58.7144L119.739 61.8828L119.027 76.3008L116.749 78.5436L112.085 75.1972L112.548 60.7792L114.114 58.6076L117.461 58.7144ZM131.346 67.294L138.323 81.1068L141.883 79.8608L132.841 65.8344L140.388 58.6432L138.43 56.6496L131.096 65.3004H130.349L130.42 56.6852L126.86 56.5072L126.54 81.1424L130.064 80.9644L130.171 67.4364L131.346 67.294ZM36.0296 94.2516H44.2888V117.214L48.3116 116.751V92.5072H34.0004L32.968 93.2192V117H36.0296V94.2516ZM57.7378 117H62.0098L65.285 112.621L65.6766 96.9572L61.3334 92.436H54.8898L51.8282 96.8148L51.4722 112.479L57.7378 117ZM59.767 94.7144L62.0454 97.8828L61.3334 112.301L59.055 114.544L54.3914 111.197L54.8542 96.7792L56.4206 94.6076L59.767 94.7144ZM73.6521 103.294L80.6297 117.107L84.1897 115.861L75.1473 101.834L82.6945 94.6432L80.7365 92.6496L73.4029 101.3H72.6553L72.7265 92.6852L69.1665 92.5072L68.8461 117.142L72.3705 116.964L72.4773 103.436L73.6521 103.294ZM86.6289 115.896L89.4413 117L96.2409 92.614H93.1793L90.1533 103.365L86.8781 92.436L84.4929 93.2192L89.0497 107.317L86.6289 115.896ZM101.632 94.2516H109.892V117.214L113.914 116.751V92.5072H99.6031L98.5707 93.2192V117H101.632V94.2516ZM123.341 117H127.613L130.888 112.621L131.279 96.9572L126.936 92.436H120.493L117.431 96.8148L117.075 112.479L123.341 117ZM125.37 94.7144L127.648 97.8828L126.936 112.301L124.658 114.544L119.994 111.197L120.457 96.7792L122.023 94.6076L125.37 94.7144ZM139.255 103.294L146.232 117.107L149.792 115.861L140.75 101.834L148.297 94.6432L146.339 92.6496L139.006 101.3H138.258L138.329 92.6852L134.769 92.5072L134.449 117.142L137.973 116.964L138.08 103.436L139.255 103.294Z" fill="white"/>
</g>
<defs>
<clipPath id="clip0_480_2395">
<rect width="180" height="180" fill="white"/>
</clipPath>
</defs>
</svg>
