<svg width="180" height="180" viewBox="0 0 180 180" fill="none" xmlns="http://www.w3.org/2000/svg">
<g clip-path="url(#clip0_486_3999)">
<rect width="180" height="180" fill="#D65BC2"/>
<ellipse cx="75.7564" cy="81.8108" rx="43" ry="57.1595" transform="rotate(-24.3736 75.7564 81.8108)" fill="#574CA0"/>
<path d="M37.1491 96.0796C31.8823 95.8816 27.4867 93.7432 27.4867 86.6944C27.4867 78.7348 31.1695 75.1708 38.0203 75.1708V72.7156C37.4263 72.6364 36.8323 72.6364 36.2779 72.6364C28.5955 72.6364 24.0415 78.8932 24.0415 87.3676C24.0415 94.8916 28.4767 100.317 35.9215 100.317C36.3175 100.317 36.7135 100.317 37.1491 100.277V96.0796ZM56.3724 100L59.0652 99.4456L51.1452 72.5176H47.502L39.186 99.3268L43.0668 100.396L45.5616 90.8524L53.4024 90.1792L56.3724 100ZM49.4424 76.9924L52.848 88.318L46.116 88.714L49.4424 76.9924ZM72.54 66.0628C71.3916 66.9736 70.362 67.3696 69.372 67.3696C67.9464 67.3696 66.6 66.6172 65.0556 65.548L63.234 68.0032C64.7784 69.3892 66.5604 70.0228 68.2632 70.0228C70.2828 70.0228 72.1836 69.1516 73.4904 67.726L72.54 66.0628ZM74.7972 100L73.8072 72.6364H71.2332L66.2436 92.3176L66.3624 72.7552L62.0064 72.676L63.9864 100H66.6L71.6292 79.6852L72.738 100H74.7972ZM80.0783 103.762L79.4447 99.9604H95.7599V103.604L98.0567 103.881L98.5715 98.7328L97.8983 97.624L94.5719 97.7032L91.2851 73.5076L90.0971 72.4384H86.6915L80.3951 97.9012L77.4647 97.9408L76.8707 98.812L77.5439 103.96L80.0783 103.762ZM87.8795 76.1212L90.5723 97.7428L83.1671 97.8616L87.8795 76.1212ZM105.986 84.754L113.747 100.119L117.707 98.7328L107.649 83.1304L116.044 75.1312L113.866 72.9136L105.708 82.5364H104.877L104.956 72.9532L100.996 72.7552L100.64 100.158L104.56 99.9604L104.679 84.9124L105.986 84.754ZM136.191 100L138.884 99.4456L130.964 72.5176H127.321L119.005 99.3268L122.886 100.396L125.38 90.8524L133.221 90.1792L136.191 100ZM129.261 76.9924L132.667 88.318L125.935 88.714L129.261 76.9924ZM145.31 88.8724L155.606 88.6744L159.13 85.7044L159.17 77.0716L155.408 72.9136H141.825V100H145.191L145.31 88.8724ZM145.31 86.4964L145.429 75.7252L153.19 76.2004L156.081 78.3388L155.329 84.2392L153.468 86.4172L145.31 86.4964Z" fill="white"/>
<path d="M165 141C132.6 129 76.5 133.333 52.5 137V141H165Z" fill="#574CA0"/>
</g>
<defs>
<clipPath id="clip0_486_3999">
<rect width="180" height="180" fill="white"/>
</clipPath>
</defs>
</svg>
