<svg width="180" height="180" viewBox="0 0 180 180" fill="none" xmlns="http://www.w3.org/2000/svg">
<g clip-path="url(#clip0_480_2097)">
<rect width="180" height="180" fill="#1F6981"/>
<path d="M12.1174 81.2848L15.1078 60.5656L20.3766 73.346H22.6194L28.5646 61.5268L30.487 81.2492L34.2606 80.9644L31.6974 57.148L28.707 56.7208L21.5514 70.7472L15.8198 56.6496L13.221 57.0056L8.45057 80.7508L12.1174 81.2848ZM51.2482 81L53.669 80.5016L46.549 56.2936H43.2738L35.7978 80.3948L39.2866 81.356L41.5294 72.7764L48.5782 72.1712L51.2482 81ZM45.0182 60.3164L48.0798 70.498L42.0278 70.854L45.0182 60.3164ZM64.3231 62.5592L69.1291 80.9644H72.5823L65.1063 56.5784H62.5075L54.6755 80.9644H57.6659L64.3231 62.5592ZM77.7184 60.2096L84.9808 59.818V56.6496H75.6892L75.1908 81H84.9808V77.974L77.22 77.2976L77.4336 69.5724L83.2364 70.3556V67.7568H77.5048L77.7184 60.2096ZM101.923 80.9644L101.959 56.4716H98.1142L98.0074 68.0772L89.9974 67.8992L90.0686 56.4716H87.185L87.6122 80.9644H89.8906L89.9974 69.7504H98.0074L97.865 80.9644H101.923ZM111.683 56.4716H107.767L106.237 81H114.14L119.551 77.44L119.8 70.2844L116.917 67.116L110.936 68.54L111.683 56.4716ZM115.421 70.0352L116.917 71.6016L116.703 76.0516L112.324 78.864L110.366 78.4724L110.829 71.1032L115.421 70.0352ZM126.965 67.294L133.943 81.1068L137.503 79.8608L128.46 65.8344L136.008 58.6432L134.05 56.6496L126.716 65.3004H125.968L126.04 56.6852L122.48 56.5072L122.159 81.1424L125.684 80.9644L125.79 67.4364L126.965 67.294ZM154.894 81.0712L154.004 56.7208L150.978 56.5428L142.683 73.6664L143.146 56.614H139.23L139.194 80.7508L141.544 80.8576L150.622 62.1676L151.12 81.0712H154.894ZM168.619 50.4908C167.587 51.3096 166.661 51.6656 165.771 51.6656C164.49 51.6656 163.279 50.9892 161.891 50.028L160.253 52.2352C161.642 53.4812 163.244 54.0508 164.775 54.0508C166.59 54.0508 168.299 53.2676 169.474 51.986L168.619 50.4908ZM170.649 81L169.759 56.4004H167.445L162.959 74.0936L163.066 56.5072L159.15 56.436L160.93 81H163.279L167.801 62.7372L168.797 81H170.649ZM61.866 114.864V104.896L58.9824 102.404L53.9272 102.618L53.9984 95.996L61.332 95.5688L60.8336 92.4004H51.8624L51.1504 117H58.9824L61.866 114.864ZM53.7136 114.401L53.8916 104.433L57.7008 104.255L59.3028 105.964L59.2672 112.692L58.0212 113.689L53.7136 114.401ZM80.3391 117.071L79.4491 92.7208L76.4231 92.5428L68.1283 109.666L68.5911 92.614H64.6751L64.6395 116.751L66.9891 116.858L76.0671 98.1676L76.5655 117.071H80.3391ZM82.4945 116.537L92.8185 116.822L94.7409 108.883L94.1357 106.356L90.4689 104.077L93.0321 101.728L93.9933 94.6432L90.0417 92.6496L83.3845 94.3584L84.3457 97.3844L88.6889 95.0348L90.4333 95.8892L90.3977 100.838L88.4041 103.365H85.1289V105.537L88.1193 105.608L91.3945 108.492L90.1129 114.579L82.9573 113.404L82.4945 116.537ZM103.142 117H107.414L110.689 112.621L111.08 96.9572L106.737 92.436H100.294L97.2321 96.8148L96.8761 112.479L103.142 117ZM105.171 94.7144L107.449 97.8828L106.737 112.301L104.459 114.544L99.7953 111.197L100.258 96.7792L101.824 94.6076L105.171 94.7144ZM128.988 116.964L129.024 92.4716H125.179L125.072 104.077L117.062 103.899L117.134 92.4716H114.25L114.677 116.964H116.956L117.062 105.75H125.072L124.93 116.964H128.988Z" fill="white"/>
<path d="M203.997 137.011C168.067 131.125 38.2408 146.239 -22.181 154.532L-22.181 189.985L190.864 197.771L196.51 189.985L203.997 137.011Z" fill="#144F61"/>
<path d="M142.734 124.886C142.734 124.56 143.487 124.208 143.863 124.072L145.402 124.275L146.428 123.054L150.224 121.12L154.328 120L160.176 120.407L168.691 122.341L170.333 123.359L170.948 124.479V127.533L173 128.449L172.282 129.263L170.538 128.144C170.469 127.635 170.333 126.556 170.333 126.311C170.333 126.006 170.538 124.479 170.538 124.275C170.538 124.113 169.922 123.597 169.614 123.359V123.97C169.614 124.174 169.717 126.515 169.614 127.228C169.512 127.94 170.025 129.467 170.333 129.976C170.64 130.485 170.333 130.994 170.333 131.401C170.333 131.727 171.358 133.98 171.871 135.066L171.358 137H170.538C170.469 136.559 170.333 135.636 170.333 135.473C170.333 135.269 169.409 132.012 169.101 131.605C168.855 131.279 167.836 129.908 167.357 129.263C167.46 129.637 167.665 130.505 167.665 130.994C167.665 131.483 167.939 131.605 168.075 131.605L165.51 136.593L163.972 136.796C164.314 136.355 165.018 135.473 165.1 135.473C165.203 135.473 166.229 133.743 166.331 132.725C166.413 131.91 165.34 130.214 164.792 129.467L162.535 130.994L158.842 131.605C158.739 131.978 158.493 132.806 158.329 133.132C158.165 133.457 157.987 133.946 157.918 134.15V135.473C157.918 135.636 157.713 136.287 157.611 136.593H156.174L156.585 135.982L157.098 134.659L156.585 132.725L155.969 131.401L154.943 132.725C153.78 133.166 151.393 134.068 151.147 134.15C150.901 134.231 150.771 135.066 150.737 135.473L149.916 137L147.864 136.796C148.274 136.423 149.157 135.636 149.403 135.473C149.649 135.31 149.506 134.862 149.403 134.659C149.54 134.319 149.834 133.58 149.916 133.335C149.998 133.091 150.155 132.216 150.224 131.808L149.403 129.976H148.89C148.651 130.078 148.11 130.302 147.864 130.383C147.556 130.485 146.838 131.707 146.428 132.012C146.099 132.256 145.812 132.589 145.709 132.725L144.684 132.419H143.145L142.529 132.012C142.597 131.741 142.734 131.137 142.734 130.892C142.734 130.587 142.119 129.467 142.016 129.162C141.934 128.917 142.187 128.381 142.324 128.144V126.515C142.324 126.006 142.734 125.293 142.734 124.886Z" fill="#144F61"/>
</g>
<defs>
<clipPath id="clip0_480_2097">
<rect width="180" height="180" fill="white"/>
</clipPath>
</defs>
</svg>
