<svg width="180" height="180" viewBox="0 0 180 180" fill="none" xmlns="http://www.w3.org/2000/svg">
<g clip-path="url(#clip0_486_4026)">
<rect width="180" height="180" fill="#ED9A38"/>
<path d="M74.9809 50.4725C72.0085 55.8845 65.2116 57.8623 59.7995 54.8899C54.3875 51.9175 52.4098 45.1206 55.3821 39.7086C58.3545 34.2965 74.9874 14.4096 80.3995 17.382C85.8115 20.3543 77.9533 45.0605 74.9809 50.4725Z" fill="#4191CC"/>
<path d="M15.9809 17.4725C13.0085 22.8845 6.21158 24.8623 0.799538 21.8899C-4.61251 18.9175 -6.59025 12.1206 -3.61787 6.70857C-0.645492 1.29652 15.9874 -18.5904 21.3995 -15.618C26.8115 -12.6457 18.9533 12.0605 15.9809 17.4725Z" fill="#4191CC"/>
<path d="M130.124 119.577C124.02 130.691 110.062 134.752 98.9476 128.648C87.8336 122.544 83.7721 108.586 89.8761 97.4721C95.9801 86.358 130.137 45.5186 141.251 51.6226C152.365 57.7266 136.228 108.463 130.124 119.577Z" fill="#4191CC"/>
<path d="M120.864 188.979C117.461 195.176 109.679 197.44 103.483 194.037C97.2874 190.634 95.0231 182.852 98.4261 176.656C101.829 170.46 120.872 147.692 127.068 151.095C133.264 154.498 124.267 182.783 120.864 188.979Z" fill="#4191CC"/>
<path d="M209.259 94.2647C202.208 107.103 186.085 111.795 173.246 104.744C160.408 97.6927 155.716 81.569 162.767 68.7305C169.818 55.892 209.275 8.71604 222.113 15.7671C234.952 22.8182 216.31 81.4263 209.259 94.2647Z" fill="#4191CC"/>
<path d="M167.462 24.5164C162.925 32.778 152.549 35.7971 144.288 31.2597C136.026 26.7223 133.007 16.3466 137.544 8.08497C142.082 -0.176652 167.472 -30.5346 175.734 -25.9972C183.996 -21.4598 172 16.2548 167.462 24.5164Z" fill="#4191CC"/>
<path d="M19.5423 122.097C17.217 126.331 11.8998 127.878 7.66592 125.553C3.43207 123.228 1.88487 117.91 4.21017 113.676C6.53547 109.443 19.5475 93.885 23.7813 96.2103C28.0152 98.5356 21.8676 117.863 19.5423 122.097Z" fill="#4191CC"/>
<path d="M39.5739 62.9136H35.6139L34.9803 90H38.9403L39.2175 77.8032H42.1083C42.3855 84.0996 44.3259 89.8812 48.0087 89.8812C52.6815 89.8812 54.0278 80.8128 54.0278 75.744C54.0278 69.6456 52.8003 62.1612 48.4442 62.1612C44.4447 62.1612 42.3855 68.22 42.1083 74.6748H39.2967L39.5739 62.9136ZM48.4047 65.6064C50.4639 65.6064 51.5727 70.6356 51.5727 75.6648C51.5727 80.6544 50.4639 85.2876 48.2463 85.2876C45.7911 85.2876 44.5239 80.6148 44.5239 75.546C44.5239 70.5564 45.7515 65.6064 48.4047 65.6064ZM72.4524 75.942L80.214 90.1188L84.174 88.7328L74.6304 73.962L82.5108 65.1312L80.3328 62.9136L72.1752 73.7244H71.3436L71.4228 62.9532L67.1064 62.7552L66.948 73.7244H66.8688L58.7112 62.9136L56.1768 65.7648L63.8196 74.8332L55.464 89.604L59.1864 90.5544L66.5916 75.942L66.9084 75.9816L66.75 90.1584L71.0268 89.9604L71.1456 76.1004L72.4524 75.942ZM103.156 89.9604L103.196 62.7156H98.9191L98.8003 75.6252L89.8903 75.4272L89.9695 62.7156H86.7619L87.2371 89.9604H89.7715L89.8903 77.4864H98.8003L98.6419 89.9604H103.156ZM107.954 63.1116L109.142 87.8616L111.716 90H118.369L120.151 86.2776L119.398 76.932L116.626 73.8432L112.429 73.5264L111.954 62.8344L107.954 63.1116ZM127.635 62.8344H123.121L123.438 90H126.645L127.635 62.8344ZM115.755 76.2192L116.666 77.6844L117.379 86.0796L116.547 87.9804L113.062 87.5844L112.548 75.942L115.755 76.2192ZM142.928 56.0628C141.78 56.9736 140.75 57.3696 139.76 57.3696C138.335 57.3696 136.988 56.6172 135.444 55.548L133.622 58.0032C135.167 59.3892 136.949 60.0228 138.651 60.0228C140.671 60.0228 142.572 59.1516 143.879 57.726L142.928 56.0628ZM145.185 90L144.195 62.6364H141.621L136.632 82.3176L136.751 62.7552L132.395 62.676L134.375 90H136.988L142.017 69.6852L143.126 90H145.185ZM68.4014 127.624V116.536L65.1938 113.764L59.5706 114.002L59.6498 106.636L67.8074 106.161L67.253 102.636H57.2738L56.4818 130H65.1938L68.4014 127.624ZM59.333 127.109L59.531 116.021L63.7682 115.823L65.5502 117.724L65.5106 125.208L64.1246 126.317L59.333 127.109ZM74.9713 118.872L85.2673 118.674L88.7917 115.704L88.8313 107.072L85.0693 102.914H71.4865V130H74.8525L74.9713 118.872ZM74.9713 116.496L75.0901 105.725L82.8517 106.2L85.7425 108.339L84.9901 114.239L83.1289 116.417L74.9713 116.496ZM108.827 130.079L107.837 102.993L104.471 102.795L95.2446 121.842L95.7594 102.874H91.4034L91.3638 129.723L93.9774 129.842L104.075 109.052L104.63 130.079H108.827ZM111.225 129.485L122.709 129.802L124.847 120.971L124.174 118.16L120.095 115.625L122.947 113.012L124.016 105.131L119.62 102.914L112.215 104.814L113.284 108.18L118.115 105.567L120.056 106.517L120.016 112.022L117.799 114.833H114.155V117.249L117.482 117.328L121.125 120.536L119.699 127.307L111.74 126L111.225 129.485Z" fill="white"/>
</g>
<defs>
<clipPath id="clip0_486_4026">
<rect width="180" height="180" fill="white"/>
</clipPath>
</defs>
</svg>
