<svg width="180" height="180" viewBox="0 0 180 180" fill="none" xmlns="http://www.w3.org/2000/svg">
<g clip-path="url(#clip0_480_2136)">
<rect width="180" height="180" fill="#CC4163"/>
<path d="M64.5209 20.8375L57.568 25.5145L47.4749 32.3037C33.9054 41.4314 28.3434 83.2883 55.3872 96.3714C77.0222 106.838 72.6402 134.935 67.7448 147.676L159.703 85.8185C152.177 84.8001 127.607 83.6272 118.009 47.081C109.226 13.6356 72.9541 17.5538 64.5209 20.8375Z" fill="#FFBE3F"/>
<path d="M112.403 123.5L88.8522 139.341C92.0205 144.051 100.779 151.647 110.465 144.35C120.151 137.053 115.793 127.409 112.403 123.5Z" fill="#FFBE3F"/>
<path d="M41.8692 59.996C40.0536 58.6076 37.4192 56.6852 34.8916 56.6852C31.83 56.6852 30.6196 59.3196 30.6196 61.5624C30.6196 68.0772 38.2736 69.5368 38.2736 75.2328C38.2736 76.4788 37.7752 77.8672 36.28 77.8672C34.1796 77.8672 32.5064 76.2652 30.7976 73.9156L28.7328 76.2652C30.8332 79.4692 32.898 81.3204 35.746 81.3204C38.594 81.3204 41.1572 79.3624 41.1572 75.0904C41.1572 69.3232 33.1472 65.6208 33.1472 61.6692C33.1472 60.6368 33.6812 59.4976 34.7136 59.4976C36.3868 59.4976 38.5584 61.4912 40.374 62.844L41.8692 59.996ZM59.9026 62.9508L55.4526 56.6852L49.187 56.258L43.5978 62.5948L43.8826 74.9836L48.4394 81.178L54.4558 81.1068L59.2262 74.8412L59.9026 62.9508ZM55.951 74.3784L53.0318 78.5436L49.5786 78.4368L46.9798 74.414L46.4102 64.7308L50.7534 58.9636L53.4234 59.0704L56.1646 62.5948L55.951 74.3784ZM74.4761 73.4884L72.8029 77.4044L68.2461 77.796L65.7185 73.5596L66.3949 56.4004L62.8349 56.1868L62.4789 75.6244L65.8965 80.9288L74.5473 81.1424L77.7513 76.016L78.3921 56.4004L74.0489 56.5784L74.4761 73.4884ZM93.9028 56.1868L79.7696 57.0056L79.912 58.9992H85.3588L84.896 81.2492L87.9576 80.822L89.0256 58.9992L93.7604 59.0704L93.9028 56.1868ZM97.1157 81.0712H98.8601L98.5041 67.5432H102.883L103.097 81.0712H105.945L105.09 56.4004H102.741L102.883 65.7988L98.4685 66.1192L98.2193 56.4004H96.1545L97.1157 81.0712ZM119.42 56.5072L110.2 56.7208L110.805 81H120.025L120.239 78.1164L113.083 78.508L113.012 67.65L117.427 67.4008L117.071 65.4428L112.977 65.9412L112.941 59.2484L119.563 59.7468L119.42 56.5072ZM125.926 70.5692L129.771 81.178L132.299 81L128.133 70.3556L130.483 70.32L132.299 67.8636V59.5688L130.127 56.614H122.437V81H125.214L124.894 70.6404L125.926 70.5692ZM124.467 58.7856H128.418L130.02 60.6724L129.913 66.5108L128.561 67.8636L124.787 68.006L124.467 58.7856ZM149.497 56.614L145.546 56.436L146.222 74.058L139.423 56.436L135.613 56.436L135.969 81.0356L139.316 80.9644L138.782 61.9896L146.08 80.9644H148.892L149.497 56.614ZM67.108 92.4004L66.3604 117H75.1892L77.8236 114.935V105.216L74.8332 102.938L77.61 96.2096L75.4028 92.5072L67.108 92.4004ZM75.9012 106.605L75.7232 113.226L73.6228 114.757L70.2052 114.437L70.2408 105.216L73.516 104.682L75.9012 106.605ZM72.2344 102.831L70.2408 103.223L70.2764 94.6432L73.4804 94.6076L74.7976 96.5656L72.2344 102.831ZM90.1823 92.5072L80.9619 92.7208L81.5671 117H90.7875L91.0011 114.116L83.8455 114.508L83.7743 103.65L88.1887 103.401L87.8327 101.443L83.7387 101.941L83.7031 95.2484L90.3247 95.7468L90.1823 92.5072ZM103.096 113.369L96.3322 114.223L97.0798 92.7564L93.1994 92.4004L93.591 117.142L103.523 117.249L103.096 113.369ZM115.542 113.369L108.778 114.223L109.526 92.7564L105.646 92.4004L106.037 117.142L115.97 117.249L115.542 113.369Z" fill="white"/>
<circle cx="57" cy="28" r="15" fill="#FFBE3F"/>
</g>
<defs>
<clipPath id="clip0_480_2136">
<rect width="180" height="180" fill="white"/>
</clipPath>
</defs>
</svg>
