<svg width="180" height="180" viewBox="0 0 180 180" fill="none" xmlns="http://www.w3.org/2000/svg">
<g clip-path="url(#clip0_480_2355)">
<rect width="180" height="180" fill="#3EC26B"/>
<path d="M35 126L75 31H63.8655L8.19299 93.2689H-61V126H35Z" fill="#304034"/>
<path d="M144 126L104 31H115.134L170.807 93.2689H240V126H144Z" fill="#304034"/>
<path d="M80.3806 81H83.905L83.4422 57.2192L82.4098 56.2936L68.0986 56.5072V80.7508L72.1214 81.2136V58.2516H80.6298L80.3806 81ZM93.3552 81H97.6272L100.902 76.6212L101.294 60.9572L96.9508 56.436H90.5072L87.4456 60.8148L87.0896 76.4788L93.3552 81ZM95.3844 58.7144L97.6628 61.8828L96.9508 76.3008L94.6724 78.5436L90.0088 75.1972L90.4716 60.7792L92.038 58.6076L95.3844 58.7144ZM104.107 69.3232L112.082 69.9996L112.438 67.1872H104.107V69.3232ZM27.3729 94.2516H35.6321V117.214L39.6549 116.751V92.5072H25.3437L24.3113 93.2192V117H27.3729V94.2516ZM59.6188 117.071L58.7288 92.7208L55.7028 92.5428L47.408 109.666L47.8708 92.614H43.9548L43.9192 116.751L46.2688 116.858L55.3468 98.1676L55.8452 117.071H59.6188ZM75.3901 92.3292L61.2569 93.148L61.3993 95.1416H66.8461L66.3833 116.893L69.4449 116.466L70.5129 95.1416L75.2477 95.2128L75.3901 92.3292ZM80.1694 96.2096L87.4318 95.818V92.6496H78.1402L77.6418 117H87.4318V113.974L79.671 113.298L79.8846 105.572L85.6874 106.356V103.757H79.9558L80.1694 96.2096ZM92.7688 106.996L102.025 106.818L105.193 104.148L105.229 96.3876L101.847 92.6496H89.636V117H92.662L92.7688 106.996ZM92.7688 104.86L92.8756 95.1772L99.8532 95.6044L102.452 97.5268L101.776 102.831L100.102 104.789L92.7688 104.86ZM111.315 117H118.363L120.464 112.479L117.758 111.126L116.37 114.152L112.347 114.01L109.819 110.841L110.531 97.1708L112.347 94.8212L115.8 95.4976L117.295 98.7728L119.823 97.4556L117.58 92.4716H110.567L106.9 96.8504L106.437 112.479L111.315 117ZM127.956 103.294L134.934 117.107L138.494 115.861L129.451 101.834L136.998 94.6432L135.04 92.6496L127.707 101.3H126.959L127.03 92.6852L123.47 92.5072L123.15 117.142L126.674 116.964L126.781 103.436L127.956 103.294ZM155.885 117.071L154.995 92.7208L151.969 92.5428L143.674 109.666L144.137 92.614H140.221L140.185 116.751L142.535 116.858L151.613 98.1676L152.111 117.071H155.885Z" fill="white"/>
</g>
<defs>
<clipPath id="clip0_480_2355">
<rect width="180" height="180" fill="white"/>
</clipPath>
</defs>
</svg>
