<svg width="180" height="180" viewBox="0 0 180 180" fill="none" xmlns="http://www.w3.org/2000/svg">
<g clip-path="url(#clip0_486_4037)">
<rect width="180" height="180" fill="#E78173"/>
<path d="M87.5 156.5C78.7 92.1 -3.83333 71.3333 -44 69L-17.5 196.5H186V72.5C122.4 62.1 93.8333 124.167 87.5 156.5Z" fill="#AC3424"/>
<path d="M37.5009 52.676L33.6201 61.2296V52.676H29.9373L29.7789 80.0792H33.5409L33.5805 67.7636L39.2433 80.0792L42.6885 78.218L34.3725 64.6352L39.4413 54.2204L37.5009 52.676ZM53.9256 59.4872L59.2716 79.9604H63.1128L54.7968 52.8344H51.906L43.194 79.9604H46.5204L53.9256 59.4872ZM66.846 78.7724L69.9744 80L77.538 52.874H74.1324L70.7664 64.8332L67.1232 52.676L64.47 53.5472L69.5388 69.2288L66.846 78.7724ZM92.0493 77.624V66.536L88.8417 63.764L83.2185 64.0016L83.2977 56.636L91.4553 56.1608L90.9009 52.6364H80.9217L80.1297 80H88.8417L92.0493 77.624ZM82.9809 77.1092L83.1789 66.0212L87.4161 65.8232L89.1981 67.724L89.1585 75.2084L87.7725 76.3172L82.9809 77.1092ZM111.529 79.9604L111.568 52.7156H107.292L107.173 65.6252L98.2627 65.4272L98.3419 52.7156H95.1343L95.6095 79.9604H98.1439L98.2627 67.4864H107.173L107.014 79.9604H111.529ZM133.79 80.0792L132.8 52.9928L129.434 52.7948L120.207 71.8424L120.722 52.874H116.366L116.327 79.7228L118.94 79.8416L129.038 59.0516L129.593 80.0792H133.79ZM150.404 53.1908L146.88 52.8344L146.603 63.1304L140.979 64.4768L139.475 62.9324L140.94 52.874L137.138 52.7156L136.386 64.358L140.465 67.6052L146.523 65.5064L146.167 79.4852L149.612 80.0792L150.404 53.1908ZM24.4784 119.96L24.518 92.7156H20.2412L20.1224 105.625L11.2124 105.427L11.2916 92.7156H8.08397L8.55917 119.96H11.0936L11.2124 107.486H20.1224L19.964 119.96H24.4784ZM29.2762 93.1116L30.4642 117.862L33.0382 120H39.691L41.473 116.278L40.7206 106.932L37.9486 103.843L33.751 103.526L33.2758 92.8344L29.2762 93.1116ZM48.9574 92.8344H44.443L44.7598 120H47.9674L48.9574 92.8344ZM37.0774 106.219L37.9882 107.684L38.701 116.08L37.8694 117.98L34.3846 117.584L33.8698 105.942L37.0774 106.219ZM56.5284 96.8736L64.6068 96.438V92.9136H54.2712L53.7168 120H64.6068V116.634L55.974 115.882L56.2116 107.288L62.6664 108.16V105.269H56.2908L56.5284 96.8736ZM84.8244 99.4872L90.1704 119.96H94.0116L85.6956 92.8344H82.8048L74.0928 119.96H77.4192L84.8244 99.4872ZM112.665 120L115.358 119.446L107.438 92.5176H103.794L95.4784 119.327L99.3592 120.396L101.854 110.852L109.695 110.179L112.665 120ZM105.735 96.9924L109.14 108.318L102.408 108.714L105.735 96.9924ZM122.536 120H130.377L132.713 114.971L129.704 113.466L128.159 116.832L123.684 116.674L120.873 113.149L121.665 97.9428L123.684 95.3292L127.526 96.0816L129.189 99.7248L132 98.2596L129.506 92.7156H121.704L117.626 97.5864L117.111 114.971L122.536 120ZM141.047 104.754L148.809 120.119L152.769 118.733L142.71 103.13L151.106 95.1312L148.928 92.9136L140.77 102.536H139.938L140.018 92.9532L136.058 92.7552L135.701 120.158L139.622 119.96L139.74 104.912L141.047 104.754ZM172.114 120.079L171.124 92.9928L167.758 92.7948L158.531 111.842L159.046 92.874H154.69L154.65 119.723L157.264 119.842L167.362 99.0516L167.916 120.079H172.114Z" fill="white"/>
<path fill-rule="evenodd" clip-rule="evenodd" d="M131.896 17.2605C143.581 10.6333 150 1.94083 150 -7C150 -15.9408 143.581 -24.6333 131.896 -31.2605C120.3 -37.8372 104.08 -42 86 -42C67.9201 -42 51.6996 -37.8372 40.1039 -31.2605C28.4189 -24.6333 22 -15.9408 22 -7C22 1.94083 28.4189 10.6333 40.1039 17.2605C51.6996 23.8372 67.9201 28 86 28C104.08 28 120.3 23.8372 131.896 17.2605ZM86 31C123.003 31 153 13.9868 153 -7C153 -27.9868 123.003 -45 86 -45C48.9969 -45 19 -27.9868 19 -7C19 13.9868 48.9969 31 86 31Z" fill="#FFBE3F"/>
</g>
<defs>
<clipPath id="clip0_486_4037">
<rect width="180" height="180" fill="white"/>
</clipPath>
</defs>
</svg>
