<svg width="180" height="180" viewBox="0 0 180 180" fill="none" xmlns="http://www.w3.org/2000/svg">
<g clip-path="url(#clip0_480_2150)">
<rect width="180" height="180" fill="#FFB09E"/>
<path d="M92.0772 47.3635C104.787 63.2891 108.966 85.8061 93.0406 98.5155C77.1151 111.225 58.3258 102.989 45.6165 87.0637C32.9071 71.1382 36.2042 59.9613 52.1297 47.2519C68.0553 34.5425 79.3679 31.4379 92.0772 47.3635Z" fill="#C62E2E"/>
<path d="M141.665 160.607C135.186 170.535 123.508 176.953 113.58 170.473C103.652 163.994 104.774 152.11 111.253 142.182C117.733 132.255 124.51 132.037 134.437 138.516C144.365 144.996 148.145 150.679 141.665 160.607Z" fill="#C62E2E"/>
<path d="M68.196 -27.6471C79.7012 -24.7878 89.5987 -15.8659 86.7394 -4.36071C83.8801 7.14451 72.2874 9.98839 60.7822 7.12912C49.277 4.26984 46.8454 -2.05936 49.7046 -13.5646C52.5639 -25.0698 56.6908 -30.5064 68.196 -27.6471Z" fill="#C62E2E"/>
<path d="M92.0836 148.408C92.0836 148.408 84.2529 112.732 107.724 89.5626C109.527 88.4868 109.519 91.5482 109.519 91.5482C109.519 91.5482 115.84 84.7216 117.817 85.9873C119.795 87.253 118.711 88.5107 118.711 88.5107C118.711 88.5107 124.486 83.8437 126.464 85.1094C128.441 86.3751 126.456 88.1707 126.456 88.1707C126.456 88.1707 133.306 85.3073 136.185 86.0351C139.065 86.7629 136.359 88.3766 136.359 88.3766C136.359 88.3766 152.03 86.9767 154.719 91.4857C157.409 95.9947 147.861 97.4105 147.861 97.4105C147.861 97.4105 150.377 99.578 145.33 101.366C145.33 101.366 145.148 102.086 142.442 103.699C142.442 103.699 142.972 107.662 137.925 109.45C137.925 109.45 138.099 111.792 133.052 113.579C133.052 113.579 132.499 118.8 128.535 119.33C128.535 119.33 130.513 120.596 122.943 123.277C115.372 125.959 95.8807 142.475 94.4251 148.234C93.8792 150.394 92.4395 150.03 92.0836 148.408Z" fill="#41A20F"/>
<path d="M122.167 46.5718C122.167 46.5718 126.725 25.802 113.061 12.3134C112.011 11.6871 112.016 13.4694 112.016 13.4694C112.016 13.4694 108.336 9.49508 107.185 10.2319C106.034 10.9688 106.665 11.701 106.665 11.701C106.665 11.701 103.303 8.98399 102.151 9.72086C101 10.4577 102.156 11.5031 102.156 11.5031C102.156 11.5031 98.1679 9.83606 96.4916 10.2598C94.8153 10.6835 96.3903 11.6229 96.3903 11.6229C96.3903 11.6229 87.2673 10.808 85.7015 13.433C84.1358 16.058 89.6944 16.8823 89.6944 16.8823C89.6944 16.8823 88.2299 18.1441 91.1681 19.1849C91.1681 19.1849 91.274 19.604 92.849 20.5434C92.849 20.5434 92.5405 22.8506 95.4787 23.8914C95.4787 23.8914 95.3774 25.2545 98.3156 26.2953C98.3156 26.2953 98.638 29.3347 100.945 29.6432C100.945 29.6432 99.794 30.3801 104.201 31.9412C108.609 33.5023 119.956 43.1179 120.803 46.4705C121.121 47.7277 121.959 47.5159 122.167 46.5718Z" fill="#41A20F"/>
<path d="M104.883 261.219C104.883 261.219 61.2752 249.69 49.0679 210.835C48.9039 208.246 52.2622 209.982 52.2622 209.982C52.2622 209.982 48.3298 199.188 50.836 197.729C53.3422 196.271 54.1123 198.171 54.1123 198.171C54.1123 198.171 52.2441 189.195 54.7503 187.737C57.2565 186.278 58.1086 189.473 58.1086 189.473C58.1086 189.473 58.8286 180.332 61.2528 177.58C63.677 174.827 63.923 178.71 63.923 178.71C63.923 178.71 71.2276 160.706 77.6981 160.296C84.1687 159.886 80.3364 171.173 80.3364 171.173C80.3364 171.173 84.1367 169.633 83.2527 176.185C83.2527 176.185 83.9408 176.791 84.1868 180.674C84.1868 180.674 88.8392 182.328 87.9552 188.881C87.9552 188.881 90.6254 190.011 89.7414 196.563C89.7414 196.563 95.1638 200.117 93.5097 204.77C93.5097 204.77 96.0159 203.312 94.6899 213.141C93.3638 222.969 100.509 253.7 106.013 258.548C108.077 260.367 106.865 261.743 104.883 261.219Z" fill="#41A20F"/>
<path d="M14.4094 56.436L10.9206 64.1256V56.436H7.6098L7.4674 81.0712H10.8494L10.885 69.9996L15.9758 81.0712L19.073 79.398L11.597 67.1872L16.1538 57.8244L14.4094 56.436ZM29.1751 62.5592L33.9811 80.9644H37.4343L29.9583 56.5784H27.3595L19.5275 80.9644H22.5179L29.1751 62.5592ZM40.7904 79.8964L43.6028 81L50.4024 56.614H47.3408L44.3148 67.3652L41.0396 56.436L38.6544 57.2192L43.2112 71.3168L40.7904 79.8964ZM63.4478 78.864V68.896L60.5642 66.404L55.509 66.6176L55.5802 59.996L62.9138 59.5688L62.4154 56.4004H53.4442L52.7322 81H60.5642L63.4478 78.864ZM55.2954 78.4012L55.4734 68.4332L59.2826 68.2552L60.8846 69.964L60.849 76.6924L59.603 77.6892L55.2954 78.4012ZM80.9597 80.9644L80.9953 56.4716H77.1505L77.0437 68.0772L69.0337 67.8992L69.1049 56.4716H66.2213L66.6485 80.9644H68.9269L69.0337 69.7504H77.0437L76.9013 80.9644H80.9597ZM100.972 81.0712L100.082 56.7208L97.0565 56.5428L88.7617 73.6664L89.2245 56.614H85.3085L85.2729 80.7508L87.6225 80.8576L96.7005 62.1676L97.1989 81.0712H100.972ZM115.908 56.8988L112.74 56.5784L112.491 65.8344L107.436 67.0448L106.083 65.6564L107.4 56.614L103.982 56.4716L103.306 66.938L106.973 69.8572L112.42 67.9704L112.099 80.5372L115.196 81.0712L115.908 56.8988ZM134.916 80.9644L134.952 56.4716H131.107L131 68.0772L122.99 67.8992L123.061 56.4716H120.178L120.605 80.9644H122.883L122.99 69.7504H131L130.858 80.9644H134.916ZM139.229 56.8276L140.297 79.0776L142.611 81H148.592L150.194 77.6536L149.518 69.252L147.026 66.4752L143.252 66.1904L142.825 56.5784L139.229 56.8276ZM156.922 56.5784H152.864L153.149 81H156.032L156.922 56.5784ZM146.242 68.6112L147.061 69.9284L147.702 77.4756L146.954 79.1844L143.822 78.8284L143.359 68.362L146.242 68.6112ZM170.671 50.4908C169.638 51.3096 168.713 51.6656 167.823 51.6656C166.541 51.6656 165.331 50.9892 163.942 50.028L162.305 52.2352C163.693 53.4812 165.295 54.0508 166.826 54.0508C168.641 54.0508 170.35 53.2676 171.525 51.986L170.671 50.4908ZM172.7 81L171.81 56.4004H169.496L165.01 74.0936L165.117 56.5072L161.201 56.436L162.981 81H165.331L169.852 62.7372L170.849 81H172.7ZM48.1985 101.514L41.5769 92.5072L40.3309 93.0412L38.8357 117L41.6125 117.32L42.2533 98.7372L47.8781 106.071L54.5353 98.844L55.1761 117.036L58.2733 116.858L57.5969 93.7176L55.7457 92.5072L48.1985 101.514ZM67.7677 117H72.0397L75.3149 112.621L75.7065 96.9572L71.3633 92.436H64.9197L61.8581 96.8148L61.5021 112.479L67.7677 117ZM69.7969 94.7144L72.0753 97.8828L71.3633 112.301L69.0849 114.544L64.4213 111.197L64.8841 96.7792L66.4505 94.6076L69.7969 94.7144ZM81.2612 117.107L84.9636 106.249L89.3424 117.178L92.1904 116.146L86.352 103.65L91.2648 92.7208L88.2032 92.4716L84.9636 101.906L80.656 92.6496L78.4132 93.7532L83.2904 103.65L77.7012 116.858L81.2612 117.107ZM111.02 117.071L110.13 92.7208L107.104 92.5428L98.8089 109.666L99.2717 92.614H95.3557L95.3201 116.751L97.6697 116.858L106.748 98.1676L107.246 117.071H111.02ZM126.791 92.3292L112.658 93.148L112.8 95.1416H118.247L117.784 116.893L120.846 116.466L121.914 95.1416L126.649 95.2128L126.791 92.3292ZM133.44 117H137.712L140.987 112.621L141.379 96.9572L137.036 92.436H130.592L127.53 96.8148L127.174 112.479L133.44 117ZM135.469 94.7144L137.748 97.8828L137.036 112.301L134.757 114.544L130.094 111.197L130.556 96.7792L132.123 94.6076L135.469 94.7144Z" fill="white"/>
</g>
<defs>
<clipPath id="clip0_480_2150">
<rect width="180" height="180" fill="white"/>
</clipPath>
</defs>
</svg>
