<svg width="180" height="180" viewBox="0 0 180 180" fill="none" xmlns="http://www.w3.org/2000/svg">
<g clip-path="url(#clip0_461_2169)">
<rect width="180" height="180" fill="#6B291A"/>
<path d="M11.3379 99.5784L35.681 128.702C35.681 128.702 64.6964 128.091 99.9552 114.234L88.6475 85.4619C68.7736 93.285 33.0348 103.973 11.3379 99.5784Z" fill="#CA6821"/>
<path d="M154.881 43.1643L156.881 81.0695C156.881 81.0695 135.214 100.377 99.9549 114.234L88.6471 85.4619C108.53 77.6604 141.982 61.1557 154.881 43.1643Z" fill="#CA6821"/>
<path d="M156.186 43.646C158.38 49.2291 146.185 59.6678 126.132 70.655C115.728 76.3543 103.219 82.2001 89.4864 87.5972L89.4278 87.6202C75.7319 93.0028 62.6051 97.2439 51.1169 100.152C28.8841 105.788 12.7929 106.462 10.5933 100.865C8.13237 94.6037 23.77 82.2341 48.2985 69.8245C56.9986 65.42 66.8006 61.0256 77.3469 56.8808L77.4055 56.8578C87.9591 52.7101 98.1782 49.2479 107.56 46.5459C133.912 38.9707 153.729 37.3946 156.186 43.646Z" fill="#DA8F29"/>
<path d="M62.6669 19.3554L89.7296 88.2155L89.671 88.2385C75.9751 93.6211 62.7511 97.6147 51.0966 100.1C50.4661 97.4216 49.2043 91.8362 47.9787 84.9781C47.8185 84.0979 47.6619 83.1979 47.5088 82.2783C47.3426 81.2822 47.1784 80.2699 47.0163 79.2413C46.8757 78.3463 46.7308 77.4403 46.6065 76.5221C45.8938 71.6247 45.3096 66.474 45.01 61.4565C44.686 56.0008 44.7184 50.7429 45.3324 46.2447C45.5452 44.5928 45.8784 42.9587 46.3291 41.3554C51.6965 22.7758 62.6669 19.3554 62.6669 19.3554Z" fill="#EFAA29"/>
<path d="M126.109 70.5983C115.876 76.7318 103.46 82.8148 89.7292 88.2155L62.6665 19.3554C62.6665 19.3554 73.0301 14.3913 89.6113 24.3449C90.0477 24.5957 90.4992 24.8955 90.9448 25.2018C94.5255 27.6291 98.2662 31.2478 101.924 35.4186C102.713 36.3162 103.497 37.2369 104.277 38.1808C106.069 40.3564 107.828 42.6297 109.525 44.9274C110.499 46.234 111.459 47.5799 112.389 48.9036C115.1 52.7621 117.59 56.5726 119.719 59.9589C122.683 64.6642 124.942 68.5527 126.109 70.5983Z" fill="#EFAA29"/>
<path d="M73.6421 138.715L107.142 129.215V134.715L76.6421 146.215L73.6421 138.715Z" fill="#EFAA29"/>
<path d="M129.87 130.255L111.654 159.931L107.93 155.884L122.584 126.768L129.87 130.255Z" fill="#EFAA29"/>
<ellipse cx="68.1423" cy="145.715" rx="18" ry="14" transform="rotate(-15.8308 68.1423 145.715)" fill="#CA6821"/>
<ellipse cx="129.177" cy="121.38" rx="18" ry="14" transform="rotate(121.544 129.177 121.38)" fill="#CA6821"/>
<path d="M49.4267 52.8344L33.9827 53.7056L34.1411 55.844H39.9623L39.4871 80L43.0511 79.5644L44.2391 55.844L49.3079 55.9232L49.4267 52.8344ZM54.7495 56.8736L62.8279 56.438V52.9136H52.4923L51.9379 80H62.8279V76.634L54.1951 75.8816L54.4327 67.2884L60.8875 68.1596V65.2688H54.5119L54.7495 56.8736ZM70.6257 64.754L78.3873 80.1188L82.3473 78.7328L72.2889 63.1304L80.6841 55.1312L78.5061 52.9136L70.3485 62.5364H69.5169L69.5961 52.9532L65.6361 52.7552L65.2797 80.1584L69.2001 79.9604L69.3189 64.9124L70.6257 64.754ZM101.692 80.0792L100.702 52.9928L97.3365 52.7948L88.1097 71.8424L88.6245 52.874H84.2685L84.2289 79.7228L86.8425 79.8416L96.9405 59.0516L97.4949 80.0792H101.692ZM115.337 59.4872L120.683 79.9604H124.524L116.208 52.8344H113.317L104.605 79.9604H107.931L115.337 59.4872ZM143.177 80L145.87 79.4456L137.95 52.5176L134.306 52.5176L125.99 79.3268L129.871 80.396L132.366 70.8524L140.207 70.1792L143.177 80ZM136.247 56.9924L139.652 68.318L132.92 68.714L136.247 56.9924ZM31.2704 120H39.1112L41.4476 114.971L38.438 113.466L36.8936 116.832L32.4188 116.674L29.6072 113.149L30.3992 97.9428L32.4188 95.3292L36.26 96.0816L37.9232 99.7248L40.7348 98.2596L38.24 92.7156H30.4388L26.36 97.5864L25.8452 114.971L31.2704 120ZM59.8003 120L62.4931 119.446L54.5731 92.5176H50.9299L42.6139 119.327L46.4947 120.396L48.9895 110.852L56.8303 110.179L59.8003 120ZM52.8703 96.9924L56.2759 108.318L49.5439 108.714L52.8703 96.9924ZM81.8288 119.96L81.8684 92.7156H77.5916L77.4728 105.625L68.5628 105.427L68.642 92.7156H65.4344L65.9096 119.96H68.444L68.5628 107.486H77.4728L77.3144 119.96H81.8288ZM90.1113 108.872L100.407 108.674L103.932 105.704L103.971 97.0716L100.209 92.9136H86.6265V120H89.9925L90.1113 108.872ZM90.1113 106.496L90.2301 95.7252L97.9917 96.2004L100.883 98.3388L100.13 104.239L98.2689 106.417L90.1113 106.496ZM119.819 120L122.512 119.446L114.592 92.5176H110.949L102.633 119.327L106.513 120.396L109.008 110.852L116.849 110.179L119.819 120ZM112.889 96.9924L116.295 108.318L109.563 108.714L112.889 96.9924ZM135.987 86.0628C134.838 86.9736 133.809 87.3696 132.819 87.3696C131.393 87.3696 130.047 86.6172 128.502 85.548L126.681 88.0032C128.225 89.3892 130.007 90.0228 131.71 90.0228C133.729 90.0228 135.63 89.1516 136.937 87.726L135.987 86.0628ZM138.244 120L137.254 92.6364H134.68L129.69 112.318L129.809 92.7552L125.453 92.676L127.433 120H130.047L135.076 99.6852L136.185 120H138.244ZM140.674 119.485L152.158 119.802L154.296 110.971L153.623 108.16L149.544 105.625L152.395 103.012L153.465 95.1312L149.069 92.9136L141.664 94.8144L142.733 98.1804L147.564 95.5668L149.505 96.5172L149.465 102.022L147.247 104.833H143.604V107.249L146.931 107.328L150.574 110.536L149.148 117.307L141.189 116L140.674 119.485Z" fill="white"/>
</g>
<defs>
<clipPath id="clip0_461_2169">
<rect width="180" height="180" fill="white"/>
</clipPath>
</defs>
</svg>
