<svg width="180" height="180" viewBox="0 0 180 180" fill="none" xmlns="http://www.w3.org/2000/svg">
<g clip-path="url(#clip0_480_2342)">
<rect width="180" height="180" fill="#D76950"/>
<path d="M29 134.718L44.3462 32H143V149L29 134.718Z" fill="#85263D"/>
<circle cx="90" cy="84" r="33" fill="#FF3F6D"/>
<path d="M41.0011 56.5784L27.1171 57.3616L27.2595 59.284H32.4927L32.0655 81L35.2695 80.6084L36.3375 59.284L40.8943 59.3552L41.0011 56.5784ZM45.7862 60.2096L53.0486 59.818V56.6496H43.757L43.2586 81H53.0486V77.974L45.2878 77.2976L45.5014 69.5724L51.3042 70.3556V67.7568H45.5726L45.7862 60.2096ZM59.0619 81H66.1107L68.2111 76.4788L65.5055 75.126L64.1171 78.152L60.0943 78.0096L57.5667 74.8412L58.2787 61.1708L60.0943 58.8212L63.5475 59.4976L65.0427 62.7728L67.5703 61.4556L65.3275 56.4716H58.3143L54.6475 60.8504L54.1847 76.4788L59.0619 81ZM82.3432 56.3292L68.21 57.148L68.3524 59.1416H73.7992L73.3364 80.8932L76.398 80.466L77.466 59.1416L82.2008 59.2128L82.3432 56.3292ZM100.295 81.0712L99.4045 56.7208L96.3785 56.5428L88.0837 73.6664L88.5465 56.614H84.6305L84.5949 80.7508L86.9445 80.8576L96.0225 62.1676L96.5209 81.0712H100.295ZM107.683 70.9964L116.939 70.8184L120.108 68.1484L120.143 60.3876L116.761 56.6496H104.55V81H107.576L107.683 70.9964ZM107.683 68.8604L107.79 59.1772L114.768 59.6044L117.366 61.5268L116.69 66.8312L115.017 68.7892L107.683 68.8604ZM129.077 81H133.349L136.624 76.6212L137.016 60.9572L132.672 56.436H126.229L123.167 60.8148L122.811 76.4788L129.077 81ZM131.106 58.7144L133.384 61.8828L132.672 76.3008L130.394 78.5436L125.73 75.1972L126.193 60.7792L127.76 58.6076L131.106 58.7144ZM140.933 56.5784L140.185 81H149.37L152.004 78.9352L152.254 69.074L149.014 66.938L151.791 60.3876L149.584 56.6852L140.933 56.5784ZM149.726 70.6048L149.548 77.2264L147.448 78.7572L144.03 78.4368L144.066 69.2164L147.341 68.6824L149.726 70.6048ZM146.059 66.8312L144.066 67.2228L144.101 58.8212L147.305 58.7856L148.622 60.7436L146.059 66.8312ZM84.612 123.408L84.79 115.184L83.5796 114.33H81.6928L80.162 92.5784H77.3496L78.8804 114.294L71.974 114.259L71.8672 101.051H68.8056L69.8024 114.223H63.252L63.3944 92.6852H59.4072L61.116 117H82.298L81.6572 122.803L84.612 123.408ZM103.754 117.071L102.864 92.7208L99.8377 92.5428L91.5429 109.666L92.0057 92.614H88.0897L88.0541 116.751L90.4037 116.858L99.4817 98.1676L99.9801 117.071H103.754ZM112.816 103.294L119.793 117.107L123.353 115.861L114.311 101.834L121.858 94.6432L119.9 92.6496L112.566 101.3H111.819L111.89 92.6852L108.33 92.5072L108.01 117.142L111.534 116.964L111.641 103.436L112.816 103.294Z" fill="white"/>
<path fill-rule="evenodd" clip-rule="evenodd" d="M82.5 186.5V136H89.5V186.5H82.5Z" fill="#85263D"/>
</g>
<defs>
<clipPath id="clip0_480_2342">
<rect width="180" height="180" fill="white"/>
</clipPath>
</defs>
</svg>
