<svg width="180" height="180" viewBox="0 0 180 180" fill="none" xmlns="http://www.w3.org/2000/svg">
<g clip-path="url(#clip0_486_3989)">
<rect width="180" height="180" fill="#477F83"/>
<path d="M144.166 80.8583C152.158 107.291 132.027 125.794 102.951 134.585C73.8755 143.376 46.8651 139.126 38.8733 112.693C30.8815 86.2608 47.9734 57.7065 77.0491 48.9155C106.125 40.1245 136.174 54.4258 144.166 80.8583Z" fill="#D76950"/>
<path d="M56.5 189.5C91.7 165.5 78.8333 143.5 68 135.5L127 116C94.6 152.4 118.5 180.167 134.5 189.5H56.5Z" fill="#D76950"/>
<path d="M149.724 50.6022L97.8568 33.5066C101.023 27.9075 111.346 17.896 127.313 22.6431C143.28 27.3903 148.907 43.2605 149.724 50.6022Z" fill="#D76950"/>
<path d="M22.6314 165.054L14.8439 111C21.267 111.341 34.8279 116.127 37.6869 132.538C40.5458 148.948 28.8411 161.053 22.6314 165.054Z" fill="#D76950"/>
<path d="M158.483 128.055L129.909 144.799C128.631 141.114 128.215 132.403 136.777 127.042C145.338 121.681 154.815 125.484 158.483 128.055Z" fill="#D76950"/>
<path d="M48.7355 83.4718L6.92037 15.5421C15.7277 12.2713 36.6817 10.8138 50.0397 31.1498C63.3978 51.4858 54.7361 74.5045 48.7355 83.4718Z" fill="#D76950"/>
<path d="M163.526 34.4257L159.938 9.00031C156.83 10.1545 150.825 14.4121 151.672 22.2083C152.518 30.0044 159.927 33.6017 163.526 34.4257Z" fill="#D76950"/>
<path d="M33.353 52.8344L17.909 53.7056L18.0674 55.844H23.8886L23.4134 80L26.9774 79.5644L28.1654 55.844L33.2342 55.9232L33.353 52.8344ZM39.349 68.8724L49.645 68.6744L53.1694 65.7044L53.209 57.0716L49.447 52.9136H35.8642V80H39.2302L39.349 68.8724ZM39.349 66.4964L39.4678 55.7252L47.2294 56.2004L50.1202 58.3388L49.3678 64.2392L47.5066 66.4172L39.349 66.4964ZM63.1465 80H67.8985L71.5417 75.1292L71.9773 57.7052L67.1461 52.676H59.9785L56.5729 57.5468L56.1769 74.9708L63.1465 80ZM65.4037 55.2104L67.9381 58.7348L67.1461 74.7728L64.6117 77.2676L59.4241 73.5452L59.9389 57.5072L61.6813 55.0916L65.4037 55.2104ZM78.9085 54.6956H88.0957V80.2376L92.5705 79.7228V52.7552H76.6513L75.5029 53.5472V80H78.9085V54.6956ZM114.777 80.0792L113.787 52.9928L110.421 52.7948L101.195 71.8424L101.709 52.874H97.3534L97.3138 79.7228L99.9274 79.8416L110.025 59.0516L110.58 80.0792H114.777ZM131.391 53.1908L127.867 52.8344L127.59 63.1304L121.967 64.4768L120.462 62.9324L121.927 52.874L118.125 52.7156L117.373 64.358L121.452 67.6052L127.511 65.5064L127.154 79.4852L130.599 80.0792L131.391 53.1908ZM138.952 56.8736L147.03 56.438V52.9136L136.695 52.9136L136.14 80H147.03V76.634L138.398 75.8816L138.635 67.2884L145.09 68.1596V65.2688H138.714L138.952 56.8736ZM153.719 80H161.56L163.897 74.9708L160.887 73.466L159.343 76.832L154.868 76.6736L152.056 73.1492L152.848 57.9428L154.868 55.3292L158.709 56.0816L160.372 59.7248L163.184 58.2596L160.689 52.7156H152.888L148.809 57.5864L148.294 74.9708L153.719 80ZM18.4905 104.754L26.2521 120.119L30.2121 118.733L20.1537 103.13L28.5489 95.1312L26.3709 92.9136L18.2133 102.536H17.3817L17.4609 92.9532L13.5009 92.7552L13.1445 120.158L17.0649 119.96L17.1837 104.912L18.4905 104.754ZM49.5573 120.079L48.5673 92.9928L45.2013 92.7948L35.9745 111.842L36.4893 92.874H32.1333L32.0937 119.723L34.7073 119.842L44.8053 99.0516L45.3597 120.079H49.5573ZM64.825 86.0628C63.6766 86.9736 62.647 87.3696 61.657 87.3696C60.2314 87.3696 58.885 86.6172 57.3406 85.548L55.519 88.0032C57.0634 89.3892 58.8454 90.0228 60.5482 90.0228C62.5678 90.0228 64.4686 89.1516 65.7754 87.726L64.825 86.0628ZM67.0822 120L66.0922 92.6364H63.5182L58.5286 112.318L58.6474 92.7552L54.2914 92.676L56.2714 120H58.885L63.9142 99.6852L65.023 120H67.0822ZM81.5359 92.8344L80.7043 120H90.9211L93.8515 117.703L94.1287 106.734L90.5251 104.358L93.6139 97.0716L91.1587 92.9532L81.5359 92.8344ZM91.3171 108.437L91.1191 115.802L88.7827 117.505L84.9811 117.149L85.0207 106.892L88.6639 106.298L91.3171 108.437ZM87.2383 104.239L85.0207 104.675L85.0603 95.3292L88.6243 95.2896L90.0895 97.4676L87.2383 104.239ZM95.3061 119.485L106.79 119.802L108.929 110.971L108.255 108.16L104.177 105.625L107.028 103.012L108.097 95.1312L103.701 92.9136L96.2961 94.8144L97.3653 98.1804L102.197 95.5668L104.137 96.5172L104.097 102.022L101.88 104.833H98.2365V107.249L101.563 107.328L105.206 110.536L103.781 117.307L95.8209 116L95.3061 119.485ZM116.016 108.872L126.312 108.674L129.836 105.704L129.876 97.0716L126.114 92.9136H112.531V120H115.897L116.016 108.872ZM116.016 106.496L116.135 95.7252L123.896 96.2004L126.787 98.3388L126.035 104.239L124.174 106.417L116.016 106.496ZM132.409 93.1116L133.597 117.862L136.171 120H142.823L144.605 116.278L143.853 106.932L141.081 103.843L136.883 103.526L136.408 92.8344L132.409 93.1116ZM152.09 92.8344H147.575L147.892 120H151.1L152.09 92.8344ZM140.21 106.219L141.121 107.684L141.833 116.08L141.002 117.98L137.517 117.584L137.002 105.942L140.21 106.219ZM157.681 92.8344L156.849 120H167.066L169.996 117.703L170.274 106.734L166.67 104.358L169.759 97.0716L167.304 92.9532L157.681 92.8344ZM167.462 108.437L167.264 115.802L164.928 117.505L161.126 117.149L161.166 106.892L164.809 106.298L167.462 108.437ZM163.383 104.239L161.166 104.675L161.205 95.3292L164.769 95.2896L166.234 97.4676L163.383 104.239Z" fill="white"/>
</g>
<defs>
<clipPath id="clip0_486_3989">
<rect width="180" height="180" fill="white"/>
</clipPath>
</defs>
</svg>
