<svg width="180" height="180" viewBox="0 0 180 180" fill="none" xmlns="http://www.w3.org/2000/svg">
<g clip-path="url(#clip0_486_4035)">
<rect width="180" height="180" fill="#713FFF"/>
<path d="M121 159H9C15.1667 168.167 34.9 186.5 64.5 186.5C94.1 186.5 114.5 168.167 121 159Z" fill="#FFBE3F"/>
<path d="M242 159H130C136.167 168.167 155.9 186.5 185.5 186.5C215.1 186.5 235.5 168.167 242 159Z" fill="#FFBE3F"/>
<path d="M59 76H-53C-46.8333 85.1667 -27.1 103.5 2.5 103.5C32.1 103.5 52.5 85.1667 59 76Z" fill="#FFBE3F"/>
<path d="M180 76H68C74.1667 85.1667 93.9 103.5 123.5 103.5C153.1 103.5 173.5 85.1667 180 76Z" fill="#FFBE3F"/>
<path d="M121 49H9C15.1667 58.1667 34.9 76.5 64.5 76.5C94.1 76.5 114.5 58.1667 121 49Z" fill="#FFBE3F"/>
<path d="M242 49H130C136.167 58.1667 155.9 76.5 185.5 76.5C215.1 76.5 235.5 58.1667 242 49Z" fill="#FFBE3F"/>
<path d="M59 131H-53C-46.8333 140.167 -27.1 158.5 2.5 158.5C32.1 158.5 52.5 140.167 59 131Z" fill="#FFBE3F"/>
<path d="M180 131H68C74.1667 140.167 93.9 158.5 123.5 158.5C153.1 158.5 173.5 140.167 180 131Z" fill="#FFBE3F"/>
<path d="M121 104H9C15.1667 113.167 34.9 131.5 64.5 131.5C94.1 131.5 114.5 113.167 121 104Z" fill="#FFBE3F"/>
<path d="M242 104H130C136.167 113.167 155.9 131.5 185.5 131.5C215.1 131.5 235.5 113.167 242 104Z" fill="#FFBE3F"/>
<path d="M59 21H-53C-46.8333 30.1667 -27.1 48.5 2.5 48.5C32.1 48.5 52.5 30.1667 59 21Z" fill="#FFBE3F"/>
<path d="M180 21H68C74.1667 30.1667 93.9 48.5 123.5 48.5C153.1 48.5 173.5 30.1667 180 21Z" fill="#FFBE3F"/>
<path d="M121 -6H9C15.1667 3.16667 34.9 21.5 64.5 21.5C94.1 21.5 114.5 3.16667 121 -6Z" fill="#FFBE3F"/>
<path d="M242 -6H130C136.167 3.16667 155.9 21.5 185.5 21.5C215.1 21.5 235.5 3.16667 242 -6Z" fill="#FFBE3F"/>
<path d="M-53 186L59 186C52.8333 176.667 33.1 158 3.5 158C-26.1 158 -46.5 176.667 -53 186Z" fill="#FF843F"/>
<path d="M68 186L180 186C173.833 176.667 154.1 158 124.5 158C94.9 158 74.5 176.667 68 186Z" fill="#FF843F"/>
<path d="M9 159L121 159C114.833 149.667 95.1 131 65.5 131C35.9 131 15.5 149.667 9 159Z" fill="#FF843F"/>
<path d="M130 159L242 159C235.833 149.667 216.1 131 186.5 131C156.9 131 136.5 149.667 130 159Z" fill="#FF843F"/>
<path d="M-53 76L59 76C52.8333 66.6667 33.1 48 3.5 48C-26.1 48 -46.5 66.6667 -53 76Z" fill="#FF843F"/>
<path d="M68 76L180 76C173.833 66.6667 154.1 48 124.5 48C94.9 48 74.5 66.6667 68 76Z" fill="#FF843F"/>
<path d="M9 49L121 49C114.833 39.6667 95.1 21 65.5 21C35.9 21 15.5 39.6667 9 49Z" fill="#FF843F"/>
<path d="M130 49L242 49C235.833 39.6667 216.1 21 186.5 21C156.9 21 136.5 39.6667 130 49Z" fill="#FF843F"/>
<path d="M-53 131L59 131C52.8333 121.667 33.1 103 3.5 103C-26.1 103 -46.5 121.667 -53 131Z" fill="#FF843F"/>
<path d="M68 131L180 131C173.833 121.667 154.1 103 124.5 103C94.9 103 74.5 121.667 68 131Z" fill="#FF843F"/>
<path d="M9 104L121 104C114.833 94.6667 95.1 76 65.5 76C35.9 76 15.5 94.6667 9 104Z" fill="#FF843F"/>
<path d="M130 104L242 104C235.833 94.6667 216.1 76 186.5 76C156.9 76 136.5 94.6667 130 104Z" fill="#FF843F"/>
<path d="M-53 21L59 21C52.8333 11.6667 33.1 -6.99999 3.5 -7C-26.1 -7 -46.5 11.6667 -53 21Z" fill="#FF843F"/>
<path d="M68 21L180 21C173.833 11.6667 154.1 -6.99999 124.5 -7C94.9 -7 74.5 11.6667 68 21Z" fill="#FF843F"/>
<path d="M32.353 52.8344L16.909 53.7056L17.0674 55.844H22.8886L22.4134 80L25.9774 79.5644L27.1654 55.844L32.2342 55.9232L32.353 52.8344ZM38.349 68.8724L48.645 68.6744L52.1694 65.7044L52.209 57.0716L48.447 52.9136H34.8642V80H38.2302L38.349 68.8724ZM38.349 66.4964L38.4678 55.7252L46.2294 56.2004L49.1202 58.3388L48.3678 64.2392L46.5066 66.4172L38.349 66.4964ZM62.1465 80H66.8985L70.5417 75.1292L70.9773 57.7052L66.1461 52.676H58.9785L55.5729 57.5468L55.1769 74.9708L62.1465 80ZM64.4037 55.2104L66.9381 58.7348L66.1461 74.7728L63.6117 77.2676L58.4241 73.5452L58.9389 57.5072L60.6813 55.0916L64.4037 55.2104ZM77.9085 54.6956H87.0957V80.2376L91.5705 79.7228V52.7552H75.6513L74.5029 53.5472V80H77.9085V54.6956ZM113.777 80.0792L112.787 52.9928L109.421 52.7948L100.195 71.8424L100.709 52.874H96.3534L96.3138 79.7228L98.9274 79.8416L109.025 59.0516L109.58 80.0792H113.777ZM130.391 53.1908L126.867 52.8344L126.59 63.1304L120.967 64.4768L119.462 62.9324L120.927 52.874L117.125 52.7156L116.373 64.358L120.452 67.6052L126.511 65.5064L126.154 79.4852L129.599 80.0792L130.391 53.1908ZM137.952 56.8736L146.03 56.438V52.9136L135.695 52.9136L135.14 80H146.03V76.634L137.398 75.8816L137.635 67.2884L144.09 68.1596V65.2688H137.714L137.952 56.8736ZM152.719 80H160.56L162.897 74.9708L159.887 73.466L158.343 76.832L153.868 76.6736L151.056 73.1492L151.848 57.9428L153.868 55.3292L157.709 56.0816L159.372 59.7248L162.184 58.2596L159.689 52.7156H151.888L147.809 57.5864L147.294 74.9708L152.719 80ZM35.8403 104.754L43.6019 120.119L47.5619 118.733L37.5035 103.13L45.8987 95.1312L43.7207 92.9136L35.5631 102.536H34.7315L34.8107 92.9532L30.8507 92.7552L30.4943 120.158L34.4147 119.96L34.5335 104.912L35.8403 104.754ZM66.9071 120.079L65.9171 92.9928L62.5511 92.7948L53.3243 111.842L53.8391 92.874H49.4831L49.4435 119.723L52.0571 119.842L62.1551 99.0516L62.7095 120.079H66.9071ZM82.1748 86.0628C81.0264 86.9736 79.9968 87.3696 79.0068 87.3696C77.5812 87.3696 76.2348 86.6172 74.6904 85.548L72.8688 88.0032C74.4132 89.3892 76.1952 90.0228 77.898 90.0228C79.9176 90.0228 81.8184 89.1516 83.1252 87.726L82.1748 86.0628ZM84.432 120L83.442 92.6364H80.868L75.8784 112.318L75.9972 92.7552L71.6412 92.676L73.6212 120H76.2348L81.264 99.6852L82.3728 120H84.432ZM101.539 108.872L111.835 108.674L115.359 105.704L115.399 97.0716L111.637 92.9136H98.0541V120H101.42L101.539 108.872ZM101.539 106.496L101.658 95.7252L109.419 96.2004L112.31 98.3388L111.558 104.239L109.696 106.417L101.539 106.496ZM131.247 120L133.939 119.446L126.019 92.5176H122.376L114.06 119.327L117.941 120.396L120.436 110.852L128.277 110.179L131.247 120ZM124.317 96.9924L127.722 108.318L120.99 108.714L124.317 96.9924ZM147.414 86.0628C146.266 86.9736 145.236 87.3696 144.246 87.3696C142.821 87.3696 141.474 86.6172 139.93 85.548L138.108 88.0032C139.653 89.3892 141.435 90.0228 143.137 90.0228C145.157 90.0228 147.058 89.1516 148.365 87.726L147.414 86.0628ZM149.671 120L148.681 92.6364H146.107L141.118 112.318L141.237 92.7552L136.881 92.676L138.861 120H141.474L146.503 99.6852L147.612 120H149.671Z" fill="white"/>
</g>
<defs>
<clipPath id="clip0_486_4035">
<rect width="180" height="180" fill="white"/>
</clipPath>
</defs>
</svg>
