<svg width="180" height="180" viewBox="0 0 180 180" fill="none" xmlns="http://www.w3.org/2000/svg">
<g clip-path="url(#clip0_486_4008)">
<rect width="180" height="180" fill="#CC4163"/>
<path d="M146.843 29.5L126.343 53L122.343 40.5L126.343 32L131.343 40.5V29.5L143.843 14L146.843 29.5Z" fill="#EEC9C9"/>
<path d="M153.343 37.1096L129.989 57.7758L142.517 61.6871L150.988 57.6268L142.453 52.6873L153.453 52.6092L168.864 39.9996L153.343 37.1096Z" fill="#EEC9C9"/>
<path d="M77.8877 138.576C77.8877 138.576 50.1336 135.933 38.6727 125.759C27.2119 115.585 20.6797 88.4282 40.0078 79.1122C59.3359 69.7963 74.9385 88.6216 74.9385 88.6216C74.9385 88.6216 63.6797 59.7976 82.0079 43.0586C100.336 26.3195 127.729 39.4621 128.26 76.1431C128.79 112.824 114.578 138.073 114.578 138.073L77.8877 138.576Z" fill="#E6B5E4"/>
<path d="M135.343 40L117.843 60.5L121.343 71.5L142.343 49L135.343 40Z" fill="#B842A5"/>
<path d="M34.8433 140.5L61.3433 124L64.8433 128.5L45.8433 147.5L34.8433 140.5Z" fill="#B842A5"/>
<path d="M24.3433 156.5L35.8433 135.5C45.0433 135.5 50.6766 143.833 52.3433 148L24.3433 156.5Z" fill="#EEC9C9"/>
<path d="M13.1988 76.4776C15.3372 76.4776 17.9112 77.1904 17.9112 80.002C17.9112 82.576 16.0104 85.3876 12.8424 85.3876L13.1988 76.4776ZM9.47641 72.6364C8.44681 96.1984 8.40721 99.802 8.40721 100.119L12.1296 100.356C16.4856 100.356 20.8812 98.2972 20.8812 93.1492C20.8812 89.9416 19.02 87.0904 15.654 86.536C19.3764 85.546 20.6832 82.6156 20.6832 79.9228C20.6832 74.7352 16.2084 72.2404 9.47641 72.6364ZM12.8424 87.8824C15.8124 87.8824 17.832 89.6248 17.832 92.9116C17.832 95.7628 15.9312 97.4656 13.0404 97.4656C12.882 97.4656 12.684 97.426 12.486 97.426L12.8424 87.8824ZM39.7822 100L42.475 99.4456L34.555 72.5176H30.9118L22.5958 99.3268L26.4766 100.396L28.9714 90.8524L36.8122 90.1792L39.7822 100ZM32.8522 76.9924L36.2578 88.318L29.5258 88.714L32.8522 76.9924ZM54.3262 79.4872L59.6722 99.9604H63.5134L55.1974 72.8344H52.3066L43.5946 99.9604H46.921L54.3262 79.4872ZM69.2266 76.8736L77.305 76.438V72.9136H66.9694L66.415 100H77.305V96.634L68.6722 95.8816L68.9098 87.2884L75.3646 88.1596V85.2688H68.989L69.2266 76.8736ZM96.1512 99.9604L96.1908 72.7156H91.914L91.7952 85.6252L82.8852 85.4272L82.9644 72.7156H79.7568L80.232 99.9604H82.7664L82.8852 87.4864H91.7952L91.6368 99.9604H96.1512ZM114.532 72.5572L98.8106 73.468L98.969 75.6856H105.028L104.513 99.8812L107.919 99.406L109.107 75.6856L114.373 75.7648L114.532 72.5572ZM134.5 100.079L133.51 72.9928L130.144 72.7948L120.917 91.8424L121.432 72.874H117.076L117.036 99.7228L119.65 99.8416L129.748 79.0516L130.302 100.079H134.5ZM155.629 99.9604L155.668 72.7156H151.391L151.273 85.6252L142.363 85.4272L142.442 72.7156H139.234L139.709 99.9604H142.244L142.363 87.4864H151.273L151.114 99.9604H155.629ZM166.168 100H170.92L174.564 95.1292L174.999 77.7052L170.168 72.676H163L159.595 77.5468L159.199 94.9708L166.168 100ZM168.426 75.2104L170.96 78.7348L170.168 94.7728L167.634 97.2676L162.446 93.5452L162.961 77.5072L164.703 75.0916L168.426 75.2104Z" fill="white"/>
</g>
<defs>
<clipPath id="clip0_486_4008">
<rect width="180" height="180" fill="white"/>
</clipPath>
</defs>
</svg>
