<svg width="180" height="180" viewBox="0 0 180 180" fill="none" xmlns="http://www.w3.org/2000/svg">
<g clip-path="url(#clip0_480_2148)">
<rect width="180" height="180" fill="#C62E2E"/>
<path d="M142.5 120L52 43L37 70L46 112.5L69 137H95L138.5 125L142.5 120Z" fill="#FF3F6D"/>
<path d="M52.4999 116C38.4999 89.2 46.6666 55.5 52.4999 42L47.9998 36C33.4998 53.5 22 99.5 47.9998 126C80.1775 158.797 130.833 138.5 150.5 126L143.5 119.5C119 129.5 66.4999 142.8 52.4999 116Z" fill="#4CB469"/>
<ellipse cx="104.5" cy="96" rx="1.5" ry="5" fill="#3F3737"/>
<ellipse cx="90.3801" cy="125.651" rx="2.5" ry="8" transform="rotate(73.6529 90.3801 125.651)" fill="#3F3737"/>
<ellipse cx="58.0514" cy="81.3744" rx="2.5" ry="8" transform="rotate(19.7102 58.0514 81.3744)" fill="#3F3737"/>
<path d="M35.2843 68.4688L39.0579 81H43.4011L35.8895 56.2936H31.9023L27.5235 81H29.7663L31.6531 68.4332L35.2843 68.4688ZM32.8991 60.1028L34.7859 66.8668L31.9023 66.76L32.8991 60.1028ZM49.1553 70.9964L58.4113 70.8184L61.5797 68.1484L61.6153 60.3876L58.2333 56.6496H46.0225V81H49.0485L49.1553 70.9964ZM49.1553 68.8604L49.2621 59.1772L56.2397 59.6044L58.8385 61.5268L58.1621 66.8312L56.4889 68.7892L49.1553 68.8604ZM74.6076 78.864V68.896L71.724 66.404L66.6688 66.6176L66.74 59.996L74.0736 59.5688L73.5752 56.4004H64.604L63.892 81H71.724L74.6076 78.864ZM66.4552 78.4012L66.6332 68.4332L70.4424 68.2552L72.0444 69.964L72.0088 76.6924L70.7628 77.6892L66.4552 78.4012ZM78.1287 79.8964L80.9411 81L87.7407 56.614H84.6791L81.6531 67.3652L78.3779 56.436L75.9927 57.2192L80.5495 71.3168L78.1287 79.8964ZM87.9701 80.5372L98.2941 80.822L100.217 72.8832L99.6113 70.3556L95.9445 68.0772L98.5077 65.7276L99.4689 58.6432L95.5173 56.6496L88.8601 58.3584L89.8213 61.3844L94.1645 59.0348L95.9089 59.8892L95.8733 64.8376L93.8797 67.3652H90.6045V69.5368L93.5949 69.608L96.8701 72.4916L95.5885 78.5792L88.4329 77.4044L87.9701 80.5372ZM118.194 80.9644L118.229 56.4716H114.384L114.278 68.0772L106.268 67.8992L106.339 56.4716H103.455L103.882 80.9644H106.161L106.268 69.7504H114.278L114.135 80.9644H118.194ZM136.32 81L138.74 80.5016L131.62 56.2936H128.345L120.869 80.3948L124.358 81.356L126.601 72.7764L133.65 72.1712L136.32 81ZM130.09 60.3164L133.151 70.498L127.099 70.854L130.09 60.3164ZM148.62 70.32L148.193 81H151.005V56.614H142.354L140.183 59.5688V67.8636L141.998 70.32H144.17L140.04 80.466L143.066 81.356L147.053 70.32H148.62ZM148.62 68.006H144.17L142.817 66.5108V60.6724L144.312 58.7856H148.62V68.006ZM53.6616 92.3292L39.5284 93.148L39.6708 95.1416H45.1176L44.6548 116.893L47.7164 116.466L48.7844 95.1416L53.5192 95.2128L53.6616 92.3292ZM58.4409 96.2096L65.7033 95.818V92.6496H56.4117L55.9133 117H65.7033V113.974L57.9425 113.298L58.1561 105.572L63.9589 106.356V103.757H58.2273L58.4409 96.2096ZM72.7134 103.294L79.691 117.107L83.251 115.861L74.2086 101.834L81.7558 94.6432L79.7978 92.6496L72.4642 101.3H71.7166L71.7878 92.6852L68.2278 92.5072L67.9074 117.142L71.4318 116.964L71.5386 103.436L72.7134 103.294ZM100.642 117.071L99.7522 92.7208L96.7262 92.5428L88.4314 109.666L88.8942 92.614H84.9782L84.9426 116.751L87.2922 116.858L96.3702 98.1676L96.8686 117.071H100.642ZM112.908 98.5592L117.714 116.964H121.167L113.691 92.5784H111.092L103.26 116.964H106.251L112.908 98.5592ZM137.936 117L140.357 116.502L133.237 92.2936H129.962L122.486 116.395L125.975 117.356L128.217 108.776L135.266 108.171L137.936 117ZM131.706 96.3164L134.768 106.498L128.716 106.854L131.706 96.3164Z" fill="white"/>
</g>
<defs>
<clipPath id="clip0_480_2148">
<rect width="180" height="180" fill="white"/>
</clipPath>
</defs>
</svg>
