<svg width="180" height="180" viewBox="0 0 180 180" fill="none" xmlns="http://www.w3.org/2000/svg">
<g clip-path="url(#clip0_461_2165)">
<rect width="180" height="180" fill="#713FFF"/>
<path d="M128.77 11.6024L57.6463 34.0945C63.8515 41.9466 81.1603 55.6323 100.753 47.5583C120.346 39.4844 127.595 20.2236 128.77 11.6024Z" fill="#FF843F"/>
<path d="M90.009 48H36L45.0437 163.726L43.235 180H90.009H136.765L134.956 163.726L144 48H90.009Z" fill="#EFAA29"/>
<path d="M48.8791 56.4776C51.0175 56.4776 53.5915 57.1904 53.5915 60.002C53.5915 62.576 51.6907 65.3876 48.5227 65.3876L48.8791 56.4776ZM45.1567 52.6364C44.1271 76.1984 44.0875 79.802 44.0875 80.1188L47.8099 80.3564C52.1659 80.3564 56.5615 78.2972 56.5615 73.1492C56.5615 69.9416 54.7003 67.0904 51.3343 66.536C55.0567 65.546 56.3635 62.6156 56.3635 59.9228C56.3635 54.7352 51.8887 52.2404 45.1567 52.6364ZM48.5227 67.8824C51.4927 67.8824 53.5123 69.6248 53.5123 72.9116C53.5123 75.7628 51.6115 77.4656 48.7207 77.4656C48.5623 77.4656 48.3643 77.426 48.1663 77.426L48.5227 67.8824ZM77.5612 80.0792L76.5712 52.9928L73.2052 52.7948L63.9784 71.8424L64.4932 52.874H60.1372L60.0976 79.7228L62.7112 79.8416L72.8092 59.0516L73.3636 80.0792H77.5612ZM86.5325 80H94.3733L96.7097 74.9708L93.7001 73.466L92.1557 76.832L87.6809 76.6736L84.8693 73.1492L85.6613 57.9428L87.6809 55.3292L91.5221 56.0816L93.1853 59.7248L95.9969 58.2596L93.5021 52.7156H85.7009L81.6221 57.5864L81.1073 74.9708L86.5325 80ZM105.044 64.754L112.805 80.1188L116.765 78.7328L106.707 63.1304L115.102 55.1312L112.924 52.9136L104.766 62.5364H103.935L104.014 52.9532L100.054 52.7552L99.6976 80.1584L103.618 79.9604L103.737 64.9124L105.044 64.754ZM136.11 80.0792L135.12 52.9928L131.754 52.7948L122.528 71.8424L123.042 52.874H118.686L118.647 79.7228L121.26 79.8416L131.358 59.0516L131.913 80.0792H136.11ZM52.1145 120H59.9553L62.2917 114.971L59.2821 113.466L57.7377 116.832L53.2629 116.674L50.4513 113.149L51.2433 97.9428L53.2629 95.3292L57.1041 96.0816L58.7673 99.7248L61.5789 98.2596L59.0841 92.7156H51.2829L47.2041 97.5864L46.6893 114.971L52.1145 120ZM80.6445 120L83.3373 119.446L75.4173 92.5176H71.7741L63.4581 119.327L67.3389 120.396L69.8337 110.852L77.6745 110.179L80.6445 120ZM73.7145 96.9924L77.1201 108.318L70.3881 108.714L73.7145 96.9924ZM87.1101 118.772L90.2385 120L97.8021 92.874H94.3965L91.0305 104.833L87.3873 92.676L84.7341 93.5472L89.8029 109.229L87.1101 118.772ZM98.6909 120.238L109.739 119.366L113.62 105.15L112.551 98.9328L109.423 92.2404L99.5225 93.9828L101.027 97.9824L107.284 95.7252L109.581 99.5664L110.254 104.358L101.344 103.962L101.463 107.209L110.413 106.972L107.363 116.872L98.8097 116.119L98.6909 120.238ZM120.662 108.872L130.958 108.674L134.483 105.704L134.522 97.0716L130.76 92.9136H117.177V120H120.543L120.662 108.872ZM120.662 106.496L120.781 95.7252L128.543 96.2004L131.433 98.3388L130.681 104.239L128.82 106.417L120.662 106.496Z" fill="white"/>
</g>
<defs>
<clipPath id="clip0_461_2165">
<rect width="180" height="180" fill="white"/>
</clipPath>
</defs>
</svg>
