<svg width="180" height="180" viewBox="0 0 180 180" fill="none" xmlns="http://www.w3.org/2000/svg">
<g clip-path="url(#clip0_492_3113)">
<rect width="180" height="180" fill="#713FFF"/>
<path d="M22.2301 -32.4773C16.1262 -21.0952 22.2299 5.38163 31.5566 26.4361C17.2004 15.9821 -26.5032 -13.5722 -35.0486 5.13745C-45.3519 27.5597 -41.4943 64.832 -29.4819 71.2803C-18.788 76.9957 5.33451 72.0132 25.6481 63.5621C13.8311 80.3178 -10.8284 119.007 6.65302 127.067C29.0664 137.326 66.3242 133.516 72.7699 121.498C79.2156 109.481 72.7701 83.6398 63.4434 62.5854C77.7996 72.9905 121.503 102.594 130.049 83.884C140.352 61.4617 136.494 24.1888 124.482 17.7406C113.788 12.0251 89.7143 16.9591 69.3519 25.459C81.1689 8.70338 105.828 -29.986 88.347 -38.0463C65.9336 -48.3537 28.5781 -44.4944 22.2301 -32.4773Z" fill="#A2CEE1"/>
<path d="M47.5 59C55.5081 59 62 52.5081 62 44.5C62 36.4918 55.5081 30 47.5 30C39.4919 30 33 36.4918 33 44.5C33 52.5081 39.4919 59 47.5 59Z" fill="#FFC81A"/>
<path d="M106.148 116.25C105.983 123.618 115.928 135.513 126.111 143.817C116.107 142.206 86.2358 138.457 86.7205 150.184C87.2699 164.254 98.8602 182.222 106.638 182.4C113.555 182.546 124.542 173.78 132.695 164.233C131.01 175.811 128.457 201.866 139.434 201.452C153.488 200.882 171.461 189.319 171.636 181.54C171.812 173.76 161.857 162.277 151.673 153.973C161.666 155.559 191.549 159.333 191.064 147.606C190.515 133.536 178.924 115.567 171.147 115.389C164.229 115.244 153.255 123.972 145.09 133.557C146.774 121.979 149.328 95.9238 138.351 96.3382C124.284 96.8832 106.274 108.496 106.148 116.25Z" fill="#A2CEE1"/>
<path d="M142.738 156.469C146.923 154.344 148.594 149.228 146.469 145.042C144.344 140.856 139.228 139.185 135.042 141.31C130.856 143.436 129.186 148.552 131.311 152.737C133.436 156.923 138.552 158.594 142.738 156.469Z" fill="#FFC81A"/>
<path d="M49.8815 44.8932C50.6647 44.9644 52.5159 45 53.2279 45C59.2087 45 62.0567 42.2232 62.0567 38.0224C62.0567 34.142 59.4223 31.1872 54.3315 31.0804L54.6519 22.7144L61.5583 22.5364L61.9499 20.4716L51.1275 20.6852L49.8815 44.8932ZM55.0791 42.33C54.7231 42.33 54.3315 42.33 53.9043 42.2944L54.3315 32.9316C57.6423 33.074 59.5291 34.9608 59.5291 37.9156C59.5291 40.1584 58.1407 42.33 55.0791 42.33ZM67.3583 24.2096L74.6207 23.818V20.6496L65.3291 20.6496L64.8307 45H74.6207V41.974L66.8599 41.2976L67.0735 33.5724L72.8763 34.3556V31.7568H67.1447L67.3583 24.2096ZM85.9473 26.5592L90.7533 44.9644H94.2065L86.7305 20.5784H84.1317L76.2997 44.9644H79.2901L85.9473 26.5592ZM96.815 20.8276L97.883 43.0776L100.197 45H106.178L107.78 41.6536L107.103 33.252L104.611 30.4752L100.838 30.1904L100.411 20.5784L96.815 20.8276ZM114.508 20.5784H110.45L110.735 45H113.618L114.508 20.5784ZM103.828 32.6112L104.647 33.9284L105.288 41.4756L104.54 43.1844L101.407 42.8284L100.945 32.362L103.828 32.6112ZM128.257 14.4908C127.224 15.3096 126.299 15.6656 125.409 15.6656C124.127 15.6656 122.917 14.9892 121.528 14.028L119.891 16.2352C121.279 17.4812 122.881 18.0508 124.412 18.0508C126.227 18.0508 127.936 17.2676 129.111 15.986L128.257 14.4908ZM130.286 45L129.396 20.4004H127.082L122.596 38.0936L122.703 20.5072L118.787 20.436L120.567 45H122.917L127.438 26.7372L128.435 45H130.286ZM28.2785 70.9964L37.5345 70.8184L40.7029 68.1484L40.7385 60.3876L37.3565 56.6496H25.1457V81H28.1717L28.2785 70.9964ZM28.2785 68.8604L28.3853 59.1772L35.3629 59.6044L37.9617 61.5268L37.2853 66.8312L35.6121 68.7892L28.2785 68.8604ZM49.6722 81H53.9442L57.2194 76.6212L57.611 60.9572L53.2678 56.436H46.8242L43.7626 60.8148L43.4066 76.4788L49.6722 81ZM51.7014 58.7144L53.9798 61.8828L53.2678 76.3008L50.9894 78.5436L46.3258 75.1972L46.7886 60.7792L48.355 58.6076L51.7014 58.7144ZM69.0753 65.514L62.4537 56.5072L61.2077 57.0412L59.7125 81L62.4893 81.3204L63.1301 62.7372L68.7549 70.0708L75.4121 62.844L76.0529 81.0356L79.1501 80.8576L78.4737 57.7176L76.6225 56.5072L69.0753 65.514ZM96.148 81L98.5688 80.5016L91.4488 56.2936H88.1736L80.6976 80.3948L84.1864 81.356L86.4292 72.7764L93.478 72.1712L96.148 81ZM89.918 60.3164L92.9796 70.498L86.9276 70.854L89.918 60.3164ZM101.623 79.576L102.904 81H122.484L121.63 56.5428L117.821 57.0768L119.209 78.4012H112.908L112.481 68.184H109.846L110.558 78.33H104.506L103.901 56.7564L100.448 56.436L101.623 79.576ZM131.572 67.294L138.549 81.1068L142.109 79.8608L133.067 65.8344L140.614 58.6432L138.656 56.6496L131.322 65.3004H130.575L130.646 56.6852L127.086 56.5072L126.766 81.1424L130.29 80.9644L130.397 67.4364L131.572 67.294ZM148.198 81H152.47L155.745 76.6212L156.137 60.9572L151.794 56.436H145.35L142.288 60.8148L141.932 76.4788L148.198 81ZM150.227 58.7144L152.506 61.8828L151.794 76.3008L149.515 78.5436L144.852 75.1972L145.314 60.7792L146.881 58.6076L150.227 58.7144ZM66.4822 92.5784L65.7346 117H74.9194L77.5538 114.935L77.803 105.074L74.5634 102.938L77.3402 96.3876L75.133 92.6852L66.4822 92.5784ZM75.2754 106.605L75.0974 113.226L72.997 114.757L69.5794 114.437L69.615 105.216L72.8902 104.682L75.2754 106.605ZM71.6086 102.831L69.615 103.223L69.6506 94.8212L72.8546 94.7856L74.1718 96.7436L71.6086 102.831ZM80.9619 92.8276L82.0299 115.078L84.3439 117H90.3247L91.9267 113.654L91.2503 105.252L88.7583 102.475L84.9847 102.19L84.5575 92.5784L80.9619 92.8276ZM98.6551 92.5784H94.5967L94.8815 117H97.7651L98.6551 92.5784ZM87.9751 104.611L88.7939 105.928L89.4347 113.476L88.6871 115.184L85.5543 114.828L85.0915 104.362L87.9751 104.611ZM112.403 86.4908C111.371 87.3096 110.445 87.6656 109.555 87.6656C108.274 87.6656 107.063 86.9892 105.675 86.028L104.037 88.2352C105.426 89.4812 107.028 90.0508 108.559 90.0508C110.374 90.0508 112.083 89.2676 113.258 87.986L112.403 86.4908ZM114.433 117L113.543 92.4004H111.229L106.743 110.094L106.85 92.5072L102.934 92.436L104.714 117H107.063L111.585 98.7372L112.581 117H114.433ZM23.6258 131.177L30.3898 131.284L30.639 128.65H20.2438V153.142H24.1598L23.6258 131.177ZM37.8143 134.559L42.6203 152.964H46.0735L38.5975 128.578H35.9987L28.1667 152.964H31.1571L37.8143 134.559ZM64.3816 153.071L63.4916 128.721L60.4656 128.543L52.1708 145.666L52.6336 128.614H48.7176L48.682 152.751L51.0316 152.858L60.1096 134.168L60.608 153.071H64.3816ZM83.3759 152.964L83.4115 128.472H79.5667L79.4599 140.077L71.4499 139.899L71.5211 128.472H68.6375L69.0647 152.964H71.3431L71.4499 141.75H79.4599L79.3175 152.964H83.3759ZM99.8999 128.329L85.7667 129.148L85.9091 131.142H91.3559L90.8931 152.893L93.9547 152.466L95.0227 131.142L99.7575 131.213L99.8999 128.329ZM102.899 128.578L102.152 153H111.336L113.971 150.935L114.22 141.074L110.98 138.938L113.757 132.388L111.55 128.685L102.899 128.578ZM111.692 142.605L111.514 149.226L109.414 150.757L105.996 150.437L106.032 141.216L109.307 140.682L111.692 142.605ZM108.026 138.831L106.032 139.223L106.068 130.821L109.272 130.786L110.589 132.744L108.026 138.831ZM119.907 132.21L127.169 131.818V128.65H117.877L117.379 153H127.169V149.974L119.408 149.298L119.622 141.572L125.425 142.356V139.757H119.693L119.907 132.21ZM138.843 122.491C137.81 123.31 136.885 123.666 135.995 123.666C134.713 123.666 133.503 122.989 132.114 122.028L130.477 124.235C131.865 125.481 133.467 126.051 134.998 126.051C136.813 126.051 138.522 125.268 139.697 123.986L138.843 122.491ZM140.872 153L139.982 128.4H137.668L133.182 146.094L133.289 128.507L129.373 128.436L131.153 153H133.503L138.024 134.737L139.021 153H140.872ZM159.895 152.964L159.931 128.472H156.086L155.979 140.077L147.969 139.899L148.04 128.472H145.157L145.584 152.964H147.862L147.969 141.75H155.979L155.837 152.964H159.895Z" fill="white"/>
</g>
<defs>
<clipPath id="clip0_492_3113">
<rect width="180" height="180" fill="white"/>
</clipPath>
</defs>
</svg>
