<svg width="180" height="180" viewBox="0 0 180 180" fill="none" xmlns="http://www.w3.org/2000/svg">
<g clip-path="url(#clip0_486_4027)">
<rect width="180" height="180" fill="#75857A"/>
<path d="M45.3637 79.8812C46.2349 79.9604 48.2941 80 49.0861 80C55.7389 80 58.9069 76.9112 58.9069 72.2384C58.9069 67.922 55.9765 64.6352 50.3137 64.5164L50.6701 55.2104L58.3525 55.0124L58.7881 52.7156L46.7497 52.9532L45.3637 79.8812ZM51.1453 77.03C50.7493 77.03 50.3137 77.03 49.8385 76.9904L50.3137 66.5756C53.9965 66.734 56.0953 68.8328 56.0953 72.1196C56.0953 74.6144 54.5509 77.03 51.1453 77.03ZM64.8042 56.8736L72.8826 56.438V52.9136H62.547L61.9926 80H72.8826V76.634L64.2498 75.8816L64.4874 67.2884L70.9422 68.1596V65.2688H64.5666L64.8042 56.8736ZM85.4818 59.4872L90.8278 79.9604H94.669L86.353 52.8344H83.4622L74.7502 79.9604H78.0766L85.4818 59.4872ZM97.5707 53.1116L98.7587 77.8616L101.333 80H107.985L109.767 76.2776L109.015 66.932L106.243 63.8432L102.045 63.5264L101.57 52.8344L97.5707 53.1116ZM117.252 52.8344H112.737L113.054 80H116.262L117.252 52.8344ZM105.372 66.2192L106.283 67.6844L106.995 76.0796L106.164 77.9804L102.679 77.5844L102.164 65.942L105.372 66.2192ZM132.545 46.0628C131.396 46.9736 130.367 47.3696 129.377 47.3696C127.951 47.3696 126.605 46.6172 125.06 45.548L123.239 48.0032C124.783 49.3892 126.565 50.0228 128.268 50.0228C130.288 50.0228 132.188 49.1516 133.495 47.726L132.545 46.0628ZM134.802 80L133.812 52.6364H131.238L126.248 72.3176L126.367 52.7552L122.011 52.676L123.991 80H126.605L131.634 59.6852L132.743 80H134.802ZM32.2002 108.872L42.4962 108.674L46.0206 105.704L46.0602 97.0716L42.2982 92.9136H28.7154L28.7154 120H32.0814L32.2002 108.872ZM32.2002 106.496L32.319 95.7252L40.0806 96.2004L42.9714 98.3388L42.219 104.239L40.3578 106.417L32.2002 106.496ZM49.4244 118.772L52.5528 120L60.1163 92.874H56.7108L53.3448 104.833L49.7016 92.676L47.0484 93.5472L52.1172 109.229L49.4244 118.772ZM66.9452 120H74.786L77.1224 114.971L74.1128 113.466L72.5684 116.832L68.0936 116.674L65.282 113.149L66.074 97.9428L68.0936 95.3292L71.9348 96.0816L73.598 99.7248L76.4096 98.2596L73.9148 92.7156H66.1136L62.0348 97.5864L61.52 114.971L66.9452 120ZM84.3475 120H92.1883L94.5247 114.971L91.5151 113.466L89.9707 116.832L85.4959 116.674L82.6843 113.149L83.4763 97.9428L85.4959 95.3292L89.3371 96.0816L91.0003 99.7248L93.8119 98.2596L91.3171 92.7156H83.5159L79.4371 97.5864L78.9223 114.971L84.3475 120ZM102.859 104.754L110.62 120.119L114.58 118.733L104.522 103.13L112.917 95.1312L110.739 92.9136L102.581 102.536H101.75L101.829 92.9532L97.8691 92.7552L97.5127 120.158L101.433 119.96L101.552 104.912L102.859 104.754ZM133.925 120.079L132.935 92.9928L129.569 92.7948L120.343 111.842L120.857 92.874H116.501L116.462 119.723L119.075 119.842L129.173 99.0516L129.728 120.079H133.925ZM149.193 86.0628C148.045 86.9736 147.015 87.3696 146.025 87.3696C144.6 87.3696 143.253 86.6172 141.709 85.548L139.887 88.0032C141.432 89.3892 143.214 90.0228 144.916 90.0228C146.936 90.0228 148.837 89.1516 150.144 87.726L149.193 86.0628ZM151.45 120L150.46 92.6364H147.886L142.897 112.318L143.016 92.7552L138.66 92.676L140.64 120H143.253L148.282 99.6852L149.391 120H151.45Z" fill="white"/>
<path d="M90.5 136.5H45V151.5H90.5C102.5 151.5 108.167 157.5 109.5 160.5H167.5V126.5H109.5C109.5 126.5 103 136.5 90.5 136.5Z" fill="#D9D9D9"/>
<path d="M46.0001 152V145.5C-23.2 145.5 -21.1665 175.833 -11.4997 191C41.167 194 147.9 197.1 153.5 185.5C160.5 171 133.5 172 123 167C112.5 162 107.5 168 94.0003 167C80.5003 166 87.0003 161 73.0003 157C59.0003 153 58.0001 157.5 50.5001 157C44.5001 156.6 45.0001 153.5 46.0001 152Z" fill="white"/>
<path d="M131 163L124 125.5L154 123.5L156.5 163H131Z" fill="#B7B7B7"/>
</g>
<defs>
<clipPath id="clip0_486_4027">
<rect width="180" height="180" fill="white"/>
</clipPath>
</defs>
</svg>
