<svg width="180" height="180" viewBox="0 0 180 180" fill="none" xmlns="http://www.w3.org/2000/svg">
<g clip-path="url(#clip0_480_2320)">
<rect width="180" height="180" fill="#478358"/>
<path d="M107.623 36.042L130.849 53.406L70.014 129.036L49.5428 113.732L107.623 36.042Z" fill="#D76950"/>
<rect x="121.62" y="34.02" width="8" height="14" transform="rotate(36.7812 121.62 34.02)" fill="#D76950"/>
<rect x="56.5723" y="132.721" width="8" height="14" transform="rotate(-143.219 56.5723 132.721)" fill="#D76950"/>
<ellipse cx="124.824" cy="36.4153" rx="7" ry="6" transform="rotate(36.7812 124.824 36.4153)" fill="#D76950"/>
<ellipse cx="53.3684" cy="130.326" rx="7" ry="6" transform="rotate(-143.219 53.3684 130.326)" fill="#D76950"/>
<path d="M135.616 31.9984C133.632 34.6524 129.872 35.1955 127.218 33.2114C124.564 31.2273 124.021 27.4673 126.005 24.8132C127.989 22.1592 143.126 6.39848 145.78 8.3826C148.434 10.3667 137.6 29.3443 135.616 31.9984Z" fill="#D76950"/>
<path d="M42.5757 134.742C44.5598 132.088 48.3197 131.545 50.9738 133.529C53.6278 135.513 54.1709 139.273 52.1868 141.927C50.2027 144.582 35.0662 160.342 32.4122 158.358C29.7582 156.374 40.5915 137.396 42.5757 134.742Z" fill="#D76950"/>
<path d="M16.8715 98.8932C17.6547 98.9644 19.5059 99 20.2179 99C26.1987 99 29.0467 96.2232 29.0467 92.0224C29.0467 88.142 26.4123 85.1872 21.3215 85.0804L21.6419 76.7144L28.5483 76.5364L28.9399 74.4716L18.1175 74.6852L16.8715 98.8932ZM22.0691 96.33C21.7131 96.33 21.3215 96.33 20.8943 96.2944L21.3215 86.9316C24.6323 87.074 26.5191 88.9608 26.5191 91.9156C26.5191 94.1584 25.1307 96.33 22.0691 96.33ZM45.6335 99L48.0543 98.5016L40.9343 74.2936H37.6591L30.1831 98.3948L33.6719 99.356L35.9147 90.7764L42.9635 90.1712L45.6335 99ZM39.4035 78.3164L42.4651 88.498L36.4131 88.854L39.4035 78.3164ZM61.414 96.864V86.896L58.5304 84.404L53.4752 84.6176L53.5464 77.996L60.88 77.5688L60.3816 74.4004H51.4104L50.6984 99H58.5304L61.414 96.864ZM53.2616 96.4012L53.4396 86.4332L57.2488 86.2552L58.8508 87.964L58.8152 94.6924L57.5692 95.6892L53.2616 96.4012ZM79.8871 99.0712L78.9971 74.7208L75.9711 74.5428L67.6763 91.6664L68.1391 74.614H64.2231L64.1875 98.7508L66.5371 98.8576L75.6151 80.1676L76.1135 99.0712H79.8871ZM93.6126 68.4908C92.5802 69.3096 91.6546 69.6656 90.7646 69.6656C89.483 69.6656 88.2726 68.9892 86.8842 68.028L85.2466 70.2352C86.635 71.4812 88.237 72.0508 89.7678 72.0508C91.5834 72.0508 93.2922 71.2676 94.467 69.986L93.6126 68.4908ZM95.6418 99L94.7518 74.4004H92.4378L87.9522 92.0936L88.059 74.5072L84.143 74.436L85.923 99H88.2726L92.7938 80.7372L93.7906 99H95.6418ZM118.604 96.864V86.896L115.72 84.404L110.665 84.6176L110.736 77.996L118.069 77.5688L117.571 74.4004H108.6L107.888 99H115.72L118.604 96.864ZM110.451 96.4012L110.629 86.4332L114.438 86.2552L116.04 87.964L116.005 94.6924L114.759 95.6892L110.451 96.4012ZM122.125 97.8964L124.937 99L131.737 74.614H128.675L125.649 85.3652L122.374 74.436L119.989 75.2192L124.545 89.3168L122.125 97.8964ZM148.805 98.9644L148.84 74.4716H144.996L144.889 86.0772L136.879 85.8992L136.95 74.4716H134.066L134.494 98.9644H136.772L136.879 87.7504H144.889L144.746 98.9644H148.805ZM165.329 74.3292L151.196 75.148L151.338 77.1416H156.785L156.322 98.8932L159.384 98.466L160.452 77.1416L165.186 77.2128L165.329 74.3292Z" fill="white"/>
</g>
<defs>
<clipPath id="clip0_480_2320">
<rect width="180" height="180" fill="white"/>
</clipPath>
</defs>
</svg>
