<svg width="360" height="357" viewBox="0 0 360 357" fill="none" xmlns="http://www.w3.org/2000/svg">
<g clip-path="url(#clip0_961_1889)">
<path d="M53 131.972L74.5949 123.78L78.853 136.219H90.715L90.4108 127.421L128.126 128.331L193.823 118.016C194.127 116.803 194.127 115.892 194.127 115.892V113.465L149.721 118.016L109.573 115.286L108.964 110.128L94.3649 111.038L82.807 118.623L79.7655 114.679L90.715 107.094L87.6734 104.667L80.9821 108.915L74.5949 111.645L73.9865 112.555L71.2492 108.308L86.4568 101.027L84.6319 96.7793L71.2492 101.937L69.1201 99.5098L85.8485 90.4083L100.448 102.544L109.573 104.364L110.789 100.117L135.121 101.633L194.431 101.937V96.7793L201.731 91.015L201.427 86.1609L199.298 79.7899L179.832 83.1271L172.532 73.1154L176.486 69.1714L177.399 64.6207L200.514 66.1376L196.56 57.9463L177.399 59.1598L179.528 55.5192L185.611 53.0922L172.532 50.6651V47.3279L181.353 39.1365L177.399 34.8891V19.72C177.399 19.72 181.353 10.3151 186.828 9.70831C190.781 9.10154 204.164 10.3151 204.164 10.3151L214.201 0L212.985 10.0117L223.326 1.82037L218.459 11.5286L227.888 8.19136L223.022 16.6861C223.022 16.6861 226.367 28.5181 225.151 32.7654C224.543 37.923 219.372 48.8448 218.459 50.6651C219.676 50.0583 229.409 43.9906 231.234 48.5414C231.842 54.0023 228.497 62.497 228.497 62.497L218.764 66.1376L221.805 81.9136L230.322 92.532L231.842 118.016V162.917L228.497 178.086L242.792 222.987L248.267 235.122L238.838 229.055L252.22 261.82C252.22 261.82 253.133 259.696 254.35 259.393C256.175 259.089 261.649 262.123 262.866 263.337C263.474 265.157 261.953 269.708 259.52 270.618C256.175 271.832 248.571 266.067 248.571 266.067C248.571 266.067 247.354 272.742 243.704 273.955C240.054 275.472 237.013 275.776 236.405 271.832C235.188 268.191 237.925 264.854 237.925 264.854L243.704 263.033L233.059 231.785L233.667 240.583C233.667 240.583 230.322 235.122 229.713 232.999C228.497 231.785 227.28 240.886 227.28 240.886L205.077 187.188L164.32 251.505L157.325 250.595L154.891 262.123L150.329 273.955L133.297 269.708C133.297 269.708 116.264 266.674 116.264 264.854C116.264 262.73 123.868 263.64 126.301 263.944C123.868 263.033 112.006 258.786 112.918 256.359C113.527 254.539 125.084 258.786 128.126 259.696C125.997 258.483 113.527 251.202 114.135 249.381C114.743 248.471 143.942 259.696 143.942 259.696L147.288 248.774L141.204 245.437L149.417 227.234L173.749 189.008L196.56 165.344C196.56 165.344 190.477 150.782 190.781 145.321C191.086 142.59 191.39 137.129 192.302 132.579L139.988 146.838L93.4524 146.231L92.8441 143.804L78.853 145.321L67.9035 156.546L60.6038 151.692L75.5073 142.287L74.5949 139.253L58.7789 144.714L56.3456 141.377L72.7699 134.095L72.1616 129.545L53.6083 135.006L53 131.972Z" fill="#4CB469"/>
<g opacity="0.1">
<path d="M6.08185 228.801H54.7402L10.5053 299.577H-47L6.08185 228.801Z" fill="#C9C6BF"/>
<path d="M111.361 228.801H160.019L137.017 299.577H79.5117L111.361 228.801Z" fill="#C9C6BF"/>
<path d="M248.489 228.801H199.831L222.833 299.577H280.338L248.489 228.801Z" fill="#C9C6BF"/>
<path d="M353.768 228.801H305.11L349.345 299.577H406.85L353.768 228.801Z" fill="#C9C6BF"/>
</g>
</g>
<defs>
<clipPath id="clip0_961_1889">
<rect width="360" height="357" fill="white"/>
</clipPath>
</defs>
</svg>
