<svg width="360" height="397" viewBox="0 0 360 397" fill="none" xmlns="http://www.w3.org/2000/svg">
<g clip-path="url(#clip0_987_1828)">
<g opacity="0.1">
<path d="M6.08185 268.801H54.7402L10.5053 339.577H-47L6.08185 268.801Z" fill="#C9C6BF"/>
<path d="M111.361 268.801H160.019L137.017 339.577H79.5117L111.361 268.801Z" fill="#C9C6BF"/>
<path d="M248.489 268.801H199.831L222.833 339.577H280.338L248.489 268.801Z" fill="#C9C6BF"/>
<path d="M353.768 268.801H305.11L349.345 339.577H406.85L353.768 268.801Z" fill="#C9C6BF"/>
</g>
<path d="M257.968 284.103C256.936 283.107 249.878 285.259 249.878 285.259L246.33 270.188L248.634 272.095L250.519 263.949L258.641 268.117L247.178 246.765L239.362 226.444L237.443 196.669L242 199.5L242.38 204.433L241.473 210.534L246.769 203.819L246.31 197.264L247.235 192.177C247.235 192.177 239.279 154.881 238.258 148.681C237.237 142.482 239.459 122.797 239.687 121.962C239.916 121.126 232.204 106.757 232.204 106.757L223.988 105.369L223.14 91.6205L237.854 77.9351L233.572 70.1292L225.874 71.6734C225.874 71.6734 233.152 48.9593 233.377 49.0872C233.602 49.2151 221.122 28.2556 221.122 28.2556L217.228 28.2019L222.153 25.7629L228.136 27.0074L219.949 22.6572L205.258 27.8023L213.805 19.1436L208.109 20.3892L198.21 27.6616L187.491 21.6314L169.177 21.9511L180.386 25.2343L184.722 28.5462L167.628 45.3056L171.133 55.5593L170.532 61.7972L174.38 65.6044L164.088 74.7804L167.217 79.7969L172.01 80.2914L178.976 80.3422L176.087 89.0847L182.613 90.6848L186.543 83.5166L194.644 82.9897L194.722 87.4308L198.667 87.3619L199.564 81.4017L209.197 83.2733L208.33 96.5851L194.914 98.4623L193.233 92.1425L189.179 92.2133L189.29 98.5605L185.033 98.6348L181.671 94.7582L176.248 97.1451L183.974 110.581L202.792 108.356L201.335 117.225L193.822 125.906L193.827 126.19L189.834 129.759L149.636 118.046L128.033 115.168L127.848 117.91L111.578 115.08L92.7124 117.438L87.5374 122.386L90.9897 126.768L96.4793 122.413L108.634 121.795L96.5253 125.049L92.9401 129.899L93.2368 135.279L96.1986 134.791L99.1505 129.669L111.793 126.811L103.222 130.612L102.358 135.698L105.851 137.767L108.032 134.341L113.826 132.333L109.533 135.573L110.476 139.613L113.965 140.333L114.494 137.515L120.504 133.353L126.783 133.558L126.631 135.873L130.096 146.796L136.552 137.383L142.478 140.059L145.642 138.381L153.093 138.342L188.395 143.73L176.381 157.581L135.006 151.072L113.208 150.955L113.291 152.242L93.8895 148.858L75.0237 151.216L69.8486 156.165L73.3314 160.546L78.8209 156.191L90.9755 155.573L78.867 158.827L75.2817 163.677L75.5784 169.057L78.5403 168.569L81.4922 163.447L94.1347 160.589L85.5637 164.39L84.6996 169.476L88.1927 171.545L90.3733 168.119L96.1675 166.111L91.8749 169.351L92.8173 173.391L96.3071 174.111L96.8358 171.293L102.846 167.131L114.257 167.51L114.512 171.664L119.327 182.057L124.543 171.904L130.76 173.824L133.684 171.745L141.068 170.754L184.029 171.799L189.327 167.477L185.627 205.241L192.562 195.992L197.725 196.744L197.647 196.918L162.395 233.934L143.895 271.784L153.163 277.089L149.651 293.094L144.269 293.188L144.26 292.691L141.153 281.923C141.153 281.923 117.985 279.447 102.526 293.419L102.053 295.953L163.091 308.073L164.051 305.013L157.928 302.696L158.146 294.244L164.146 277.911L164.629 277.669L167.622 288.267L169.064 278.576L171.641 282.142L187.384 247.809L211.627 225.965L221.577 259.352L233.108 281.079L234.342 268.166L236.193 269.087C238.159 274.865 241.874 286.119 241.89 288.826C241.89 288.826 233.729 294.628 233.918 296.694C234.106 298.76 237.1 304.752 237.1 304.752L246.221 304.593L251.164 297.407L262.33 298.227C262.33 298.227 264.268 293.122 264.233 291.094C264.198 289.066 258.999 285.1 257.968 284.103Z" fill="#4CB469"/>
</g>
<defs>
<clipPath id="clip0_987_1828">
<rect width="360" height="397" fill="white"/>
</clipPath>
</defs>
</svg>
