<svg width="64" height="83" viewBox="0 0 64 83" fill="none" xmlns="http://www.w3.org/2000/svg">
<path d="M59.5718 20.4057L58.8696 12.9952L46.7355 0L11.6936 1.85196L5.78332 18.42L0 18.2075V83L64 79.5899V20.5683L59.5718 20.4057ZM40.0531 51.9573C38.9796 53.0481 37.6755 53.8777 36.239 54.3837L39.8381 65.1099H25.4368L28.9762 54.145C26.9818 53.2923 25.3106 51.8137 24.2089 49.927C23.1071 48.0403 22.633 45.8452 22.8563 43.6651C23.0797 41.4851 23.9887 39.4353 25.4496 37.8176C26.9104 36.2 28.8457 35.1001 30.9705 34.68C33.0953 34.2598 35.2972 34.5416 37.2519 35.4838C39.2066 36.4261 40.8107 37.9789 41.828 39.9137C42.8452 41.8484 43.2218 44.0628 42.9023 46.2306C42.5827 48.3983 41.584 50.4049 40.0531 51.9547V51.9573ZM15.5725 18.782L18.3631 10.9544L42.9163 9.65855L49.8889 17.1241L50.1687 20.0568L15.5725 18.782Z" fill="#FFBE3F"/>
</svg>
