<svg width="360" height="411" viewBox="0 0 360 411" fill="none" xmlns="http://www.w3.org/2000/svg">
<g clip-path="url(#clip0_1037_1962)">
<g clip-path="url(#clip1_1037_1962)">
<rect width="226.503" height="226.503" transform="translate(-33 80.4688) rotate(-20)" fill="#75857A"/>
<path d="M54.4214 153.757C55.4857 153.475 57.9377 152.636 58.8742 152.295C66.7409 149.432 69.1576 144.416 67.1465 138.891C65.2888 133.787 60.4091 131.161 53.6619 133.458L50.0782 122.3L59.0772 118.76L58.6037 115.857L44.471 121.319L54.4214 153.757ZM60.0309 147.897C59.5626 148.067 59.0475 148.255 58.4686 148.412L54.5482 135.893C58.9711 134.495 62.3561 136.074 63.7707 139.96C64.8444 142.91 64.0579 146.431 60.0309 147.897ZM67.5071 118.184L76.872 114.192L75.3552 110.025L63.1337 114.473L74.1356 146.74L87.0127 142.053L85.564 138.073L75.0322 140.899L71.6148 130.636L79.6223 128.888L78.3782 125.469L70.8393 128.213L67.5071 118.184ZM93.0825 112.375L108.215 134.283L112.757 132.63L91.2495 104.134L87.8312 105.378L89.2041 141.203L93.1375 139.771L93.0825 112.375ZM104.633 99.6336L116.69 128.388L120.654 129.809L128.521 126.946L129.026 121.777L124.114 111.05L119.507 108.591L114.407 110.023L109.243 97.5845L104.633 99.6336ZM127.786 90.8354L122.448 92.7783L134.514 124.764L138.307 123.384L127.786 90.8354ZM119.499 111.775L121.207 113.116L125.663 122.736L125.497 125.342L121.206 126.373L115.587 112.828L119.499 111.775ZM142.955 76.2464C141.989 77.8176 140.942 78.729 139.772 79.1551C138.086 79.7686 136.17 79.4584 133.884 78.8588L132.786 82.546C135.209 83.5202 137.589 83.5025 139.602 82.7696C141.991 81.9004 143.863 80.0522 144.795 77.804L142.955 76.2464ZM160.23 115.404L147.283 83.4741L144.239 84.5819L146.81 110.002L138.531 86.8186L133.346 88.5997L147.447 120.057L150.537 118.932L147.741 92.7464L157.795 116.291L160.23 115.404ZM51.2192 193.389L63.3086 188.724L66.1979 183.695L62.5293 173.47L56.2913 170.172L40.2302 176.018L51.8877 208.047L55.8678 206.598L51.2192 193.389ZM50.1966 190.579L45.7014 177.792L55.0837 175.013L59.4223 176.298L61.072 183.599L59.8086 186.975L50.1966 190.579ZM75.8469 197.682L80.0744 197.788L77.3436 162.457L73.3166 163.923L74.4834 179.513L64.9433 166.705L62.1809 168.877L74.9236 185.239L75.8469 197.682ZM97.093 191.593L106.364 188.219L106.963 181.266L102.756 180.782L102.379 185.427L97.0193 187.166L92.1778 184.208L86.5698 165.887L87.833 161.927L92.6989 161.163L96.2336 164.755L98.9276 161.813L93.5916 156.331L84.3669 159.689L81.6402 167.203L88.5134 187.981L97.093 191.593ZM117.671 184.104L126.942 180.729L127.54 173.777L123.334 173.293L122.956 177.938L117.597 179.676L112.755 176.719L107.147 158.397L108.411 154.437L113.277 153.674L116.811 157.266L119.505 154.323L114.169 148.841L104.945 152.199L102.218 159.714L109.091 180.492L117.671 184.104ZM132.998 158.109L148.788 172.937L152.874 169.594L134.266 155.473L140.75 142.402L137.22 140.717L131.716 155.606L130.732 155.964L126.701 144.598L121.934 146.068L133.306 178.625L137.857 176.704L131.521 158.859L132.998 158.109ZM176.329 162.86L163.501 131.257L159.435 132.472L156.723 158.966L149.168 136.315L144.017 138.19L155.525 169.955L158.667 168.97L161.66 140.041L171.365 164.667L176.329 162.86ZM179.742 116.066C178.776 117.637 177.729 118.549 176.559 118.975C174.873 119.588 172.957 119.278 170.671 118.678L169.573 122.366C171.996 123.34 174.376 123.322 176.389 122.589C178.777 121.72 180.65 119.872 181.582 117.624L179.742 116.066ZM197.017 155.224L184.07 123.294L181.026 124.401L183.596 149.821L175.318 126.638L170.133 128.419L184.234 159.877L187.324 158.752L184.528 132.566L194.582 156.11L197.017 155.224Z" fill="white"/>
<path d="M132.76 202.925L78.9579 222.508L85.4136 240.245L139.216 220.662C153.405 215.498 162.688 220.154 165.556 223.127L234.139 198.165L219.506 157.961L150.923 182.924C150.923 182.924 147.541 197.546 132.76 202.925Z" fill="#D9D9D9"/>
<path d="M86.8109 240.406L84.0135 232.72C2.18682 262.502 17.6464 297.495 35.6045 311.268C99.172 292.149 226.714 249.879 228.344 233.752C230.38 213.594 198.884 226.396 184.317 225.003C169.749 223.61 166.419 232.856 150.025 237.484C133.632 242.112 139.166 233.402 120.89 234.697C102.614 235.993 103.368 241.744 94.2839 244.381C87.017 246.49 86.2741 242.61 86.8109 240.406Z" fill="white"/>
<path d="M192.054 216.83L167.638 175.501L202.251 160.224L222.207 205.856L192.054 216.83Z" fill="#B7B7B7"/>
<path d="M153.087 30.3899L159.255 34.8021L159.619 35.0624L160.066 35.0345L167.635 34.5615L165.345 41.7916L165.21 42.2182L165.374 42.6343L168.163 49.687L160.579 49.7432L160.132 49.7465L159.787 50.0316L153.941 54.8633L151.544 47.668L151.403 47.2435L151.025 47.0035L144.623 42.9371L150.726 38.4339L151.086 38.1682L151.197 37.7349L153.087 30.3899Z" fill="#FFBE3F" stroke="#FFEECE" stroke-width="2.5167"/>
</g>
<g clip-path="url(#clip2_1037_1962)">
<rect width="180" height="180" transform="translate(183.587 183) rotate(15)" fill="#69193F"/>
<path d="M192.826 268.297L178.95 386.498L164.212 441.502L204.323 452.25L244.435 462.998L259.173 407.994L306.257 298.691L249.541 283.494L192.826 268.297Z" fill="#B842A5"/>
<path d="M255.634 319.808C261.893 299.538 238.264 282.888 225.667 277.097C227.479 270.335 232.403 273.208 246.892 277.09C261.381 280.973 265.081 284.552 279.251 285.761C290.587 286.728 296.548 293.329 298.112 296.509C299.721 296.94 301.121 300.731 293.841 312.446C286.561 324.161 285.819 359.127 286.358 375.146C284.659 377.624 278.377 380.979 266.841 374.575C255.305 368.171 242.026 369.306 236.828 370.674C229.946 361.584 247.809 345.147 255.634 319.808Z" fill="#A09292"/>
<path d="M199.73 246.738L207.057 248.005L207.742 244.375L198.513 241.944L191.123 267.841L193.648 268.518L199.73 246.738ZM209.584 261.268L219.58 263.741L223.753 261.785L226.026 253.456L223.468 248.466L210.348 244.951L203.338 271.114L206.589 271.986L209.584 261.268ZM210.199 258.973L213.102 248.599L220.476 251.067L222.715 253.881L220.461 259.386L218.099 261.008L210.199 258.973ZM233.76 266.967L230.226 278.319L233.248 279.129L240.269 252.927L230.974 250.436L227.79 252.986L225.402 261.898L226.646 265.06L228.979 265.686L221.621 275.398L224.616 277.226L232.077 266.516L233.76 266.967ZM234.426 264.481L229.645 263.199L228.622 261.203L230.303 254.93L232.453 253.333L237.081 254.574L234.426 264.481ZM235.73 279.261L246.74 282.539L251.091 274.563L251.169 271.673L247.885 268.169L251.316 266.382L254.388 259.047L250.716 255.767L243.071 255.687L243.233 259.215L248.576 257.941L250.204 259.361L248.741 264.667L245.871 266.809L242.352 265.866L241.727 268.2L244.92 269.137L247.609 273.178L244.479 279.35L237.129 276.028L235.73 279.261ZM268.081 288.421L275.17 262.115L271.039 261.008L267.583 273.447L259.028 270.95L262.395 258.692L259.296 257.861L252.704 284.301L255.152 284.957L258.495 272.939L267.102 275.245L263.72 287.253L268.081 288.421ZM279.664 263.729L274.406 287.943L276.338 290.675L282.765 292.397L285.449 289.262L287.141 280.04L285.263 276.339L281.291 274.947L283.599 264.496L279.664 263.729ZM298.746 268.555L294.386 267.387L287.661 293.709L290.759 294.539L298.746 268.555ZM283.807 278.409L284.307 280.06L282.823 288.354L281.528 289.974L278.264 288.69L280.78 277.311L283.807 278.409ZM315.271 265.972C313.926 266.555 312.829 266.671 311.872 266.415C310.495 266.046 309.39 264.97 308.175 263.538L305.78 265.438C306.913 267.176 308.47 268.25 310.115 268.69C312.066 269.213 314.127 268.864 315.758 267.825L315.271 265.972ZM308.667 299.337L314.793 272.65L312.307 271.984L302.394 289.703L307.572 270.838L303.384 269.634L298.225 296.539L300.75 297.216L310.865 278.895L306.678 298.804L308.667 299.337ZM184.448 289.63L179.926 278.046L178.434 278.261L169.929 303.574L172.821 304.717L178.859 284.935L182.792 294.434L192.025 288.586L187.476 308.316L190.855 309.017L196.791 283.959L195.15 282.126L184.448 289.63ZM209.078 314.063L211.822 314.225L211.142 286.165L207.623 285.222L192.651 308.965L196.123 311.002L201.003 302.429L208.751 303.809L209.078 314.063ZM208.339 290.046L208.697 301.867L202.092 300.507L208.339 290.046ZM220.766 305.675L230.762 308.149L234.935 306.192L237.208 297.864L234.65 292.874L221.53 289.358L214.52 315.522L217.771 316.393L220.766 305.675ZM221.381 303.38L224.283 293.007L231.658 295.474L233.896 298.288L231.643 303.793L229.281 305.415L221.381 303.38ZM253.943 297.674L238.521 294.485L238.1 296.668L243.953 298.236L237.193 321.474L240.606 321.896L247.893 299.292L252.959 300.731L253.943 297.674ZM266.107 329.426L272.161 303.007L268.961 301.944L255.119 317.955L260.526 299.766L256.318 298.638L249.331 324.562L251.825 325.353L266.96 307.885L262.053 328.34L266.107 329.426ZM286.547 334.78L293.636 308.474L289.505 307.367L286.049 319.806L277.494 317.309L280.861 305.051L277.762 304.22L271.17 330.66L273.618 331.316L276.961 319.298L285.567 321.604L282.186 333.612L286.547 334.78ZM308.019 340.656L314.073 314.237L310.873 313.174L297.031 329.185L302.437 310.996L298.23 309.869L291.242 335.792L293.736 336.584L308.871 319.115L303.964 339.57L308.019 340.656Z" fill="white"/>
<path d="M333.345 235.814L335.349 241.498L335.467 241.834L335.771 242.019L340.914 245.161L336.127 248.824L335.845 249.04L335.762 249.386L334.363 255.248L329.401 251.828L329.108 251.626L328.753 251.655L322.746 252.136L324.465 246.359L324.566 246.018L324.43 245.69L322.116 240.125L328.141 239.975L328.497 239.966L328.767 239.735L333.345 235.814Z" fill="#FFBE3F" stroke="#FFEECE" stroke-width="2"/>
</g>
<path d="M293.743 11.1118C283.474 6.56663 266.981 16.3681 260.44 26.1771C253.899 35.9861 246.426 57.8414 264.243 62.3068C282.06 66.7721 289.107 61.3404 295.978 45.8147C302.85 30.289 304.013 15.6569 293.743 11.1118Z" fill="#FF3F6D"/>
<rect x="285" y="61.3176" width="100.11" height="100.11" rx="20.3355" transform="rotate(-14.6491 285 61.3176)" fill="#AED8FF"/>
<path d="M91.6567 292.034L-45.6881 389.804C-26.5137 402.123 20.9499 419.032 57.4094 388.109C93.8689 357.186 95.4324 311.175 91.6567 292.034Z" fill="#FFC93F"/>
</g>
<defs>
<clipPath id="clip0_1037_1962">
<rect width="360" height="411" fill="white"/>
</clipPath>
<clipPath id="clip1_1037_1962">
<rect width="226.503" height="226.503" fill="white" transform="translate(-33 80.4688) rotate(-20)"/>
</clipPath>
<clipPath id="clip2_1037_1962">
<rect width="180" height="180" fill="white" transform="translate(183.587 183) rotate(15)"/>
</clipPath>
</defs>
</svg>
