<svg width="360" height="508" viewBox="0 0 360 508" fill="none" xmlns="http://www.w3.org/2000/svg">
<g clip-path="url(#clip0_1037_1832)">
<rect width="1095.14" height="425.021" transform="matrix(-0.996195 -0.0871557 -0.0871557 0.996195 736.68 85.4481)" fill="#FFBE3F"/>
<path d="M34.3035 91.725C40.2435 90.78 41.8635 85.965 41.8635 81.96C41.8635 78.09 40.3335 74.445 34.1235 74.445H31.8285L30.7035 75.975L30.6585 105L34.6185 104.595L34.3035 91.725ZM38.8935 82.5C38.8935 85.785 37.2735 88.26 34.2585 89.115L34.1235 77.235C37.3635 77.55 38.8935 79.485 38.8935 82.5ZM62.2249 105L65.2849 104.37L56.2849 73.77H52.1449L42.6949 104.235L47.1049 105.45L49.9399 94.605L58.8499 93.84L62.2249 105ZM54.3499 78.855L58.2199 91.725L50.5699 92.175L54.3499 78.855ZM73.4422 105H82.3522L85.0072 99.285L81.5872 97.575L79.8322 101.4L74.7472 101.22L71.5522 97.215L72.4522 79.935L74.7472 76.965L79.1122 77.82L81.0022 81.96L84.1972 80.295L81.3622 73.995H72.4972L67.8622 79.53L67.2772 99.285L73.4422 105ZM89.8876 103.2L91.5076 105H116.258L115.178 74.085L110.363 74.76L112.118 101.715H104.153L103.613 88.8H100.283L101.183 101.625H93.5326L92.7676 74.355L88.4026 73.95L89.8876 103.2ZM141.514 105.09L140.389 74.31L136.564 74.085L126.079 95.73L126.664 74.175H121.714L121.669 104.685L124.639 104.82L136.114 81.195L136.744 105.09H141.514ZM150.854 92.355L162.554 92.13L166.559 88.755L166.604 78.945L162.329 74.22H146.894V105H150.719L150.854 92.355ZM150.854 89.655L150.989 77.415L159.809 77.955L163.094 80.385L162.239 87.09L160.124 89.565L150.854 89.655ZM176.367 73.995H171.417L169.482 105H179.472L186.312 100.5L186.627 91.455L182.982 87.45L175.422 89.25L176.367 73.995ZM181.092 91.14L182.982 93.12L182.712 98.745L177.177 102.3L174.702 101.805L175.287 92.49L181.092 91.14ZM205.044 73.815L187.179 74.85L187.359 77.37H194.244L193.659 104.865L197.529 104.325L198.879 77.37L204.864 77.46L205.044 73.815ZM211.085 78.72L220.265 78.225V74.22H208.52L207.89 105H220.265V101.175L210.455 100.32L210.725 90.555L218.06 91.545V88.26H210.815L211.085 78.72ZM237.93 105H246.84L249.495 99.285L246.075 97.575L244.32 101.4L239.235 101.22L236.04 97.215L236.94 79.935L239.235 76.965L243.6 77.82L245.49 81.96L248.685 80.295L245.85 73.995H236.985L232.35 79.53L231.765 99.285L237.93 105ZM253.835 74.13L252.89 105H264.5L267.83 102.39L268.145 89.925L264.05 87.225L267.56 78.945L264.77 74.265L253.835 74.13ZM264.95 91.86L264.725 100.23L262.07 102.165L257.75 101.76L257.795 90.105L261.935 89.43L264.95 91.86ZM260.315 87.09L257.795 87.585L257.84 76.965L261.89 76.92L263.555 79.395L260.315 87.09ZM279.542 105H284.942L289.082 99.465L289.577 79.665L284.087 73.95H275.942L272.072 79.485L271.622 99.285L279.542 105ZM282.107 76.83L284.987 80.835L284.087 99.06L281.207 101.895L275.312 97.665L275.897 79.44L277.877 76.695L282.107 76.83ZM299.973 74.22H295.788L293.583 105H297.138L298.398 91.005L303.618 91.5L303.528 99.33L306.768 105H313.653L316.353 99.51L316.668 79.845L311.538 74.175H306.228L303.798 79.665L303.663 88.26L298.668 88.395L299.973 74.22ZM307.488 100.635L305.778 95.955L306.273 80.07L308.523 76.56L312.798 80.34L312.348 97.305L310.863 100.635H307.488ZM73.1796 139.425L64.8096 128.04L63.2346 128.715L61.3446 159L64.8546 159.405L65.6646 135.915L72.7746 145.185L81.1896 136.05L81.9996 159.045L85.9146 158.82L85.0596 129.57L82.7196 128.04L73.1796 139.425ZM109.786 159.09L108.661 128.31L104.836 128.085L94.3507 149.73L94.9357 128.175H89.9857L89.9407 158.685L92.9107 158.82L104.386 135.195L105.016 159.09H109.786ZM121.24 141.675L130.06 159.135L134.56 157.56L123.13 139.83L132.67 130.74L130.195 128.22L120.925 139.155H119.98L120.07 128.265L115.57 128.04L115.165 159.18L119.62 158.955L119.755 141.855L121.24 141.675ZM141.514 159H150.424L153.079 153.285L149.659 151.575L147.904 155.4L142.819 155.22L139.624 151.215L140.524 133.935L142.819 130.965L147.184 131.82L149.074 135.96L152.269 134.295L149.434 127.995H140.569L135.934 133.53L135.349 153.285L141.514 159ZM162.999 159H168.399L172.539 153.465L173.034 133.665L167.544 127.95H159.399L155.529 133.485L155.079 153.285L162.999 159ZM165.564 130.83L168.444 134.835L167.544 153.06L164.664 155.895L158.769 151.665L159.354 133.44L161.334 130.695L165.564 130.83ZM187.165 135.69L193.24 158.955H197.605L188.155 128.13H184.87L174.97 158.955H178.75L187.165 135.69ZM206.461 159H211.861L216.001 153.465L216.496 133.665L211.006 127.95H202.861L198.991 133.485L198.541 153.285L206.461 159ZM209.026 130.83L211.906 134.835L211.006 153.06L208.126 155.895L202.231 151.665L202.816 133.44L204.796 130.695L209.026 130.83ZM224.777 131.415L233.327 131.55L233.642 128.22H220.502V159.18H225.452L224.777 131.415ZM256.168 159.09L255.043 128.31L251.218 128.085L240.733 149.73L241.318 128.175H236.368L236.323 158.685L239.293 158.82L250.768 135.195L251.398 159.09H256.168ZM267.937 128.22H263.752L261.547 159H265.102L266.362 145.005L271.582 145.5L271.492 153.33L274.732 159H281.617L284.317 153.51L284.632 133.845L279.502 128.175H274.192L271.762 133.665L271.627 142.26L266.632 142.395L267.937 128.22ZM275.452 154.635L273.742 149.955L274.237 134.07L276.487 130.56L280.762 134.34L280.312 151.305L278.827 154.635H275.452ZM69.0264 213.09L67.9014 182.31L64.0764 182.085L53.5914 203.73L54.1764 182.175H49.2264L49.1814 212.685L52.1514 212.82L63.6264 189.195L64.2564 213.09H69.0264ZM88.3395 184.245H98.7795V213.27L103.865 212.685V182.04H85.7745L84.4695 182.94V213H88.3395V184.245ZM113.215 200.355L124.915 200.13L128.92 196.755L128.965 186.945L124.69 182.22H109.255V213H113.08L113.215 200.355ZM113.215 197.655L113.35 185.415L122.17 185.955L125.455 188.385L124.6 195.09L122.485 197.565L113.215 197.655ZM151.688 213.09L150.563 182.31L146.738 182.085L136.253 203.73L136.838 182.175H131.888L131.843 212.685L134.813 212.82L146.288 189.195L146.918 213.09H151.688ZM161.342 185.415L169.892 185.55L170.207 182.22H157.067V213.18H162.017L161.342 185.415ZM178.446 213H183.846L187.986 207.465L188.481 187.665L182.991 181.95H174.846L170.976 187.485L170.526 207.285L178.446 213ZM181.011 184.83L183.891 188.835L182.991 207.06L180.111 209.895L174.216 205.665L174.801 187.44L176.781 184.695L181.011 184.83ZM206.955 181.815L189.09 182.85L189.27 185.37H196.155L195.57 212.865L199.44 212.325L200.79 185.37L206.775 185.46L206.955 181.815ZM215.36 213H220.76L224.9 207.465L225.395 187.665L219.905 181.95H211.76L207.89 187.485L207.44 207.285L215.36 213ZM217.925 184.83L220.805 188.835L219.905 207.06L217.025 209.895L211.13 205.665L211.715 187.44L213.695 184.695L217.925 184.83ZM230.346 182.13L229.401 213H241.011L244.341 210.39L244.656 197.925L240.561 195.225L244.071 186.945L241.281 182.265L230.346 182.13ZM241.461 199.86L241.236 208.23L238.581 210.165L234.261 209.76L234.306 198.105L238.446 197.43L241.461 199.86ZM236.826 195.09L234.306 195.585L234.351 184.965L238.401 184.92L240.066 187.395L236.826 195.09ZM255.534 181.995H250.584L248.649 213H258.639L265.479 208.5L265.794 199.455L262.149 195.45L254.589 197.25L255.534 181.995ZM260.259 199.14L262.149 201.12L261.879 206.745L256.344 210.3L253.869 209.805L254.454 200.49L260.259 199.14ZM284.211 181.815L266.346 182.85L266.526 185.37H273.411L272.826 212.865L276.696 212.325L278.046 185.37L284.031 185.46L284.211 181.815ZM290.252 186.72L299.432 186.225V182.22H287.687L287.057 213H299.432V209.175L289.622 208.32L289.892 198.555L297.227 199.545V196.26H289.982L290.252 186.72ZM101.751 249.675L110.571 267.135L115.071 265.56L103.641 247.83L113.181 238.74L110.706 236.22L101.436 247.155H100.491L100.581 236.265L96.0806 236.04L95.6756 267.18L100.131 266.955L100.266 249.855L101.751 249.675ZM122.767 267H128.167L132.307 261.465L132.802 241.665L127.312 235.95H119.167L115.297 241.485L114.847 261.285L122.767 267ZM125.332 238.83L128.212 242.835L127.312 261.06L124.432 263.895L118.537 259.665L119.122 241.44L121.102 238.695L125.332 238.83ZM142.883 249.675L151.703 267.135L156.203 265.56L144.773 247.83L154.313 238.74L151.838 236.22L142.568 247.155H141.623L141.713 236.265L137.213 236.04L136.808 267.18L141.263 266.955L141.398 249.855L142.883 249.675ZM173.777 235.815L155.912 236.85L156.092 239.37H162.977L162.392 266.865L166.262 266.325L167.612 239.37L173.597 239.46L173.777 235.815ZM179.818 240.72L188.998 240.225V236.22H177.253L176.623 267H188.998V263.175L179.188 262.32L179.458 252.555L186.793 253.545V250.26H179.548L179.818 240.72ZM203.754 228.435C202.449 229.47 201.279 229.92 200.154 229.92C198.534 229.92 197.004 229.065 195.249 227.85L193.179 230.64C194.934 232.215 196.959 232.935 198.894 232.935C201.189 232.935 203.349 231.945 204.834 230.325L203.754 228.435ZM206.319 267L205.194 235.905H202.269L196.599 258.27L196.734 236.04L191.784 235.95L194.034 267H197.004L202.719 243.915L203.979 267H206.319ZM221.86 243.69L227.935 266.955H232.3L222.85 236.13H219.565L209.665 266.955H213.445L221.86 243.69ZM242.482 235.995H237.532L235.597 267H245.587L252.427 262.5L252.742 253.455L249.097 249.45L241.537 251.25L242.482 235.995ZM247.207 253.14L249.097 255.12L248.827 260.745L243.292 264.3L240.817 263.805L241.402 254.49L247.207 253.14ZM40.5567 303.675L49.3767 321.135L53.8767 319.56L42.4467 301.83L51.9867 292.74L49.5117 290.22L40.2417 301.155H39.2967L39.3867 290.265L34.8867 290.04L34.4817 321.18L38.9367 320.955L39.0717 303.855L40.5567 303.675ZM74.8812 321L77.9412 320.37L68.9412 289.77H64.8012L55.3512 320.235L59.7612 321.45L62.5962 310.605L71.5062 309.84L74.8812 321ZM67.0062 294.855L70.8762 307.725L63.2262 308.175L67.0062 294.855ZM87.3585 303.675L96.1785 321.135L100.678 319.56L89.2485 301.83L98.7885 292.74L96.3135 290.22L87.0435 301.155H86.0985L86.1885 290.265L81.6885 290.04L81.2835 321.18L85.7385 320.955L85.8735 303.855L87.3585 303.675ZM131.51 320.955L131.555 289.995H126.695L126.56 304.665L116.435 304.44L116.525 289.995H112.88L113.42 320.955H116.3L116.435 306.78H126.56L126.38 320.955H131.51ZM154.422 321L157.482 320.37L148.482 289.77H144.342L134.892 320.235L139.302 321.45L142.137 310.605L151.047 309.84L154.422 321ZM146.547 294.855L150.417 307.725L142.767 308.175L146.547 294.855ZM165.64 321H174.55L177.205 315.285L173.785 313.575L172.03 317.4L166.945 317.22L163.75 313.215L164.65 295.935L166.945 292.965L171.31 293.82L173.2 297.96L176.395 296.295L173.56 289.995H164.695L160.06 295.53L159.475 315.285L165.64 321ZM195.068 289.815L177.203 290.85L177.383 293.37H184.268L183.683 320.865L187.553 320.325L188.903 293.37L194.888 293.46L195.068 289.815ZM203.473 321H208.873L213.013 315.465L213.508 295.665L208.018 289.95H199.873L196.003 295.485L195.553 315.285L203.473 321ZM206.038 292.83L208.918 296.835L208.018 315.06L205.138 317.895L199.243 313.665L199.828 295.44L201.808 292.695L206.038 292.83ZM227.099 307.5L226.559 321H230.114V290.175H219.179L216.434 293.91V304.395L218.729 307.5H221.474L216.254 320.325L220.079 321.45L225.119 307.5H227.099ZM227.099 304.575H221.474L219.764 302.685V295.305L221.654 292.92H227.099V304.575ZM267.392 329.1L267.617 318.705L266.087 317.625H263.702L261.767 290.13H258.212L260.147 317.58L251.417 317.535L251.282 300.84H247.412L248.672 317.49H240.392L240.572 290.265H235.532L237.692 321H264.467L263.657 328.335L267.392 329.1ZM291.587 321.09L290.462 290.31L286.637 290.085L276.152 311.73L276.737 290.175H271.787L271.742 320.685L274.712 320.82L286.187 297.195L286.817 321.09H291.587ZM308.937 282.435C307.632 283.47 306.462 283.92 305.337 283.92C303.717 283.92 302.187 283.065 300.432 281.85L298.362 284.64C300.117 286.215 302.142 286.935 304.077 286.935C306.372 286.935 308.532 285.945 310.017 284.325L308.937 282.435ZM311.502 321L310.377 289.905H307.452L301.782 312.27L301.917 290.04L296.967 289.95L299.217 321H302.187L307.902 297.915L309.162 321H311.502ZM108.847 372.3V359.7L105.202 356.55L98.8121 356.82L98.9021 348.45L108.172 347.91L107.542 343.905H96.2021L95.3021 375H105.202L108.847 372.3ZM98.5421 371.715L98.7671 359.115L103.582 358.89L105.607 361.05L105.562 369.555L103.987 370.815L98.5421 371.715ZM129.813 375L132.873 374.37L123.873 343.77H119.733L110.283 374.235L114.693 375.45L117.528 364.605L126.438 363.84L129.813 375ZM121.938 348.855L125.808 361.725L118.158 362.175L121.938 348.855ZM140.175 362.355L151.875 362.13L155.88 358.755L155.925 348.945L151.65 344.22H136.215V375H140.04L140.175 362.355ZM140.175 359.655L140.31 347.415L149.13 347.955L152.415 350.385L151.56 357.09L149.445 359.565L140.175 359.655ZM170.255 355.425L161.885 344.04L160.31 344.715L158.42 375L161.93 375.405L162.74 351.915L169.85 361.185L178.265 352.05L179.075 375.045L182.99 374.82L182.135 345.57L179.795 344.04L170.255 355.425ZM190.211 348.72L199.391 348.225V344.22H187.646L187.016 375H199.391V371.175L189.581 370.32L189.851 360.555L197.186 361.545V358.26H189.941L190.211 348.72ZM220.807 374.955L220.852 343.995H215.992L215.857 358.665L205.732 358.44L205.822 343.995H202.177L202.717 374.955H205.597L205.732 360.78H215.857L215.677 374.955H220.807ZM241.138 375H250.048L252.703 369.285L249.283 367.575L247.528 371.4L242.443 371.22L239.248 367.215L240.148 349.935L242.443 346.965L246.808 347.82L248.698 351.96L251.893 350.295L249.058 343.995H240.193L235.558 349.53L234.973 369.285L241.138 375Z" fill="black"/>
<g clip-path="url(#clip1_1037_1832)">
<rect width="286.507" height="59.2714" transform="translate(33 415.971) rotate(-5)" fill="#FF3F6D"/>
<path d="M87.8449 451.623L91.5936 450.151L74.4174 426.467L70.7635 426.492L54.742 453.153L58.5333 453.855L63.9401 444.741L82.0434 443.563L87.8449 451.623ZM72.5326 430.251L80.2334 441.026L65.1963 442.637L72.5326 430.251ZM110.433 449.278L118.906 447.355L122.029 442.946L122.325 440.002L118.832 435.95L114.133 434.589L114.124 434.479L118.133 432.614L119.075 429.023L115.534 425.271L107.696 424.331L92.9203 425.55L94.249 449.18L95.966 450.654L110.433 449.278ZM96.5659 427.964L106.472 426.802L113.286 427.018L115.136 429.589L114.446 431.828L109.489 433.85L97.231 435.144L96.5659 427.964ZM98.2955 447.312L97.417 437.27L111.036 436.337L116.519 437.371L118.987 441.107L116.365 445.324L109.961 445.996L98.2955 447.312ZM142.893 435.285L154.105 445.679L157.024 443.577L146.877 435.232L154.811 435.166L157.918 431.423L157.284 423.76L153.882 420.328L125.552 422.806L124.227 424.547L126.241 447.563L129.979 447.235L128.83 435.371L142.893 435.285ZM153.908 430.333L152.499 432.377L128.614 433.322L127.782 425.085L151.557 423.301L154.032 425.004L153.908 430.333ZM193.891 442.346L197.64 440.873L180.464 417.189L176.81 417.214L160.788 443.875L164.58 444.578L169.986 435.463L188.09 434.285L193.891 442.346ZM178.579 420.973L186.28 431.748L171.243 433.359L178.579 420.973ZM216.479 440L224.952 438.077L228.075 433.668L228.371 430.724L224.878 426.672L220.179 425.311L220.17 425.201L224.18 423.336L225.121 419.745L221.58 415.993L213.743 415.053L198.967 416.272L200.295 439.902L202.012 441.377L216.479 440ZM202.612 418.686L212.519 417.524L219.333 417.74L221.182 420.311L220.492 422.551L215.536 424.572L203.277 425.866L202.612 418.686ZM204.342 438.034L203.463 427.992L217.083 427.059L222.565 428.093L225.034 431.829L222.411 436.047L216.007 436.718L204.342 438.034ZM263.646 436.243L267.395 434.77L250.219 411.087L246.565 411.111L230.543 437.772L234.335 438.475L239.742 429.36L257.845 428.183L263.646 436.243ZM248.334 414.871L256.035 425.645L240.998 427.256L248.334 414.871ZM286.805 422.695L298.018 433.088L300.936 430.986L290.789 422.641L298.723 422.575L301.83 418.832L301.197 411.169L297.794 407.737L269.464 410.215L268.139 411.956L270.153 434.972L273.891 434.645L272.742 422.78L286.805 422.695ZM297.82 417.742L296.411 419.786L272.526 420.731L271.695 412.494L295.469 410.71L297.945 412.414L297.82 417.742Z" fill="#242320"/>
</g>
</g>
<defs>
<clipPath id="clip0_1037_1832">
<rect width="360" height="508" fill="white"/>
</clipPath>
<clipPath id="clip1_1037_1832">
<rect width="286.507" height="59.2714" fill="white" transform="translate(33 415.971) rotate(-5)"/>
</clipPath>
</defs>
</svg>
