<svg width="360" height="393" viewBox="0 0 360 393" fill="none" xmlns="http://www.w3.org/2000/svg">
<g clip-path="url(#clip0_1037_1989)">
<rect x="558.818" y="405.943" width="720.966" height="330.112" transform="rotate(-175 558.818 405.943)" fill="#FF3F6D"/>
<path opacity="0.5" d="M152.343 284.386L152.077 283.232H146.878L146.399 284.829L150.64 284.492L148.351 287.544C148.351 287.544 148.599 288.378 148.67 288.627C150.675 288.627 151.456 289.922 151.456 291.253C151.456 292.797 150.409 294.057 149.256 294.057C148.031 294.057 147.304 292.584 147.304 292.584C147.304 292.584 146.399 292.726 145.902 292.815C146.15 293.738 147.162 295.654 149.398 295.654C151.35 295.654 153.231 294.199 153.231 291.431C153.231 287.917 150.019 287.438 150.019 287.438L152.343 284.386ZM159.677 294.714L160.315 295.423H170.075L169.65 283.232L167.751 283.498L168.443 294.128H165.302L165.089 289.035H163.776L164.131 294.092H161.114L160.812 283.339L159.091 283.179L159.677 294.714ZM179.095 295.423L180.301 295.175L176.752 283.108H175.12L171.393 295.122L173.132 295.601L174.25 291.324L177.764 291.022L179.095 295.423ZM175.989 285.113L177.515 290.188L174.499 290.366L175.989 285.113ZM183.305 284.545L186.677 284.599L186.801 283.286H181.619V295.494H183.571L183.305 284.545ZM199.652 295.459L199.208 283.321L197.7 283.232L193.565 291.768L193.796 283.268H191.844L191.826 295.299L192.998 295.352L197.523 286.036L197.771 295.459H199.652ZM200.727 295.193L205.873 295.335L206.831 291.377L206.529 290.117L204.701 288.982L205.979 287.811L206.458 284.279L204.489 283.286L201.17 284.137L201.649 285.646L203.814 284.474L204.684 284.9L204.666 287.367L203.672 288.627H202.04V289.709L203.53 289.745L205.163 291.182L204.524 294.217L200.957 293.631L200.727 295.193ZM212.84 288.307C215.182 288.396 217.258 289.017 217.258 291.306C217.258 292.957 216.495 293.702 215.608 293.702C214.685 293.702 213.745 293.081 213.017 291.874L211.81 292.708C212.52 294.714 214.046 295.725 215.555 295.725C217.897 295.725 218.997 293.773 218.997 291.732C218.997 289.372 217.524 287.278 214.313 287.278L214.561 284.652L218.287 285.397V283.924L213.585 283.374L212.84 288.307Z" fill="white"/>
<path d="M74.5268 330.957L74.2576 329.26H83.0357V330.957H84.1536L84.4435 328.183L84.2364 327.893L82.4974 327.935L80.8826 315.492L80.0544 314.851H78.1705L75.0857 328.038L73.0983 328.059L72.8498 328.307L73.2846 330.957H74.5268ZM78.7502 316.797L80.0751 327.955L76.4728 328.018L78.7502 316.797ZM88.5208 329.26H91.0051L92.9098 326.713L93.1376 317.604L90.6118 314.975H86.8646L85.0841 317.521L84.8771 326.63L88.5208 329.26ZM89.7009 316.3L91.0259 318.142L90.6118 326.527L89.2868 327.831L86.5747 325.885L86.8439 317.501L87.7548 316.238L89.7009 316.3ZM101.212 328.018V322.221L99.5354 320.772L96.5956 320.896L96.637 317.045L100.902 316.797L100.612 314.954H95.3948L94.9808 329.26H99.5354L101.212 328.018ZM96.4714 327.748L96.5749 321.952L98.7901 321.848L99.7217 322.842L99.701 326.755L98.9764 327.334L96.4714 327.748ZM110.858 329.26L112.266 328.97L108.125 314.892H106.221L101.873 328.908L103.902 329.467L105.206 324.477L109.305 324.125L110.858 329.26ZM107.235 317.231L109.015 323.152L105.496 323.359L107.235 317.231ZM114.238 315.058L113.803 329.26H119.145L120.677 328.059L120.822 322.324L118.938 321.082L120.553 317.273L119.269 315.12L114.238 315.058ZM119.352 323.215L119.248 327.065L118.027 327.955L116.039 327.769L116.06 322.407L117.965 322.097L119.352 323.215ZM117.219 321.02L116.06 321.248L116.081 316.362L117.944 316.341L118.71 317.48L117.219 321.02ZM125.826 314.995H123.549L122.659 329.26H127.255L130.402 327.189L130.547 323.028L128.87 321.186L125.392 322.014L125.826 314.995ZM128 322.883L128.87 323.794L128.745 326.382L126.199 328.018L125.06 327.79L125.329 323.504L128 322.883ZM139.02 314.913L130.801 315.389L130.883 316.548H134.051L133.782 329.198L135.562 328.949L136.183 316.548L138.937 316.59L139.02 314.913ZM141.799 317.169L146.022 316.942V315.099H140.619L140.329 329.26H146.022V327.5L141.509 327.107L141.633 322.614L145.008 323.07V321.558H141.675L141.799 317.169ZM154.149 329.26H158.248L159.47 326.63L157.896 325.844L157.089 327.604L154.75 327.521L153.28 325.678L153.694 317.728L154.75 316.362L156.758 316.755L157.627 318.66L159.097 317.894L157.793 314.995H153.714L151.582 317.542L151.313 326.63L154.149 329.26ZM169.065 329.26L170.473 328.97L166.332 314.892H164.427L160.08 328.908L162.109 329.467L163.413 324.477L167.512 324.125L169.065 329.26ZM165.442 317.231L167.222 323.152L163.703 323.359L165.442 317.231ZM173.397 329.322L175.55 323.007L178.097 329.363L179.753 328.763L176.358 321.496L179.215 315.14L177.434 314.995L175.55 320.482L173.045 315.099L171.741 315.741L174.577 321.496L171.327 329.177L173.397 329.322ZM189.606 329.26L191.014 328.97L186.873 314.892H184.968L180.621 328.908L182.65 329.467L183.954 324.477L188.053 324.125L189.606 329.26ZM185.983 317.231L187.763 323.152L184.244 323.359L185.983 317.231ZM194.373 323.442L199.756 323.339L201.599 321.786L201.619 317.273L199.652 315.099H192.551V329.26H194.311L194.373 323.442ZM194.373 322.2L194.435 316.569L198.493 316.817L200.004 317.935L199.611 321.02L198.638 322.159L194.373 322.2ZM211.514 329.239L211.535 314.995H209.299L209.237 321.745L204.579 321.641L204.62 314.995H202.943L203.192 329.239H204.517L204.579 322.718H209.237L209.154 329.239H211.514ZM214.023 315.202L214.644 328.142L215.989 329.26H219.467L220.399 327.314L220.006 322.428L218.557 320.813L216.362 320.647L216.114 315.058L214.023 315.202ZM224.312 315.058H221.952L222.117 329.26H223.794L224.312 315.058ZM218.101 322.055L218.577 322.821L218.95 327.21L218.515 328.204L216.693 327.997L216.424 321.91L218.101 322.055ZM232.307 311.517C231.707 311.994 231.168 312.201 230.651 312.201C229.906 312.201 229.202 311.807 228.394 311.248L227.442 312.532C228.249 313.256 229.181 313.588 230.071 313.588C231.127 313.588 232.121 313.132 232.804 312.387L232.307 311.517ZM233.487 329.26L232.97 314.954H231.624L229.015 325.243L229.077 315.016L226.8 314.975L227.835 329.26H229.202L231.831 318.639L232.411 329.26H233.487ZM242.824 329.26H246.923L248.145 326.63L246.571 325.844L245.764 327.604L243.424 327.521L241.955 325.678L242.369 317.728L243.424 316.362L245.433 316.755L246.302 318.66L247.772 317.894L246.468 314.995H242.389L240.257 317.542L239.988 326.63L242.824 329.26ZM258.837 329.301L258.319 315.14L256.559 315.037L251.736 324.995L252.005 315.078H249.728L249.707 329.115L251.073 329.177L256.352 318.308L256.642 329.301H258.837ZM263.134 323.442L268.516 323.339L270.359 321.786L270.38 317.273L268.413 315.099H261.312V329.26H263.072L263.134 323.442ZM263.134 322.2L263.196 316.569L267.253 316.817L268.765 317.935L268.371 321.02L267.398 322.159L263.134 322.2ZM275.575 329.26H278.059L279.964 326.713L280.192 317.604L277.666 314.975H273.919L272.138 317.521L271.931 326.63L275.575 329.26ZM276.755 316.3L278.08 318.142L277.666 326.527L276.341 327.831L273.629 325.885L273.898 317.501L274.809 316.238L276.755 316.3ZM283.815 316.031H288.618V329.384L290.958 329.115V315.016H282.635L282.035 315.43V329.26H283.815V316.031ZM168.231 354.301L167.714 340.14L165.954 340.037L161.13 349.995L161.399 340.078H159.122L159.101 354.115L160.468 354.177L165.747 343.308L166.037 354.301H168.231ZM177.158 348.442L182.541 348.339L184.383 346.786L184.404 342.273L182.437 340.099H175.336V354.26H177.096L177.158 348.442ZM177.158 347.2L177.22 341.569L181.278 341.817L182.789 342.935L182.396 346.02L181.423 347.159L177.158 347.2ZM189.599 354.26H192.084L193.988 351.713L194.216 342.604L191.69 339.975H187.943L186.163 342.521L185.955 351.63L189.599 354.26ZM190.779 341.3L192.104 343.142L191.69 351.527L190.365 352.831L187.653 350.885L187.922 342.501L188.833 341.238L190.779 341.3ZM200.883 345.254L197.032 340.016L196.308 340.327L195.438 354.26L197.053 354.446L197.426 343.639L200.697 347.904L204.568 343.701L204.941 354.28L206.742 354.177L206.348 340.72L205.272 340.016L200.883 345.254Z" fill="white"/>
<path d="M222.22 72.7114H142.405C147.028 86.297 147.687 100.936 144.305 114.888C134.119 155.973 117.7 170.485 148.106 201.16C155.638 209.032 165.792 213.812 176.611 214.58L174.711 247.171L146.206 260.591V266.342H218.419V260.591L189.914 247.171L188.013 214.58C198.832 213.812 208.986 209.032 216.519 201.16C246.924 170.485 230.505 155.973 220.319 114.888C216.937 100.936 217.597 86.297 222.22 72.7114Z" fill="white"/>
<path d="M159.147 145.813C159.147 162.789 150.133 179.624 133.093 179.624C116.053 179.624 108.067 164.497 108.067 147.521C108.067 130.545 116.053 124.98 133.093 124.98C150.133 124.98 159.147 128.837 159.147 145.813Z" fill="#C01A6A"/>
<path d="M213.165 134.928C218.073 121.664 236.833 121.664 241.741 134.928L244.796 143.183C246.339 147.353 249.627 150.641 253.797 152.184L262.052 155.239C275.316 160.147 275.316 178.907 262.052 183.815L253.797 186.87C249.627 188.413 246.339 191.701 244.796 195.871L241.741 204.126C236.833 217.39 218.073 217.39 213.165 204.126L210.11 195.871C208.567 191.701 205.28 188.413 201.109 186.87L192.854 183.815C179.59 178.907 179.59 160.147 192.854 155.239L201.109 152.184C205.279 150.641 208.567 147.353 210.11 143.183L213.165 134.928Z" fill="#9C0EDF"/>
<path d="M195.217 8.51367L83.9081 95.4316C100.045 105.305 139.677 118.232 169.111 90.9474C198.544 63.6633 198.779 24.6232 195.217 8.51367Z" fill="#67B44C"/>
</g>
<defs>
<clipPath id="clip0_1037_1989">
<rect width="360" height="393" fill="white"/>
</clipPath>
</defs>
</svg>
