<svg width="165" height="147" viewBox="0 0 165 147" fill="none" xmlns="http://www.w3.org/2000/svg">
<path fill-rule="evenodd" clip-rule="evenodd" d="M50.5554 25.8068C50.5554 39.7672 39.2382 51.0845 25.2777 51.0845C11.3172 51.0845 0 39.7672 0 25.8068C0 11.8463 11.3172 0.529053 25.2777 0.529053C39.2382 0.529053 50.5554 11.8463 50.5554 25.8068ZM164.97 86.3402C164.97 119.772 137.868 146.874 104.437 146.874C71.0048 146.874 43.9031 119.772 43.9031 86.3402C43.9031 52.9085 71.0048 25.8067 104.437 25.8067C137.868 25.8067 164.97 52.9085 164.97 86.3402ZM18.6258 87.0054C25.9735 87.0054 31.9299 81.049 31.9299 73.7014C31.9299 66.3537 25.9735 60.3973 18.6258 60.3973C11.2782 60.3973 5.32178 66.3537 5.32178 73.7014C5.32178 81.049 11.2782 87.0054 18.6258 87.0054Z" fill="#C9C6BF"/>
</svg>
