<svg width="106" height="106" viewBox="0 0 106 106" fill="none" xmlns="http://www.w3.org/2000/svg">
<path d="M36.1187 12.0723C41.9175 -3.59886 64.0825 -3.59886 69.8813 12.0723L73.4905 21.826C75.3137 26.7529 79.1983 30.6375 84.1252 32.4606L93.8789 36.0698C109.55 41.8687 109.55 64.0337 93.8789 69.8325L84.1252 73.4417C79.1983 75.2648 75.3137 79.1494 73.4905 84.0764L69.8813 93.8301C64.0825 109.501 41.9175 109.501 36.1187 93.8301L32.5095 84.0764C30.6863 79.1494 26.8017 75.2648 21.8748 73.4417L12.1211 69.8325C-3.55003 64.0337 -3.55003 41.8687 12.1211 36.0698L21.8748 32.4606C26.8017 30.6375 30.6863 26.7529 32.5095 21.826L36.1187 12.0723Z" fill="#5C1B17"/>
</svg>
