<svg width="106" height="106" viewBox="0 0 106 106" fill="none" xmlns="http://www.w3.org/2000/svg">
<path d="M36.3491 12.4565C42.148 -3.21458 64.313 -3.21458 70.1118 12.4565L73.721 22.2102C75.5441 27.1372 79.4287 31.0218 84.3557 32.8449L94.1094 36.4541C109.781 42.253 109.781 64.4179 94.1094 70.2168L84.3557 73.826C79.4287 75.6491 75.5441 79.5337 73.721 84.4606L70.1118 94.2144C64.313 109.885 42.148 109.885 36.3491 94.2144L32.7399 84.4607C30.9168 79.5337 27.0322 75.6491 22.1053 73.826L12.3516 70.2168C-3.31956 64.4179 -3.31956 42.253 12.3516 36.4541L22.1053 32.8449C27.0322 31.0218 30.9168 27.1372 32.7399 22.2102L36.3491 12.4565Z" fill="#FF843F"/>
</svg>
