<svg width="212" height="164" viewBox="0 0 212 164" fill="none" xmlns="http://www.w3.org/2000/svg">
<path d="M25.5892 110.489C17.5621 101.461 36.4752 44.6483 49.2593 39.9137C62.0433 35.179 132.248 80.1095 129.902 90.1741C127.556 100.239 33.6163 119.517 25.5892 110.489Z" fill="#804D12"/>
<path d="M195.873 25.0973C201.284 32.3142 183.676 73.4106 173.869 76.1381C164.062 78.8656 114.62 41.0651 116.991 33.7222C119.363 26.3793 190.462 17.8804 195.873 25.0973Z" fill="#804D12"/>
<path d="M166.35 99.0623C172.71 102.065 175.548 136.812 169.782 142.266C164.015 147.72 116.157 139.68 115.116 133.754C114.075 127.828 159.99 96.0593 166.35 99.0623Z" fill="#804D12"/>
</svg>
