<svg width="212" height="164" viewBox="0 0 212 164" fill="none" xmlns="http://www.w3.org/2000/svg">
<path d="M24.9954 110.489C16.9684 101.461 35.8815 44.6483 48.6655 39.9137C61.4495 35.179 131.655 80.1095 129.309 90.1741C126.962 100.239 33.0225 119.517 24.9954 110.489Z" fill="#B5A99E"/>
<path d="M195.275 25.0973C200.686 32.3142 183.078 73.4106 173.271 76.1381C163.464 78.8656 114.022 41.0651 116.394 33.7222C118.766 26.3793 189.864 17.8804 195.275 25.0973Z" fill="#B5A99E"/>
<path d="M165.754 99.0623C172.114 102.065 174.952 136.812 169.186 142.266C163.419 147.72 115.561 139.68 114.521 133.754C113.48 127.828 159.394 96.0593 165.754 99.0623Z" fill="#B5A99E"/>
</svg>
