<svg width="115" height="124" viewBox="0 0 115 124" fill="none" xmlns="http://www.w3.org/2000/svg">
<path d="M37.0703 9.90361C47.996 -2.2114 67.004 -2.2114 77.9297 9.90361C81.8106 14.207 86.9512 17.1749 92.6185 18.3842C108.573 21.7886 118.077 38.25 113.048 53.7694C111.262 59.282 111.262 65.218 113.048 70.7306C118.077 86.25 108.573 102.711 92.6185 106.116C86.9512 107.325 81.8106 110.293 77.9297 114.596C67.004 126.711 47.996 126.711 37.0703 114.596C33.1894 110.293 28.0488 107.325 22.3815 106.116C6.42679 102.711 -3.07722 86.25 1.95186 70.7306C3.73823 65.218 3.73823 59.282 1.95186 53.7694C-3.07722 38.25 6.42679 21.7886 22.3815 18.3842C28.0488 17.1749 33.1894 14.207 37.0703 9.90361Z" fill="#F5E2D1"/>
</svg>
