<svg width="114" height="123" viewBox="0 0 114 123" fill="none" xmlns="http://www.w3.org/2000/svg">
<path d="M36.6192 9.15361C47.5448 -2.9614 66.5528 -2.9614 77.4785 9.15361C81.3594 13.457 86.5 16.4249 92.1673 17.6342C108.122 21.0386 117.626 37.5 112.597 53.0194C110.811 58.532 110.811 64.468 112.597 69.9806C117.626 85.5 108.122 101.961 92.1673 105.366C86.5001 106.575 81.3594 109.543 77.4785 113.846C66.5528 125.961 47.5448 125.961 36.6192 113.846C32.7383 109.543 27.5976 106.575 21.9304 105.366C5.97562 101.961 -3.52839 85.5 1.50069 69.9806C3.28706 64.468 3.28706 58.532 1.50069 53.0194C-3.52839 37.5 5.97562 21.0386 21.9304 17.6342C27.5976 16.4249 32.7383 13.457 36.6192 9.15361Z" fill="#85263D"/>
</svg>
