<svg width="212" height="164" viewBox="0 0 212 164" fill="none" xmlns="http://www.w3.org/2000/svg">
<path d="M25.4798 110.489C17.4528 101.461 36.3659 44.6483 49.1499 39.9137C61.9339 35.179 132.139 80.1095 129.793 90.1741C127.447 100.239 33.5069 119.517 25.4798 110.489Z" fill="#FFDCBE"/>
<path d="M195.763 25.0973C201.174 32.3142 183.566 73.4106 173.759 76.1381C163.952 78.8656 114.51 41.0651 116.882 33.7222C119.254 26.3793 190.352 17.8804 195.763 25.0973Z" fill="#FFDCBE"/>
<path d="M166.24 99.0623C172.6 102.065 175.439 136.812 169.672 142.266C163.906 147.72 116.048 139.68 115.007 133.754C113.966 127.828 159.88 96.0593 166.24 99.0623Z" fill="#FFDCBE"/>
</svg>
