<svg width="115" height="124" viewBox="0 0 115 124" fill="none" xmlns="http://www.w3.org/2000/svg">
<path d="M37.126 9.90361C48.0517 -2.2114 67.0597 -2.2114 77.9853 9.90361C81.8662 14.207 87.0069 17.1749 92.6741 18.3842C108.629 21.7886 118.133 38.25 113.104 53.7694C111.317 59.282 111.317 65.218 113.104 70.7306C118.133 86.25 108.629 102.711 92.6741 106.116C87.0069 107.325 81.8662 110.293 77.9853 114.596C67.0597 126.711 48.0517 126.711 37.126 114.596C33.2451 110.293 28.1044 107.325 22.4372 106.116C6.48246 102.711 -3.02155 86.25 2.00752 70.7306C3.79389 65.218 3.79389 59.282 2.00752 53.7694C-3.02155 38.25 6.48245 21.7886 22.4372 18.3842C28.1044 17.1749 33.2451 14.207 37.126 9.90361Z" fill="#B02367"/>
</svg>
