<svg width="212" height="164" viewBox="0 0 212 164" fill="none" xmlns="http://www.w3.org/2000/svg">
<path d="M25.0892 110.489C17.0621 101.461 35.9752 44.6483 48.7593 39.9137C61.5433 35.179 131.748 80.1095 129.402 90.1741C127.056 100.239 33.1163 119.517 25.0892 110.489Z" fill="#34C590"/>
<path d="M195.373 25.0973C200.784 32.3142 183.176 73.4106 173.369 76.1381C163.562 78.8656 114.12 41.0651 116.491 33.7222C118.863 26.3793 189.962 17.8804 195.373 25.0973Z" fill="#34C590"/>
<path d="M165.85 99.0623C172.21 102.065 175.048 136.812 169.282 142.266C163.515 147.72 115.657 139.68 114.616 133.754C113.575 127.828 159.49 96.0593 165.85 99.0623Z" fill="#34C590"/>
</svg>
