<svg width="212" height="164" viewBox="0 0 212 164" fill="none" xmlns="http://www.w3.org/2000/svg">
<path d="M24.8861 110.489C16.859 101.461 35.7721 44.6483 48.5561 39.9137C61.3402 35.179 131.545 80.1095 129.199 90.1741C126.853 100.239 32.9131 119.517 24.8861 110.489Z" fill="#B72A2A"/>
<path d="M195.17 25.0973C200.581 32.3142 182.973 73.4106 173.166 76.1381C163.359 78.8656 113.916 41.0651 116.288 33.7222C118.66 26.3793 189.759 17.8804 195.17 25.0973Z" fill="#B72A2A"/>
<path d="M165.647 99.0623C172.007 102.065 174.845 136.812 169.078 142.266C163.312 147.72 115.454 139.68 114.413 133.754C113.372 127.828 159.287 96.0593 165.647 99.0623Z" fill="#B72A2A"/>
</svg>
