<svg width="212" height="164" viewBox="0 0 212 164" fill="none" xmlns="http://www.w3.org/2000/svg">
<path d="M25.3558 110.491C17.3287 101.463 36.2418 44.6503 49.0259 39.9156C61.8099 35.1809 132.015 80.1114 129.669 90.1761C127.323 100.241 33.3829 119.519 25.3558 110.491Z" fill="#ECF0BC"/>
<path d="M195.637 25.0993C201.048 32.3162 183.44 73.4126 173.633 76.14C163.826 78.8675 114.384 41.067 116.756 33.7242C119.128 26.3813 190.226 17.8823 195.637 25.0993Z" fill="#ECF0BC"/>
<path d="M166.115 99.0643C172.475 102.067 175.314 136.814 169.547 142.268C163.781 147.722 115.923 139.682 114.882 133.756C113.841 127.83 159.755 96.0612 166.115 99.0643Z" fill="#ECF0BC"/>
</svg>
