<svg width="212" height="164" viewBox="0 0 212 164" fill="none" xmlns="http://www.w3.org/2000/svg">
<path d="M25.6009 110.489C17.5738 101.461 36.4869 44.6483 49.271 39.9137C62.055 35.179 132.26 80.1095 129.914 90.1741C127.568 100.239 33.628 119.517 25.6009 110.489Z" fill="#FDC167"/>
<path d="M195.885 25.0973C201.296 32.3142 183.687 73.4106 173.88 76.1381C164.074 78.8656 114.631 41.0651 117.003 33.7222C119.375 26.3793 190.474 17.8804 195.885 25.0973Z" fill="#FDC167"/>
<path d="M166.361 99.0623C172.721 102.065 175.56 136.812 169.793 142.266C164.027 147.72 116.169 139.68 115.128 133.754C114.087 127.828 160.001 96.0593 166.361 99.0623Z" fill="#FDC167"/>
</svg>
