<svg width="212" height="164" viewBox="0 0 212 164" fill="none" xmlns="http://www.w3.org/2000/svg">
<path d="M25.1019 110.489C17.0748 101.461 35.9879 44.6483 48.772 39.9137C61.556 35.179 131.761 80.1095 129.415 90.1741C127.069 100.239 33.129 119.517 25.1019 110.489Z" fill="#E2E2E2"/>
<path d="M195.384 25.0973C200.795 32.3142 183.186 73.4106 173.379 76.1381C163.573 78.8656 114.13 41.0651 116.502 33.7222C118.874 26.3793 189.973 17.8804 195.384 25.0973Z" fill="#E2E2E2"/>
<path d="M165.861 99.0623C172.221 102.065 175.06 136.812 169.293 142.266C163.527 147.72 115.669 139.68 114.628 133.754C113.587 127.828 159.501 96.0593 165.861 99.0623Z" fill="#E2E2E2"/>
</svg>
