<svg width="212" height="164" viewBox="0 0 212 164" fill="none" xmlns="http://www.w3.org/2000/svg">
<path d="M25.6019 110.489C17.5748 101.461 36.4879 44.6483 49.272 39.9137C62.056 35.179 132.261 80.1095 129.915 90.1741C127.569 100.239 33.629 119.517 25.6019 110.489Z" fill="#17AA40"/>
<path d="M195.884 25.0973C201.295 32.3142 183.686 73.4106 173.879 76.1381C164.073 78.8656 114.63 41.0651 117.002 33.7222C119.374 26.3793 190.473 17.8804 195.884 25.0973Z" fill="#17AA40"/>
<path d="M166.361 99.0623C172.721 102.065 175.56 136.812 169.793 142.266C164.027 147.72 116.169 139.68 115.128 133.754C114.087 127.828 160.001 96.0593 166.361 99.0623Z" fill="#17AA40"/>
</svg>
