<svg width="212" height="164" viewBox="0 0 212 164" fill="none" xmlns="http://www.w3.org/2000/svg">
<path d="M25.7259 110.489C17.6988 101.461 36.6119 44.6483 49.396 39.9137C62.18 35.179 132.385 80.1095 130.039 90.1741C127.693 100.239 33.753 119.517 25.7259 110.489Z" fill="#E295D6"/>
<path d="M196.006 25.0973C201.417 32.3142 183.809 73.4106 174.002 76.1381C164.195 78.8656 114.752 41.0651 117.124 33.7222C119.496 26.3793 190.595 17.8804 196.006 25.0973Z" fill="#E295D6"/>
<path d="M166.484 99.0623C172.845 102.065 175.683 136.812 169.916 142.266C164.15 147.72 116.292 139.68 115.251 133.754C114.21 127.828 160.124 96.0593 166.484 99.0623Z" fill="#E295D6"/>
</svg>
