<svg width="115" height="124" viewBox="0 0 115 124" fill="none" xmlns="http://www.w3.org/2000/svg">
<path d="M37.3242 9.90361C48.2499 -2.2114 67.2579 -2.2114 78.1836 9.90361C82.0645 14.207 87.2051 17.1749 92.8724 18.3842C108.827 21.7886 118.331 38.25 113.302 53.7694C111.516 59.282 111.516 65.218 113.302 70.7306C118.331 86.25 108.827 102.711 92.8724 106.116C87.2051 107.325 82.0645 110.293 78.1836 114.596C67.2579 126.711 48.2499 126.711 37.3242 114.596C33.4434 110.293 28.3027 107.325 22.6354 106.116C6.6807 102.711 -2.82331 86.25 2.20577 70.7306C3.99214 65.218 3.99214 59.282 2.20577 53.7694C-2.82331 38.25 6.6807 21.7886 22.6354 18.3842C28.3027 17.1749 33.4434 14.207 37.3242 9.90361Z" fill="#E87A62"/>
</svg>
