<svg width="106" height="106" viewBox="0 0 106 106" fill="none" xmlns="http://www.w3.org/2000/svg">
<path d="M36.3648 12.4565C42.1636 -3.21458 64.3286 -3.21458 70.1274 12.4565L73.7366 22.2102C75.5598 27.1372 79.4444 31.0218 84.3713 32.8449L94.125 36.4541C109.796 42.253 109.796 64.4179 94.125 70.2168L84.3713 73.826C79.4444 75.6491 75.5598 79.5337 73.7366 84.4606L70.1274 94.2144C64.3286 109.885 42.1636 109.885 36.3648 94.2144L32.7556 84.4607C30.9324 79.5337 27.0478 75.6491 22.1209 73.826L12.3672 70.2168C-3.30394 64.4179 -3.30394 42.253 12.3672 36.4541L22.1209 32.8449C27.0478 31.0218 30.9324 27.1372 32.7556 22.2102L36.3648 12.4565Z" fill="#BBE1F7"/>
</svg>
