<svg width="212" height="164" viewBox="0 0 212 164" fill="none" xmlns="http://www.w3.org/2000/svg">
<path d="M25.2572 110.489C17.2301 101.461 36.1432 44.6483 48.9272 39.9137C61.7113 35.179 131.916 80.1095 129.57 90.1741C127.224 100.239 33.2842 119.517 25.2572 110.489Z" fill="#702E2E"/>
<path d="M195.541 25.0973C200.952 32.3142 183.344 73.4106 173.537 76.1381C163.73 78.8656 114.287 41.0651 116.659 33.7222C119.031 26.3793 190.13 17.8804 195.541 25.0973Z" fill="#702E2E"/>
<path d="M166.018 99.0623C172.378 102.065 175.216 136.812 169.45 142.266C163.683 147.72 115.825 139.68 114.784 133.754C113.743 127.828 159.658 96.0593 166.018 99.0623Z" fill="#702E2E"/>
</svg>
