<svg width="212" height="164" viewBox="0 0 212 164" fill="none" xmlns="http://www.w3.org/2000/svg">
<path d="M25.1009 110.489C17.0738 101.461 35.9869 44.6483 48.771 39.9137C61.555 35.179 131.76 80.1095 129.414 90.1741C127.068 100.239 33.128 119.517 25.1009 110.489Z" fill="#4E843B"/>
<path d="M195.385 25.0973C200.796 32.3142 183.187 73.4106 173.38 76.1381C163.574 78.8656 114.131 41.0651 116.503 33.7222C118.875 26.3793 189.974 17.8804 195.385 25.0973Z" fill="#4E843B"/>
<path d="M165.861 99.0623C172.221 102.065 175.06 136.812 169.293 142.266C163.527 147.72 115.669 139.68 114.628 133.754C113.587 127.828 159.501 96.0593 165.861 99.0623Z" fill="#4E843B"/>
</svg>
