<svg width="212" height="164" viewBox="0 0 212 164" fill="none" xmlns="http://www.w3.org/2000/svg">
<path d="M25.3548 110.489C17.3278 101.461 36.2409 44.6483 49.0249 39.9137C61.8089 35.179 132.014 80.1095 129.668 90.1741C127.322 100.239 33.3819 119.517 25.3548 110.489Z" fill="#BB4B66"/>
<path d="M195.638 25.0973C201.049 32.3142 183.441 73.4106 173.634 76.1381C163.827 78.8656 114.385 41.0651 116.757 33.7222C119.129 26.3793 190.227 17.8804 195.638 25.0973Z" fill="#BB4B66"/>
<path d="M166.115 99.0623C172.475 102.065 175.314 136.812 169.547 142.266C163.781 147.72 115.923 139.68 114.882 133.754C113.841 127.828 159.755 96.0593 166.115 99.0623Z" fill="#BB4B66"/>
</svg>
