<svg width="212" height="164" viewBox="0 0 212 164" fill="none" xmlns="http://www.w3.org/2000/svg">
<path d="M25.2923 110.489C17.2653 101.461 36.1784 44.6483 48.9624 39.9137C61.7464 35.179 131.951 80.1095 129.605 90.1741C127.259 100.239 33.3194 119.517 25.2923 110.489Z" fill="#930000"/>
<path d="M195.576 25.0973C200.987 32.3142 183.379 73.4106 173.572 76.1381C163.765 78.8656 114.323 41.0651 116.695 33.7222C119.067 26.3793 190.165 17.8804 195.576 25.0973Z" fill="#930000"/>
<path d="M166.053 99.0623C172.413 102.065 175.251 136.812 169.485 142.266C163.718 147.72 115.86 139.68 114.819 133.754C113.779 127.828 159.693 96.0593 166.053 99.0623Z" fill="#930000"/>
</svg>
