<svg width="212" height="164" viewBox="0 0 212 164" fill="none" xmlns="http://www.w3.org/2000/svg">
<path d="M25.4525 110.489C17.4254 101.461 36.3385 44.6483 49.1225 39.9137C61.9066 35.179 132.112 80.1095 129.766 90.1741C127.42 100.239 33.4795 119.517 25.4525 110.489Z" fill="#58621C"/>
<path d="M195.736 25.0973C201.147 32.3142 183.539 73.4106 173.732 76.1381C163.925 78.8656 114.483 41.0651 116.855 33.7222C119.227 26.3793 190.325 17.8804 195.736 25.0973Z" fill="#58621C"/>
<path d="M166.213 99.0623C172.573 102.065 175.411 136.812 169.645 142.266C163.878 147.72 116.02 139.68 114.98 133.754C113.939 127.828 159.853 96.0593 166.213 99.0623Z" fill="#58621C"/>
</svg>
