<svg width="212" height="164" viewBox="0 0 212 164" fill="none" xmlns="http://www.w3.org/2000/svg">
<path d="M25.1439 110.489C17.1168 101.461 36.0299 44.6483 48.8139 39.9137C61.598 35.179 131.803 80.1095 129.457 90.1741C127.111 100.239 33.171 119.517 25.1439 110.489Z" fill="#7DB800"/>
<path d="M195.428 25.0973C200.839 32.3142 183.23 73.4106 173.423 76.1381C163.616 78.8656 114.174 41.0651 116.546 33.7222C118.918 26.3793 190.016 17.8804 195.428 25.0973Z" fill="#7DB800"/>
<path d="M165.904 99.0623C172.264 102.065 175.103 136.812 169.336 142.266C163.57 147.72 115.712 139.68 114.671 133.754C113.63 127.828 159.544 96.0593 165.904 99.0623Z" fill="#7DB800"/>
</svg>
