<svg width="106" height="106" viewBox="0 0 106 106" fill="none" xmlns="http://www.w3.org/2000/svg">
<path d="M35.8648 12.0723C41.6636 -3.59886 63.8286 -3.59886 69.6274 12.0723L73.2366 21.826C75.0598 26.7529 78.9443 30.6375 83.8713 32.4606L93.625 36.0698C109.296 41.8687 109.296 64.0337 93.625 69.8325L83.8713 73.4417C78.9444 75.2648 75.0598 79.1494 73.2366 84.0764L69.6274 93.8301C63.8286 109.501 41.6636 109.501 35.8648 93.8301L32.2556 84.0764C30.4324 79.1494 26.5478 75.2648 21.6209 73.4417L11.8672 69.8325C-3.80394 64.0337 -3.80394 41.8687 11.8672 36.0698L21.6209 32.4606C26.5478 30.6375 30.4324 26.7529 32.2556 21.826L35.8648 12.0723Z" fill="#CAEFDE"/>
</svg>
