<svg width="106" height="106" viewBox="0 0 106 106" fill="none" xmlns="http://www.w3.org/2000/svg">
<path d="M36.1187 12.4565C41.9175 -3.21458 64.0825 -3.21458 69.8813 12.4565L73.4905 22.2102C75.3137 27.1372 79.1983 31.0218 84.1252 32.8449L93.8789 36.4541C109.55 42.253 109.55 64.4179 93.8789 70.2168L84.1252 73.826C79.1983 75.6491 75.3137 79.5337 73.4905 84.4606L69.8813 94.2144C64.0825 109.885 41.9175 109.885 36.1187 94.2144L32.5095 84.4607C30.6863 79.5337 26.8017 75.6491 21.8748 73.826L12.1211 70.2168C-3.55003 64.4179 -3.55003 42.253 12.1211 36.4541L21.8748 32.8449C26.8017 31.0218 30.6863 27.1372 32.5095 22.2102L36.1187 12.4565Z" fill="#C3F4DD"/>
</svg>
