<svg width="115" height="123" viewBox="0 0 115 123" fill="none" xmlns="http://www.w3.org/2000/svg">
<path d="M37.3164 9.15361C48.2421 -2.9614 67.2501 -2.9614 78.1758 9.15361C82.0566 13.457 87.1973 16.4249 92.8646 17.6342C108.819 21.0386 118.323 37.5 113.294 53.0194C111.508 58.532 111.508 64.468 113.294 69.9806C118.323 85.5 108.819 101.961 92.8646 105.366C87.1973 106.575 82.0566 109.543 78.1758 113.846C67.2501 125.961 48.2421 125.961 37.3164 113.846C33.4355 109.543 28.2949 106.575 22.6276 105.366C6.67289 101.961 -2.83112 85.5 2.19795 69.9806C3.98432 64.468 3.98432 58.532 2.19795 53.0194C-2.83112 37.5 6.67288 21.0386 22.6276 17.6342C28.2949 16.4249 33.4355 13.457 37.3164 9.15361Z" fill="#FFE9AF"/>
</svg>
