<svg width="212" height="164" viewBox="0 0 212 164" fill="none" xmlns="http://www.w3.org/2000/svg">
<path d="M25.8353 110.489C17.8082 101.461 36.7213 44.6483 49.5054 39.9137C62.2894 35.179 132.494 80.1095 130.148 90.1741C127.802 100.239 33.8624 119.517 25.8353 110.489Z" fill="#EED7ED"/>
<path d="M196.117 25.0973C201.528 32.3142 183.92 73.4106 174.113 76.1381C164.306 78.8656 114.864 41.0651 117.236 33.7222C119.608 26.3793 190.706 17.8804 196.117 25.0973Z" fill="#EED7ED"/>
<path d="M166.595 99.0623C172.955 102.065 175.793 136.812 170.027 142.266C164.26 147.72 116.402 139.68 115.361 133.754C114.321 127.828 160.235 96.0593 166.595 99.0623Z" fill="#EED7ED"/>
</svg>
