<svg width="212" height="164" viewBox="0 0 212 164" fill="none" xmlns="http://www.w3.org/2000/svg">
<path d="M25.3363 110.489C17.3092 101.461 36.2223 44.6483 49.0063 39.9137C61.7904 35.179 131.995 80.1095 129.649 90.1741C127.303 100.239 33.3633 119.517 25.3363 110.489Z" fill="#E7B5E4"/>
<path d="M195.618 25.0973C201.029 32.3142 183.421 73.4106 173.614 76.1381C163.807 78.8656 114.365 41.0651 116.737 33.7222C119.109 26.3793 190.207 17.8804 195.618 25.0973Z" fill="#E7B5E4"/>
<path d="M166.096 99.0623C172.456 102.065 175.294 136.812 169.528 142.266C163.761 147.72 115.903 139.68 114.862 133.754C113.822 127.828 159.736 96.0593 166.096 99.0623Z" fill="#E7B5E4"/>
</svg>
