<svg width="115" height="123" viewBox="0 0 115 123" fill="none" xmlns="http://www.w3.org/2000/svg">
<path d="M37.0508 9.15361C47.9765 -2.9614 66.9845 -2.9614 77.9101 9.15361C81.791 13.457 86.9317 16.4249 92.5989 17.6342C108.554 21.0386 118.058 37.5 113.029 53.0194C111.242 58.532 111.242 64.468 113.029 69.9806C118.058 85.5 108.554 101.961 92.5989 105.366C86.9317 106.575 81.791 109.543 77.9101 113.846C66.9845 125.961 47.9765 125.961 37.0508 113.846C33.1699 109.543 28.0292 106.575 22.362 105.366C6.40726 101.961 -3.09675 85.5 1.93233 69.9806C3.7187 64.468 3.7187 58.532 1.93233 53.0194C-3.09675 37.5 6.40726 21.0386 22.362 17.6342C28.0292 16.4249 33.1699 13.457 37.0508 9.15361Z" fill="#58621C"/>
</svg>
