<svg width="114" height="123" viewBox="0 0 114 123" fill="none" xmlns="http://www.w3.org/2000/svg">
<path d="M36.4824 9.15361C47.4081 -2.9614 66.4161 -2.9614 77.3418 9.15361C81.2227 13.457 86.3633 16.4249 92.0306 17.6342C107.985 21.0386 117.489 37.5 112.46 53.0194C110.674 58.532 110.674 64.468 112.46 69.9806C117.489 85.5 107.985 101.961 92.0306 105.366C86.3633 106.575 81.2227 109.543 77.3418 113.846C66.4161 125.961 47.4081 125.961 36.4824 113.846C32.6016 109.543 27.4609 106.575 21.7936 105.366C5.8389 101.961 -3.66511 85.5 1.36397 69.9806C3.15034 64.468 3.15034 58.532 1.36397 53.0194C-3.66511 37.5 5.8389 21.0386 21.7936 17.6342C27.4609 16.4249 32.6016 13.457 36.4824 9.15361Z" fill="#1D6620"/>
</svg>
