<svg width="114" height="123" viewBox="0 0 114 123" fill="none" xmlns="http://www.w3.org/2000/svg">
<path d="M36.668 9.15361C47.5937 -2.9614 66.6017 -2.9614 77.5273 9.15361C81.4082 13.457 86.5489 16.4249 92.2161 17.6342C108.171 21.0386 117.675 37.5 112.646 53.0194C110.859 58.532 110.859 64.468 112.646 69.9806C117.675 85.5 108.171 101.961 92.2161 105.366C86.5489 106.575 81.4082 109.543 77.5273 113.846C66.6017 125.961 47.5937 125.961 36.668 113.846C32.7871 109.543 27.6464 106.575 21.9792 105.366C6.02445 101.961 -3.47956 85.5 1.54952 69.9806C3.33589 64.468 3.33589 58.532 1.54952 53.0194C-3.47956 37.5 6.02445 21.0386 21.9792 17.6342C27.6464 16.4249 32.7871 13.457 36.668 9.15361Z" fill="#426D0A"/>
</svg>
