<svg width="114" height="123" viewBox="0 0 114 123" fill="none" xmlns="http://www.w3.org/2000/svg">
<path d="M36.4727 9.15361C47.3983 -2.9614 66.4063 -2.9614 77.332 9.15361C81.2129 13.457 86.3536 16.4249 92.0208 17.6342C107.976 21.0386 117.48 37.5 112.45 53.0194C110.664 58.532 110.664 64.468 112.45 69.9806C117.48 85.5 107.976 101.961 92.0208 105.366C86.3536 106.575 81.2129 109.543 77.332 113.846C66.4063 125.961 47.3983 125.961 36.4727 113.846C32.5918 109.543 27.4511 106.575 21.7839 105.366C5.82914 101.961 -3.67487 85.5 1.3542 69.9806C3.14057 64.468 3.14057 58.532 1.3542 53.0194C-3.67487 37.5 5.82913 21.0386 21.7839 17.6342C27.4511 16.4249 32.5918 13.457 36.4727 9.15361Z" fill="#8C9C29"/>
</svg>
