<svg width="115" height="123" viewBox="0 0 115 123" fill="none" xmlns="http://www.w3.org/2000/svg">
<path d="M37.1133 9.15361C48.039 -2.9614 67.047 -2.9614 77.9726 9.15361C81.8535 13.457 86.9942 16.4249 92.6614 17.6342C108.616 21.0386 118.12 37.5 113.091 53.0194C111.305 58.532 111.305 64.468 113.091 69.9806C118.12 85.5 108.616 101.961 92.6614 105.366C86.9942 106.575 81.8535 109.543 77.9726 113.846C67.047 125.961 48.039 125.961 37.1133 113.846C33.2324 109.543 28.0917 106.575 22.4245 105.366C6.46976 101.961 -3.03425 85.5 1.99483 69.9806C3.7812 64.468 3.7812 58.532 1.99483 53.0194C-3.03425 37.5 6.46976 21.0386 22.4245 17.6342C28.0917 16.4249 33.2324 13.457 37.1133 9.15361Z" fill="#637207"/>
</svg>
