<svg width="212" height="164" viewBox="0 0 212 164" fill="none" xmlns="http://www.w3.org/2000/svg">
<path d="M25.0619 110.489C17.0348 101.461 35.9479 44.6483 48.7319 39.9137C61.516 35.179 131.721 80.1095 129.375 90.1741C127.029 100.239 33.0889 119.517 25.0619 110.489Z" fill="#CC7E6D"/>
<path d="M195.345 25.0973C200.756 32.3142 183.148 73.4106 173.341 76.1381C163.534 78.8656 114.092 41.0651 116.464 33.7222C118.836 26.3793 189.934 17.8804 195.345 25.0973Z" fill="#CC7E6D"/>
<path d="M165.822 99.0623C172.182 102.065 175.021 136.812 169.254 142.266C163.488 147.72 115.63 139.68 114.589 133.754C113.548 127.828 159.462 96.0593 165.822 99.0623Z" fill="#CC7E6D"/>
</svg>
