<svg width="106" height="106" viewBox="0 0 106 106" fill="none" xmlns="http://www.w3.org/2000/svg">
<path d="M35.9956 12.0723C41.7945 -3.59886 63.9594 -3.59886 69.7583 12.0723L73.3675 21.826C75.1906 26.7529 79.0752 30.6375 84.0022 32.4606L93.7559 36.0698C109.427 41.8687 109.427 64.0337 93.7559 69.8325L84.0022 73.4417C79.0752 75.2648 75.1906 79.1494 73.3675 84.0764L69.7583 93.8301C63.9594 109.501 41.7945 109.501 35.9956 93.8301L32.3864 84.0764C30.5633 79.1494 26.6787 75.2648 21.7518 73.4417L11.9981 69.8325C-3.67308 64.0337 -3.67308 41.8687 11.998 36.0698L21.7517 32.4606C26.6787 30.6375 30.5633 26.7529 32.3864 21.826L35.9956 12.0723Z" fill="#50BBF4"/>
</svg>
