<svg width="115" height="123" viewBox="0 0 115 123" fill="none" xmlns="http://www.w3.org/2000/svg">
<path d="M36.8164 9.15361C47.7421 -2.9614 66.7501 -2.9614 77.6758 9.15361C81.5566 13.457 86.6973 16.4249 92.3646 17.6342C108.319 21.0386 117.823 37.5 112.794 53.0194C111.008 58.532 111.008 64.468 112.794 69.9806C117.823 85.5 108.319 101.961 92.3646 105.366C86.6973 106.575 81.5566 109.543 77.6758 113.846C66.7501 125.961 47.7421 125.961 36.8164 113.846C32.9355 109.543 27.7949 106.575 22.1276 105.366C6.17289 101.961 -3.33112 85.5 1.69795 69.9806C3.48432 64.468 3.48432 58.532 1.69795 53.0194C-3.33112 37.5 6.17288 21.0386 22.1276 17.6342C27.7949 16.4249 32.9355 13.457 36.8164 9.15361Z" fill="#8FD0FF"/>
</svg>
