<svg width="212" height="164" viewBox="0 0 212 164" fill="none" xmlns="http://www.w3.org/2000/svg">
<path d="M25.3001 110.489C17.2731 101.461 36.1862 44.6483 48.9702 39.9137C61.7542 35.179 131.959 80.1095 129.613 90.1741C127.267 100.239 33.3272 119.517 25.3001 110.489Z" fill="#F5D4AC"/>
<path d="M195.58 25.0973C200.991 32.3142 183.383 73.4106 173.576 76.1381C163.769 78.8656 114.327 41.0651 116.698 33.7222C119.07 26.3793 190.169 17.8804 195.58 25.0973Z" fill="#F5D4AC"/>
<path d="M166.059 99.0623C172.419 102.065 175.257 136.812 169.491 142.266C163.724 147.72 115.866 139.68 114.825 133.754C113.784 127.828 159.699 96.0593 166.059 99.0623Z" fill="#F5D4AC"/>
</svg>
