<svg width="106" height="106" viewBox="0 0 106 106" fill="none" xmlns="http://www.w3.org/2000/svg">
<path d="M36.3648 12.1211C42.1636 -3.55003 64.3286 -3.55003 70.1274 12.1211L73.7366 21.8748C75.5598 26.8017 79.4444 30.6863 84.3713 32.5095L94.125 36.1187C109.796 41.9175 109.796 64.0825 94.125 69.8813L84.3713 73.4905C79.4444 75.3137 75.5598 79.1983 73.7366 84.1252L70.1274 93.8789C64.3286 109.55 42.1636 109.55 36.3648 93.8789L32.7556 84.1252C30.9324 79.1983 27.0478 75.3137 22.1209 73.4905L12.3672 69.8813C-3.30394 64.0825 -3.30394 41.9175 12.3672 36.1187L22.1209 32.5095C27.0478 30.6863 30.9324 26.8017 32.7556 21.8748L36.3648 12.1211Z" fill="#E4773B"/>
</svg>
