<svg width="115" height="124" viewBox="0 0 115 124" fill="none" xmlns="http://www.w3.org/2000/svg">
<path d="M36.7461 9.62919C47.6718 -2.48582 66.6798 -2.48582 77.6055 9.62919C81.4863 13.9325 86.627 16.9005 92.2943 18.1098C108.249 21.5142 117.753 37.9756 112.724 53.495C110.938 59.0076 110.938 64.9436 112.724 70.4562C117.753 85.9756 108.249 102.437 92.2943 105.841C86.627 107.051 81.4863 110.019 77.6055 114.322C66.6798 126.437 47.6718 126.437 36.7461 114.322C32.8652 110.019 27.7246 107.051 22.0573 105.841C6.10257 102.437 -3.40143 85.9756 1.62764 70.4562C3.41401 64.9436 3.41401 59.0076 1.62764 53.495C-3.40143 37.9756 6.10257 21.5142 22.0573 18.1098C27.7246 16.9005 32.8652 13.9325 36.7461 9.62919Z" fill="#D5C9AD"/>
</svg>
