<svg width="107" height="106" viewBox="0 0 107 106" fill="none" xmlns="http://www.w3.org/2000/svg">
<path d="M36.6187 12.0723C42.4175 -3.59886 64.5825 -3.59886 70.3813 12.0723L73.9905 21.826C75.8137 26.7529 79.6983 30.6375 84.6252 32.4606L94.3789 36.0698C110.05 41.8687 110.05 64.0337 94.3789 69.8325L84.6252 73.4417C79.6983 75.2648 75.8137 79.1494 73.9905 84.0764L70.3813 93.8301C64.5825 109.501 42.4175 109.501 36.6187 93.8301L33.0095 84.0764C31.1863 79.1494 27.3017 75.2648 22.3748 73.4417L12.6211 69.8325C-3.05003 64.0337 -3.05003 41.8687 12.6211 36.0698L22.3748 32.4606C27.3017 30.6375 31.1863 26.7529 33.0095 21.826L36.6187 12.0723Z" fill="#FAA1E6"/>
</svg>
