<svg width="106" height="106" viewBox="0 0 106 106" fill="none" xmlns="http://www.w3.org/2000/svg">
<path d="M35.8726 12.4565C41.6714 -3.21458 63.8364 -3.21458 69.6352 12.4565L73.2444 22.2102C75.0676 27.1372 78.9522 31.0218 83.8791 32.8449L93.6328 36.4541C109.304 42.253 109.304 64.4179 93.6328 70.2168L83.8791 73.826C78.9522 75.6491 75.0676 79.5337 73.2444 84.4606L69.6352 94.2144C63.8364 109.885 41.6714 109.885 35.8726 94.2144L32.2634 84.4607C30.4402 79.5337 26.5557 75.6491 21.6287 73.826L11.875 70.2168C-3.79612 64.4179 -3.79613 42.253 11.875 36.4541L21.6287 32.8449C26.5556 31.0218 30.4402 27.1372 32.2634 22.2102L35.8726 12.4565Z" fill="#E4AEE6"/>
</svg>
