<svg width="115" height="123" viewBox="0 0 115 123" fill="none" xmlns="http://www.w3.org/2000/svg">
<path d="M37.3242 9.15361C48.2499 -2.9614 67.2579 -2.9614 78.1836 9.15361V9.15361C82.0645 13.457 87.2051 16.4249 92.8724 17.6342V17.6342C108.827 21.0386 118.331 37.5 113.302 53.0194V53.0194C111.516 58.532 111.516 64.468 113.302 69.9806V69.9806C118.331 85.5 108.827 101.961 92.8724 105.366V105.366C87.2051 106.575 82.0645 109.543 78.1836 113.846V113.846C67.2579 125.961 48.2499 125.961 37.3242 113.846V113.846C33.4434 109.543 28.3027 106.575 22.6354 105.366V105.366C6.6807 101.961 -2.82331 85.5 2.20577 69.9806V69.9806C3.99214 64.468 3.99214 58.532 2.20577 53.0194V53.0194C-2.82331 37.5 6.6807 21.0386 22.6354 17.6342V17.6342C28.3027 16.4249 33.4434 13.457 37.3242 9.15361V9.15361Z" fill="#38ACFF"/>
</svg>
