<svg width="114" height="123" viewBox="0 0 114 123" fill="none" xmlns="http://www.w3.org/2000/svg">
<path d="M36.5703 9.15361C47.496 -2.9614 66.504 -2.9614 77.4297 9.15361C81.3106 13.457 86.4512 16.4249 92.1185 17.6342C108.073 21.0386 117.577 37.5 112.548 53.0194C110.762 58.532 110.762 64.468 112.548 69.9806C117.577 85.5 108.073 101.961 92.1185 105.366C86.4512 106.575 81.3106 109.543 77.4297 113.846C66.504 125.961 47.496 125.961 36.5703 113.846C32.6894 109.543 27.5488 106.575 21.8815 105.366C5.92679 101.961 -3.57722 85.5 1.45186 69.9806C3.23823 64.468 3.23823 58.532 1.45186 53.0194C-3.57722 37.5 5.92679 21.0386 21.8815 17.6342C27.5488 16.4249 32.6894 13.457 36.5703 9.15361Z" fill="#005EA2"/>
</svg>
