<svg width="115" height="123" viewBox="0 0 115 123" fill="none" xmlns="http://www.w3.org/2000/svg">
<path d="M36.7305 9.15361C47.6562 -2.9614 66.6642 -2.9614 77.5898 9.15361C81.4707 13.457 86.6114 16.4249 92.2786 17.6342C108.233 21.0386 117.737 37.5 112.708 53.0194C110.922 58.532 110.922 64.468 112.708 69.9806C117.737 85.5 108.233 101.961 92.2786 105.366C86.6114 106.575 81.4707 109.543 77.5898 113.846C66.6642 125.961 47.6562 125.961 36.7305 113.846C32.8496 109.543 27.7089 106.575 22.0417 105.366C6.08695 101.961 -3.41706 85.5 1.61202 69.9806C3.39839 64.468 3.39839 58.532 1.61202 53.0194C-3.41706 37.5 6.08695 21.0386 22.0417 17.6342C27.7089 16.4249 32.8496 13.457 36.7305 9.15361Z" fill="#9DCDF0"/>
</svg>
