<svg width="106" height="106" viewBox="0 0 106 106" fill="none" xmlns="http://www.w3.org/2000/svg">
<path d="M36.3335 12.4565C42.1324 -3.21458 64.2973 -3.21458 70.0962 12.4565L73.7054 22.2102C75.5285 27.1372 79.4131 31.0218 84.34 32.8449L94.0938 36.4541C109.765 42.253 109.765 64.4179 94.0938 70.2168L84.34 73.826C79.4131 75.6491 75.5285 79.5337 73.7054 84.4606L70.0962 94.2144C64.2973 109.885 42.1324 109.885 36.3335 94.2144L32.7243 84.4607C30.9012 79.5337 27.0166 75.6491 22.0896 73.826L12.3359 70.2168C-3.33519 64.4179 -3.33519 42.253 12.3359 36.4541L22.0896 32.8449C27.0166 31.0218 30.9012 27.1372 32.7243 22.2102L36.3335 12.4565Z" fill="#E8DBBD"/>
</svg>
