<svg width="106" height="106" viewBox="0 0 106 106" fill="none" xmlns="http://www.w3.org/2000/svg">
<path d="M36.3648 12.0723C42.1636 -3.59886 64.3286 -3.59886 70.1274 12.0723L73.7366 21.826C75.5598 26.7529 79.4444 30.6375 84.3713 32.4606L94.125 36.0698C109.796 41.8687 109.796 64.0337 94.125 69.8325L84.3713 73.4417C79.4444 75.2648 75.5598 79.1494 73.7366 84.0764L70.1274 93.8301C64.3286 109.501 42.1636 109.501 36.3648 93.8301L32.7556 84.0764C30.9324 79.1494 27.0478 75.2648 22.1209 73.4417L12.3672 69.8325C-3.30394 64.0337 -3.30394 41.8687 12.3672 36.0698L22.1209 32.4606C27.0478 30.6375 30.9324 26.7529 32.7556 21.826L36.3648 12.0723Z" fill="#EFF0BC"/>
</svg>
