<svg width="107" height="106" viewBox="0 0 107 106" fill="none" xmlns="http://www.w3.org/2000/svg">
<path d="M36.6265 12.4565C42.4253 -3.21458 64.5903 -3.21458 70.3891 12.4565L73.9983 22.2102C75.8215 27.1372 79.7061 31.0218 84.633 32.8449L94.3867 36.4541C110.058 42.253 110.058 64.4179 94.3867 70.2168L84.633 73.826C79.7061 75.6491 75.8215 79.5337 73.9983 84.4606L70.3891 94.2144C64.5903 109.885 42.4253 109.885 36.6265 94.2144L33.0173 84.4607C31.1942 79.5337 27.3096 75.6491 22.3826 73.826L12.6289 70.2168C-3.04222 64.4179 -3.04222 42.253 12.6289 36.4541L22.3826 32.8449C27.3096 31.0218 31.1942 27.1372 33.0173 22.2102L36.6265 12.4565Z" fill="#E479E6"/>
</svg>
