<svg width="106" height="106" viewBox="0 0 106 106" fill="none" xmlns="http://www.w3.org/2000/svg">
<path d="M36.3804 12.4565C42.1792 -3.21458 64.3442 -3.21458 70.1431 12.4565L73.7522 22.2102C75.5754 27.1372 79.46 31.0218 84.3869 32.8449L94.1406 36.4541C109.812 42.253 109.812 64.4179 94.1406 70.2168L84.3869 73.826C79.46 75.6491 75.5754 79.5337 73.7522 84.4606L70.1431 94.2144C64.3442 109.885 42.1792 109.885 36.3804 94.2144L32.7712 84.4607C30.9481 79.5337 27.0635 75.6491 22.1365 73.826L12.3828 70.2168C-3.28831 64.4179 -3.28831 42.253 12.3828 36.4541L22.1365 32.8449C27.0635 31.0218 30.9481 27.1372 32.7712 22.2102L36.3804 12.4565Z" fill="#E4AEE5"/>
</svg>
