<svg width="201" height="189" viewBox="0 0 201 189" fill="none" xmlns="http://www.w3.org/2000/svg">
<g clip-path="url(#clip0_484_3464)">
<path d="M74.0311 135.423C68.0595 135.199 58.29 143.065 51.4653 151.294C52.8793 143.182 56.315 118.941 46.7909 119.176C35.3853 119.446 20.696 128.567 20.4623 134.929C20.2519 140.576 27.1817 149.603 34.8244 156.365C25.4756 154.851 4.44067 152.421 4.63934 161.331C4.90812 172.788 13.9882 187.544 20.322 187.791C26.2936 188.014 36.0631 180.137 42.8878 171.919C41.4738 180.031 38.0381 204.261 47.5622 204.038C58.9678 203.768 73.6572 194.646 73.9026 188.272C74.1129 182.637 67.1714 173.598 59.5287 166.836C68.8775 168.362 89.9124 170.781 89.7138 161.871C89.41 150.425 80.3182 135.681 74.0311 135.423Z" fill="#FFC2BE"/>
<path d="M91.9108 125.433C91.9108 125.433 69.8241 111.991 64.3551 98.82C58.886 85.6486 64.3551 60.2217 84.2213 60.2217C104.088 60.2217 109.533 82.3265 109.533 82.3265C109.533 82.3265 111.73 53.5891 133.747 46.9565C155.763 40.3239 173.327 62.4287 159.024 93.42C144.72 124.411 122.715 139.848 122.715 139.848L91.9108 125.433Z" fill="#4192B5"/>
<path d="M135.196 162.81C135.196 162.81 131.047 147.948 134.027 139.989C137.007 132.03 149.663 123.249 158.264 131.337C166.865 139.426 160.309 151.294 160.309 151.294C160.309 151.294 172.895 139.719 185.142 145.824C197.389 151.928 196.08 168.727 177.336 176.345C158.591 183.964 142.78 181.675 142.78 181.675L135.196 162.81Z" fill="#FFC81A"/>
<path d="M55.4034 92.2462C55.4034 92.2462 36.7057 57.0288 23.8511 57.0288C10.9964 57.0288 17.3653 76.3631 17.3653 76.3631C17.3653 76.3631 35.5371 76.9853 55.4034 92.2462Z" fill="#FFC81A"/>
<path d="M160.8 111.968C160.8 111.968 174.695 99.6298 180.316 101.731C185.937 103.832 180.012 111.24 180.012 111.24C180.012 111.24 171.972 108.54 160.8 111.968Z" fill="#FFC2BE"/>
<path d="M51.3083 74.3907C51.3083 74.3907 51.8994 57.6488 47.2353 54.928C42.5712 52.2073 40.8353 60.5725 40.8353 60.5725C40.8353 60.5725 47.2953 64.6387 51.3083 74.3907Z" fill="#FFC2BE"/>
<path d="M47.3402 168.55C51.2127 168.55 54.3519 165.397 54.3519 161.507C54.3519 157.617 51.2127 154.463 47.3402 154.463C43.4678 154.463 40.3286 157.617 40.3286 161.507C40.3286 165.397 43.4678 168.55 47.3402 168.55Z" fill="#E2766F"/>
<path d="M104.251 168.938C102.79 171.673 104.251 178.036 106.483 183.095C103.047 180.583 92.5885 173.481 90.5434 177.977C88.0777 183.365 89.0008 192.322 91.8756 193.872C94.4348 195.245 100.208 194.048 105.069 192.017C102.241 196.044 96.3397 205.341 100.523 207.278C105.887 209.743 114.804 208.827 116.346 205.94C117.889 203.052 116.346 196.842 114.114 191.782C117.55 194.283 128.009 201.397 130.054 196.901C132.52 191.512 131.597 182.555 128.722 181.006C126.162 179.632 120.401 180.818 115.528 182.861C118.356 178.834 124.258 169.537 120.074 167.6C114.71 165.123 105.77 166.05 104.251 168.938Z" fill="#4192B5"/>
<path d="M110.293 190.996C112.3 190.996 113.927 189.361 113.927 187.345C113.927 185.328 112.3 183.694 110.293 183.694C108.286 183.694 106.659 185.328 106.659 187.345C106.659 189.361 108.286 190.996 110.293 190.996Z" fill="#FFC81A"/>
</g>
<defs>
<clipPath id="clip0_484_3464">
<rect width="201" height="189" fill="white"/>
</clipPath>
</defs>
</svg>
