<svg width="215" height="200" viewBox="0 0 215 200" fill="none" xmlns="http://www.w3.org/2000/svg">
<g clip-path="url(#clip0_526_1939)">
<path d="M212.092 35.7197L215.442 15.9652L205.621 18.1752L188.894 40.2429L193.104 11.5506L174.285 1L165.036 14.6185L168.255 43.7453L142.611 13.4728L96.4326 14.5697L96.2202 14.4013L96.2801 14.5697L96.1984 14.5751L96.3182 14.6674L108.726 48.5183L141.25 71.6665L111.232 70.2656L97.827 80.0668L109.75 97.7524L138.891 91.9531L124.637 104.312L122.954 113.999L142.993 109.568L157.231 96.8184L163.98 92.697L159.382 102.536L184.645 84.9972L201.116 59.3783L191.307 64.4337L191.247 64.4228L194.967 57.7928L212.092 35.7197Z" fill="#F2521F"/>
<path d="M192.528 219.396L208 214.684L202.886 208.39L180.944 204.269L203.187 196.96L204.055 179.56L190.9 177.791L171.009 190.623L183.684 161.182L166.34 128.216L166.383 128L166.282 128.108L166.247 128.05L166.225 128.165L146.213 149.342L141.148 181.186L131.401 158.995L119.508 152.852L111.008 167.843L125.648 186.804L111.603 180.963L104 183.243L114.386 196.119L128.703 201.801L134.105 205.189L125.347 205.42L147.08 217.346L171.497 220L164.331 214.742L164.317 214.691L170.435 214.986L192.528 219.396Z" fill="#C9680F"/>
<path d="M78.1528 152.661L88.6762 152.438L86.5682 147.622L73.5393 141.209L88.7633 140.552L92.3583 129.86L84.4222 126.456L69.7046 130.963L82.8099 114.841L77.7116 91.2582L77.7769 91.1333L77.6952 91.1822L77.6843 91.1442L77.6462 91.2093L61.3981 100.902L52.645 119.858L50.4226 104.323L44.0443 98.4095L36.0864 106.261L41.9418 120.64L34.1637 114.542L29 114.629L33.254 124.468L41.2283 130.523L44.0225 133.58L38.4939 132.184L50.025 143.425L64.8624 149.354L61.2946 144.82V144.787L65.0748 146.047L78.1528 152.661Z" fill="#6B291A"/>
<path d="M187.663 87.9348C187.663 87.9348 187.744 112.424 174.901 121.9L189.841 124.316C189.841 124.316 193.109 102.053 187.663 87.9348Z" fill="#F2521F"/>
<path d="M47.1327 146.036C47.1327 146.036 45.4986 166.671 59.1159 171.558L47.0728 174.213C47.0728 174.213 39.507 156.353 47.1327 146.036Z" fill="#6B291A"/>
</g>
<defs>
<clipPath id="clip0_526_1939">
<rect width="215" height="200" fill="white"/>
</clipPath>
</defs>
</svg>
