<svg width="215" height="200" viewBox="0 0 215 200" fill="none" xmlns="http://www.w3.org/2000/svg">
<g clip-path="url(#clip0_526_2247)">
<path d="M95.5337 62.6572L102.608 123.964H109.681V62.6572H95.5337Z" fill="#FFF5E1"/>
<path d="M126.216 39.1609L123.516 100.815L130.501 101.933L140.186 41.396L126.216 39.1609Z" fill="#FFF5E1"/>
<path d="M151.957 75.6289L140.442 136.259L147.194 138.366L165.462 79.8445L151.957 75.6289Z" fill="#FFF5E1"/>
<path d="M166.744 93.3105L156.841 130.566L87.5169 127.737V88.123L166.744 93.3105Z" fill="#C9680F"/>
<path d="M59.6934 126.794L71.9547 160.277H182.779V117.362L59.6934 126.794Z" fill="#A1422C"/>
<path d="M204 158.774L187.464 203.663H38V146.129L204 158.774Z" fill="#E7643B"/>
<path d="M105.909 56.3168C105.909 58.5162 104.22 60.2991 102.136 60.2991C100.053 60.2991 98.3638 58.5162 98.3638 56.3168C98.3638 54.1174 100.053 42.3787 102.136 42.3787C104.22 42.3787 105.909 54.1174 105.909 56.3168Z" fill="#F2521F"/>
<path d="M137.462 34.5394C137.115 36.7111 135.165 38.2048 133.108 37.8757C131.05 37.5465 129.664 35.5191 130.011 33.3473C130.359 31.1756 133.881 19.8511 135.939 20.1803C137.996 20.5094 137.81 32.3676 137.462 34.5394Z" fill="#F2521F"/>
<path d="M163.75 72.6681C163.094 74.7675 160.951 75.9662 158.962 75.3453C156.973 74.7245 155.892 72.5192 156.547 70.4197C157.202 68.3203 162.313 57.618 164.302 58.2389C166.291 58.8598 164.405 70.5686 163.75 72.6681Z" fill="#F2521F"/>
</g>
<defs>
<clipPath id="clip0_526_2247">
<rect width="215" height="200" fill="white"/>
</clipPath>
</defs>
</svg>
