<svg width="215" height="200" viewBox="0 0 215 200" fill="none" xmlns="http://www.w3.org/2000/svg">
<g clip-path="url(#clip0_526_2220)">
<path d="M69.0653 82.499C92.2744 85.9039 107.363 64.5179 116.098 51.5475L129.936 62.9793C99.4524 93.2651 103.271 110.675 110.579 115.77L78.948 190.159L11.7265 140.966L69.0653 82.499Z" fill="#511AC0"/>
<path d="M87.6415 175L25 123.485L48.3962 100L105 136.364L87.6415 175Z" fill="#B69CFF"/>
<path d="M195.94 37.371C170.91 19.1867 145.096 38.8863 135.319 51.0092C163.348 32.8249 179.644 30.4104 190.074 47.1126C200.503 63.8147 166.607 71.1417 135.319 109.459C110.288 140.112 136.622 167.258 152.919 177L170.518 154.27C124.889 123.097 227.229 60.1013 195.94 37.371Z" fill="#FFBE3F"/>
<path d="M165.345 140.003C156.92 129.098 166.378 114.124 172.16 108C164.106 119.853 169.062 129.335 172.16 134.077C175.258 138.818 169.062 145.337 165.345 140.003Z" fill="#FFBE3F"/>
<path d="M179.609 45.6146C177.867 40.5088 168.477 40.6506 164 41.3597C167.146 41.3788 173.511 42.0741 173.801 44.7028C174.164 47.9887 181.787 51.9968 179.609 45.6146Z" fill="#FFBE3F"/>
<path d="M134 148.797C134 166.341 150.139 176.625 151.933 178.44C153.328 187.918 156.476 201.187 157.91 178.44C159.704 150.007 134 131.252 134 148.797Z" fill="#713FFF"/>
<path d="M151.26 195.319L164.325 210.869L166.939 215.154L181.705 206.144L196.47 197.134L193.856 192.849L186.003 174.119L186.171 170.488L175.526 145.229L152.944 159.009L130.361 172.788L147.954 193.808L151.26 195.319Z" fill="#511AC0"/>
</g>
<defs>
<clipPath id="clip0_526_2220">
<rect width="215" height="200" fill="white"/>
</clipPath>
</defs>
</svg>
