<svg width="190" height="189" viewBox="0 0 190 189" fill="none" xmlns="http://www.w3.org/2000/svg">
<g clip-path="url(#clip0_484_3402)">
<path d="M106.821 163.179C122.005 173.498 129.524 177.12 131.846 198.048C134.168 218.977 111.759 199.25 96.0032 195.956C80.247 192.662 93.4601 154.134 106.821 163.179Z" fill="white"/>
<path fill-rule="evenodd" clip-rule="evenodd" d="M59.9973 133.973C56.3096 131.007 49.7394 128.804 44.8316 127.158L44.8314 127.158C43.1804 126.604 41.7175 126.114 40.6158 125.678C35.0784 123.491 25.5486 129.498 32.322 133.305C36.7749 135.807 47.1894 135.96 53.8026 135.77L59.9973 133.973ZM42.7182 138.987C27.9749 139.12 6.49676 134.073 25.2643 120.784C43.7861 107.669 57.5434 124.483 61.8163 130.816C61.2072 124.315 61.9602 112.057 76.3369 112.194C91.7733 112.34 84.7482 122.8 77.3654 128.932L89.5995 125.382L109.747 190.236H47.9455L28.6511 143.069L42.7182 138.987ZM71.1239 130.744C74.3374 128.224 77.9022 124.978 78.7843 122.403C80.4776 117.459 72.5423 117.78 70.713 121.303C70.3476 122.007 69.818 122.891 69.22 123.89L69.2199 123.89C67.7143 126.405 65.7754 129.644 64.9327 132.54L71.1239 130.744Z" fill="#FFC81A"/>
<path d="M22.5257 167.528C20.2283 171.104 18.9768 172.542 20.2469 177.342C21.5171 182.142 24.543 175.884 27.5502 173.786C30.5574 171.687 24.543 164.379 22.5257 167.528Z" fill="white"/>
<path d="M41.2315 170.595C26.0466 180.914 18.5279 184.536 16.206 205.464C13.884 226.393 36.2927 206.666 52.0488 203.372C67.805 200.078 54.5919 161.55 41.2315 170.595Z" fill="white"/>
<path d="M187.016 158.235C202.2 168.554 209.719 172.175 212.041 193.104C214.363 214.033 191.954 194.305 176.198 191.011C160.442 187.717 173.655 149.19 187.016 158.235Z" fill="white"/>
<path d="M163.635 142.81C164.486 141.697 164.942 141.252 164.622 139.67C164.301 138.088 163.141 140.054 162.08 140.659C161.019 141.265 162.894 143.774 163.635 142.81Z" fill="white"/>
<path d="M158.144 170.942C157.281 168.136 157.096 166.826 153.999 165.454C150.902 164.082 152.839 168.433 152.592 170.991C152.346 173.55 158.897 173.401 158.144 170.942Z" fill="white"/>
<path d="M136.948 19.0464L90.9902 120.264L120.193 103.85L74.1616 172.635L117.356 177.431L78.7019 190.236H197.403L164.288 120.264L177.49 125.975L156.071 77.1396L167.792 80.2296L136.948 19.0464Z" fill="#4CB469"/>
</g>
<defs>
<clipPath id="clip0_484_3402">
<rect width="190" height="189" fill="white"/>
</clipPath>
</defs>
</svg>
