<svg width="215" height="189" viewBox="0 0 215 189" fill="none" xmlns="http://www.w3.org/2000/svg">
<g clip-path="url(#clip0_484_3439)">
<path d="M183.62 156.667C183.62 156.667 199.813 166.465 207.996 196.609L101.038 193.109L183.62 156.667Z" fill="#FF8B00"/>
<path d="M184.984 8.49617C184.984 8.49617 177.078 11.8245 176.717 12.2547C176.356 12.6848 175.538 22.2189 175.27 25.1935C173.688 22.3587 168.721 14.0039 168.721 14.0039C168.721 14.0039 160.304 13.9748 156.704 16.8682C153.105 19.7616 150.752 26.428 150.752 26.428C150.752 26.428 154.089 34.3151 154.509 34.6799C154.93 35.0448 164.247 35.8255 167.339 36.1C164.327 37.7835 156.328 42.5317 156.328 42.5317C156.328 42.5317 156.303 50.9322 159.187 54.5283C162.072 58.1243 168.757 60.4643 168.757 60.4643C168.757 60.4643 176.659 57.126 177.024 56.7058C177.39 56.2857 178.208 46.7516 178.476 43.777C180.057 46.6118 185.02 54.9566 185.02 54.9566C185.02 54.9566 193.438 54.9857 197.041 52.1024C200.645 49.219 202.994 42.5425 202.994 42.5425C202.994 42.5425 199.657 34.6555 199.182 34.3034C198.707 33.9513 189.444 33.1578 186.352 32.8834C189.359 31.1898 197.352 26.4562 197.352 26.4562C197.352 26.4562 197.361 17.991 194.503 14.455C191.646 10.9191 184.984 8.49617 184.984 8.49617Z" fill="#FFBE3F"/>
<path d="M178.486 41.2461C178.486 41.2461 201.416 57.0278 182.718 71.1246L187.141 73.949C187.141 73.949 199.69 57.2804 183.028 42.1789L182.286 39.0593L179.706 40.8126L178.486 41.2461Z" fill="#FFBE3F"/>
<path d="M8.20795 152.569C8.20795 152.569 12.8635 149.941 13.2281 149.946C13.5927 149.951 18.6249 153.153 20.2018 154.152C19.3874 152.296 17.1314 146.669 17.1314 146.669C17.1314 146.669 20.2823 142.488 23.1253 141.821C25.9684 141.154 30.1288 142.522 30.1288 142.522C30.1288 142.522 32.775 147.167 32.7708 147.531C32.7666 147.894 29.6426 152.774 28.6027 154.412C30.5709 153.559 35.9767 151.421 35.9767 151.421C35.9767 151.421 40.1713 154.567 40.8535 157.405C41.5357 160.243 40.1645 164.384 40.1645 164.384C40.1645 164.384 35.5064 167.019 35.1444 167.007C34.7823 166.995 29.755 163.802 28.1706 162.8C28.985 164.656 31.241 170.283 31.241 170.283C31.241 170.283 28.0532 174.452 25.2471 175.132C22.441 175.812 18.2437 174.431 18.2437 174.431C18.2437 174.431 15.5949 169.793 15.6017 169.422C15.6085 169.051 18.7299 164.179 19.7671 162.548C17.8015 163.394 12.3958 165.532 12.3958 165.532C12.3958 165.532 8.21425 162.349 7.51895 159.548C6.82365 156.747 8.20795 152.569 8.20795 152.569Z" fill="#FFBE3F"/>
<path d="M27.0839 161.372C27.0839 161.372 25.5975 179.716 39.3087 175.095L38.8893 178.502C38.8893 178.502 26.333 178.848 25.7385 164.113L24.5985 162.58L26.4296 161.878L27.0839 161.372Z" fill="#FFBE3F"/>
<path d="M137.955 188.137C189.967 175.378 230.485 158.352 228.454 150.108C226.422 141.864 182.611 145.525 130.598 158.284C78.5853 171.044 38.0675 188.07 40.099 196.314C42.1304 204.557 85.9419 200.897 137.955 188.137Z" fill="#43A038"/>
<path d="M97.0943 73.2185C55.6346 83.3895 44.3026 92.1383 50.891 100.215C63.3618 115.502 81.1637 184.936 81.1637 184.936C81.1637 184.936 96.2212 186.562 135.16 177.01C174.098 167.459 186.701 159.02 186.701 159.02C186.701 159.02 164.267 90.4333 172.391 72.4631C175.132 66.3988 138.554 63.0475 97.0943 73.2185Z" fill="#82DD22"/>
<path d="M129.296 153.179L72.6569 166.946L64.9896 146.345L123.115 128.098L129.296 153.179Z" fill="#43A038"/>
<path d="M129.296 153.179L188.338 138.705L179.42 117.596L123.115 128.098L129.296 153.179Z" fill="#43A038"/>
<path d="M106.654 164.048L98.0556 129.172L145.064 114.482L154.395 152.342L106.654 164.048Z" fill="#FFBE3F"/>
<path d="M146.579 148.179L111.651 156.745L105.738 132.77L140.137 122.025L146.579 148.179Z" fill="#1C3F19"/>
</g>
<defs>
<clipPath id="clip0_484_3439">
<rect width="215" height="189" fill="white"/>
</clipPath>
</defs>
</svg>
