<svg width="215" height="200" viewBox="0 0 215 200" fill="none" xmlns="http://www.w3.org/2000/svg">
<g clip-path="url(#clip0_526_2001)">
<path d="M158.144 106.77C150.252 114.37 148.285 137.336 150.332 156.764C141.463 144.585 113.875 109.342 102.103 122.222C87.9453 137.642 81.3533 168.74 89.3725 177.074C96.5181 184.473 117.292 186.733 135.893 185.2C121.989 195.65 92.0038 220.465 104.019 231.526C119.443 245.645 150.517 252.271 158.85 244.247C167.184 236.224 168.71 213.681 166.662 194.254C175.544 206.393 203.12 241.675 214.891 228.795C229.049 213.375 235.641 182.277 227.622 173.943C220.476 166.543 199.755 164.258 181.101 165.817C195.006 155.367 224.991 130.552 212.976 119.492C197.564 105.333 166.399 98.7204 158.144 106.77Z" fill="#4192B5"/>
<path d="M49.2774 29.366C49.6122 34.8027 57.6739 42.9468 65.6892 48.4309C58.2208 47.8649 35.9887 46.956 37.0729 55.5627C38.3498 65.8911 48 78.4059 53.7392 78.0548C58.843 77.7333 66.3911 70.596 71.8037 63.0591C71.2808 71.6906 71.0157 91.0383 79.0743 90.0526C89.3896 88.7615 101.91 79.1314 101.557 73.3911C101.204 67.6507 93.1602 59.8104 85.1449 54.3263C92.6025 54.8748 114.845 55.8012 113.761 47.1945C112.484 36.8661 102.834 24.3511 97.0947 24.7022C91.991 25.0237 84.4496 32.1328 79.0303 39.698C79.5532 31.0665 79.8183 11.7188 71.7597 12.7045C61.4336 13.978 48.8894 23.6473 49.2774 29.366Z" fill="#F4BA49"/>
<path d="M154.724 187.207C161.189 189.292 168.121 185.742 170.207 179.276C172.292 172.81 168.742 165.878 162.276 163.793C155.811 161.707 148.879 165.258 146.793 171.724C144.708 178.189 148.258 185.121 154.724 187.207Z" fill="#FFC81A"/>
<path d="M78.6305 56.5761C81.5032 54.8 82.3921 51.0315 80.616 48.1588C78.8399 45.2861 75.0714 44.3972 72.1987 46.1733C69.326 47.9494 68.4371 51.7179 70.2132 54.5906C71.9893 57.4633 75.7578 58.3522 78.6305 56.5761Z" fill="#A65A30"/>
<path d="M38 160C71.5636 163.421 99.3182 193.138 109 207.569L82.6439 222C79.2374 222 72.8545 220.183 74.5758 212.914C76.297 205.645 59.8737 192.425 51.447 186.724C68.2288 188.862 84.2576 201.511 90.1742 207.569C85.4409 182.769 53.4192 165.523 38 160Z" fill="#4CB469"/>
<path d="M146.689 87.6551L162.781 59.117C153.496 47.0968 133.176 26.4342 126.171 39.9445C119.166 53.4548 133.523 69.1447 141.578 75.3009C138.511 73.7453 131.458 72.1329 127.783 78.1286C124.108 84.1243 140.121 86.6902 146.689 87.6551Z" fill="#FFC1C1"/>
<path d="M63.5475 138.896L50.2054 120.558C39.9672 122.948 21.114 129.802 27.6067 138.097C34.0993 146.393 48.1068 141.864 54.299 138.562C52.4376 140.046 49.3945 144.023 52.113 148.061C54.8315 152.099 61.0515 142.754 63.5475 138.896Z" fill="#E2BEFF"/>
<path d="M150.606 87.9938L169.962 64.7271C182.166 67.4001 204.678 75.2365 197.099 85.1986C189.52 95.1607 172.803 90.0076 165.392 86.1858C167.627 87.9185 171.308 92.5944 168.144 97.4365C164.979 102.279 153.634 92.5369 150.606 87.9938Z" fill="#FFC1C1"/>
<path d="M64.8869 136.527L55.8027 117.649C60.9946 110.734 72.4019 98.8122 76.4953 106.449C80.5887 114.086 72.5373 123.13 68 126.697C69.7338 125.788 73.7363 124.815 75.8753 128.2C78.0143 131.584 68.6183 135.927 64.8869 136.527Z" fill="#E2BEFF"/>
<circle cx="51" cy="114" r="4" fill="#E2BEFF"/>
<ellipse cx="171" cy="55.5" rx="4" ry="3.5" fill="#FFC1C1"/>
</g>
<defs>
<clipPath id="clip0_526_2001">
<rect width="215" height="200" fill="white"/>
</clipPath>
</defs>
</svg>
