<svg width="215" height="200" viewBox="0 0 215 200" fill="none" xmlns="http://www.w3.org/2000/svg">
<g clip-path="url(#clip0_526_2066)">
<path d="M111 66.2273C111 41.25 130.477 21 154.5 21C178.523 21 198 41.25 198 66.2273C198 91.2045 178.523 101 154.5 101C130.477 101 111 91.2273 111 66.2273Z" fill="#F2AA1F"/>
<path fill-rule="evenodd" clip-rule="evenodd" d="M99.1875 51.5359C101.987 50.6172 139.781 45.1053 139.781 45.1053L149.113 49.6986L156.2 48.3206L158.911 41.89L195.77 35.0865L195.75 35L195.818 35.0776L196.238 35L196.412 35.759L207 47.9047L206.034 60.5789H203.002L204.188 48.8265L197.314 39.7049L200.438 53.3732L164.977 62.5598L154.478 58.5453L148.576 60.4928L145.38 69.4498L104.787 80.4737L100.068 56.0878L93.1854 78.7669C93.1854 78.7669 96.5951 86.6638 97.0577 87.1192C97.5204 87.5746 93.1854 89 93.1854 89L87 80.7435L99.3133 52.1862L99.1875 51.5359Z" fill="#3D3C3B"/>
<path d="M106.146 211L78 128L164 202.062L106.146 211Z" fill="#96731B"/>
<path d="M165.268 208.42L168.916 125.466L141.069 187.685L165.268 208.42Z" fill="#96731B"/>
<path d="M74.442 128C74.442 128 17 167.189 17 168.09C17 168.991 80 178 80 178L74.442 128Z" fill="#26871B"/>
<path d="M170.943 124.531C170.943 124.531 212.631 132.277 212.867 132.788C213.103 133.299 180.999 154.316 180.999 154.316L170.943 124.531Z" fill="#26871B"/>
<path d="M81.4101 124.824L110.063 134.668L107.217 120.227L81.4101 124.824Z" fill="#26871B"/>
<path d="M166.219 124.965L153.002 137.61L150.909 128.974L166.219 124.965Z" fill="#26871B"/>
<path d="M77.7731 121.988L93.188 95.9059L78.4698 95.7839L77.7731 121.988Z" fill="#26871B"/>
<path d="M167.496 122.49L152.447 112.091L160.485 108.301L167.496 122.49Z" fill="#26871B"/>
<path d="M74 124.74L14 116V144L74 124.74Z" fill="#26871B"/>
<path d="M170.327 123.195L200.574 103.481L207.59 118.686L170.327 123.195Z" fill="#26871B"/>
</g>
<defs>
<clipPath id="clip0_526_2066">
<rect width="215" height="200" fill="white"/>
</clipPath>
</defs>
</svg>
