<svg width="215" height="200" viewBox="0 0 215 200" fill="none" xmlns="http://www.w3.org/2000/svg">
<path d="M205 105.337L196.465 66.4314L133.817 57L74 95.7602L83.5589 146.791L132.632 154L148.904 140.886L149.36 140.503L152.272 138.157L205 105.337ZM87.0986 139.916L81.2004 105.337L138.975 66.4314L186.329 76.0122L192.566 92.4912L136.792 128.427L136.238 128.783L130.932 132.202L128.203 133.953L87.0986 139.916Z" fill="#FFF4FD"/>
<path d="M149.298 141.027L146.033 143.667L156.966 151.619L138.5 162L59.374 164.329L22.9708 145.114L39.0424 113.913L108.557 116.412L130.98 132.722L136.251 129.309L111.5 95L39.0424 92L16 148.558L50.8541 183L144.96 178.408L162 152.435L149.298 141.027Z" fill="#D947C2"/>
<path d="M81.2308 99.8605C61.3451 101.401 52.1245 89.8072 50 83.818C56.6286 78.171 65.0842 81.4651 68.4835 83.818C67.9736 75.0909 73.37 65.6364 76.1319 62C83.7802 64.5668 88.2418 77.6148 89.5165 83.818C93.5956 77.6576 103.538 76.5453 108 76.7592C107.363 83.818 101.116 98.3204 81.2308 99.8605Z" fill="#FB8EEA"/>
<path d="M165.678 63.8024C154.124 60.5936 151.291 52.1504 151.319 48.3299C156.224 46.4984 160.327 50.0945 161.765 52.1215C163.267 47.0849 168.256 42.8489 170.563 41.3605C174.359 44.3799 174.203 52.6689 173.651 56.436C177.22 53.7914 183.067 55.2024 185.545 56.2384C183.737 60.0968 177.232 67.0112 165.678 63.8024Z" fill="#FFF4FD"/>
</svg>
