<svg width="215" height="200" viewBox="0 0 215 200" fill="none" xmlns="http://www.w3.org/2000/svg">
<g clip-path="url(#clip0_526_1894)">
<path d="M126 178.011C126 149.287 148.163 126 175.5 126C202.837 126 225 149.287 225 178.011C225 206.735 202.837 218 175.5 218C148.163 218 126 206.761 126 178.011Z" fill="white"/>
<path d="M130.183 79.9716C146.519 65.2654 171.25 65.3545 185.422 80.1707C199.593 94.9869 197.839 118.926 181.486 133.622C165.134 148.318 147.259 142.08 133.087 127.264C118.916 112.448 113.841 94.6726 130.183 79.9716Z" fill="white"/>
<path d="M129.139 144.96C129.854 144.828 103.841 168.878 103.841 168.878L95.2502 163.683L126.997 136.332L129.139 144.96Z" fill="#232220"/>
<path d="M122.328 142.743C123.415 134.674 121.687 126.471 117.421 119.46C110.275 107.75 101.398 120.974 105.408 128.57C105.408 128.57 102.567 119.779 88.4884 114.275C74.4097 108.771 59.3288 130.5 76.8464 144.788C94.3641 159.075 103.206 162.268 103.206 162.268L122.328 142.743Z" fill="#232220"/>
<path d="M148 98L92 100.15L145.493 113L148 98Z" fill="#EFC14F"/>
<path d="M153 58.7778L224.919 97L226 93.2839L157.326 54L153 58.7778Z" fill="#232220"/>
<path d="M165 62.8387L172.03 23L238 44.4919L214.207 88L165 62.8387Z" fill="#232220"/>
<path d="M165.135 93.8642C162.303 92.5598 160.149 91.1643 161.33 88.3202C161.945 86.9392 163.057 85.8704 164.421 85.3483C165.785 84.8262 167.291 84.8933 168.609 85.5348C169.947 86.1153 171.013 87.2281 171.573 88.6303C172.133 90.0325 172.142 91.6103 171.598 93.0195C170.412 95.8743 167.972 95.1633 165.135 93.8642Z" fill="#232220"/>
<path d="M42 105C51.3888 105 59 99.4036 59 92.5C59 85.5964 51.3888 80 42 80C32.6112 80 25 85.5964 25 92.5C25 99.4036 32.6112 105 42 105Z" fill="white"/>
<path d="M219.5 131C228.613 131 236 125.18 236 118C236 110.82 228.613 105 219.5 105C210.387 105 203 110.82 203 118C203 125.18 210.387 131 219.5 131Z" fill="white"/>
<path d="M78 203C87.3888 203 95 197.404 95 190.5C95 183.596 87.3888 178 78 178C68.6112 178 61 183.596 61 190.5C61 197.404 68.6112 203 78 203Z" fill="white"/>
<path d="M87.1006 71.7284C89.3953 70.4366 89.846 67.0086 88.1072 64.0719C86.3684 61.1352 83.0986 59.8018 80.8039 61.0937C78.5092 62.3856 78.0585 65.8135 79.7973 68.7502C81.5361 71.687 84.8058 73.0203 87.1006 71.7284Z" fill="white"/>
<path d="M39.9537 173.668C38.1903 171.734 34.6743 172.009 32.1004 174.282C29.5266 176.555 28.8696 179.965 30.633 181.899C32.3964 183.832 35.9124 183.557 38.4863 181.284C41.0602 179.011 41.7171 175.601 39.9537 173.668Z" fill="white"/>
</g>
<defs>
<clipPath id="clip0_526_1894">
<rect width="215" height="200" fill="white"/>
</clipPath>
</defs>
</svg>
