<svg width="264" height="280" viewBox="0 0 264 280" fill="none" xmlns="http://www.w3.org/2000/svg">
<path d="M86.6236 262.95L96.6843 280H165.118L175.178 262.95C175.178 262.95 190.233 261.879 200.441 228.023C202.932 228.845 205.54 229.265 208.165 229.265H209.666C221.965 228.583 234.461 219.401 239.873 206.93C245.9 193.047 244.792 177.483 237.167 169.981C232.247 165.109 224.868 163.989 217.045 167.277C214.282 168.458 211.595 169.808 209.002 171.32C209.395 163.599 209.616 155.196 209.616 146.087H52.1855C52.1855 260.515 86.6236 262.95 86.6236 262.95ZM221.916 178.433C226.466 176.508 227.967 177.994 228.508 178.433C231.928 181.818 232.813 192.316 228.508 202.01C225.015 210.121 216.603 216.624 208.829 216.965C206.949 217.089 205.065 216.789 203.319 216.088C205.372 206.326 206.843 196.452 207.722 186.519C212.112 183.274 216.877 180.56 221.916 178.433Z" fill="white"/>
</svg>
