<svg width="280" height="280" viewBox="0 0 280 280" fill="none" xmlns="http://www.w3.org/2000/svg">
<path d="M92.6236 262.95L102.684 280H171.118L181.178 262.95C181.178 262.95 196.233 261.879 206.441 228.023C208.932 228.845 211.54 229.265 214.165 229.265H215.666C227.965 228.583 240.461 219.401 245.873 206.93C251.9 193.047 250.792 177.483 243.167 169.981C238.247 165.109 230.868 163.989 223.045 167.277C220.282 168.458 217.595 169.808 215.002 171.32C215.395 163.599 215.616 155.196 215.616 146.087H58.1855C58.1855 260.515 92.6236 262.95 92.6236 262.95ZM227.916 178.433C232.466 176.508 233.967 177.994 234.508 178.433C237.928 181.818 238.813 192.316 234.508 202.01C231.015 210.121 222.603 216.624 214.829 216.965C212.949 217.089 211.065 216.789 209.319 216.088C211.372 206.326 212.843 196.452 213.722 186.519C218.112 183.274 222.877 180.56 227.916 178.433Z" fill="white"/>
</svg>
