<svg width="264" height="281" viewBox="0 0 264 281" fill="none" xmlns="http://www.w3.org/2000/svg">
<g clip-path="url(#clip0_396_17250)">
<path d="M191.493 194.901L212.428 31.7653H54.9967L60.1934 72.2377H59.9469C45.4401 66.3512 36.7952 72.1157 32.8544 76.0726C23.0026 86.2579 21.7468 106.946 30.0469 125.314C37.4358 141.605 54.0112 153.72 70.7593 155.21L75.8578 194.999L117.728 224.651V262.95L69.8727 272.109V281H197.404V272.109L149.549 262.95V224.651L191.493 194.901ZM41.2532 120.209C35.2436 106.897 35.4408 90.8985 41.6966 84.4747C42.805 83.3267 46.2284 79.8097 55.1689 83.4491C57.4841 84.3772 59.7254 85.4517 61.9174 86.5508L69.1093 142.582C63.0624 141.214 57.4139 138.484 52.6007 134.605C47.7876 130.725 43.9387 125.799 41.3518 120.209H41.2532Z" fill="white"/>
</g>
<defs>
<clipPath id="clip0_396_17250">
<rect width="264" height="281" fill="white"/>
</clipPath>
</defs>
</svg>
