<svg width="280" height="280" viewBox="0 0 280 280" fill="none" xmlns="http://www.w3.org/2000/svg">
<g clip-path="url(#clip0_396_17250)">
<path d="M202.935 193.901L223.87 30.7653H66.4381L71.6348 71.2377H71.3883C56.8815 65.3512 48.2366 71.1157 44.2958 75.0726C34.444 85.2579 33.1882 105.946 41.4883 124.314C48.8772 140.605 65.4526 152.72 82.2007 154.21L87.2992 193.999L129.169 223.651V261.95L81.3141 271.109V280H208.846V271.109L160.991 261.95V223.651L202.935 193.901ZM52.6946 119.209C46.685 105.897 46.8822 89.8985 53.1381 83.4747C54.2464 82.3267 57.6698 78.8097 66.6103 82.4491C68.9255 83.3772 71.1668 84.4517 73.3588 85.5508L80.5507 141.582C74.5038 140.214 68.8553 137.484 64.0422 133.605C59.229 129.725 55.3801 124.799 52.7932 119.209H52.6946Z" fill="white"/>
</g>
<defs>
<clipPath id="clip0_396_17250">
<rect width="280" height="280" fill="white"/>
</clipPath>
</defs>
</svg>
