<svg width="280" height="280" viewBox="0 0 280 280" fill="none" xmlns="http://www.w3.org/2000/svg">
<g clip-path="url(#clip0_396_17248)">
<path d="M230.452 144.039C227.091 145.507 223.806 147.144 220.611 148.943C217.219 133.33 212.274 118.093 205.849 103.459H68.0718C68.0718 103.459 4.10391 240.769 109.897 280H164.024C194.458 268.721 210.769 249.326 218.716 227.43C235.299 226.498 251.955 214.067 259.237 197.173C267.233 178.587 265.806 157.157 255.941 147.324C252.324 143.622 244.033 138.228 230.452 144.039ZM248.092 192.367C245.739 197.737 242.215 202.516 237.776 206.359C233.337 210.201 228.095 213.01 222.431 214.582C225.764 197.164 225.931 179.292 222.923 161.816C226.856 159.348 230.968 157.176 235.225 155.318C243.221 151.91 246.321 154.999 247.354 156.029C252.89 161.521 254.464 177.434 248.043 192.367H248.092Z" fill="white"/>
</g>
<defs>
<clipPath id="clip0_396_17248">
<rect width="280" height="280" fill="white"/>
</clipPath>
</defs>
</svg>
