<svg width="264" height="281" viewBox="0 0 264 281" fill="none" xmlns="http://www.w3.org/2000/svg">
<path d="M221.452 145.039C218.091 146.507 214.806 148.144 211.611 149.943C208.219 134.33 203.274 119.093 196.849 104.459H59.0718C59.0718 104.459 -4.89609 241.769 100.897 281H155.024C185.458 269.721 201.769 250.326 209.716 228.43C226.299 227.498 242.955 215.067 250.237 198.173C258.233 179.587 256.806 158.157 246.941 148.324C243.324 144.622 235.033 139.228 221.452 145.039ZM239.092 193.367C236.739 198.737 233.215 203.516 228.776 207.359C224.337 211.201 219.095 214.01 213.431 215.582C216.764 198.164 216.931 180.292 213.923 162.816C217.856 160.348 221.968 158.176 226.225 156.318C234.221 152.91 237.321 155.999 238.354 157.029C243.89 162.521 245.464 178.434 239.043 193.367H239.092Z" fill="white"/>
</svg>
