<svg width="180" height="180" viewBox="0 0 180 180" fill="none" xmlns="http://www.w3.org/2000/svg">
<g clip-path="url(#clip0_874_2613)">
<rect width="180" height="180" fill="#242320"/>
<path fill-rule="evenodd" clip-rule="evenodd" d="M159.718 40.9305C138.645 29.8327 118.515 39.9713 105.089 52.0678C105.669 42.654 103.848 31.6892 94.8431 27.7601C80.0527 21.3069 57.5768 37.0872 62.2984 61.2799L55.6553 58.6316C54.6057 49.1361 55.0846 36.0472 61.6644 27.906C57.0137 30.8255 49.9929 40.7635 54.5218 58.7412C54.3867 58.7843 54.252 58.8341 54.1182 58.8908C50.388 49.1266 42.3296 33.9899 32.0814 31.9094C37.1863 36.0109 48.0886 46.7453 53.8979 58.9912C50.3723 60.7097 47.7603 67.5157 58.1299 85.367C69.9948 105.792 129.77 114.508 158.174 116.312C154.947 109.673 141.471 99.3648 129.556 91.311C153.844 85.0756 189.057 56.3817 159.718 40.9305Z" fill="#969696"/>
<path fill-rule="evenodd" clip-rule="evenodd" d="M29.041 140.343C35.1187 132.908 44.1894 133.514 51.0793 135.901C49.3821 132.493 48.3316 128.132 51.0569 125.257C55.5329 120.535 66.3631 122.87 68.4187 132.603L70.4685 130.575C69.3633 126.881 67.1248 122.092 63.3998 120.1C65.5863 120.454 69.7579 123.045 70.9067 130.438C70.9636 130.433 71.0215 130.43 71.0801 130.43C70.9279 126.215 71.5371 119.324 75.0149 116.941C73.7651 119.267 71.4068 124.969 71.1777 130.433C72.7574 130.518 74.7988 132.637 73.7588 140.901C72.5688 150.356 51.7452 162.985 41.4822 168.117C41.6353 165.143 45.0163 159.195 48.1725 154.33C38.1723 155.827 20.5793 150.694 29.041 140.343Z" fill="#D9D9D9"/>
<path d="M40.8877 74.1512L37.1853 98.7152L40.1757 98.8932L41.9201 88.0708L44.9461 87.8572L46.9041 98.7152L49.2893 98.9644L44.8393 74.1512H40.8877ZM42.2049 86.5044L43.4153 79.4912L44.6969 86.3264L42.2049 86.5044ZM52.428 99.178L63.286 98.7864L67.9852 93.2328L68.5192 81.9832L62.7164 74.8988L51.9296 74.5072L52.428 99.178ZM63.6776 91.702L61.0432 95.7248L55.6676 95.9384L55.988 77.3908L60.7584 77.2484L64.354 83.2292L63.6776 91.702ZM79.3224 98.9288L86.656 74.8632L81.7076 74.5072L77.7204 94.1228L73.0924 74.8632L68.856 74.6852L75.7268 99.0356L79.3224 98.9288ZM91.3674 74.1512L87.665 98.7152L90.6554 98.8932L92.3998 88.0708L95.4258 87.8572L97.3838 98.7152L99.769 98.9644L95.319 74.1512H91.3674ZM92.6846 86.5044L93.895 79.4912L95.1766 86.3264L92.6846 86.5044ZM116.293 74.614L112.342 74.436L113.018 92.058L106.218 74.436H102.409L102.765 99.0356L106.112 98.9644L105.578 79.9896L112.876 98.9644H115.688L116.293 74.614ZM130.916 96.0452L124.615 96.4368L122.835 85.294L124.295 78.5656L130.81 77.7112L130.881 74.0444L122.906 74.97L119.489 86.184L122.444 99.2848L131.308 99.0712L130.916 96.0452ZM142.432 74.5072L133.212 74.7208L133.817 99H143.037L143.251 96.1164L136.095 96.508L136.024 85.65L140.438 85.4008L140.082 83.4428L135.988 83.9412L135.953 77.2484L142.574 77.7468L142.432 74.5072Z" fill="white"/>
</g>
<defs>
<clipPath id="clip0_874_2613">
<rect width="180" height="180" fill="white"/>
</clipPath>
</defs>
</svg>
