<svg width="180" height="180" viewBox="0 0 180 180" fill="none" xmlns="http://www.w3.org/2000/svg">
<g clip-path="url(#clip0_874_2613)">
<rect width="180" height="180" fill="#242320"/>
<path fill-rule="evenodd" clip-rule="evenodd" d="M159.718 40.9305C138.645 29.8327 118.515 39.9713 105.089 52.0678C105.669 42.654 103.848 31.6892 94.8431 27.7601C80.0527 21.3069 57.5768 37.0872 62.2984 61.2799L55.6553 58.6316C54.6057 49.1361 55.0846 36.0472 61.6644 27.906C57.0137 30.8255 49.9929 40.7635 54.5218 58.7412C54.3867 58.7843 54.252 58.8341 54.1182 58.8908C50.388 49.1266 42.3296 33.9899 32.0814 31.9094C37.1863 36.0109 48.0886 46.7453 53.8979 58.9912C50.3723 60.7097 47.7603 67.5157 58.1299 85.367C69.9948 105.792 129.77 114.508 158.174 116.312C154.947 109.673 141.471 99.3648 129.556 91.311C153.844 85.0756 189.057 56.3817 159.718 40.9305Z" fill="#969696"/>
<path fill-rule="evenodd" clip-rule="evenodd" d="M29.041 140.343C35.1187 132.908 44.1894 133.514 51.0793 135.901C49.3821 132.493 48.3316 128.132 51.0569 125.257C55.5329 120.535 66.3631 122.87 68.4187 132.603L70.4685 130.575C69.3633 126.881 67.1248 122.092 63.3998 120.1C65.5863 120.454 69.7579 123.045 70.9067 130.438C70.9636 130.433 71.0215 130.43 71.0801 130.43C70.9279 126.215 71.5371 119.324 75.0149 116.941C73.7651 119.267 71.4068 124.969 71.1777 130.433C72.7574 130.518 74.7988 132.637 73.7588 140.901C72.5688 150.356 51.7452 162.985 41.4822 168.117C41.6353 165.143 45.0163 159.195 48.1725 154.33C38.1723 155.827 20.5793 150.694 29.041 140.343Z" fill="#D9D9D9"/>
<path d="M25.6796 88.1776C30.3788 87.43 31.6604 83.6208 31.6604 80.4524C31.6604 77.3908 30.45 74.5072 25.5372 74.5072H23.7216L22.8316 75.7176L22.796 99L25.9288 98.6796L25.6796 88.1776ZM29.3108 80.8796C29.3108 83.4784 28.0292 85.4364 25.644 86.1128L25.5372 76.7144C28.1004 76.9636 29.3108 78.4944 29.3108 80.8796ZM37.4445 88.5692L41.2893 99.178L43.8169 99L39.6517 88.3556L42.0013 88.32L43.8169 85.8636V77.5688L41.6453 74.614H33.9557V99H36.7325L36.4121 88.6404L37.4445 88.5692ZM35.9849 76.7856H39.9365L41.5385 78.6724L41.4317 84.5108L40.0789 85.8636L36.3053 86.006L35.9849 76.7856ZM56.3523 74.5072L47.1319 74.7208L47.7371 99H56.9575L57.1711 96.1164L50.0155 96.508L49.9443 85.65L54.3587 85.4008L54.0027 83.4428L49.9087 83.9412L49.8731 77.2484L56.4947 77.7468L56.3523 74.5072ZM69.5866 77.5688L67.3794 74.5784H59.3694V99H62.1106L61.7546 88.6404L67.3794 88.4624L69.551 85.828L69.5866 77.5688ZM66.8098 84.5464L65.457 85.828L61.6834 85.9704L61.363 76.8212H65.3146L66.9166 78.6724L66.8098 84.5464ZM73.9151 74.1512L70.2127 98.7152L73.2031 98.8932L74.9475 88.0708L77.9735 87.8572L79.9315 98.7152L82.3167 98.9644L77.8667 74.1512H73.9151ZM75.2323 86.5044L76.4427 79.4912L77.7243 86.3264L75.2323 86.5044ZM91.5699 74.4716L87.9387 83.5852L83.5955 74.614L80.5695 74.792L86.6927 86.8248L86.8351 98.9644H90.5375L90.1815 86.896L95.3079 74.7208L91.5699 74.4716ZM112.523 74.258L108.714 74.6852L105.617 83.87L101.843 74.5072L97.6778 74.6496L96.503 98.9644L99.9206 99.1424L99.9562 79.1352L103.552 87.8928L106.186 88.2132L109.639 79.6692L109.924 98.8932C109.924 98.8932 113.093 98.8932 113.662 98.8576L112.523 74.258ZM125.849 74.5072L116.628 74.7208L117.234 99H126.454L126.668 96.1164L119.512 96.508L119.441 85.65L123.855 85.4008L123.499 83.4428L119.405 83.9412L119.37 77.2484L125.991 77.7468L125.849 74.5072ZM142.75 74.614L138.798 74.436L139.475 92.058L132.675 74.436H128.866L129.222 99.0356L132.568 98.9644L132.034 79.9896L139.332 98.9644H142.145L142.75 74.614ZM159.224 74.1868L145.091 75.0056L145.234 76.9992H150.68L150.218 99.2492L153.279 98.822L154.347 76.9992L159.082 77.0704L159.224 74.1868Z" fill="white"/>
</g>
<defs>
<clipPath id="clip0_874_2613">
<rect width="180" height="180" fill="white"/>
</clipPath>
</defs>
</svg>
