<svg width="180" height="180" viewBox="0 0 180 180" fill="none" xmlns="http://www.w3.org/2000/svg">
<g clip-path="url(#clip0_873_2150)">
<rect width="180" height="180" fill="#4191CC"/>
<path d="M103.179 158.856L25.0117 37.4918C20.5776 30.6073 24.1894 21.4019 32.1221 19.3695L68.9023 9.94653C73.5182 8.76394 78.3965 10.4245 81.3323 14.1776L157.762 111.887C161.58 116.768 161.054 123.753 156.548 128.006L121.504 161.085C116.044 166.239 107.244 165.169 103.179 158.856Z" fill="#FCD07B"/>
<path d="M83.5 120L49.5 68L103.5 50L133.5 87.5L83.5 120Z" fill="#E6B173"/>
<circle cx="41.5" cy="27" r="3" fill="#EEB572"/>
<circle cx="104.5" cy="119" r="3" fill="#EEB572"/>
<circle cx="52.5" cy="42" r="3" fill="#EEB572"/>
<circle cx="119.5" cy="140" r="3" fill="#EEB572"/>
<circle cx="65.5" cy="21" r="3" fill="#EEB572"/>
<circle cx="128.5" cy="104" r="3" fill="#EEB572"/>
<circle cx="76.5" cy="36" r="3" fill="#EEB572"/>
<circle cx="139.5" cy="119" r="3" fill="#EEB572"/>
<path d="M24.264 52.3592L20.1456 79.6832L23.472 79.8812L25.4124 67.8428L28.7784 67.6052L30.9564 79.6832L33.6096 79.9604L28.6596 52.3592H24.264ZM25.7292 66.1004L27.0756 58.2992L28.5012 65.9024L25.7292 66.1004ZM37.1009 80.198L49.1789 79.7624L54.4061 73.5848L55.0001 61.0712L48.5453 53.1908L36.5465 52.7552L37.1009 80.198ZM49.6145 71.882L46.6841 76.3568L40.7045 76.5944L41.0609 55.9628L46.3673 55.8044L50.3669 62.4572L49.6145 71.882ZM67.0171 79.9208L75.1747 53.1512L69.6703 52.7552L65.2351 74.5748L60.0871 53.1512L55.3747 52.9532L63.0175 80.0396L67.0171 79.9208ZM88.3751 52.7552L78.1187 52.9928L78.7919 80H89.0483L89.2859 76.7924L81.3263 77.228L81.2471 65.15L86.1575 64.8728L85.7615 62.6948L81.2075 63.2492L81.1679 55.8044L88.5335 56.3588L88.3751 52.7552ZM107.175 52.874L102.78 52.676L103.532 72.278L95.9684 52.676H91.7312L92.1272 80.0396L95.8496 79.9604L95.2556 58.8536L103.374 79.9604H106.502L107.175 52.874ZM125.501 52.3988L109.78 53.3096L109.938 55.5272H115.997L115.482 80.2772L118.888 79.802L120.076 55.5272L125.342 55.6064L125.501 52.3988ZM140.281 71.6444L138.42 76.0004L133.351 76.436L130.54 71.7236L131.292 52.6364L127.332 52.3988L126.936 74.0204L130.738 79.9208L140.361 80.1584L143.925 74.456L144.637 52.6364L139.806 52.8344L140.281 71.6444ZM152.189 68.3972L156.466 80.198L159.277 80L154.644 68.1596L157.258 68.12L159.277 65.3876V56.1608L156.862 52.874H148.308V80H151.397L151.041 68.4764L152.189 68.3972ZM150.565 55.2896H154.961L156.743 57.3884L156.624 63.8828L155.119 65.3876L150.922 65.546L150.565 55.2896ZM79.5193 92.7552L69.2629 92.9928L69.9361 120H80.1925L80.4301 116.792L72.4705 117.228L72.3913 105.15L77.3017 104.873L76.9057 102.695L72.3517 103.249L72.3121 95.8044L79.6777 96.3588L79.5193 92.7552ZM87.3502 94.9728L92.3002 97.4676L94.4782 94.7352L90.241 92.3196L83.5882 93.6264L82.0834 101.23L92.5774 111.09L91.1122 117.268L86.5186 116.832L84.0634 113.149L81.6478 116.159L84.895 119.921L93.5674 120.04L96.4978 109.862L85.3306 99.5664L87.3502 94.9728ZM103.128 94.9728L108.078 97.4676L110.256 94.7352L106.019 92.3196L99.3663 93.6264L97.8615 101.23L108.355 111.09L106.89 117.268L102.297 116.832L99.8415 113.149L97.4259 116.159L100.673 119.921L109.345 120.04L112.276 109.862L101.109 99.5664L103.128 94.9728Z" fill="white"/>
</g>
<defs>
<clipPath id="clip0_873_2150">
<rect width="180" height="180" fill="white"/>
</clipPath>
</defs>
</svg>
