<svg width="180" height="180" viewBox="0 0 180 180" fill="none" xmlns="http://www.w3.org/2000/svg">
<g clip-path="url(#clip0_874_2710)">
<rect width="180" height="180" fill="#D76950"/>
<path d="M57.5 164.5L174.5 105L93.5 90.5L57.5 164.5Z" fill="#FFBE3F"/>
<path d="M128 15L11 74.5L92 89L128 15Z" fill="#FFBE3F"/>
<path d="M56 160.5L13 77.5L90.5 91L56 160.5Z" fill="#E3A223"/>
<path d="M131.5 18L174.5 101L97 87.5L131.5 18Z" fill="#E3A223"/>
<path d="M50.7694 86.4688L54.543 99H58.5302L51.0186 74.2936H47.3874L43.0086 99H45.2514L47.1382 86.4332L50.7694 86.4688ZM48.3842 78.1028L50.271 84.8668L47.3874 84.76L48.3842 78.1028ZM68.1374 76.9636L68.4222 74.5072L60.0918 74.6852L60.3054 76.5364L62.655 76.6788L63.1178 97.2556L60.7682 97.398L61.053 99.1068L67.817 99.0356L68.2086 96.864L65.5742 97.0776L65.9658 76.8568L68.1374 76.9636ZM75.1131 88.5692L78.9579 99.178L81.4855 99L77.3203 88.3556L79.6699 88.32L81.4855 85.8636V77.5688L79.3139 74.614H71.6243V99H74.4011L74.0807 88.6404L75.1131 88.5692ZM73.6535 76.7856H77.6051L79.2071 78.6724L79.1003 84.5108L77.7475 85.8636L73.9739 86.006L73.6535 76.7856ZM99.5033 74.258L95.6941 74.6852L92.5969 83.87L88.8233 74.5072L84.6581 74.6496L83.4833 98.9644L86.9009 99.1424L86.9365 79.1352L90.5321 87.8928L93.1665 88.2132L96.6197 79.6692L96.9045 98.8932C96.9045 98.8932 100.073 98.8932 100.642 98.8576L99.5033 74.258ZM105.673 74.1512L101.971 98.7152L104.961 98.8932L106.706 88.0708L109.732 87.8572L111.69 98.7152L114.075 98.9644L109.625 74.1512H105.673ZM106.991 86.5044L108.201 79.4912L109.483 86.3264L106.991 86.5044ZM123.693 76.9636L123.978 74.5072L115.647 74.6852L115.861 76.5364L118.21 76.6788L118.673 97.2556L116.324 97.398L116.608 99.1068L123.372 99.0356L123.764 96.864L121.13 97.0776L121.521 76.8568L123.693 76.9636ZM137.077 95.3688L130.313 96.2232L131.06 74.7564L127.18 74.4004L127.571 99.1424L137.504 99.2492L137.077 95.3688Z" fill="white"/>
</g>
<defs>
<clipPath id="clip0_874_2710">
<rect width="180" height="180" fill="white"/>
</clipPath>
</defs>
</svg>
