<svg width="180" height="180" viewBox="0 0 180 180" fill="none" xmlns="http://www.w3.org/2000/svg">
<g clip-path="url(#clip0_874_2725)">
<rect width="180" height="180" fill="#3EC26B"/>
<path d="M121.591 111.593C152.845 100.811 182.941 105.866 193.723 137.12C204.505 168.374 187.909 202.452 156.654 213.234C125.4 224.015 91.3225 207.419 80.5406 176.165C69.7587 144.91 90.3365 122.375 121.591 111.593Z" fill="#46932B"/>
<path d="M75.4598 22.0737C90.4834 32.6077 98.0129 47.7784 87.4789 62.802C76.9448 77.8256 56.2262 81.4651 41.2026 70.931C26.179 60.397 22.5395 39.6784 33.0736 24.6548C43.6077 9.63118 60.4362 11.5396 75.4598 22.0737Z" fill="#46932B"/>
<path d="M140.245 82.7143C129.412 83.0571 123.968 99.7143 122.6 108C118.661 99.0857 124.241 80.2857 127.524 72L140.245 82.7143Z" fill="#D56628"/>
<path d="M94.3463 21.1907C90.6258 16.3797 81.377 19.3096 77.2177 21.3759C79.9109 16.6943 90.1639 13.1315 94.9537 11.9353L94.3463 21.1907Z" fill="#D56628"/>
<path d="M62.9148 56.1512L59.2124 80.7152L62.2028 80.8932L63.9472 70.0708L66.9732 69.8572L68.9312 80.7152L71.3164 80.9644L66.8664 56.1512H62.9148ZM64.232 68.5044L65.4424 61.4912L66.724 68.3264L64.232 68.5044ZM84.1738 59.5688L81.9666 56.5784H73.9566V81H76.6978L76.3418 70.6404L81.9666 70.4624L84.1382 67.828L84.1738 59.5688ZM81.397 66.5464L80.0442 67.828L76.2706 67.9704L75.9502 58.8212H79.9018L81.5038 60.6724L81.397 66.5464ZM96.6547 59.5688L94.4475 56.5784H86.4375V81H89.1787L88.8227 70.6404L94.4475 70.4624L96.6191 67.828L96.6547 59.5688ZM93.8779 66.5464L92.5251 67.828L88.7515 67.9704L88.4311 58.8212H92.3827L93.9847 60.6724L93.8779 66.5464ZM108.815 77.3688L102.051 78.2232L102.799 56.7564L98.9184 56.4004L99.31 81.1424L109.242 81.2492L108.815 77.3688ZM120.585 56.5072L111.364 56.7208L111.97 81H121.19L121.404 78.1164L114.248 78.508L114.177 67.65L118.591 67.4008L118.235 65.4428L114.141 65.9412L114.106 59.2484L120.727 59.7468L120.585 56.5072ZM70.5966 106.569L74.4414 117.178L76.969 117L72.8038 106.356L75.1534 106.32L76.969 103.864V95.5688L74.7974 92.614H67.1078V117H69.8846L69.5642 106.64L70.5966 106.569ZM69.137 94.7856H73.0886L74.6906 96.6724L74.5838 102.511L73.231 103.864L69.4574 104.006L69.137 94.7856ZM91.32 109.488L89.6468 113.404L85.09 113.796L82.5624 109.56L83.2388 92.4004L79.6788 92.1868L79.3228 111.624L82.7404 116.929L91.3912 117.142L94.5952 112.016L95.236 92.4004L90.8928 92.5784L91.32 109.488ZM113.239 92.258L109.43 92.6852L106.332 101.87L102.559 92.5072L98.3935 92.6496L97.2187 116.964L100.636 117.142L100.672 97.1352L104.268 105.893L106.902 106.213L110.355 97.6692L110.64 116.893C110.64 116.893 113.808 116.893 114.378 116.858L113.239 92.258Z" fill="white"/>
</g>
<defs>
<clipPath id="clip0_874_2725">
<rect width="180" height="180" fill="white"/>
</clipPath>
</defs>
</svg>
