<svg width="180" height="180" viewBox="0 0 180 180" fill="none" xmlns="http://www.w3.org/2000/svg">
<g clip-path="url(#clip0_873_2011)">
<rect width="180" height="180" fill="#566B1A"/>
<path d="M116.551 33.1942L104.296 60.0283L96.5642 56.4972L105.911 36.0305L90.2506 23.3817L95.6403 17.598L108.819 29.6631L163.214 17.6769L168.672 20.1694L116.551 33.1942Z" fill="#44251F"/>
<path d="M147.662 123.082C131.372 158.751 89.252 174.461 53.5835 158.171C17.9149 141.881 2.20519 99.7611 18.4948 64.0925C34.7844 28.4239 68.3887 31.3616 104.057 47.6512C139.726 63.9409 163.952 87.4139 147.662 123.082Z" fill="#26871B"/>
<path d="M36.5269 158.04C23.3269 149.24 20.6935 129.707 21.0269 121.04C25.5269 101.54 39 122.629 41.5 130.629C44 138.629 53.0269 169.04 36.5269 158.04Z" fill="#59B04F"/>
<path d="M56.8614 52.3592L52.743 79.6832L56.0694 79.8812L58.0098 67.8428L61.3758 67.6052L63.5538 79.6832L66.207 79.9604L61.257 52.3592H56.8614ZM58.3266 66.1004L59.673 58.2992L61.0986 65.9024L58.3266 66.1004ZM80.5091 56.1608L78.0539 52.8344H69.1439V80H72.1931L71.7971 68.4764L78.0539 68.2784L80.4695 65.348L80.5091 56.1608ZM77.4203 63.9224L75.9155 65.348L71.7179 65.5064L71.3615 55.3292H75.7571L77.5391 57.3884L77.4203 63.9224ZM94.3923 56.1608L91.9371 52.8344H83.0271V80H86.0763L85.6803 68.4764L91.9371 68.2784L94.3527 65.348L94.3923 56.1608ZM91.3035 63.9224L89.7987 65.348L85.6011 65.5064L85.2447 55.3292H89.6403L91.4223 57.3884L91.3035 63.9224ZM107.919 75.9608L100.395 76.9112L101.227 53.0324L96.9103 52.6364L97.3459 80.1584L108.394 80.2772L107.919 75.9608ZM121.011 52.7552L110.755 52.9928L111.428 80H121.684L121.922 76.7924L113.962 77.228L113.883 65.15L118.794 64.8728L118.398 62.6948L113.844 63.2492L113.804 55.8044L121.17 56.3588L121.011 52.7552ZM54.062 92.6364L53.2304 120H63.0512L65.9816 117.703V106.892L62.6552 104.358L65.744 96.8736L63.2888 92.7552L54.062 92.6364ZM63.8432 108.437L63.6452 115.802L61.3088 117.505L57.5072 117.149L57.5468 106.892L61.19 106.298L63.8432 108.437ZM59.7644 104.239L57.5468 104.675L57.5864 95.1312L61.1504 95.0916L62.6156 97.2696L59.7644 104.239ZM80.4814 115.961L72.9574 116.911L73.789 93.0324L69.4726 92.6364L69.9082 120.158L80.9566 120.277L80.4814 115.961ZM91.0788 95.4876L91.3956 92.7552L82.1292 92.9532L82.3668 95.0124L84.9804 95.1708L85.4952 118.06L82.8816 118.218L83.1984 120.119L90.7224 120.04L91.158 117.624L88.2276 117.862L88.6632 95.3688L91.0788 95.4876ZM97.3826 94.9728L102.333 97.4676L104.511 94.7352L100.273 92.3196L93.6206 93.6264L92.1158 101.23L102.61 111.09L101.145 117.268L96.551 116.832L94.0958 113.149L91.6802 116.159L94.9274 119.921L103.6 120.04L106.53 109.862L95.363 99.5664L97.3826 94.9728ZM113.161 94.9728L118.111 97.4676L120.289 94.7352L116.052 92.3196L109.399 93.6264L107.894 101.23L118.388 111.09L116.923 117.268L112.329 116.832L109.874 113.149L107.458 116.159L110.706 119.921L119.378 120.04L122.308 109.862L111.141 99.5664L113.161 94.9728Z" fill="white"/>
</g>
<defs>
<clipPath id="clip0_873_2011">
<rect width="180" height="180" fill="white"/>
</clipPath>
</defs>
</svg>
