<svg width="180" height="180" viewBox="0 0 180 180" fill="none" xmlns="http://www.w3.org/2000/svg">
<g clip-path="url(#clip0_874_2660)">
<rect width="180" height="180" fill="#478358"/>
<path d="M73.1959 51.7006C110.467 38.8432 146.355 44.8709 159.213 82.1415C172.07 119.412 152.279 160.049 115.008 172.906C77.7378 185.764 37.101 165.973 24.2437 128.702C11.3864 91.4314 35.9252 64.5579 73.1959 51.7006Z" fill="#69C04A"/>
<path d="M59.8614 55.3592L55.743 82.6832L59.0694 82.8812L61.0098 70.8428L64.3758 70.6052L66.5538 82.6832L69.207 82.9604L64.257 55.3592H59.8614ZM61.3266 69.1004L62.673 61.2992L64.0986 68.9024L61.3266 69.1004ZM83.5091 59.1608L81.0539 55.8344H72.1439V83H75.1931L74.7971 71.4764L81.0539 71.2784L83.4695 68.348L83.5091 59.1608ZM80.4203 66.9224L78.9155 68.348L74.7179 68.5064L74.3615 58.3292H78.7571L80.5391 60.3884L80.4203 66.9224ZM97.3923 59.1608L94.9371 55.8344H86.0271V83H89.0763L88.6803 71.4764L94.9371 71.2784L97.3527 68.348L97.3923 59.1608ZM94.3035 66.9224L92.7987 68.348L88.6011 68.5064L88.2447 58.3292H92.6403L94.4223 60.3884L94.3035 66.9224ZM110.919 78.9608L103.395 79.9112L104.227 56.0324L99.9103 55.6364L100.346 83.1584L111.394 83.2772L110.919 78.9608ZM124.011 55.7552L113.755 55.9928L114.428 83H124.684L124.922 79.7924L116.962 80.228L116.883 68.15L121.794 67.8728L121.398 65.6948L116.844 66.2492L116.804 58.8044L124.17 59.3588L124.011 55.7552ZM62.0789 95.3988L46.3577 96.3096L46.5161 98.5272H52.5749L52.0601 123.277L55.4657 122.802L56.6537 98.5272L61.9205 98.6064L62.0789 95.3988ZM74.84 95.7552L64.5836 95.9928L65.2568 123H75.5132L75.7508 119.792L67.7912 120.228L67.712 108.15L72.6224 107.873L72.2264 105.695L67.6724 106.249L67.6328 98.8044L74.9984 99.3588L74.84 95.7552ZM78.7505 123.198L90.8285 122.762L96.0557 116.585L96.6497 104.071L90.1949 96.1908L78.1961 95.7552L78.7505 123.198ZM91.2641 114.882L88.3337 119.357L82.3541 119.594L82.7105 98.9628L88.0169 98.8044L92.0165 105.457L91.2641 114.882ZM100.716 123.198L112.794 122.762L118.021 116.585L118.615 104.071L112.16 96.1908L100.162 95.7552L100.716 123.198ZM113.23 114.882L110.299 119.357L104.32 119.594L104.676 98.9628L109.982 98.8044L113.982 105.457L113.23 114.882ZM129.483 95.7156L125.444 105.853L120.613 95.874L117.247 96.072L124.058 109.457L124.217 122.96H128.335L127.939 109.536L133.641 95.9928L129.483 95.7156Z" fill="white"/>
<path d="M96.0001 17.5C82.8001 17.9 76.1667 37.3333 74.5001 47C69.7001 36.6 76.5001 14.6667 80.5001 5L96.0001 17.5Z" fill="#FF843F"/>
</g>
<defs>
<clipPath id="clip0_874_2660">
<rect width="180" height="180" fill="white"/>
</clipPath>
</defs>
</svg>
