<svg width="180" height="180" viewBox="0 0 180 180" fill="none" xmlns="http://www.w3.org/2000/svg">
<g clip-path="url(#clip0_874_2431)">
<rect width="180" height="180" fill="#0A9A3B"/>
<path fill-rule="evenodd" clip-rule="evenodd" d="M77.3322 14.797C84.0719 4.68735 97.7311 1.95552 107.841 8.69528C121.503 17.8035 140.331 35.6068 146.175 59.789C149.27 72.5985 148.549 86.7397 141.904 100.838C135.419 114.598 123.985 126.879 108.049 137.769C78.0823 158.247 61.4552 186.348 57.7876 210.132C54.2345 233.173 62.433 250.238 80.6731 258.464C108.768 271.134 128.724 292.08 142.151 312.215C155.506 332.242 163.202 352.643 166.265 366.311C168.922 378.167 161.465 389.933 149.609 392.59C137.753 395.248 125.988 387.791 123.33 375.935C121.44 367.499 115.874 352.117 105.544 336.626C95.2857 321.243 81.1347 306.939 62.5844 298.573C22.518 280.504 8.42287 241.549 14.3016 203.426C20.066 166.045 44.5965 127.837 83.2251 101.441C94.7274 93.5807 99.8708 86.817 102.103 82.0801C104.176 77.6813 104.312 73.8733 103.406 70.1245C101.247 61.1902 92.6369 51.4408 83.4339 45.3055C73.3243 38.5657 70.5924 24.9066 77.3322 14.797Z" fill="#E6AB9F"/>
<path d="M77.5002 158.5C62.3002 162.9 45.5002 153.333 39.0002 148L33.0002 158.5C31.0002 166.9 57.5002 170 71.0002 170.5L77.5002 158.5Z" fill="#DA9A8D"/>
<path d="M81.5 155C71.5 157.8 52.3333 148.167 44 143L47 139C58.1998 148.6 76.9999 150.333 85 150L81.5 155Z" fill="#DA9A8D"/>
<path d="M110 133.5C100 133.5 84.1668 120.5 77.5002 114L88 107C88 113.4 108 122.667 118 126.5L110 133.5Z" fill="#DA9A8D"/>
<path d="M120.5 122.5C105.3 120.9 95.1667 109.167 92 103.5L94.5 100.5C96.5 105.7 115.667 114 125 117.5L120.5 122.5Z" fill="#DA9A8D"/>
<path d="M140.5 93L104.5 83.5C110.9 73.1 108.833 65.1667 107 62.5L140.5 56.5C146.9 70.5 143.167 86.6667 140.5 93Z" fill="#DA9A8D"/>
<path d="M65.1797 68.4688L68.9533 81H72.9405L65.4289 56.2936H61.7977L57.4189 81H59.6617L61.5485 68.4332L65.1797 68.4688ZM62.7945 60.1028L64.6813 66.8668L61.7977 66.76L62.7945 60.1028ZM85.7874 59.5688L83.5802 56.5784H75.5702V81H78.3114L77.9554 70.6404L83.5802 70.4624L85.7518 67.828L85.7874 59.5688ZM83.0106 66.5464L81.6578 67.828L77.8842 67.9704L77.5638 58.8212H81.5154L83.1174 60.6724L83.0106 66.5464ZM98.2682 59.5688L96.061 56.5784H88.051V81H90.7922L90.4362 70.6404L96.061 70.4624L98.2326 67.828L98.2682 59.5688ZM95.4914 66.5464L94.1386 67.828L90.365 67.9704L90.0446 58.8212H93.9962L95.5982 60.6724L95.4914 66.5464ZM110.429 77.3688L103.665 78.2232L104.412 56.7564L100.532 56.4004L100.923 81.1424L110.856 81.2492L110.429 77.3688ZM122.198 56.5072L112.978 56.7208L113.583 81H122.804L123.017 78.1164L115.862 78.508L115.79 67.65L120.205 67.4008L119.849 65.4428L115.755 65.9412L115.719 59.2484L122.341 59.7468L122.198 56.5072ZM42.2721 94.5008L46.7221 96.7436L48.6801 94.2872L44.8709 92.1156L38.8901 93.2904L37.5373 100.126L46.9713 108.99L45.6541 114.544L41.5245 114.152L39.3173 110.841L37.1457 113.547L40.0649 116.929L47.8613 117.036L50.4957 107.886L40.4565 98.6304L42.2721 94.5008ZM64.5822 109.488L62.909 113.404L58.3522 113.796L55.8246 109.56L56.501 92.4004L52.941 92.1868L52.585 111.624L56.0026 116.929L64.6534 117.142L67.8574 112.016L68.4982 92.4004L64.155 92.5784L64.5822 109.488ZM75.2869 106.569L79.1317 117.178L81.6593 117L77.4941 106.356L79.8437 106.32L81.6593 103.864V95.5688L79.4877 92.614H71.7981V117H74.5749L74.2545 106.64L75.2869 106.569ZM73.8273 94.7856H77.7789L79.3809 96.6724L79.2741 102.511L77.9213 103.864L74.1477 104.006L73.8273 94.7856ZM95.1915 95.5688L92.9843 92.5784H84.9743V117H87.7155L87.3595 106.64L92.9843 106.462L95.1559 103.828L95.1915 95.5688ZM92.4147 102.546L91.0619 103.828L87.2883 103.97L86.9679 94.8212H90.9195L92.5215 96.6724L92.4147 102.546ZM100.944 106.569L104.789 117.178L107.316 117L103.151 106.356L105.501 106.32L107.316 103.864V95.5688L105.145 92.614H97.4551V117H100.232L99.9115 106.64L100.944 106.569ZM99.4843 94.7856H103.436L105.038 96.6724L104.931 102.511L103.578 103.864L99.8047 104.006L99.4843 94.7856ZM117.609 94.9636L117.894 92.5072L109.563 92.6852L109.777 94.5364L112.127 94.6788L112.589 115.256L110.24 115.398L110.525 117.107L117.289 117.036L117.68 114.864L115.046 115.078L115.437 94.8568L117.609 94.9636ZM123.276 94.5008L127.726 96.7436L129.684 94.2872L125.875 92.1156L119.894 93.2904L118.541 100.126L127.975 108.99L126.658 114.544L122.528 114.152L120.321 110.841L118.15 113.547L121.069 116.929L128.865 117.036L131.5 107.886L121.46 98.6304L123.276 94.5008ZM143.006 92.5072L133.785 92.7208L134.39 117H143.611L143.824 114.116L136.669 114.508L136.598 103.65L141.012 103.401L140.656 101.443L136.562 101.941L136.526 95.2484L143.148 95.7468L143.006 92.5072Z" fill="white"/>
</g>
<defs>
<clipPath id="clip0_874_2431">
<rect width="180" height="180" fill="white"/>
</clipPath>
</defs>
</svg>
