<svg width="180" height="180" viewBox="0 0 180 180" fill="none" xmlns="http://www.w3.org/2000/svg">
<g clip-path="url(#clip0_873_2011)">
<rect width="180" height="180" fill="#566B1A"/>
<path d="M116.551 33.1942L104.296 60.0283L96.5642 56.4972L105.911 36.0305L90.2506 23.3817L95.6403 17.598L108.819 29.6631L163.214 17.6769L168.672 20.1694L116.551 33.1942Z" fill="#44251F"/>
<path d="M147.662 123.082C131.372 158.751 89.252 174.461 53.5835 158.171C17.9149 141.881 2.20519 99.7611 18.4948 64.0925C34.7844 28.4239 68.3887 31.3616 104.057 47.6512C139.726 63.9409 163.952 87.4139 147.662 123.082Z" fill="#26871B"/>
<path d="M36.5269 158.04C23.3269 149.24 20.6935 129.707 21.0269 121.04C25.5269 101.54 39 122.629 41.5 130.629C44 138.629 53.0269 169.04 36.5269 158.04Z" fill="#59B04F"/>
<path d="M59.4809 66.0608L63.6785 80H68.1137L59.7581 52.5176H55.7189L50.8481 80H53.3429L55.4417 66.0212L59.4809 66.0608ZM56.8277 56.7548L58.9265 64.2788L55.7189 64.16L56.8277 56.7548ZM82.404 56.1608L79.9488 52.8344H71.0388V80H74.088L73.692 68.4764L79.9488 68.2784L82.3644 65.348L82.404 56.1608ZM79.3152 63.9224L77.8104 65.348L73.6128 65.5064L73.2564 55.3292H77.652L79.434 57.3884L79.3152 63.9224ZM96.2872 56.1608L93.8321 52.8344H84.9221V80H87.9713L87.5753 68.4764L93.8321 68.2784L96.2476 65.348L96.2872 56.1608ZM93.1985 63.9224L91.6937 65.348L87.4961 65.5064L87.1397 55.3292H91.5353L93.3173 57.3884L93.1985 63.9224ZM109.814 75.9608L102.29 76.9112L103.122 53.0324L98.8052 52.6364L99.2408 80.1584L110.289 80.2772L109.814 75.9608ZM122.906 52.7552L112.65 52.9928L113.323 80H123.579L123.817 76.7924L115.857 77.228L115.778 65.15L120.689 64.8728L120.293 62.6948L115.739 63.2492L115.699 55.8044L123.065 56.3588L122.906 52.7552ZM39.4396 96.1608L36.9844 92.8344H28.0744L28.0744 120H31.1236L30.7276 108.476L36.9844 108.278L39.4 105.348L39.4396 96.1608ZM36.3508 103.922L34.846 105.348L30.6484 105.506L30.292 95.3292H34.6876L36.4696 97.3884L36.3508 103.922ZM52.9664 115.961L45.4424 116.911L46.274 93.0324L41.9576 92.6364L42.3932 120.158L53.4416 120.277L52.9664 115.961ZM66.0585 92.7552L55.8021 92.9928L56.4753 120H66.7317L66.9693 116.792L59.0097 117.228L58.9305 105.15L63.8409 104.873L63.4449 102.695L58.8909 103.249L58.8513 95.8044L66.2169 96.3588L66.0585 92.7552ZM72.9876 92.3592L68.8692 119.683L72.1956 119.881L74.136 107.843L77.502 107.605L79.68 119.683L82.3332 119.96L77.3832 92.3592H72.9876ZM74.4528 106.1L75.7992 98.2992L77.2248 105.902L74.4528 106.1ZM89.7449 94.9728L94.6949 97.4676L96.8729 94.7352L92.6357 92.3196L85.9829 93.6264L84.4781 101.23L94.9721 111.09L93.5069 117.268L88.9133 116.832L86.4581 113.149L84.0425 116.159L87.2897 119.921L95.9621 120.04L98.8925 109.862L87.7253 99.5664L89.7449 94.9728ZM114.562 111.644L112.701 116L107.632 116.436L104.82 111.724L105.573 92.6364L101.613 92.3988L101.217 114.02L105.018 119.921L114.641 120.158L118.205 114.456L118.918 92.6364L114.087 92.8344L114.562 111.644ZM126.469 108.397L130.746 120.198L133.558 120L128.924 108.16L131.538 108.12L133.558 105.388V96.1608L131.142 92.874H122.588V120H125.677L125.321 108.476L126.469 108.397ZM124.846 95.2896H129.241L131.023 97.3884L130.904 103.883L129.4 105.388L125.202 105.546L124.846 95.2896ZM147.501 92.7552L137.245 92.9928L137.918 120H148.175L148.412 116.792L140.453 117.228L140.373 105.15L145.284 104.873L144.888 102.695L140.334 103.249L140.294 95.8044L147.66 96.3588L147.501 92.7552Z" fill="white"/>
</g>
<defs>
<clipPath id="clip0_873_2011">
<rect width="180" height="180" fill="white"/>
</clipPath>
</defs>
</svg>
