<svg width="180" height="180" viewBox="0 0 180 180" fill="none" xmlns="http://www.w3.org/2000/svg">
<g clip-path="url(#clip0_874_2693)">
<rect width="180" height="180" fill="#D3951A"/>
<path fill-rule="evenodd" clip-rule="evenodd" d="M87.0877 15.5L89.5 -12L91.4298 15.5H96V26.5H93V28.5H94C95.6578 48.8912 100.49 80.8091 109.604 110.5H113V120.864C115.257 127.318 117.734 133.58 120.441 139.5H125V148.709C132.318 162.334 141.09 173.363 151.5 179.5H118C115.886 173.725 113.294 165.877 110.548 156.5H68.9524C66.2064 165.877 63.6138 173.725 61.5 179.5H28C38.1742 173.503 46.7833 162.831 54 149.632V139.5H59.0589C61.6773 133.775 64.0795 127.729 66.2767 121.5H66V110.5H69.8962C79.01 80.8091 83.8422 48.8912 85.5 28.5H86V26.5H83V15.5H87.0877ZM80.3153 110.5C85.3305 85.8181 89.2096 58.1126 89.4844 31.5H90.0156C90.2904 58.1126 94.1695 85.8181 99.1847 110.5H80.3153ZM73.6278 139.5C75.0965 133.808 76.5577 127.783 77.9652 121.5H101.535C102.942 127.783 104.404 133.808 105.872 139.5H73.6278Z" fill="#6B291A"/>
<path d="M49.1476 56.1512L45.4452 80.7152L48.4356 80.8932L50.18 70.0708L53.206 69.8572L55.164 80.7152L57.5492 80.9644L53.0992 56.1512H49.1476ZM50.4648 68.5044L51.6752 61.4912L52.9568 68.3264L50.4648 68.5044ZM70.4067 59.5688L68.1995 56.5784H60.1895V81H62.9307L62.5747 70.6404L68.1995 70.4624L70.3711 67.828L70.4067 59.5688ZM67.6299 66.5464L66.2771 67.828L62.5035 67.9704L62.1831 58.8212H66.1347L67.7367 60.6724L67.6299 66.5464ZM76.1591 70.5692L80.0039 81.178L82.5315 81L78.3663 70.3556L80.7159 70.32L82.5315 67.8636V59.5688L80.3599 56.614H72.6703V81H75.4471L75.1267 70.6404L76.1591 70.5692ZM74.6995 58.7856H78.6511L80.2531 60.6724L80.1463 66.5108L78.7935 67.8636L75.0199 68.006L74.6995 58.7856ZM92.8241 58.9636L93.1089 56.5072L84.7785 56.6852L84.9921 58.5364L87.3417 58.6788L87.8045 79.2556L85.4549 79.398L85.7397 81.1068L92.5037 81.0356L92.8953 78.864L90.2609 79.0776L90.6525 58.8568L92.8241 58.9636ZM106.208 77.3688L99.4437 78.2232L100.191 56.7564L96.3109 56.4004L96.7025 81.1424L106.635 81.2492L106.208 77.3688ZM123.696 58.9636L123.981 56.5072L115.65 56.6852L115.864 58.5364L118.214 58.6788L118.676 79.2556L116.327 79.398L116.612 81.1068L123.376 81.0356L123.767 78.864L121.133 79.0776L121.524 58.8568L123.696 58.9636ZM141.067 56.614L137.115 56.436L137.792 74.058L130.992 56.436H127.183L127.539 81.0356L130.885 80.9644L130.351 61.9896L137.649 80.9644H140.462L141.067 56.614ZM71.102 95.5688L68.8948 92.5784H60.8848V117H63.626L63.27 106.64L68.8948 106.462L71.0664 103.828L71.102 95.5688ZM68.3252 102.546L66.9724 103.828L63.1988 103.97L62.8784 94.8212H66.83L68.432 96.6724L68.3252 102.546ZM75.4304 92.1512L71.728 116.715L74.7184 116.893L76.4628 106.071L79.4888 105.857L81.4468 116.715L83.832 116.964L79.382 92.1512H75.4304ZM76.7476 104.504L77.958 97.4912L79.2396 104.326L76.7476 104.504ZM89.9611 106.569L93.8059 117.178L96.3335 117L92.1683 106.356L94.5179 106.32L96.3335 103.864V95.5688L94.1619 92.614H86.4723V117H89.2491L88.9287 106.64L89.9611 106.569ZM88.5015 94.7856H92.4531L94.0551 96.6724L93.9483 102.511L92.5955 103.864L88.8219 104.006L88.5015 94.7856ZM106.626 94.9636L106.911 92.5072L98.5805 92.6852L98.7941 94.5364L101.144 94.6788L101.606 115.256L99.2569 115.398L99.5417 117.107L106.306 117.036L106.697 114.864L104.063 115.078L104.454 94.8568L106.626 94.9636ZM112.293 94.5008L116.743 96.7436L118.701 94.2872L114.892 92.1156L108.911 93.2904L107.558 100.126L116.992 108.99L115.675 114.544L111.546 114.152L109.338 110.841L107.167 113.547L110.086 116.929L117.882 117.036L120.517 107.886L110.478 98.6304L112.293 94.5008Z" fill="white"/>
</g>
<defs>
<clipPath id="clip0_874_2693">
<rect width="180" height="180" fill="white"/>
</clipPath>
</defs>
</svg>
