<svg width="180" height="180" viewBox="0 0 180 180" fill="none" xmlns="http://www.w3.org/2000/svg">
<g clip-path="url(#clip0_874_2693)">
<rect width="180" height="180" fill="#D3951A"/>
<path fill-rule="evenodd" clip-rule="evenodd" d="M87.0877 15.5L89.5 -12L91.4298 15.5H96V26.5H93V28.5H94C95.6578 48.8912 100.49 80.8091 109.604 110.5H113V120.864C115.257 127.318 117.734 133.58 120.441 139.5H125V148.709C132.318 162.334 141.09 173.363 151.5 179.5H118C115.886 173.725 113.294 165.877 110.548 156.5H68.9524C66.2064 165.877 63.6138 173.725 61.5 179.5H28C38.1742 173.503 46.7833 162.831 54 149.632V139.5H59.0589C61.6773 133.775 64.0795 127.729 66.2767 121.5H66V110.5H69.8962C79.01 80.8091 83.8422 48.8912 85.5 28.5H86V26.5H83V15.5H87.0877ZM80.3153 110.5C85.3305 85.8181 89.2096 58.1126 89.4844 31.5H90.0156C90.2904 58.1126 94.1695 85.8181 99.1847 110.5H80.3153ZM73.6278 139.5C75.0965 133.808 76.5577 127.783 77.9652 121.5H101.535C102.942 127.783 104.404 133.808 105.872 139.5H73.6278Z" fill="#6B291A"/>
<path d="M45.167 56.1512L41.4646 80.7152L44.455 80.8932L46.1994 70.0708L49.2254 69.8572L51.1834 80.7152L53.5686 80.9644L49.1186 56.1512H45.167ZM46.4842 68.5044L47.6946 61.4912L48.9762 68.3264L46.4842 68.5044ZM66.426 59.5688L64.2188 56.5784H56.2088V81H58.95L58.594 70.6404L64.2188 70.4624L66.3904 67.828L66.426 59.5688ZM63.6492 66.5464L62.2964 67.828L58.5228 67.9704L58.2024 58.8212H62.154L63.756 60.6724L63.6492 66.5464ZM72.1785 70.5692L76.0233 81.178L78.5509 81L74.3857 70.3556L76.7353 70.32L78.5509 67.8636V59.5688L76.3793 56.614H68.6897V81H71.4665L71.1461 70.6404L72.1785 70.5692ZM70.7189 58.7856H74.6705L76.2725 60.6724L76.1657 66.5108L74.8129 67.8636L71.0393 68.006L70.7189 58.7856ZM88.8434 58.9636L89.1282 56.5072L80.7978 56.6852L81.0114 58.5364L83.361 58.6788L83.8238 79.2556L81.4742 79.398L81.759 81.1068L88.523 81.0356L88.9146 78.864L86.2802 79.0776L86.6718 58.8568L88.8434 58.9636ZM102.227 77.3688L95.4631 78.2232L96.2107 56.7564L92.3303 56.4004L92.7219 81.1424L102.654 81.2492L102.227 77.3688ZM119.715 58.9636L120 56.5072L111.67 56.6852L111.883 58.5364L114.233 58.6788L114.696 79.2556L112.346 79.398L112.631 81.1068L119.395 81.0356L119.787 78.864L117.152 79.0776L117.544 58.8568L119.715 58.9636ZM137.086 56.614L133.135 56.436L133.811 74.058L127.011 56.436H123.202L123.558 81.0356L126.905 80.9644L126.371 61.9896L133.669 80.9644H136.481L137.086 56.614ZM71.102 95.5688L68.8948 92.5784H60.8848V117H63.626L63.27 106.64L68.8948 106.462L71.0664 103.828L71.102 95.5688ZM68.3252 102.546L66.9724 103.828L63.1988 103.97L62.8784 94.8212H66.83L68.432 96.6724L68.3252 102.546ZM75.4304 92.1512L71.728 116.715L74.7184 116.893L76.4628 106.071L79.4888 105.857L81.4468 116.715L83.832 116.964L79.382 92.1512H75.4304ZM76.7476 104.504L77.958 97.4912L79.2396 104.326L76.7476 104.504ZM89.9611 106.569L93.8059 117.178L96.3335 117L92.1683 106.356L94.5179 106.32L96.3335 103.864V95.5688L94.1619 92.614H86.4723V117H89.2491L88.9287 106.64L89.9611 106.569ZM88.5015 94.7856H92.4531L94.0551 96.6724L93.9483 102.511L92.5955 103.864L88.8219 104.006L88.5015 94.7856ZM106.626 94.9636L106.911 92.5072L98.5805 92.6852L98.7941 94.5364L101.144 94.6788L101.606 115.256L99.2569 115.398L99.5417 117.107L106.306 117.036L106.697 114.864L104.063 115.078L104.454 94.8568L106.626 94.9636ZM112.293 94.5008L116.743 96.7436L118.701 94.2872L114.892 92.1156L108.911 93.2904L107.558 100.126L116.992 108.99L115.675 114.544L111.546 114.152L109.338 110.841L107.167 113.547L110.086 116.929L117.882 117.036L120.517 107.886L110.478 98.6304L112.293 94.5008Z" fill="white"/>
</g>
<defs>
<clipPath id="clip0_874_2693">
<rect width="180" height="180" fill="white"/>
</clipPath>
</defs>
</svg>
