<svg width="180" height="180" viewBox="0 0 180 180" fill="none" xmlns="http://www.w3.org/2000/svg">
<g clip-path="url(#clip0_874_2703)">
<rect width="180" height="180" fill="#8F2E17"/>
<path d="M25.1293 104.353L51.728 126.096C63.9626 136.36 69.5117 134.477 79.7957 135.176L113.026 138.044L144.592 131.44L137.162 113.796L127.941 108.186L152.133 108.129L170.043 95.0048L137.33 79.1664L120.203 73.6258L130.585 49.6577L124.036 6.54894L85.5032 29.8178L74.352 56.1645L59.5065 40.326L43.9055 28.4471L35.5946 54.1362L31.817 73.9347L11.179 64.6303L25.1293 104.353Z" fill="#FF6D3F"/>
<path d="M43.7763 56.1512L40.0739 80.7152L43.0643 80.8932L44.8087 70.0708L47.8347 69.8572L49.7927 80.7152L52.1779 80.9644L47.7279 56.1512H43.7763ZM45.0935 68.5044L46.3039 61.4912L47.5855 68.3264L45.0935 68.5044ZM65.8542 73.4884L64.181 77.4044L59.6242 77.796L57.0966 73.5596L57.773 56.4004L54.213 56.1868L53.857 75.6244L57.2746 80.9288L65.9254 81.1424L69.1294 76.016L69.7702 56.4004L65.427 56.5784L65.8542 73.4884ZM85.2809 56.1868L71.1477 57.0056L71.2901 58.9992H76.7369L76.2741 81.2492L79.3357 80.822L80.4037 58.9992L85.1385 59.0704L85.2809 56.1868ZM98.5686 73.4884L96.8954 77.4044L92.3386 77.796L89.811 73.5596L90.4874 56.4004L86.9274 56.1868L86.5714 75.6244L89.989 80.9288L98.6398 81.1424L101.844 76.016L102.485 56.4004L98.1414 56.5784L98.5686 73.4884ZM120.487 56.258L116.678 56.6852L113.581 65.87L109.807 56.5072L105.642 56.6496L104.467 80.9644L107.885 81.1424L107.921 61.1352L111.516 69.8928L114.151 70.2132L117.604 61.6692L117.889 80.8932C117.889 80.8932 121.057 80.8932 121.627 80.8576L120.487 56.258ZM138.477 56.614L134.525 56.436L135.202 74.058L128.402 56.436H124.593L124.949 81.0356L128.295 80.9644L127.761 61.9896L135.059 80.9644H137.872L138.477 56.614ZM73.7597 92.7564L73.2613 116.964L76.6789 116.715L76.3585 104.54L80.4881 104.647L80.5949 102.618L76.3229 102.938L76.1805 96.0316L82.1257 95.3908L81.8765 92.2936L73.7597 92.7564ZM91.9897 94.9636L92.2745 92.5072L83.9441 92.6852L84.1577 94.5364L86.5073 94.6788L86.9701 115.256L84.6205 115.398L84.9053 117.107L91.6693 117.036L92.0609 114.864L89.4265 115.078L89.8181 94.8568L91.9897 94.9636ZM108.621 92.7208L95.6985 92.7564L95.3781 96.53L104.919 95.6756L93.3845 114.223L94.2389 116.893L106.699 117V114.366L96.9445 113.262L108.016 97.2776L108.621 92.7208Z" fill="white"/>
<path d="M69.1449 152.82C50.3449 143.62 51.9782 123.986 55.1449 115.32C43.9449 123.32 44.8114 152.653 46.6447 166.32L69.1449 152.82Z" fill="#FF6D3F"/>
</g>
<defs>
<clipPath id="clip0_874_2703">
<rect width="180" height="180" fill="white"/>
</clipPath>
</defs>
</svg>
