<svg width="180" height="180" viewBox="0 0 180 180" fill="none" xmlns="http://www.w3.org/2000/svg">
<g clip-path="url(#clip0_874_2703)">
<rect width="180" height="180" fill="#8F2E17"/>
<path d="M25.1293 104.353L51.728 126.096C63.9626 136.36 69.5117 134.477 79.7957 135.176L113.026 138.044L144.592 131.44L137.162 113.796L127.941 108.186L152.133 108.129L170.043 95.0048L137.33 79.1664L120.203 73.6258L130.585 49.6577L124.036 6.54894L85.5032 29.8178L74.352 56.1645L59.5065 40.326L43.9055 28.4471L35.5946 54.1362L31.817 73.9347L11.179 64.6303L25.1293 104.353Z" fill="#FF6D3F"/>
<path d="M40.0125 68.4688L43.7861 81H47.7733L40.2617 56.2936H36.6305L32.2517 81H34.4945L36.3813 68.4332L40.0125 68.4688ZM37.6273 60.1028L39.5141 66.8668L36.6305 66.76L37.6273 60.1028ZM61.4389 73.4884L59.7657 77.4044L55.2089 77.796L52.6813 73.5596L53.3577 56.4004L49.7977 56.1868L49.4417 75.6244L52.8593 80.9288L61.5101 81.1424L64.7141 76.016L65.3549 56.4004L61.0117 56.5784L61.4389 73.4884ZM80.8657 56.1868L66.7325 57.0056L66.8749 58.9992H72.3217L71.8589 81.2492L74.9205 80.822L75.9885 58.9992L80.7233 59.0704L80.8657 56.1868ZM94.1534 73.4884L92.4802 77.4044L87.9234 77.796L85.3958 73.5596L86.0722 56.4004L82.5122 56.1868L82.1562 75.6244L85.5738 80.9288L94.2246 81.1424L97.4286 76.016L98.0694 56.4004L93.7262 56.5784L94.1534 73.4884ZM116.072 56.258L112.263 56.6852L109.166 65.87L105.392 56.5072L101.227 56.6496L100.052 80.9644L103.47 81.1424L103.505 61.1352L107.101 69.8928L109.735 70.2132L113.189 61.6692L113.473 80.8932C113.473 80.8932 116.642 80.8932 117.211 80.8576L116.072 56.258ZM134.062 56.614L130.11 56.436L130.786 74.058L123.987 56.436H120.178L120.534 81.0356L123.88 80.9644L123.346 61.9896L130.644 80.9644H133.456L134.062 56.614ZM147.546 56.5072L138.325 56.7208L138.93 81H148.151L148.364 78.1164L141.209 78.508L141.138 67.65L145.552 67.4008L145.196 65.4428L141.102 65.9412L141.066 59.2484L147.688 59.7468L147.546 56.5072ZM66.6676 92.7564L66.1692 116.964L69.5868 116.715L69.2664 104.54L73.396 104.647L73.5028 102.618L69.2308 102.938L69.0884 96.0316L75.0336 95.3908L74.7844 92.2936L66.6676 92.7564ZM84.8975 94.9636L85.1823 92.5072L76.8519 92.6852L77.0655 94.5364L79.4151 94.6788L79.8779 115.256L77.5283 115.398L77.8131 117.107L84.5771 117.036L84.9687 114.864L82.3343 115.078L82.7259 94.8568L84.8975 94.9636ZM101.529 92.7208L88.6063 92.7564L88.2859 96.53L97.8267 95.6756L86.2923 114.223L87.1467 116.893L99.6067 117V114.366L89.8523 113.262L100.924 97.2776L101.529 92.7208ZM115.714 92.7208L102.791 92.7564L102.47 96.53L112.011 95.6756L100.477 114.223L101.331 116.893L113.791 117V114.366L104.037 113.262L115.108 97.2776L115.714 92.7208Z" fill="white"/>
<path d="M69.1449 152.82C50.3449 143.62 51.9782 123.986 55.1449 115.32C43.9449 123.32 44.8114 152.653 46.6447 166.32L69.1449 152.82Z" fill="#FF6D3F"/>
</g>
<defs>
<clipPath id="clip0_874_2703">
<rect width="180" height="180" fill="white"/>
</clipPath>
</defs>
</svg>
