<svg width="180" height="180" viewBox="0 0 180 180" fill="none" xmlns="http://www.w3.org/2000/svg">
<g clip-path="url(#clip0_873_2135)">
<rect width="180" height="180" fill="#6B291A"/>
<path d="M44.5 120.5C6.1 134.9 -12.1667 110.5 -16.5 96.5L-26 -18.5L185 -22.5C195.667 19.3333 214.2 108 203 128C189 153 133 154.5 112.5 161C96.1 166.2 100.333 178.833 104.5 184.5C70.5 160.5 155.5 144 149 115.5C142.5 87 92.5 102.5 44.5 120.5Z" fill="#938CE3"/>
<path d="M54.254 52.3592L50.1356 79.6832L53.462 79.8812L55.4024 67.8428L58.7684 67.6052L60.9464 79.6832L63.5996 79.9604L58.6496 52.3592H54.254ZM55.7192 66.1004L57.0656 58.2992L58.4912 65.9024L55.7192 66.1004ZM81.5449 52.9928L67.1701 53.0324L66.8137 57.23L77.4265 56.2796L64.5961 76.9112L65.5465 79.8812L79.4065 80V77.0696L68.5561 75.842L80.8717 58.0616L81.5449 52.9928ZM96.6789 71.6444L94.8177 76.0004L89.7489 76.436L86.9373 71.7236L87.6897 52.6364L83.7297 52.3988L83.3337 74.0204L87.1353 79.9208L96.7581 80.1584L100.322 74.456L101.035 52.6364L96.2037 52.8344L96.6789 71.6444ZM108.586 68.3972L112.863 80.198L115.675 80L111.042 68.1596L113.655 68.12L115.675 65.3876V56.1608L113.259 52.874H104.706V80H107.794L107.438 68.4764L108.586 68.3972ZM106.963 55.2896H111.358L113.14 57.3884L113.022 63.8828L111.517 65.3876L107.319 65.546L106.963 55.2896ZM129.619 52.7552L119.362 52.9928L120.035 80H130.292L130.529 76.7924L122.57 77.228L122.491 65.15L127.401 64.8728L127.005 62.6948L122.451 63.2492L122.411 55.8044L129.777 56.3588L129.619 52.7552ZM40.5813 120.198L52.6593 119.762L57.8865 113.585L58.4805 101.071L52.0257 93.1908L40.0269 92.7552L40.5813 120.198ZM53.0949 111.882L50.1645 116.357L44.1849 116.594L44.5413 95.9628L49.8477 95.8044L53.8473 102.457L53.0949 111.882ZM65.8734 108.397L70.1502 120.198L72.9618 120L68.3286 108.16L70.9422 108.12L72.9618 105.388V96.1608L70.5462 92.874H61.9926V120H65.0814L64.725 108.476L65.8734 108.397ZM64.2498 95.2896H68.6454L70.4274 97.3884L70.3086 103.883L68.8038 105.388L64.6062 105.546L64.2498 95.2896ZM86.9056 92.7552L76.6492 92.9928L77.3224 120H87.5788L87.8164 116.792L79.8568 117.228L79.7776 105.15L84.688 104.873L84.292 102.695L79.738 103.249L79.6984 95.8044L87.064 96.3588L86.9056 92.7552ZM93.8347 92.3592L89.7163 119.683L93.0427 119.881L94.9831 107.843L98.3491 107.605L100.527 119.683L103.18 119.96L98.2303 92.3592H93.8347ZM95.2999 106.1L96.6463 98.2992L98.0719 105.902L95.2999 106.1ZM123.323 92.478L119.086 92.9532L115.64 103.17L111.443 92.7552L106.81 92.9136L105.503 119.96L109.304 120.158L109.344 97.9032L113.344 107.645L116.274 108.001L120.115 98.4972L120.432 119.881C120.432 119.881 123.956 119.881 124.59 119.842L123.323 92.478ZM132.364 94.9728L137.314 97.4676L139.492 94.7352L135.255 92.3196L128.602 93.6264L127.097 101.23L137.591 111.09L136.126 117.268L131.533 116.832L129.077 113.149L126.662 116.159L129.909 119.921L138.581 120.04L141.512 109.862L130.345 99.5664L132.364 94.9728Z" fill="white"/>
<path d="M46.5 43.4992C20.5 59.0992 -23.3333 49.9992 -42 43.4992L-40.5 -18.5L25.5 -21.5C23.6667 -4.83361 28.7 26.1993 63.5 17C98.3 7.80066 120.333 20.8331 127 28.4992C111 17.9992 79 23.9992 46.5 43.4992Z" fill="#6B291A"/>
</g>
<defs>
<clipPath id="clip0_873_2135">
<rect width="180" height="180" fill="white"/>
</clipPath>
</defs>
</svg>
