<svg width="180" height="180" viewBox="0 0 180 180" fill="none" xmlns="http://www.w3.org/2000/svg">
<g clip-path="url(#clip0_873_1854)">
<rect width="180" height="180" fill="#E1B37E"/>
<path fill-rule="evenodd" clip-rule="evenodd" d="M76.1385 74.7738L114.805 55.682L136.864 52.1705L158.421 39.1279L162.933 0L188 49.1607L114.216 98.2297L185.995 121.898L162.432 138.452L57.1472 135.328L37.6 147.984L0 153V112.367L27.2964 98.8896L17.0453 27.0885L39.6053 11.0361L76.1385 74.7738ZM98.7627 138.452H74.1974C71.8578 142.967 73.7962 149.99 86.2293 149.99C98.3558 149.99 98.5913 143.309 98.7506 138.791C98.7546 138.677 98.7586 138.564 98.7627 138.452ZM21.0467 71.0847L23.7806 95.5123C23.728 95.5141 23.6746 95.516 23.6206 95.518C21.4843 95.597 18.3256 95.7138 16.976 83.6553C15.5923 71.292 18.6695 68.9954 21.0467 71.0847ZM19.5482 61.4559L18.2187 49.5765C17.0626 48.5605 15.5662 49.6773 16.2391 55.6897C16.8954 61.5539 18.4315 61.4971 19.4704 61.4586L19.5482 61.4559ZM125.258 138.452H108.789C108.792 138.52 108.795 138.589 108.797 138.658C108.904 141.409 109.062 145.475 117.192 145.475C125.527 145.475 126.827 141.201 125.258 138.452Z" fill="#8C9269"/>
<path d="M58.2091 100.04L58.2167 101.04L58.2809 101.039L58.3446 101.031L58.2091 100.04ZM67.5691 98.76L67.7046 99.7508L68.084 99.6989L68.3317 99.4069L67.5691 98.76ZM71.3691 94.28L72.1317 94.9269L72.3023 94.7257L72.3515 94.4665L71.3691 94.28ZM71.9691 91.12L72.9515 91.3065L73.0317 90.8843L72.7805 90.5355L71.9691 91.12ZM68.5691 86.4L69.3805 85.8155L69.2069 85.5746L68.9301 85.4674L68.5691 86.4ZM63.6091 84.48H62.6091V85.1652L63.2481 85.4126L63.6091 84.48ZM63.6091 84.36L63.268 83.42L62.6091 83.659V84.36H63.6091ZM68.1291 82.72L68.4701 83.66L68.9121 83.4997L69.0706 83.057L68.1291 82.72ZM69.4891 78.92L70.4306 79.257L70.6175 78.7347L70.2734 78.2997L69.4891 78.92ZM66.0091 74.52L66.7934 73.8997L66.5687 73.6155L66.2141 73.5413L66.0091 74.52ZM57.6091 72.76L57.8141 71.7813L57.7152 71.7605L57.614 71.76L57.6091 72.76ZM41.4891 72.68L41.494 71.68L40.5198 71.6752L40.4895 72.6489L41.4891 72.68ZM40.6891 98.4L39.6895 98.3689L39.6763 98.7944L39.9739 99.0989L40.6891 98.4ZM42.4091 100.16L41.6939 100.859L41.9912 101.163L42.4167 101.16L42.4091 100.16ZM45.2091 75.64L45.1796 74.6404L44.2041 74.6692L44.2091 75.6451L45.2091 75.64ZM56.0491 75.32L56.1678 74.3271L56.0939 74.3182L56.0196 74.3204L56.0491 75.32ZM63.4091 76.2L64.2686 75.6889L64.0169 75.2655L63.5278 75.2071L63.4091 76.2ZM65.1691 79.16L66.0954 79.5368L66.2827 79.0763L66.0286 78.6489L65.1691 79.16ZM64.2091 81.52L64.5046 82.4753L64.9569 82.3354L65.1354 81.8968L64.2091 81.52ZM58.6491 83.24L58.667 84.2398L58.8089 84.2373L58.9446 84.1953L58.6491 83.24ZM45.2491 83.48L44.2491 83.4851L44.2542 84.498L45.267 84.4798L45.2491 83.48ZM45.2491 96.76H44.2491V97.7854L45.2741 97.7597L45.2491 96.76ZM45.2491 85.8L45.2679 84.8002L44.2491 84.781V85.8H45.2491ZM60.0891 86.08L60.3594 85.1172L60.2361 85.0826L60.1079 85.0802L60.0891 86.08ZM65.9291 87.72L66.8082 87.2435L66.6066 86.8716L66.1994 86.7572L65.9291 87.72ZM68.2491 92L69.0491 92.6L69.4337 92.0871L69.1282 91.5235L68.2491 92ZM65.0091 96.32L65.0262 97.3199L65.5155 97.3115L65.8091 96.92L65.0091 96.32ZM58.0091 96.44L57.9919 95.4401L57.984 95.4403L58.0091 96.44ZM58.3446 101.031L67.7046 99.7508L67.4336 97.7692L58.0736 99.0492L58.3446 101.031ZM68.3317 99.4069L72.1317 94.9269L70.6065 93.6331L66.8065 98.1131L68.3317 99.4069ZM72.3515 94.4665L72.9515 91.3065L70.9866 90.9335L70.3866 94.0935L72.3515 94.4665ZM72.7805 90.5355L69.3805 85.8155L67.7577 86.9845L71.1577 91.7045L72.7805 90.5355ZM68.9301 85.4674L63.9701 83.5474L63.2481 85.4126L68.2081 87.3326L68.9301 85.4674ZM64.6091 84.48V84.36H62.6091V84.48H64.6091ZM63.9501 85.3L68.4701 83.66L67.788 81.78L63.268 83.42L63.9501 85.3ZM69.0706 83.057L70.4306 79.257L68.5475 78.583L67.1875 82.383L69.0706 83.057ZM70.2734 78.2997L66.7934 73.8997L65.2247 75.1403L68.7047 79.5403L70.2734 78.2997ZM66.2141 73.5413L57.8141 71.7813L57.404 73.7387L65.804 75.4987L66.2141 73.5413ZM57.614 71.76L41.494 71.68L41.4841 73.68L57.6041 73.76L57.614 71.76ZM40.4895 72.6489L39.6895 98.3689L41.6886 98.4311L42.4886 72.7111L40.4895 72.6489ZM39.9739 99.0989L41.6939 100.859L43.1243 99.4611L41.4042 97.7011L39.9739 99.0989ZM42.4167 101.16L58.2167 101.04L58.2015 99.04L42.4015 99.16L42.4167 101.16ZM45.2386 76.6396L56.0786 76.3196L56.0196 74.3204L45.1796 74.6404L45.2386 76.6396ZM55.9303 76.3129L63.2903 77.1929L63.5278 75.2071L56.1678 74.3271L55.9303 76.3129ZM62.5495 76.7111L64.3095 79.6711L66.0286 78.6489L64.2686 75.6889L62.5495 76.7111ZM64.2428 78.7832L63.2828 81.1432L65.1354 81.8968L66.0954 79.5368L64.2428 78.7832ZM63.9135 80.5647L58.3535 82.2847L58.9446 84.1953L64.5046 82.4753L63.9135 80.5647ZM58.6312 82.2402L45.2312 82.4802L45.267 84.4798L58.667 84.2398L58.6312 82.2402ZM46.2491 83.4749L46.209 75.6349L44.2091 75.6451L44.2491 83.4851L46.2491 83.4749ZM46.2491 96.76V85.8H44.2491V96.76H46.2491ZM45.2302 86.7998L60.0702 87.0798L60.1079 85.0802L45.2679 84.8002L45.2302 86.7998ZM59.8187 87.0428L65.6587 88.6828L66.1994 86.7572L60.3594 85.1172L59.8187 87.0428ZM65.0499 88.1965L67.3699 92.4765L69.1282 91.5235L66.8082 87.2435L65.0499 88.1965ZM67.4491 91.4L64.2091 95.72L65.8091 96.92L69.0491 92.6L67.4491 91.4ZM64.9919 95.3201L57.9919 95.4401L58.0262 97.4399L65.0262 97.3199L64.9919 95.3201ZM57.984 95.4403L45.224 95.7603L45.2741 97.7597L58.0341 97.4397L57.984 95.4403ZM78.1338 86.88H77.1338V87.7988L78.0492 87.8764L78.1338 86.88ZM87.0938 87.64L87.0092 88.6364L87.9653 88.7175L88.0858 87.7656L87.0938 87.64ZM87.4938 84.48L88.4858 84.6056L88.6283 83.48H87.4938V84.48ZM78.1338 84.48V83.48H77.1338V84.48H78.1338ZM78.0492 87.8764L87.0092 88.6364L87.1783 86.6436L78.2183 85.8836L78.0492 87.8764ZM88.0858 87.7656L88.4858 84.6056L86.5017 84.3544L86.1017 87.5144L88.0858 87.7656ZM87.4938 83.48H78.1338V85.48H87.4938V83.48ZM77.1338 84.48V86.88H79.1338V84.48H77.1338ZM97.3069 83.96L96.326 83.7652L96.0957 84.9252L97.2778 84.9596L97.3069 83.96ZM97.2669 92.2L98.0595 91.5903L97.5462 90.923L96.8011 91.3151L97.2669 92.2ZM94.2269 93.8L93.7611 92.9151L92.9188 93.3584L93.3201 94.2216L94.2269 93.8ZM100.827 81.64L99.8342 81.5193L99.6979 82.64H100.827V81.64ZM101.547 75.72L101.692 74.7306L100.678 74.582L100.554 75.5993L101.547 75.72ZM112.467 77.32L112.322 78.3094L113.467 78.4772V77.32H112.467ZM112.467 74.04H113.467V73.1255L112.556 73.044L112.467 74.04ZM99.5069 72.88L99.596 71.884L98.701 71.8039L98.526 72.6852L99.5069 72.88ZM97.2778 84.9596C100.69 85.0588 103.773 85.4564 105.973 86.3991C107.062 86.8658 107.88 87.4437 108.424 88.1338C108.955 88.8085 109.267 89.6428 109.267 90.72H111.267C111.267 89.2172 110.818 87.9415 109.995 86.8962C109.184 85.8663 108.052 85.1142 106.761 84.5609C104.201 83.4636 100.804 83.0612 97.3359 82.9604L97.2778 84.9596ZM109.267 90.72C109.267 92.3492 108.741 93.4147 108.019 94.0798C107.283 94.7586 106.234 95.12 105.027 95.12V97.12C106.62 97.12 108.191 96.6414 109.375 95.5502C110.573 94.4453 111.267 92.8108 111.267 90.72H109.267ZM105.027 95.12C102.42 95.12 99.8716 93.946 98.0595 91.5903L96.4743 92.8097C98.6621 95.654 101.794 97.12 105.027 97.12V95.12ZM96.8011 91.3151L93.7611 92.9151L94.6926 94.6849L97.7326 93.0849L96.8011 91.3151ZM93.3201 94.2216C95.6149 99.1576 100.304 101.68 104.867 101.68V99.68C101.03 99.68 97.0788 97.5624 95.1337 93.3784L93.3201 94.2216ZM104.867 101.68C108.402 101.68 111.097 100.494 112.906 98.5946C114.703 96.7073 115.547 94.1979 115.547 91.68H113.547C113.547 93.7621 112.851 95.7527 111.458 97.2154C110.077 98.6656 107.932 99.68 104.867 99.68V101.68ZM115.547 91.68C115.547 88.7412 114.378 85.9404 111.893 83.8931C109.423 81.8588 105.743 80.64 100.827 80.64V82.64C105.431 82.64 108.611 83.7812 110.621 85.4369C112.615 87.0796 113.547 89.2988 113.547 91.68H115.547ZM101.82 81.7607L102.54 75.8407L100.554 75.5993L99.8342 81.5193L101.82 81.7607ZM101.402 76.7094L112.322 78.3094L112.612 76.3306L101.692 74.7306L101.402 76.7094ZM113.467 77.32V74.04H111.467V77.32H113.467ZM112.556 73.044L99.596 71.884L99.4177 73.876L112.378 75.036L112.556 73.044ZM98.526 72.6852L96.326 83.7652L98.2877 84.1548L100.488 73.0748L98.526 72.6852ZM118.221 78.16L117.371 77.6329L116.781 78.5836L117.792 79.0634L118.221 78.16ZM122.181 80.04L121.752 80.9434L122.373 81.2382L122.871 80.7639L122.181 80.04ZM118.221 96.8L117.25 97.0425L117.252 97.0501L117.254 97.0577L118.221 96.8ZM119.181 100.4L118.214 100.658L118.412 101.4H119.181V100.4ZM138.741 100.4V101.4H139.741V100.4H138.741ZM138.741 96.68H139.741V95.6565L138.717 95.6803L138.741 96.68ZM123.421 97.12L122.563 96.6055L121.63 98.16L123.443 98.1198L123.421 97.12ZM140.181 78.64C140.181 76.0998 139 74.2322 137.157 73.0444C135.364 71.889 132.992 71.4 130.541 71.4V73.4C132.769 73.4 134.717 73.851 136.074 74.7256C137.381 75.5678 138.181 76.8202 138.181 78.64H140.181ZM130.541 71.4C127.819 71.4 125.083 72.0889 122.766 73.1921C120.462 74.2888 118.484 75.8383 117.371 77.6329L119.07 78.6871C119.917 77.3217 121.539 75.9912 123.625 74.9979C125.698 74.011 128.142 73.4 130.541 73.4V71.4ZM117.792 79.0634L121.752 80.9434L122.609 79.1366L118.649 77.2566L117.792 79.0634ZM122.871 80.7639C125.382 78.3704 127.779 76.68 131.141 76.68V74.68C126.982 74.68 124.1 76.8296 121.491 79.3161L122.871 80.7639ZM131.141 76.68C132.042 76.68 132.673 76.856 133.057 77.1396C133.386 77.3826 133.661 77.7966 133.661 78.64H135.661C135.661 77.2834 135.175 76.2174 134.244 75.5304C133.369 74.884 132.24 74.68 131.141 74.68V76.68ZM133.661 78.64C133.661 79.0414 133.491 79.6272 133.07 80.4065C132.658 81.1684 132.053 82.0289 131.299 82.956C129.792 84.8091 127.766 86.8359 125.715 88.7426C123.668 90.6453 121.623 92.4048 120.086 93.7277C119.322 94.3853 118.675 94.943 118.223 95.3512C117.999 95.5532 117.805 95.7344 117.665 95.8807C117.597 95.9504 117.518 96.0372 117.451 96.1289C117.419 96.1724 117.365 96.2497 117.319 96.3496C117.294 96.4051 117.161 96.6857 117.25 97.0425L119.191 96.5575C119.276 96.8993 119.148 97.159 119.135 97.1879C119.101 97.2612 119.068 97.3061 119.064 97.3117C119.052 97.3276 119.059 97.3162 119.106 97.2666C119.195 97.1742 119.345 97.0322 119.563 96.8358C119.993 96.4473 120.619 95.9078 121.391 95.2435C122.926 93.9227 124.998 92.1397 127.077 90.2074C129.151 88.2791 131.257 86.1784 132.851 84.2178C133.648 83.2379 134.336 82.27 134.829 81.3577C135.313 80.4628 135.661 79.5286 135.661 78.64H133.661ZM117.254 97.0577L118.214 100.658L120.147 100.142L119.187 96.5423L117.254 97.0577ZM119.181 101.4H138.741V99.4H119.181V101.4ZM139.741 100.4V96.68H137.741V100.4H139.741ZM138.717 95.6803C136.132 95.7404 133.648 95.8205 131.139 95.9005C128.629 95.9805 126.093 96.0604 123.398 96.1202L123.443 98.1198C126.148 98.0596 128.693 97.9795 131.202 97.8995C133.713 97.8195 136.189 97.7396 138.764 97.6797L138.717 95.6803ZM124.278 97.6345C124.218 97.7353 124.152 97.8015 124.151 97.8019C124.135 97.8195 124.122 97.8311 124.12 97.8335C124.113 97.8394 124.114 97.8387 124.126 97.8279C124.15 97.8078 124.189 97.7749 124.249 97.7264C124.367 97.6302 124.537 97.4936 124.759 97.315C125.2 96.9603 125.825 96.4553 126.573 95.8341C128.067 94.5927 130.053 92.8832 132.039 90.9703C134.021 89.0619 136.027 86.928 137.544 84.8374C139.03 82.7911 140.181 80.6096 140.181 78.64H138.181C138.181 79.9304 137.377 81.6639 135.926 83.6626C134.507 85.617 132.595 87.6581 130.652 89.5297C128.713 91.3968 126.767 93.0723 125.295 94.2959C124.559 94.9072 123.943 95.4047 123.505 95.7569C123.288 95.9317 123.11 96.0747 122.986 96.1759C122.924 96.2261 122.869 96.2714 122.826 96.3079C122.806 96.3254 122.78 96.3477 122.755 96.3709C122.743 96.3821 122.724 96.401 122.701 96.4245C122.695 96.4309 122.625 96.5016 122.563 96.6055L124.278 97.6345Z" fill="white"/>
</g>
<defs>
<clipPath id="clip0_873_1854">
<rect width="180" height="180" fill="white"/>
</clipPath>
</defs>
</svg>
