<svg width="180" height="180" viewBox="0 0 180 180" fill="none" xmlns="http://www.w3.org/2000/svg">
<g clip-path="url(#clip0_873_2147)">
<rect width="180" height="180" fill="#B06969"/>
<path d="M43.4357 22.244L34.1432 29.2057C39.2539 36.1674 38.3248 55.6601 38.3248 73.7606C38.3248 91.861 -5.73148 188.794 17.4998 212C40.7312 235.206 196.814 217.746 207.5 208C218.186 198.254 162.38 84.4352 152.158 62.1577C141.936 39.8803 128.462 38.0238 121.028 34.3109C115.081 31.3406 108.328 14.1993 105.696 6L95.0092 8.78468C98.1067 13.2711 104.023 24.6574 102.908 34.3109C101.514 46.3779 88.0398 53.8037 69.4548 51.9472C54.5867 50.4621 45.9137 31.5262 43.4357 22.244Z" fill="#FB8EEA"/>
<path d="M71.5835 76.3964C67.4651 76.3964 66.3167 70.892 66.3167 66.0608C66.3167 61.586 67.9007 55.1312 71.9003 55.1312C75.3851 55.1312 77.2859 60.6752 77.2859 65.942C77.2859 71.3672 75.3851 76.3964 71.5835 76.3964ZM71.6231 80.2376C77.6819 80.2376 80.6123 73.1492 80.6123 66.1004C80.6123 59.21 77.8007 52.3592 72.2567 52.3592C65.7623 52.3592 63.7427 61.2692 63.7427 66.5756C63.7427 72.7136 65.4851 80.2376 71.6231 80.2376ZM95.1603 75.9608L87.6363 76.9112L88.4679 53.0324L84.1515 52.6364L84.5871 80.1584L95.6355 80.2772L95.1603 75.9608ZM98.5505 80.198L110.628 79.7624L115.856 73.5848L116.45 61.0712L109.995 53.1908L97.9961 52.7552L98.5505 80.198ZM111.064 71.882L108.134 76.3568L102.154 76.5944L102.51 55.9628L107.817 55.8044L111.816 62.4572L111.064 71.882ZM63.0738 92.7948C63.1134 92.7948 63.747 110.258 63.747 111.842C63.747 114.614 63.0342 117.426 61.0542 117.426C58.797 117.426 58.0842 113.545 57.7674 111.961L54.5202 113.506C54.5202 113.624 56.2626 119.96 60.777 119.96C66.4398 119.96 67.2318 115.406 67.3902 113.149C67.6278 110.14 67.6674 93.0324 67.6674 93.0324L63.0738 92.7948ZM84.0912 111.644L82.23 116L77.1612 116.436L74.3496 111.724L75.102 92.6364L71.142 92.3988L70.746 114.02L74.5476 119.921L84.1704 120.158L87.7344 114.456L88.4472 92.6364L83.616 92.8344L84.0912 111.644ZM92.6723 120.198L104.75 119.762L109.978 113.585L110.572 101.071L104.117 93.1908L92.1179 92.7552L92.6723 120.198ZM105.186 111.882L102.256 116.357L96.2759 116.594L96.6323 95.9628L101.939 95.8044L105.938 102.457L105.186 111.882ZM121.44 92.7156L117.4 102.853L112.569 92.874L109.203 93.072L116.014 106.457L116.173 119.96H120.291L119.895 106.536L125.598 92.9928L121.44 92.7156Z" fill="white"/>
</g>
<defs>
<clipPath id="clip0_873_2147">
<rect width="180" height="180" fill="white"/>
</clipPath>
</defs>
</svg>
