<svg width="180" height="180" viewBox="0 0 180 180" fill="none" xmlns="http://www.w3.org/2000/svg">
<g clip-path="url(#clip0_873_2147)">
<rect width="180" height="180" fill="#B06969"/>
<path d="M43.4357 22.244L34.1432 29.2057C39.2539 36.1674 38.3248 55.6601 38.3248 73.7606C38.3248 91.861 -5.73148 188.794 17.4998 212C40.7312 235.206 196.814 217.746 207.5 208C218.186 198.254 162.38 84.4352 152.158 62.1577C141.936 39.8803 128.462 38.0238 121.028 34.3109C115.081 31.3406 108.328 14.1993 105.696 6L95.0092 8.78468C98.1067 13.2711 104.023 24.6574 102.908 34.3109C101.514 46.3779 88.0398 53.8037 69.4548 51.9472C54.5867 50.4621 45.9137 31.5262 43.4357 22.244Z" fill="#FB8EEA"/>
<path d="M62.4761 52.6364L61.6445 80H71.4653L74.3957 77.7032V66.8924L71.0693 64.358L74.1581 56.8736L71.7029 52.7552L62.4761 52.6364ZM72.2573 68.4368L72.0593 75.8024L69.7229 77.5052L65.9213 77.1488L65.9609 66.8924L69.6041 66.2984L72.2573 68.4368ZM68.1785 64.2392L65.9609 64.6748L66.0005 55.1312L69.5645 55.0916L71.0297 57.2696L68.1785 64.2392ZM80.1835 52.3592L76.0651 79.6832L79.3915 79.8812L81.3319 67.8428L84.6979 67.6052L86.8759 79.6832L89.5291 79.9604L84.5791 52.3592H80.1835ZM81.6487 66.1004L82.9951 58.2992L84.4207 65.9024L81.6487 66.1004ZM93.2976 52.6364L92.466 80H102.287L105.217 77.7032V66.8924L101.891 64.358L104.98 56.8736L102.524 52.7552L93.2976 52.6364ZM103.079 68.4368L102.881 75.8024L100.544 77.5052L96.7428 77.1488L96.7824 66.8924L100.426 66.2984L103.079 68.4368ZM99 64.2392L96.7824 64.6748L96.822 55.1312L100.386 55.0916L101.851 57.2696L99 64.2392ZM111.005 52.3592L106.887 79.6832L110.213 79.8812L112.153 67.8428L115.519 67.6052L117.697 79.6832L120.351 79.9604L115.401 52.3592H111.005ZM112.47 66.1004L113.817 58.2992L115.242 65.9024L112.47 66.1004ZM65.54 92.3988L49.8188 93.3096L49.9772 95.5272H56.036L55.5212 120.277L58.9268 119.802L60.1148 95.5272L65.3816 95.6064L65.54 92.3988ZM68.7173 92.3592L64.5989 119.683L67.9253 119.881L69.8657 107.843L73.2317 107.605L75.4097 119.683L78.0629 119.96L73.1129 92.3592H68.7173ZM70.1825 106.1L71.5289 98.2992L72.9545 105.902L70.1825 106.1ZM96.4438 92.874L92.0482 92.676L92.8006 112.278L85.237 92.676H80.9998L81.3958 120.04L85.1182 119.96L84.5242 98.8536L92.6422 119.96H95.7706L96.4438 92.874ZM111.443 92.7156L107.404 102.853L102.572 92.874L99.2065 93.072L106.018 106.457L106.176 119.96H110.294L109.898 106.536L115.601 92.9928L111.443 92.7156ZM120.692 92.3592L116.574 119.683L119.9 119.881L121.841 107.843L125.207 107.605L127.385 119.683L130.038 119.96L125.088 92.3592H120.692ZM122.157 106.1L123.504 98.2992L124.929 105.902L122.157 106.1Z" fill="white"/>
</g>
<defs>
<clipPath id="clip0_873_2147">
<rect width="180" height="180" fill="white"/>
</clipPath>
</defs>
</svg>
