<svg width="180" height="180" viewBox="0 0 180 180" fill="none" xmlns="http://www.w3.org/2000/svg">
<g clip-path="url(#clip0_873_1838)">
<rect width="180" height="180" fill="#CC4163"/>
<path d="M61.9105 116.392L129.815 15.6188L135.043 21.6866L88.0493 128.808L61.9105 116.392Z" fill="#EEAA25"/>
<path d="M83.04 136.61C84.3117 145.354 56.7704 150.535 61.745 160.422C66.7197 170.309 49.5819 160.17 49.3395 148.079C49.0971 135.988 56.1594 124.351 64.904 123.079C73.6486 121.807 81.7683 127.865 83.04 136.61Z" fill="#F0C3E9"/>
<path d="M42.7921 72.6364L41.9605 100H51.7813L54.7117 97.7032V86.8924L51.3853 84.358L54.4741 76.8736L52.0189 72.7552L42.7921 72.6364ZM52.5733 88.4368L52.3753 95.8024L50.0389 97.5052L46.2373 97.1488L46.2769 86.8924L49.9201 86.2984L52.5733 88.4368ZM48.4945 84.2392L46.2769 84.6748L46.3165 75.1312L49.8805 75.0916L51.3457 77.2696L48.4945 84.2392ZM68.4591 72.7552L58.2027 72.9928L58.8759 100H69.1323L69.3699 96.7924L61.4103 97.228L61.3311 85.15L66.2415 84.8728L65.8455 82.6948L61.2915 83.2492L61.2519 75.8044L68.6175 76.3588L68.4591 72.7552ZM82.824 95.9608L75.3 96.9112L76.1316 73.0324L71.8152 72.6364L72.2508 100.158L83.2992 100.277L82.824 95.9608ZM96.6685 95.9608L89.1445 96.9112L89.9761 73.0324L85.6597 72.6364L86.0953 100.158L97.1437 100.277L96.6685 95.9608ZM107.266 75.4876L107.583 72.7552L98.3163 72.9532L98.5539 75.0124L101.167 75.1708L101.682 98.0596L99.0687 98.218L99.3855 100.119L106.909 100.04L107.345 97.624L104.415 97.8616L104.85 75.3688L107.266 75.4876ZM126.588 72.874L122.193 72.676L122.945 92.278L115.382 72.676H111.145L111.541 100.04L115.263 99.9604L114.669 78.8536L122.787 99.9604H125.915L126.588 72.874ZM139.093 75.4876L139.41 72.7552L130.143 72.9532L130.381 75.0124L132.994 75.1708L133.509 98.0596L130.896 98.218L131.212 100.119L138.736 100.04L139.172 97.624L136.242 97.8616L136.677 75.3688L139.093 75.4876Z" fill="white"/>
</g>
<defs>
<clipPath id="clip0_873_1838">
<rect width="180" height="180" fill="white"/>
</clipPath>
</defs>
</svg>
