<svg width="180" height="180" viewBox="0 0 180 180" fill="none" xmlns="http://www.w3.org/2000/svg">
<g clip-path="url(#clip0_874_2809)">
<rect width="180" height="180" fill="#304034"/>
<path d="M52 94L63.2714 170.843L63.2714 208H90.5001H117.729V170.843L129 94H90.5001H52Z" fill="#67886F"/>
<rect x="98" y="120.755" width="50.4337" height="50.4337" rx="16" transform="rotate(-14.6491 98 120.755)" fill="#AED8FF"/>
<rect width="36.6332" height="36.6332" rx="13" transform="matrix(-0.967493 -0.252898 -0.252898 0.967493 78.7065 108.264)" fill="#8FC9FF"/>
<path d="M136.904 79.4846L76.4444 35.7915C73.8397 45.4547 73.1711 67.5101 91.3341 78.4271C109.497 89.344 129.282 83.6808 136.904 79.4846Z" fill="#CA8647"/>
<path d="M21.5824 74.4004L20.8348 99H29.6636L32.298 96.9352V87.2164L29.3076 84.938L32.0844 78.2096L29.8772 74.5072L21.5824 74.4004ZM30.3756 88.6048L30.1976 95.2264L28.0972 96.7572L24.6796 96.4368L24.7152 87.2164L27.9904 86.6824L30.3756 88.6048ZM26.7088 84.8312L24.7152 85.2228L24.7508 76.6432L27.9548 76.6076L29.272 78.5656L26.7088 84.8312ZM42.4139 76.9636L42.6987 74.5072L34.3683 74.6852L34.5819 76.5364L36.9315 76.6788L37.3943 97.2556L35.0447 97.398L35.3295 99.1068L42.0935 99.0356L42.4851 96.864L39.8507 97.0776L40.2423 76.8568L42.4139 76.9636ZM46.6484 74.4004L45.9008 99H54.7296L57.364 96.9352V87.2164L54.3736 84.938L57.1504 78.2096L54.9432 74.5072L46.6484 74.4004ZM55.4416 88.6048L55.2636 95.2264L53.1632 96.7572L49.7456 96.4368L49.7812 87.2164L53.0564 86.6824L55.4416 88.6048ZM51.7748 84.8312L49.7812 85.2228L49.8168 76.6432L53.0208 76.6076L54.338 78.5656L51.7748 84.8312ZM70.3992 95.3688L63.6352 96.2232L64.3828 74.7564L60.5024 74.4004L60.894 99.1424L70.8264 99.2492L70.3992 95.3688ZM86.6547 80.9508L82.2047 74.6852L75.9391 74.258L70.3499 80.5948L70.6347 92.9836L75.1915 99.178L81.2079 99.1068L85.9783 92.8412L86.6547 80.9508ZM82.7031 92.3784L79.7839 96.5436L76.3307 96.4368L73.7319 92.414L73.1623 82.7308L77.5055 76.9636L80.1755 77.0704L82.9167 80.5948L82.7031 92.3784ZM93.8326 76.5008L98.2826 78.7436L100.241 76.2872L96.4314 74.1156L90.4506 75.2904L89.0978 82.1256L98.5318 90.99L97.2146 96.5436L93.085 96.152L90.8778 92.8412L88.7062 95.5468L91.6254 98.9288L99.4218 99.0356L102.056 89.8864L92.017 80.6304L93.8326 76.5008ZM128.269 80.9508L123.819 74.6852L117.554 74.258L111.964 80.5948L112.249 92.9836L116.806 99.178L122.822 99.1068L127.593 92.8412L128.269 80.9508ZM124.318 92.3784L121.398 96.5436L117.945 96.4368L115.346 92.414L114.777 82.7308L119.12 76.9636L121.79 77.0704L124.531 80.5948L124.318 92.3784ZM141.321 95.3688L134.557 96.2232L135.305 74.7564L131.424 74.4004L131.816 99.1424L141.748 99.2492L141.321 95.3688ZM144.369 99.178L155.227 98.7864L159.926 93.2328L160.46 81.9832L154.657 74.8988L143.87 74.5072L144.369 99.178ZM155.618 91.702L152.984 95.7248L147.608 95.9384L147.929 77.3908L152.699 77.2484L156.295 83.2292L155.618 91.702Z" fill="white"/>
</g>
<defs>
<clipPath id="clip0_874_2809">
<rect width="180" height="180" fill="white"/>
</clipPath>
</defs>
</svg>
