<svg width="180" height="180" viewBox="0 0 180 180" fill="none" xmlns="http://www.w3.org/2000/svg">
<g clip-path="url(#clip0_874_2264)">
<rect width="180" height="180" fill="#713FFF"/>
<path d="M94.2861 122.5L56.7861 96.5L94.2861 5L163.286 35.5L94.2861 122.5Z" fill="#511AC0"/>
<path d="M83.7861 137.5C72.1861 137.5 55.2861 123.167 48.2861 116L54.7861 99.5L93.7861 125C90.4528 128.167 83.7861 135.1 83.7861 137.5Z" fill="#FFBE3F"/>
<rect x="43.9985" y="127" width="6" height="7" transform="rotate(5.84026 43.9985 127)" fill="#FFBE3F"/>
<rect x="61.165" y="140.681" width="3.33714" height="3.89333" transform="rotate(5.84026 61.165 140.681)" fill="#FFBE3F"/>
<rect x="38" y="150.294" width="9.57778" height="11.1741" transform="rotate(-9.17831 38 150.294)" fill="#FFBE3F"/>
<rect x="54.2861" y="168.699" width="9.57778" height="11.1741" transform="rotate(-53.4981 54.2861 168.699)" fill="#FFBE3F"/>
<path d="M56.5797 72.674L49.1745 52.7552H44.9769L45.3333 80.2772L48.9765 80.198L48.3825 58.8536L56.3817 80.198H59.4705L60.1437 52.9136L55.7877 52.7552L56.5797 72.674ZM81.8021 59.9228L76.8521 52.9532L69.8825 52.478L63.6653 59.5268L63.9821 73.3076L69.0509 80.198L75.7433 80.1188L81.0497 73.1492L81.8021 59.9228ZM77.4065 72.6344L74.1593 77.2676L70.3181 77.1488L67.4273 72.674L66.7937 61.9028L71.6249 55.4876L74.5949 55.6064L77.6441 59.5268L77.4065 72.6344ZM96.5185 69.6644L99.7261 79.9604L103.567 80.0792L108.834 52.874L103.844 52.7948L101.31 74.6144L97.3897 63.4868L95.8057 63.6848L91.0141 76.3568L87.9253 52.7948L83.9257 52.5968L88.8757 80.1188L92.5585 80L96.5185 69.6644ZM111.754 67.0112L120.624 67.7636L121.02 64.6352H111.754V67.0112ZM127.673 52.3592L123.554 79.6832L126.881 79.8812L128.821 67.8428L132.187 67.6052L134.365 79.6832L137.018 79.9604L132.068 52.3592H127.673ZM129.138 66.1004L130.484 58.2992L131.91 65.9024L129.138 66.1004ZM56.3557 92.7552L55.9597 120.079L59.8009 120.04L59.9197 108.318L61.8601 106.457L73.0273 120.673L75.9181 118.654L64.3945 104.556L73.8589 95.3688L71.6413 93.0324L59.9593 104.714L60.0781 92.9928L56.3557 92.7552ZM84.8749 95.4876L85.1917 92.7552L75.9253 92.9532L76.1629 95.0124L78.7765 95.1708L79.2913 118.06L76.6777 118.218L76.9945 120.119L84.5185 120.04L84.9541 117.624L82.0237 117.862L82.4593 95.3688L84.8749 95.4876ZM91.1787 94.9728L96.1287 97.4676L98.3067 94.7352L94.0695 92.3196L87.4167 93.6264L85.9119 101.23L96.4059 111.09L94.9407 117.268L90.3471 116.832L87.8919 113.149L85.4763 116.159L88.7235 119.921L97.3959 120.04L100.326 109.862L89.1591 99.5664L91.1787 94.9728ZM106.957 94.9728L111.907 97.4676L114.085 94.7352L109.848 92.3196L103.195 93.6264L101.69 101.23L112.184 111.09L110.719 117.268L106.125 116.832L103.67 113.149L101.254 116.159L104.502 119.921L113.174 120.04L116.104 109.862L104.937 99.5664L106.957 94.9728ZM119.894 118.456C119.894 119.762 120.963 120.634 122.27 120.634C124.052 120.634 125.002 119.208 125.002 117.901C125.002 116.555 123.814 115.802 122.586 115.802C121.24 115.802 119.894 116.634 119.894 118.456ZM120.923 111.288L123.458 111.328L124.566 91.9236L120.923 91.488L120.369 91.8444L120.923 111.288Z" fill="white"/>
</g>
<defs>
<clipPath id="clip0_874_2264">
<rect width="180" height="180" fill="white"/>
</clipPath>
</defs>
</svg>
