<svg width="180" height="180" viewBox="0 0 180 180" fill="none" xmlns="http://www.w3.org/2000/svg">
<g clip-path="url(#clip0_874_2264)">
<rect width="180" height="180" fill="#713FFF"/>
<path d="M94.2861 122.5L56.7861 96.5L94.2861 5L163.286 35.5L94.2861 122.5Z" fill="#511AC0"/>
<path d="M43.3529 72.6364L42.5213 100H52.3421L55.2725 97.7032V86.8924L51.9461 84.358L55.0349 76.8736L52.5797 72.7552L43.3529 72.6364ZM53.1341 88.4368L52.9361 95.8024L50.5997 97.5052L46.7981 97.1488L46.8377 86.8924L50.4809 86.2984L53.1341 88.4368ZM49.0553 84.2392L46.8377 84.6748L46.8773 75.1312L50.4413 75.0916L51.9065 77.2696L49.0553 84.2392ZM66.5251 75.4876L66.8418 72.7552L57.5755 72.9532L57.8131 75.0124L60.4267 75.1708L60.9415 98.0596L58.3279 98.218L58.6447 100.119L66.1687 100.04L66.6043 97.624L63.6739 97.8616L64.1095 75.3688L66.5251 75.4876ZM84.4119 72.3988L68.6907 73.3096L68.8491 75.5272H74.9079L74.3931 100.277L77.7987 99.802L78.9867 75.5272L84.2535 75.6064L84.4119 72.3988ZM102.162 72.3988L86.4411 73.3096L86.5995 75.5272H92.6583L92.1435 100.277L95.5491 99.802L96.7371 75.5272L102.004 75.6064L102.162 72.3988ZM114.923 72.7552L104.667 72.9928L105.34 100H115.597L115.834 96.7924L107.875 97.228L107.795 85.15L112.706 84.8728L112.31 82.6948L107.756 83.2492L107.716 75.8044L115.082 76.3588L114.923 72.7552ZM122.16 88.3972L126.437 100.198L129.249 100L124.615 88.1596L127.229 88.12L129.249 85.3876V76.1608L126.833 72.874H118.279V100H121.368L121.012 88.4764L122.16 88.3972ZM120.537 75.2896H124.932L126.714 77.3884L126.595 83.8828L125.091 85.3876L120.893 85.546L120.537 75.2896ZM133.332 98.4556C133.332 99.7624 134.401 100.634 135.708 100.634C137.49 100.634 138.441 99.208 138.441 97.9012C138.441 96.5548 137.253 95.8024 136.025 95.8024C134.679 95.8024 133.332 96.634 133.332 98.4556ZM134.362 91.288L136.896 91.3276L138.005 71.9236L134.362 71.488L133.807 71.8444L134.362 91.288Z" fill="white"/>
<path d="M83.7861 137.5C72.1861 137.5 55.2861 123.167 48.2861 116L54.7861 99.5L93.7861 125C90.4528 128.167 83.7861 135.1 83.7861 137.5Z" fill="#FFBE3F"/>
<rect x="43.9985" y="127" width="6" height="7" transform="rotate(5.84026 43.9985 127)" fill="#FFBE3F"/>
<rect x="61.165" y="140.681" width="3.33714" height="3.89333" transform="rotate(5.84026 61.165 140.681)" fill="#FFBE3F"/>
<rect x="38" y="150.294" width="9.57778" height="11.1741" transform="rotate(-9.17831 38 150.294)" fill="#FFBE3F"/>
<rect x="54.2861" y="168.699" width="9.57778" height="11.1741" transform="rotate(-53.4981 54.2861 168.699)" fill="#FFBE3F"/>
</g>
<defs>
<clipPath id="clip0_874_2264">
<rect width="180" height="180" fill="white"/>
</clipPath>
</defs>
</svg>
