<svg width="180" height="180" viewBox="0 0 180 180" fill="none" xmlns="http://www.w3.org/2000/svg">
<rect width="180" height="180" fill="#717171"/>
<g clip-path="url(#clip0_873_1848)">
<path fill-rule="evenodd" clip-rule="evenodd" d="M141.131 90H168L119.536 199H62.1745L16 90L94.1237 90L94.842 88.0212C82.5592 81.2997 72.8185 69.5979 68.9735 54.1888C58.0764 10.5573 95.3823 -1.3068 95.3823 -1.3068C78.6203 26.7883 86.4913 50.8031 102.988 62.7097L115.86 22.6961L92.5655 12.7283L121.897 -5.57446L167.095 12.5753L163.673 40.0413L141.67 31.6607L121.518 70.2188C146.409 73.3703 165.048 43.8166 165.048 43.8166L200.855 57.2235L186.654 77.6635L167.276 66.9861C159.972 78.171 150.86 85.6916 141.131 90Z" fill="#242320"/>
</g>
<path d="M52.1961 52.6364L51.3645 80H61.1853L64.1157 77.7032V66.8924L60.7893 64.358L63.8781 56.8736L61.4229 52.7552L52.1961 52.6364ZM61.9773 68.4368L61.7793 75.8024L59.4429 77.5052L55.6413 77.1488L55.6809 66.8924L59.3241 66.2984L61.9773 68.4368ZM57.8985 64.2392L55.6809 64.6748L55.7205 55.1312L59.2845 55.0916L60.7497 57.2696L57.8985 64.2392ZM78.6155 75.9608L71.0915 76.9112L71.9231 53.0324L67.6067 52.6364L68.0423 80.1584L79.0907 80.2772L78.6155 75.9608ZM85.0242 52.3592L80.9058 79.6832L84.2322 79.8812L86.1726 67.8428L89.5386 67.6052L91.7166 79.6832L94.3698 79.9604L89.4198 52.3592H85.0242ZM86.4894 66.1004L87.8358 58.2992L89.2614 65.9024L86.4894 66.1004ZM108.83 76.7132L101.821 77.1488L99.8411 64.754L101.465 57.2696L108.711 56.3192L108.791 52.2404L99.9203 53.27L96.1187 65.744L99.4055 80.3168L109.266 80.0792L108.83 76.7132ZM112.63 52.7552L112.234 80.0792L116.075 80.0396L116.194 68.318L118.134 66.4568L129.302 80.6732L132.192 78.6536L120.669 64.556L130.133 55.3688L127.916 53.0324L116.234 64.7144L116.352 52.9928L112.63 52.7552ZM40.8207 108.397L45.0975 120.198L47.9091 120L43.2759 108.16L45.8895 108.12L47.9091 105.388V96.1608L45.4935 92.874H36.9399V120H40.0287L39.6723 108.476L40.8207 108.397ZM39.1971 95.2896H43.5927L45.3747 97.3884L45.2559 103.883L43.7511 105.388L39.5535 105.546L39.1971 95.2896ZM63.8725 111.644L62.0113 116L56.9425 116.436L54.1309 111.724L54.8833 92.6364L50.9233 92.3988L50.5273 114.02L54.3289 119.921L63.9517 120.158L67.5157 114.456L68.2285 92.6364L63.3973 92.8344L63.8725 111.644ZM75.5233 94.9728L80.4733 97.4676L82.6513 94.7352L78.4141 92.3196L71.7613 93.6264L70.2565 101.23L80.7505 111.09L79.2853 117.268L74.6917 116.832L72.2365 113.149L69.8209 116.159L73.0681 119.921L81.7405 120.04L84.6709 109.862L73.5037 99.5664L75.5233 94.9728ZM91.3014 94.9728L96.2514 97.4676L98.4294 94.7352L94.1922 92.3196L87.5394 93.6264L86.0346 101.23L96.5286 111.09L95.0634 117.268L90.4698 116.832L88.0146 113.149L85.599 116.159L88.8462 119.921L97.5186 120.04L100.449 109.862L89.2818 99.5664L91.3014 94.9728ZM109.167 95.4876L109.484 92.7552L100.218 92.9532L100.455 95.0124L103.069 95.1708L103.584 118.06L100.97 118.218L101.287 120.119L108.811 120.04L109.247 117.624L106.316 117.862L106.752 95.3688L109.167 95.4876ZM115.343 92.3592L111.225 119.683L114.551 119.881L116.491 107.843L119.857 107.605L122.035 119.683L124.689 119.96L119.739 92.3592H115.343ZM116.808 106.1L118.155 98.2992L119.58 105.902L116.808 106.1ZM143.069 92.874L138.674 92.676L139.426 112.278L131.863 92.676H127.625L128.021 120.04L131.744 119.96L131.15 98.8536L139.268 119.96H142.396L143.069 92.874Z" fill="white"/>
<defs>
<clipPath id="clip0_873_1848">
<rect width="180" height="180" fill="white"/>
</clipPath>
</defs>
</svg>
