<svg width="180" height="180" viewBox="0 0 180 180" fill="none" xmlns="http://www.w3.org/2000/svg">
<g clip-path="url(#clip0_873_1869)">
<rect width="180" height="180" fill="#242320"/>
<path fill-rule="evenodd" clip-rule="evenodd" d="M90 35C53.8268 35 40.9278 39.3333 39 41.5C39 41.5 38.7535 41.7256 38.7535 41.7923C34.1069 52.7693 30.0228 78.5786 50.859 94C48.0705 82.7335 46.5149 61.1539 57.4503 49.8315L60 56.5H122L125.056 51.5518C134.331 63.2261 132.794 83.2808 130.141 94C150.977 78.5786 146.893 52.7693 142.247 41.7923C142.083 41.7487 141.92 41.706 141.758 41.6642L142 41.5C140.034 39.3333 126.882 35 90 35Z" fill="#A71919"/>
<path fill-rule="evenodd" clip-rule="evenodd" d="M90.7658 152C109.993 152 116.849 149.723 117.874 148.585C117.874 148.585 118.005 148.466 118.005 148.431C120.475 142.664 122.646 129.103 111.57 121C113.053 126.92 113.879 138.258 108.067 144.207L106.712 140.703L73.7568 140.703L72.1323 143.303C67.2024 137.169 68.0194 126.632 69.4296 121C58.3544 129.103 60.5253 142.664 62.9951 148.431C63.082 148.454 63.1685 148.477 63.2548 148.498L63.1261 148.585C64.1709 149.723 71.1616 152 90.7658 152Z" fill="#A71919"/>
<path d="M40.5298 52.6364L39.6982 80H49.519L52.4494 77.7032V66.8924L49.123 64.358L52.2118 56.8736L49.7566 52.7552L40.5298 52.6364ZM50.311 68.4368L50.113 75.8024L47.7766 77.5052L43.975 77.1488L44.0146 66.8924L47.6578 66.2984L50.311 68.4368ZM46.2322 64.2392L44.0146 64.6748L44.0542 55.1312L47.6182 55.0916L49.0834 57.2696L46.2322 64.2392ZM66.9492 75.9608L59.4252 76.9112L60.2568 53.0324L55.9404 52.6364L56.376 80.1584L67.4244 80.2772L66.9492 75.9608ZM85.0312 59.9228L80.0812 52.9532L73.1116 52.478L66.8944 59.5268L67.2112 73.3076L72.28 80.198L78.9724 80.1188L84.2788 73.1492L85.0312 59.9228ZM80.6356 72.6344L77.3884 77.2676L73.5472 77.1488L70.6564 72.674L70.0228 61.9028L74.854 55.4876L77.824 55.6064L80.8732 59.5268L80.6356 72.6344ZM105.45 59.9228L100.5 52.9532L93.5304 52.478L87.3132 59.5268L87.63 73.3076L92.6988 80.198L99.3912 80.1188L104.698 73.1492L105.45 59.9228ZM101.054 72.6344L97.8072 77.2676L93.966 77.1488L91.0752 72.674L90.4416 61.9028L95.2728 55.4876L98.2428 55.6064L101.292 59.5268L101.054 72.6344ZM109.514 80.198L121.592 79.7624L126.819 73.5848L127.413 61.0712L120.958 53.1908L108.96 52.7552L109.514 80.198ZM122.028 71.882L119.097 76.3568L113.118 76.5944L113.474 55.9628L118.78 55.8044L122.78 62.4572L122.028 71.882ZM138.281 52.7156L134.242 62.8532L129.411 52.874L126.045 53.072L132.856 66.4568L133.014 79.9604H137.133L136.737 66.536L142.439 52.9928L138.281 52.7156ZM75.563 92.478L71.3258 92.9532L67.8806 103.17L63.683 92.7552L59.0498 92.9136L57.743 119.96L61.5446 120.158L61.5842 97.9032L65.5838 107.645L68.5142 108.001L72.3554 98.4972L72.6722 119.881C72.6722 119.881 76.1966 119.881 76.8302 119.842L75.563 92.478ZM82.4265 92.3592L78.3081 119.683L81.6345 119.881L83.5749 107.843L86.9409 107.605L89.1189 119.683L91.7721 119.96L86.8221 92.3592H82.4265ZM83.8917 106.1L85.2381 98.2992L86.6637 105.902L83.8917 106.1ZM98.5898 108.397L102.867 120.198L105.678 120L101.045 108.16L103.659 108.12L105.678 105.388V96.1608L103.263 92.874H94.709V120H97.7978L97.4414 108.476L98.5898 108.397ZM96.9662 95.2896H101.362L103.144 97.3884L103.025 103.883L101.52 105.388L97.3226 105.546L96.9662 95.2896ZM118.771 92.7156L114.732 102.853L109.901 92.874L106.535 93.072L113.346 106.457L113.504 119.96H117.623L117.227 106.536L122.929 92.9928L118.771 92.7156Z" fill="white"/>
</g>
<defs>
<clipPath id="clip0_873_1869">
<rect width="180" height="180" fill="white"/>
</clipPath>
</defs>
</svg>
