<svg width="180" height="180" viewBox="0 0 180 180" fill="none" xmlns="http://www.w3.org/2000/svg">
<g clip-path="url(#clip0_874_2286)">
<rect width="180" height="180" fill="#3A3F6D"/>
<path d="M68.6988 149.955C68.6988 149.955 71.5068 100.842 110.364 79.3223C113.094 78.5825 111.972 82.5498 111.972 82.5498C111.972 82.5498 122.649 75.9932 124.754 78.3532C126.859 80.7133 124.996 81.9506 124.996 81.9506C124.996 81.9506 134.181 77.9963 136.286 80.3564C138.391 82.7164 135.163 84.3237 135.163 84.3237C135.163 84.3237 145.088 83.0994 148.558 85.0895C152.028 87.0797 147.933 88.1894 147.933 88.1894C147.933 88.1894 168.764 92.0681 170.614 98.893C172.463 105.718 159.566 104.085 159.566 104.085C159.566 104.085 162.041 107.81 154.846 108.294C154.846 108.294 154.349 109.162 150.254 110.271C150.254 110.271 149.501 115.604 142.306 116.088C142.306 116.088 141.681 119.188 134.486 119.673C134.486 119.673 131.871 126.242 126.539 125.489C126.539 125.489 128.643 127.849 117.851 128.576C107.059 129.303 75.7789 143.641 71.7986 150.58C70.306 153.182 68.5711 152.187 68.6988 149.955Z" fill="#3CB200"/>
<path d="M78.893 81.5514C78.893 81.5514 43.7019 91.334 19.2759 69.1742C18.1024 67.4326 21.1596 67.272 21.1596 67.272C21.1596 67.272 13.9954 61.3368 15.1504 59.2926C16.3053 57.2483 17.6208 58.2612 17.6208 58.2612C17.6208 58.2612 12.6429 52.7521 13.7979 50.7079C14.9528 48.6636 16.855 50.5473 16.855 50.5473C16.855 50.5473 13.6188 43.8648 14.187 40.9497C14.7552 38.0347 16.5154 40.6471 16.5154 40.6471C16.5154 40.6471 14.2551 25.0773 18.6092 22.1438C22.9633 19.2102 24.9025 28.6657 24.9025 28.6657C24.9025 28.6657 26.9283 26.0347 28.991 30.9756C28.991 30.9756 29.7198 31.1176 31.48 33.7301C31.48 33.7301 35.4079 32.9828 37.4707 37.9236C37.4707 37.9236 39.7991 37.621 41.8618 42.5619C41.8618 42.5619 47.1053 42.8275 47.8525 46.7554C47.8525 46.7554 49.0075 44.7112 52.1016 52.1224C55.1958 59.5337 72.7603 78.0866 78.5904 79.2231C80.7767 79.6492 80.4926 81.1068 78.893 81.5514Z" fill="#41A20F"/>
<path d="M113.138 30.3043L161.943 72.0954C164.855 63.9774 166.976 45.0772 152.159 34.4203C137.343 23.7634 119.972 27.2359 113.138 30.3043Z" fill="#B9DE24"/>
<path d="M27.6289 56.4776C29.7673 56.4776 32.3413 57.1904 32.3413 60.002C32.3413 62.576 30.4405 65.3876 27.2725 65.3876L27.6289 56.4776ZM23.9065 52.6364C22.8769 76.1984 22.8373 79.802 22.8373 80.1188L26.5597 80.3564C30.9157 80.3564 35.3113 78.2972 35.3113 73.1492C35.3113 69.9416 33.4501 67.0904 30.0841 66.536C33.8065 65.546 35.1133 62.6156 35.1133 59.9228C35.1133 54.7352 30.6385 52.2404 23.9065 52.6364ZM27.2725 67.8824C30.2425 67.8824 32.2621 69.6248 32.2621 72.9116C32.2621 75.7628 30.3613 77.4656 27.4705 77.4656C27.3121 77.4656 27.1141 77.426 26.9161 77.426L27.2725 67.8824ZM49.8176 75.9608L42.2936 76.9112L43.1252 53.0324L38.8088 52.6364L39.2444 80.1584L50.2928 80.2772L49.8176 75.9608ZM64.9293 71.6444L63.0681 76.0004L57.9993 76.436L55.1877 71.7236L55.9401 52.6364L51.9801 52.3988L51.5841 74.0204L55.3857 79.9208L65.0085 80.1584L68.5725 74.456L69.2853 52.6364L64.4541 52.8344L64.9293 71.6444ZM83.2124 52.7552L72.956 52.9928L73.6292 80H83.8856L84.1232 76.7924L76.1636 77.228L76.0844 65.15L80.9948 64.8728L80.5988 62.6948L76.0448 63.2492L76.0052 55.8044L83.3708 56.3588L83.2124 52.7552ZM87.4001 52.6364L86.5685 80H96.3893L99.3197 77.7032V66.8924L95.9933 64.358L99.0821 56.8736L96.6269 52.7552L87.4001 52.6364ZM97.1813 68.4368L96.9833 75.8024L94.6469 77.5052L90.8453 77.1488L90.8849 66.8924L94.5281 66.2984L97.1813 68.4368ZM93.1025 64.2392L90.8849 64.6748L90.9245 55.1312L94.4885 55.0916L95.9537 57.2696L93.1025 64.2392ZM113.067 52.7552L102.811 52.9928L103.484 80H113.74L113.978 76.7924L106.018 77.228L105.939 65.15L110.85 64.8728L110.454 62.6948L105.9 63.2492L105.86 55.8044L113.226 56.3588L113.067 52.7552ZM120.304 68.3972L124.581 80.198L127.392 80L122.759 68.1596L125.373 68.12L127.392 65.3876V56.1608L124.977 52.874H116.423V80H119.512L119.156 68.4764L120.304 68.3972ZM118.68 55.2896H123.076L124.858 57.3884L124.739 63.8828L123.234 65.3876L119.037 65.546L118.68 55.2896ZM134.961 68.3972L139.237 80.198L142.049 80L137.416 68.1596L140.029 68.12L142.049 65.3876V56.1608L139.633 52.874L131.08 52.874V80H134.169L133.812 68.4764L134.961 68.3972ZM133.337 55.2896H137.733L139.515 57.3884L139.396 63.8828L137.891 65.3876L133.693 65.546L133.337 55.2896ZM155.142 52.7156L151.103 62.8532L146.272 52.874L142.906 53.072L149.717 66.4568L149.875 79.9604H153.994L153.598 66.536L159.3 52.9928L155.142 52.7156ZM54.7962 92.478L50.559 92.9532L47.1138 103.17L42.9162 92.7552L38.283 92.9136L36.9762 119.96L40.7778 120.158L40.8174 97.9032L44.817 107.645L47.7474 108.001L51.5886 98.4972L51.9054 119.881C51.9054 119.881 55.4298 119.881 56.0634 119.842L54.7962 92.478ZM76.2721 99.9228L71.3221 92.9532L64.3525 92.478L58.1353 99.5268L58.4521 113.308L63.5209 120.198L70.2133 120.119L75.5197 113.149L76.2721 99.9228ZM71.8765 112.634L68.6293 117.268L64.7881 117.149L61.8973 112.674L61.2637 101.903L66.0949 95.4876L69.0649 95.6064L72.1141 99.5268L71.8765 112.634ZM89.8004 114.496L83.9792 116.951L81.0488 111.684L77.762 113.862L81.524 120H88.2164L93.008 116.476L93.7604 92.874H89.1272L89.8004 114.496ZM105.68 95.4876L105.997 92.7552L96.7307 92.9532L96.9683 95.0124L99.5819 95.1708L100.097 118.06L97.4831 118.218L97.7999 120.119L105.324 120.04L105.76 117.624L102.829 117.862L103.265 95.3688L105.68 95.4876ZM123.567 92.3988L107.846 93.3096L108.004 95.5272H114.063L113.548 120.277L116.954 119.802L118.142 95.5272L123.409 95.6064L123.567 92.3988ZM142.981 99.9228L138.031 92.9532L131.061 92.478L124.844 99.5268L125.161 113.308L130.23 120.198L136.922 120.119L142.229 113.149L142.981 99.9228ZM138.585 112.634L135.338 117.268L131.497 117.149L128.606 112.674L127.973 101.903L132.804 95.4876L135.774 95.6064L138.823 99.5268L138.585 112.634Z" fill="white"/>
<path d="M96 21C96 29.2843 88.6127 36 79.5 36C70.3873 36 63 29.2843 63 21C63 12.7157 70.3873 6 79.5 6C88.6127 6 96 12.7157 96 21Z" fill="#713FFF"/>
<path d="M58 157C58 162.523 53.299 167 47.5 167C41.701 167 37 162.523 37 157C37 151.477 41.701 147 47.5 147C53.299 147 58 151.477 58 157Z" fill="#713FFF"/>
</g>
<defs>
<clipPath id="clip0_874_2286">
<rect width="180" height="180" fill="white"/>
</clipPath>
</defs>
</svg>
