<svg width="180" height="180" viewBox="0 0 180 180" fill="none" xmlns="http://www.w3.org/2000/svg">
<g clip-path="url(#clip0_873_1897)">
<rect width="180" height="180" fill="#F0C3E9"/>
<path d="M86 147C-6.00001 147 8.33333 64.5 -7 74.5C-9.66667 82.5 -18 192.958 -18 195.358C-18 197.758 126.667 186.691 199 180.858V96.858C194.333 79.358 177.6 40.458 148 24.858C111 5.358 71 29 58.5 58.5C48.5 82.1 55.6667 102.358 64 104.858C66.1667 92.858 77.5578 65.8894 105.5 67.858C143 70.5 145.71 147 86 147Z" fill="#71C3FF"/>
<path d="M61.2966 52.6364L60.465 80H70.2858L73.2162 77.7032V66.8924L69.8898 64.358L72.9786 56.8736L70.5234 52.7552L61.2966 52.6364ZM71.0778 68.4368L70.8798 75.8024L68.5434 77.5052L64.7418 77.1488L64.7814 66.8924L68.4246 66.2984L71.0778 68.4368ZM66.999 64.2392L64.7814 64.6748L64.821 55.1312L68.385 55.0916L69.8502 57.2696L66.999 64.2392ZM87.716 75.9608L80.192 76.9112L81.0236 53.0324L76.7072 52.6364L77.1428 80.1584L88.1912 80.2772L87.716 75.9608ZM102.828 71.6444L100.967 76.0004L95.8977 76.436L93.0861 71.7236L93.8385 52.6364L89.8785 52.3988L89.4825 74.0204L93.2841 79.9208L102.907 80.1584L106.471 74.456L107.184 52.6364L102.353 52.8344L102.828 71.6444ZM121.111 52.7552L110.854 52.9928L111.528 80H121.784L122.022 76.7924L114.062 77.228L113.983 65.15L118.893 64.8728L118.497 62.6948L113.943 63.2492L113.904 55.8044L121.269 56.3588L121.111 52.7552ZM47.4779 115.961L39.9539 116.911L40.7855 93.0324L36.4691 92.6364L36.9047 120.158L47.9531 120.277L47.4779 115.961ZM53.8866 92.3592L49.7682 119.683L53.0946 119.881L55.035 107.843L58.401 107.605L60.579 119.683L63.2322 119.96L58.2822 92.3592H53.8866ZM55.3518 106.1L56.6982 98.2992L58.1238 105.902L55.3518 106.1ZM83.5139 96.5964L79.9895 93.1116L75.1187 92.3196L68.2679 95.2104L64.9811 105.665L67.4363 117.07L75.0395 120.634L84.1079 117.901L83.8307 108.793L82.4843 107.209L77.9699 106.892V110.615L81.1775 110.377L80.9795 115.723L75.4751 116.99L70.5251 113.862L68.3075 105.982L71.1983 97.23L77.5343 95.4084L81.1775 98.8932L83.5139 96.5964ZM104.348 99.9228L99.3978 92.9532L92.4282 92.478L86.211 99.5268L86.5278 113.308L91.5966 120.198L98.289 120.119L103.595 113.149L104.348 99.9228ZM99.9522 112.634L96.705 117.268L92.8638 117.149L89.973 112.674L89.3394 101.903L94.1706 95.4876L97.1406 95.6064L100.19 99.5268L99.9522 112.634ZM124.767 99.9228L119.817 92.9532L112.847 92.478L106.63 99.5268L106.947 113.308L112.015 120.198L118.708 120.119L124.014 113.149L124.767 99.9228ZM120.371 112.634L117.124 117.268L113.283 117.149L110.392 112.674L109.758 101.903L114.589 95.4876L117.559 95.6064L120.609 99.5268L120.371 112.634ZM143.72 92.874L139.325 92.676L140.077 112.278L132.513 92.676H128.276L128.672 120.04L132.395 119.96L131.801 98.8536L139.919 119.96H143.047L143.72 92.874Z" fill="white"/>
</g>
<defs>
<clipPath id="clip0_873_1897">
<rect width="180" height="180" fill="white"/>
</clipPath>
</defs>
</svg>
