<svg width="180" height="180" viewBox="0 0 180 180" fill="none" xmlns="http://www.w3.org/2000/svg">
<g clip-path="url(#clip0_874_2286)">
<rect width="180" height="180" fill="#3A3F6D"/>
<path d="M68.6988 149.955C68.6988 149.955 71.5068 100.842 110.364 79.3223C113.094 78.5825 111.972 82.5498 111.972 82.5498C111.972 82.5498 122.649 75.9932 124.754 78.3532C126.859 80.7133 124.996 81.9506 124.996 81.9506C124.996 81.9506 134.181 77.9963 136.286 80.3564C138.391 82.7164 135.163 84.3237 135.163 84.3237C135.163 84.3237 145.088 83.0994 148.558 85.0895C152.028 87.0797 147.933 88.1894 147.933 88.1894C147.933 88.1894 168.764 92.0681 170.614 98.893C172.463 105.718 159.566 104.085 159.566 104.085C159.566 104.085 162.041 107.81 154.846 108.294C154.846 108.294 154.349 109.162 150.254 110.271C150.254 110.271 149.501 115.604 142.306 116.088C142.306 116.088 141.681 119.188 134.486 119.673C134.486 119.673 131.871 126.242 126.539 125.489C126.539 125.489 128.643 127.849 117.851 128.576C107.059 129.303 75.7789 143.641 71.7986 150.58C70.306 153.182 68.5711 152.187 68.6988 149.955Z" fill="#3CB200"/>
<path d="M78.893 81.5514C78.893 81.5514 43.7019 91.334 19.2759 69.1742C18.1024 67.4326 21.1596 67.272 21.1596 67.272C21.1596 67.272 13.9954 61.3368 15.1504 59.2926C16.3053 57.2483 17.6208 58.2612 17.6208 58.2612C17.6208 58.2612 12.6429 52.7521 13.7979 50.7079C14.9528 48.6636 16.855 50.5473 16.855 50.5473C16.855 50.5473 13.6188 43.8648 14.187 40.9497C14.7552 38.0347 16.5154 40.6471 16.5154 40.6471C16.5154 40.6471 14.2551 25.0773 18.6092 22.1438C22.9633 19.2102 24.9025 28.6657 24.9025 28.6657C24.9025 28.6657 26.9283 26.0347 28.991 30.9756C28.991 30.9756 29.7198 31.1176 31.48 33.7301C31.48 33.7301 35.4079 32.9828 37.4707 37.9237C37.4707 37.9237 39.7991 37.621 41.8618 42.5619C41.8618 42.5619 47.1053 42.8275 47.8525 46.7554C47.8525 46.7554 49.0075 44.7112 52.1016 52.1224C55.1958 59.5337 72.7603 78.0866 78.5904 79.2231C80.7767 79.6492 80.4926 81.1068 78.893 81.5514Z" fill="#41A20F"/>
<path d="M113.138 30.3043L161.943 72.0954C164.855 63.9774 166.976 45.0772 152.159 34.4203C137.343 23.7634 119.972 27.2359 113.138 30.3043Z" fill="#B9DE24"/>
<path d="M23.5335 52.6364L22.7019 80H32.5227L35.4531 77.7032V66.8924L32.1267 64.358L35.2155 56.8736L32.7603 52.7552L23.5335 52.6364ZM33.3147 68.4368L33.1167 75.8024L30.7803 77.5052L26.9787 77.1488L27.0183 66.8924L30.6615 66.2984L33.3147 68.4368ZM29.2359 64.2392L27.0183 64.6748L27.0579 55.1312L30.6219 55.0916L32.0871 57.2696L29.2359 64.2392ZM49.9529 75.9608L42.4289 76.9112L43.2605 53.0324L38.9441 52.6364L39.3797 80.1584L50.4281 80.2772L49.9529 75.9608ZM65.0646 71.6444L63.2034 76.0004L58.1347 76.436L55.3231 71.7236L56.0755 52.6364L52.1155 52.3988L51.7195 74.0204L55.5211 79.9208L65.1438 80.1584L68.7078 74.456L69.4206 52.6364L64.5894 52.8344L65.0646 71.6444ZM83.3478 52.7552L73.0914 52.9928L73.7646 80H84.021L84.2586 76.7924L76.299 77.228L76.2198 65.15L81.1302 64.8728L80.7342 62.6948L76.1802 63.2492L76.1406 55.8044L83.5062 56.3588L83.3478 52.7552ZM87.5355 52.6364L86.7039 80H96.5247L99.4551 77.7032V66.8924L96.1287 64.358L99.2175 56.8736L96.7623 52.7552L87.5355 52.6364ZM97.3167 68.4368L97.1187 75.8024L94.7823 77.5052L90.9807 77.1488L91.0203 66.8924L94.6635 66.2984L97.3167 68.4368ZM93.2379 64.2392L91.0203 64.6748L91.0599 55.1312L94.6239 55.0916L96.0891 57.2696L93.2379 64.2392ZM113.202 52.7552L102.946 52.9928L103.619 80H113.876L114.113 76.7924L106.154 77.228L106.074 65.15L110.985 64.8728L110.589 62.6948L106.035 63.2492L105.995 55.8044L113.361 56.3588L113.202 52.7552ZM120.439 68.3972L124.716 80.198L127.528 80L122.895 68.1596L125.508 68.12L127.528 65.3876V56.1608L125.112 52.874H116.559V80H119.647L119.291 68.4764L120.439 68.3972ZM118.816 55.2896H123.211L124.993 57.3884L124.875 63.8828L123.37 65.3876L119.172 65.546L118.816 55.2896ZM135.096 68.3972L139.373 80.198L142.184 80L137.551 68.1596L140.165 68.12L142.184 65.3876V56.1608L139.769 52.874L131.215 52.874V80H134.304L133.948 68.4764L135.096 68.3972ZM133.472 55.2896H137.868L139.65 57.3884L139.531 63.8828L138.026 65.3876L133.829 65.546L133.472 55.2896ZM155.277 52.7156L151.238 62.8532L146.407 52.874L143.041 53.072L149.852 66.4568L150.011 79.9604H154.129L153.733 66.536L159.435 52.9928L155.277 52.7156ZM56.053 92.478L51.8158 92.9532L48.3706 103.17L44.173 92.7552L39.5398 92.9136L38.233 119.96L42.0346 120.158L42.0742 97.9032L46.0738 107.645L49.0042 108.001L52.8454 98.4972L53.1622 119.881C53.1622 119.881 56.6866 119.881 57.3202 119.842L56.053 92.478ZM77.5289 99.9228L72.5789 92.9532L65.6093 92.478L59.3921 99.5268L59.7089 113.308L64.7777 120.198L71.4701 120.119L76.7765 113.149L77.5289 99.9228ZM73.1333 112.634L69.8861 117.268L66.0449 117.149L63.1541 112.674L62.5205 101.903L67.3517 95.4876L70.3217 95.6064L73.3709 99.5268L73.1333 112.634ZM82.1077 120.079H84.0481L83.6521 105.031H88.5229L88.7605 120.079H91.9285L90.9781 92.6364H88.3645L88.5229 103.091L83.6125 103.447L83.3353 92.6364H81.0385L82.1077 120.079ZM104.423 95.4876L104.74 92.7552L95.4739 92.9532L95.7115 95.0124L98.3251 95.1708L98.8399 118.06L96.2263 118.218L96.5431 120.119L104.067 120.04L104.503 117.624L101.572 117.862L102.008 95.3688L104.423 95.4876ZM122.31 92.3988L106.589 93.3096L106.748 95.5272H112.806L112.292 120.277L115.697 119.802L116.885 95.5272L122.152 95.6064L122.31 92.3988ZM141.724 99.9228L136.774 92.9532L129.805 92.478L123.587 99.5268L123.904 113.308L128.973 120.198L135.665 120.119L140.972 113.149L141.724 99.9228ZM137.329 112.634L134.081 117.268L130.24 117.149L127.349 112.674L126.716 101.903L131.547 95.4876L134.517 95.6064L137.566 99.5268L137.329 112.634Z" fill="white"/>
<path d="M96 21C96 29.2843 88.6127 36 79.5 36C70.3873 36 63 29.2843 63 21C63 12.7157 70.3873 6 79.5 6C88.6127 6 96 12.7157 96 21Z" fill="#713FFF"/>
<path d="M58 157C58 162.523 53.299 167 47.5 167C41.701 167 37 162.523 37 157C37 151.477 41.701 147 47.5 147C53.299 147 58 151.477 58 157Z" fill="#713FFF"/>
</g>
<defs>
<clipPath id="clip0_874_2286">
<rect width="180" height="180" fill="white"/>
</clipPath>
</defs>
</svg>
