<svg width="180" height="180" viewBox="0 0 180 180" fill="none" xmlns="http://www.w3.org/2000/svg">
<g clip-path="url(#clip0_874_2362)">
<rect width="180" height="180" fill="#4B93C7"/>
<ellipse cx="87.95" cy="116.634" rx="84.0283" ry="18.4233" transform="rotate(-12.877 87.95 116.634)" fill="#3A3935"/>
<path d="M24.5 83.4996L49.5 126.5L129.5 102.5L112.5 44C105.5 48.5004 77 43.4996 70 39.4996C63 35.4996 49.5 37.4996 45.5 51.4996C42.3 62.6996 30.1667 77.4996 24.5 83.4996Z" fill="#242320"/>
<path d="M22.3414 72.6364L21.5098 100H31.3306L34.261 97.7032V86.8924L30.9346 84.358L34.0234 76.8736L31.5682 72.7552L22.3414 72.6364ZM32.1226 88.4368L31.9246 95.8024L29.5882 97.5052L25.7866 97.1488L25.8262 86.8924L29.4694 86.2984L32.1226 88.4368ZM28.0438 84.2392L25.8262 84.6748L25.8658 75.1312L29.4298 75.0916L30.895 77.2696L28.0438 84.2392ZM54.6612 79.9228L49.7112 72.9532L42.7416 72.478L36.5244 79.5268L36.8412 93.3076L41.91 100.198L48.6024 100.119L53.9088 93.1492L54.6612 79.9228ZM50.2656 92.6344L47.0184 97.2676L43.1772 97.1488L40.2864 92.674L39.6528 81.9028L44.484 75.4876L47.454 75.6064L50.5032 79.5268L50.2656 92.6344ZM66.3775 72.7156L62.3383 82.8532L57.5071 72.874L54.1411 73.072L60.9523 86.4568L61.1107 99.9604H65.2291L64.8331 86.536L70.5355 72.9928L66.3775 72.7156ZM75.6269 72.3592L71.5085 99.6832L74.8349 99.8812L76.7753 87.8428L80.1413 87.6052L82.3193 99.6832L84.9725 99.9604L80.0225 72.3592H75.6269ZM77.0921 86.1004L78.4385 78.2992L79.8641 85.9024L77.0921 86.1004ZM91.7902 88.3972L96.067 100.198L98.8786 100L94.2454 88.1596L96.859 88.12L98.8786 85.3876V76.1608L96.463 72.874H87.9094V100H90.9982L90.6418 88.4764L91.7902 88.3972ZM90.1666 75.2896H94.5622L96.3442 77.3884L96.2254 83.8828L94.7206 85.3876L90.523 85.546L90.1666 75.2896ZM106.267 74.9728L111.217 77.4676L113.395 74.7352L109.158 72.3196L102.505 73.6264L101.001 81.2296L111.495 91.09L110.029 97.2676L105.436 96.832L102.981 93.1492L100.565 96.1588L103.812 99.9208L112.485 100.04L115.415 89.8624L104.248 79.5664L106.267 74.9728ZM119.204 72.7552L118.808 100.079L122.649 100.04L122.768 88.318L124.709 86.4568L135.876 100.673L138.767 98.6536L127.243 84.556L136.707 75.3688L134.49 73.0324L122.808 84.7144L122.927 72.9928L119.204 72.7552ZM147.723 75.4876L148.04 72.7552L138.774 72.9532L139.011 75.0124L141.625 75.1708L142.14 98.0596L139.526 98.218L139.843 100.119L147.367 100.04L147.803 97.624L144.872 97.8616L145.308 75.3688L147.723 75.4876ZM159.364 75.4876L159.68 72.7552L150.414 72.9532L150.652 75.0124L153.265 75.1708L153.78 98.0596L151.166 98.218L151.483 100.119L159.007 100.04L159.443 97.624L156.512 97.8616L156.948 75.3688L159.364 75.4876Z" fill="white"/>
<path d="M86.0324 151.056C83.4273 155.39 75.0084 159.123 71.1246 160.448C83.3698 164.655 98.0477 158.568 103.856 154.998L101.405 146.581C99.0111 144.169 89.2889 145.64 86.0324 151.056Z" fill="#232222"/>
<path d="M115.847 142.375C120.371 144.633 129.479 143.264 133.467 142.297C125.394 152.419 109.742 155.163 102.926 155.269L100.475 146.851C101.2 143.532 110.192 139.553 115.847 142.375Z" fill="#232222"/>
</g>
<defs>
<clipPath id="clip0_874_2362">
<rect width="180" height="180" fill="white"/>
</clipPath>
</defs>
</svg>
