<svg width="180" height="180" viewBox="0 0 180 180" fill="none" xmlns="http://www.w3.org/2000/svg">
<g clip-path="url(#clip0_874_2362)">
<rect width="180" height="180" fill="#4B93C7"/>
<ellipse cx="87.95" cy="116.634" rx="84.0283" ry="18.4233" transform="rotate(-12.877 87.95 116.634)" fill="#3A3935"/>
<path d="M24.5 83.4996L49.5 126.5L129.5 102.5L112.5 44C105.5 48.5004 77 43.4996 70 39.4996C63 35.4996 49.5 37.4996 45.5 51.4996C42.3 62.6996 30.1667 77.4996 24.5 83.4996Z" fill="#242320"/>
<path d="M29.4725 76.4776C31.6109 76.4776 34.1849 77.1904 34.1849 80.002C34.1849 82.576 32.2841 85.3876 29.1161 85.3876L29.4725 76.4776ZM25.7501 72.6364C24.7205 96.1984 24.6809 99.802 24.6809 100.119L28.4033 100.356C32.7593 100.356 37.1549 98.2972 37.1549 93.1492C37.1549 89.9416 35.2937 87.0904 31.9277 86.536C35.6501 85.546 36.9569 82.6156 36.9569 79.9228C36.9569 74.7352 32.4821 72.2404 25.7501 72.6364ZM29.1161 87.8824C32.0861 87.8824 34.1057 89.6248 34.1057 92.9116C34.1057 95.7628 32.2049 97.4656 29.3141 97.4656C29.1557 97.4656 28.9577 97.426 28.7597 97.426L29.1161 87.8824ZM57.5616 79.9228L52.6116 72.9532L45.642 72.478L39.4248 79.5268L39.7416 93.3076L44.8104 100.198L51.5028 100.119L56.8092 93.1492L57.5616 79.9228ZM53.166 92.6344L49.9188 97.2676L46.0776 97.1488L43.1868 92.674L42.5532 81.9028L47.3844 75.4876L50.3544 75.6064L53.4036 79.5268L53.166 92.6344ZM69.2779 72.7156L65.2387 82.8532L60.4075 72.874L57.0415 73.072L63.8527 86.4568L64.0111 99.9604H68.1295L67.7335 86.536L73.4359 72.9928L69.2779 72.7156ZM78.5273 72.3592L74.4089 99.6832L77.7353 99.8812L79.6757 87.8428L83.0417 87.6052L85.2197 99.6832L87.8729 99.9604L82.9229 72.3592H78.5273ZM79.9925 86.1004L81.3389 78.2992L82.7645 85.9024L79.9925 86.1004ZM94.6906 88.3972L98.9674 100.198L101.779 100L97.1458 88.1596L99.7594 88.12L101.779 85.3876V76.1608L99.3634 72.874H90.8098V100H93.8986L93.5422 88.4764L94.6906 88.3972ZM93.067 75.2896H97.4626L99.2446 77.3884L99.1258 83.8828L97.621 85.3876L93.4234 85.546L93.067 75.2896ZM109.168 74.9728L114.118 77.4676L116.296 74.7352L112.059 72.3196L105.406 73.6264L103.901 81.2296L114.395 91.09L112.93 97.2676L108.336 96.832L105.881 93.1492L103.465 96.1588L106.713 99.9208L115.385 100.04L118.315 89.8624L107.148 79.5664L109.168 74.9728ZM122.105 72.7552L121.709 100.079L125.55 100.04L125.669 88.318L127.609 86.4568L138.776 100.673L141.667 98.6536L130.143 84.556L139.608 75.3688L137.39 73.0324L125.708 84.7144L125.827 72.9928L122.105 72.7552ZM153.119 72.7156L149.079 82.8532L144.248 72.874L140.882 73.072L147.693 86.4568L147.852 99.9604H151.97L151.574 86.536L157.277 72.9928L153.119 72.7156Z" fill="white"/>
<path d="M86.0324 151.056C83.4273 155.39 75.0084 159.123 71.1246 160.448C83.3698 164.655 98.0477 158.568 103.856 154.998L101.405 146.581C99.0111 144.169 89.2889 145.64 86.0324 151.056Z" fill="#232222"/>
<path d="M115.847 142.375C120.371 144.633 129.479 143.264 133.467 142.297C125.394 152.419 109.742 155.163 102.926 155.269L100.475 146.851C101.2 143.532 110.192 139.553 115.847 142.375Z" fill="#232222"/>
</g>
<defs>
<clipPath id="clip0_874_2362">
<rect width="180" height="180" fill="white"/>
</clipPath>
</defs>
</svg>
