<svg width="180" height="180" viewBox="0 0 180 180" fill="none" xmlns="http://www.w3.org/2000/svg">
<g clip-path="url(#clip0_874_2603)">
<rect width="180" height="180" fill="#1F6981"/>
<path d="M29.0001 53C86.9996 119.367 134.795 80.653 151.444 53C155.74 98.3038 127.518 146.386 76.5 130.5C35.6855 117.791 30.4322 74.3771 29.0001 53Z" fill="#709DBD"/>
<path d="M18.6697 99.1424C29.2073 98.9288 34.6185 92.7344 34.6185 85.9704C34.6185 76.7856 25.8609 74.7208 18.2069 74.4004L18.6697 99.1424ZM22.2653 77.3196C27.0001 77.7468 30.5957 81.0932 30.5957 86.4688C30.5957 91.5952 27.5341 94.6568 21.9805 96.508L22.2653 77.3196ZM47.0003 74.5072L37.7799 74.7208L38.3851 99H47.6055L47.8191 96.1164L40.6635 96.508L40.5923 85.65L45.0067 85.4008L44.6507 83.4428L40.5567 83.9412L40.5211 77.2484L47.1427 77.7468L47.0003 74.5072ZM59.9142 95.3688L53.1502 96.2232L53.8978 74.7564L50.0174 74.4004L50.409 99.1424L60.3414 99.2492L59.9142 95.3688ZM69.4411 76.9636L69.7259 74.5072L61.3955 74.6852L61.6091 76.5364L63.9587 76.6788L64.4215 97.2556L62.0719 97.398L62.3567 99.1068L69.1207 99.0356L69.5123 96.864L66.8779 97.0776L67.2695 76.8568L69.4411 76.9636ZM76.4168 88.5692L80.2616 99.178L82.7892 99L78.624 88.3556L80.9736 88.32L82.7892 85.8636V77.5688L80.6176 74.614H72.928V99H75.7048L75.3844 88.6404L76.4168 88.5692ZM74.9572 76.7856H78.9088L80.5108 78.6724L80.404 84.5108L79.0512 85.8636L75.2776 86.006L74.9572 76.7856ZM101.305 80.9508L96.8554 74.6852L90.5898 74.258L85.0006 80.5948L85.2854 92.9836L89.8422 99.178L95.8586 99.1068L100.629 92.8412L101.305 80.9508ZM97.3538 92.3784L94.4346 96.5436L90.9814 96.4368L88.3826 92.414L87.813 82.7308L92.1562 76.9636L94.8262 77.0704L97.5674 80.5948L97.3538 92.3784ZM108.483 76.5008L112.933 78.7436L114.891 76.2872L111.082 74.1156L105.101 75.2904L103.748 82.1256L113.182 90.99L111.865 96.5436L107.736 96.152L105.528 92.8412L103.357 95.5468L106.276 98.9288L114.072 99.0356L116.707 89.8864L106.668 80.6304L108.483 76.5008ZM129.352 96.0452L123.051 96.4368L121.271 85.294L122.73 78.5656L129.245 77.7112L129.316 74.0444L121.342 74.97L117.924 86.184L120.879 99.2848L129.744 99.0712L129.352 96.0452ZM146.153 80.9508L141.703 74.6852L135.437 74.258L129.848 80.5948L130.133 92.9836L134.69 99.178L140.706 99.1068L145.477 92.8412L146.153 80.9508ZM142.201 92.3784L139.282 96.5436L135.829 96.4368L133.23 92.414L132.661 82.7308L137.004 76.9636L139.674 77.0704L142.415 80.5948L142.201 92.3784ZM159.525 77.5688L157.318 74.5784H149.308V99H152.049L151.693 88.6404L157.318 88.4624L159.49 85.828L159.525 77.5688ZM156.748 84.5464L155.396 85.828L151.622 85.9704L151.302 76.8212H155.253L156.855 78.6724L156.748 84.5464ZM171.009 74.5072L161.789 74.7208L162.394 99H171.615L171.828 96.1164L164.673 96.508L164.601 85.65L169.016 85.4008L168.66 83.4428L164.566 83.9412L164.53 77.2484L171.152 77.7468L171.009 74.5072Z" fill="white"/>
</g>
<defs>
<clipPath id="clip0_874_2603">
<rect width="180" height="180" fill="white"/>
</clipPath>
</defs>
</svg>
