<svg width="180" height="180" viewBox="0 0 180 180" fill="none" xmlns="http://www.w3.org/2000/svg">
<g clip-path="url(#clip0_874_2603)">
<rect width="180" height="180" fill="#1F6981"/>
<path d="M29.0001 53C86.9996 119.367 134.795 80.653 151.444 53C155.74 98.3038 127.518 146.386 76.5 130.5C35.6855 117.791 30.4322 74.3771 29.0001 53Z" fill="#709DBD"/>
<path d="M23.0221 74.4004L22.2745 99H31.1033L33.7377 96.9352V87.2164L30.7473 84.938L33.5241 78.2096L31.3169 74.5072L23.0221 74.4004ZM31.8153 88.6048L31.6373 95.2264L29.5369 96.7572L26.1193 96.4368L26.1549 87.2164L29.4301 86.6824L31.8153 88.6048ZM28.1485 84.8312L26.1549 85.2228L26.1905 76.6432L29.3945 76.6076L30.7117 78.5656L28.1485 84.8312ZM40.3648 88.5692L44.2096 99.178L46.7372 99L42.572 88.3556L44.9216 88.32L46.7372 85.8636V77.5688L44.5656 74.614H36.876V99H39.6528L39.3324 88.6404L40.3648 88.5692ZM38.9052 76.7856H42.8568L44.4588 78.6724L44.352 84.5108L42.9992 85.8636L39.2256 86.006L38.9052 76.7856ZM59.2726 74.5072L50.0522 74.7208L50.6574 99H59.8778L60.0914 96.1164L52.9358 96.508L52.8646 85.65L57.279 85.4008L56.923 83.4428L52.829 83.9412L52.7934 77.2484L59.415 77.7468L59.2726 74.5072ZM62.7881 99.178L73.6461 98.7864L78.3453 93.2328L78.8793 81.9832L73.0765 74.8988L62.2897 74.5072L62.7881 99.178ZM74.0377 91.702L71.4033 95.7248L66.0277 95.9384L66.3481 77.3908L71.1185 77.2484L74.7141 83.2292L74.0377 91.702ZM97.2378 80.9508L92.7878 74.6852L86.5222 74.258L80.933 80.5948L81.2178 92.9836L85.7746 99.178L91.791 99.1068L96.5614 92.8412L97.2378 80.9508ZM93.2862 92.3784L90.367 96.5436L86.9138 96.4368L84.315 92.414L83.7454 82.7308L88.0886 76.9636L90.7586 77.0704L93.4998 80.5948L93.2862 92.3784ZM104.416 76.5008L108.866 78.7436L110.824 76.2872L107.014 74.1156L101.034 75.2904L99.6808 82.1256L109.115 90.99L107.798 96.5436L103.668 96.152L101.461 92.8412L99.2892 95.5468L102.208 98.9288L110.005 99.0356L112.639 89.8864L102.6 80.6304L104.416 76.5008ZM125.284 96.0452L118.983 96.4368L117.203 85.294L118.663 78.5656L125.178 77.7112L125.249 74.0444L117.274 74.97L113.857 86.184L116.812 99.2848L125.676 99.0712L125.284 96.0452ZM142.085 80.9508L137.635 74.6852L131.37 74.258L125.781 80.5948L126.065 92.9836L130.622 99.178L136.639 99.1068L141.409 92.8412L142.085 80.9508ZM138.134 92.3784L135.215 96.5436L131.761 96.4368L129.163 92.414L128.593 82.7308L132.936 76.9636L135.606 77.0704L138.347 80.5948L138.134 92.3784ZM155.458 77.5688L153.25 74.5784H145.24V99H147.982L147.626 88.6404L153.25 88.4624L155.422 85.828L155.458 77.5688ZM152.681 84.5464L151.328 85.828L147.554 85.9704L147.234 76.8212H151.186L152.788 78.6724L152.681 84.5464ZM166.942 74.5072L157.721 74.7208L158.327 99H167.547L167.761 96.1164L160.605 96.508L160.534 85.65L164.948 85.4008L164.592 83.4428L160.498 83.9412L160.463 77.2484L167.084 77.7468L166.942 74.5072Z" fill="white"/>
</g>
<defs>
<clipPath id="clip0_874_2603">
<rect width="180" height="180" fill="white"/>
</clipPath>
</defs>
</svg>
