<svg width="180" height="180" viewBox="0 0 180 180" fill="none" xmlns="http://www.w3.org/2000/svg">
<g clip-path="url(#clip0_874_2227)">
<rect width="180" height="180" fill="#6B291A"/>
<circle cx="151" cy="153" r="53" fill="#F0C3E9"/>
<circle cx="70" cy="126" r="20" fill="#F0C3E9"/>
<circle cx="110" cy="45" r="11" fill="#F0C3E9"/>
<circle cx="75" cy="-8" r="46" fill="#F0C3E9"/>
<path d="M35.3865 72.6364L34.5549 100H44.3757L47.3061 97.7032V86.8924L43.9797 84.358L47.0685 76.8736L44.6133 72.7552L35.3865 72.6364ZM45.1677 88.4368L44.9697 95.8024L42.6333 97.5052L38.8317 97.1488L38.8713 86.8924L42.5145 86.2984L45.1677 88.4368ZM41.0889 84.2392L38.8713 84.6748L38.9109 75.1312L42.4749 75.0916L43.9401 77.2696L41.0889 84.2392ZM54.6779 88.3972L58.9546 100.198L61.7662 100L57.1331 88.1596L59.7467 88.12L61.7662 85.3876V76.1608L59.3507 72.874H50.7971V100H53.8859L53.5295 88.4764L54.6779 88.3972ZM53.0543 75.2896H57.4499L59.2318 77.3884L59.1131 83.8828L57.6083 85.3876L53.4107 85.546L53.0543 75.2896ZM77.7297 91.6444L75.8685 96.0004L70.7997 96.436L67.9881 91.7236L68.7405 72.6364L64.7805 72.3988L64.3845 94.0204L68.1861 99.9208L77.8089 100.158L81.3729 94.456L82.0857 72.6364L77.2545 72.8344L77.7297 91.6444ZM102.111 72.478L97.874 72.9532L94.4288 83.17L90.2312 72.7552L85.598 72.9136L84.2912 99.9604L88.0928 100.158L88.1324 77.9032L92.132 87.6448L95.0624 88.0012L98.9036 78.4972L99.2204 99.8812C99.2204 99.8812 102.745 99.8812 103.378 99.8416L102.111 72.478ZM107.51 72.6364L106.678 100H116.499L119.429 97.7032V86.8924L116.103 84.358L119.192 76.8736L116.736 72.7552L107.51 72.6364ZM117.291 88.4368L117.093 95.8024L114.756 97.5052L110.955 97.1488L110.994 86.8924L114.638 86.2984L117.291 88.4368ZM113.212 84.2392L110.994 84.6748L111.034 75.1312L114.598 75.0916L116.063 77.2696L113.212 84.2392ZM133.929 95.9608L126.405 96.9112L127.236 73.0324L122.92 72.6364L123.356 100.158L134.404 100.277L133.929 95.9608ZM147.021 72.7552L136.765 72.9928L137.438 100H147.694L147.932 96.7924L139.972 97.228L139.893 85.15L144.803 84.8728L144.407 82.6948L139.853 83.2492L139.814 75.8044L147.179 76.3588L147.021 72.7552Z" fill="white"/>
</g>
<defs>
<clipPath id="clip0_874_2227">
<rect width="180" height="180" fill="white"/>
</clipPath>
</defs>
</svg>
