<svg width="180" height="180" viewBox="0 0 180 180" fill="none" xmlns="http://www.w3.org/2000/svg">
<g clip-path="url(#clip0_874_2716)">
<rect width="180" height="180" fill="#3EC26B"/>
<path d="M3.5 185L57 148.5L93 169.5V185H3.5Z" fill="#304034"/>
<path d="M187.5 185.5L134 149L98 170V185.5H187.5Z" fill="#304034"/>
<path d="M94.1681 79.237C113.959 79.2772 129.986 88.0454 129.946 107.837C129.905 127.628 113.829 143.64 94.0371 143.599C74.2458 143.559 58.2343 127.482 58.2745 107.691C58.3148 87.8996 74.3767 79.1967 94.1681 79.237Z" fill="#478358"/>
<path d="M137.5 74C109.1 64.4 67 70 49.5 74L47 69.5L60.5 64V8.5L123 16.5L121 64C126.6 64.4 134.333 67.8333 137.5 69.5V74Z" fill="#304034"/>
<path d="M48.0814 59.4756C43.3466 59.2976 39.395 57.3752 39.395 51.0384C39.395 43.8828 42.7058 40.6788 48.8646 40.6788V38.4716C48.3306 38.4004 47.7966 38.4004 47.2982 38.4004C40.3918 38.4004 36.2978 44.0252 36.2978 51.6436C36.2978 58.4076 40.285 63.2848 46.9778 63.2848C47.3338 63.2848 47.6898 63.2848 48.0814 63.2492V59.4756ZM53.615 38.1512L49.9126 62.7152L52.903 62.8932L54.6474 52.0708L57.6734 51.8572L59.6314 62.7152L62.0166 62.9644L57.5666 38.1512H53.615ZM54.9322 50.5044L56.1426 43.4912L57.4242 50.3264L54.9322 50.5044ZM68.1457 52.5692L71.9905 63.178L74.5181 63L70.3529 52.3556L72.7025 52.32L74.5181 49.8636V41.5688L72.3465 38.614H64.6569V63H67.4337L67.1133 52.6404L68.1457 52.5692ZM66.6861 40.7856H70.6377L72.2397 42.6724L72.1329 48.5108L70.7801 49.8636L67.0065 50.006L66.6861 40.7856ZM79.8978 38.1512L76.1954 62.7152L79.1858 62.8932L80.9302 52.0708L83.9562 51.8572L85.9142 62.7152L88.2994 62.9644L83.8494 38.1512H79.8978ZM81.215 50.5044L82.4254 43.4912L83.707 50.3264L81.215 50.5044ZM106.407 38.258L102.598 38.6852L99.5009 47.87L95.7273 38.5072L91.5621 38.6496L90.3873 62.9644L93.8049 63.1424L93.8405 43.1352L97.4361 51.8928L100.071 52.2132L103.524 43.6692L103.809 62.8932C103.809 62.8932 106.977 62.8932 107.547 62.8576L106.407 38.258ZM119.733 38.5072L110.513 38.7208L111.118 63H120.338L120.552 60.1164L113.396 60.508L113.325 49.65L117.74 49.4008L117.384 47.4428L113.29 47.9412L113.254 41.2484L119.876 41.7468L119.733 38.5072ZM132.647 59.3688L125.883 60.2232L126.631 38.7564L122.75 38.4004L123.142 63.1424L133.074 63.2492L132.647 59.3688ZM134.84 51.3232L142.815 51.9996L143.171 49.1872H134.84V51.3232ZM58.9341 74.1512L55.2317 98.7152L58.2221 98.8932L59.9665 88.0708L62.9925 87.8572L64.9505 98.7152L67.3357 98.9644L62.8857 74.1512H58.9341ZM60.2513 86.5044L61.4617 79.4912L62.7433 86.3264L60.2513 86.5044ZM80.1932 77.5688L77.986 74.5784H69.976V99H72.7172L72.3612 88.6404L77.986 88.4624L80.1576 85.828L80.1932 77.5688ZM77.4164 84.5464L76.0636 85.828L72.29 85.9704L71.9696 76.8212H75.9212L77.5232 78.6724L77.4164 84.5464ZM92.674 77.5688L90.4668 74.5784H82.4568V99H85.198L84.842 88.6404L90.4668 88.4624L92.6384 85.828L92.674 77.5688ZM89.8972 84.5464L88.5444 85.828L84.7708 85.9704L84.4504 76.8212H88.402L90.004 78.6724L89.8972 84.5464ZM104.835 95.3688L98.0705 96.2232L98.8181 74.7564L94.9377 74.4004L95.3293 99.1424L105.262 99.2492L104.835 95.3688ZM116.604 74.5072L107.384 74.7208L107.989 99H117.209L117.423 96.1164L110.267 96.508L110.196 85.65L114.611 85.4008L114.255 83.4428L110.161 83.9412L110.125 77.2484L116.747 77.7468L116.604 74.5072ZM75.6745 110.258L71.8653 110.685L68.7681 119.87L64.9945 110.507L60.8293 110.65L59.6545 134.964L63.0721 135.142L63.1077 115.135L66.7033 123.893L69.3377 124.213L72.7909 115.669L73.0757 134.893C73.0757 134.893 76.2441 134.893 76.8137 134.858L75.6745 110.258ZM91.5807 127.488L89.9075 131.404L85.3507 131.796L82.8231 127.56L83.4995 110.4L79.9395 110.187L79.5835 129.624L83.0011 134.929L91.6519 135.142L94.8559 130.016L95.4967 110.4L91.1535 110.578L91.5807 127.488ZM108.693 131.369L101.929 132.223L102.677 110.756L98.7967 110.4L99.1883 135.142L109.121 135.249L108.693 131.369ZM120.463 110.507L111.243 110.721L111.848 135H121.068L121.282 132.116L114.126 132.508L114.055 121.65L118.47 121.401L118.114 119.443L114.02 119.941L113.984 113.248L120.606 113.747L120.463 110.507Z" fill="white"/>
<path d="M92 153L57 141.5V148.5L92 171V153Z" fill="#CBF1D6"/>
<path d="M99 153.5L134 142V149L99 171.5V153.5Z" fill="#CBF1D6"/>
<path d="M107.5 156.5H87.5L91 172L86 183H106L99 172L107.5 156.5Z" fill="#FFBE3F"/>
</g>
<defs>
<clipPath id="clip0_874_2716">
<rect width="180" height="180" fill="white"/>
</clipPath>
</defs>
</svg>
