<svg width="180" height="180" viewBox="0 0 180 180" fill="none" xmlns="http://www.w3.org/2000/svg">
<g clip-path="url(#clip0_874_2716)">
<rect width="180" height="180" fill="#3EC26B"/>
<path d="M3.5 185L57 148.5L93 169.5V185H3.5Z" fill="#304034"/>
<path d="M187.5 185.5L134 149L98 170V185.5H187.5Z" fill="#304034"/>
<path d="M94.1681 79.237C113.959 79.2772 129.986 88.0454 129.946 107.837C129.905 127.628 113.829 143.64 94.0371 143.599C74.2458 143.559 58.2343 127.482 58.2745 107.691C58.3148 87.8996 74.3767 79.1967 94.1681 79.237Z" fill="#478358"/>
<path d="M137.5 74C109.1 64.4 67 70 49.5 74L47 69.5L60.5 64V8.5L123 16.5L121 64C126.6 64.4 134.333 67.8333 137.5 69.5V74Z" fill="#304034"/>
<path d="M53.7051 60.0452L47.4039 60.4368L45.6239 49.294L47.0835 42.5656L53.5983 41.7112L53.6695 38.0444L45.6951 38.97L42.2775 50.184L45.2323 63.2848L54.0967 63.0712L53.7051 60.0452ZM59.5252 38.1512L55.8228 62.7152L58.8132 62.8932L60.5576 52.0708L63.5836 51.8572L65.5416 62.7152L67.9268 62.9644L63.4768 38.1512H59.5252ZM60.8424 50.5044L62.0528 43.4912L63.3344 50.3264L60.8424 50.5044ZM74.0558 52.5692L77.9006 63.178L80.4282 63L76.263 52.3556L78.6126 52.32L80.4282 49.8636V41.5688L78.2566 38.614H70.567V63H73.3438L73.0234 52.6404L74.0558 52.5692ZM72.5962 40.7856H76.5478L78.1498 42.6724L78.043 48.5108L76.6902 49.8636L72.9166 50.006L72.5962 40.7856ZM85.808 38.1512L82.1056 62.7152L85.096 62.8932L86.8404 52.0708L89.8664 51.8572L91.8244 62.7152L94.2096 62.9644L89.7596 38.1512H85.808ZM87.1252 50.5044L88.3356 43.4912L89.6172 50.3264L87.1252 50.5044ZM112.317 38.258L108.508 38.6852L105.411 47.87L101.637 38.5072L97.4723 38.6496L96.2975 62.9644L99.7151 63.1424L99.7507 43.1352L103.346 51.8928L105.981 52.2132L109.434 43.6692L109.719 62.8932C109.719 62.8932 112.887 62.8932 113.457 62.8576L112.317 38.258ZM125.643 38.5072L116.423 38.7208L117.028 63H126.248L126.462 60.1164L119.306 60.508L119.235 49.65L123.65 49.4008L123.294 47.4428L119.2 47.9412L119.164 41.2484L125.786 41.7468L125.643 38.5072ZM138.557 59.3688L131.793 60.2232L132.541 38.7564L128.66 38.4004L129.052 63.1424L138.984 63.2492L138.557 59.3688ZM62.9148 74.1512L59.2124 98.7152L62.2028 98.8932L63.9472 88.0708L66.9732 87.8572L68.9312 98.7152L71.3164 98.9644L66.8664 74.1512H62.9148ZM64.232 86.5044L65.4424 79.4912L66.724 86.3264L64.232 86.5044ZM84.1738 77.5688L81.9666 74.5784H73.9566V99H76.6978L76.3418 88.6404L81.9666 88.4624L84.1382 85.828L84.1738 77.5688ZM81.397 84.5464L80.0442 85.828L76.2706 85.9704L75.9502 76.8212H79.9018L81.5038 78.6724L81.397 84.5464ZM96.6547 77.5688L94.4475 74.5784H86.4375V99H89.1787L88.8227 88.6404L94.4475 88.4624L96.6191 85.828L96.6547 77.5688ZM93.8779 84.5464L92.5251 85.828L88.7515 85.9704L88.4311 76.8212H92.3827L93.9847 78.6724L93.8779 84.5464ZM108.815 95.3688L102.051 96.2232L102.799 74.7564L98.9184 74.4004L99.31 99.1424L109.242 99.2492L108.815 95.3688ZM120.585 74.5072L111.364 74.7208L111.97 99H121.19L121.404 96.1164L114.248 96.508L114.177 85.65L118.591 85.4008L118.235 83.4428L114.141 83.9412L114.106 77.2484L120.727 77.7468L120.585 74.5072ZM75.6745 110.258L71.8653 110.685L68.7681 119.87L64.9945 110.507L60.8293 110.65L59.6545 134.964L63.0721 135.142L63.1077 115.135L66.7033 123.893L69.3377 124.213L72.7909 115.669L73.0757 134.893C73.0757 134.893 76.2441 134.893 76.8137 134.858L75.6745 110.258ZM91.5807 127.488L89.9075 131.404L85.3507 131.796L82.8231 127.56L83.4995 110.4L79.9395 110.187L79.5835 129.624L83.0011 134.929L91.6519 135.142L94.8559 130.016L95.4967 110.4L91.1535 110.578L91.5807 127.488ZM108.693 131.369L101.929 132.223L102.677 110.756L98.7967 110.4L99.1883 135.142L109.121 135.249L108.693 131.369ZM120.463 110.507L111.243 110.721L111.848 135H121.068L121.282 132.116L114.126 132.508L114.055 121.65L118.47 121.401L118.114 119.443L114.02 119.941L113.984 113.248L120.606 113.747L120.463 110.507Z" fill="white"/>
<path d="M92 153L57 141.5V148.5L92 171V153Z" fill="#CBF1D6"/>
<path d="M99 153.5L134 142V149L99 171.5V153.5Z" fill="#CBF1D6"/>
<path d="M107.5 156.5H87.5L91 172L86 183H106L99 172L107.5 156.5Z" fill="#FFBE3F"/>
</g>
<defs>
<clipPath id="clip0_874_2716">
<rect width="180" height="180" fill="white"/>
</clipPath>
</defs>
</svg>
