<svg width="180" height="180" viewBox="0 0 180 180" fill="none" xmlns="http://www.w3.org/2000/svg">
<g clip-path="url(#clip0_874_2680)">
<rect width="180" height="180" fill="#CC4163"/>
<path d="M53.9287 114.408C41.5423 102.833 7.14674 100.398 -8.50274 100.628L-11 182.622L186.283 184C196.439 174.354 211.456 146.93 190.279 114.408C163.808 73.7559 122.354 104.762 114.362 114.408C106.371 124.055 69.4117 128.878 53.9287 114.408Z" fill="#824C40"/>
<path d="M158 55.5L88 42L61 146.5H113L158 55.5Z" fill="#824C40"/>
<path d="M35.7817 76.0796C30.5149 75.8816 26.1193 73.7432 26.1193 66.6944C26.1193 58.7348 29.8021 55.1708 36.6529 55.1708V52.7156C36.0589 52.6364 35.4649 52.6364 34.9105 52.6364C27.2281 52.6364 22.6741 58.8932 22.6741 67.3676C22.6741 74.8916 27.1093 80.3168 34.5541 80.3168C34.9501 80.3168 35.3461 80.3168 35.7817 80.2772V76.0796ZM41.937 52.3592L37.8186 79.6832L41.145 79.8812L43.0854 67.8428L46.4514 67.6052L48.6294 79.6832L51.2826 79.9604L46.3326 52.3592H41.937ZM43.4022 66.1004L44.7486 58.2992L46.1742 65.9024L43.4022 66.1004ZM58.1003 68.3972L62.3771 80.198L65.1887 80L60.5555 68.1596L63.1691 68.12L65.1887 65.3876V56.1608L62.7731 52.874H54.2195V80H57.3083L56.9519 68.4764L58.1003 68.3972ZM56.4767 55.2896H60.8723L62.6543 57.3884L62.5355 63.8828L61.0307 65.3876L56.8331 65.546L56.4767 55.2896ZM72.757 68.3972L77.0338 80.198L79.8454 80L75.2122 68.1596L77.8258 68.12L79.8454 65.3876V56.1608L77.4298 52.874H68.8762V80H71.965L71.6086 68.4764L72.757 68.3972ZM71.1334 55.2896H75.529L77.311 57.3884L77.1922 63.8828L75.6874 65.3876L71.4898 65.546L71.1334 55.2896ZM91.2944 55.4876L91.6112 52.7552L82.3448 52.9532L82.5824 55.0124L85.196 55.1708L85.7108 78.0596L83.0972 78.218L83.414 80.1188L90.938 80.0396L91.3736 77.624L88.4432 77.8616L88.8788 55.3688L91.2944 55.4876ZM96.0046 52.6364L95.173 80H104.994L107.924 77.7032V66.8924L104.598 64.358L107.687 56.8736L105.231 52.7552L96.0046 52.6364ZM105.786 68.4368L105.588 75.8024L103.251 77.5052L99.4498 77.1488L99.4894 66.8924L103.133 66.2984L105.786 68.4368ZM101.707 64.2392L99.4894 64.6748L99.529 55.1312L103.093 55.0916L104.558 57.2696L101.707 64.2392ZM121.672 52.7552L111.415 52.9928L112.088 80H122.345L122.582 76.7924L114.623 77.228L114.544 65.15L119.454 64.8728L119.058 62.6948L114.504 63.2492L114.464 55.8044L121.83 56.3588L121.672 52.7552ZM128.601 52.3592L124.482 79.6832L127.809 79.8812L129.749 67.8428L133.115 67.6052L135.293 79.6832L137.946 79.9604L132.996 52.3592H128.601ZM130.066 66.1004L131.412 58.2992L132.838 65.9024L130.066 66.1004ZM156.327 52.874L151.932 52.676L152.684 72.278L145.12 52.676H140.883L141.279 80.0396L145.002 79.9604L144.408 58.8536L152.526 79.9604H155.654L156.327 52.874ZM33.5874 116.713L26.5783 117.149L24.5983 104.754L26.2219 97.2696L33.4686 96.3192L33.5479 92.2404L24.6775 93.27L20.8759 105.744L24.1627 120.317L34.023 120.079L33.5874 116.713ZM36.8229 120.079H38.7633L38.3673 105.031H43.2381L43.4757 120.079H46.6437L45.6933 92.6364H43.0797L43.2381 103.091L38.3277 103.447L38.0505 92.6364H35.7537L36.8229 120.079ZM68.2863 99.9228L63.3363 92.9532L56.3667 92.478L50.1495 99.5268L50.4663 113.308L55.5351 120.198L62.2275 120.119L67.5339 113.149L68.2863 99.9228ZM63.8907 112.634L60.6435 117.268L56.8023 117.149L53.9115 112.674L53.2779 101.903L58.1091 95.4876L61.0791 95.6064L64.1283 99.5268L63.8907 112.634ZM83.3195 116.713L76.3103 117.149L74.3303 104.754L75.9539 97.2696L83.2007 96.3192L83.2799 92.2404L74.4095 93.27L70.6079 105.744L73.8947 120.317L83.7551 120.079L83.3195 116.713ZM102.008 99.9228L97.0582 92.9532L90.0886 92.478L83.8714 99.5268L84.1882 113.308L89.257 120.198L95.9494 120.119L101.256 113.149L102.008 99.9228ZM97.6126 112.634L94.3654 117.268L90.5242 117.149L87.6334 112.674L86.9998 101.903L91.831 95.4876L94.801 95.6064L97.8502 99.5268L97.6126 112.634ZM116.527 115.961L109.003 116.911L109.834 93.0324L105.518 92.6364L105.953 120.158L117.002 120.277L116.527 115.961ZM122.935 92.3592L118.817 119.683L122.143 119.881L124.084 107.843L127.45 107.605L129.628 119.683L132.281 119.96L127.331 92.3592H122.935ZM124.4 106.1L125.747 98.2992L127.172 105.902L124.4 106.1ZM146.751 92.3988L131.03 93.3096L131.188 95.5272H137.247L136.732 120.277L140.138 119.802L141.326 95.5272L146.593 95.6064L146.751 92.3988ZM159.512 92.7552L149.256 92.9928L149.929 120H160.185L160.423 116.792L152.463 117.228L152.384 105.15L157.294 104.873L156.898 102.695L152.344 103.249L152.305 95.8044L159.67 96.3588L159.512 92.7552Z" fill="white"/>
<path d="M72.5081 160.357C38.0081 138.357 -6.99187 157.857 -9.49188 160.357C-13.4919 170.024 -21.7919 190.257 -22.9919 193.857C-24.1919 197.457 107.841 190.691 174.008 186.857C151.675 185.357 100.108 177.957 72.5081 160.357Z" fill="#653D35"/>
</g>
<defs>
<clipPath id="clip0_874_2680">
<rect width="180" height="180" fill="white"/>
</clipPath>
</defs>
</svg>
