<svg width="180" height="180" viewBox="0 0 180 180" fill="none" xmlns="http://www.w3.org/2000/svg">
<g clip-path="url(#clip0_874_2680)">
<rect width="180" height="180" fill="#CC4163"/>
<path d="M53.9287 114.408C41.5423 102.833 7.14674 100.398 -8.50274 100.628L-11 182.622L186.283 184C196.439 174.354 211.456 146.93 190.279 114.408C163.808 73.7559 122.354 104.762 114.362 114.408C106.371 124.055 69.4117 128.878 53.9287 114.408Z" fill="#824C40"/>
<path d="M158 55.5L88 42L61 146.5H113L158 55.5Z" fill="#824C40"/>
<path d="M34.6316 56.7132L27.6224 57.1488L25.6424 44.754L27.266 37.2696L34.5128 36.3192L34.592 32.2404L25.7216 33.27L21.92 45.744L25.2068 60.3168L35.0672 60.0792L34.6316 56.7132ZM41.1056 32.3592L36.9872 59.6832L40.3136 59.8812L42.254 47.8428L45.62 47.6052L47.798 59.6832L50.4512 59.9604L45.5012 32.3592H41.1056ZM42.5708 46.1004L43.9172 38.2992L45.3428 45.9024L42.5708 46.1004ZM57.2689 48.3972L61.5457 60.198L64.3573 60L59.7241 48.1596L62.3377 48.12L64.3573 45.3876V36.1608L61.9417 32.874H53.3881V60H56.4769L56.1205 48.4764L57.2689 48.3972ZM55.6453 35.2896H60.0409L61.8229 37.3884L61.7041 43.8828L60.1993 45.3876L56.0017 45.546L55.6453 35.2896ZM75.8063 35.4876L76.1231 32.7552L66.8567 32.9532L67.0943 35.0124L69.7079 35.1708L70.2227 58.0596L67.6091 58.218L67.9259 60.1188L75.4499 60.0396L75.8855 57.624L72.9551 57.8616L73.3907 35.3688L75.8063 35.4876ZM80.5165 32.6364L79.6849 60H89.5057L92.4361 57.7032V46.8924L89.1097 44.358L92.1985 36.8736L89.7433 32.7552L80.5165 32.6364ZM90.2977 48.4368L90.0997 55.8024L87.7633 57.5052L83.9617 57.1488L84.0013 46.8924L87.6445 46.2984L90.2977 48.4368ZM86.2189 44.2392L84.0013 44.6748L84.0409 35.1312L87.6049 35.0916L89.0701 37.2696L86.2189 44.2392ZM96.7587 32.6364L95.9271 60H105.748L108.678 57.7032V46.8924L105.352 44.358L108.441 36.8736L105.986 32.7552L96.7587 32.6364ZM106.54 48.4368L106.342 55.8024L104.006 57.5052L100.204 57.1488L100.244 46.8924L103.887 46.2984L106.54 48.4368ZM102.461 44.2392L100.244 44.6748L100.283 35.1312L103.847 35.0916L105.312 37.2696L102.461 44.2392ZM122.426 32.7552L112.169 32.9928L112.843 60H123.099L123.337 56.7924L115.377 57.228L115.298 45.15L120.208 44.8728L119.812 42.6948L115.258 43.2492L115.219 35.8044L122.584 36.3588L122.426 32.7552ZM129.355 32.3592L125.236 59.6832L128.563 59.8812L130.503 47.8428L133.869 47.6052L136.047 59.6832L138.7 59.9604L133.75 32.3592H129.355ZM130.82 46.1004L132.166 38.2992L133.592 45.9024L130.82 46.1004ZM157.081 32.874L152.686 32.676L153.438 52.278L145.874 32.676H141.637L142.033 60.0396L145.756 59.9604L145.162 38.8536L153.28 59.9604H156.408L157.081 32.874ZM68.4952 100.079H70.4356L70.0396 85.0312H74.9104L75.148 100.079H78.316L77.3656 72.6364H74.752L74.9104 83.0908L70 83.4472L69.7228 72.6364H67.426L68.4952 100.079ZM99.9586 79.9228L95.0086 72.9532L88.039 72.478L81.8218 79.5268L82.1386 93.3076L87.2074 100.198L93.8998 100.119L99.2062 93.1492L99.9586 79.9228ZM95.563 92.6344L92.3158 97.2676L88.4746 97.1488L85.5838 92.674L84.9502 81.9028L89.7814 75.4876L92.7514 75.6064L95.8006 79.5268L95.563 92.6344ZM115.001 72.3988L99.2801 73.3096L99.4385 75.5272H105.497L104.983 100.277L108.388 99.802L109.576 75.5272L114.843 75.6064L115.001 72.3988ZM33.5874 136.713L26.5783 137.149L24.5983 124.754L26.2219 117.27L33.4686 116.319L33.5479 112.24L24.6775 113.27L20.8759 125.744L24.1627 140.317L34.023 140.079L33.5874 136.713ZM36.8229 140.079H38.7633L38.3673 125.031H43.2381L43.4757 140.079H46.6437L45.6933 112.636H43.0797L43.2381 123.091L38.3277 123.447L38.0505 112.636H35.7537L36.8229 140.079ZM68.2863 119.923L63.3363 112.953L56.3667 112.478L50.1495 119.527L50.4663 133.308L55.5351 140.198L62.2275 140.119L67.5339 133.149L68.2863 119.923ZM63.8907 132.634L60.6435 137.268L56.8023 137.149L53.9115 132.674L53.2779 121.903L58.1091 115.488L61.0791 115.606L64.1283 119.527L63.8907 132.634ZM83.3195 136.713L76.3103 137.149L74.3303 124.754L75.9539 117.27L83.2007 116.319L83.2799 112.24L74.4095 113.27L70.6079 125.744L73.8947 140.317L83.7551 140.079L83.3195 136.713ZM102.008 119.923L97.0582 112.953L90.0886 112.478L83.8714 119.527L84.1882 133.308L89.257 140.198L95.9494 140.119L101.256 133.149L102.008 119.923ZM97.6126 132.634L94.3654 137.268L90.5242 137.149L87.6334 132.674L86.9998 121.903L91.831 115.488L94.801 115.606L97.8502 119.527L97.6126 132.634ZM116.527 135.961L109.003 136.911L109.834 113.032L105.518 112.636L105.953 140.158L117.002 140.277L116.527 135.961ZM122.935 112.359L118.817 139.683L122.143 139.881L124.084 127.843L127.45 127.605L129.628 139.683L132.281 139.96L127.331 112.359H122.935ZM124.4 126.1L125.747 118.299L127.172 125.902L124.4 126.1ZM146.751 112.399L131.03 113.31L131.188 115.527H137.247L136.732 140.277L140.138 139.802L141.326 115.527L146.593 115.606L146.751 112.399ZM159.512 112.755L149.256 112.993L149.929 140H160.185L160.423 136.792L152.463 137.228L152.384 125.15L157.294 124.873L156.898 122.695L152.344 123.249L152.305 115.804L159.67 116.359L159.512 112.755Z" fill="white"/>
<path d="M72.5081 160.357C38.0081 138.357 -6.99187 157.857 -9.49188 160.357C-13.4919 170.024 -21.7919 190.257 -22.9919 193.857C-24.1919 197.457 107.841 190.691 174.008 186.857C151.675 185.357 100.108 177.957 72.5081 160.357Z" fill="#653D35"/>
</g>
<defs>
<clipPath id="clip0_874_2680">
<rect width="180" height="180" fill="white"/>
</clipPath>
</defs>
</svg>
