<svg width="180" height="180" viewBox="0 0 180 180" fill="none" xmlns="http://www.w3.org/2000/svg">
<g clip-path="url(#clip0_874_2768)">
<rect width="180" height="180" fill="#EAB144"/>
<path d="M15 172L81 45.5L144 75.5L15 172Z" fill="#C62E2E"/>
<path d="M158.5 51.0001L118.5 58.0001C127.167 46.8334 144.7 24.2001 145.5 23.0001C146.3 21.8001 154.5 41.1667 158.5 51.0001Z" fill="#4CB469"/>
<path d="M128 0L115.5 56L102.5 13L128 0Z" fill="#4CB469"/>
<path d="M60.2206 78.0452L53.9194 78.4368L52.1394 67.294L53.599 60.5656L60.1138 59.7112L60.185 56.0444L52.2106 56.97L48.793 68.184L51.7478 81.2848L60.6122 81.0712L60.2206 78.0452ZM66.0406 56.1512L62.3382 80.7152L65.3286 80.8932L67.073 70.0708L70.099 69.8572L72.057 80.7152L74.4422 80.9644L69.9922 56.1512H66.0406ZM67.3578 68.5044L68.5682 61.4912L69.8498 68.3264L67.3578 68.5044ZM80.5713 70.5692L84.4161 81.178L86.9437 81L82.7785 70.3556L85.1281 70.32L86.9437 67.8636V59.5688L84.7721 56.614H77.0825V81H79.8593L79.5389 70.6404L80.5713 70.5692ZM79.1117 58.7856H83.0633L84.6653 60.6724L84.5585 66.5108L83.2057 67.8636L79.4321 68.006L79.1117 58.7856ZM93.7475 70.5692L97.5923 81.178L100.12 81L95.9547 70.3556L98.3043 70.32L100.12 67.8636V59.5688L97.9483 56.614H90.2587V81H93.0355L92.7151 70.6404L93.7475 70.5692ZM92.2879 58.7856H96.2395L97.8415 60.6724L97.7347 66.5108L96.3819 67.8636L92.6083 68.006L92.2879 58.7856ZM118.636 62.9508L114.186 56.6852L107.92 56.258L102.331 62.5948L102.616 74.9836L107.173 81.178L113.189 81.1068L117.96 74.8412L118.636 62.9508ZM114.684 74.3784L111.765 78.5436L108.312 78.4368L105.713 74.414L105.144 64.7308L109.487 58.9636L112.157 59.0704L114.898 62.5948L114.684 74.3784ZM132.159 56.1868L118.026 57.0056L118.169 58.9992H123.615L123.152 81.2492L126.214 80.822L127.282 58.9992L132.017 59.0704L132.159 56.1868ZM43.1134 92.258L39.3042 92.6852L36.207 101.87L32.4334 92.5072L28.2682 92.6496L27.0934 116.964L30.511 117.142L30.5466 97.1352L34.1422 105.893L36.7766 106.213L40.2298 97.6692L40.5146 116.893C40.5146 116.893 43.683 116.893 44.2526 116.858L43.1134 92.258ZM49.2836 92.1512L45.5812 116.715L48.5716 116.893L50.316 106.071L53.342 105.857L55.3 116.715L57.6852 116.964L53.2352 92.1512H49.2836ZM50.6008 104.504L51.8112 97.4912L53.0928 104.326L50.6008 104.504ZM63.8143 106.569L67.6591 117.178L70.1867 117L66.0215 106.356L68.3711 106.32L70.1867 103.864V95.5688L68.0151 92.614H60.3255V117H63.1023L62.7819 106.64L63.8143 106.569ZM62.3547 94.7856H66.3063L67.9083 96.6724L67.8015 102.511L66.4487 103.864L62.6751 104.006L62.3547 94.7856ZM89.0944 95.9604L85.926 92.8276L81.5472 92.1156L75.3884 94.7144L72.4336 104.113L74.6408 114.366L81.476 117.57L89.6284 115.113L89.3792 106.925L88.1688 105.501L84.1104 105.216V108.563L86.994 108.349L86.816 113.155L81.8676 114.294L77.4176 111.482L75.424 104.398L78.0228 96.53L83.7188 94.8924L86.994 98.0252L89.0944 95.9604ZM94.6875 92.1512L90.9851 116.715L93.9755 116.893L95.7199 106.071L98.7459 105.857L100.704 116.715L103.089 116.964L98.6391 92.1512H94.6875ZM96.0047 104.504L97.2151 97.4912L98.4967 104.326L96.0047 104.504ZM109.218 106.569L113.063 117.178L115.591 117L111.425 106.356L113.775 106.32L115.591 103.864V95.5688L113.419 92.614H105.729V117H108.506L108.186 106.64L109.218 106.569ZM107.759 94.7856H111.71L113.312 96.6724L113.205 102.511L111.853 103.864L108.079 104.006L107.759 94.7856ZM125.883 94.9636L126.168 92.5072L117.838 92.6852L118.051 94.5364L120.401 94.6788L120.864 115.256L118.514 115.398L118.799 117.107L125.563 117.036L125.954 114.864L123.32 115.078L123.712 94.8568L125.883 94.9636ZM141.963 92.1868L127.83 93.0056L127.972 94.9992H133.419L132.956 117.249L136.018 116.822L137.086 94.9992L141.821 95.0704L141.963 92.1868ZM144.82 92.1512L141.117 116.715L144.108 116.893L145.852 106.071L148.878 105.857L150.836 116.715L153.221 116.964L148.771 92.1512H144.82ZM146.137 104.504L147.347 97.4912L148.629 104.326L146.137 104.504Z" fill="white"/>
</g>
<defs>
<clipPath id="clip0_874_2768">
<rect width="180" height="180" fill="white"/>
</clipPath>
</defs>
</svg>
