<svg width="180" height="180" viewBox="0 0 180 180" fill="none" xmlns="http://www.w3.org/2000/svg">
<g clip-path="url(#clip0_873_2139)">
<rect width="180" height="180" fill="#C87BBC"/>
<path d="M101.034 92.913H89.9998H84.1924V100.463H93.4844L98.7111 139.953L169.562 131.823L175.95 100.463L163.754 81.8789C173.046 78.1621 171.498 67.941 169.562 63.295C164.916 73.9807 149.042 72.3934 141.686 70.264C150.978 56.7907 137.814 41.8075 130.071 36C142.151 53.1901 125.038 66.0052 114.972 70.264L101.034 92.913Z" fill="#402B2B"/>
<path d="M78.966 92.913H90.0002H95.8076V100.463H86.5156L81.2889 139.953L10.4382 131.823L4.0498 100.463L16.2456 81.8789C6.9537 78.1621 8.50236 67.941 10.4382 63.295C15.0841 73.9807 30.9579 72.3934 38.314 70.264C29.0222 56.7907 42.1856 41.8075 49.9288 36C37.8493 53.1901 54.9619 66.0052 65.0282 70.264L78.966 92.913Z" fill="#402B2B"/>
<path d="M114.391 94.0742H156.786C156.205 102.592 150.978 119.627 134.717 119.627C118.456 119.627 114.391 102.592 114.391 94.0742Z" fill="#C87BBC"/>
<path d="M65.6088 94.0742H23.2144C23.7951 102.592 29.0218 119.627 45.2827 119.627C61.5435 119.627 65.6088 102.592 65.6088 94.0742Z" fill="#C87BBC"/>
<path d="M120.78 223L164.916 129.5V120.789L170.143 129.5L128.91 223H120.78Z" fill="#402B2B"/>
<path d="M52.846 76.7132L45.8368 77.1488L43.8568 64.754L45.4804 57.2696L52.7272 56.3192L52.8064 52.2404L43.936 53.27L40.1344 65.744L43.4212 80.3168L53.2816 80.0792L52.846 76.7132ZM65.6554 52.7552L55.399 52.9928L56.0722 80H66.3286L66.5662 76.7924L58.6066 77.228L58.5274 65.15L63.4378 64.8728L63.0418 62.6948L58.4878 63.2492L58.4482 55.8044L65.8138 56.3588L65.6554 52.7552ZM78.7927 79.9208L86.9503 53.1512L81.4459 52.7552L77.0107 74.5748L71.8627 53.1512L67.1503 52.9532L74.7931 80.0396L78.7927 79.9208ZM97.6559 55.4876L97.9727 52.7552L88.7063 52.9532L88.9439 55.0124L91.5575 55.1708L92.0723 78.0596L89.4587 78.218L89.7755 80.1188L97.2995 80.0396L97.7351 77.624L94.8047 77.8616L95.2403 55.3688L97.6559 55.4876ZM112.207 76.7132L105.198 77.1488L103.218 64.754L104.842 57.2696L112.089 56.3192L112.168 52.2404L103.297 53.27L99.4958 65.744L102.783 80.3168L112.643 80.0792L112.207 76.7132ZM115.443 80.0792H117.383L116.987 65.0312H121.858L122.096 80.0792H125.264L124.313 52.6364H121.7L121.858 63.0908L116.948 63.4472L116.67 52.6364H114.374L115.443 80.0792ZM140.253 52.7552L129.997 52.9928L130.67 80H140.927L141.164 76.7924L133.205 77.228L133.125 65.15L138.036 64.8728L137.64 62.6948L133.086 63.2492L133.046 55.8044L140.412 56.3588L140.253 52.7552ZM75.563 92.478L71.3258 92.9532L67.8806 103.17L63.683 92.7552L59.0498 92.9136L57.743 119.96L61.5446 120.158L61.5842 97.9032L65.5838 107.645L68.5142 108.001L72.3554 98.4972L72.6722 119.881C72.6722 119.881 76.1966 119.881 76.8302 119.842L75.563 92.478ZM82.4265 92.3592L78.3081 119.683L81.6345 119.881L83.5749 107.843L86.9409 107.605L89.1189 119.683L91.7721 119.96L86.8221 92.3592H82.4265ZM83.8917 106.1L85.2381 98.2992L86.6637 105.902L83.8917 106.1ZM98.5898 108.397L102.867 120.198L105.678 120L101.045 108.16L103.659 108.12L105.678 105.388V96.1608L103.263 92.874H94.709V120H97.7978L97.4414 108.476L98.5898 108.397ZM96.9662 95.2896H101.362L103.144 97.3884L103.025 103.883L101.52 105.388L97.3226 105.546L96.9662 95.2896ZM118.771 92.7156L114.732 102.853L109.901 92.874L106.535 93.072L113.346 106.457L113.504 119.96H117.623L117.227 106.536L122.929 92.9928L118.771 92.7156Z" fill="white"/>
</g>
<defs>
<clipPath id="clip0_873_2139">
<rect width="180" height="180" fill="white"/>
</clipPath>
</defs>
</svg>
