<svg width="180" height="180" viewBox="0 0 180 180" fill="none" xmlns="http://www.w3.org/2000/svg">
<g clip-path="url(#clip0_874_2491)">
<rect width="180" height="180" fill="#922B31"/>
<path d="M59.5002 145C83.1002 110.6 93.0002 28.3333 95.0002 -8.5L-11 -14V139.5C29 167.1 26.6667 204.667 20.5 220H40.5002C37.0002 209.333 35.9002 179.4 59.5002 145Z" fill="#FFBE3F"/>
<path d="M23.5 151.5C2.7 148.3 -5.83333 132.167 -7.5 124.5L-11 63.5C-6.16667 63 8.3 63.1 27.5 67.5C46.7 71.9 67.5 61.6667 75.5 56C74.8333 67.6667 72 95.1 66 111.5C58.5 132 49.5 155.5 23.5 151.5Z" fill="#ECA720"/>
<path d="M35.4327 96.0452L29.1315 96.4368L27.3515 85.294L28.8111 78.5656L35.3259 77.7112L35.3971 74.0444L27.4227 74.97L24.0051 86.184L26.9599 99.2848L35.8243 99.0712L35.4327 96.0452ZM38.3413 99.0712H40.0857L39.7297 85.5432H44.1085L44.3221 99.0712H47.1701L46.3157 74.4004H43.9661L44.1085 83.7988L39.6941 84.1192L39.4449 74.4004H37.3801L38.3413 99.0712ZM53.4903 74.1512L49.7879 98.7152L52.7783 98.8932L54.5227 88.0708L57.5487 87.8572L59.5067 98.7152L61.8919 98.9644L57.4419 74.1512H53.4903ZM54.8075 86.5044L56.0179 79.4912L57.2995 86.3264L54.8075 86.5044ZM79.9997 74.258L76.1905 74.6852L73.0933 83.87L69.3197 74.5072L65.1545 74.6496L63.9797 98.9644L67.3973 99.1424L67.4329 79.1352L71.0285 87.8928L73.6629 88.2132L77.1161 79.6692L77.4009 98.8932C77.4009 98.8932 80.5693 98.8932 81.1389 98.8576L79.9997 74.258ZM94.3223 77.5688L92.1151 74.5784H84.1051V99H86.8463L86.4903 88.6404L92.1151 88.4624L94.2867 85.828L94.3223 77.5688ZM91.5455 84.5464L90.1927 85.828L86.4191 85.9704L86.0987 76.8212H90.0503L91.6523 78.6724L91.5455 84.5464ZM98.6508 74.1512L94.9484 98.7152L97.9388 98.8932L99.6832 88.0708L102.709 87.8572L104.667 98.7152L107.052 98.9644L102.602 74.1512H98.6508ZM99.968 86.5044L101.178 79.4912L102.46 86.3264L99.968 86.5044ZM125.285 77.9604L122.117 74.8276L117.738 74.1156L111.579 76.7144L108.625 86.1128L110.832 96.3656L117.667 99.5696L125.819 97.1132L125.57 88.9252L124.36 87.5012L120.301 87.2164V90.5628L123.185 90.3492L123.007 95.1552L118.059 96.2944L113.609 93.482L111.615 86.3976L114.214 78.53L119.91 76.8924L123.185 80.0252L125.285 77.9604ZM142.698 74.614L138.746 74.436L139.423 92.058L132.623 74.436H128.814L129.17 99.0356L132.516 98.9644L131.982 79.9896L139.28 98.9644H142.093L142.698 74.614ZM156.182 74.5072L146.961 74.7208L147.567 99H156.787L157.001 96.1164L149.845 96.508L149.774 85.65L154.188 85.4008L153.832 83.4428L149.738 83.9412L149.703 77.2484L156.324 77.7468L156.182 74.5072Z" fill="white"/>
</g>
<defs>
<clipPath id="clip0_874_2491">
<rect width="180" height="180" fill="white"/>
</clipPath>
</defs>
</svg>
