<svg width="180" height="180" viewBox="0 0 180 180" fill="none" xmlns="http://www.w3.org/2000/svg">
<g clip-path="url(#clip0_874_2321)">
<rect width="180" height="180" fill="#CD67BD"/>
<path d="M191.14 58.7416C182.437 58.4157 168.198 69.9078 158.251 81.9317C160.312 70.0793 165.319 34.6594 151.438 35.0025C134.814 35.397 113.405 48.7244 113.064 58.0211C112.757 66.2714 122.858 79.4617 133.997 89.3415C120.371 87.1289 89.7125 83.5783 90.002 96.597C90.3938 113.338 103.628 134.899 112.86 135.259C121.563 135.585 135.802 124.075 145.749 112.069C143.688 123.921 138.681 159.324 152.562 158.998C169.186 158.603 190.595 145.276 190.953 135.962C191.26 127.729 181.142 114.521 170.003 104.642C183.629 106.871 214.288 110.405 213.998 97.3861C213.555 80.6624 200.304 59.1189 191.14 58.7416Z" fill="#FFC2BE"/>
<path d="M30.5428 -42.0392C22.0346 -37.6963 14.5467 -19.0767 11.453 -2.24347C7.08734 -14.6947 -7.0617 -51.2885 -20.1701 -43.5357C-35.8767 -34.267 -49.2491 -10.0548 -44.6031 -0.970822C-40.484 7.09309 -23.7581 14.3212 -7.8079 17.8237C-22.0385 22.9927 -53.2938 35.9902 -46.0536 48.3011C-36.7249 64.1214 -12.5212 77.6883 -3.48911 73.0958C5.01911 68.7529 12.4978 50.1167 15.6006 33.2999C19.9663 45.7512 34.1062 82.3285 47.2237 74.5922C62.9303 65.3235 76.3028 41.1114 71.6639 32.0018C67.5541 23.9543 50.8026 16.7189 34.8524 13.2163C49.0922 8.06375 80.3383 -4.95014 73.0981 -17.2611C63.7296 -33.0376 39.5189 -46.5789 30.5428 -42.0392Z" fill="#FFC2BE"/>
<path d="M53.5428 118.961C45.0346 123.304 37.5467 141.923 34.453 158.757C30.0873 146.305 15.9383 109.712 2.82992 117.464C-12.8767 126.733 -26.2491 150.945 -21.6031 160.029C-17.484 168.093 -0.758108 175.321 15.1921 178.824C0.961467 183.993 -30.2938 196.99 -23.0536 209.301C-13.7249 225.121 10.4788 238.688 19.5109 234.096C28.0191 229.753 35.4978 211.117 38.6006 194.3C42.9663 206.751 57.1062 243.329 70.2237 235.592C85.9303 226.323 99.3028 202.111 94.6639 193.002C90.5541 184.954 73.8026 177.719 57.8524 174.216C72.0922 169.064 103.338 156.05 96.0981 143.739C86.7296 127.962 62.5189 114.421 53.5428 118.961Z" fill="#FFC2BE"/>
<path d="M151 106C156.523 106 161 101.523 161 96C161 90.4772 156.523 86 151 86C145.477 86 141 90.4772 141 96C141 101.523 145.477 106 151 106Z" fill="#E2766F"/>
<path d="M17.5304 24.7461C22.8342 21.7836 24.7323 15.0824 21.7697 9.77855C18.8072 4.47471 12.106 2.57669 6.80218 5.53921C1.49834 8.50173 -0.399675 15.2029 2.56284 20.5068C5.52536 25.8106 12.2266 27.7086 17.5304 24.7461Z" fill="#E2766F"/>
<path d="M40.5304 185.746C45.8342 182.784 47.7323 176.082 44.7697 170.779C41.8072 165.475 35.106 163.577 29.8022 166.539C24.4983 169.502 22.6003 176.203 25.5628 181.507C28.5254 186.811 35.2266 188.709 40.5304 185.746Z" fill="#E2766F"/>
<path d="M68.1114 56.0796C62.8446 55.8816 58.449 53.7432 58.449 46.6944C58.449 38.7348 62.1318 35.1708 68.9826 35.1708V32.7156C68.3886 32.6364 67.7946 32.6364 67.2402 32.6364C59.5578 32.6364 55.0038 38.8932 55.0038 47.3676C55.0038 54.8916 59.439 60.3168 66.8838 60.3168C67.2798 60.3168 67.6758 60.3168 68.1114 60.2772V56.0796ZM74.2667 32.3592L70.1483 59.6832L73.4747 59.8812L75.4151 47.8428L78.7811 47.6052L80.9591 59.6832L83.6123 59.9604L78.6623 32.3592H74.2667ZM75.7319 46.1004L77.0783 38.2992L78.5039 45.9024L75.7319 46.1004ZM103.755 32.478L99.5176 32.9532L96.0724 43.17L91.8748 32.7552L87.2416 32.9136L85.9348 59.9604L89.7364 60.1584L89.776 37.9032L93.7756 47.6448L96.706 48.0012L100.547 38.4972L100.864 59.8812C100.864 59.8812 104.388 59.8812 105.022 59.8416L103.755 32.478ZM125.231 39.9228L120.281 32.9532L113.311 32.478L107.094 39.5268L107.411 53.3076L112.479 60.198L119.172 60.1188L124.478 53.1492L125.231 39.9228ZM120.835 52.6344L117.588 57.2676L113.747 57.1488L110.856 52.674L110.222 41.9028L115.053 35.4876L118.023 35.6064L121.073 39.5268L120.835 52.6344ZM78.8114 72.478L74.5742 72.9532L71.129 83.17L66.9314 72.7552L62.2982 72.9136L60.9914 99.9604L64.793 100.158L64.8326 77.9032L68.8322 87.6448L71.7626 88.0012L75.6038 78.4972L75.9206 99.8812C75.9206 99.8812 79.445 99.8812 80.0786 99.8416L78.8114 72.478ZM91.1397 75.4876L91.4565 72.7552L82.1901 72.9532L82.4277 75.0124L85.0413 75.1708L85.5561 98.0596L82.9425 98.218L83.2593 100.119L90.7833 100.04L91.2189 97.624L88.2885 97.8616L88.7241 75.3688L91.1397 75.4876ZM106.027 95.9608L98.5031 96.9112L99.3347 73.0324L95.0183 72.6364L95.4539 100.158L106.502 100.277L106.027 95.9608ZM119.119 72.7552L108.863 72.9928L109.536 100H119.792L120.03 96.7924L112.07 97.228L111.991 85.15L116.902 84.8728L116.506 82.6948L111.952 83.2492L111.912 75.8044L119.278 76.3588L119.119 72.7552ZM41.8246 136.713L34.8154 137.149L32.8354 124.754L34.459 117.27L41.7058 116.319L41.785 112.24L32.9146 113.27L29.113 125.744L32.3998 140.317L42.2602 140.079L41.8246 136.713ZM60.5133 119.923L55.5633 112.953L48.5937 112.478L42.3765 119.527L42.6933 133.308L47.7621 140.198L54.4545 140.119L59.7609 133.149L60.5133 119.923ZM56.1177 132.634L52.8705 137.268L49.0293 137.149L46.1385 132.674L45.5049 121.903L50.3361 115.488L53.3061 115.606L56.3553 119.527L56.1177 132.634ZM75.5464 136.713L68.5372 137.149L66.5572 124.754L68.1808 117.27L75.4276 116.319L75.5068 112.24L66.6364 113.27L62.8348 125.744L66.1216 140.317L75.982 140.079L75.5464 136.713ZM79.3462 112.755L78.9502 140.079L82.7914 140.04L82.9102 128.318L84.8506 126.457L96.0178 140.673L98.9086 138.654L87.385 124.556L96.8494 115.369L94.6318 113.032L82.9498 124.714L83.0686 112.993L79.3462 112.755ZM113.686 112.399L97.9653 113.31L98.1237 115.527H104.182L103.668 140.277L107.073 139.802L108.261 115.527L113.528 115.606L113.686 112.399ZM116.864 112.359L112.745 139.683L116.072 139.881L118.012 127.843L121.378 127.605L123.556 139.683L126.209 139.96L121.259 112.359H116.864ZM118.329 126.1L119.675 118.299L121.101 125.902L118.329 126.1ZM136.908 115.488L137.225 112.755L127.958 112.953L128.196 115.012L130.809 115.171L131.324 138.06L128.711 138.218L129.027 140.119L136.551 140.04L136.987 137.624L134.057 137.862L134.492 115.369L136.908 115.488ZM151.795 135.961L144.271 136.911L145.103 113.032L140.786 112.636L141.222 140.158L152.27 140.277L151.795 135.961Z" fill="white"/>
</g>
<defs>
<clipPath id="clip0_874_2321">
<rect width="180" height="180" fill="white"/>
</clipPath>
</defs>
</svg>
