<svg width="180" height="180" viewBox="0 0 180 180" fill="none" xmlns="http://www.w3.org/2000/svg">
<g clip-path="url(#clip0_874_2192)">
<rect width="180" height="180" fill="#478358"/>
<path d="M66.4996 197C45.9996 165.5 52 149.502 89.5 117C53.4999 99.501 -34.9998 158.499 -28.5 176C-22.6509 191.749 71.2076 204.234 66.4996 197Z" fill="#C62E2E"/>
<path d="M108.809 100L67.8091 136.5C75.3091 161 99.3091 165.5 119.309 146.5C135.309 131.3 118.976 109.167 108.809 100Z" fill="#4CB469"/>
<path d="M75.3089 54.0006C80.5089 62.8006 103.476 93.6673 114.309 108.001L110.309 113L71.809 58C66.1424 51.5003 58.909 34.2009 75.3089 17.0009C91.7088 -0.199085 114.809 9.83425 124.309 17.0009L117.309 24.0006C81.3089 0.500607 68.8089 43.0006 75.3089 54.0006Z" fill="#4CB469"/>
<path d="M28.7434 76.0796C23.4766 75.8816 19.081 73.7432 19.081 66.6944C19.081 58.7348 22.7638 55.1708 29.6146 55.1708V52.7156C29.0206 52.6364 28.4266 52.6364 27.8722 52.6364C20.1898 52.6364 15.6358 58.8932 15.6358 67.3676C15.6358 74.8916 20.071 80.3168 27.5158 80.3168C27.9118 80.3168 28.3078 80.3168 28.7434 80.2772V76.0796ZM33.6711 80.0792H35.6115L35.2155 65.0312H40.0863L40.3239 80.0792H43.4919L42.5415 52.6364H39.9279L40.0863 63.0908L35.1759 63.4472L34.8987 52.6364H32.6019L33.6711 80.0792ZM50.5222 52.3592L46.4038 79.6832L49.7302 79.8812L51.6706 67.8428L55.0366 67.6052L57.2146 79.6832L59.8678 79.9604L54.9178 52.3592H50.5222ZM51.9874 66.1004L53.3338 58.2992L54.7594 65.9024L51.9874 66.1004ZM80.0102 52.478L75.773 52.9532L72.3278 63.17L68.1302 52.7552L63.497 52.9136L62.1902 79.9604L65.9918 80.1584L66.0314 57.9032L70.031 67.6448L72.9614 68.0012L76.8026 58.4972L77.1194 79.8812C77.1194 79.8812 80.6438 79.8812 81.2774 79.8416L80.0102 52.478ZM95.9421 56.1608L93.4869 52.8344H84.5769V80H87.6261L87.2301 68.4764L93.4869 68.2784L95.9025 65.348L95.9421 56.1608ZM92.8533 63.9224L91.3485 65.348L87.1509 65.5064L86.7945 55.3292H91.1901L92.9721 57.3884L92.8533 63.9224ZM100.757 52.3592L96.6385 79.6832L99.9649 79.8812L101.905 67.8428L105.271 67.6052L107.449 79.6832L110.103 79.9604L105.153 52.3592H100.757ZM102.222 66.1004L103.569 58.2992L104.994 65.9024L102.222 66.1004ZM130.384 56.5964L126.86 53.1116L121.989 52.3196L115.138 55.2104L111.851 65.6648L114.307 77.0696L121.91 80.6336L130.978 77.9012L130.701 68.7932L129.355 67.2092L124.84 66.8924V70.6148L128.048 70.3772L127.85 75.7232L122.345 76.9904L117.395 73.862L115.178 65.9816L118.069 57.23L124.405 55.4084L128.048 58.8932L130.384 56.5964ZM149.753 52.874L145.357 52.676L146.11 72.278L138.546 52.676L134.309 52.676L134.705 80.0396L138.427 79.9604L137.833 58.8536L145.951 79.9604H149.08L149.753 52.874ZM164.752 52.7552L154.496 52.9928L155.169 80H165.425L165.663 76.7924L157.703 77.228L157.624 65.15L162.534 64.8728L162.138 62.6948L157.584 63.2492L157.545 55.8044L164.91 56.3588L164.752 52.7552ZM61.9882 96.1608L59.533 92.8344H50.623V120H53.6722L53.2762 108.476L59.533 108.278L61.9486 105.348L61.9882 96.1608ZM58.8994 103.922L57.3946 105.348L53.197 105.506L52.8406 95.3292H57.2362L59.0182 97.3884L58.8994 103.922ZM76.7822 111.644L74.921 116L69.8522 116.436L67.0406 111.724L67.793 92.6364L63.833 92.3988L63.437 114.02L67.2386 119.921L76.8614 120.158L80.4254 114.456L81.1382 92.6364L76.307 92.8344L76.7822 111.644ZM100.253 92.874L95.8574 92.676L96.6098 112.278L89.0462 92.676H84.809L85.205 120.04L88.9274 119.96L88.3334 98.8536L96.4514 119.96H99.5798L100.253 92.874ZM116.519 116.713L109.51 117.149L107.53 104.754L109.154 97.2696L116.4 96.3192L116.48 92.2404L107.609 93.27L103.808 105.744L107.094 120.317L116.955 120.079L116.519 116.713ZM119.755 120.079H121.695L121.299 105.031H126.17L126.408 120.079H129.576L128.625 92.6364H126.012L126.17 103.091L121.26 103.447L120.982 92.6364H118.686L119.755 120.079Z" fill="white"/>
</g>
<defs>
<clipPath id="clip0_874_2192">
<rect width="180" height="180" fill="white"/>
</clipPath>
</defs>
</svg>
