<svg width="180" height="180" viewBox="0 0 180 180" fill="none" xmlns="http://www.w3.org/2000/svg">
<g clip-path="url(#clip0_874_2491)">
<rect width="180" height="180" fill="#922B31"/>
<path d="M59.5002 145C83.1002 110.6 93.0002 28.3333 95.0002 -8.5L-11 -14V139.5C29 167.1 26.6667 204.667 20.5 220H40.5002C37.0002 209.333 35.9002 179.4 59.5002 145Z" fill="#FFBE3F"/>
<path d="M23.5 151.5C2.7 148.3 -5.83333 132.167 -7.5 124.5L-11 63.5C-6.16667 63 8.3 63.1 27.5 67.5C46.7 71.9 67.5 61.6667 75.5 56C74.8333 67.6667 72 95.1 66 111.5C58.5 132 49.5 155.5 23.5 151.5Z" fill="#ECA720"/>
<path d="M9.7462 74.792L6.7202 74.3648L6.5778 98.9288H18.1122L18.5038 95.44L9.2122 96.2944L9.7462 74.792ZM22.6879 74.1512L18.9855 98.7152L21.9759 98.8932L23.7203 88.0708L26.7463 87.8572L28.7043 98.7152L31.0895 98.9644L26.6395 74.1512H22.6879ZM24.0051 86.5044L25.2155 79.4912L26.4971 86.3264L24.0051 86.5044ZM52.4067 95.4756C47.6719 95.2976 43.7203 93.3752 43.7203 87.0384C43.7203 79.8828 47.0311 76.6788 53.1899 76.6788V74.4716C52.6559 74.4004 52.1219 74.4004 51.6235 74.4004C44.7171 74.4004 40.6231 80.0252 40.6231 87.6436C40.6231 94.4076 44.6103 99.2848 51.3031 99.2848C51.6591 99.2848 52.0151 99.2848 52.4067 99.2492V95.4756ZM56.8367 99.0712H58.5811L58.2251 85.5432H62.6039L62.8175 99.0712H65.6655L64.8111 74.4004H62.4615L62.6039 83.7988L58.1895 84.1192L57.9403 74.4004H55.8755L56.8367 99.0712ZM71.9856 74.1512L68.2832 98.7152L71.2736 98.8932L73.018 88.0708L76.044 87.8572L78.002 98.7152L80.3872 98.9644L75.9372 74.1512H71.9856ZM73.3028 86.5044L74.5132 79.4912L75.7948 86.3264L73.3028 86.5044ZM98.495 74.258L94.6859 74.6852L91.5887 83.87L87.8151 74.5072L83.6498 74.6496L82.4751 98.9644L85.8926 99.1424L85.9282 79.1352L89.5239 87.8928L92.1583 88.2132L95.6115 79.6692L95.8962 98.8932C95.8962 98.8932 99.0647 98.8932 99.6342 98.8576L98.495 74.258ZM112.818 77.5688L110.61 74.5784H102.6V99H105.342L104.986 88.6404L110.61 88.4624L112.782 85.828L112.818 77.5688ZM110.041 84.5464L108.688 85.828L104.914 85.9704L104.594 76.8212H108.546L110.148 78.6724L110.041 84.5464ZM117.146 74.1512L113.444 98.7152L116.434 98.8932L118.179 88.0708L121.205 87.8572L123.163 98.7152L125.548 98.9644L121.098 74.1512H117.146ZM118.463 86.5044L119.674 79.4912L120.955 86.3264L118.463 86.5044ZM143.781 77.9604L140.612 74.8276L136.234 74.1156L130.075 76.7144L127.12 86.1128L129.327 96.3656L136.162 99.5696L144.315 97.1132L144.066 88.9252L142.855 87.5012L138.797 87.2164V90.5628L141.68 90.3492L141.502 95.1552L136.554 96.2944L132.104 93.482L130.11 86.3976L132.709 78.53L138.405 76.8924L141.68 80.0252L143.781 77.9604ZM161.193 74.614L157.241 74.436L157.918 92.058L151.118 74.436H147.309L147.665 99.0356L151.011 98.9644L150.477 79.9896L157.775 98.9644H160.588L161.193 74.614ZM174.677 74.5072L165.457 74.7208L166.062 99H175.282L175.496 96.1164L168.34 96.508L168.269 85.65L172.684 85.4008L172.328 83.4428L168.234 83.9412L168.198 77.2484L174.82 77.7468L174.677 74.5072Z" fill="white"/>
</g>
<defs>
<clipPath id="clip0_874_2491">
<rect width="180" height="180" fill="white"/>
</clipPath>
</defs>
</svg>
