<svg width="180" height="180" viewBox="0 0 180 180" fill="none" xmlns="http://www.w3.org/2000/svg">
<g clip-path="url(#clip0_874_2321)">
<rect width="180" height="180" fill="#CD67BD"/>
<path d="M191.14 58.7416C182.437 58.4157 168.198 69.9078 158.251 81.9317C160.312 70.0793 165.319 34.6594 151.438 35.0025C134.814 35.397 113.405 48.7244 113.064 58.0211C112.757 66.2714 122.858 79.4617 133.997 89.3415C120.371 87.1289 89.7125 83.5783 90.002 96.597C90.3938 113.338 103.628 134.899 112.86 135.259C121.563 135.585 135.802 124.075 145.749 112.069C143.688 123.921 138.681 159.324 152.562 158.998C169.186 158.603 190.595 145.276 190.953 135.962C191.26 127.729 181.142 114.521 170.003 104.642C183.629 106.871 214.288 110.405 213.998 97.3861C213.555 80.6624 200.304 59.1189 191.14 58.7416Z" fill="#FFC2BE"/>
<path d="M30.5428 -42.0392C22.0346 -37.6963 14.5467 -19.0767 11.453 -2.24347C7.08733 -14.6947 -7.0617 -51.2885 -20.1701 -43.5357C-35.8767 -34.267 -49.2491 -10.0548 -44.6031 -0.970823C-40.484 7.0931 -23.7581 14.3212 -7.8079 17.8237C-22.0385 22.9927 -53.2938 35.9902 -46.0536 48.3011C-36.7249 64.1214 -12.5212 77.6883 -3.48911 73.0958C5.0191 68.7529 12.4978 50.1167 15.6006 33.2999C19.9663 45.7512 34.1062 82.3285 47.2237 74.5922C62.9303 65.3235 76.3028 41.1114 71.6639 32.0018C67.5541 23.9543 50.8026 16.7189 34.8524 13.2163C49.0922 8.06375 80.3383 -4.95013 73.0981 -17.2611C63.7296 -33.0376 39.5189 -46.5789 30.5428 -42.0392Z" fill="#FFC2BE"/>
<path d="M53.5428 118.961C45.0346 123.304 37.5467 141.923 34.453 158.757C30.0873 146.305 15.9383 109.712 2.82992 117.464C-12.8767 126.733 -26.2491 150.945 -21.6031 160.029C-17.484 168.093 -0.758106 175.321 15.1921 178.824C0.961467 183.993 -30.2938 196.99 -23.0536 209.301C-13.7249 225.121 10.4788 238.688 19.5109 234.096C28.0191 229.753 35.4978 211.117 38.6006 194.3C42.9663 206.751 57.1062 243.329 70.2237 235.592C85.9303 226.323 99.3028 202.111 94.6639 193.002C90.5541 184.954 73.8026 177.719 57.8524 174.216C72.0922 169.064 103.338 156.05 96.0981 143.739C86.7296 127.962 62.5189 114.421 53.5428 118.961Z" fill="#FFC2BE"/>
<path d="M151 106C156.523 106 161 101.523 161 96C161 90.4772 156.523 86 151 86C145.477 86 141 90.4772 141 96C141 101.523 145.477 106 151 106Z" fill="#E2766F"/>
<path d="M17.5304 24.7461C22.8342 21.7836 24.7323 15.0824 21.7697 9.77855C18.8072 4.47471 12.106 2.57669 6.80218 5.53921C1.49834 8.50173 -0.399675 15.2029 2.56284 20.5068C5.52536 25.8106 12.2266 27.7086 17.5304 24.7461Z" fill="#E2766F"/>
<path d="M40.5304 185.746C45.8342 182.784 47.7323 176.082 44.7697 170.779C41.8072 165.475 35.106 163.577 29.8022 166.539C24.4983 169.502 22.6003 176.203 25.5628 181.507C28.5254 186.811 35.2266 188.709 40.5304 185.746Z" fill="#E2766F"/>
<path d="M60.9478 56.7132L53.9386 57.1488L51.9586 44.754L53.5822 37.2696L60.829 36.3192L60.9082 32.2404L52.0378 33.27L48.2362 45.744L51.523 60.3168L61.3834 60.0792L60.9478 56.7132ZM64.1832 60.0792H66.1236L65.7276 45.0312H70.5984L70.836 60.0792H74.004L73.0536 32.6364H70.44L70.5984 43.0908L65.688 43.4472L65.4108 32.6364H63.114L64.1832 60.0792ZM81.0343 32.3592L76.9159 59.6832L80.2423 59.8812L82.1827 47.8428L85.5487 47.6052L87.7267 59.6832L90.3799 59.9604L85.4299 32.3592H81.0343ZM82.4995 46.1004L83.8459 38.2992L85.2715 45.9024L82.4995 46.1004ZM110.522 32.478L106.285 32.9532L102.84 43.17L98.6423 32.7552L94.0091 32.9136L92.7023 59.9604L96.5039 60.1584L96.5435 37.9032L100.543 47.6448L103.474 48.0012L107.315 38.4972L107.632 59.8812C107.632 59.8812 111.156 59.8812 111.79 59.8416L110.522 32.478ZM131.998 39.9228L127.048 32.9532L120.079 32.478L113.861 39.5268L114.178 53.3076L119.247 60.198L125.939 60.1188L131.246 53.1492L131.998 39.9228ZM127.603 52.6344L124.355 57.2676L120.514 57.1488L117.623 52.674L116.99 41.9028L121.821 35.4876L124.791 35.6064L127.84 39.5268L127.603 52.6344ZM78.8114 72.478L74.5742 72.9532L71.129 83.17L66.9314 72.7552L62.2982 72.9136L60.9914 99.9604L64.793 100.158L64.8326 77.9032L68.8322 87.6448L71.7626 88.0012L75.6038 78.4972L75.9206 99.8812C75.9206 99.8812 79.445 99.8812 80.0786 99.8416L78.8114 72.478ZM91.1397 75.4876L91.4565 72.7552L82.1901 72.9532L82.4277 75.0124L85.0413 75.1708L85.5561 98.0596L82.9425 98.218L83.2593 100.119L90.7833 100.04L91.2189 97.624L88.2885 97.8616L88.7241 75.3688L91.1397 75.4876ZM106.027 95.9608L98.5031 96.9112L99.3347 73.0324L95.0183 72.6364L95.4539 100.158L106.502 100.277L106.027 95.9608ZM119.119 72.7552L108.863 72.9928L109.536 100H119.792L120.03 96.7924L112.07 97.228L111.991 85.15L116.902 84.8728L116.506 82.6948L111.952 83.2492L111.912 75.8044L119.278 76.3588L119.119 72.7552ZM51.9759 136.713L44.9667 137.149L42.9867 124.754L44.6103 117.27L51.8571 116.319L51.9363 112.24L43.0659 113.27L39.2643 125.744L42.5511 140.317L52.4115 140.079L51.9759 136.713ZM70.6646 119.923L65.7146 112.953L58.745 112.478L52.5278 119.527L52.8446 133.308L57.9134 140.198L64.6058 140.119L69.9122 133.149L70.6646 119.923ZM66.269 132.634L63.0218 137.268L59.1806 137.149L56.2898 132.674L55.6562 121.903L60.4874 115.488L63.4574 115.606L66.5066 119.527L66.269 132.634ZM85.6978 136.713L78.6886 137.149L76.7086 124.754L78.3322 117.27L85.579 116.319L85.6582 112.24L76.7878 113.27L72.9862 125.744L76.273 140.317L86.1334 140.079L85.6978 136.713ZM103.535 112.399L87.8139 113.31L87.9723 115.527H94.0311L93.5163 140.277L96.9219 139.802L98.1099 115.527L103.377 115.606L103.535 112.399ZM106.712 112.359L102.594 139.683L105.92 139.881L107.861 127.843L111.227 127.605L113.405 139.683L116.058 139.96L111.108 112.359H106.712ZM108.178 126.1L109.524 118.299L110.95 125.902L108.178 126.1ZM126.756 115.488L127.073 112.755L117.807 112.953L118.044 115.012L120.658 115.171L121.173 138.06L118.559 138.218L118.876 140.119L126.4 140.04L126.836 137.624L123.905 137.862L124.341 115.369L126.756 115.488ZM141.644 135.961L134.12 136.911L134.952 113.032L130.635 112.636L131.071 140.158L142.119 140.277L141.644 135.961Z" fill="white"/>
</g>
<defs>
<clipPath id="clip0_874_2321">
<rect width="180" height="180" fill="white"/>
</clipPath>
</defs>
</svg>
