<svg width="180" height="180" viewBox="0 0 180 180" fill="none" xmlns="http://www.w3.org/2000/svg">
<g clip-path="url(#clip0_874_2330)">
<rect width="180" height="180" fill="#FF843F"/>
<circle cx="144" cy="51" r="20" fill="#FFBE3F"/>
<circle cx="51" cy="139" r="14" fill="#FFBE3F"/>
<rect x="50" y="100.738" width="68" height="68" rx="8" transform="rotate(-33.8942 50 100.738)" fill="#AED8FF"/>
<rect x="54.6128" y="26.8105" width="40.2355" height="40.2355" rx="8" transform="rotate(29.1734 54.6128 26.8105)" fill="#63B0E8"/>
<path d="M28.7434 76.0796C23.4766 75.8816 19.081 73.7432 19.081 66.6944C19.081 58.7348 22.7638 55.1708 29.6146 55.1708V52.7156C29.0206 52.6364 28.4266 52.6364 27.8722 52.6364C20.1898 52.6364 15.6358 58.8932 15.6358 67.3676C15.6358 74.8916 20.071 80.3168 27.5158 80.3168C27.9118 80.3168 28.3078 80.3168 28.7434 80.2772V76.0796ZM33.6711 80.0792H35.6115L35.2155 65.0312H40.0863L40.3239 80.0792H43.4919L42.5415 52.6364H39.9279L40.0863 63.0908L35.1759 63.4472L34.8987 52.6364H32.6019L33.6711 80.0792ZM50.5222 52.3592L46.4038 79.6832L49.7302 79.8812L51.6706 67.8428L55.0366 67.6052L57.2146 79.6832L59.8678 79.9604L54.9178 52.3592H50.5222ZM51.9874 66.1004L53.3338 58.2992L54.7594 65.9024L51.9874 66.1004ZM80.0102 52.478L75.773 52.9532L72.3278 63.17L68.1302 52.7552L63.497 52.9136L62.1902 79.9604L65.9918 80.1584L66.0314 57.9032L70.031 67.6448L72.9614 68.0012L76.8026 58.4972L77.1194 79.8812C77.1194 79.8812 80.6438 79.8812 81.2774 79.8416L80.0102 52.478ZM95.9421 56.1608L93.4869 52.8344H84.5769V80H87.6261L87.2301 68.4764L93.4869 68.2784L95.9025 65.348L95.9421 56.1608ZM92.8533 63.9224L91.3485 65.348L87.1509 65.5064L86.7945 55.3292H91.1901L92.9721 57.3884L92.8533 63.9224ZM100.757 52.3592L96.6385 79.6832L99.9649 79.8812L101.905 67.8428L105.271 67.6052L107.449 79.6832L110.103 79.9604L105.153 52.3592H100.757ZM102.222 66.1004L103.569 58.2992L104.994 65.9024L102.222 66.1004ZM130.384 56.5964L126.86 53.1116L121.989 52.3196L115.138 55.2104L111.851 65.6648L114.307 77.0696L121.91 80.6336L130.978 77.9012L130.701 68.7932L129.355 67.2092L124.84 66.8924V70.6148L128.048 70.3772L127.85 75.7232L122.345 76.9904L117.395 73.862L115.178 65.9816L118.069 57.23L124.405 55.4084L128.048 58.8932L130.384 56.5964ZM149.753 52.874L145.357 52.676L146.11 72.278L138.546 52.676L134.309 52.676L134.705 80.0396L138.427 79.9604L137.833 58.8536L145.951 79.9604H149.08L149.753 52.874ZM164.752 52.7552L154.496 52.9928L155.169 80H165.425L165.663 76.7924L157.703 77.228L157.624 65.15L162.534 64.8728L162.138 62.6948L157.584 63.2492L157.545 55.8044L164.91 56.3588L164.752 52.7552ZM80.9883 95.4876L81.3051 92.7552L72.0387 92.9532L72.2763 95.0124L74.8899 95.1708L75.4047 118.06L72.7911 118.218L73.1079 120.119L80.6319 120.04L81.0675 117.624L78.1371 117.862L78.5727 95.3688L80.9883 95.4876ZM95.5398 116.713L88.5306 117.149L86.5506 104.754L88.1742 97.2696L95.421 96.3192L95.5002 92.2404L86.6298 93.27L82.8282 105.744L86.115 120.317L95.9754 120.079L95.5398 116.713ZM108.349 92.7552L98.0927 92.9928L98.7659 120H109.022L109.26 116.792L101.3 117.228L101.221 105.15L106.132 104.873L105.736 102.695L101.182 103.249L101.142 95.8044L108.508 96.3588L108.349 92.7552Z" fill="white"/>
</g>
<defs>
<clipPath id="clip0_874_2330">
<rect width="180" height="180" fill="white"/>
</clipPath>
</defs>
</svg>
