<svg width="180" height="180" viewBox="0 0 180 180" fill="none" xmlns="http://www.w3.org/2000/svg">
<g clip-path="url(#clip0_874_2192)">
<rect width="180" height="180" fill="#478358"/>
<path d="M66.4996 197C45.9996 165.5 52 149.502 89.5 117C53.4999 99.501 -34.9998 158.499 -28.5 176C-22.6509 191.749 71.2076 204.234 66.4996 197Z" fill="#C62E2E"/>
<path d="M108.809 100L67.8091 136.5C75.3091 161 99.3091 165.5 119.309 146.5C135.309 131.3 118.976 109.167 108.809 100Z" fill="#4CB469"/>
<path d="M75.3089 54.0006C80.5089 62.8006 103.476 93.6673 114.309 108.001L110.309 113L71.809 58C66.1424 51.5003 58.909 34.2009 75.3089 17.0009C91.7088 -0.199085 114.809 9.83425 124.309 17.0009L117.309 24.0006C81.3089 0.500607 68.8089 43.0006 75.3089 54.0006Z" fill="#4CB469"/>
<path d="M29.3915 76.7132L22.3824 77.1488L20.4024 64.754L22.026 57.2696L29.2727 56.3192L29.352 52.2404L20.4816 53.27L16.68 65.744L19.9668 80.3168L29.8271 80.0792L29.3915 76.7132ZM32.627 80.0792H34.5674L34.1714 65.0312H39.0422L39.2798 80.0792H42.4478L41.4974 52.6364H38.8838L39.0422 63.0908L34.1318 63.4472L33.8546 52.6364H31.5578L32.627 80.0792ZM49.478 52.3592L45.3596 79.6832L48.686 79.8812L50.6264 67.8428L53.9924 67.6052L56.1704 79.6832L58.8236 79.9604L53.8736 52.3592H49.478ZM50.9432 66.1004L52.2896 58.2992L53.7152 65.9024L50.9432 66.1004ZM78.9661 52.478L74.7289 52.9532L71.2837 63.17L67.0861 52.7552L62.4529 52.9136L61.1461 79.9604L64.9477 80.1584L64.9873 57.9032L68.9869 67.6448L71.9173 68.0012L75.7585 58.4972L76.0753 79.8812C76.0753 79.8812 79.5997 79.8812 80.2333 79.8416L78.9661 52.478ZM94.898 56.1608L92.4428 52.8344H83.5328V80H86.582L86.186 68.4764L92.4428 68.2784L94.8584 65.348L94.898 56.1608ZM91.8092 63.9224L90.3044 65.348L86.1068 65.5064L85.7504 55.3292H90.146L91.928 57.3884L91.8092 63.9224ZM99.7128 52.3592L95.5944 79.6832L98.9208 79.8812L100.861 67.8428L104.227 67.6052L106.405 79.6832L109.058 79.9604L104.108 52.3592H99.7128ZM101.178 66.1004L102.524 58.2992L103.95 65.9024L101.178 66.1004ZM129.34 56.5964L125.816 53.1116L120.945 52.3196L114.094 55.2104L110.807 65.6648L113.262 77.0696L120.866 80.6336L129.934 77.9012L129.657 68.7932L128.31 67.2092L123.796 66.8924V70.6148L127.004 70.3772L126.806 75.7232L121.301 76.9904L116.351 73.862L114.134 65.9816L117.024 57.23L123.36 55.4084L127.004 58.8932L129.34 56.5964ZM148.709 52.874L144.313 52.676L145.066 72.278L137.502 52.676L133.265 52.676L133.661 80.0396L137.383 79.9604L136.789 58.8536L144.907 79.9604H148.036L148.709 52.874ZM163.708 52.7552L153.452 52.9928L154.125 80H164.381L164.619 76.7924L156.659 77.228L156.58 65.15L161.49 64.8728L161.094 62.6948L156.54 63.2492L156.501 55.8044L163.866 56.3588L163.708 52.7552ZM61.9882 96.1608L59.533 92.8344H50.623V120H53.6722L53.2762 108.476L59.533 108.278L61.9486 105.348L61.9882 96.1608ZM58.8994 103.922L57.3946 105.348L53.197 105.506L52.8406 95.3292H57.2362L59.0182 97.3884L58.8994 103.922ZM76.7822 111.644L74.921 116L69.8522 116.436L67.0406 111.724L67.793 92.6364L63.833 92.3988L63.437 114.02L67.2386 119.921L76.8614 120.158L80.4254 114.456L81.1382 92.6364L76.307 92.8344L76.7822 111.644ZM100.253 92.874L95.8574 92.676L96.6098 112.278L89.0462 92.676H84.809L85.205 120.04L88.9274 119.96L88.3334 98.8536L96.4514 119.96H99.5798L100.253 92.874ZM116.519 116.713L109.51 117.149L107.53 104.754L109.154 97.2696L116.4 96.3192L116.48 92.2404L107.609 93.27L103.808 105.744L107.094 120.317L116.955 120.079L116.519 116.713ZM119.755 120.079H121.695L121.299 105.031H126.17L126.408 120.079H129.576L128.625 92.6364H126.012L126.17 103.091L121.26 103.447L120.982 92.6364H118.686L119.755 120.079Z" fill="white"/>
</g>
<defs>
<clipPath id="clip0_874_2192">
<rect width="180" height="180" fill="white"/>
</clipPath>
</defs>
</svg>
