<svg width="180" height="180" viewBox="0 0 180 180" fill="none" xmlns="http://www.w3.org/2000/svg">
<g clip-path="url(#clip0_874_2330)">
<rect width="180" height="180" fill="#FF843F"/>
<circle cx="144" cy="51" r="20" fill="#FFBE3F"/>
<circle cx="51" cy="139" r="14" fill="#FFBE3F"/>
<rect x="50" y="100.738" width="68" height="68" rx="8" transform="rotate(-33.8942 50 100.738)" fill="#AED8FF"/>
<rect x="54.6128" y="26.8105" width="40.2355" height="40.2355" rx="8" transform="rotate(29.1734 54.6128 26.8105)" fill="#63B0E8"/>
<path d="M29.3915 76.7132L22.3824 77.1488L20.4024 64.754L22.026 57.2696L29.2727 56.3192L29.352 52.2404L20.4816 53.27L16.68 65.744L19.9668 80.3168L29.8271 80.0792L29.3915 76.7132ZM32.627 80.0792H34.5674L34.1714 65.0312H39.0422L39.2798 80.0792H42.4478L41.4974 52.6364H38.8838L39.0422 63.0908L34.1318 63.4472L33.8546 52.6364H31.5578L32.627 80.0792ZM49.478 52.3592L45.3596 79.6832L48.686 79.8812L50.6264 67.8428L53.9924 67.6052L56.1704 79.6832L58.8236 79.9604L53.8736 52.3592H49.478ZM50.9432 66.1004L52.2896 58.2992L53.7152 65.9024L50.9432 66.1004ZM78.9661 52.478L74.7289 52.9532L71.2837 63.17L67.0861 52.7552L62.4529 52.9136L61.1461 79.9604L64.9477 80.1584L64.9873 57.9032L68.9869 67.6448L71.9173 68.0012L75.7585 58.4972L76.0753 79.8812C76.0753 79.8812 79.5997 79.8812 80.2333 79.8416L78.9661 52.478ZM94.898 56.1608L92.4428 52.8344H83.5328V80H86.582L86.186 68.4764L92.4428 68.2784L94.8584 65.348L94.898 56.1608ZM91.8092 63.9224L90.3044 65.348L86.1068 65.5064L85.7504 55.3292H90.146L91.928 57.3884L91.8092 63.9224ZM99.7128 52.3592L95.5944 79.6832L98.9208 79.8812L100.861 67.8428L104.227 67.6052L106.405 79.6832L109.058 79.9604L104.108 52.3592H99.7128ZM101.178 66.1004L102.524 58.2992L103.95 65.9024L101.178 66.1004ZM129.34 56.5964L125.816 53.1116L120.945 52.3196L114.094 55.2104L110.807 65.6648L113.262 77.0696L120.866 80.6336L129.934 77.9012L129.657 68.7932L128.31 67.2092L123.796 66.8924V70.6148L127.004 70.3772L126.806 75.7232L121.301 76.9904L116.351 73.862L114.134 65.9816L117.024 57.23L123.36 55.4084L127.004 58.8932L129.34 56.5964ZM148.709 52.874L144.313 52.676L145.066 72.278L137.502 52.676L133.265 52.676L133.661 80.0396L137.383 79.9604L136.789 58.8536L144.907 79.9604H148.036L148.709 52.874ZM163.708 52.7552L153.452 52.9928L154.125 80H164.381L164.619 76.7924L156.659 77.228L156.58 65.15L161.49 64.8728L161.094 62.6948L156.54 63.2492L156.501 55.8044L163.866 56.3588L163.708 52.7552ZM80.9883 95.4876L81.3051 92.7552L72.0387 92.9532L72.2763 95.0124L74.8899 95.1708L75.4047 118.06L72.7911 118.218L73.1079 120.119L80.6319 120.04L81.0675 117.624L78.1371 117.862L78.5727 95.3688L80.9883 95.4876ZM95.5398 116.713L88.5306 117.149L86.5506 104.754L88.1742 97.2696L95.421 96.3192L95.5002 92.2404L86.6298 93.27L82.8282 105.744L86.115 120.317L95.9754 120.079L95.5398 116.713ZM108.349 92.7552L98.0927 92.9928L98.7659 120H109.022L109.26 116.792L101.3 117.228L101.221 105.15L106.132 104.873L105.736 102.695L101.182 103.249L101.142 95.8044L108.508 96.3588L108.349 92.7552Z" fill="white"/>
</g>
<defs>
<clipPath id="clip0_874_2330">
<rect width="180" height="180" fill="white"/>
</clipPath>
</defs>
</svg>
