<svg width="180" height="180" viewBox="0 0 180 180" fill="none" xmlns="http://www.w3.org/2000/svg">
<g clip-path="url(#clip0_874_2404)">
<rect width="180" height="180" fill="#D3951A"/>
<path d="M120.001 33C120.001 47.9117 107.465 60 92.001 60C76.537 60 64.001 47.9117 64.001 33C64.001 18.0883 76.537 6 92.001 6C107.465 6 120.001 18.0883 120.001 33Z" fill="#A87614"/>
<path fill-rule="evenodd" clip-rule="evenodd" d="M156.495 27.661C162.205 35.1139 160.793 45.7846 153.34 51.4946L89.3852 100.493L26.5355 51.3968C19.1366 45.617 17.824 34.9335 23.6038 27.5346C29.3836 20.1357 40.0671 18.8231 47.466 24.603L89.5872 57.5067L132.662 24.5052C140.115 18.7952 150.785 20.2081 156.495 27.661Z" fill="#A87614"/>
<path d="M142 77L39 81.48L55.5 189H117.5L142 77Z" fill="#867A11"/>
<path d="M129.5 134.5C99.5 154.5 63.3333 152.833 49 149.5L52.5 166.5C71.3 178.5 106.333 172.833 121.5 168.5L129.5 134.5Z" fill="#AC9D1C"/>
<path d="M136.5 103.5C123.7 125.1 80.3333 133.167 56.5 134.5L52.5 111C88.5 113 107.667 90.5 117 79L142 77L136.5 103.5Z" fill="#AC9D1C"/>
<path d="M40.8561 78.0452L34.555 78.4368L32.7749 67.294L34.2345 60.5656L40.7494 59.7112L40.8206 56.0444L32.8461 56.97L29.4285 68.184L32.3833 81.2848L41.2478 81.0712L40.8561 78.0452ZM43.7648 81.0712H45.5092L45.1532 67.5432H49.532L49.7456 81.0712H52.5936L51.7392 56.4004H49.3896L49.532 65.7988L45.1176 66.1192L44.8684 56.4004H42.8036L43.7648 81.0712ZM60.3377 70.5692L64.1825 81.178L66.7101 81L62.5449 70.3556L64.8945 70.32L66.7101 67.8636V59.5688L64.5385 56.614H56.8489V81H59.6257L59.3053 70.6404L60.3377 70.5692ZM58.8781 58.7856H62.8297L64.4317 60.6724L64.3249 66.5108L62.9721 67.8636L59.1985 68.006L58.8781 58.7856ZM77.0027 58.9636L77.2875 56.5072L68.9571 56.6852L69.1707 58.5364L71.5203 58.6788L71.9831 79.2556L69.6335 79.398L69.9183 81.1068L76.6823 81.0356L77.0739 78.864L74.4395 79.0776L74.8311 58.8568L77.0027 58.9636ZM82.6697 58.5008L87.1197 60.7436L89.0777 58.2872L85.2685 56.1156L79.2877 57.2904L77.9349 64.1256L87.3689 72.99L86.0517 78.5436L81.9221 78.152L79.7149 74.8412L77.5433 77.5468L80.4625 80.9288L88.2589 81.0356L90.8933 71.8864L80.8541 62.6304L82.6697 58.5008ZM104.312 56.1868L90.1788 57.0056L90.3212 58.9992H95.768L95.3052 81.2492L98.3668 80.822L99.4348 58.9992L104.17 59.0704L104.312 56.1868ZM121.267 56.258L117.457 56.6852L114.36 65.87L110.587 56.5072L106.421 56.6496L105.247 80.9644L108.664 81.1424L108.7 61.1352L112.295 69.8928L114.93 70.2132L118.383 61.6692L118.668 80.8932C118.668 80.8932 121.836 80.8932 122.406 80.8576L121.267 56.258ZM127.437 56.1512L123.734 80.7152L126.725 80.8932L128.469 70.0708L131.495 69.8572L133.453 80.7152L135.838 80.9644L131.388 56.1512H127.437ZM128.754 68.5044L129.964 61.4912L131.246 68.3264L128.754 68.5044ZM142.501 58.5008L146.951 60.7436L148.909 58.2872L145.1 56.1156L139.119 57.2904L137.767 64.1256L147.201 72.99L145.883 78.5436L141.754 78.152L139.547 74.8412L137.375 77.5468L140.294 80.9288L148.091 81.0356L150.725 71.8864L140.686 62.6304L142.501 58.5008ZM64.7368 95.5688L62.5296 92.5784H54.5196V117H57.2608L56.9048 106.64L62.5296 106.462L64.7012 103.828L64.7368 95.5688ZM61.96 102.546L60.6072 103.828L56.8336 103.97L56.5132 94.8212H60.4648L62.0668 96.6724L61.96 102.546ZM78.0365 109.488L76.3633 113.404L71.8065 113.796L69.2789 109.56L69.9553 92.4004L66.3953 92.1868L66.0393 111.624L69.4569 116.929L78.1077 117.142L81.3117 112.016L81.9525 92.4004L77.6093 92.5784L78.0365 109.488ZM99.1364 92.614L95.1848 92.436L95.8612 110.058L89.0616 92.436H85.2524L85.6084 117.036L88.9548 116.964L88.4208 97.9896L95.7188 116.964H98.5312L99.1364 92.614ZM113.76 114.045L107.458 114.437L105.678 103.294L107.138 96.5656L113.653 95.7112L113.724 92.0444L105.75 92.97L102.332 104.184L105.287 117.285L114.151 117.071L113.76 114.045ZM116.668 117.071H118.413L118.057 103.543H122.435L122.649 117.071H125.497L124.643 92.4004H122.293L122.435 101.799L118.021 102.119L117.772 92.4004H115.707L116.668 117.071Z" fill="white"/>
</g>
<defs>
<clipPath id="clip0_874_2404">
<rect width="180" height="180" fill="white"/>
</clipPath>
</defs>
</svg>
