<svg width="180" height="180" viewBox="0 0 180 180" fill="none" xmlns="http://www.w3.org/2000/svg">
<g clip-path="url(#clip0_874_2404)">
<rect width="180" height="180" fill="#D3951A"/>
<path d="M120.001 33C120.001 47.9117 107.465 60 92.001 60C76.537 60 64.001 47.9117 64.001 33C64.001 18.0883 76.537 6 92.001 6C107.465 6 120.001 18.0883 120.001 33Z" fill="#A87614"/>
<path fill-rule="evenodd" clip-rule="evenodd" d="M156.495 27.661C162.205 35.1139 160.793 45.7846 153.34 51.4946L89.3852 100.493L26.5355 51.3968C19.1366 45.617 17.824 34.9335 23.6038 27.5346C29.3836 20.1357 40.0671 18.8231 47.466 24.603L89.5872 57.5067L132.662 24.5052C140.115 18.7952 150.785 20.2081 156.495 27.661Z" fill="#A87614"/>
<path d="M142 77L39 81.48L55.5 189H117.5L142 77Z" fill="#867A11"/>
<path d="M129.5 134.5C99.5 154.5 63.3333 152.833 49 149.5L52.5 166.5C71.3 178.5 106.333 172.833 121.5 168.5L129.5 134.5Z" fill="#AC9D1C"/>
<path d="M136.5 103.5C123.7 125.1 80.3333 133.167 56.5 134.5L52.5 111C88.5 113 107.667 90.5 117 79L142 77L136.5 103.5Z" fill="#AC9D1C"/>
<path d="M38.8481 77.4756C34.1133 77.2976 30.1617 75.3752 30.1617 69.0384C30.1617 61.8828 33.4725 58.6788 39.6313 58.6788V56.4716C39.0973 56.4004 38.5633 56.4004 38.0649 56.4004C31.1585 56.4004 27.0645 62.0252 27.0645 69.6436C27.0645 76.4076 31.0517 81.2848 37.7445 81.2848C38.1005 81.2848 38.4565 81.2848 38.8481 81.2492V77.4756ZM43.2781 81.0712H45.0225L44.6665 67.5432H49.0453L49.2589 81.0712H52.1069L51.2525 56.4004H48.9029L49.0453 65.7988L44.6309 66.1192L44.3817 56.4004H42.3169L43.2781 81.0712ZM59.851 70.5692L63.6958 81.178L66.2234 81L62.0582 70.3556L64.4078 70.32L66.2234 67.8636V59.5688L64.0518 56.614H56.3622V81H59.139L58.8186 70.6404L59.851 70.5692ZM58.3914 58.7856H62.343L63.945 60.6724L63.8382 66.5108L62.4854 67.8636L58.7118 68.006L58.3914 58.7856ZM76.5159 58.9636L76.8007 56.5072L68.4703 56.6852L68.6839 58.5364L71.0335 58.6788L71.4963 79.2556L69.1467 79.398L69.4315 81.1068L76.1955 81.0356L76.5871 78.864L73.9527 79.0776L74.3443 58.8568L76.5159 58.9636ZM82.183 58.5008L86.633 60.7436L88.591 58.2872L84.7818 56.1156L78.801 57.2904L77.4482 64.1256L86.8822 72.99L85.565 78.5436L81.4354 78.152L79.2282 74.8412L77.0566 77.5468L79.9758 80.9288L87.7722 81.0356L90.4066 71.8864L80.3674 62.6304L82.183 58.5008ZM103.825 56.1868L89.6921 57.0056L89.8345 58.9992H95.2813L94.8185 81.2492L97.8801 80.822L98.9481 58.9992L103.683 59.0704L103.825 56.1868ZM120.78 56.258L116.971 56.6852L113.873 65.87L110.1 56.5072L105.935 56.6496L104.76 80.9644L108.177 81.1424L108.213 61.1352L111.809 69.8928L114.443 70.2132L117.896 61.6692L118.181 80.8932C118.181 80.8932 121.349 80.8932 121.919 80.8576L120.78 56.258ZM126.95 56.1512L123.248 80.7152L126.238 80.8932L127.982 70.0708L131.008 69.8572L132.966 80.7152L135.352 80.9644L130.902 56.1512H126.95ZM128.267 68.5044L129.478 61.4912L130.759 68.3264L128.267 68.5044ZM151.876 56.614L147.924 56.436L148.601 74.058L141.801 56.436H137.992L138.348 81.0356L141.694 80.9644L141.16 61.9896L148.458 80.9644H151.271L151.876 56.614ZM64.7368 95.5688L62.5296 92.5784H54.5196V117H57.2608L56.9048 106.64L62.5296 106.462L64.7012 103.828L64.7368 95.5688ZM61.96 102.546L60.6072 103.828L56.8336 103.97L56.5132 94.8212H60.4648L62.0668 96.6724L61.96 102.546ZM78.0365 109.488L76.3633 113.404L71.8065 113.796L69.2789 109.56L69.9553 92.4004L66.3953 92.1868L66.0393 111.624L69.4569 116.929L78.1077 117.142L81.3117 112.016L81.9525 92.4004L77.6093 92.5784L78.0365 109.488ZM99.1364 92.614L95.1848 92.436L95.8612 110.058L89.0616 92.436H85.2524L85.6084 117.036L88.9548 116.964L88.4208 97.9896L95.7188 116.964H98.5312L99.1364 92.614ZM113.76 114.045L107.458 114.437L105.678 103.294L107.138 96.5656L113.653 95.7112L113.724 92.0444L105.75 92.97L102.332 104.184L105.287 117.285L114.151 117.071L113.76 114.045ZM116.668 117.071H118.413L118.057 103.543H122.435L122.649 117.071H125.497L124.643 92.4004H122.293L122.435 101.799L118.021 102.119L117.772 92.4004H115.707L116.668 117.071Z" fill="white"/>
</g>
<defs>
<clipPath id="clip0_874_2404">
<rect width="180" height="180" fill="white"/>
</clipPath>
</defs>
</svg>
