<svg width="180" height="180" viewBox="0 0 180 180" fill="none" xmlns="http://www.w3.org/2000/svg">
<g clip-path="url(#clip0_874_2237)">
<rect width="180" height="180" fill="#A85858"/>
<path d="M42.3485 26.5907C109.468 -0.993215 159.403 35.7799 165.39 97.5631C169.906 187.353 58.3767 181.399 31.4583 142.378C9.92359 111.161 33.0677 74.938 47.3315 60.7287C55.0734 113.767 98.9393 118.884 119.904 114.814L107.987 102.405L115.21 82.6543L89.6672 77.2874L98.6849 66.3705L81.6358 63.8061C64.5989 60.6336 48.3455 37.674 42.3485 26.5907Z" fill="#D75E5E"/>
<path d="M56.2685 76.7132L49.2593 77.1488L47.2793 64.754L48.9029 57.2696L56.1497 56.3192L56.2289 52.2404L47.3585 53.27L43.5569 65.744L46.8437 80.3168L56.7041 80.0792L56.2685 76.7132ZM70.681 75.9608L63.157 76.9112L63.9886 53.0324L59.6722 52.6364L60.1078 80.1584L71.1562 80.2772L70.681 75.9608ZM88.7631 59.9228L83.8131 52.9532L76.8435 52.478L70.6263 59.5268L70.9431 73.3076L76.0119 80.198L82.7043 80.1188L88.0107 73.1492L88.7631 59.9228ZM84.3675 72.6344L81.1203 77.2676L77.2791 77.1488L74.3883 72.674L73.7547 61.9028L78.5859 55.4876L81.5559 55.6064L84.6051 59.5268L84.3675 72.6344ZM100.816 79.9208L108.974 53.1512L103.47 52.7552L99.0343 74.5748L93.8863 53.1512L89.1739 52.9532L96.8167 80.0396L100.816 79.9208ZM122.174 52.7552L111.918 52.9928L112.591 80H122.848L123.085 76.7924L115.126 77.228L115.046 65.15L119.957 64.8728L119.561 62.6948L115.007 63.2492L114.967 55.8044L122.333 56.3588L122.174 52.7552ZM129.411 68.3972L133.688 80.198L136.5 80L131.866 68.1596L134.48 68.12L136.5 65.3876V56.1608L134.084 52.874H125.53V80H128.619L128.263 68.4764L129.411 68.3972ZM127.788 55.2896H132.183L133.965 57.3884L133.846 63.8828L132.342 65.3876L128.144 65.546L127.788 55.2896ZM71.3312 116.713L64.322 117.149L62.342 104.754L63.9656 97.2696L71.2124 96.3192L71.2916 92.2404L62.4212 93.27L58.6196 105.744L61.9064 120.317L71.7668 120.079L71.3312 116.713ZM85.7437 115.961L78.2197 116.911L79.0513 93.0324L74.7349 92.6364L75.1705 120.158L86.2189 120.277L85.7437 115.961ZM100.855 111.644L98.9943 116L93.9255 116.436L91.1139 111.724L91.8663 92.6364L87.9063 92.3988L87.5103 114.02L91.3119 119.921L100.935 120.158L104.499 114.456L105.211 92.6364L100.38 92.8344L100.855 111.644ZM109.714 92.6364L108.882 120H118.703L121.633 117.703V106.892L118.307 104.358L121.396 96.8736L118.941 92.7552L109.714 92.6364ZM119.495 108.437L119.297 115.802L116.961 117.505L113.159 117.149L113.199 106.892L116.842 106.298L119.495 108.437ZM115.416 104.239L113.199 104.675L113.238 95.1312L116.802 95.0916L118.267 97.2696L115.416 104.239Z" fill="white"/>
<ellipse cx="159.357" cy="161.23" rx="34.4079" ry="26.7617" transform="rotate(-47.9423 159.357 161.23)" fill="#D75E5E"/>
</g>
<defs>
<clipPath id="clip0_874_2237">
<rect width="180" height="180" fill="white"/>
</clipPath>
</defs>
</svg>
