<svg width="180" height="180" viewBox="0 0 180 180" fill="none" xmlns="http://www.w3.org/2000/svg">
<g clip-path="url(#clip0_874_2751)">
<rect width="180" height="180" fill="#6B291A"/>
<path d="M121.788 41.1667C117.801 26.2147 130.268 16.1589 137 13C87.9012 20.3707 92.9369 59.769 101.592 78.5468C109.723 82.4954 126.771 59.8567 121.788 41.1667Z" fill="#CC7E6D"/>
<path d="M60.8684 109.44C45.5254 107.428 40.9793 92.0697 40.6242 84.6421C28.7283 132.845 67.0727 143.203 87.7319 142.357C94.481 136.344 80.0472 111.955 60.8684 109.44Z" fill="#CC7E6D"/>
<path d="M129.212 50.8333C133.199 65.7853 120.732 75.8411 114 79C163.099 71.6293 158.063 32.231 149.408 13.4532C141.277 9.5046 124.229 32.1433 129.212 50.8333Z" fill="#CC7E6D"/>
<path d="M72.6345 106.259C87.9775 108.271 92.5236 123.629 92.8788 131.057C104.775 82.8544 66.4302 72.4963 45.771 73.3427C39.022 79.3551 53.4557 103.744 72.6345 106.259Z" fill="#CC7E6D"/>
<path d="M128.823 159.876C119.981 169.954 105.88 175.271 95.8015 166.428C85.7232 157.586 88.8801 144.46 97.7228 134.382C106.566 124.304 114.187 125.144 124.266 133.987C134.344 142.83 137.666 149.797 128.823 159.876Z" fill="#C01A6A"/>
<path d="M74.5221 19.6922C83.0887 30.0061 86.1284 44.7665 75.8144 53.3331C65.5005 61.8998 53.0328 56.7234 44.4662 46.4094C35.8996 36.0955 37.9249 28.6996 48.2389 20.133C58.5528 11.5664 65.9555 9.37822 74.5221 19.6922Z" fill="#951AC0"/>
<path d="M36.2671 60.0452L29.9659 60.4368L28.1859 49.294L29.6455 42.5656L36.1603 41.7112L36.2315 38.0444L28.2571 38.97L24.8395 50.184L27.7943 63.2848L36.6587 63.0712L36.2671 60.0452ZM53.0681 44.9508L48.6181 38.6852L42.3525 38.258L36.7633 44.5948L37.0481 56.9836L41.6049 63.178L47.6213 63.1068L52.3917 56.8412L53.0681 44.9508ZM49.1165 56.3784L46.1973 60.5436L42.7441 60.4368L40.1453 56.414L39.5757 46.7308L43.9189 40.9636L46.5889 41.0704L49.3301 44.5948L49.1165 56.3784ZM56.7215 38.7564L56.2231 62.9644L59.6407 62.7152L59.3203 50.54L63.4499 50.6468L63.5567 48.6176L59.2847 48.938L59.1423 42.0316L65.0875 41.3908L64.8383 38.2936L56.7215 38.7564ZM67.7074 38.7564L67.209 62.9644L70.6266 62.7152L70.3062 50.54L74.4358 50.6468L74.5426 48.6176L70.2706 48.938L70.1282 42.0316L76.0734 41.3908L75.8242 38.2936L67.7074 38.7564ZM87.4154 38.5072L78.195 38.7208L78.8002 63H88.0206L88.2342 60.1164L81.0786 60.508L81.0074 49.65L85.4218 49.4008L85.0658 47.4428L80.9718 47.9412L80.9362 41.2484L87.5578 41.7468L87.4154 38.5072ZM99.6529 38.5072L90.4325 38.7208L91.0377 63H100.258L100.472 60.1164L93.3161 60.508L93.2449 49.65L97.6593 49.4008L97.3033 47.4428L93.2093 47.9412L93.1737 41.2484L99.7953 41.7468L99.6529 38.5072ZM126.224 41.9604L123.056 38.8276L118.677 38.1156L112.518 40.7144L109.563 50.1128L111.771 60.3656L118.606 63.5696L126.758 61.1132L126.509 52.9252L125.299 51.5012L121.24 51.2164V54.5628L124.124 54.3492L123.946 59.1552L118.997 60.2944L114.547 57.482L112.554 50.3976L115.153 42.53L120.849 40.8924L124.124 44.0252L126.224 41.9604ZM136.73 40.9636L137.015 38.5072L128.684 38.6852L128.898 40.5364L131.248 40.6788L131.71 61.2556L129.361 61.398L129.646 63.1068L136.41 63.0356L136.801 60.864L134.167 61.0776L134.558 40.8568L136.73 40.9636ZM154.101 38.614L150.149 38.436L150.826 56.058L144.026 38.436H140.217L140.573 63.0356L143.919 62.9644L143.385 43.9896L150.683 62.9644H153.496L154.101 38.614ZM28.4013 74.1868L14.2681 75.0056L14.4105 76.9992H19.8573L19.3945 99.2492L22.4561 98.822L23.5241 76.9992L28.2589 77.0704L28.4013 74.1868ZM45.8542 80.9508L41.4042 74.6852L35.1386 74.258L29.5494 80.5948L29.8342 92.9836L34.391 99.178L40.4074 99.1068L45.1778 92.8412L45.8542 80.9508ZM41.9026 92.3784L38.9834 96.5436L35.5302 96.4368L32.9314 92.414L32.3618 82.7308L36.705 76.9636L39.375 77.0704L42.1162 80.5948L41.9026 92.3784ZM62.8932 74.614L58.9416 74.436L59.618 92.058L52.8184 74.436H49.0092L49.3652 99.0356L52.7116 98.9644L52.1776 79.9896L59.4756 98.9644H62.288L62.8932 74.614ZM74.1345 76.9636L74.4193 74.5072L66.0889 74.6852L66.3025 76.5364L68.6521 76.6788L69.1149 97.2556L66.7653 97.398L67.0501 99.1068L73.8141 99.0356L74.2057 96.864L71.5713 97.0776L71.9629 76.8568L74.1345 76.9636ZM77.9774 74.5072L77.6214 99.0712L81.0746 99.0356L81.1814 88.498L82.9258 86.8248L92.965 99.6052L95.5638 97.7896L85.2042 85.116L93.7126 76.8568L91.719 74.7564L81.217 85.2584L81.3238 74.7208L77.9774 74.5072ZM114.674 89.7084L117.558 98.9644L121.011 99.0712L125.746 74.614L121.26 74.5428L118.982 94.1584L115.457 84.1548L114.033 84.3328L109.726 95.7248L106.949 74.5428L103.353 74.3648L107.803 99.1068L111.114 99L114.674 89.7084ZM135.704 76.9636L135.989 74.5072L127.659 74.6852L127.872 76.5364L130.222 76.6788L130.685 97.2556L128.335 97.398L128.62 99.1068L135.384 99.0356L135.776 96.864L133.141 97.0776L133.533 76.8568L135.704 76.9636ZM151.784 74.1868L137.651 75.0056L137.794 76.9992H143.24L142.778 99.2492L145.839 98.822L146.907 76.9992L151.642 77.0704L151.784 74.1868ZM154.997 99.0712H156.742L156.386 85.5432H160.765L160.978 99.0712H163.826L162.972 74.4004H160.622L160.765 83.7988L156.35 84.1192L156.101 74.4004H154.036L154.997 99.0712ZM47.2885 110.4L46.5409 135H55.3697L58.0041 132.935V123.216L55.0137 120.938L57.7905 114.21L55.5833 110.507L47.2885 110.4ZM56.0817 124.605L55.9037 131.226L53.8033 132.757L50.3857 132.437L50.4213 123.216L53.6965 122.682L56.0817 124.605ZM52.4149 120.831L50.4213 121.223L50.4569 112.643L53.6609 112.608L54.9781 114.566L52.4149 120.831ZM70.3628 110.507L61.1424 110.721L61.7476 135H70.968L71.1816 132.116L64.026 132.508L63.9548 121.65L68.3692 121.401L68.0132 119.443L63.9192 119.941L63.8836 113.248L70.5052 113.747L70.3628 110.507ZM76.8687 124.569L80.7135 135.178L83.2411 135L79.0759 124.356L81.4255 124.32L83.2411 121.864V113.569L81.0695 110.614H73.3799V135H76.1567L75.8363 124.64L76.8687 124.569ZM75.4091 112.786H79.3607L80.9627 114.672L80.8559 120.511L79.5031 121.864L75.7295 122.006L75.4091 112.786ZM90.0449 124.569L93.8897 135.178L96.4173 135L92.2521 124.356L94.6017 124.32L96.4173 121.864V113.569L94.2457 110.614H86.5561V135H89.3329L89.0125 124.64L90.0449 124.569ZM88.5853 112.786H92.5369L94.1389 114.672L94.0321 120.511L92.6793 121.864L88.9057 122.006L88.5853 112.786ZM106.71 112.964L106.995 110.507L98.6643 110.685L98.8779 112.536L101.227 112.679L101.69 133.256L99.3407 133.398L99.6255 135.107L106.389 135.036L106.781 132.864L104.147 133.078L104.538 112.857L106.71 112.964ZM119.417 110.507L110.197 110.721L110.802 135H120.022L120.236 132.116L113.08 132.508L113.009 121.65L117.424 121.401L117.068 119.443L112.974 119.941L112.938 113.248L119.56 113.747L119.417 110.507ZM126.457 112.501L130.907 114.744L132.865 112.287L129.056 110.116L123.075 111.29L121.722 118.126L131.156 126.99L129.839 132.544L125.709 132.152L123.502 128.841L121.331 131.547L124.25 134.929L132.046 135.036L134.681 125.886L124.641 116.63L126.457 112.501Z" fill="white"/>
</g>
<defs>
<clipPath id="clip0_874_2751">
<rect width="180" height="180" fill="white"/>
</clipPath>
</defs>
</svg>
