<svg width="180" height="180" viewBox="0 0 180 180" fill="none" xmlns="http://www.w3.org/2000/svg">
<g clip-path="url(#clip0_874_2751)">
<rect width="180" height="180" fill="#6B291A"/>
<path d="M121.788 41.1667C117.801 26.2147 130.268 16.1589 137 13C87.9012 20.3707 92.9369 59.769 101.592 78.5468C109.723 82.4954 126.771 59.8567 121.788 41.1667Z" fill="#CC7E6D"/>
<path d="M60.8684 109.44C45.5254 107.428 40.9793 92.0697 40.6242 84.6421C28.7283 132.845 67.0727 143.203 87.7319 142.357C94.481 136.344 80.0472 111.955 60.8684 109.44Z" fill="#CC7E6D"/>
<path d="M129.212 50.8333C133.199 65.7853 120.732 75.8411 114 79C163.099 71.6293 158.063 32.231 149.408 13.4532C141.277 9.5046 124.229 32.1433 129.212 50.8333Z" fill="#CC7E6D"/>
<path d="M72.6345 106.259C87.9775 108.271 92.5236 123.629 92.8788 131.057C104.775 82.8544 66.4302 72.4963 45.771 73.3427C39.022 79.3551 53.4557 103.744 72.6345 106.259Z" fill="#CC7E6D"/>
<path d="M128.823 159.876C119.981 169.954 105.88 175.271 95.8015 166.428C85.7232 157.586 88.8801 144.46 97.7228 134.382C106.566 124.304 114.187 125.144 124.266 133.987C134.344 142.83 137.666 149.797 128.823 159.876Z" fill="#C01A6A"/>
<path d="M74.5221 19.6922C83.0887 30.0061 86.1284 44.7665 75.8144 53.3331C65.5005 61.8998 53.0328 56.7234 44.4662 46.4094C35.8996 36.0955 37.9249 28.6996 48.2389 20.133C58.5528 11.5664 65.9555 9.37822 74.5221 19.6922Z" fill="#951AC0"/>
<path d="M29.5657 59.4756C24.8309 59.2976 20.8793 57.3752 20.8793 51.0384C20.8793 43.8828 24.1901 40.6788 30.3489 40.6788V38.4716C29.8149 38.4004 29.2809 38.4004 28.7825 38.4004C21.8761 38.4004 17.7821 44.0252 17.7821 51.6436C17.7821 58.4076 21.7693 63.2848 28.4621 63.2848C28.8181 63.2848 29.1741 63.2848 29.5657 63.2492V59.4756ZM48.2356 44.9508L43.7856 38.6852L37.52 38.258L31.9308 44.5948L32.2156 56.9836L36.7724 63.178L42.7888 63.1068L47.5592 56.8412L48.2356 44.9508ZM44.284 56.3784L41.3648 60.5436L37.9116 60.4368L35.3128 56.414L34.7432 46.7308L39.0864 40.9636L41.7564 41.0704L44.4976 44.5948L44.284 56.3784ZM51.8891 38.7564L51.3907 62.9644L54.8083 62.7152L54.4879 50.54L58.6175 50.6468L58.7243 48.6176L54.4523 48.938L54.3099 42.0316L60.2551 41.3908L60.0059 38.2936L51.8891 38.7564ZM62.875 38.7564L62.3766 62.9644L65.7942 62.7152L65.4738 50.54L69.6034 50.6468L69.7102 48.6176L65.4382 48.938L65.2958 42.0316L71.241 41.3908L70.9918 38.2936L62.875 38.7564ZM82.583 38.5072L73.3626 38.7208L73.9678 63H83.1882L83.4018 60.1164L76.2462 60.508L76.175 49.65L80.5894 49.4008L80.2334 47.4428L76.1394 47.9412L76.1038 41.2484L82.7254 41.7468L82.583 38.5072ZM94.8205 38.5072L85.6001 38.7208L86.2053 63H95.4257L95.6393 60.1164L88.4837 60.508L88.4125 49.65L92.8269 49.4008L92.4709 47.4428L88.3769 47.9412L88.3413 41.2484L94.9629 41.7468L94.8205 38.5072ZM121.392 41.9604L118.223 38.8276L113.844 38.1156L107.686 40.7144L104.731 50.1128L106.938 60.3656L113.773 63.5696L121.926 61.1132L121.676 52.9252L120.466 51.5012L116.408 51.2164V54.5628L119.291 54.3492L119.113 59.1552L114.165 60.2944L109.715 57.482L107.721 50.3976L110.32 42.53L116.016 40.8924L119.291 44.0252L121.392 41.9604ZM131.898 40.9636L132.182 38.5072L123.852 38.6852L124.066 40.5364L126.415 40.6788L126.878 61.2556L124.528 61.398L124.813 63.1068L131.577 63.0356L131.969 60.864L129.334 61.0776L129.726 40.8568L131.898 40.9636ZM149.268 38.614L145.317 38.436L145.993 56.058L139.194 38.436L135.384 38.436L135.74 63.0356L139.087 62.9644L138.553 43.9896L145.851 62.9644H148.663L149.268 38.614ZM153.176 51.3232L161.15 51.9996L161.506 49.1872L153.176 49.1872V51.3232ZM31.5824 74.1868L17.4491 75.0056L17.5915 76.9992H23.0383L22.5755 99.2492L25.6372 98.822L26.7051 76.9992L31.4399 77.0704L31.5824 74.1868ZM49.0352 80.9508L44.5852 74.6852L38.3196 74.258L32.7304 80.5948L33.0152 92.9836L37.572 99.178L43.5884 99.1068L48.3588 92.8412L49.0352 80.9508ZM45.0836 92.3784L42.1644 96.5436L38.7112 96.4368L36.1124 92.414L35.5428 82.7308L39.886 76.9636L42.556 77.0704L45.2972 80.5948L45.0836 92.3784ZM66.0743 74.614L62.1227 74.436L62.7991 92.058L55.9995 74.436H52.1903L52.5463 99.0356L55.8927 98.9644L55.3587 79.9896L62.6567 98.9644H65.4691L66.0743 74.614ZM77.3156 76.9636L77.6003 74.5072L69.27 74.6852L69.4836 76.5364L71.8332 76.6788L72.2959 97.2556L69.9464 97.398L70.2312 99.1068L76.9952 99.0356L77.3868 96.864L74.7524 97.0776L75.144 76.8568L77.3156 76.9636ZM90.3972 96.0452L84.096 96.4368L82.316 85.294L83.7756 78.5656L90.2904 77.7112L90.3616 74.0444L82.3872 74.97L78.9696 86.184L81.9244 99.2848L90.7888 99.0712L90.3972 96.0452ZM111.493 89.7084L114.377 98.9644L117.83 99.0712L122.565 74.614L118.079 74.5428L115.801 94.1584L112.276 84.1548L110.852 84.3328L106.545 95.7248L103.768 74.5428L100.172 74.3648L104.622 99.1068L107.933 99L111.493 89.7084ZM132.523 76.9636L132.808 74.5072L124.478 74.6852L124.691 76.5364L127.041 76.6788L127.504 97.2556L125.154 97.398L125.439 99.1068L132.203 99.0356L132.595 96.864L129.96 97.0776L130.352 76.8568L132.523 76.9636ZM148.603 74.1868L134.47 75.0056L134.613 76.9992H140.059L139.597 99.2492L142.658 98.822L143.726 76.9992L148.461 77.0704L148.603 74.1868ZM151.816 99.0712H153.561L153.205 85.5432H157.584L157.797 99.0712H160.645L159.791 74.4004H157.441L157.584 83.7988L153.169 84.1192L152.92 74.4004H150.855L151.816 99.0712ZM47.2885 110.4L46.5409 135H55.3697L58.0041 132.935V123.216L55.0137 120.938L57.7905 114.21L55.5833 110.507L47.2885 110.4ZM56.0817 124.605L55.9037 131.226L53.8033 132.757L50.3857 132.437L50.4213 123.216L53.6965 122.682L56.0817 124.605ZM52.4149 120.831L50.4213 121.223L50.4569 112.643L53.6609 112.608L54.9781 114.566L52.4149 120.831ZM70.3628 110.507L61.1424 110.721L61.7476 135H70.968L71.1816 132.116L64.026 132.508L63.9548 121.65L68.3692 121.401L68.0132 119.443L63.9192 119.941L63.8836 113.248L70.5052 113.747L70.3628 110.507ZM76.8687 124.569L80.7135 135.178L83.2411 135L79.0759 124.356L81.4255 124.32L83.2411 121.864V113.569L81.0695 110.614H73.3799V135H76.1567L75.8363 124.64L76.8687 124.569ZM75.4091 112.786H79.3607L80.9627 114.672L80.8559 120.511L79.5031 121.864L75.7295 122.006L75.4091 112.786ZM90.0449 124.569L93.8897 135.178L96.4173 135L92.2521 124.356L94.6017 124.32L96.4173 121.864V113.569L94.2457 110.614H86.5561V135H89.3329L89.0125 124.64L90.0449 124.569ZM88.5853 112.786H92.5369L94.1389 114.672L94.0321 120.511L92.6793 121.864L88.9057 122.006L88.5853 112.786ZM106.71 112.964L106.995 110.507L98.6643 110.685L98.8779 112.536L101.227 112.679L101.69 133.256L99.3407 133.398L99.6255 135.107L106.389 135.036L106.781 132.864L104.147 133.078L104.538 112.857L106.71 112.964ZM119.417 110.507L110.197 110.721L110.802 135H120.022L120.236 132.116L113.08 132.508L113.009 121.65L117.424 121.401L117.068 119.443L112.974 119.941L112.938 113.248L119.56 113.747L119.417 110.507ZM126.457 112.501L130.907 114.744L132.865 112.287L129.056 110.116L123.075 111.29L121.722 118.126L131.156 126.99L129.839 132.544L125.709 132.152L123.502 128.841L121.331 131.547L124.25 134.929L132.046 135.036L134.681 125.886L124.641 116.63L126.457 112.501Z" fill="white"/>
</g>
<defs>
<clipPath id="clip0_874_2751">
<rect width="180" height="180" fill="white"/>
</clipPath>
</defs>
</svg>
