<svg width="180" height="180" viewBox="0 0 180 180" fill="none" xmlns="http://www.w3.org/2000/svg">
<g clip-path="url(#clip0_873_1882)">
<rect width="180" height="180" fill="#4191CC"/>
<path d="M164.5 109.5C148.9 115.1 138.333 135.5 135 145L128.5 99L158 73L182 89C182.667 93.5 180.1 103.9 164.5 109.5Z" fill="#782121"/>
<path d="M60 168.5L57 158.5L72.5 133.5C87 130.333 115.7 124.3 114.5 125.5C113.3 126.7 127 139 134 145C99.5 141.5 94.5 154.5 85.5 164C78.3 171.6 65.5 170.167 60 168.5Z" fill="#973030"/>
<path d="M135 145.346L75.5714 61.0908C68.5556 51.1441 50.8095 57.3918 37.6032 66.0228C27.0381 72.9276 11.4656 63.1458 5 57.3918L48.3333 151.51C49.5714 166.306 75.5714 164.662 88.3651 151.51C98.6 140.989 123.72 143.017 135 145.346Z" fill="#CE3434"/>
<path d="M135 145.5L75.4958 61.041C68.4948 51.0568 80.4167 36.5146 93.045 27.0504C103.148 19.479 99.2086 1.51187 95.9762 -6.5253L170.052 66.2884C183.59 72.498 173.208 96.3653 156.455 103.9C143.052 109.927 136.634 134.107 135 145.5Z" fill="#B92020"/>
<path d="M19.0628 76.0796C13.796 75.8816 9.4004 73.7432 9.4004 66.6944C9.4004 58.7348 13.0832 55.1708 19.934 55.1708V52.7156C19.34 52.6364 18.746 52.6364 18.1916 52.6364C10.5092 52.6364 5.9552 58.8932 5.9552 67.3676C5.9552 74.8916 10.3904 80.3168 17.8352 80.3168C18.2312 80.3168 18.6272 80.3168 19.0628 80.2772V76.0796ZM39.8305 59.9228L34.8805 52.9532L27.9109 52.478L21.6937 59.5268L22.0105 73.3076L27.0793 80.198L33.7717 80.1188L39.0781 73.1492L39.8305 59.9228ZM35.4349 72.6344L32.1877 77.2676L28.3465 77.1488L25.4557 72.674L24.8221 61.9028L29.6533 55.4876L32.6233 55.6064L35.6725 59.5268L35.4349 72.6344ZM47.8149 54.9728L52.7649 57.4676L54.9429 54.7352L50.7057 52.3196L44.0529 53.6264L42.5481 61.2296L53.0421 71.09L51.5769 77.2676L46.9833 76.832L44.5281 73.1492L42.1125 76.1588L45.3597 79.9208L54.0321 80.0396L56.9625 69.8624L45.7953 59.5664L47.8149 54.9728ZM76.7105 52.478L72.4733 52.9532L69.0281 63.17L64.8305 52.7552L60.1973 52.9136L58.8905 79.9604L62.6921 80.1584L62.7317 57.9032L66.7313 67.6448L69.6617 68.0012L73.5029 58.4972L73.8197 79.8812C73.8197 79.8812 77.3441 79.8812 77.9777 79.8416L76.7105 52.478ZM98.1864 59.9228L93.2364 52.9532L86.2668 52.478L80.0496 59.5268L80.3664 73.3076L85.4352 80.198L92.1276 80.1188L97.434 73.1492L98.1864 59.9228ZM93.7908 72.6344L90.5436 77.2676L86.7024 77.1488L83.8116 72.674L83.178 61.9028L88.0092 55.4876L90.9792 55.6064L94.0284 59.5268L93.7908 72.6344ZM113.061 56.1608L110.606 52.8344H101.696V80H104.745L104.349 68.4764L110.606 68.2784L113.022 65.348L113.061 56.1608ZM109.972 63.9224L108.468 65.348L104.27 65.5064L103.914 55.3292H108.309L110.091 57.3884L109.972 63.9224ZM133.726 59.9228L128.776 52.9532L121.806 52.478L115.589 59.5268L115.906 73.3076L120.975 80.198L127.667 80.1188L132.973 73.1492L133.726 59.9228ZM129.33 72.6344L126.083 77.2676L122.242 77.1488L119.351 72.674L118.717 61.9028L123.549 55.4876L126.519 55.6064L129.568 59.5268L129.33 72.6344ZM148.244 75.9608L140.72 76.9112L141.552 53.0324L137.235 52.6364L137.671 80.1584L148.719 80.2772L148.244 75.9608ZM158.842 55.4876L159.158 52.7552L149.892 52.9532L150.13 55.0124L152.743 55.1708L153.258 78.0596L150.644 78.218L150.961 80.1188L158.485 80.0396L158.921 77.624L155.99 77.8616L156.426 55.3688L158.842 55.4876ZM176.728 52.3988L161.007 53.3096L161.166 55.5272H167.224L166.71 80.2772L170.115 79.802L171.303 55.5272L176.57 55.6064L176.728 52.3988ZM71.4697 92.3592L67.3513 119.683L70.6777 119.881L72.6181 107.843L75.9841 107.605L78.1621 119.683L80.8153 119.96L75.8653 92.3592H71.4697ZM72.9349 106.1L74.2813 98.2992L75.7069 105.902L72.9349 106.1ZM91.5138 95.4876L91.8306 92.7552L82.5642 92.9532L82.8018 95.0124L85.4154 95.1708L85.9302 118.06L83.3166 118.218L83.6334 120.119L91.1574 120.04L91.593 117.624L88.6626 117.862L89.0982 95.3688L91.5138 95.4876ZM110.836 92.874L106.441 92.676L107.193 112.278L99.6296 92.676H95.3924L95.7884 120.04L99.5108 119.96L98.9168 98.8536L107.035 119.96H110.163L110.836 92.874Z" fill="white"/>
</g>
<defs>
<clipPath id="clip0_873_1882">
<rect width="180" height="180" fill="white"/>
</clipPath>
</defs>
</svg>
