<svg width="180" height="180" viewBox="0 0 180 180" fill="none" xmlns="http://www.w3.org/2000/svg">
<g clip-path="url(#clip0_873_1882)">
<rect width="180" height="180" fill="#4191CC"/>
<path d="M164.5 109.5C148.9 115.1 138.333 135.5 135 145L128.5 99L158 73L182 89C182.667 93.5 180.1 103.9 164.5 109.5Z" fill="#782121"/>
<path d="M60 168.5L57 158.5L72.5 133.5C87 130.333 115.7 124.3 114.5 125.5C113.3 126.7 127 139 134 145C99.5 141.5 94.5 154.5 85.5 164C78.3 171.6 65.5 170.167 60 168.5Z" fill="#973030"/>
<path d="M135 145.346L75.5714 61.0908C68.5556 51.1441 50.8095 57.3918 37.6032 66.0228C27.0381 72.9276 11.4656 63.1458 5 57.3918L48.3333 151.51C49.5714 166.306 75.5714 164.662 88.3651 151.51C98.6 140.989 123.72 143.017 135 145.346Z" fill="#CE3434"/>
<path d="M135 145.5L75.4958 61.041C68.4948 51.0568 80.4167 36.5146 93.045 27.0504C103.148 19.479 99.2086 1.51187 95.9762 -6.5253L170.052 66.2884C183.59 72.498 173.208 96.3653 156.455 103.9C143.052 109.927 136.634 134.107 135 145.5Z" fill="#B92020"/>
<path d="M27.2259 76.7132L20.2167 77.1488L18.2367 64.754L19.8603 57.2696L27.1071 56.3192L27.1863 52.2404L18.3159 53.27L14.5143 65.744L17.8011 80.3168L27.6615 80.0792L27.2259 76.7132ZM45.9146 59.9228L40.9646 52.9532L33.995 52.478L27.7778 59.5268L28.0946 73.3076L33.1634 80.198L39.8558 80.1188L45.1622 73.1492L45.9146 59.9228ZM41.519 72.6344L38.2718 77.2676L34.4306 77.1488L31.5398 72.674L30.9062 61.9028L35.7374 55.4876L38.7074 55.6064L41.7566 59.5268L41.519 72.6344ZM53.899 54.9728L58.849 57.4676L61.027 54.7352L56.7898 52.3196L50.137 53.6264L48.6322 61.2296L59.1262 71.09L57.661 77.2676L53.0674 76.832L50.6122 73.1492L48.1966 76.1588L51.4438 79.9208L60.1162 80.0396L63.0466 69.8624L51.8794 59.5664L53.899 54.9728ZM82.7946 52.478L78.5574 52.9532L75.1122 63.17L70.9146 52.7552L66.2814 52.9136L64.9746 79.9604L68.7762 80.1584L68.8158 57.9032L72.8154 67.6448L75.7458 68.0012L79.587 58.4972L79.9038 79.8812C79.9038 79.8812 83.4282 79.8812 84.0618 79.8416L82.7946 52.478ZM104.27 59.9228L99.3205 52.9532L92.3509 52.478L86.1337 59.5268L86.4505 73.3076L91.5193 80.198L98.2117 80.1188L103.518 73.1492L104.27 59.9228ZM99.8749 72.6344L96.6277 77.2676L92.7865 77.1488L89.8957 72.674L89.2621 61.9028L94.0933 55.4876L97.0633 55.6064L100.112 59.5268L99.8749 72.6344ZM119.145 56.1608L116.69 52.8344H107.78V80H110.829L110.433 68.4764L116.69 68.2784L119.106 65.348L119.145 56.1608ZM116.056 63.9224L114.552 65.348L110.354 65.5064L109.998 55.3292H114.393L116.175 57.3884L116.056 63.9224ZM139.81 59.9228L134.86 52.9532L127.89 52.478L121.673 59.5268L121.99 73.3076L127.059 80.198L133.751 80.1188L139.058 73.1492L139.81 59.9228ZM135.414 72.6344L132.167 77.2676L128.326 77.1488L125.435 72.674L124.802 61.9028L129.633 55.4876L132.603 55.6064L135.652 59.5268L135.414 72.6344ZM154.328 75.9608L146.804 76.9112L147.636 53.0324L143.319 52.6364L143.755 80.1584L154.803 80.2772L154.328 75.9608ZM164.926 55.4876L165.242 52.7552L155.976 52.9532L156.214 55.0124L158.827 55.1708L159.342 78.0596L156.728 78.218L157.045 80.1188L164.569 80.0396L165.005 77.624L162.074 77.8616L162.51 55.3688L164.926 55.4876ZM81.1054 92.3988L65.3842 93.3096L65.5426 95.5272H71.6014L71.0866 120.277L74.4922 119.802L75.6802 95.5272L80.947 95.6064L81.1054 92.3988ZM93.8665 92.7552L83.6101 92.9928L84.2833 120H94.5397L94.7773 116.792L86.8177 117.228L86.7385 105.15L91.6489 104.873L91.2529 102.695L86.6989 103.249L86.6593 95.8044L94.0249 96.3588L93.8665 92.7552ZM112.667 92.874L108.271 92.676L109.023 112.278L101.46 92.676H97.2226L97.6186 120.04L101.341 119.96L100.747 98.8536L108.865 119.96H111.993L112.667 92.874Z" fill="white"/>
</g>
<defs>
<clipPath id="clip0_873_1882">
<rect width="180" height="180" fill="white"/>
</clipPath>
</defs>
</svg>
