<svg width="180" height="180" viewBox="0 0 180 180" fill="none" xmlns="http://www.w3.org/2000/svg">
<g clip-path="url(#clip0_874_2696)">
<rect width="180" height="180" fill="#D76950"/>
<path d="M137 29.5C88.6 43.1 37.8333 141.167 18.5 188.5L-20.5 191.5L-31 170L34 125C30.8 115.8 30.6667 92.8333 31 82.5H38C34.4 92.9 36.5 111.833 38 120C48.4 89.6 104.333 43.3333 131 24L137 29.5Z" fill="#6B291A"/>
<path d="M141.445 44.2227C144.998 50.923 144.976 59.4472 138.276 62.9998C131.576 66.5525 125.27 62.2465 121.717 55.5463C118.165 48.846 120.14 44.9846 126.84 41.432C133.541 37.8793 137.892 37.5224 141.445 44.2227Z" fill="#C01A1A"/>
<path d="M84.1766 44.7009C72.5401 39.7711 63.6077 28.7264 68.5374 17.0899C73.4671 5.45338 86.1471 4.39301 97.7837 9.32275C109.42 14.2525 110.925 21.322 105.995 32.9585C101.065 44.595 95.8131 49.6306 84.1766 44.7009Z" fill="#C01A1A"/>
<path d="M99.2973 89.1738C99.0059 96.752 94.708 104.113 87.1298 103.822C79.5515 103.531 76.2597 96.6408 76.5511 89.0625C76.8425 81.4843 80.4895 79.1366 88.0678 79.428C95.646 79.7194 99.5887 81.5955 99.2973 89.1738Z" fill="#C01A1A"/>
<path d="M34.0515 76.7132L27.0423 77.1488L25.0623 64.754L26.6859 57.2696L33.9327 56.3192L34.0119 52.2404L25.1415 53.27L21.3399 65.744L24.6267 80.3168L34.4871 80.0792L34.0515 76.7132ZM41.336 68.3972L45.6128 80.198L48.4244 80L43.7912 68.1596L46.4048 68.12L48.4244 65.3876V56.1608L46.0088 52.874H37.4553V80H40.5441L40.1876 68.4764L41.336 68.3972ZM39.7124 55.2896H44.108L45.89 57.3884L45.7712 63.8828L44.2664 65.3876L40.0688 65.546L39.7124 55.2896ZM54.4087 52.3592L50.2903 79.6832L53.6167 79.8812L55.5571 67.8428L58.9231 67.6052L61.1011 79.6832L63.7543 79.9604L58.8043 52.3592H54.4087ZM55.8739 66.1004L57.2203 58.2992L58.6459 65.9024L55.8739 66.1004ZM82.1352 52.874L77.7396 52.676L78.492 72.278L70.9284 52.676H66.6912L67.0872 80.0396L70.8096 79.9604L70.2156 58.8536L78.3336 79.9604H81.462L82.1352 52.874ZM87.7095 52.6364L86.8779 80H96.6987L99.6291 77.7032V66.8924L96.3027 64.358L99.3915 56.8736L96.9363 52.7552L87.7095 52.6364ZM97.4907 68.4368L97.2927 75.8024L94.9563 77.5052L91.1547 77.1488L91.1943 66.8924L94.8375 66.2984L97.4907 68.4368ZM93.4119 64.2392L91.1943 64.6748L91.2339 55.1312L94.7979 55.0916L96.2631 57.2696L93.4119 64.2392ZM113.376 52.7552L103.12 52.9928L103.793 80H114.05L114.287 76.7924L106.328 77.228L106.248 65.15L111.159 64.8728L110.763 62.6948L106.209 63.2492L106.169 55.8044L113.535 56.3588L113.376 52.7552ZM120.613 68.3972L124.89 80.198L127.702 80L123.069 68.1596L125.682 68.12L127.702 65.3876V56.1608L125.286 52.874H116.733V80H119.821L119.465 68.4764L120.613 68.3972ZM118.99 55.2896H123.385L125.167 57.3884L125.049 63.8828L123.544 65.3876L119.346 65.546L118.99 55.2896ZM135.27 68.3972L139.547 80.198L142.358 80L137.725 68.1596L140.339 68.12L142.358 65.3876V56.1608L139.943 52.874L131.389 52.874V80H134.478L134.122 68.4764L135.27 68.3972ZM133.646 55.2896H138.042L139.824 57.3884L139.705 63.8828L138.2 65.3876L134.003 65.546L133.646 55.2896ZM155.451 52.7156L151.412 62.8532L146.581 52.874L143.215 53.072L150.026 66.4568L150.185 79.9604H154.303L153.907 66.536L159.609 52.9928L155.451 52.7156ZM71.0036 96.5964L67.4792 93.1116L62.6084 92.3196L55.7576 95.2104L52.4708 105.665L54.926 117.07L62.5292 120.634L71.5976 117.901L71.3204 108.793L69.974 107.209L65.4596 106.892V110.615L68.6672 110.377L68.4692 115.723L62.9648 116.99L58.0148 113.862L55.7972 105.982L58.688 97.23L65.024 95.4084L68.6672 98.8932L71.0036 96.5964ZM78.8091 108.397L83.0859 120.198L85.8975 120L81.2643 108.16L83.8779 108.12L85.8975 105.388V96.1608L83.4819 92.874H74.9283V120H78.0171L77.6607 108.476L78.8091 108.397ZM77.1855 95.2896H81.5811L83.3631 97.3884L83.2443 103.883L81.7395 105.388L77.5419 105.546L77.1855 95.2896ZM106.494 99.9228L101.544 92.9532L94.5745 92.478L88.3573 99.5268L88.6741 113.308L93.7429 120.198L100.435 120.119L105.742 113.149L106.494 99.9228ZM102.099 112.634L98.8513 117.268L95.0101 117.149L92.1193 112.674L91.4857 101.903L96.3169 95.4876L99.2869 95.6064L102.336 99.5268L102.099 112.634ZM127.348 96.5964L123.824 93.1116L118.953 92.3196L112.102 95.2104L108.816 105.665L111.271 117.07L118.874 120.634L127.942 117.901L127.665 108.793L126.319 107.209L121.804 106.892V110.615L125.012 110.377L124.814 115.723L119.31 116.99L114.36 113.862L112.142 105.982L115.033 97.23L121.369 95.4084L125.012 98.8932L127.348 96.5964Z" fill="white"/>
<path d="M91 132.5L22 158L11.5 190L37.5 183L91 141.5L145 155V149.5L91 132.5Z" fill="#6B291A"/>
</g>
<defs>
<clipPath id="clip0_874_2696">
<rect width="180" height="180" fill="white"/>
</clipPath>
</defs>
</svg>
