<svg width="180" height="180" viewBox="0 0 180 180" fill="none" xmlns="http://www.w3.org/2000/svg">
<g clip-path="url(#clip0_874_2483)">
<rect width="180" height="180" fill="#B842A5"/>
<path d="M152.5 25C120.1 34.6 37.3333 138 0 188.5L-14 184L-6.5 156C77.9 52.8 134.667 25.6667 152.5 25Z" fill="#7B206D"/>
<path d="M171.572 55.3294C176.073 69.7111 167.657 85.1461 152.774 89.8043C137.891 94.4626 122.177 86.5801 117.676 72.1984C113.174 57.8166 123.065 47.0929 137.948 42.4346C152.831 37.7764 167.071 40.9476 171.572 55.3294Z" fill="#951A81"/>
<path d="M66.572 43.3294C71.0734 57.7111 62.6574 73.1461 47.7744 77.8043C32.8913 82.4626 17.1772 74.5801 12.6759 60.1984C8.1745 45.8166 18.0651 35.0929 32.9481 30.4346C47.8311 25.7764 62.0707 28.9476 66.572 43.3294Z" fill="#951A81"/>
<path d="M106.178 98.3872C108.792 106.739 103.904 115.703 95.2608 118.409C86.6173 121.114 77.4912 116.536 74.877 108.184C72.2629 99.8317 78.0069 93.6038 86.6503 90.8985C95.2937 88.1932 103.563 90.0349 106.178 98.3872Z" fill="#951A81"/>
<path d="M110.178 36.3872C112.792 44.7395 107.904 53.7035 99.2608 56.4088C90.6173 59.1141 81.4912 54.5363 78.877 46.184C76.2629 37.8317 82.0069 31.6038 90.6503 28.8985C99.2937 26.1932 107.563 28.0349 110.178 36.3872Z" fill="#951A81"/>
<path d="M66.5047 130.221C68.0285 135.089 65.1795 140.314 60.1414 141.891C55.1032 143.468 49.7837 140.8 48.2599 135.931C46.7361 131.063 50.0842 127.433 55.1224 125.856C60.1606 124.279 64.9809 125.352 66.5047 130.221Z" fill="#951A81"/>
<path d="M39.622 78.0452L33.3208 78.4368L31.5408 67.294L33.0004 60.5656L39.5152 59.7112L39.5864 56.0444L31.612 56.97L28.1944 68.184L31.1492 81.2848L40.0136 81.0712L39.622 78.0452ZM46.1707 70.5692L50.0155 81.178L52.5431 81L48.3779 70.3556L50.7275 70.32L52.5431 67.8636V59.5688L50.3715 56.614H42.6819V81H45.4587L45.1383 70.6404L46.1707 70.5692ZM44.7111 58.7856H48.6627L50.2647 60.6724L50.1579 66.5108L48.8051 67.8636L45.0315 68.006L44.7111 58.7856ZM57.9229 56.1512L54.2205 80.7152L57.2109 80.8932L58.9553 70.0708L61.9813 69.8572L63.9393 80.7152L66.3245 80.9644L61.8745 56.1512H57.9229ZM59.2401 68.5044L60.4505 61.4912L61.7321 68.3264L59.2401 68.5044ZM82.8487 56.614L78.8971 56.436L79.5735 74.058L72.7739 56.436H68.9647L69.3207 81.0356L72.6671 80.9644L72.1331 61.9896L79.4311 80.9644H82.2435L82.8487 56.614ZM87.86 56.4004L87.1124 81H95.9412L98.5756 78.9352V69.2164L95.5852 66.938L98.362 60.2096L96.1548 56.5072L87.86 56.4004ZM96.6532 70.6048L96.4752 77.2264L94.3748 78.7572L90.9572 78.4368L90.9928 69.2164L94.268 68.6824L96.6532 70.6048ZM92.9864 66.8312L90.9928 67.2228L91.0284 58.6432L94.2324 58.6076L95.5496 60.5656L92.9864 66.8312ZM110.934 56.5072L101.714 56.7208L102.319 81H111.54L111.753 78.1164L104.598 78.508L104.526 67.65L108.941 67.4008L108.585 65.4428L104.491 65.9412L104.455 59.2484L111.077 59.7468L110.934 56.5072ZM117.44 70.5692L121.285 81.178L123.813 81L119.647 70.3556L121.997 70.32L123.813 67.8636V59.5688L121.641 56.614H113.951V81H116.728L116.408 70.6404L117.44 70.5692ZM115.981 58.7856H119.932L121.534 60.6724L121.427 66.5108L120.075 67.8636L116.301 68.006L115.981 58.7856ZM130.616 70.5692L134.461 81.178L136.989 81L132.824 70.3556L135.173 70.32L136.989 67.8636V59.5688L134.817 56.614H127.128V81H129.904L129.584 70.6404L130.616 70.5692ZM129.157 58.7856H133.108L134.71 60.6724L134.604 66.5108L133.251 67.8636L129.477 68.006L129.157 58.7856ZM148.759 56.4716L145.128 65.5852L140.785 56.614L137.759 56.792L143.882 68.8248L144.025 80.9644H147.727L147.371 68.896L152.497 56.7208L148.759 56.4716ZM55.7358 114.045L49.4346 114.437L47.6546 103.294L49.1142 96.5656L55.629 95.7112L55.7002 92.0444L47.7258 92.97L44.3082 104.184L47.263 117.285L56.1274 117.071L55.7358 114.045ZM72.5368 98.9508L68.0868 92.6852L61.8212 92.258L56.232 98.5948L56.5168 110.984L61.0736 117.178L67.09 117.107L71.8604 110.841L72.5368 98.9508ZM68.5852 110.378L65.666 114.544L62.2128 114.437L59.614 110.414L59.0444 100.731L63.3876 94.9636L66.0576 95.0704L68.7988 98.5948L68.5852 110.378ZM86.0515 114.045L79.7503 114.437L77.9703 103.294L79.4299 96.5656L85.9447 95.7112L86.0159 92.0444L78.0415 92.97L74.6239 104.184L77.5787 117.285L86.4431 117.071L86.0515 114.045ZM102.087 92.1868L87.9538 93.0056L88.0962 94.9992H93.543L93.0802 117.249L96.1418 116.822L97.2098 94.9992L101.945 95.0704L102.087 92.1868ZM104.943 92.1512L101.241 116.715L104.231 116.893L105.976 106.071L109.002 105.857L110.96 116.715L113.345 116.964L108.895 92.1512H104.943ZM106.261 104.504L107.471 97.4912L108.753 104.326L106.261 104.504ZM122.963 94.9636L123.248 92.5072L114.917 92.6852L115.131 94.5364L117.48 94.6788L117.943 115.256L115.594 115.398L115.878 117.107L122.642 117.036L123.034 114.864L120.4 115.078L120.791 94.8568L122.963 94.9636ZM136.346 113.369L129.582 114.223L130.33 92.7564L126.45 92.4004L126.841 117.142L136.774 117.249L136.346 113.369Z" fill="white"/>
</g>
<defs>
<clipPath id="clip0_874_2483">
<rect width="180" height="180" fill="white"/>
</clipPath>
</defs>
</svg>
