<svg width="180" height="180" viewBox="0 0 180 180" fill="none" xmlns="http://www.w3.org/2000/svg">
<g clip-path="url(#clip0_874_2483)">
<rect width="180" height="180" fill="#B842A5"/>
<path d="M152.5 25C120.1 34.6 37.3333 138 0 188.5L-14 184L-6.5 156C77.9 52.8 134.667 25.6667 152.5 25Z" fill="#7B206D"/>
<path d="M171.572 55.3294C176.073 69.7111 167.657 85.1461 152.774 89.8043C137.891 94.4626 122.177 86.5801 117.676 72.1984C113.174 57.8166 123.065 47.0929 137.948 42.4346C152.831 37.7764 167.071 40.9476 171.572 55.3294Z" fill="#951A81"/>
<path d="M66.572 43.3294C71.0734 57.7111 62.6574 73.1461 47.7744 77.8043C32.8913 82.4626 17.1772 74.5801 12.6758 60.1984C8.1745 45.8166 18.0651 35.0929 32.9481 30.4346C47.8311 25.7764 62.0707 28.9476 66.572 43.3294Z" fill="#951A81"/>
<path d="M106.178 98.3872C108.792 106.739 103.904 115.703 95.2608 118.409C86.6173 121.114 77.4912 116.536 74.877 108.184C72.2629 99.8317 78.0069 93.6038 86.6503 90.8985C95.2937 88.1932 103.563 90.0349 106.178 98.3872Z" fill="#951A81"/>
<path d="M110.178 36.3872C112.792 44.7395 107.904 53.7035 99.2608 56.4088C90.6173 59.1141 81.4912 54.5363 78.877 46.184C76.2629 37.8317 82.0069 31.6038 90.6503 28.8985C99.2937 26.1932 107.563 28.0349 110.178 36.3872Z" fill="#951A81"/>
<path d="M66.5047 130.221C68.0285 135.089 65.1795 140.314 60.1414 141.891C55.1032 143.468 49.7837 140.8 48.2599 135.931C46.7361 131.063 50.0842 127.433 55.1224 125.856C60.1606 124.279 64.9809 125.352 66.5047 130.221Z" fill="#951A81"/>
<path d="M39.5956 77.4756C34.8608 77.2976 30.9091 75.3752 30.9091 69.0384C30.9091 61.8828 34.2199 58.6788 40.3787 58.6788V56.4716C39.8448 56.4004 39.3107 56.4004 38.8123 56.4004C31.906 56.4004 27.8119 62.0252 27.8119 69.6436C27.8119 76.4076 31.7991 81.2848 38.4919 81.2848C38.8479 81.2848 39.204 81.2848 39.5956 81.2492V77.4756ZM46.5531 70.5692L50.3979 81.178L52.9255 81L48.7603 70.3556L51.1099 70.32L52.9255 67.8636V59.5688L50.7539 56.614H43.0643V81H45.8411L45.5207 70.6404L46.5531 70.5692ZM45.0935 58.7856H49.0451L50.6471 60.6724L50.5403 66.5108L49.1875 67.8636L45.4139 68.006L45.0935 58.7856ZM58.3053 56.1512L54.6029 80.7152L57.5933 80.8932L59.3377 70.0708L62.3637 69.8572L64.3217 80.7152L66.7069 80.9644L62.2569 56.1512H58.3053ZM59.6225 68.5044L60.8329 61.4912L62.1145 68.3264L59.6225 68.5044ZM83.2311 56.614L79.2795 56.436L79.9559 74.058L73.1563 56.436H69.3471L69.7031 81.0356L73.0495 80.9644L72.5155 61.9896L79.8135 80.9644H82.6259L83.2311 56.614ZM88.2424 56.4004L87.4948 81H96.3236L98.958 78.9352V69.2164L95.9676 66.938L98.7444 60.2096L96.5372 56.5072L88.2424 56.4004ZM97.0356 70.6048L96.8576 77.2264L94.7572 78.7572L91.3396 78.4368L91.3752 69.2164L94.6504 68.6824L97.0356 70.6048ZM93.3688 66.8312L91.3752 67.2228L91.4108 58.6432L94.6148 58.6076L95.932 60.5656L93.3688 66.8312ZM111.317 56.5072L102.096 56.7208L102.702 81H111.922L112.136 78.1164L104.98 78.508L104.909 67.65L109.323 67.4008L108.967 65.4428L104.873 65.9412L104.838 59.2484L111.459 59.7468L111.317 56.5072ZM117.823 70.5692L121.667 81.178L124.195 81L120.03 70.3556L122.379 70.32L124.195 67.8636V59.5688L122.023 56.614H114.334V81H117.111L116.79 70.6404L117.823 70.5692ZM116.363 58.7856H120.315L121.917 60.6724L121.81 66.5108L120.457 67.8636L116.683 68.006L116.363 58.7856ZM130.999 70.5692L134.844 81.178L137.371 81L133.206 70.3556L135.556 70.32L137.371 67.8636V59.5688L135.2 56.614H127.51V81H130.287L129.966 70.6404L130.999 70.5692ZM129.539 58.7856H133.491L135.093 60.6724L134.986 66.5108L133.633 67.8636L129.86 68.006L129.539 58.7856ZM149.142 56.4716L145.511 65.5852L141.167 56.614L138.141 56.792L144.265 68.8248L144.407 80.9644H148.109L147.753 68.896L152.88 56.7208L149.142 56.4716ZM46.6099 114.045L40.3087 114.437L38.5287 103.294L39.9883 96.5656L46.5031 95.7112L46.5743 92.0444L38.5999 92.97L35.1823 104.184L38.1371 117.285L47.0015 117.071L46.6099 114.045ZM63.4108 98.9508L58.9608 92.6852L52.6952 92.258L47.106 98.5948L47.3908 110.984L51.9476 117.178L57.964 117.107L62.7344 110.841L63.4108 98.9508ZM59.4592 110.378L56.54 114.544L53.0868 114.437L50.488 110.414L49.9184 100.731L54.2616 94.9636L56.9316 95.0704L59.6728 98.5948L59.4592 110.378ZM76.9255 114.045L70.6243 114.437L68.8443 103.294L70.3039 96.5656L76.8187 95.7112L76.8899 92.0444L68.9155 92.97L65.4979 104.184L68.4527 117.285L77.3171 117.071L76.9255 114.045ZM80.3414 92.5072L79.9854 117.071L83.4386 117.036L83.5454 106.498L85.2898 104.825L95.329 117.605L97.9278 115.79L87.5682 103.116L96.0766 94.8568L94.083 92.7564L83.581 103.258L83.6878 92.7208L80.3414 92.5072ZM111.213 92.1868L97.0798 93.0056L97.2222 94.9992H102.669L102.206 117.249L105.268 116.822L106.336 94.9992L111.071 95.0704L111.213 92.1868ZM114.069 92.1512L110.367 116.715L113.357 116.893L115.102 106.071L118.128 105.857L120.086 116.715L122.471 116.964L118.021 92.1512H114.069ZM115.387 104.504L116.597 97.4912L117.879 104.326L115.387 104.504ZM132.089 94.9636L132.374 92.5072L124.043 92.6852L124.257 94.5364L126.606 94.6788L127.069 115.256L124.72 115.398L125.004 117.107L131.768 117.036L132.16 114.864L129.526 115.078L129.917 94.8568L132.089 94.9636ZM145.472 113.369L138.708 114.223L139.456 92.7564L135.576 92.4004L135.967 117.142L145.9 117.249L145.472 113.369Z" fill="white"/>
</g>
<defs>
<clipPath id="clip0_874_2483">
<rect width="180" height="180" fill="white"/>
</clipPath>
</defs>
</svg>
