<svg width="180" height="180" viewBox="0 0 180 180" fill="none" xmlns="http://www.w3.org/2000/svg">
<g clip-path="url(#clip0_874_2675)">
<rect width="180" height="180" fill="#478358"/>
<path d="M107.149 145.06C105.347 158.99 87.4711 176.138 78.7585 182.97C73.9822 185.431 73.1408 195.528 89.4374 191.963C105.734 188.397 124.866 161.846 124.211 145.492C123.555 129.138 109.402 127.646 107.149 145.06Z" fill="#76CA4E"/>
<path d="M81.3841 127.012C88.0605 103.896 123.06 79.1467 139.725 69.6616C148.529 66.6322 152.573 49.7668 123.779 51.9369C94.9847 54.107 55.4104 94.4508 52.3126 122.244C49.2148 150.038 73.0387 155.908 81.3841 127.012Z" fill="#76CA4E"/>
<path d="M45.563 5.12556C59.2572 11.1622 71.6039 34.7929 76.0654 45.8536C77.201 51.5327 87.2608 55.4272 88.3163 37.4978C89.3719 19.5684 67.7929 -8.17847 50.9184 -12.398C34.0438 -16.6175 28.4452 -2.42024 45.563 5.12556Z" fill="#76CA4E"/>
<path d="M41.5024 81.0452L35.2012 81.4368L33.4212 70.294L34.8808 63.5656L41.3956 62.7112L41.4668 59.0444L33.4924 59.97L30.0748 71.184L33.0296 84.2848L41.894 84.0712L41.5024 81.0452ZM55.5983 76.4884L53.9251 80.4044L49.3683 80.796L46.8407 76.5596L47.5171 59.4004L43.9571 59.1868L43.6011 78.6244L47.0187 83.9288L55.6695 84.1424L58.8735 79.016L59.5143 59.4004L55.1711 59.5784L55.5983 76.4884ZM73.1739 81.0452L66.8727 81.4368L65.0927 70.294L66.5523 63.5656L73.0671 62.7112L73.1383 59.0444L65.1639 59.97L61.7463 71.184L64.7011 84.2848L73.5655 84.0712L73.1739 81.0452ZM87.2698 76.4884L85.5966 80.4044L81.0398 80.796L78.5122 76.5596L79.1886 59.4004L75.6286 59.1868L75.2726 78.6244L78.6902 83.9288L87.341 84.1424L90.545 79.016L91.1858 59.4004L86.8426 59.5784L87.2698 76.4884ZM109.189 59.258L105.379 59.6852L102.282 68.87L98.5086 59.5072L94.3434 59.6496L93.1686 83.9644L96.5862 84.1424L96.6218 64.1352L100.217 72.8928L102.852 73.2132L106.305 64.6692L106.59 83.8932C106.59 83.8932 109.758 83.8932 110.328 83.8576L109.189 59.258ZM114.042 59.4004L113.294 84H122.123L124.757 81.9352V72.2164L121.767 69.938L124.544 63.2096L122.336 59.5072L114.042 59.4004ZM122.835 73.6048L122.657 80.2264L120.556 81.7572L117.139 81.4368L117.174 72.2164L120.45 71.6824L122.835 73.6048ZM119.168 69.8312L117.174 70.2228L117.21 61.6432L120.414 61.6076L121.731 63.5656L119.168 69.8312ZM137.116 59.5072L127.896 59.7208L128.501 84H137.721L137.935 81.1164L130.779 81.508L130.708 70.65L135.122 70.4008L134.766 68.4428L130.672 68.9412L130.637 62.2484L137.258 62.7468L137.116 59.5072ZM143.622 73.5692L147.467 84.178L149.994 84L145.829 73.3556L148.179 73.32L149.994 70.8636V62.5688L147.823 59.614H140.133V84H142.91L142.589 73.6404L143.622 73.5692ZM142.162 61.7856L146.114 61.7856L147.716 63.6724L147.609 69.5108L146.256 70.8636L142.483 71.006L142.162 61.7856ZM57.4399 95.258L53.6307 95.6852L50.5335 104.87L46.7599 95.5072L42.5947 95.6496L41.4199 119.964L44.8375 120.142L44.8731 100.135L48.4687 108.893L51.1031 109.213L54.5563 100.669L54.8411 119.893C54.8411 119.893 58.0095 119.893 58.5791 119.858L57.4399 95.258ZM63.6101 95.1512L59.9077 119.715L62.8981 119.893L64.6425 109.071L67.6685 108.857L69.6265 119.715L72.0117 119.964L67.5617 95.1512H63.6101ZM64.9273 107.504L66.1377 100.491L67.4193 107.326L64.9273 107.504ZM78.1408 109.569L81.9856 120.178L84.5132 120L80.348 109.356L82.6976 109.32L84.5132 106.864V98.5688L82.3416 95.614H74.652V120H77.4288L77.1084 109.64L78.1408 109.569ZM76.6812 97.7856H80.6328L82.2348 99.6724L82.128 105.511L80.7752 106.864L77.0016 107.006L76.6812 97.7856ZM100.039 95.1868L85.9057 96.0056L86.0481 97.9992H91.4949L91.0321 120.249L94.0937 119.822L95.1617 97.9992L99.8965 98.0704L100.039 95.1868ZM109.616 97.9636L109.901 95.5072L101.57 95.6852L101.784 97.5364L104.133 97.6788L104.596 118.256L102.247 118.398L102.531 120.107L109.295 120.036L109.687 117.864L107.053 118.078L107.444 97.8568L109.616 97.9636ZM126.987 95.614L123.035 95.436L123.712 113.058L116.912 95.436H113.103L113.459 120.036L116.805 119.964L116.271 100.99L123.569 119.964H126.382L126.987 95.614ZM138.228 97.9636L138.513 95.5072L130.182 95.6852L130.396 97.5364L132.746 97.6788L133.208 118.256L130.859 118.398L131.144 120.107L137.908 120.036L138.299 117.864L135.665 118.078L136.056 97.8568L138.228 97.9636Z" fill="white"/>
</g>
<defs>
<clipPath id="clip0_874_2675">
<rect width="180" height="180" fill="white"/>
</clipPath>
</defs>
</svg>
