<svg width="180" height="180" viewBox="0 0 180 180" fill="none" xmlns="http://www.w3.org/2000/svg">
<g clip-path="url(#clip0_874_2495)">
<rect width="180" height="180" fill="#BC7745"/>
<path d="M-5.5 157C1.7 134.6 39.1667 144 57 151.5C47.8 119.5 27.5 103.5 18.5 99.5C12.8333 103.5 1.3 111.8 0.5 113C-0.3 114.2 -8.83333 130.167 -13 138L-5.5 157Z" fill="#FF843F"/>
<path d="M148 33.0003C112 23.4003 58.3333 35.1081 39 43.1081V54.1082C85 56.9082 124 113.5 137 139C156.2 107.8 130.5 67.0004 148 33.0003Z" fill="#FF843F"/>
<path d="M137 138.607C119.8 95.8074 65.4999 62.2741 41.9999 54.1074C10.651 94.861 20.1548 79.087 18 95.4996C49.5 117.5 56 150 56 150C89.5 138.607 114.5 127 137 138.607Z" fill="#FF843F"/>
<path d="M22 29.1078C34.4 57.1078 -8.16667 111.441 -31 135.108L-24 144.608C-5.2 144.608 29.8333 86.6078 45 57.6078C98.6 76.0078 129.667 123.274 138.5 144.608C132.5 87.8078 73.6667 56.2745 45 47.6078C81.4 23.6078 131.5 28.9411 152 34.6078C118.8 11.4078 58.5 28.2744 32.5 39.6078C31.7 34.0078 25.1667 30.2744 22 29.1078Z" fill="#3A6227"/>
<path d="M58 156.5C49.5 118.5 49 111.5 16.5 86.5L12 101C38.4 110.2 49.5 136 58 156.5Z" fill="#3A6227"/>
<path d="M29.7792 100.198L41.8572 99.7624L47.0844 93.5848L47.6784 81.0712L41.2236 73.1908L29.2248 72.7552L29.7792 100.198ZM42.2928 91.882L39.3624 96.3568L33.3828 96.5944L33.7392 75.9628L39.0456 75.8044L43.0452 82.4572L42.2928 91.882ZM53.4873 72.3592L49.3689 99.6832L52.6953 99.8812L54.6357 87.8428L58.0017 87.6052L60.1797 99.6832L62.8329 99.9604L57.8829 72.3592H53.4873ZM54.9525 86.1004L56.2989 78.2992L57.7245 85.9024L54.9525 86.1004ZM73.5314 75.4876L73.8482 72.7552L64.5818 72.9532L64.8194 75.0124L67.433 75.1708L67.9478 98.0596L65.3342 98.218L65.651 100.119L73.175 100.04L73.6106 97.624L70.6802 97.8616L71.1158 75.3688L73.5314 75.4876ZM76.7368 93.2284L81.766 100.079L87.4684 100.158L91.1908 104.396L93.7252 102.495L89.4484 98.1388L92.7748 93.3472L93.0916 79.7248L87.2308 72.7552L80.6968 73.1908L76.1032 80.0812L76.7368 93.2284ZM79.984 79.7248L82.7956 75.8044L85.6468 75.6856L90.1612 82.0612L89.6068 92.7136L87.4684 96.1192L85.0528 93.6244L82.954 94.9708L84.8944 97.228L83.2708 97.2676L80.2216 92.674L79.984 79.7248ZM109.563 91.6444L107.702 96.0004L102.633 96.436L99.8217 91.7236L100.574 72.6364L96.6141 72.3988L96.2181 94.0204L100.02 99.9208L109.643 100.158L113.207 94.456L113.919 72.6364L109.088 72.8344L109.563 91.6444ZM125.352 75.4876L125.668 72.7552L116.402 72.9532L116.64 75.0124L119.253 75.1708L119.768 98.0596L117.154 98.218L117.471 100.119L124.995 100.04L125.431 97.624L122.5 97.8616L122.936 75.3688L125.352 75.4876ZM133.111 88.3972L137.388 100.198L140.199 100L135.566 88.1596L138.18 88.12L140.199 85.3876V76.1608L137.784 72.874H129.23V100H132.319L131.963 88.4764L133.111 88.3972ZM131.487 75.2896H135.883L137.665 77.3884L137.546 83.8828L136.041 85.3876L131.844 85.546L131.487 75.2896ZM151.649 75.4876L151.965 72.7552L142.699 72.9532L142.937 75.0124L145.55 75.1708L146.065 98.0596L143.451 98.218L143.768 100.119L151.292 100.04L151.728 97.624L148.797 97.8616L149.233 75.3688L151.649 75.4876Z" fill="white"/>
</g>
<defs>
<clipPath id="clip0_874_2495">
<rect width="180" height="180" fill="white"/>
</clipPath>
</defs>
</svg>
