<svg width="180" height="180" viewBox="0 0 180 180" fill="none" xmlns="http://www.w3.org/2000/svg">
<g clip-path="url(#clip0_873_1947)">
<rect width="180" height="180" fill="#BC7745"/>
<path d="M-5.5 157C1.7 134.6 39.1667 144 57 151.5C47.8 119.5 27.5 103.5 18.5 99.5C12.8333 103.5 1.3 111.8 0.5 113C-0.3 114.2 -8.83333 130.167 -13 138L-5.5 157Z" fill="#FF843F"/>
<path d="M148 32.9999C112 23.3999 58.3333 35.1078 39 43.1078V54.1078C85 56.9078 124 113.5 137 139C156.2 107.8 130.5 67 148 32.9999Z" fill="#FF843F"/>
<path d="M137 138.608C119.8 95.8078 65.4999 62.2745 41.9999 54.1078C10.651 94.8614 20.1548 79.0874 18 95.5C49.5 117.5 56 150 56 150C89.5 138.608 114.5 127 137 138.608Z" fill="#FF843F"/>
<path d="M22 29.1078C34.4 57.1078 -8.16667 111.441 -31 135.108L-24 144.608C-5.2 144.608 29.8333 86.6078 45 57.6078C98.6 76.0078 129.667 123.274 138.5 144.608C132.5 87.8078 73.6667 56.2745 45 47.6078C81.4 23.6078 131.5 28.9411 152 34.6078C118.8 11.4078 58.5 28.2744 32.5 39.6078C31.7 34.0078 25.1667 30.2744 22 29.1078Z" fill="#3A6227"/>
<path d="M58 156.5C49.5 118.5 49 111.5 16.5 86.5L12 101C38.4 110.2 49.5 136 58 156.5Z" fill="#3A6227"/>
<path d="M29.8692 100.198L41.9472 99.7624L47.1744 93.5848L47.7684 81.0712L41.3136 73.1908L29.3148 72.7552L29.8692 100.198ZM42.3828 91.882L39.4524 96.3568L33.4728 96.5944L33.8292 75.9628L39.1356 75.8044L43.1352 82.4572L42.3828 91.882ZM53.5772 72.3592L49.4588 99.6832L52.7852 99.8812L54.7256 87.8428L58.0916 87.6052L60.2696 99.6832L62.9228 99.9604L57.9728 72.3592H53.5772ZM55.0424 86.1004L56.3888 78.2992L57.8144 85.9024L55.0424 86.1004ZM73.6213 75.4876L73.9381 72.7552L64.6717 72.9532L64.9093 75.0124L67.5229 75.1708L68.0377 98.0596L65.4241 98.218L65.7409 100.119L73.2649 100.04L73.7005 97.624L70.7701 97.8616L71.2057 75.3688L73.6213 75.4876ZM76.8268 93.2284L81.856 100.079L87.5584 100.158L91.2808 104.396L93.8152 102.495L89.5384 98.1388L92.8648 93.3472L93.1816 79.7248L87.3208 72.7552L80.7868 73.1908L76.1932 80.0812L76.8268 93.2284ZM80.074 79.7248L82.8856 75.8044L85.7368 75.6856L90.2512 82.0612L89.6968 92.7136L87.5584 96.1192L85.1428 93.6244L83.044 94.9708L84.9844 97.228L83.3608 97.2676L80.3116 92.674L80.074 79.7248ZM109.653 91.6444L107.792 96.0004L102.723 96.436L99.9117 91.7236L100.664 72.6364L96.7041 72.3988L96.3081 94.0204L100.11 99.9208L109.733 100.158L113.297 94.456L114.009 72.6364L109.178 72.8344L109.653 91.6444ZM125.442 75.4876L125.758 72.7552L116.492 72.9532L116.73 75.0124L119.343 75.1708L119.858 98.0596L117.244 98.218L117.561 100.119L125.085 100.04L125.521 97.624L122.59 97.8616L123.026 75.3688L125.442 75.4876ZM133.201 88.3972L137.478 100.198L140.289 100L135.656 88.1596L138.27 88.12L140.289 85.3876V76.1608L137.874 72.874H129.32V100H132.409L132.053 88.4764L133.201 88.3972ZM131.577 75.2896H135.973L137.755 77.3884L137.636 83.8828L136.131 85.3876L131.934 85.546L131.577 75.2896ZM151.739 75.4876L152.055 72.7552L142.789 72.9532L143.027 75.0124L145.64 75.1708L146.155 98.0596L143.541 98.218L143.858 100.119L151.382 100.04L151.818 97.624L148.887 97.8616L149.323 75.3688L151.739 75.4876Z" fill="white"/>
</g>
<defs>
<clipPath id="clip0_873_1947">
<rect width="180" height="180" fill="white"/>
</clipPath>
</defs>
</svg>
