<svg width="180" height="180" viewBox="0 0 180 180" fill="none" xmlns="http://www.w3.org/2000/svg">
<g clip-path="url(#clip0_873_1947)">
<rect width="180" height="180" fill="#BC7745"/>
<path d="M-5.5 157C1.7 134.6 39.1667 144 57 151.5C47.8 119.5 27.5 103.5 18.5 99.5C12.8333 103.5 1.3 111.8 0.5 113C-0.3 114.2 -8.83333 130.167 -13 138L-5.5 157Z" fill="#FF843F"/>
<path d="M148 32.9999C112 23.3999 58.3333 35.1078 39 43.1078V54.1078C85 56.9078 124 113.5 137 139C156.2 107.8 130.5 67 148 32.9999Z" fill="#FF843F"/>
<path d="M137 138.608C119.8 95.8078 65.4999 62.2745 41.9999 54.1078C10.651 94.8614 20.1548 79.0874 18 95.5C49.5 117.5 56 150 56 150C89.5 138.608 114.5 127 137 138.608Z" fill="#FF843F"/>
<path d="M22 29.1078C34.4 57.1078 -8.16667 111.441 -31 135.108L-24 144.608C-5.2 144.608 29.8333 86.6078 45 57.6078C98.6 76.0078 129.667 123.274 138.5 144.608C132.5 87.8078 73.6667 56.2745 45 47.6078C81.4 23.6078 131.5 28.9411 152 34.6078C118.8 11.4078 58.5 28.2744 32.5 39.6078C31.7 34.0078 25.1667 30.2744 22 29.1078Z" fill="#3A6227"/>
<path d="M58 156.5C49.5 118.5 49 111.5 16.5 86.5L12 101C38.4 110.2 49.5 136 58 156.5Z" fill="#3A6227"/>
<path d="M29.9263 100.158C41.6479 99.9208 47.6671 93.0304 47.6671 85.5064C47.6671 75.2896 37.9255 72.9928 29.4115 72.6364L29.9263 100.158ZM33.9259 75.8836C39.1927 76.3588 43.1923 80.0812 43.1923 86.0608C43.1923 91.7632 39.7867 95.1688 33.6091 97.228L33.9259 75.8836ZM53.4806 72.3592L49.3622 99.6832L52.6886 99.8812L54.629 87.8428L57.995 87.6052L60.173 99.6832L62.8262 99.9604L57.8762 72.3592H53.4806ZM54.9458 86.1004L56.2922 78.2992L57.7178 85.9024L54.9458 86.1004ZM73.5247 75.4876L73.8415 72.7552L64.5751 72.9532L64.8127 75.0124L67.4263 75.1708L67.9411 98.0596L65.3275 98.218L65.6443 100.119L73.1683 100.04L73.6039 97.624L70.6735 97.8616L71.1091 75.3688L73.5247 75.4876ZM76.7301 93.2284L81.7593 100.079L87.4617 100.158L91.1841 104.396L93.7185 102.495L89.4417 98.1388L92.7681 93.3472L93.0849 79.7248L87.2241 72.7552L80.6901 73.1908L76.0965 80.0812L76.7301 93.2284ZM79.9773 79.7248L82.7889 75.8044L85.6401 75.6856L90.1545 82.0612L89.6001 92.7136L87.4617 96.1192L85.0461 93.6244L82.9473 94.9708L84.8877 97.228L83.2641 97.2676L80.2149 92.674L79.9773 79.7248ZM109.557 91.6444L107.695 96.0004L102.627 96.436L99.815 91.7236L100.567 72.6364L96.6074 72.3988L96.2114 94.0204L100.013 99.9208L109.636 100.158L113.2 94.456L113.913 72.6364L109.081 72.8344L109.557 91.6444ZM125.345 75.4876L125.662 72.7552L116.395 72.9532L116.633 75.0124L119.247 75.1708L119.761 98.0596L117.148 98.218L117.465 100.119L124.989 100.04L125.424 97.624L122.494 97.8616L122.929 75.3688L125.345 75.4876ZM133.104 88.3972L137.381 100.198L140.193 100L135.56 88.1596L138.173 88.12L140.193 85.3876V76.1608L137.777 72.874H129.224V100H132.312L131.956 88.4764L133.104 88.3972ZM131.481 75.2896H135.876L137.658 77.3884L137.54 83.8828L136.035 85.3876L131.837 85.546L131.481 75.2896ZM151.642 75.4876L151.959 72.7552L142.692 72.9532L142.93 75.0124L145.543 75.1708L146.058 98.0596L143.445 98.218L143.761 100.119L151.285 100.04L151.721 97.624L148.791 97.8616L149.226 75.3688L151.642 75.4876Z" fill="white"/>
</g>
<defs>
<clipPath id="clip0_873_1947">
<rect width="180" height="180" fill="white"/>
</clipPath>
</defs>
</svg>
