<svg width="180" height="180" viewBox="0 0 180 180" fill="none" xmlns="http://www.w3.org/2000/svg">
<g clip-path="url(#clip0_874_2233)">
<rect width="180" height="180" fill="#69193F"/>
<path d="M31 80L48.1901 197.765V254.709H89.7164H131.243V197.765L148.433 80H89.7164H31Z" fill="#B842A5"/>
<path d="M105 113.5C105.8 92.2997 78.6667 82.333 65 79.9997C65 72.9993 70.5 74.4997 85.5 74.4997C100.5 74.4997 105 76.9997 119 74.4997C130.2 72.4997 137.667 77.333 140 79.9997C141.667 79.9997 144 83.2997 140 96.4997C136 109.7 144.333 143.666 149 159C148 161.833 142.8 166.7 130 163.5C117.2 160.3 104.667 164.833 100 167.5C91 160.5 104 140 105 113.5Z" fill="#A09292"/>
<path d="M51.6222 80.198L63.7002 79.7624L68.9274 73.5848L69.5214 61.0712L63.0666 53.1908L51.0678 52.7552L51.6222 80.198ZM64.1358 71.882L61.2054 76.3568L55.2258 76.5944L55.5822 55.9628L60.8886 55.8044L64.8882 62.4572L64.1358 71.882ZM80.795 55.4876L81.1118 52.7552L71.8454 52.9532L72.083 55.0124L74.6966 55.1708L75.2114 78.0596L72.5978 78.218L72.9146 80.1188L80.4386 80.0396L80.8742 77.624L77.9438 77.8616L78.3794 55.3688L80.795 55.4876ZM88.5544 68.3972L92.8312 80.198L95.6428 80L91.0096 68.1596L93.6232 68.12L95.6428 65.3876V56.1608L93.2272 52.874H84.6736V80H87.7624L87.406 68.4764L88.5544 68.3972ZM86.9308 55.2896H91.3264L93.1084 57.3884L92.9896 63.8828L91.4848 65.3876L87.2872 65.546L86.9308 55.2896ZM112.913 52.3988L97.1918 53.3096L97.3502 55.5272H103.409L102.894 80.2772L106.3 79.802L107.488 55.5272L112.755 55.6064L112.913 52.3988ZM126.912 52.7156L122.872 62.8532L118.041 52.874L114.675 53.072L121.486 66.4568L121.645 79.9604H125.763L125.367 66.536L131.07 52.9928L126.912 52.7156ZM53.7714 92.478L49.5342 92.9532L46.089 103.17L41.8914 92.7552L37.2582 92.9136L35.9514 119.96L39.753 120.158L39.7926 97.9032L43.7922 107.645L46.7226 108.001L50.5638 98.4972L50.8806 119.881C50.8806 119.881 54.405 119.881 55.0386 119.842L53.7714 92.478ZM60.6349 92.3592L56.5165 119.683L59.8429 119.881L61.7833 107.843L65.1493 107.605L67.3273 119.683L69.9805 119.96L65.0305 92.3592H60.6349ZM62.1001 106.1L63.4465 98.2992L64.8721 105.902L62.1001 106.1ZM76.7982 108.397L81.075 120.198L83.8866 120L79.2534 108.16L81.867 108.12L83.8866 105.388V96.1608L81.471 92.874H72.9174V120H76.0062L75.6498 108.476L76.7982 108.397ZM75.1746 95.2896H79.5702L81.3522 97.3884L81.2334 103.883L79.7286 105.388L75.531 105.546L75.1746 95.2896ZM101.157 92.3988L85.4356 93.3096L85.594 95.5272H91.6528L91.138 120.277L94.5436 119.802L95.7316 95.5272L100.998 95.6064L101.157 92.3988ZM111.81 95.4876L112.127 92.7552L102.86 92.9532L103.098 95.0124L105.711 95.1708L106.226 118.06L103.613 118.218L103.929 120.119L111.453 120.04L111.889 117.624L108.959 117.862L109.394 95.3688L111.81 95.4876ZM131.132 92.874L126.737 92.676L127.489 112.278L119.926 92.676H115.688L116.084 120.04L119.807 119.96L119.213 98.8536L127.331 119.96H130.459L131.132 92.874ZM143.637 95.4876L143.954 92.7552L134.687 92.9532L134.925 95.0124L137.538 95.1708L138.053 118.06L135.44 118.218L135.756 120.119L143.28 120.04L143.716 117.624L140.786 117.862L141.221 95.3688L143.637 95.4876Z" fill="white"/>
</g>
<defs>
<clipPath id="clip0_874_2233">
<rect width="180" height="180" fill="white"/>
</clipPath>
</defs>
</svg>
