<svg width="180" height="180" viewBox="0 0 180 180" fill="none" xmlns="http://www.w3.org/2000/svg">
<g clip-path="url(#clip0_874_2740)">
<rect width="180" height="180" fill="#6B291A"/>
<path d="M106 16.8971L85.7975 75H78L84.0253 13L106 16.8971Z" fill="#9F5341"/>
<path d="M72.7969 66.444L43.2052 81.2745C43.2052 81.2745 47.0336 120.86 63.0817 141.441C72.9286 153.93 85.7656 163.738 100.41 169.962L139.201 150.521C142.98 135.064 142.805 118.909 138.694 103.547C131.81 78.3725 102.389 51.6134 102.389 51.6134L72.7969 66.444Z" fill="#E7BD8C"/>
<path d="M43.7091 72.7552L33.4527 72.9928L34.1259 100H44.3823L44.6199 96.7924L36.6603 97.228L36.5811 85.15L41.4915 84.8728L41.0955 82.6948L36.5415 83.2492L36.5019 75.8044L43.8675 76.3588L43.7091 72.7552ZM64.41 76.5964L60.8856 73.1116L56.0148 72.3196L49.164 75.2104L45.8772 85.6648L48.3324 97.0696L55.9356 100.634L65.004 97.9012L64.7268 88.7932L63.3804 87.2092L58.866 86.8924V90.6148L62.0736 90.3772L61.8756 95.7232L56.3712 96.9904L51.4212 93.862L49.2036 85.9816L52.0944 77.23L58.4304 75.4084L62.0736 78.8932L64.41 76.5964ZM85.6795 76.5964L82.1551 73.1116L77.2843 72.3196L70.4335 75.2104L67.1467 85.6648L69.6019 97.0696L77.2051 100.634L86.2735 97.9012L85.9963 88.7932L84.6499 87.2092L80.1355 86.8924V90.6148L83.3431 90.3772L83.1451 95.7232L77.6407 96.9904L72.6907 93.862L70.4731 85.9816L73.3639 77.23L79.6999 75.4084L83.3431 78.8932L85.6795 76.5964ZM105.048 72.874L100.653 72.676L101.405 92.278L93.8415 72.676H89.6043L90.0003 100.04L93.7227 99.9604L93.1287 78.8536L101.247 99.9604H104.375L105.048 72.874ZM126.7 79.9228L121.75 72.9532L114.781 72.478L108.563 79.5268L108.88 93.3076L113.949 100.198L120.641 100.119L125.948 93.1492L126.7 79.9228ZM122.305 92.6344L119.057 97.2676L115.216 97.1488L112.325 92.674L111.692 81.9028L116.523 75.4876L119.493 75.6064L122.542 79.5268L122.305 92.6344ZM147.555 76.5964L144.03 73.1116L139.159 72.3196L132.309 75.2104L129.022 85.6648L131.477 97.0696L139.08 100.634L148.149 97.9012L147.871 88.7932L146.525 87.2092L142.011 86.8924V90.6148L145.218 90.3772L145.02 95.7232L139.516 96.9904L134.566 93.862L132.348 85.9816L135.239 77.23L141.575 75.4084L145.218 78.8932L147.555 76.5964Z" fill="white"/>
<path d="M88 155.5C68 149.5 56 119 52.5 104.5C60.5 115.833 80 136.1 94 126.5C108 116.9 127.833 126.833 136 133L133.5 147C125.833 149.5 108 161.5 88 155.5Z" fill="#F4D7B4"/>
</g>
<defs>
<clipPath id="clip0_874_2740">
<rect width="180" height="180" fill="white"/>
</clipPath>
</defs>
</svg>
