<svg width="180" height="180" viewBox="0 0 180 180" fill="none" xmlns="http://www.w3.org/2000/svg">
<g clip-path="url(#clip0_873_2033)">
<rect width="180" height="180" fill="#275322"/>
<path d="M54 58.5L107.5 8L130 82L80 157.5L44 103L54 58.5Z" fill="#2DC4BA"/>
<path d="M89.5 76L107 9L129 82.5L89.5 76Z" fill="#5BF8EE"/>
<path d="M58.5 58L92.5 74L98 58L91 63.5L58.5 58Z" fill="#5BF8EE"/>
<path d="M75 107.5L80 157L129 82L90 76L75 107.5Z" fill="#5FE0D8"/>
<path d="M78.5 107.5L49 104.5L71 110L78.5 127V107.5Z" fill="#5FE0D8"/>
<path d="M45.7007 52.7552L35.4443 52.9928L36.1175 80H46.3739L46.6115 76.7924L38.6519 77.228L38.5727 65.15L43.4831 64.8728L43.0871 62.6948L38.5331 63.2492L38.4935 55.8044L45.8591 56.3588L45.7007 52.7552ZM66.2624 52.478L62.0252 52.9532L58.58 63.17L54.3824 52.7552L49.7492 52.9136L48.4424 79.9604L52.244 80.1584L52.2836 57.9032L56.2832 67.6448L59.2136 68.0012L63.0548 58.4972L63.3716 79.8812C63.3716 79.8812 66.896 79.8812 67.5296 79.8416L66.2624 52.478ZM81.0855 52.7552L70.8291 52.9928L71.5023 80H81.7587L81.9963 76.7924L74.0367 77.228L73.9575 65.15L78.8679 64.8728L78.4719 62.6948L73.9179 63.2492L73.8783 55.8044L81.2439 56.3588L81.0855 52.7552ZM88.3224 68.3972L92.5992 80.198L95.4108 80L90.7776 68.1596L93.3912 68.12L95.4108 65.3876V56.1608L92.9952 52.874H84.4416V80H87.5304L87.174 68.4764L88.3224 68.3972ZM86.6988 55.2896H91.0944L92.8764 57.3884L92.7576 63.8828L91.2528 65.3876L87.0552 65.546L86.6988 55.2896ZM101.395 52.3592L97.2766 79.6832L100.603 79.8812L102.543 67.8428L105.909 67.6052L108.087 79.6832L110.741 79.9604L105.791 52.3592H101.395ZM102.86 66.1004L104.207 58.2992L105.632 65.9024L102.86 66.1004ZM124.686 75.9608L117.162 76.9112L117.994 53.0324L113.678 52.6364L114.113 80.1584L125.162 80.2772L124.686 75.9608ZM128.076 80.198L140.154 79.7624L145.382 73.5848L145.976 61.0712L139.521 53.1908L127.522 52.7552L128.076 80.198ZM140.59 71.882L137.66 76.3568L131.68 76.5944L132.036 55.9628L137.343 55.8044L141.342 62.4572L140.59 71.882ZM50.9983 95.4876L51.3151 92.7552L42.0487 92.9532L42.2863 95.0124L44.8999 95.1708L45.4147 118.06L42.8011 118.218L43.1179 120.119L50.6419 120.04L51.0775 117.624L48.1471 117.862L48.5827 95.3688L50.9983 95.4876ZM57.3021 94.9728L62.2521 97.4676L64.4301 94.7352L60.1929 92.3196L53.5401 93.6264L52.0353 101.23L62.5293 111.09L61.0641 117.268L56.4705 116.832L54.0153 113.149L51.5997 116.159L54.8469 119.921L63.5193 120.04L66.4497 109.862L55.2825 99.5664L57.3021 94.9728ZM80.8517 115.961L73.3277 116.911L74.1593 93.0324L69.8429 92.6364L70.2785 120.158L81.3269 120.277L80.8517 115.961ZM87.2604 92.3592L83.142 119.683L86.4684 119.881L88.4088 107.843L91.7748 107.605L93.9528 119.683L96.606 119.96L91.656 92.3592H87.2604ZM88.7256 106.1L90.072 98.2992L91.4976 105.902L88.7256 106.1ZM114.987 92.874L110.591 92.676L111.344 112.278L103.78 92.676H99.5429L99.9389 120.04L103.661 119.96L103.067 98.8536L111.185 119.96H114.314L114.987 92.874ZM120.284 120.198L132.362 119.762L137.589 113.585L138.183 101.071L131.728 93.1908L119.73 92.7552L120.284 120.198ZM132.798 111.882L129.867 116.357L123.888 116.594L124.244 95.9628L129.55 95.8044L133.55 102.457L132.798 111.882Z" fill="white"/>
</g>
<defs>
<clipPath id="clip0_873_2033">
<rect width="180" height="180" fill="white"/>
</clipPath>
</defs>
</svg>
