<svg width="180" height="180" viewBox="0 0 180 180" fill="none" xmlns="http://www.w3.org/2000/svg">
<g clip-path="url(#clip0_874_2623)">
<rect width="180" height="180" fill="#C15FC4"/>
<path d="M32 159L232.886 -23L239 -11.625L48.5949 180L32 159Z" fill="#523295"/>
<path d="M67.2855 125.52L30.6763 153.413L53.3391 179.562L86.4617 142.953L67.2855 125.52Z" fill="#EEBEE6"/>
<ellipse cx="42.1706" cy="166.768" rx="6.97318" ry="17.433" transform="rotate(-41.164 42.1706 166.768)" fill="#E2A6D9"/>
<path d="M38.5 100L44.0546 109.855L55.1435 112.092L47.4875 120.42L48.7862 131.658L38.5 126.95L28.2138 131.658L29.5125 120.42L21.8565 112.092L32.9454 109.855L38.5 100Z" fill="#5A3FFF"/>
<path d="M78 4L90.6962 26.8068L116.042 31.9848L98.5428 51.2582L101.511 77.2652L78 66.37L54.4886 77.2652L57.4572 51.2582L39.9577 31.9848L65.3038 26.8068L78 4Z" fill="#5A3FFF"/>
<path d="M25.5 40L29.785 47.8838L38.3393 49.6738L32.4332 56.3362L33.4351 65.3262L25.5 61.56L17.5649 65.3262L18.5668 56.3362L12.6607 49.6738L21.215 47.8838L25.5 40Z" fill="#5A3FFF"/>
<path d="M26.3885 56.7564L25.8901 80.9644L29.3077 80.7152L28.9873 68.54L33.1169 68.6468L33.2237 66.6176L28.9517 66.938L28.8093 60.0316L34.7545 59.3908L34.5053 56.2936L26.3885 56.7564ZM38.9408 56.1512L35.2384 80.7152L38.2288 80.8932L39.9732 70.0708L42.9992 69.8572L44.9572 80.7152L47.3424 80.9644L42.8924 56.1512H38.9408ZM40.258 68.5044L41.4684 61.4912L42.75 68.3264L40.258 68.5044ZM56.9603 58.9636L57.2451 56.5072L48.9147 56.6852L49.1283 58.5364L51.4779 58.6788L51.9407 79.2556L49.5911 79.398L49.8759 81.1068L56.6399 81.0356L57.0315 78.864L54.3971 79.0776L54.7887 58.8568L56.9603 58.9636ZM63.9359 70.5692L67.7807 81.178L70.3083 81L66.1431 70.3556L68.4927 70.32L70.3083 67.8636V59.5688L68.1367 56.614H60.4471V81H63.2239L62.9035 70.6404L63.9359 70.5692ZM62.4763 58.7856H66.4279L68.0299 60.6724L67.9231 66.5108L66.5703 67.8636L62.7967 68.006L62.4763 58.7856ZM82.0789 56.4716L78.4477 65.5852L74.1045 56.614L71.0785 56.792L77.2017 68.8248L77.3441 80.9644H81.0465L80.6905 68.896L85.8169 56.7208L82.0789 56.4716ZM96.7889 56.7564L96.2905 80.9644L99.7081 80.7152L99.3877 68.54L103.517 68.6468L103.624 66.6176L99.3521 66.938L99.2097 60.0316L105.155 59.3908L104.906 56.2936L96.7889 56.7564ZM110.765 70.5692L114.61 81.178L117.138 81L112.972 70.3556L115.322 70.32L117.138 67.8636V59.5688L114.966 56.614H107.276V81H110.053L109.733 70.6404L110.765 70.5692ZM109.306 58.7856H113.257L114.859 60.6724L114.752 66.5108L113.4 67.8636L109.626 68.006L109.306 58.7856ZM135.654 62.9508L131.204 56.6852L124.938 56.258L119.349 62.5948L119.634 74.9836L124.191 81.178L130.207 81.1068L134.977 74.8412L135.654 62.9508ZM131.702 74.3784L128.783 78.5436L125.33 78.4368L122.731 74.414L122.161 64.7308L126.505 58.9636L129.175 59.0704L131.916 62.5948L131.702 74.3784ZM154.276 56.258L150.467 56.6852L147.37 65.87L143.596 56.5072L139.431 56.6496L138.256 80.9644L141.674 81.1424L141.71 61.1352L145.305 69.8928L147.94 70.2132L151.393 61.6692L151.678 80.8932C151.678 80.8932 154.846 80.8932 155.416 80.8576L154.276 56.258ZM46.3324 92.4004L45.5848 117H54.4136L57.048 114.935V105.216L54.0576 102.938L56.8344 96.2096L54.6272 92.5072L46.3324 92.4004ZM55.1256 106.605L54.9476 113.226L52.8472 114.757L49.4296 114.437L49.4652 105.216L52.7404 104.682L55.1256 106.605ZM51.4588 102.831L49.4652 103.223L49.5008 94.6432L52.7048 94.6076L54.022 96.5656L51.4588 102.831ZM75.3876 98.9508L70.9376 92.6852L64.672 92.258L59.0828 98.5948L59.3676 110.984L63.9244 117.178L69.9408 117.107L74.7112 110.841L75.3876 98.9508ZM71.436 110.378L68.5168 114.544L65.0636 114.437L62.4648 110.414L61.8952 100.731L66.2384 94.9636L68.9084 95.0704L71.6496 98.5948L71.436 110.378ZM94.0103 92.258L90.2011 92.6852L87.1039 101.87L83.3303 92.5072L79.1651 92.6496L77.9903 116.964L81.4079 117.142L81.4435 97.1352L85.0391 105.893L87.6735 106.213L91.1267 97.6692L91.4115 116.893C91.4115 116.893 94.5799 116.893 95.1495 116.858L94.0103 92.258ZM98.8633 92.4004L98.1157 117H106.944L109.579 114.935V105.216L106.588 102.938L109.365 96.2096L107.158 92.5072L98.8633 92.4004ZM107.656 106.605L107.478 113.226L105.378 114.757L101.96 114.437L101.996 105.216L105.271 104.682L107.656 106.605ZM103.99 102.831L101.996 103.223L102.032 94.6432L105.236 94.6076L106.553 96.5656L103.99 102.831ZM114.782 92.1512L111.08 116.715L114.07 116.893L115.814 106.071L118.84 105.857L120.798 116.715L123.184 116.964L118.734 92.1512H114.782ZM116.099 104.504L117.31 97.4912L118.591 104.326L116.099 104.504ZM132.437 92.4716L128.806 101.585L124.462 92.614L121.436 92.792L127.56 104.825L127.702 116.964H131.404L131.048 104.896L136.175 92.7208L132.437 92.4716Z" fill="white"/>
</g>
<defs>
<clipPath id="clip0_874_2623">
<rect width="180" height="180" fill="white"/>
</clipPath>
</defs>
</svg>
