<svg width="180" height="180" viewBox="0 0 180 180" fill="none" xmlns="http://www.w3.org/2000/svg">
<g clip-path="url(#clip0_874_2623)">
<rect width="180" height="180" fill="#C15FC4"/>
<path d="M32 159L232.886 -23L239 -11.625L48.5949 180L32 159Z" fill="#523295"/>
<path d="M67.2855 125.52L30.6763 153.413L53.3391 179.562L86.4617 142.953L67.2855 125.52Z" fill="#EEBEE6"/>
<ellipse cx="42.1706" cy="166.768" rx="6.97318" ry="17.433" transform="rotate(-41.164 42.1706 166.768)" fill="#E2A6D9"/>
<path d="M38.5 100L44.0546 109.855L55.1435 112.092L47.4875 120.42L48.7862 131.658L38.5 126.95L28.2138 131.658L29.5125 120.42L21.8565 112.092L32.9454 109.855L38.5 100Z" fill="#5A3FFF"/>
<path d="M78 4L90.6962 26.8068L116.042 31.9848L98.5428 51.2582L101.511 77.2652L78 66.37L54.4886 77.2652L57.4572 51.2582L39.9577 31.9848L65.3038 26.8068L78 4Z" fill="#5A3FFF"/>
<path d="M25.5 40L29.785 47.8838L38.3393 49.6738L32.4332 56.3362L33.4351 65.3262L25.5 61.56L17.5649 65.3262L18.5668 56.3362L12.6607 49.6738L21.215 47.8838L25.5 40Z" fill="#5A3FFF"/>
<path d="M31.6483 68.4688L35.4219 81H39.4091L31.8975 56.2936H28.2663L23.8875 81H26.1303L28.0171 68.4332L31.6483 68.4688ZM29.2631 60.1028L31.1499 66.8668L28.2663 66.76L29.2631 60.1028ZM50.4985 56.7564L50.0001 80.9644L53.4177 80.7152L53.0973 68.54L57.2269 68.6468L57.3337 66.6176L53.0617 66.938L52.9193 60.0316L58.8645 59.3908L58.6153 56.2936L50.4985 56.7564ZM70.2064 56.5072L60.986 56.7208L61.5912 81H70.8116L71.0252 78.1164L63.8696 78.508L63.7984 67.65L68.2128 67.4008L67.8568 65.4428L63.7628 65.9412L63.7272 59.2484L70.3488 59.7468L70.2064 56.5072ZM82.4439 56.4716L78.8127 65.5852L74.4695 56.614L71.4435 56.792L77.5667 68.8248L77.7091 80.9644H81.4115L81.0555 68.896L86.1819 56.7208L82.4439 56.4716ZM97.1539 56.7564L96.6555 80.9644L100.073 80.7152L99.7527 68.54L103.882 68.6468L103.989 66.6176L99.7171 66.938L99.5747 60.0316L105.52 59.3908L105.271 56.2936L97.1539 56.7564ZM111.13 70.5692L114.975 81.178L117.503 81L113.337 70.3556L115.687 70.32L117.503 67.8636V59.5688L115.331 56.614H107.641V81H110.418L110.098 70.6404L111.13 70.5692ZM109.671 58.7856H113.622L115.224 60.6724L115.117 66.5108L113.765 67.8636L109.991 68.006L109.671 58.7856ZM136.019 62.9508L131.569 56.6852L125.303 56.258L119.714 62.5948L119.999 74.9836L124.556 81.178L130.572 81.1068L135.342 74.8412L136.019 62.9508ZM132.067 74.3784L129.148 78.5436L125.695 78.4368L123.096 74.414L122.526 64.7308L126.87 58.9636L129.54 59.0704L132.281 62.5948L132.067 74.3784ZM154.642 56.258L150.832 56.6852L147.735 65.87L143.962 56.5072L139.796 56.6496L138.622 80.9644L142.039 81.1424L142.075 61.1352L145.67 69.8928L148.305 70.2132L151.758 61.6692L152.043 80.8932C152.043 80.8932 155.211 80.8932 155.781 80.8576L154.642 56.258ZM50.0141 95.8536C51.9365 95.8536 54.2505 96.4944 54.2505 99.022C54.2505 101.336 52.5417 103.864 49.6937 103.864L50.0141 95.8536ZM46.6677 92.4004C45.7421 113.582 45.7065 116.822 45.7065 117.107L49.0529 117.32C52.9689 117.32 56.9205 115.469 56.9205 110.841C56.9205 107.958 55.2473 105.394 52.2213 104.896C55.5677 104.006 56.7425 101.372 56.7425 98.9508C56.7425 94.2872 52.7197 92.0444 46.6677 92.4004ZM49.6937 106.106C52.3637 106.106 54.1793 107.673 54.1793 110.628C54.1793 113.191 52.4705 114.722 49.8717 114.722C49.7293 114.722 49.5513 114.686 49.3733 114.686L49.6937 106.106ZM75.2659 98.9508L70.8159 92.6852L64.5503 92.258L58.9611 98.5948L59.2459 110.984L63.8027 117.178L69.8191 117.107L74.5895 110.841L75.2659 98.9508ZM71.3143 110.378L68.3951 114.544L64.9419 114.437L62.3431 110.414L61.7735 100.731L66.1167 94.9636L68.7867 95.0704L71.5279 98.5948L71.3143 110.378ZM93.8886 92.258L90.0794 92.6852L86.9822 101.87L83.2086 92.5072L79.0434 92.6496L77.8686 116.964L81.2862 117.142L81.3218 97.1352L84.9174 105.893L87.5518 106.213L91.005 97.6692L91.2898 116.893C91.2898 116.893 94.4582 116.893 95.0278 116.858L93.8886 92.258ZM98.7416 92.4004L97.994 117H106.823L109.457 114.935V105.216L106.467 102.938L109.244 96.2096L107.036 92.5072L98.7416 92.4004ZM107.535 106.605L107.357 113.226L105.256 114.757L101.839 114.437L101.874 105.216L105.15 104.682L107.535 106.605ZM103.868 102.831L101.874 103.223L101.91 94.6432L105.114 94.6076L106.431 96.5656L103.868 102.831ZM114.66 92.1512L110.958 116.715L113.948 116.893L115.693 106.071L118.719 105.857L120.677 116.715L123.062 116.964L118.612 92.1512H114.66ZM115.978 104.504L117.188 97.4912L118.47 104.326L115.978 104.504ZM132.315 92.4716L128.684 101.585L124.341 92.614L121.315 92.792L127.438 104.825L127.58 116.964H131.283L130.927 104.896L136.053 92.7208L132.315 92.4716Z" fill="white"/>
</g>
<defs>
<clipPath id="clip0_874_2623">
<rect width="180" height="180" fill="white"/>
</clipPath>
</defs>
</svg>
