<svg width="180" height="180" viewBox="0 0 180 180" fill="none" xmlns="http://www.w3.org/2000/svg">
<g clip-path="url(#clip0_874_2447)">
<rect width="180" height="180" fill="#6B291A"/>
<path d="M159.144 109.956C146.212 145.202 101.925 173.62 65.1127 160.113C28.3002 146.606 12.9025 96.2885 25.8345 61.043C38.7665 25.7975 78.0744 10.9496 114.887 24.4565C151.699 37.9635 172.076 74.7105 159.144 109.956Z" fill="#849230"/>
<path d="M150.407 61.3289C160.609 93.9253 141.534 128.909 107.802 139.467C74.0692 150.025 38.4529 132.159 28.2505 99.5627C18.0481 66.9663 40.4653 42.6608 74.1978 32.1028C107.93 21.5449 140.205 28.7325 150.407 61.3289Z" fill="#B7C948"/>
<path d="M100.777 50.1542C97.7963 63.7804 104.353 75.6293 121.638 72.6671C142.499 66.1498 151.44 88.6635 132.963 92.2182C114.485 95.7729 114.486 93.4031 96.0085 117.693C77.5314 141.984 43.5573 106.437 55.4781 96.9577C67.3988 87.4786 66.8023 76.8142 64.4181 52.524C62.034 28.2337 103.757 36.5279 100.777 50.1542Z" fill="#8D9E22"/>
<path d="M52.7215 69.1096L60.3043 69.3588L60.5891 66.1192L52.7571 67.0448L52.8639 59.4976L62.0131 59.3196L62.3335 56.4004L50.6211 56.792L49.3395 80.8932L52.5791 80.6796L52.7215 69.1096ZM73.683 56.5072L64.4626 56.7208L65.0678 81H74.2882L74.5018 78.1164L67.3462 78.508L67.275 67.65L71.6894 67.4008L71.3334 65.4428L67.2394 65.9412L67.2038 59.2484L73.8254 59.7468L73.683 56.5072ZM83.6777 58.9636L83.9625 56.5072L75.6321 56.6852L75.8457 58.5364L78.1953 58.6788L78.6581 79.2556L76.3085 79.398L76.5933 81.1068L83.3573 81.0356L83.7489 78.864L81.1145 79.0776L81.5061 58.8568L83.6777 58.9636ZM96.1713 76.0516L90.9381 78.2588L88.3037 73.524L85.3489 75.482L88.7309 81H94.7473L99.0549 77.8316L99.7313 56.614H95.5661L96.1713 76.0516ZM118.671 62.9508L114.221 56.6852L107.955 56.258L102.366 62.5948L102.651 74.9836L107.208 81.178L113.224 81.1068L117.994 74.8412L118.671 62.9508ZM114.719 74.3784L111.8 78.5436L108.347 78.4368L105.748 74.414L105.178 64.7308L109.522 58.9636L112.192 59.0704L114.933 62.5948L114.719 74.3784ZM123.891 56.1512L120.188 80.7152L123.179 80.8932L124.923 70.0708L127.949 69.8572L129.907 80.7152L132.292 80.9644L127.842 56.1512H123.891ZM125.208 68.5044L126.418 61.4912L127.7 68.3264L125.208 68.5044ZM35.4327 114.045L29.1315 114.437L27.3515 103.294L28.8111 96.5656L35.3259 95.7112L35.3971 92.0444L27.4227 92.97L24.0051 104.184L26.9599 117.285L35.8243 117.071L35.4327 114.045ZM38.3413 117.071H40.0857L39.7297 103.543H44.1085L44.3221 117.071H47.1701L46.3157 92.4004H43.9661L44.1085 101.799L39.6941 102.119L39.4449 92.4004H37.3801L38.3413 117.071ZM53.4903 92.1512L49.7879 116.715L52.7783 116.893L54.5227 106.071L57.5487 105.857L59.5067 116.715L61.8919 116.964L57.4419 92.1512H53.4903ZM54.8075 104.504L56.0179 97.4912L57.2995 104.326L54.8075 104.504ZM79.9997 92.258L76.1905 92.6852L73.0933 101.87L69.3197 92.5072L65.1545 92.6496L63.9797 116.964L67.3973 117.142L67.4329 97.1352L71.0285 105.893L73.6629 106.213L77.1161 97.6692L77.4009 116.893C77.4009 116.893 80.5693 116.893 81.1389 116.858L79.9997 92.258ZM94.3223 95.5688L92.1151 92.5784H84.1051V117H86.8463L86.4903 106.64L92.1151 106.462L94.2867 103.828L94.3223 95.5688ZM91.5455 102.546L90.1927 103.828L86.4191 103.97L86.0987 94.8212H90.0503L91.6523 96.6724L91.5455 102.546ZM98.6508 92.1512L94.9484 116.715L97.9388 116.893L99.6832 106.071L102.709 105.857L104.667 116.715L107.052 116.964L102.602 92.1512H98.6508ZM99.968 104.504L101.178 97.4912L102.46 104.326L99.968 104.504ZM125.285 95.9604L122.117 92.8276L117.738 92.1156L111.579 94.7144L108.625 104.113L110.832 114.366L117.667 117.57L125.819 115.113L125.57 106.925L124.36 105.501L120.301 105.216V108.563L123.185 108.349L123.007 113.155L118.059 114.294L113.609 111.482L111.615 104.398L114.214 96.53L119.91 94.8924L123.185 98.0252L125.285 95.9604ZM142.698 92.614L138.746 92.436L139.423 110.058L132.623 92.436H128.814L129.17 117.036L132.516 116.964L131.982 97.9896L139.28 116.964H142.093L142.698 92.614ZM156.182 92.5072L146.961 92.7208L147.567 117H156.787L157.001 114.116L149.845 114.508L149.774 103.65L154.188 103.401L153.832 101.443L149.738 101.941L149.703 95.2484L156.324 95.7468L156.182 92.5072Z" fill="white"/>
</g>
<defs>
<clipPath id="clip0_874_2447">
<rect width="180" height="180" fill="white"/>
</clipPath>
</defs>
</svg>
