<svg width="180" height="180" viewBox="0 0 180 180" fill="none" xmlns="http://www.w3.org/2000/svg">
<g clip-path="url(#clip0_874_2447)">
<rect width="180" height="180" fill="#6B291A"/>
<path d="M159.144 109.956C146.212 145.202 101.925 173.62 65.1127 160.113C28.3002 146.606 12.9025 96.2885 25.8345 61.043C38.7665 25.7975 78.0744 10.9496 114.887 24.4565C151.699 37.9635 172.076 74.7105 159.144 109.956Z" fill="#849230"/>
<path d="M150.407 61.3289C160.609 93.9253 141.534 128.909 107.802 139.467C74.0692 150.025 38.4529 132.159 28.2505 99.5627C18.0481 66.9663 40.4653 42.6608 74.1978 32.1028C107.93 21.5449 140.205 28.7325 150.407 61.3289Z" fill="#B7C948"/>
<path d="M100.777 50.1542C97.7963 63.7804 104.353 75.6293 121.638 72.6671C142.499 66.1498 151.44 88.6635 132.963 92.2182C114.485 95.7729 114.486 93.4031 96.0085 117.693C77.5314 141.984 43.5573 106.437 55.4781 96.9577C67.3988 87.4786 66.8023 76.8142 64.4181 52.524C62.034 28.2337 103.757 36.5279 100.777 50.1542Z" fill="#8D9E22"/>
<path d="M51.9065 56.7564L51.4081 80.9644L54.8257 80.7152L54.5053 68.54L58.6349 68.6468L58.7417 66.6176L54.4697 66.938L54.3273 60.0316L60.2725 59.3908L60.0233 56.2936L51.9065 56.7564ZM71.6144 56.5072L62.394 56.7208L62.9992 81H72.2196L72.4332 78.1164L65.2776 78.508L65.2064 67.65L69.6208 67.4008L69.2648 65.4428L65.1708 65.9412L65.1352 59.2484L71.7568 59.7468L71.6144 56.5072ZM81.6091 58.9636L81.8939 56.5072L73.5635 56.6852L73.7771 58.5364L76.1267 58.6788L76.5895 79.2556L74.2399 79.398L74.5247 81.1068L81.2887 81.0356L81.6803 78.864L79.0459 79.0776L79.4375 58.8568L81.6091 58.9636ZM94.1028 76.0516L88.8696 78.2588L86.2352 73.524L83.2804 75.482L86.6624 81H92.6788L96.9864 77.8316L97.6628 56.614H93.4976L94.1028 76.0516ZM116.602 62.9508L112.152 56.6852L105.887 56.258L100.297 62.5948L100.582 74.9836L105.139 81.178L111.155 81.1068L115.926 74.8412L116.602 62.9508ZM112.651 74.3784L109.731 78.5436L106.278 78.4368L103.679 74.414L103.11 64.7308L107.453 58.9636L110.123 59.0704L112.864 62.5948L112.651 74.3784ZM121.822 56.1512L118.12 80.7152L121.11 80.8932L122.854 70.0708L125.88 69.8572L127.838 80.7152L130.224 80.9644L125.774 56.1512H121.822ZM123.139 68.5044L124.35 61.4912L125.631 68.3264L123.139 68.5044ZM35.4327 114.045L29.1315 114.437L27.3515 103.294L28.8111 96.5656L35.3259 95.7112L35.3971 92.0444L27.4227 92.97L24.0051 104.184L26.9599 117.285L35.8243 117.071L35.4327 114.045ZM38.3413 117.071H40.0857L39.7297 103.543H44.1085L44.3221 117.071H47.1701L46.3157 92.4004H43.9661L44.1085 101.799L39.6941 102.119L39.4449 92.4004H37.3801L38.3413 117.071ZM53.4903 92.1512L49.7879 116.715L52.7783 116.893L54.5227 106.071L57.5487 105.857L59.5067 116.715L61.8919 116.964L57.4419 92.1512H53.4903ZM54.8075 104.504L56.0179 97.4912L57.2995 104.326L54.8075 104.504ZM79.9997 92.258L76.1905 92.6852L73.0933 101.87L69.3197 92.5072L65.1545 92.6496L63.9797 116.964L67.3973 117.142L67.4329 97.1352L71.0285 105.893L73.6629 106.213L77.1161 97.6692L77.4009 116.893C77.4009 116.893 80.5693 116.893 81.1389 116.858L79.9997 92.258ZM94.3223 95.5688L92.1151 92.5784H84.1051V117H86.8463L86.4903 106.64L92.1151 106.462L94.2867 103.828L94.3223 95.5688ZM91.5455 102.546L90.1927 103.828L86.4191 103.97L86.0987 94.8212H90.0503L91.6523 96.6724L91.5455 102.546ZM98.6508 92.1512L94.9484 116.715L97.9388 116.893L99.6832 106.071L102.709 105.857L104.667 116.715L107.052 116.964L102.602 92.1512H98.6508ZM99.968 104.504L101.178 97.4912L102.46 104.326L99.968 104.504ZM125.285 95.9604L122.117 92.8276L117.738 92.1156L111.579 94.7144L108.625 104.113L110.832 114.366L117.667 117.57L125.819 115.113L125.57 106.925L124.36 105.501L120.301 105.216V108.563L123.185 108.349L123.007 113.155L118.059 114.294L113.609 111.482L111.615 104.398L114.214 96.53L119.91 94.8924L123.185 98.0252L125.285 95.9604ZM142.698 92.614L138.746 92.436L139.423 110.058L132.623 92.436H128.814L129.17 117.036L132.516 116.964L131.982 97.9896L139.28 116.964H142.093L142.698 92.614ZM156.182 92.5072L146.961 92.7208L147.567 117H156.787L157.001 114.116L149.845 114.508L149.774 103.65L154.188 103.401L153.832 101.443L149.738 101.941L149.703 95.2484L156.324 95.7468L156.182 92.5072Z" fill="white"/>
</g>
<defs>
<clipPath id="clip0_874_2447">
<rect width="180" height="180" fill="white"/>
</clipPath>
</defs>
</svg>
