<svg width="180" height="180" viewBox="0 0 180 180" fill="none" xmlns="http://www.w3.org/2000/svg">
<g clip-path="url(#clip0_874_2819)">
<rect width="180" height="180" fill="#CC4163"/>
<path d="M97.2301 47.5227C91.1262 58.9048 97.2299 85.3816 106.557 106.436C92.2004 95.9821 48.4968 66.4278 39.9514 85.1375C29.6481 107.56 33.5057 144.832 45.5181 151.28C56.212 156.996 80.3345 152.013 100.648 143.562C88.8311 160.318 64.1716 199.007 81.653 207.067C104.066 217.326 141.324 213.516 147.77 201.498C154.216 189.481 147.77 163.64 138.443 142.585C152.8 152.99 196.503 182.594 205.049 163.884C215.352 141.462 211.494 104.189 199.482 97.7406C188.788 92.0251 164.714 96.9591 144.352 105.459C156.169 88.7034 180.828 50.014 163.347 41.9537C140.934 31.6463 103.578 35.5056 97.2301 47.5227Z" fill="#4192B5"/>
<path d="M122.5 139C130.508 139 137 132.508 137 124.5C137 116.492 130.508 110 122.5 110C114.492 110 108 116.492 108 124.5C108 132.508 114.492 139 122.5 139Z" fill="#FFC81A"/>
<path d="M49.0698 53.0324L48.5154 79.9604L52.317 79.6832L51.9606 66.14L56.5542 66.2588L56.673 64.0016L51.921 64.358L51.7626 56.6756L58.3758 55.9628L58.0986 52.5176L49.0698 53.0324ZM71.7445 75.9608L64.2205 76.9112L65.0521 53.0324L60.7357 52.6364L61.1713 80.1584L72.2197 80.2772L71.7445 75.9608ZM89.8266 59.9228L84.8766 52.9532L77.907 52.478L71.6898 59.5268L72.0066 73.3076L77.0754 80.198L83.7678 80.1188L89.0742 73.1492L89.8266 59.9228ZM85.431 72.6344L82.1838 77.2676L78.3426 77.1488L75.4518 72.674L74.8182 61.9028L79.6494 55.4876L82.6194 55.6064L85.6686 59.5268L85.431 72.6344ZM97.2169 68.3972L101.494 80.198L104.305 80L99.6721 68.1596L102.286 68.12L104.305 65.3876V56.1608L101.89 52.874H93.3361V80H96.4249L96.0685 68.4764L97.2169 68.3972ZM95.5933 55.2896H99.9889L101.771 57.3884L101.652 63.8828L100.147 65.3876L95.9497 65.546L95.5933 55.2896ZM110.29 52.3592L106.171 79.6832L109.498 79.8812L111.438 67.8428L114.804 67.6052L116.982 79.6832L119.635 79.9604L114.685 52.3592H110.29ZM111.755 66.1004L113.101 58.2992L114.527 65.9024L111.755 66.1004ZM133.581 75.9608L126.057 76.9112L126.888 53.0324L122.572 52.6364L123.008 80.1584L134.056 80.2772L133.581 75.9608ZM49.3357 94.9728L54.2857 97.4676L56.4637 94.7352L52.2265 92.3196L45.5737 93.6264L44.0689 101.23L54.5629 111.09L53.0977 117.268L48.5041 116.832L46.0489 113.149L43.6333 116.159L46.8805 119.921L55.5529 120.04L58.4833 109.862L47.3161 99.5664L49.3357 94.9728ZM62.7081 92.6364L61.8765 120H71.6973L74.6277 117.703V106.892L71.3013 104.358L74.3901 96.8736L71.9349 92.7552L62.7081 92.6364ZM72.4893 108.437L72.2913 115.802L69.9549 117.505L66.1533 117.149L66.1929 106.892L69.8361 106.298L72.4893 108.437ZM68.4105 104.239L66.1929 104.675L66.2325 95.1312L69.7965 95.0916L71.2617 97.2696L68.4105 104.239ZM85.8803 95.4876L86.1971 92.7552L76.9307 92.9532L77.1683 95.0124L79.7819 95.1708L80.2967 118.06L77.6831 118.218L77.9999 120.119L85.5239 120.04L85.9595 117.624L83.0291 117.862L83.4647 95.3688L85.8803 95.4876ZM103.767 92.3988L88.0459 93.3096L88.2043 95.5272H94.2631L93.7483 120.277L97.1539 119.802L98.3419 95.5272L103.609 95.6064L103.767 92.3988ZM116.528 92.7552L106.272 92.9928L106.945 120H117.201L117.439 116.792L109.479 117.228L109.4 105.15L114.311 104.873L113.915 102.695L109.361 103.249L109.321 95.8044L116.687 96.3588L116.528 92.7552ZM135.328 92.874L130.933 92.676L131.685 112.278L124.122 92.676H119.884L120.28 120.04L124.003 119.96L123.409 98.8536L131.527 119.96H134.655L135.328 92.874Z" fill="white"/>
</g>
<defs>
<clipPath id="clip0_874_2819">
<rect width="180" height="180" fill="white"/>
</clipPath>
</defs>
</svg>
