<svg width="180" height="180" viewBox="0 0 180 180" fill="none" xmlns="http://www.w3.org/2000/svg">
<g clip-path="url(#clip0_874_2819)">
<rect width="180" height="180" fill="#CC4163"/>
<path d="M97.2301 47.5227C91.1262 58.9048 97.2299 85.3816 106.557 106.436C92.2004 95.9821 48.4968 66.4278 39.9514 85.1375C29.6481 107.56 33.5057 144.832 45.5181 151.28C56.212 156.996 80.3345 152.013 100.648 143.562C88.8311 160.318 64.1716 199.007 81.653 207.067C104.066 217.326 141.324 213.516 147.77 201.498C154.216 189.481 147.77 163.64 138.443 142.585C152.8 152.99 196.503 182.594 205.049 163.884C215.352 141.462 211.494 104.189 199.482 97.7406C188.788 92.0251 164.714 96.9591 144.352 105.459C156.169 88.7034 180.828 50.014 163.347 41.9537C140.934 31.6463 103.578 35.5056 97.2301 47.5227Z" fill="#4192B5"/>
<path d="M122.5 139C130.508 139 137 132.508 137 124.5C137 116.492 130.508 110 122.5 110C114.492 110 108 116.492 108 124.5C108 132.508 114.492 139 122.5 139Z" fill="#FFC81A"/>
<path d="M44.3497 66.7736L52.7845 67.0508L53.1013 63.4472L44.3893 64.4768L44.5081 56.0816L54.6853 55.8836L55.0417 52.6364L42.0133 53.072L40.5877 79.8812L44.1913 79.6436L44.3497 66.7736ZM68.4187 75.9608L60.8947 76.9112L61.7263 53.0324L57.4099 52.6364L57.8455 80.1584L68.8939 80.2772L68.4187 75.9608ZM86.5008 59.9228L81.5508 52.9532L74.5812 52.478L68.364 59.5268L68.6808 73.3076L73.7496 80.198L80.442 80.1188L85.7484 73.1492L86.5008 59.9228ZM82.1052 72.6344L78.858 77.2676L75.0168 77.1488L72.126 72.674L71.4924 61.9028L76.3236 55.4876L79.2936 55.6064L82.3428 59.5268L82.1052 72.6344ZM101.217 69.6644L104.425 79.9604L108.266 80.0792L113.533 52.874L108.543 52.7948L106.009 74.6144L102.088 63.4868L100.504 63.6848L95.7127 76.3568L92.6239 52.7948L88.6243 52.5968L93.5743 80.1188L97.2571 80L101.217 69.6644ZM126.332 52.7552L116.075 52.9928L116.748 80H127.005L127.242 76.7924L119.283 77.228L119.204 65.15L124.114 64.8728L123.718 62.6948L119.164 63.2492L119.124 55.8044L126.49 56.3588L126.332 52.7552ZM133.568 68.3972L137.845 80.198L140.657 80L136.024 68.1596L138.637 68.12L140.657 65.3876V56.1608L138.241 52.874L129.688 52.874V80H132.776L132.42 68.4764L133.568 68.3972ZM131.945 55.2896H136.34L138.122 57.3884L138.004 63.8828L136.499 65.3876L132.301 65.546L131.945 55.2896ZM49.3357 94.9728L54.2857 97.4676L56.4637 94.7352L52.2265 92.3196L45.5737 93.6264L44.0689 101.23L54.5629 111.09L53.0977 117.268L48.5041 116.832L46.0489 113.149L43.6333 116.159L46.8805 119.921L55.5529 120.04L58.4833 109.862L47.3161 99.5664L49.3357 94.9728ZM62.7081 92.6364L61.8765 120H71.6973L74.6277 117.703V106.892L71.3013 104.358L74.3901 96.8736L71.9349 92.7552L62.7081 92.6364ZM72.4893 108.437L72.2913 115.802L69.9549 117.505L66.1533 117.149L66.1929 106.892L69.8361 106.298L72.4893 108.437ZM68.4105 104.239L66.1929 104.675L66.2325 95.1312L69.7965 95.0916L71.2617 97.2696L68.4105 104.239ZM85.8803 95.4876L86.1971 92.7552L76.9307 92.9532L77.1683 95.0124L79.7819 95.1708L80.2967 118.06L77.6831 118.218L77.9999 120.119L85.5239 120.04L85.9595 117.624L83.0291 117.862L83.4647 95.3688L85.8803 95.4876ZM103.767 92.3988L88.0459 93.3096L88.2043 95.5272H94.2631L93.7483 120.277L97.1539 119.802L98.3419 95.5272L103.609 95.6064L103.767 92.3988ZM116.528 92.7552L106.272 92.9928L106.945 120H117.201L117.439 116.792L109.479 117.228L109.4 105.15L114.311 104.873L113.915 102.695L109.361 103.249L109.321 95.8044L116.687 96.3588L116.528 92.7552ZM135.328 92.874L130.933 92.676L131.685 112.278L124.122 92.676H119.884L120.28 120.04L124.003 119.96L123.409 98.8536L131.527 119.96H134.655L135.328 92.874Z" fill="white"/>
</g>
<defs>
<clipPath id="clip0_874_2819">
<rect width="180" height="180" fill="white"/>
</clipPath>
</defs>
</svg>
