<svg width="180" height="180" viewBox="0 0 180 180" fill="none" xmlns="http://www.w3.org/2000/svg">
<g clip-path="url(#clip0_874_2304)">
<rect width="180" height="180" fill="#5A53B1"/>
<path fill-rule="evenodd" clip-rule="evenodd" d="M80.8986 24.9891C78.9869 28.9655 78.4499 32.9541 79.4501 36.1623C81.6714 43.2881 80.6902 48.9717 78.3048 53.1712C75.9747 57.2735 72.4182 59.7625 69.7186 60.8277L67.7645 55.8755C69.4691 55.2029 72.0142 53.4669 73.6757 50.5418C75.2819 47.7139 76.1822 43.568 74.3675 37.7468C72.8451 32.8632 73.8095 27.4478 76.1004 22.6824C78.4034 17.892 82.1723 13.4755 86.7317 10.4791C91.2984 7.47788 96.8186 5.80719 102.509 6.86418C108.241 7.9288 113.695 11.6763 118.246 18.6351L113.791 21.5493C109.839 15.5068 105.521 12.8385 101.537 12.0984C97.5112 11.3507 93.371 12.4863 89.6556 14.9281C85.9329 17.3746 82.7982 21.0377 80.8986 24.9891Z" fill="#B842A5"/>
<ellipse cx="87.8608" cy="117.263" rx="42.1466" ry="47.9141" transform="rotate(-23.3234 87.8608 117.263)" fill="#B842A5"/>
<ellipse cx="119.378" cy="37.9692" rx="19.0769" ry="22.1824" transform="rotate(-23.3234 119.378 37.9692)" fill="#722D67"/>
<path d="M53.0139 58.8525L70.5319 51.2995L78.2605 69.225L57.8907 78.0074L53.0139 58.8525Z" fill="#ED71D9"/>
<path d="M53.2606 65.0263L52.2067 62.582L27.9873 69.1592L31.6759 77.7145L53.2606 65.0263Z" fill="#ED70D9"/>
<path d="M47.3373 56.636C45.3177 55.0916 42.3873 52.9532 39.5757 52.9532C36.1701 52.9532 34.8237 55.8836 34.8237 58.3784C34.8237 65.6252 43.3377 67.2488 43.3377 73.5848C43.3377 74.9708 42.7833 76.5152 41.1201 76.5152C38.7837 76.5152 36.9225 74.7332 35.0217 72.1196L32.7249 74.7332C35.0613 78.2972 37.3581 80.3564 40.5261 80.3564C43.6941 80.3564 46.5453 78.1784 46.5453 73.4264C46.5453 67.0112 37.6353 62.8928 37.6353 58.4972C37.6353 57.3488 38.2293 56.0816 39.3777 56.0816C41.2389 56.0816 43.6545 58.2992 45.6741 59.804L47.3373 56.636ZM62.0113 76.7132L55.0021 77.1488L53.0221 64.754L54.6457 57.2696L61.8925 56.3192L61.9717 52.2404L53.1013 53.27L49.2997 65.744L52.5865 80.3168L62.4469 80.0792L62.0113 76.7132ZM74.8206 52.7552L64.5642 52.9928L65.2374 80H75.4938L75.7314 76.7924L67.7718 77.228L67.6926 65.15L72.603 64.8728L72.207 62.6948L67.653 63.2492L67.6134 55.8044L74.979 56.3588L74.8206 52.7552ZM93.6207 52.874L89.2251 52.676L89.9775 72.278L82.4139 52.676H78.1767L78.5727 80.0396L82.2951 79.9604L81.7011 58.8536L89.8191 79.9604H92.9475L93.6207 52.874ZM111.946 52.3988L96.225 53.3096L96.3834 55.5272H102.442L101.927 80.2772L105.333 79.802L106.521 55.5272L111.788 55.6064L111.946 52.3988ZM124.707 52.7552L114.451 52.9928L115.124 80H125.381L125.618 76.7924L117.659 77.228L117.579 65.15L122.49 64.8728L122.094 62.6948L117.54 63.2492L117.5 55.8044L124.866 56.3588L124.707 52.7552ZM128.618 80.198L140.696 79.7624L145.923 73.5848L146.517 61.0712L140.062 53.1908L128.063 52.7552L128.618 80.198ZM141.131 71.882L138.201 76.3568L132.221 76.5944L132.578 55.9628L137.884 55.8044L141.884 62.4572L141.131 71.882ZM37.9353 92.478L33.6981 92.9532L30.2529 103.17L26.0553 92.7552L21.4221 92.9136L20.1153 119.96L23.9169 120.158L23.9565 97.9032L27.9561 107.645L30.8865 108.001L34.7277 98.4972L35.0445 119.881C35.0445 119.881 38.5689 119.881 39.2024 119.842L37.9353 92.478ZM44.7987 92.3592L40.6803 119.683L44.0067 119.881L45.9471 107.843L49.3131 107.605L51.4911 119.683L54.1443 119.96L49.1943 92.3592H44.7987ZM46.2639 106.1L47.6103 98.2992L49.0359 105.902L46.2639 106.1ZM60.962 108.397L65.2388 120.198L68.0504 120L63.4172 108.16L66.0308 108.12L68.0504 105.388V96.1608L65.6348 92.874H57.0812V120H60.17L59.8136 108.476L60.962 108.397ZM59.3384 95.2896H63.734L65.516 97.3884L65.3972 103.883L63.8924 105.388L59.6948 105.546L59.3384 95.2896ZM89.0827 96.5964L85.5583 93.1116L80.6875 92.3196L73.8367 95.2104L70.5499 105.665L73.0051 117.07L80.6083 120.634L89.6767 117.901L89.3995 108.793L88.0531 107.209L83.5387 106.892V110.615L86.7463 110.377L86.5483 115.723L81.0439 116.99L76.0939 113.862L73.8763 105.982L76.7671 97.23L83.1031 95.4084L86.7463 98.8932L89.0827 96.5964ZM95.3042 92.3592L91.1858 119.683L94.5122 119.881L96.4526 107.843L99.8186 107.605L101.997 119.683L104.65 119.96L99.6998 92.3592H95.3042ZM96.7694 106.1L98.1158 98.2992L99.5414 105.902L96.7694 106.1ZM111.467 108.397L115.744 120.198L118.556 120L113.923 108.16L116.536 108.12L118.556 105.388V96.1608L116.14 92.874H107.587V120H110.675L110.319 108.476L111.467 108.397ZM109.844 95.2896H114.239L116.021 97.3884L115.903 103.883L114.398 105.388L110.2 105.546L109.844 95.2896ZM130.005 95.4876L130.322 92.7552L121.055 92.9532L121.293 95.0124L123.907 95.1708L124.421 118.06L121.808 118.218L122.125 120.119L129.649 120.04L130.084 117.624L127.154 117.862L127.589 95.3688L130.005 95.4876ZM147.892 92.3988L132.171 93.3096L132.329 95.5272H138.388L137.873 120.277L141.279 119.802L142.467 95.5272L147.733 95.6064L147.892 92.3988ZM151.069 92.3592L146.951 119.683L150.277 119.881L152.217 107.843L155.583 107.605L157.761 119.683L160.415 119.96L155.465 92.3592H151.069ZM152.534 106.1L153.881 98.2992L155.306 105.902L152.534 106.1Z" fill="white"/>
</g>
<defs>
<clipPath id="clip0_874_2304">
<rect width="180" height="180" fill="white"/>
</clipPath>
</defs>
</svg>
