<svg width="180" height="180" viewBox="0 0 180 180" fill="none" xmlns="http://www.w3.org/2000/svg">
<g clip-path="url(#clip0_874_2304)">
<rect width="180" height="180" fill="#5A53B1"/>
<path fill-rule="evenodd" clip-rule="evenodd" d="M80.8986 24.9891C78.9869 28.9655 78.4499 32.9541 79.4501 36.1623C81.6714 43.2881 80.6902 48.9717 78.3048 53.1712C75.9747 57.2735 72.4182 59.7625 69.7186 60.8277L67.7645 55.8755C69.4691 55.2029 72.0142 53.4669 73.6757 50.5418C75.2819 47.7139 76.1822 43.568 74.3675 37.7468C72.8451 32.8632 73.8095 27.4478 76.1004 22.6824C78.4034 17.892 82.1723 13.4755 86.7317 10.4791C91.2984 7.47787 96.8186 5.80719 102.509 6.86418C108.241 7.92881 113.695 11.6763 118.246 18.6351L113.791 21.5493C109.839 15.5068 105.521 12.8385 101.537 12.0984C97.5112 11.3507 93.371 12.4863 89.6556 14.9281C85.9329 17.3746 82.7982 21.0377 80.8986 24.9891Z" fill="#B842A5"/>
<ellipse cx="87.8608" cy="117.263" rx="42.1466" ry="47.9141" transform="rotate(-23.3234 87.8608 117.263)" fill="#B842A5"/>
<ellipse cx="119.378" cy="37.9692" rx="19.0769" ry="22.1824" transform="rotate(-23.3234 119.378 37.9692)" fill="#722D67"/>
<path d="M53.0139 58.8525L70.5319 51.2995L78.2605 69.225L57.8907 78.0074L53.0139 58.8525Z" fill="#ED71D9"/>
<path d="M53.2606 65.0263L52.2067 62.582L27.9873 69.1592L31.6759 77.7145L53.2606 65.0263Z" fill="#ED70D9"/>
<path d="M28.9024 53.0324L28.348 79.9604L32.1496 79.6832L31.7932 66.14L36.3868 66.2588L36.5056 64.0016L31.7536 64.358L31.5952 56.6756L38.2084 55.9628L37.9312 52.5176L28.9024 53.0324ZM44.4491 68.3972L48.7259 80.198L51.5375 80L46.9043 68.1596L49.5179 68.12L51.5375 65.3876V56.1608L49.1219 52.874H40.5683V80H43.6571L43.3007 68.4764L44.4491 68.3972ZM42.8255 55.2896H47.2211L49.0031 57.3884L48.8843 63.8828L47.3795 65.3876L43.1819 65.546L42.8255 55.2896ZM57.5218 52.3592L53.4034 79.6832L56.7298 79.8812L58.6702 67.8428L62.0362 67.6052L64.2142 79.6832L66.8674 79.9604L61.9174 52.3592H57.5218ZM58.987 66.1004L60.3334 58.2992L61.759 65.9024L58.987 66.1004ZM87.1491 56.5964L83.6247 53.1116L78.7539 52.3196L71.9031 55.2104L68.6163 65.6648L71.0715 77.0696L78.6747 80.6336L87.7431 77.9012L87.4659 68.7932L86.1195 67.2092L81.6051 66.8924V70.6148L84.8127 70.3772L84.6147 75.7232L79.1103 76.9904L74.1603 73.862L71.9427 65.9816L74.8335 57.23L81.1695 55.4084L84.8127 58.8932L87.1491 56.5964ZM94.9546 68.3972L99.2314 80.198L102.043 80L97.4098 68.1596L100.023 68.12L102.043 65.3876V56.1608L99.6274 52.874H91.0738V80H94.1626L93.8062 68.4764L94.9546 68.3972ZM93.331 55.2896H97.7266L99.5086 57.3884L99.3898 63.8828L97.885 65.3876L93.6874 65.546L93.331 55.2896ZM108.027 52.3592L103.909 79.6832L107.235 79.8812L109.176 67.8428L112.542 67.6052L114.72 79.6832L117.373 79.9604L112.423 52.3592H108.027ZM109.492 66.1004L110.839 58.2992L112.264 65.9024L109.492 66.1004ZM135.754 52.874L131.358 52.676L132.111 72.278L124.547 52.676H120.31L120.706 80.0396L124.428 79.9604L123.834 58.8536L131.952 79.9604H135.081L135.754 52.874ZM154.079 52.3988L138.358 53.3096L138.516 55.5272L144.575 55.5272L144.06 80.2772L147.466 79.802L148.654 55.5272L153.921 55.6064L154.079 52.3988ZM37.9353 92.478L33.6981 92.9532L30.2529 103.17L26.0553 92.7552L21.4221 92.9136L20.1153 119.96L23.9169 120.158L23.9565 97.9032L27.9561 107.645L30.8865 108.001L34.7277 98.4972L35.0445 119.881C35.0445 119.881 38.5689 119.881 39.2024 119.842L37.9353 92.478ZM44.7987 92.3592L40.6803 119.683L44.0067 119.881L45.9471 107.843L49.3131 107.605L51.4911 119.683L54.1443 119.96L49.1943 92.3592H44.7987ZM46.2639 106.1L47.6103 98.2992L49.0359 105.902L46.2639 106.1ZM60.962 108.397L65.2388 120.198L68.0504 120L63.4172 108.16L66.0308 108.12L68.0504 105.388V96.1608L65.6348 92.874H57.0812V120H60.17L59.8136 108.476L60.962 108.397ZM59.3384 95.2896H63.734L65.516 97.3884L65.3972 103.883L63.8924 105.388L59.6948 105.546L59.3384 95.2896ZM89.0827 96.5964L85.5583 93.1116L80.6875 92.3196L73.8367 95.2104L70.5499 105.665L73.0051 117.07L80.6083 120.634L89.6767 117.901L89.3995 108.793L88.0531 107.209L83.5387 106.892V110.615L86.7463 110.377L86.5483 115.723L81.0439 116.99L76.0939 113.862L73.8763 105.982L76.7671 97.23L83.1031 95.4084L86.7463 98.8932L89.0827 96.5964ZM95.3042 92.3592L91.1858 119.683L94.5122 119.881L96.4526 107.843L99.8186 107.605L101.997 119.683L104.65 119.96L99.6998 92.3592H95.3042ZM96.7694 106.1L98.1158 98.2992L99.5414 105.902L96.7694 106.1ZM111.467 108.397L115.744 120.198L118.556 120L113.923 108.16L116.536 108.12L118.556 105.388V96.1608L116.14 92.874H107.587V120H110.675L110.319 108.476L111.467 108.397ZM109.844 95.2896H114.239L116.021 97.3884L115.903 103.883L114.398 105.388L110.2 105.546L109.844 95.2896ZM130.005 95.4876L130.322 92.7552L121.055 92.9532L121.293 95.0124L123.907 95.1708L124.421 118.06L121.808 118.218L122.125 120.119L129.649 120.04L130.084 117.624L127.154 117.862L127.589 95.3688L130.005 95.4876ZM147.892 92.3988L132.171 93.3096L132.329 95.5272H138.388L137.873 120.277L141.279 119.802L142.467 95.5272L147.733 95.6064L147.892 92.3988ZM151.069 92.3592L146.951 119.683L150.277 119.881L152.217 107.843L155.583 107.605L157.761 119.683L160.415 119.96L155.465 92.3592H151.069ZM152.534 106.1L153.881 98.2992L155.306 105.902L152.534 106.1Z" fill="white"/>
</g>
<defs>
<clipPath id="clip0_874_2304">
<rect width="180" height="180" fill="white"/>
</clipPath>
</defs>
</svg>
