<svg width="180" height="180" viewBox="0 0 180 180" fill="none" xmlns="http://www.w3.org/2000/svg">
<g clip-path="url(#clip0_874_2421)">
<rect width="180" height="180" fill="#D76950"/>
<path d="M59.9577 77.675C52.2958 84.7586 33.4601 87.2994 25 87.6844C46.8366 103.084 79.4319 99.4903 93 95.7687V77.675C89.6479 71.5153 69.5352 68.8204 59.9577 77.675Z" fill="#232222"/>
<path d="M124.042 77.675C131.704 84.7586 150.54 87.2994 159 87.6844C137.163 103.084 104.568 99.4903 91 95.7687V77.675C94.3521 71.5153 114.465 68.8204 124.042 77.675Z" fill="#232222"/>
<path d="M91.0277 170.433C47.4566 170.433 22.8553 145.98 16.001 133.753L69.909 135.976H91.0277V170.433Z" fill="#C92E2E"/>
<path d="M90.4718 170.845C134.043 170.845 158.644 146.392 165.499 134.165L111.59 136.388H90.4718V170.845Z" fill="#C92E2E"/>
<path d="M53.2365 118.192C44.3444 128.418 22.4848 132.086 12.6665 132.642C38.0089 154.872 75.8371 149.685 91.5835 144.312V118.192C87.6932 109.3 64.3516 105.41 53.2365 118.192Z" fill="#B31D1D"/>
<path d="M128.263 118.603C137.155 128.829 159.015 132.497 168.833 133.053C143.491 155.284 105.662 150.096 89.916 144.723V118.603C93.8063 109.711 117.148 105.821 128.263 118.603Z" fill="#B31D1D"/>
<path d="M48.9323 66.7736L57.3671 67.0508L57.6839 63.4472L48.9719 64.4768L49.0907 56.0816L59.2679 55.8836L59.6243 52.6364L46.5959 53.072L45.1703 79.8812L48.7739 79.6436L48.9323 66.7736ZM65.8734 68.3972L70.1502 80.198L72.9618 80L68.3286 68.1596L70.9422 68.12L72.9618 65.3876V56.1608L70.5462 52.874H61.9926V80H65.0814L64.725 68.4764L65.8734 68.3972ZM64.2498 55.2896H68.6454L70.4274 57.3884L70.3086 63.8828L68.8038 65.3876L64.6062 65.546L64.2498 55.2896ZM86.9056 52.7552L76.6492 52.9928L77.3224 80H87.5788L87.8164 76.7924L79.8568 77.228L79.7776 65.15L84.688 64.8728L84.292 62.6948L79.738 63.2492L79.6984 55.8044L87.064 56.3588L86.9056 52.7552ZM105.706 52.874L101.31 52.676L102.062 72.278L94.4989 52.676H90.2617L90.6577 80.0396L94.3801 79.9604L93.7861 58.8536L101.904 79.9604H105.032L105.706 52.874ZM121.972 76.7132L114.963 77.1488L112.983 64.754L114.606 57.2696L121.853 56.3192L121.932 52.2404L113.062 53.27L109.26 65.744L112.547 80.3168L122.408 80.0792L121.972 76.7132ZM125.207 80.0792H127.148L126.752 65.0312H131.623L131.86 80.0792H135.028L134.078 52.6364H131.464L131.623 63.0908L126.712 63.4472L126.435 52.6364H124.138L125.207 80.0792ZM61.093 92.7552L60.697 120.079L64.5382 120.04L64.657 108.318L66.5974 106.457L77.7646 120.673L80.6554 118.654L69.1318 104.556L78.5962 95.3688L76.3786 93.0324L64.6966 104.714L64.8154 92.9928L61.093 92.7552ZM89.6122 95.4876L89.929 92.7552L80.6626 92.9532L80.9002 95.0124L83.5138 95.1708L84.0286 118.06L81.415 118.218L81.7318 120.119L89.2558 120.04L89.6914 117.624L86.761 117.862L87.1966 95.3688L89.6122 95.4876ZM95.916 94.9728L100.866 97.4676L103.044 94.7352L98.8068 92.3196L92.154 93.6264L90.6492 101.23L101.143 111.09L99.678 117.268L95.0844 116.832L92.6292 113.149L90.2136 116.159L93.4608 119.921L102.133 120.04L105.064 109.862L93.8964 99.5664L95.916 94.9728ZM111.694 94.9728L116.644 97.4676L118.822 94.7352L114.585 92.3196L107.932 93.6264L106.427 101.23L116.921 111.09L115.456 117.268L110.863 116.832L108.407 113.149L105.992 116.159L109.239 119.921L117.911 120.04L120.842 109.862L109.675 99.5664L111.694 94.9728Z" fill="white"/>
</g>
<defs>
<clipPath id="clip0_874_2421">
<rect width="180" height="180" fill="white"/>
</clipPath>
</defs>
</svg>
