<svg width="180" height="180" viewBox="0 0 180 180" fill="none" xmlns="http://www.w3.org/2000/svg">
<g clip-path="url(#clip0_874_2735)">
<rect width="180" height="180" fill="#3EC26B"/>
<path d="M27.501 68.224L44.7633 72.9486L52.7299 96.1893L52.3271 87.3083L64.8944 87.2292L69.9001 94.0612L92.0756 95.2201L80.9501 83.0367L111.364 88.9976L104.787 74.1989L117.664 72.6028L128.349 62.5287L107.159 50.2953L93.9156 49.2967L117.568 23.2083L111.868 21.0182L110.715 -1.51311L97.856 1.45348L88.4844 -6.78357L70.8589 7.16799L63.0598 13.9879L59.7329 -8.56054L50.0138 -21.5669L37.6667 -12.1316L38.9646 -3.45207L25.6661 -8.56237L30.5655 29.0431L7.00047 15.8972L11.6437 48.4958L29.4184 63.2343L27.501 68.224Z" fill="#FFBE3F"/>
<path d="M139.595 195.657L148.714 183.052L170.06 183.668L162.71 181.283L166.485 171.032L173.574 169.045L181.291 151.352L167.977 156.685L182.119 133.754L168.066 134.587L170.701 123.619L165.767 111.846L149.338 125.354L144.48 135.827L130.474 108.609L126.951 112.578L108.263 106.634L106.749 118.005L97.1826 123.116L103.152 141.721L106.32 150.151L86.9538 145.971L73.4002 149.907L77.3071 162.838L84.7669 164.433L76.5459 173.694L108.646 181.194L90.7494 196.356L118.697 202.535L136.121 192.572L139.595 195.657Z" fill="#FFBE3F"/>
<path d="M39.1003 92.5951C45.6143 64.9031 68.9881 54.7607 79.8608 53.151C55.8383 50.3428 37.6376 73.9136 31.54 86.0501L39.1003 92.5951Z" fill="#FFBE3F"/>
<path d="M53.0896 51.1096L60.6724 51.3588L60.9572 48.1192L53.1252 49.0448L53.232 41.4976L62.3812 41.3196L62.7016 38.4004L50.9892 38.792L49.7076 62.8932L52.9472 62.6796L53.0896 51.1096ZM68.3195 52.5692L72.1643 63.178L74.6919 63L70.5267 52.3556L72.8763 52.32L74.6919 49.8636V41.5688L72.5203 38.614H64.8307V63H67.6075L67.2871 52.6404L68.3195 52.5692ZM66.8599 40.7856H70.8115L72.4135 42.6724L72.3067 48.5108L70.9539 49.8636L67.1803 50.006L66.8599 40.7856ZM87.2272 38.5072L78.0068 38.7208L78.612 63H87.8324L88.046 60.1164L80.8904 60.508L80.8192 49.65L85.2336 49.4008L84.8776 47.4428L80.7836 47.9412L80.748 41.2484L87.3696 41.7468L87.2272 38.5072ZM104.128 38.614L100.177 38.436L100.853 56.058L94.0536 38.436H90.2444L90.6004 63.0356L93.9468 62.9644L93.4128 43.9896L100.711 62.9644H103.523L104.128 38.614ZM118.752 60.0452L112.45 60.4368L110.67 49.294L112.13 42.5656L118.645 41.7112L118.716 38.0444L110.742 38.97L107.324 50.184L110.279 63.2848L119.143 63.0712L118.752 60.0452ZM121.66 63.0712H123.405L123.049 49.5432H127.427L127.641 63.0712H130.489L129.635 38.4004H127.285L127.427 47.7988L123.013 48.1192L122.764 38.4004H120.699L121.66 63.0712ZM65.8011 74.258L61.9919 74.6852L58.8947 83.87L55.1211 74.5072L50.9559 74.6496L49.7811 98.9644L53.1987 99.1424L53.2343 79.1352L56.8299 87.8928L59.4643 88.2132L62.9175 79.6692L63.2023 98.8932C63.2023 98.8932 66.3707 98.8932 66.9403 98.8576L65.8011 74.258ZM71.9713 74.1512L68.2689 98.7152L71.2593 98.8932L73.0037 88.0708L76.0297 87.8572L77.9877 98.7152L80.3729 98.9644L75.9229 74.1512H71.9713ZM73.2885 86.5044L74.4989 79.4912L75.7805 86.3264L73.2885 86.5044ZM86.5019 88.5692L90.3467 99.178L92.8743 99L88.7091 88.3556L91.0587 88.32L92.8743 85.8636V77.5688L90.7027 74.614H83.0131V99H85.7899L85.4695 88.6404L86.5019 88.5692ZM85.0423 76.7856H88.9939L90.5959 78.6724L90.4891 84.5108L89.1363 85.8636L85.3627 86.006L85.0423 76.7856ZM106.406 77.5688L104.199 74.5784H96.1893V99H98.9305L98.5745 88.6404L104.199 88.4624L106.371 85.828L106.406 77.5688ZM103.63 84.5464L102.277 85.828L98.5033 85.9704L98.1829 76.8212H102.134L103.736 78.6724L103.63 84.5464ZM118.567 95.3688L111.803 96.2232L112.551 74.7564L108.67 74.4004L109.062 99.1424L118.994 99.2492L118.567 95.3688ZM130.337 74.5072L121.116 74.7208L121.721 99H130.942L131.155 96.1164L124 96.508L123.929 85.65L128.343 85.4008L127.987 83.4428L123.893 83.9412L123.857 77.2484L130.479 77.7468L130.337 74.5072ZM83.9598 110.187L69.8266 111.006L69.969 112.999H75.4158L74.953 135.249L78.0146 134.822L79.0826 112.999L83.8174 113.07L83.9598 110.187ZM95.4319 110.507L86.2115 110.721L86.8167 135H96.0371L96.2507 132.116L89.0951 132.508L89.0239 121.65L93.4383 121.401L93.0823 119.443L88.9883 119.941L88.9527 113.248L95.5743 113.747L95.4319 110.507ZM101.661 110.151L97.9587 134.715L100.949 134.893L102.693 124.071L105.719 123.857L107.677 134.715L110.063 134.964L105.613 110.151H101.661ZM102.978 122.504L104.189 115.491L105.47 122.326L102.978 122.504Z" fill="white"/>
</g>
<defs>
<clipPath id="clip0_874_2735">
<rect width="180" height="180" fill="white"/>
</clipPath>
</defs>
</svg>
