<svg width="180" height="180" viewBox="0 0 180 180" fill="none" xmlns="http://www.w3.org/2000/svg">
<g clip-path="url(#clip0_873_2114)">
<rect width="180" height="180" fill="#D76950"/>
<path d="M156 121.999C125.2 115.599 69.8332 55.3326 45.9998 25.9993C36.9998 11.4993 49.4998 7.99928 61.9998 14.9993C74.4998 21.9993 147 84.9993 164.5 93.4993C182 101.999 177.5 126.499 156 121.999Z" fill="#FCD07B"/>
<path d="M76.5 26.9998C70.9 22.9998 62.1667 24.6665 58.5 25.9998C70.1 28.3997 80.3333 32.9999 84 35L76.5 26.9998Z" fill="#E1AC45"/>
<path d="M98.4544 46.6517C92.2541 43.6658 83.9332 46.7981 80.5478 48.7375C92.3871 49.123 103.255 51.9097 107.209 53.2549L98.4544 46.6517Z" fill="#E1AC45"/>
<path d="M124.164 68.7513C117.964 65.7654 109.643 68.8977 106.257 70.8371C118.097 71.2226 128.965 74.0093 132.919 75.3545L124.164 68.7513Z" fill="#E1AC45"/>
<path d="M155.164 92.7513C148.964 89.7654 140.643 92.8977 137.257 94.8371C149.097 95.2226 159.965 98.0093 163.919 99.3545L155.164 92.7513Z" fill="#E1AC45"/>
<path d="M143 82H40L90.5 132V187H98V132L143 82Z" fill="#A9381E"/>
<path d="M48.0257 53.0324L47.4713 79.9604L51.2729 79.6832L50.9165 66.14L55.5101 66.2588L55.6289 64.0016L50.8769 64.358L50.7185 56.6756L57.3317 55.9628L57.0545 52.5176L48.0257 53.0324ZM63.5724 68.3972L67.8492 80.198L70.6608 80L66.0276 68.1596L68.6412 68.12L70.6608 65.3876V56.1608L68.2452 52.874H59.6916V80H62.7804L62.424 68.4764L63.5724 68.3972ZM61.9488 55.2896H66.3444L68.1264 57.3884L68.0076 63.8828L66.5028 65.3876L62.3052 65.546L61.9488 55.2896ZM84.6046 52.7552L74.3482 52.9928L75.0214 80H85.2778L85.5154 76.7924L77.5558 77.228L77.4766 65.15L82.387 64.8728L81.991 62.6948L77.437 63.2492L77.3974 55.8044L84.763 56.3588L84.6046 52.7552ZM103.405 52.874L99.0091 52.676L99.7615 72.278L92.1979 52.676H87.9607L88.3567 80.0396L92.0791 79.9604L91.4851 58.8536L99.6031 79.9604H102.732L103.405 52.874ZM119.671 76.7132L112.662 77.1488L110.682 64.754L112.305 57.2696L119.552 56.3192L119.631 52.2404L110.761 53.27L106.959 65.744L110.246 80.3168L120.107 80.0792L119.671 76.7132ZM122.906 80.0792H124.847L124.451 65.0312H129.322L129.559 80.0792H132.727L131.777 52.6364H129.163L129.322 63.0908L124.411 63.4472L124.134 52.6364H121.837L122.906 80.0792ZM53.7714 92.478L49.5342 92.9532L46.089 103.17L41.8914 92.7552L37.2582 92.9136L35.9514 119.96L39.753 120.158L39.7926 97.9032L43.7922 107.645L46.7226 108.001L50.5638 98.4972L50.8806 119.881C50.8806 119.881 54.405 119.881 55.0386 119.842L53.7714 92.478ZM60.6349 92.3592L56.5165 119.683L59.8429 119.881L61.7833 107.843L65.1493 107.605L67.3273 119.683L69.9805 119.96L65.0305 92.3592H60.6349ZM62.1001 106.1L63.4465 98.2992L64.8721 105.902L62.1001 106.1ZM76.7982 108.397L81.075 120.198L83.8866 120L79.2534 108.16L81.867 108.12L83.8866 105.388V96.1608L81.471 92.874H72.9174V120H76.0062L75.6498 108.476L76.7982 108.397ZM75.1746 95.2896H79.5702L81.3522 97.3884L81.2334 103.883L79.7286 105.388L75.531 105.546L75.1746 95.2896ZM101.157 92.3988L85.4356 93.3096L85.594 95.5272H91.6528L91.138 120.277L94.5436 119.802L95.7316 95.5272L100.998 95.6064L101.157 92.3988ZM111.81 95.4876L112.127 92.7552L102.86 92.9532L103.098 95.0124L105.711 95.1708L106.226 118.06L103.613 118.218L103.929 120.119L111.453 120.04L111.889 117.624L108.959 117.862L109.394 95.3688L111.81 95.4876ZM131.132 92.874L126.737 92.676L127.489 112.278L119.926 92.676H115.688L116.084 120.04L119.807 119.96L119.213 98.8536L127.331 119.96H130.459L131.132 92.874ZM143.637 95.4876L143.954 92.7552L134.687 92.9532L134.925 95.0124L137.538 95.1708L138.053 118.06L135.44 118.218L135.756 120.119L143.28 120.04L143.716 117.624L140.786 117.862L141.221 95.3688L143.637 95.4876Z" fill="white"/>
</g>
<defs>
<clipPath id="clip0_873_2114">
<rect width="180" height="180" fill="white"/>
</clipPath>
</defs>
</svg>
