<svg width="180" height="180" viewBox="0 0 180 180" fill="none" xmlns="http://www.w3.org/2000/svg">
<g clip-path="url(#clip0_874_2735)">
<rect width="180" height="180" fill="#3EC26B"/>
<path d="M27.501 68.224L44.7633 72.9486L52.7299 96.1893L52.3271 87.3083L64.8944 87.2292L69.9001 94.0612L92.0756 95.2201L80.9501 83.0367L111.364 88.9976L104.787 74.1989L117.664 72.6028L128.349 62.5287L107.159 50.2953L93.9156 49.2967L117.568 23.2083L111.868 21.0182L110.715 -1.51311L97.856 1.45348L88.4844 -6.78357L70.8589 7.16799L63.0598 13.9879L59.7329 -8.56054L50.0138 -21.5669L37.6667 -12.1316L38.9646 -3.45207L25.6661 -8.56237L30.5655 29.0431L7.00047 15.8972L11.6437 48.4958L29.4184 63.2343L27.501 68.224Z" fill="#FFBE3F"/>
<path d="M139.595 195.657L148.714 183.052L170.06 183.668L162.71 181.283L166.485 171.032L173.574 169.045L181.291 151.352L167.977 156.685L182.119 133.754L168.066 134.587L170.701 123.619L165.767 111.846L149.338 125.354L144.48 135.827L130.474 108.609L126.951 112.578L108.263 106.634L106.749 118.005L97.1826 123.116L103.152 141.721L106.32 150.151L86.9538 145.971L73.4002 149.907L77.3071 162.838L84.7669 164.433L76.5459 173.694L108.646 181.194L90.7494 196.356L118.697 202.535L136.121 192.572L139.595 195.657Z" fill="#FFBE3F"/>
<path d="M39.1003 92.5951C45.6143 64.9031 68.9881 54.7607 79.8608 53.151C55.8383 50.3428 37.6376 73.9136 31.54 86.0501L39.1003 92.5951Z" fill="#FFBE3F"/>
<path d="M52.2746 38.7564L51.7762 62.9644L55.1938 62.7152L54.8734 50.54L59.003 50.6468L59.1098 48.6176L54.8378 48.938L54.6954 42.0316L60.6406 41.3908L60.3914 38.2936L52.2746 38.7564ZM66.2509 52.5692L70.0957 63.178L72.6233 63L68.4581 52.3556L70.8077 52.32L72.6233 49.8636V41.5688L70.4517 38.614H62.7621V63H65.5389L65.2185 52.6404L66.2509 52.5692ZM64.7913 40.7856H68.7429L70.3449 42.6724L70.2381 48.5108L68.8853 49.8636L65.1117 50.006L64.7913 40.7856ZM85.1587 38.5072L75.9383 38.7208L76.5435 63H85.7639L85.9775 60.1164L78.8219 60.508L78.7507 49.65L83.1651 49.4008L82.8091 47.4428L78.7151 47.9412L78.6795 41.2484L85.3011 41.7468L85.1587 38.5072ZM102.06 38.614L98.1082 38.436L98.7846 56.058L91.985 38.436H88.1758L88.5318 63.0356L91.8782 62.9644L91.3442 43.9896L98.6422 62.9644H101.455L102.06 38.614ZM116.683 60.0452L110.382 60.4368L108.602 49.294L110.061 42.5656L116.576 41.7112L116.647 38.0444L108.673 38.97L105.255 50.184L108.21 63.2848L117.075 63.0712L116.683 60.0452ZM119.592 63.0712H121.336L120.98 49.5432H125.359L125.572 63.0712H128.42L127.566 38.4004H125.216L125.359 47.7988L120.944 48.1192L120.695 38.4004H118.63L119.592 63.0712ZM72.3891 74.258L68.5799 74.6852L65.4827 83.87L61.7091 74.5072L57.5439 74.6496L56.3691 98.9644L59.7867 99.1424L59.8223 79.1352L63.4179 87.8928L66.0523 88.2132L69.5055 79.6692L69.7903 98.8932C69.7903 98.8932 72.9587 98.8932 73.5283 98.8576L72.3891 74.258ZM78.5593 74.1512L74.8569 98.7152L77.8473 98.8932L79.5917 88.0708L82.6177 87.8572L84.5757 98.7152L86.9609 98.9644L82.5109 74.1512H78.5593ZM79.8765 86.5044L81.0869 79.4912L82.3685 86.3264L79.8765 86.5044ZM99.8184 77.5688L97.6112 74.5784H89.6012V99H92.3424L91.9864 88.6404L97.6112 88.4624L99.7828 85.828L99.8184 77.5688ZM97.0416 84.5464L95.6888 85.828L91.9152 85.9704L91.5948 76.8212H95.5464L97.1484 78.6724L97.0416 84.5464ZM111.979 95.3688L105.215 96.2232L105.962 74.7564L102.082 74.4004L102.474 99.1424L112.406 99.2492L111.979 95.3688ZM123.749 74.5072L114.528 74.7208L115.133 99H124.354L124.567 96.1164L117.412 96.508L117.341 85.65L121.755 85.4008L121.399 83.4428L117.305 83.9412L117.269 77.2484L123.891 77.7468L123.749 74.5072ZM83.9598 110.187L69.8266 111.006L69.969 112.999H75.4158L74.953 135.249L78.0146 134.822L79.0826 112.999L83.8174 113.07L83.9598 110.187ZM95.4319 110.507L86.2115 110.721L86.8167 135H96.0371L96.2507 132.116L89.0951 132.508L89.0239 121.65L93.4383 121.401L93.0823 119.443L88.9883 119.941L88.9527 113.248L95.5743 113.747L95.4319 110.507ZM101.661 110.151L97.9587 134.715L100.949 134.893L102.693 124.071L105.719 123.857L107.677 134.715L110.063 134.964L105.613 110.151H101.661ZM102.978 122.504L104.189 115.491L105.47 122.326L102.978 122.504Z" fill="white"/>
</g>
<defs>
<clipPath id="clip0_874_2735">
<rect width="180" height="180" fill="white"/>
</clipPath>
</defs>
</svg>
