<svg width="180" height="180" viewBox="0 0 180 180" fill="none" xmlns="http://www.w3.org/2000/svg">
<g clip-path="url(#clip0_873_2053)">
<rect width="180" height="180" fill="#4B93C7"/>
<path d="M55.7612 123.356C58.0972 144.623 52.8792 164.272 49.9781 171.438L54.2844 172.742L98.7048 26.0383L82.0536 20.9965L72.9262 51.141C67.9712 67.5052 52.8412 96.7724 55.7612 123.356Z" fill="#22567B"/>
<path d="M79.9655 130.685C66.2245 147.084 59.6666 166.327 58.1054 173.899L53.7991 172.595L98.2195 25.8914L114.871 30.9332L105.743 61.0777C100.788 77.4419 97.1418 110.186 79.9655 130.685Z" fill="#22567B"/>
<rect x="86.0454" y="45.3984" width="13.1984" height="35.9955" transform="rotate(16.8458 86.0454 45.3984)" fill="#487A9E"/>
<path d="M82.1423 21.0244C84.7348 12.4624 93.7773 7.62312 102.339 10.2156L104.062 10.7372C112.624 13.3297 117.463 22.3722 114.871 30.9342L82.1423 21.0244Z" fill="#0C3450"/>
<path d="M21.0885 66.7736L29.5233 67.0508L29.8401 63.4472L21.1281 64.4768L21.2469 56.0816L31.4241 55.8836L31.7805 52.6364L18.7521 53.072L17.3265 79.8812L20.9301 79.6436L21.0885 66.7736ZM38.0296 68.3972L42.3064 80.198L45.118 80L40.4848 68.1596L43.0984 68.12L45.118 65.3876V56.1608L42.7024 52.874H34.1488V80H37.2376L36.8812 68.4764L38.0296 68.3972ZM36.406 55.2896H40.8016L42.5836 57.3884L42.4648 63.8828L40.96 65.3876L36.7624 65.546L36.406 55.2896ZM59.0618 52.7552L48.8055 52.9928L49.4787 80H59.7351L59.9726 76.7924L52.0131 77.228L51.9339 65.15L56.8443 64.8728L56.4483 62.6948L51.8943 63.2492L51.8547 55.8044L59.2202 56.3588L59.0618 52.7552ZM77.8619 52.874L73.4663 52.676L74.2187 72.278L66.6551 52.676H62.4179L62.8139 80.0396L66.5363 79.9604L65.9423 58.8536L74.0603 79.9604H77.1887L77.8619 52.874ZM94.1283 76.7132L87.1191 77.1488L85.1391 64.754L86.7627 57.2696L94.0095 56.3192L94.0887 52.2404L85.2183 53.27L81.4167 65.744L84.7035 80.3168L94.5639 80.0792L94.1283 76.7132ZM97.3637 80.0792H99.3041L98.9081 65.0312H103.779L104.017 80.0792H107.185L106.234 52.6364H103.621L103.779 63.0908L98.8685 63.4472L98.5913 52.6364H96.2945L97.3637 80.0792ZM128.273 52.478L124.036 52.9532L120.59 63.17L116.393 52.7552L111.76 52.9136L110.453 79.9604L114.254 80.1584L114.294 57.9032L118.294 67.6448L121.224 68.0012L125.065 58.4972L125.382 79.8812C125.382 79.8812 128.906 79.8812 129.54 79.8416L128.273 52.478ZM135.136 52.3592L131.018 79.6832L134.344 79.8812L136.285 67.8428L139.651 67.6052L141.829 79.6832L144.482 79.9604L139.532 52.3592L135.136 52.3592ZM136.601 66.1004L137.948 58.2992L139.373 65.9024L136.601 66.1004ZM162.863 52.874L158.467 52.676L159.22 72.278L151.656 52.676H147.419L147.815 80.0396L151.537 79.9604L150.943 58.8536L159.061 79.9604H162.19L162.863 52.874ZM66.9139 107.011L75.7843 107.764L76.1803 104.635H66.9139V107.011ZM79.4665 93.27L79.1101 96.5568C79.1101 96.5568 88.6141 95.5272 93.8809 95.3688C84.5353 105.704 83.2285 119.921 83.2285 119.921L88.0993 120.238C88.6141 105.546 97.2073 95.844 97.2073 95.844L96.9697 93.072L79.4665 93.27ZM100.59 104.12C105.817 104.318 110.45 105.704 110.45 110.813C110.45 114.496 108.748 116.159 106.768 116.159C104.708 116.159 102.61 114.773 100.986 112.08L98.2932 113.941C99.8772 118.416 103.283 120.673 106.649 120.673C111.876 120.673 114.331 116.317 114.331 111.763C114.331 106.496 111.044 101.824 103.877 101.824L104.431 95.9628L112.747 97.626V94.3392L102.253 93.1116L100.59 104.12Z" fill="white"/>
<path d="M27 131L0.999983 138.5C-4.33335 143.5 -15.2 154.2 -16 157C-16.8 159.8 -11.3334 184.167 -8.50002 196L182.5 186L170.5 174L121 169.5H78L62 161.5L47 164L27 131Z" fill="#98D2FC"/>
<path d="M-3 143.5L15.5 130L20.5 113L-9.5 99.5L-3 143.5Z" fill="#98D2FC"/>
</g>
<defs>
<clipPath id="clip0_873_2053">
<rect width="180" height="180" fill="white"/>
</clipPath>
</defs>
</svg>
