<svg width="180" height="180" viewBox="0 0 180 180" fill="none" xmlns="http://www.w3.org/2000/svg">
<g clip-path="url(#clip0_873_2053)">
<rect width="180" height="180" fill="#4B93C7"/>
<path d="M55.7612 123.356C58.0972 144.623 52.8792 164.272 49.9781 171.438L54.2844 172.742L98.7048 26.0383L82.0536 20.9965L72.9262 51.141C67.9712 67.5052 52.8412 96.7724 55.7612 123.356Z" fill="#22567B"/>
<path d="M79.9655 130.685C66.2245 147.084 59.6666 166.327 58.1054 173.899L53.7991 172.595L98.2195 25.8914L114.871 30.9332L105.743 61.0777C100.788 77.4419 97.1418 110.186 79.9655 130.685Z" fill="#22567B"/>
<rect x="86.0454" y="45.3984" width="13.1984" height="35.9955" transform="rotate(16.8458 86.0454 45.3984)" fill="#487A9E"/>
<path d="M82.1423 21.0244C84.7348 12.4624 93.7773 7.62312 102.339 10.2156L104.062 10.7372C112.624 13.3297 117.463 22.3722 114.871 30.9342V30.9342L82.1423 21.0244V21.0244Z" fill="#0C3450"/>
<path d="M48.0257 53.0324L47.4713 79.9604L51.2729 79.6832L50.9165 66.14L55.5101 66.2588L55.6289 64.0016L50.8769 64.358L50.7185 56.6756L57.3317 55.9628L57.0545 52.5176L48.0257 53.0324ZM63.5724 68.3972L67.8492 80.198L70.6608 80L66.0276 68.1596L68.6412 68.12L70.6608 65.3876V56.1608L68.2452 52.874H59.6916V80H62.7804L62.424 68.4764L63.5724 68.3972ZM61.9488 55.2896H66.3444L68.1264 57.3884L68.0076 63.8828L66.5028 65.3876L62.3052 65.546L61.9488 55.2896ZM84.6046 52.7552L74.3482 52.9928L75.0214 80H85.2778L85.5154 76.7924L77.5558 77.228L77.4766 65.15L82.387 64.8728L81.991 62.6948L77.437 63.2492L77.3974 55.8044L84.763 56.3588L84.6046 52.7552ZM103.405 52.874L99.0091 52.676L99.7615 72.278L92.1979 52.676H87.9607L88.3567 80.0396L92.0791 79.9604L91.4851 58.8536L99.6031 79.9604H102.732L103.405 52.874ZM119.671 76.7132L112.662 77.1488L110.682 64.754L112.305 57.2696L119.552 56.3192L119.631 52.2404L110.761 53.27L106.959 65.744L110.246 80.3168L120.107 80.0792L119.671 76.7132ZM122.906 80.0792H124.847L124.451 65.0312H129.322L129.559 80.0792H132.727L131.777 52.6364H129.163L129.322 63.0908L124.411 63.4472L124.134 52.6364H121.837L122.906 80.0792ZM66.9139 107.011L75.7843 107.764L76.1803 104.635H66.9139V107.011ZM79.4665 93.27L79.1101 96.5568C79.1101 96.5568 88.6141 95.5272 93.8809 95.3688C84.5353 105.704 83.2285 119.921 83.2285 119.921L88.0993 120.238C88.6141 105.546 97.2073 95.844 97.2073 95.844L96.9697 93.072L79.4665 93.27ZM100.59 104.12C105.817 104.318 110.45 105.704 110.45 110.813C110.45 114.496 108.748 116.159 106.768 116.159C104.708 116.159 102.61 114.773 100.986 112.08L98.2932 113.941C99.8772 118.416 103.283 120.673 106.649 120.673C111.876 120.673 114.331 116.317 114.331 111.763C114.331 106.496 111.044 101.824 103.877 101.824L104.431 95.9628L112.747 97.626V94.3392L102.253 93.1116L100.59 104.12Z" fill="white"/>
<path d="M27 131L0.999983 138.5C-4.33335 143.5 -15.2 154.2 -16 157C-16.8 159.8 -11.3334 184.167 -8.50002 196L182.5 186L170.5 174L121 169.5H78L62 161.5L47 164L27 131Z" fill="#98D2FC"/>
<path d="M-3 143.5L15.5 130L20.5 113L-9.5 99.5L-3 143.5Z" fill="#98D2FC"/>
</g>
<defs>
<clipPath id="clip0_873_2053">
<rect width="180" height="180" fill="white"/>
</clipPath>
</defs>
</svg>
