<svg width="180" height="180" viewBox="0 0 180 180" fill="none" xmlns="http://www.w3.org/2000/svg">
<g clip-path="url(#clip0_874_2664)">
<rect width="180" height="180" fill="#478358"/>
<path d="M134.5 61.5L51.5 92.5L47.5702 52.8452C46.6869 43.9314 52.8717 35.8615 61.7087 34.3974L114.776 25.6052C123.301 24.1927 131.254 30.2577 132.147 38.8534L134.5 61.5Z" fill="#2A5034"/>
<path d="M116.545 44.0217L65.0949 63.0996C63.8667 63.555 62.5395 62.7265 62.4094 61.423L59.1864 29.1337C59.0816 28.0837 59.8106 27.1328 60.8519 26.9616L113.24 18.3443C114.376 18.1575 115.434 18.9651 115.554 20.1096L117.838 41.9383C117.934 42.8467 117.401 43.7041 116.545 44.0217Z" fill="#2A5034"/>
<path d="M92.8942 117C85.0257 109.796 75.9665 110.154 69.0618 112.532C63.1352 114.574 59.8856 120.562 55.3606 124.9C45.7237 134.139 28.7478 134.102 20 132.523C39.9975 164.863 107.731 130.583 92.8942 117Z" fill="#2A5034"/>
<path d="M93.1058 118C100.974 110.796 110.033 111.154 116.938 113.532C122.865 115.574 126.114 121.562 130.639 125.9C140.276 135.139 157.252 135.102 166 133.523C146.002 165.863 78.2689 131.583 93.1058 118Z" fill="#2A5034"/>
<path d="M44.7018 80.9604L41.5334 77.8276L37.1546 77.1156L30.9958 79.7144L28.041 89.1128L30.2482 99.3656L37.0834 102.57L45.2358 100.113L44.9866 91.9252L43.7762 90.5012L39.7178 90.2164V93.5628L42.6014 93.3492L42.4234 98.1552L37.475 99.2944L33.025 96.482L31.0314 89.3976L33.6302 81.53L39.3262 79.8924L42.6014 83.0252L44.7018 80.9604ZM50.2949 77.1512L46.5925 101.715L49.5829 101.893L51.3273 91.0708L54.3533 90.8572L56.3113 101.715L58.6965 101.964L54.2465 77.1512H50.2949ZM51.6121 89.5044L52.8225 82.4912L54.1041 89.3264L51.6121 89.5044ZM64.8255 91.5692L68.6703 102.178L71.1979 102L67.0327 91.3556L69.3823 91.32L71.1979 88.8636V80.5688L69.0263 77.614H61.3367V102H64.1135L63.7931 91.6404L64.8255 91.5692ZM63.3659 79.7856H67.3175L68.9195 81.6724L68.8127 87.5108L67.4599 88.8636L63.6863 89.006L63.3659 79.7856ZM81.4905 79.9636L81.7753 77.5072L73.4449 77.6852L73.6585 79.5364L76.0081 79.6788L76.4709 100.256L74.1213 100.398L74.4061 102.107L81.1701 102.036L81.5617 99.864L78.9273 100.078L79.3189 79.8568L81.4905 79.9636ZM85.725 77.4004L84.9774 102H93.8062L96.4406 99.9352V90.2164L93.4502 87.938L96.227 81.2096L94.0198 77.5072L85.725 77.4004ZM94.5182 91.6048L94.3402 98.2264L92.2398 99.7572L88.8222 99.4368L88.8578 90.2164L92.133 89.6824L94.5182 91.6048ZM90.8514 87.8312L88.8578 88.2228L88.8934 79.6432L92.0974 79.6076L93.4146 81.5656L90.8514 87.8312ZM101.644 77.1512L97.9413 101.715L100.932 101.893L102.676 91.0708L105.702 90.8572L107.66 101.715L110.045 101.964L105.595 77.1512H101.644ZM102.961 89.5044L104.171 82.4912L105.453 89.3264L102.961 89.5044ZM122.582 98.3688L115.818 99.2232L116.566 77.7564L112.686 77.4004L113.077 102.142L123.01 102.249L122.582 98.3688ZM125.63 102.178L136.488 101.786L141.187 96.2328L141.721 84.9832L135.918 77.8988L125.132 77.5072L125.63 102.178ZM136.88 94.702L134.245 98.7248L128.87 98.9384L129.19 80.3908L133.96 80.2484L137.556 86.2292L136.88 94.702ZM151.856 79.9636L152.141 77.5072L143.811 77.6852L144.024 79.5364L146.374 79.6788L146.837 100.256L144.487 100.398L144.772 102.107L151.536 102.036L151.927 99.864L149.293 100.078L149.685 79.8568L151.856 79.9636Z" fill="white"/>
</g>
<defs>
<clipPath id="clip0_874_2664">
<rect width="180" height="180" fill="white"/>
</clipPath>
</defs>
</svg>
