<svg width="180" height="180" viewBox="0 0 180 180" fill="none" xmlns="http://www.w3.org/2000/svg">
<g clip-path="url(#clip0_874_2759)">
<rect width="180" height="180" fill="#F0C3E9"/>
<path d="M87.7396 84.0189C20.2875 88.988 -8.88184 139.168 -15.035 163.637L-31 193L192.51 187.353L197 14C188.685 35.2692 155.192 79.0498 87.7396 84.0189Z" fill="#DB7BCC"/>
<path d="M113.64 146.633C53.0167 116.646 2.39902 145.049 -15.3319 162.999L-44.0002 180.18L151.387 288.865L243.322 141.83C225.355 155.926 174.264 176.62 113.64 146.633Z" fill="#CD65BC"/>
<path d="M60.5042 56.5964L56.9798 53.1116L52.109 52.3196L45.2582 55.2104L41.9714 65.6648L44.4266 77.0696L52.0298 80.6336L61.0982 77.9012L60.821 68.7932L59.4746 67.2092L54.9602 66.8924V70.6148L58.1678 70.3772L57.9698 75.7232L52.4654 76.9904L47.5154 73.862L45.2978 65.9816L48.1886 57.23L54.5246 55.4084L58.1678 58.8932L60.5042 56.5964ZM74.6853 52.7552L64.4289 52.9928L65.1021 80H75.3585L75.5961 76.7924L67.6365 77.228L67.5573 65.15L72.4677 64.8728L72.0717 62.6948L67.5177 63.2492L67.4781 55.8044L74.8437 56.3588L74.6853 52.7552ZM93.4854 52.874L89.0898 52.676L89.8422 72.278L82.2786 52.676H78.0414L78.4374 80.0396L82.1598 79.9604L81.5658 58.8536L89.6838 79.9604H92.8122L93.4854 52.874ZM111.811 52.3988L96.0897 53.3096L96.2481 55.5272H102.307L101.792 80.2772L105.198 79.802L106.386 55.5272L111.652 55.6064L111.811 52.3988ZM125.324 75.9608L117.8 76.9112L118.632 53.0324L114.316 52.6364L114.751 80.1584L125.8 80.2772L125.324 75.9608ZM138.417 52.7552L128.16 52.9928L128.833 80H139.09L139.327 76.7924L131.368 77.228L131.289 65.15L136.199 64.8728L135.803 62.6948L131.249 63.2492L131.209 55.8044L138.575 56.3588L138.417 52.7552ZM66.332 94.9728L71.282 97.4676L73.46 94.7352L69.2228 92.3196L62.57 93.6264L61.0652 101.23L71.5592 111.09L70.094 117.268L65.5004 116.832L63.0452 113.149L60.6296 116.159L63.8768 119.921L72.5492 120.04L75.4796 109.862L64.3124 99.5664L66.332 94.9728ZM84.1981 95.4876L84.5149 92.7552L75.2485 92.9532L75.4861 95.0124L78.0997 95.1708L78.6145 118.06L76.0009 118.218L76.3177 120.119L83.8417 120.04L84.2773 117.624L81.3469 117.862L81.7825 95.3688L84.1981 95.4876ZM99.0855 115.961L91.5615 116.911L92.3931 93.0324L88.0767 92.6364L88.5123 120.158L99.5607 120.277L99.0855 115.961ZM102.317 92.7552L101.921 120.079L105.762 120.04L105.881 108.318L107.822 106.457L118.989 120.673L121.88 118.654L110.356 104.556L119.82 95.3688L117.603 93.0324L105.921 104.714L106.04 92.9928L102.317 92.7552Z" fill="white"/>
</g>
<defs>
<clipPath id="clip0_874_2759">
<rect width="180" height="180" fill="white"/>
</clipPath>
</defs>
</svg>
