<svg width="180" height="180" viewBox="0 0 180 180" fill="none" xmlns="http://www.w3.org/2000/svg">
<g clip-path="url(#clip0_874_2759)">
<rect width="180" height="180" fill="#F0C3E9"/>
<path d="M87.7396 84.0189C20.2875 88.988 -8.88184 139.168 -15.035 163.637L-31 193L192.51 187.353L197 14C188.685 35.2692 155.192 79.0498 87.7396 84.0189Z" fill="#DB7BCC"/>
<path d="M113.64 146.633C53.0167 116.646 2.39902 145.049 -15.3319 162.999L-44.0002 180.18L151.387 288.865L243.322 141.83C225.355 155.926 174.264 176.62 113.64 146.633Z" fill="#CD65BC"/>
<path d="M55.8462 52.8344L40.4022 53.7056L40.5606 55.844H46.3818L45.9066 80L49.4706 79.5644L50.6586 55.844L55.7274 55.9232L55.8462 52.8344ZM68.6138 52.7552L58.3574 52.9928L59.0306 80H69.287L69.5246 76.7924L61.565 77.228L61.4858 65.15L66.3962 64.8728L66.0002 62.6948L61.4462 63.2492L61.4066 55.8044L68.7722 56.3588L68.6138 52.7552ZM87.4139 52.874L83.0183 52.676L83.7707 72.278L76.2071 52.676H71.9699L72.3659 80.0396L76.0883 79.9604L75.4943 58.8536L83.6123 79.9604H86.7407L87.4139 52.874ZM92.711 80.198L104.789 79.7624L110.016 73.5848L110.61 61.0712L104.155 53.1908L92.1566 52.7552L92.711 80.198ZM105.225 71.882L102.294 76.3568L96.3146 76.5944L96.671 55.9628L101.977 55.8044L105.977 62.4572L105.225 71.882ZM124.379 52.7552L114.122 52.9928L114.795 80H125.052L125.289 76.7924L117.33 77.228L117.251 65.15L122.161 64.8728L121.765 62.6948L117.211 63.2492L117.171 55.8044L124.537 56.3588L124.379 52.7552ZM131.616 68.3972L135.892 80.198L138.704 80L134.071 68.1596L136.684 68.12L138.704 65.3876V56.1608L136.288 52.874L127.735 52.874V80H130.824L130.467 68.4764L131.616 68.3972ZM129.992 55.2896H134.388L136.17 57.3884L136.051 63.8828L134.546 65.3876L130.348 65.546L129.992 55.2896ZM66.332 94.9728L71.282 97.4676L73.46 94.7352L69.2228 92.3196L62.57 93.6264L61.0652 101.23L71.5592 111.09L70.094 117.268L65.5004 116.832L63.0452 113.149L60.6296 116.159L63.8768 119.921L72.5492 120.04L75.4796 109.862L64.3124 99.5664L66.332 94.9728ZM84.1981 95.4876L84.5149 92.7552L75.2485 92.9532L75.4861 95.0124L78.0997 95.1708L78.6145 118.06L76.0009 118.218L76.3177 120.119L83.8417 120.04L84.2773 117.624L81.3469 117.862L81.7825 95.3688L84.1981 95.4876ZM99.0855 115.961L91.5615 116.911L92.3931 93.0324L88.0767 92.6364L88.5123 120.158L99.5607 120.277L99.0855 115.961ZM102.317 92.7552L101.921 120.079L105.762 120.04L105.881 108.318L107.822 106.457L118.989 120.673L121.88 118.654L110.356 104.556L119.82 95.3688L117.603 93.0324L105.921 104.714L106.04 92.9928L102.317 92.7552Z" fill="white"/>
</g>
<defs>
<clipPath id="clip0_874_2759">
<rect width="180" height="180" fill="white"/>
</clipPath>
</defs>
</svg>
