<svg width="180" height="180" viewBox="0 0 180 180" fill="none" xmlns="http://www.w3.org/2000/svg">
<g clip-path="url(#clip0_874_2648)">
<rect width="180" height="180" fill="#4B93C7"/>
<path d="M44.4998 54.9999C44.0998 74.9999 75.9998 71.3333 91.9998 66.9999C77.8332 75.6666 45.4 90.7 29 81.5C12.6 72.3 -14.5 87.3333 -26 96L-17.5 -12C10.1667 -13.8334 68 -14.9 78 -4.50005C90.5 8.49995 44.9998 29.9999 44.4998 54.9999Z" fill="#71C3FF"/>
<path fill-rule="evenodd" clip-rule="evenodd" d="M14.8589 107.21L20.1178 120.212L69.1534 116.767L89.605 129.927L86.1963 146.435L141.453 124.084L126.443 115.027C131.761 111.529 140.304 104.311 145.282 95.7856C147.402 95.9181 149.477 95.5697 151.44 94.8098C155.77 93.1341 159.21 89.6054 161.492 85.7273C163.778 81.8425 165.138 77.2129 164.925 72.9097C164.708 68.5349 162.793 64.1306 158.19 61.8512C152.112 58.8417 146.865 59.4884 142.894 62.0082C142.39 62.3279 141.914 62.6731 141.465 63.0378C139.117 60.5457 136.745 59.1291 135.123 58.5654L14.8589 107.21ZM145.529 68.7879C147.173 71.9144 148.499 75.8289 149.098 80.6486C149.423 83.2567 149.159 85.8686 148.46 88.4297C148.611 88.3807 148.761 88.3274 148.909 88.2701C151.358 87.3221 153.715 85.1177 155.448 82.171C157.178 79.231 158.054 75.944 157.921 73.2561C157.791 70.6398 156.781 68.9785 155.078 68.1353C151.066 66.1486 148.433 66.7984 146.652 67.9289C146.253 68.182 145.878 68.4721 145.529 68.7879Z" fill="#FFBE3F"/>
<path d="M133.901 54.1233L62.9998 59.7219L65.0886 53.0408C82.3651 50.0603 89.0918 37.1458 90.2956 31.0612L99.6316 31.3606C104.259 42.0275 124.048 48.773 133.364 50.8124L133.901 54.1233Z" fill="#FFBE3F"/>
<path d="M98.9755 30.1081L90.7432 29.6298L86.9561 21.6355L101.274 17.7299L98.9755 30.1081Z" fill="#FFBE3F"/>
<path d="M83.8622 59.9604L80.6938 56.8276L76.315 56.1156L70.1562 58.7144L67.2014 68.1128L69.4086 78.3656L76.2438 81.5696L84.3962 79.1132L84.147 70.9252L82.9366 69.5012L78.8782 69.2164V72.5628L81.7618 72.3492L81.5838 77.1552L76.6354 78.2944L72.1854 75.482L70.1918 68.3976L72.7906 60.53L78.4866 58.8924L81.7618 62.0252L83.8622 59.9604ZM94.3681 58.9636L94.6529 56.5072L86.3225 56.6852L86.5361 58.5364L88.8857 58.6788L89.3485 79.2556L86.9989 79.398L87.2837 81.1068L94.0477 81.0356L94.4393 78.864L91.8049 79.0776L92.1965 58.8568L94.3681 58.9636ZM111.739 56.614L107.787 56.436L108.464 74.058L101.664 56.436H97.8549L98.2109 81.0356L101.557 80.9644L101.023 61.9896L108.321 80.9644H111.134L111.739 56.614ZM59.9608 95.9604L56.7924 92.8276L52.4136 92.1156L46.2548 94.7144L43.3 104.113L45.5072 114.366L52.3424 117.57L60.4948 115.113L60.2456 106.925L59.0352 105.501L54.9768 105.216V108.563L57.8604 108.349L57.6824 113.155L52.734 114.294L48.284 111.482L46.2904 104.398L48.8892 96.53L54.5852 94.8924L57.8604 98.0252L59.9608 95.9604ZM65.5539 92.1512L61.8515 116.715L64.8419 116.893L66.5863 106.071L69.6123 105.857L71.5703 116.715L73.9555 116.964L69.5055 92.1512H65.5539ZM66.8711 104.504L68.0815 97.4912L69.3631 104.326L66.8711 104.504ZM80.0846 106.569L83.9294 117.178L86.457 117L82.2918 106.356L84.6414 106.32L86.457 103.864V95.5688L84.2854 92.614H76.5958V117H79.3726L79.0522 106.64L80.0846 106.569ZM78.625 94.7856H82.5766L84.1786 96.6724L84.0718 102.511L82.719 103.864L78.9454 104.006L78.625 94.7856ZM90.2703 117.178L101.128 116.786L105.828 111.233L106.362 99.9832L100.559 92.8988L89.7719 92.5072L90.2703 117.178ZM101.52 109.702L98.8855 113.725L93.5099 113.938L93.8303 95.3908L98.6007 95.2484L102.196 101.229L101.52 109.702ZM118.739 92.5072L109.519 92.7208L110.124 117H119.344L119.558 114.116L112.402 114.508L112.331 103.65L116.746 103.401L116.39 101.443L112.296 101.941L112.26 95.2484L118.882 95.7468L118.739 92.5072ZM135.64 92.614L131.689 92.436L132.365 110.058L125.566 92.436H121.756L122.112 117.036L125.459 116.964L124.925 97.9896L132.223 116.964H135.035L135.64 92.614Z" fill="white"/>
</g>
<defs>
<clipPath id="clip0_874_2648">
<rect width="180" height="180" fill="white"/>
</clipPath>
</defs>
</svg>
