<svg width="180" height="180" viewBox="0 0 180 180" fill="none" xmlns="http://www.w3.org/2000/svg">
<g clip-path="url(#clip0_873_1960)">
<rect width="180" height="180" fill="#1F6981"/>
<path d="M12.6672 99.3853C-42.8328 119.385 -52.3328 51.3853 -29.3328 15.3853C-29.3328 -32.2147 23.0004 -34.1147 49.167 -29.1147C57.0003 -25.2813 70.567 -11.0147 62.167 15.3853C51.667 48.3853 107.167 33.8853 125.167 74.8853C143.167 115.885 91.667 123.885 87.167 141.885C83.567 156.285 99.0003 155.552 107.167 153.385C89.667 166.385 56.167 137.385 72.667 117.385C89.167 97.3853 68.1672 79.3853 12.6672 99.3853Z" fill="#2EBEC7"/>
<path d="M59.4317 66.734C59.4317 75.7628 66.9953 82.8116 75.9449 78.7724L75.1133 69.4268L68.4209 70.2584V72.1196L73.1729 72.3968L72.8561 76.4756C66.9953 77.1884 62.4413 73.5452 62.4413 66.7736C62.4413 58.6952 67.3913 55.8836 74.5193 56.1608L75.1925 52.874C64.7381 50.9732 59.4317 57.5864 59.4317 66.734ZM87.0211 55.4876L87.3379 52.7552L78.0715 52.9532L78.3091 55.0124L80.9227 55.1708L81.4375 78.0596L78.8239 78.218L79.1407 80.1188L86.6647 80.0396L87.1003 77.624L84.1699 77.8616L84.6055 55.3688L87.0211 55.4876ZM106.344 52.874L101.948 52.676L102.701 72.278L95.137 52.676H90.8998L91.2958 80.0396L95.0182 79.9604L94.4242 58.8536L102.542 79.9604H105.671L106.344 52.874ZM110.69 67.0112L119.561 67.7636L119.957 64.6352H110.69V67.0112ZM64.8439 92.3988L49.1227 93.3096L49.2811 95.5272H55.3399L54.8251 120.277L58.2307 119.802L59.4187 95.5272L64.6855 95.6064L64.8439 92.3988ZM84.2578 99.9228L79.3078 92.9532L72.3382 92.478L66.121 99.5268L66.4378 113.308L71.5066 120.198L78.199 120.119L83.5054 113.149L84.2578 99.9228ZM79.8622 112.634L76.615 117.268L72.7738 117.149L69.883 112.674L69.2494 101.903L74.0806 95.4876L77.0506 95.6064L80.0998 99.5268L79.8622 112.634ZM103.211 92.874L98.8158 92.676L99.5682 112.278L92.0046 92.676H87.7674L88.1634 120.04L91.8858 119.96L91.2918 98.8536L99.4098 119.96H102.538L103.211 92.874ZM115.716 95.4876L116.032 92.7552L106.766 92.9532L107.004 95.0124L109.617 95.1708L110.132 118.06L107.518 118.218L107.835 120.119L115.359 120.04L115.795 117.624L112.864 117.862L113.3 95.3688L115.716 95.4876ZM130.267 116.713L123.258 117.149L121.278 104.754L122.902 97.2696L130.148 96.3192L130.228 92.2404L121.357 93.27L117.556 105.744L120.842 120.317L130.703 120.079L130.267 116.713Z" fill="white"/>
<path fill-rule="evenodd" clip-rule="evenodd" d="M109 153V159L129 165.5L135 174L131 180H156.5L152 174C154.67 173.466 159.216 171.974 162.558 169.391C163.378 169.784 164.257 169.978 165.157 169.992C167.143 170.022 169.074 169.174 170.601 168.002C172.131 166.828 173.412 165.21 174.018 163.47C174.634 161.7 174.581 159.646 173.121 158.003C171.194 155.835 169.009 155.25 167.03 155.612C166.779 155.658 166.535 155.719 166.298 155.791C165.766 154.426 165.053 153.484 164.5 153H109ZM166.987 158.724C167.138 160.227 167.035 161.992 166.5 164C166.21 165.086 165.687 166.08 164.999 166.984C165.067 166.988 165.134 166.991 165.202 166.992C166.326 167.009 167.614 166.513 168.774 165.623C169.932 164.734 170.807 163.571 171.185 162.483C171.553 161.425 171.419 160.604 170.879 159.997C169.606 158.565 168.458 158.4 167.57 158.563C167.372 158.599 167.176 158.654 166.987 158.724Z" fill="#FFBE3F"/>
</g>
<defs>
<clipPath id="clip0_873_1960">
<rect width="180" height="180" fill="white"/>
</clipPath>
</defs>
</svg>
