<svg width="180" height="180" viewBox="0 0 180 180" fill="none" xmlns="http://www.w3.org/2000/svg">
<g clip-path="url(#clip0_873_1960)">
<rect width="180" height="180" fill="#1F6981"/>
<path d="M12.6672 99.3853C-42.8328 119.385 -52.3328 51.3853 -29.3328 15.3853C-29.3328 -32.2147 23.0004 -34.1147 49.167 -29.1147C57.0003 -25.2813 70.567 -11.0147 62.167 15.3853C51.667 48.3853 107.167 33.8853 125.167 74.8853C143.167 115.885 91.667 123.885 87.167 141.885C83.567 156.285 99.0003 155.552 107.167 153.385C89.667 166.385 56.167 137.385 72.667 117.385C89.167 97.3853 68.1672 79.3853 12.6672 99.3853Z" fill="#2EBEC7"/>
<path d="M83.2625 56.5964L79.7381 53.1116L74.8673 52.3196L68.0165 55.2104L64.7297 65.6648L67.1849 77.0696L74.7881 80.6336L83.8565 77.9012L83.5793 68.7932L82.2329 67.2092L77.7185 66.8924V70.6148L80.9261 70.3772L80.7281 75.7232L75.2237 76.9904L70.2737 73.862L68.0561 65.9816L70.9469 57.23L77.2829 55.4084L80.9261 58.8932L83.2625 56.5964ZM94.9489 55.4876L95.2657 52.7552L85.9993 52.9532L86.2369 55.0124L88.8505 55.1708L89.3653 78.0596L86.7517 78.218L87.0685 80.1188L94.5925 80.0396L95.0281 77.624L92.0977 77.8616L92.5333 55.3688L94.9489 55.4876ZM114.272 52.874L109.876 52.676L110.628 72.278L103.065 52.676H98.8275L99.2235 80.0396L102.946 79.9604L102.352 58.8536L110.47 79.9604H113.598L114.272 52.874ZM64.8439 92.3988L49.1227 93.3096L49.2811 95.5272H55.3399L54.8251 120.277L58.2307 119.802L59.4187 95.5272L64.6855 95.6064L64.8439 92.3988ZM84.2578 99.9228L79.3078 92.9532L72.3382 92.478L66.121 99.5268L66.4378 113.308L71.5066 120.198L78.199 120.119L83.5054 113.149L84.2578 99.9228ZM79.8622 112.634L76.615 117.268L72.7738 117.149L69.883 112.674L69.2494 101.903L74.0806 95.4876L77.0506 95.6064L80.0998 99.5268L79.8622 112.634ZM103.211 92.874L98.8158 92.676L99.5682 112.278L92.0046 92.676H87.7674L88.1634 120.04L91.8858 119.96L91.2918 98.8536L99.4098 119.96H102.538L103.211 92.874ZM115.716 95.4876L116.032 92.7552L106.766 92.9532L107.004 95.0124L109.617 95.1708L110.132 118.06L107.518 118.218L107.835 120.119L115.359 120.04L115.795 117.624L112.864 117.862L113.3 95.3688L115.716 95.4876ZM130.267 116.713L123.258 117.149L121.278 104.754L122.902 97.2696L130.148 96.3192L130.228 92.2404L121.357 93.27L117.556 105.744L120.842 120.317L130.703 120.079L130.267 116.713Z" fill="white"/>
<path fill-rule="evenodd" clip-rule="evenodd" d="M109 153V159L129 165.5L135 174L131 180H156.5L152 174C154.67 173.466 159.216 171.974 162.558 169.391C163.378 169.784 164.257 169.978 165.157 169.992C167.143 170.022 169.074 169.174 170.601 168.002C172.131 166.828 173.412 165.21 174.018 163.47C174.634 161.7 174.581 159.646 173.121 158.003C171.194 155.835 169.009 155.25 167.03 155.612C166.779 155.658 166.535 155.719 166.298 155.791C165.766 154.426 165.053 153.484 164.5 153H109ZM166.987 158.724C167.138 160.227 167.035 161.992 166.5 164C166.21 165.086 165.687 166.08 164.999 166.984C165.067 166.988 165.134 166.991 165.202 166.992C166.326 167.009 167.614 166.513 168.774 165.623C169.932 164.734 170.807 163.571 171.185 162.483C171.553 161.425 171.419 160.604 170.879 159.997C169.606 158.565 168.458 158.4 167.57 158.563C167.372 158.599 167.176 158.654 166.987 158.724Z" fill="#FFBE3F"/>
</g>
<defs>
<clipPath id="clip0_873_1960">
<rect width="180" height="180" fill="white"/>
</clipPath>
</defs>
</svg>
