<svg width="180" height="180" viewBox="0 0 180 180" fill="none" xmlns="http://www.w3.org/2000/svg">
<g clip-path="url(#clip0_874_2301)">
<rect width="180" height="180" fill="#D76950"/>
<path d="M16.5 152C19.7 128.4 -4.5 65.1666 -17 36.5V-18C27 -19 115.3 -20.4 116.5 -18C118 -15 126 -15 109.5 36.5C96.3 77.7 133 120.333 153 136.5C143 152.5 97.5 152 67.5 139.5C43.5 129.5 23.5 143.667 16.5 152Z" fill="#FFBE3F"/>
<path d="M54.162 56.5964L50.6376 53.1116L45.7668 52.3196L38.916 55.2104L35.6292 65.6648L38.0844 77.0696L45.6876 80.6336L54.756 77.9012L54.4788 68.7932L53.1324 67.2092L48.618 66.8924V70.6148L51.8256 70.3772L51.6276 75.7232L46.1232 76.9904L41.1732 73.862L38.9556 65.9816L41.8464 57.23L48.1824 55.4084L51.8256 58.8932L54.162 56.5964ZM74.9959 59.9228L70.0459 52.9532L63.0763 52.478L56.8591 59.5268L57.1759 73.3076L62.2447 80.198L68.9371 80.1188L74.2435 73.1492L74.9959 59.9228ZM70.6003 72.6344L67.3531 77.2676L63.5119 77.1488L60.6211 72.674L59.9875 61.9028L64.8187 55.4876L67.7887 55.6064L70.8379 59.5268L70.6003 72.6344ZM89.5142 75.9608L81.9902 76.9112L82.8218 53.0324L78.5054 52.6364L78.941 80.1584L89.9894 80.2772L89.5142 75.9608ZM92.9044 80.198L104.982 79.7624L110.21 73.5848L110.804 61.0712L104.349 53.1908L92.35 52.7552L92.9044 80.198ZM105.418 71.882L102.488 76.3568L96.508 76.5944L96.8644 55.9628L102.171 55.8044L106.17 62.4572L105.418 71.882ZM124.572 52.7552L114.316 52.9928L114.989 80H125.245L125.483 76.7924L117.523 77.228L117.444 65.15L122.354 64.8728L121.958 62.6948L117.404 63.2492L117.365 55.8044L124.73 56.3588L124.572 52.7552ZM143.372 52.874L138.976 52.676L139.729 72.278L132.165 52.676H127.928L128.324 80.0396L132.046 79.9604L131.452 58.8536L139.57 79.9604H142.699L143.372 52.874ZM53.8107 119.921L61.9683 93.1512L56.4639 92.7552L52.0287 114.575L46.8807 93.1512L42.1683 92.9532L49.8111 120.04L53.8107 119.921ZM75.1687 92.7552L64.9123 92.9928L65.5855 120H75.8419L76.0795 116.792L68.1199 117.228L68.0407 105.15L72.9511 104.873L72.5551 102.695L68.0011 103.249L67.9615 95.8044L75.3271 96.3588L75.1687 92.7552ZM89.5336 115.961L82.0096 116.911L82.8412 93.0324L78.5248 92.6364L78.9604 120.158L90.0088 120.277L89.5336 115.961ZM98.8634 119.921L107.021 93.1512L101.517 92.7552L97.0814 114.575L91.9334 93.1512L87.221 92.9532L94.8638 120.04L98.8634 119.921ZM120.221 92.7552L109.965 92.9928L110.638 120H120.895L121.132 116.792L113.173 117.228L113.093 105.15L118.004 104.873L117.608 102.695L113.054 103.249L113.014 95.8044L120.38 96.3588L120.221 92.7552ZM138.398 92.3988L122.677 93.3096L122.835 95.5272H128.894L128.379 120.277L131.785 119.802L132.973 95.5272L138.239 95.6064L138.398 92.3988Z" fill="white"/>
</g>
<defs>
<clipPath id="clip0_874_2301">
<rect width="180" height="180" fill="white"/>
</clipPath>
</defs>
</svg>
