<svg width="180" height="180" viewBox="0 0 180 180" fill="none" xmlns="http://www.w3.org/2000/svg">
<g clip-path="url(#clip0_874_2301)">
<rect width="180" height="180" fill="#D76950"/>
<path d="M16.5 152C19.7 128.4 -4.5 65.1666 -17 36.5V-18C27 -19 115.3 -20.4 116.5 -18C118 -15 126 -15 109.5 36.5C96.3 77.7 133 120.333 153 136.5C143 152.5 97.5 152 67.5 139.5C43.5 129.5 23.5 143.667 16.5 152Z" fill="#FFBE3F"/>
<path d="M36.944 66.734C36.944 75.7628 44.5076 82.8116 53.4572 78.7724L52.6256 69.4268L45.9332 70.2584V72.1196L50.6852 72.3968L50.3684 76.4756C44.5076 77.1884 39.9536 73.5452 39.9536 66.7736C39.9536 58.6952 44.9036 55.8836 52.0316 56.1608L52.7048 52.874C42.2504 50.9732 36.944 57.5864 36.944 66.734ZM73.681 59.9228L68.731 52.9532L61.7615 52.478L55.5443 59.5268L55.8611 73.3076L60.9299 80.198L67.6223 80.1188L72.9286 73.1492L73.681 59.9228ZM69.2854 72.6344L66.0382 77.2676L62.1971 77.1488L59.3063 72.674L58.6727 61.9028L63.5039 55.4876L66.4738 55.6064L69.5231 59.5268L69.2854 72.6344ZM88.1994 75.9608L80.6754 76.9112L81.507 53.0324L77.1906 52.6364L77.6262 80.1584L88.6746 80.2772L88.1994 75.9608ZM91.5895 80.198L103.668 79.7624L108.895 73.5848L109.489 61.0712L103.034 53.1908L91.0351 52.7552L91.5895 80.198ZM104.103 71.882L101.173 76.3568L95.1931 76.5944L95.5495 55.9628L100.856 55.8044L104.856 62.4572L104.103 71.882ZM123.257 52.7552L113.001 52.9928L113.674 80H123.93L124.168 76.7924L116.208 77.228L116.129 65.15L121.04 64.8728L120.644 62.6948L116.09 63.2492L116.05 55.8044L123.416 56.3588L123.257 52.7552ZM142.057 52.874L137.662 52.676L138.414 72.278L130.85 52.676H126.613L127.009 80.0396L130.732 79.9604L130.138 58.8536L138.256 79.9604H141.384L142.057 52.874ZM53.8107 119.921L61.9683 93.1512L56.4639 92.7552L52.0287 114.575L46.8807 93.1512L42.1683 92.9532L49.8111 120.04L53.8107 119.921ZM75.1687 92.7552L64.9123 92.9928L65.5855 120H75.8419L76.0795 116.792L68.1199 117.228L68.0407 105.15L72.9511 104.873L72.5551 102.695L68.0011 103.249L67.9615 95.8044L75.3271 96.3588L75.1687 92.7552ZM89.5336 115.961L82.0096 116.911L82.8412 93.0324L78.5248 92.6364L78.9604 120.158L90.0088 120.277L89.5336 115.961ZM98.8634 119.921L107.021 93.1512L101.517 92.7552L97.0814 114.575L91.9334 93.1512L87.221 92.9532L94.8638 120.04L98.8634 119.921ZM120.221 92.7552L109.965 92.9928L110.638 120H120.895L121.132 116.792L113.173 117.228L113.093 105.15L118.004 104.873L117.608 102.695L113.054 103.249L113.014 95.8044L120.38 96.3588L120.221 92.7552ZM138.398 92.3988L122.677 93.3096L122.835 95.5272H128.894L128.379 120.277L131.785 119.802L132.973 95.5272L138.239 95.6064L138.398 92.3988Z" fill="white"/>
</g>
<defs>
<clipPath id="clip0_874_2301">
<rect width="180" height="180" fill="white"/>
</clipPath>
</defs>
</svg>
