<svg width="180" height="180" viewBox="0 0 180 180" fill="none" xmlns="http://www.w3.org/2000/svg">
<g clip-path="url(#clip0_874_2458)">
<rect width="180" height="180" fill="#EAB144"/>
<path fill-rule="evenodd" clip-rule="evenodd" d="M99.467 44.2604C96.1912 44.952 93.1491 46.9716 91.7529 50.9926C90.0596 55.8689 94.5596 61.6955 100.28 69.1017C110.255 82.0171 123.94 99.7363 114.96 125.597C113.929 128.566 112.702 131.393 111.271 134C112.702 131.393 113.929 128.566 114.96 125.597C123.94 99.7363 110.255 82.0171 100.28 69.1017C94.5597 61.6955 90.0597 55.8689 91.753 50.9926C93.1492 46.9717 96.1912 44.952 99.467 44.2604ZM69.1579 91.2074L69.1578 91.2074C69.0567 92.2884 68.9285 93.485 68.7909 94.7694C67.6484 105.435 65.8574 122.154 73.5407 128.984C65.8575 122.154 67.6485 105.435 68.791 94.7694C68.9286 93.485 69.0568 92.2884 69.1579 91.2074ZM77.1619 131.158C77.2547 131.193 77.3484 131.227 77.443 131.26C77.443 131.26 77.4431 131.26 77.4431 131.26C77.3485 131.227 77.2547 131.193 77.1619 131.158ZM125.036 20.2399L119.937 35.5164C119.937 35.5164 119.937 35.5164 119.937 35.5164L125.036 20.2399L125.036 20.2399ZM123.754 37.9439C132.155 44.1945 136.877 54.4155 134.911 65.7736L134.911 65.7736C136.877 54.4155 132.155 44.1945 123.754 37.9439ZM131.979 17.1927L126.665 33.111C136.907 40.4984 142.842 52.9106 140.449 66.7324L139.672 71.2242L114.372 72.1481L114.305 66.3855C114.282 64.3325 113.851 60.6884 112.357 57.2946C110.9 53.9845 108.631 51.3017 105.026 50.0499C103.533 49.5315 101.612 49.425 100.052 49.9092C98.7037 50.3275 97.6515 51.1405 97.0627 52.8363C97.0255 52.9435 96.8957 53.3619 97.2981 54.5062C97.7259 55.7226 98.596 57.2961 100.034 59.3825C101.344 61.2838 102.926 63.3322 104.75 65.6945L105.229 66.315C107.216 68.8894 109.414 71.7598 111.549 74.8764C120.179 87.471 128.17 104.689 120.269 127.441C117.224 136.21 112.396 144.439 105.183 149.772C99.0542 154.302 91.5856 156.452 82.9814 155.465L78.9776 173.079L52.6576 165.743L59.1452 145.78C47.9636 137.594 44.1346 126.645 43.5964 116.173C43.1347 107.193 45.1231 98.1584 46.516 91.8295C46.8328 90.3903 47.1188 89.091 47.3381 87.9641L48.3495 82.7682L75.2575 86.3488L74.7542 91.7308C74.6407 92.9438 74.5029 94.2376 74.3587 95.5905L74.3587 95.5908C73.7791 101.03 73.0976 107.426 73.4912 113.371C74.0103 121.213 76.172 124.868 79.2869 125.95C81.2562 126.634 82.5966 126.694 83.5028 126.552C84.3592 126.418 85.1628 126.055 86.0249 125.298C87.9926 123.569 89.969 120.069 92.0272 114.142C95.0088 105.556 95.553 93.7945 85.0983 81.7817C79.7377 75.6587 75.4901 70.0242 73.1943 64.2546C70.7691 58.1599 70.6063 52.148 72.858 45.6637C77.2823 32.9226 88.8226 25.9614 101.979 25.7729L107.013 6L131.979 17.1927Z" fill="#4CB469"/>
<path d="M57.7011 59.9604L54.5327 56.8276L50.1539 56.1156L43.9951 58.7144L41.0403 68.1128L43.2475 78.3656L50.0827 81.5696L58.2351 79.1132L57.9859 70.9252L56.7755 69.5012L52.7171 69.2164V72.5628L55.6007 72.3492L55.4227 77.1552L50.4743 78.2944L46.0243 75.482L44.0307 68.3976L46.6295 60.53L52.3255 58.8924L55.6007 62.0252L57.7011 59.9604ZM76.4306 62.9508L71.9806 56.6852L65.715 56.258L60.1258 62.5948L60.4106 74.9836L64.9674 81.178L70.9838 81.1068L75.7542 74.8412L76.4306 62.9508ZM72.479 74.3784L69.5598 78.5436L66.1066 78.4368L63.5078 74.414L62.9382 64.7308L67.2814 58.9636L69.9514 59.0704L72.6926 62.5948L72.479 74.3784ZM89.4824 77.3688L82.7184 78.2232L83.466 56.7564L79.5856 56.4004L79.9772 81.1424L89.9096 81.2492L89.4824 77.3688ZM92.5301 81.178L103.388 80.7864L108.087 75.2328L108.621 63.9832L102.819 56.8988L92.0317 56.5072L92.5301 81.178ZM103.78 73.702L101.145 77.7248L95.7697 77.9384L96.0901 59.3908L100.861 59.2484L104.456 65.2292L103.78 73.702ZM120.999 56.5072L111.779 56.7208L112.384 81H121.604L121.818 78.1164L114.662 78.508L114.591 67.65L119.005 67.4008L118.649 65.4428L114.555 65.9412L114.52 59.2484L121.141 59.7468L120.999 56.5072ZM137.9 56.614L133.948 56.436L134.625 74.058L127.825 56.436H124.016L124.372 81.0356L127.718 80.9644L127.184 61.9896L134.482 80.9644H137.295L137.9 56.614ZM35.4327 114.045L29.1315 114.437L27.3515 103.294L28.8111 96.5656L35.3259 95.7112L35.3971 92.0444L27.4227 92.97L24.0051 104.184L26.9599 117.285L35.8243 117.071L35.4327 114.045ZM38.3413 117.071H40.0857L39.7297 103.543H44.1085L44.3221 117.071H47.1701L46.3157 92.4004H43.9661L44.1085 101.799L39.6941 102.119L39.4449 92.4004H37.3801L38.3413 117.071ZM53.4903 92.1512L49.7879 116.715L52.7783 116.893L54.5227 106.071L57.5487 105.857L59.5067 116.715L61.8919 116.964L57.4419 92.1512H53.4903ZM54.8075 104.504L56.0179 97.4912L57.2995 104.326L54.8075 104.504ZM79.9997 92.258L76.1905 92.6852L73.0933 101.87L69.3197 92.5072L65.1545 92.6496L63.9797 116.964L67.3973 117.142L67.4329 97.1352L71.0285 105.893L73.6629 106.213L77.1161 97.6692L77.4009 116.893C77.4009 116.893 80.5693 116.893 81.1389 116.858L79.9997 92.258ZM94.3223 95.5688L92.1151 92.5784H84.1051V117H86.8463L86.4903 106.64L92.1151 106.462L94.2867 103.828L94.3223 95.5688ZM91.5455 102.546L90.1927 103.828L86.4191 103.97L86.0987 94.8212H90.0503L91.6523 96.6724L91.5455 102.546ZM98.6508 92.1512L94.9484 116.715L97.9388 116.893L99.6832 106.071L102.709 105.857L104.667 116.715L107.052 116.964L102.602 92.1512H98.6508ZM99.968 104.504L101.178 97.4912L102.46 104.326L99.968 104.504ZM125.285 95.9604L122.117 92.8276L117.738 92.1156L111.579 94.7144L108.625 104.113L110.832 114.366L117.667 117.57L125.819 115.113L125.57 106.925L124.36 105.501L120.301 105.216V108.563L123.185 108.349L123.007 113.155L118.059 114.294L113.609 111.482L111.615 104.398L114.214 96.53L119.91 94.8924L123.185 98.0252L125.285 95.9604ZM142.698 92.614L138.746 92.436L139.423 110.058L132.623 92.436H128.814L129.17 117.036L132.516 116.964L131.982 97.9896L139.28 116.964H142.093L142.698 92.614ZM156.182 92.5072L146.961 92.7208L147.567 117H156.787L157.001 114.116L149.845 114.508L149.774 103.65L154.188 103.401L153.832 101.443L149.738 101.941L149.703 95.2484L156.324 95.7468L156.182 92.5072Z" fill="white"/>
</g>
<defs>
<clipPath id="clip0_874_2458">
<rect width="180" height="180" fill="white"/>
</clipPath>
</defs>
</svg>
