<svg width="180" height="180" viewBox="0 0 180 180" fill="none" xmlns="http://www.w3.org/2000/svg">
<g clip-path="url(#clip0_874_2587)">
<rect width="180" height="180" fill="#6B291A"/>
<path d="M60 32L84.6931 149C95.9327 124.153 131.241 114.822 146 111.56L60 32Z" fill="#BE7CDD"/>
<ellipse cx="117.352" cy="134.948" rx="37.2161" ry="22.1524" transform="rotate(-32.8908 117.352 134.948)" fill="#874AA4"/>
<path d="M69.9386 59.9604L66.7702 56.8276L62.3914 56.1156L56.2326 58.7144L53.2778 68.1128L55.485 78.3656L62.3202 81.5696L70.4726 79.1132L70.2234 70.9252L69.013 69.5012L64.9546 69.2164V72.5628L67.8382 72.3492L67.6602 77.1552L62.7118 78.2944L58.2618 75.482L56.2682 68.3976L58.867 60.53L64.563 58.8924L67.8382 62.0252L69.9386 59.9604ZM88.6681 62.9508L84.2181 56.6852L77.9525 56.258L72.3633 62.5948L72.6481 74.9836L77.2049 81.178L83.2213 81.1068L87.9917 74.8412L88.6681 62.9508ZM84.7165 74.3784L81.7973 78.5436L78.3441 78.4368L75.7453 74.414L75.1757 64.7308L79.5189 58.9636L82.1889 59.0704L84.9301 62.5948L84.7165 74.3784ZM107.024 62.9508L102.574 56.6852L96.3087 56.258L90.7195 62.5948L91.0043 74.9836L95.5611 81.178L101.578 81.1068L106.348 74.8412L107.024 62.9508ZM103.073 74.3784L100.154 78.5436L96.7003 78.4368L94.1015 74.414L93.5319 64.7308L97.8751 58.9636L100.545 59.0704L103.286 62.5948L103.073 74.3784ZM110.678 81.178L121.536 80.7864L126.235 75.2328L126.769 63.9832L120.966 56.8988L110.179 56.5072L110.678 81.178ZM121.927 73.702L119.293 77.7248L113.917 77.9384L114.238 59.3908L119.008 59.2484L122.604 65.2292L121.927 73.702ZM68.647 92.614L64.6954 92.436L65.3718 110.058L58.5722 92.436H54.763L55.119 117.036L58.4654 116.964L57.9314 97.9896L65.2294 116.964H68.0418L68.647 92.614ZM79.8882 94.9636L80.173 92.5072L71.8426 92.6852L72.0562 94.5364L74.4058 94.6788L74.8686 115.256L72.519 115.398L72.8038 117.107L79.5678 117.036L79.9594 114.864L77.325 115.078L77.7166 94.8568L79.8882 94.9636ZM97.4729 95.9604L94.3045 92.8276L89.9257 92.1156L83.7669 94.7144L80.8121 104.113L83.0193 114.366L89.8545 117.57L98.0069 115.113L97.7577 106.925L96.5473 105.501L92.4889 105.216V108.563L95.3725 108.349L95.1945 113.155L90.2461 114.294L85.7961 111.482L83.8025 104.398L86.4013 96.53L92.0973 94.8924L95.3725 98.0252L97.4729 95.9604ZM101.962 117.071H103.707L103.351 103.543H107.73L107.943 117.071H110.791L109.937 92.4004H107.587L107.73 101.799L103.315 102.119L103.066 92.4004H101.001L101.962 117.071ZM127.257 92.1868L113.124 93.0056L113.267 94.9992H118.713L118.251 117.249L121.312 116.822L122.38 94.9992L127.115 95.0704L127.257 92.1868Z" fill="white"/>
<path d="M51.0026 15.6669L61.2264 21.6949L72.7556 18.8773L70.1819 30.4634L76.4243 40.5577L64.61 41.6903L56.9388 50.7465L52.2108 39.8603L41.2273 35.3631L50.1196 27.5025L51.0026 15.6669Z" fill="#E2B0FA"/>
</g>
<defs>
<clipPath id="clip0_874_2587">
<rect width="180" height="180" fill="white"/>
</clipPath>
</defs>
</svg>
