<svg width="180" height="180" viewBox="0 0 180 180" fill="none" xmlns="http://www.w3.org/2000/svg">
<g clip-path="url(#clip0_873_2002)">
<rect width="180" height="180" fill="#49BC70"/>
<path d="M115 113.5L88 158.5L93 163.5L130.5 127L115 113.5Z" fill="#1F3930"/>
<path d="M64.8164 67.5L91.8164 112.5L86.8164 117.5L49.3164 81L64.8164 67.5Z" fill="#1F3930"/>
<ellipse cx="136.908" cy="99.382" rx="32" ry="39" transform="rotate(36.4381 136.908 99.382)" fill="#275322"/>
<ellipse rx="32" ry="39" transform="matrix(-0.804499 0.593954 0.593954 0.804499 42.9081 53.382)" fill="#275322"/>
<path d="M150 131C117.2 123 108 94.6667 107.5 81.5C107.012 77.1 113.297 73.3333 116.5 72C120.1 95.2 153.667 105.667 170 108C170 116.4 156.667 126.833 150 131Z" fill="#3A8332"/>
<path d="M29.8164 85C62.6164 77 71.8164 48.6667 72.3164 35.5C72.8047 31.1 66.5199 27.3333 63.3164 26C59.7164 49.2 26.1497 59.6667 9.81637 62C9.81637 70.4 23.1497 80.8333 29.8164 85Z" fill="#3A8332"/>
<path d="M68.1418 56.5964L64.6174 53.1116L59.7467 52.3196L52.8959 55.2104L49.6091 65.6648L52.0643 77.0696L59.6674 80.6336L68.7358 77.9012L68.4586 68.7932L67.1122 67.2092L62.5978 66.8924V70.6148L65.8054 70.3772L65.6074 75.7232L60.1031 76.9904L55.1531 73.862L52.9355 65.9816L55.8263 57.23L62.1622 55.4084L65.8054 58.8932L68.1418 56.5964ZM75.9474 68.3972L80.2242 80.198L83.0358 80L78.4026 68.1596L81.0162 68.12L83.0358 65.3876V56.1608L80.6202 52.874H72.0666V80H75.1554L74.799 68.4764L75.9474 68.3972ZM74.3238 55.2896H78.7194L80.5014 57.3884L80.3826 63.8828L78.8778 65.3876L74.6802 65.546L74.3238 55.2896ZM96.9796 52.7552L86.7232 52.9928L87.3964 80H97.6528L97.8904 76.7924L89.9308 77.228L89.8516 65.15L94.762 64.8728L94.366 62.6948L89.812 63.2492L89.7724 55.8044L97.138 56.3588L96.9796 52.7552ZM110.592 52.7552L100.336 52.9928L101.009 80H111.265L111.503 76.7924L103.543 77.228L103.464 65.15L108.375 64.8728L107.979 62.6948L103.425 63.2492L103.385 55.8044L110.751 56.3588L110.592 52.7552ZM129.392 52.874L124.997 52.676L125.749 72.278L118.185 52.676H113.948L114.344 80.0396L118.067 79.9604L117.473 58.8536L125.591 79.9604H128.719L129.392 52.874ZM52.3212 92.478L48.084 92.9532L44.6388 103.17L40.4412 92.7552L35.808 92.9136L34.5012 119.96L38.3028 120.158L38.3424 97.9032L42.342 107.645L45.2724 108.001L49.1136 98.4972L49.4304 119.881C49.4304 119.881 52.9548 119.881 53.5884 119.842L52.3212 92.478ZM67.1443 92.7552L56.8879 92.9928L57.5611 120H67.8175L68.0551 116.792L60.0955 117.228L60.0163 105.15L64.9267 104.873L64.5307 102.695L59.9767 103.249L59.9371 95.8044L67.3027 96.3588L67.1443 92.7552ZM80.2816 92.7156L76.8364 101.863L73.51 92.7156L69.1936 92.874L74.698 105.863L69.946 120.198L73.3516 120.475L76.678 109.942L80.836 120.198L84.004 119.842L78.46 105.19L84.2416 92.9928L80.2816 92.7156ZM95.4709 95.4876L95.7877 92.7552L86.5213 92.9532L86.7589 95.0124L89.3725 95.1708L89.8873 118.06L87.2737 118.218L87.5905 120.119L95.1145 120.04L95.5501 117.624L92.6197 117.862L93.0553 95.3688L95.4709 95.4876ZM110.022 116.713L103.013 117.149L101.033 104.754L102.657 97.2696L109.904 96.3192L109.983 92.2404L101.112 93.27L97.3108 105.744L100.598 120.317L110.458 120.079L110.022 116.713ZM116.496 92.3592L112.378 119.683L115.704 119.881L117.645 107.843L121.011 107.605L123.189 119.683L125.842 119.96L120.892 92.3592H116.496ZM117.962 106.1L119.308 98.2992L120.734 105.902L117.962 106.1ZM144.223 92.874L139.827 92.676L140.58 112.278L133.016 92.676H128.779L129.175 120.04L132.897 119.96L132.303 98.8536L140.421 119.96H143.55L144.223 92.874Z" fill="white"/>
</g>
<defs>
<clipPath id="clip0_873_2002">
<rect width="180" height="180" fill="white"/>
</clipPath>
</defs>
</svg>
