<svg width="180" height="180" viewBox="0 0 180 180" fill="none" xmlns="http://www.w3.org/2000/svg">
<g clip-path="url(#clip0_873_1968)">
<rect width="180" height="180" fill="#C7A44B"/>
<ellipse cx="90" cy="162.5" rx="105" ry="78.5" fill="#278D1B"/>
<path d="M24.0011 38C20.8013 63.123 33.3338 93.6108 40 105.714L10.6685 117C0.00247097 85.2037 15.1127 51.0849 24.0011 38Z" fill="#278D1B"/>
<path d="M156.999 38C160.199 63.123 147.666 93.6108 141 105.714L170.331 117C180.998 85.2037 165.887 51.0849 156.999 38Z" fill="#278D1B"/>
<path d="M68.1418 56.5964L64.6174 53.1116L59.7467 52.3196L52.8959 55.2104L49.6091 65.6648L52.0643 77.0696L59.6674 80.6336L68.7358 77.9012L68.4586 68.7932L67.1122 67.2092L62.5978 66.8924V70.6148L65.8054 70.3772L65.6074 75.7232L60.1031 76.9904L55.1531 73.862L52.9355 65.9816L55.8263 57.23L62.1622 55.4084L65.8054 58.8932L68.1418 56.5964ZM75.9474 68.3972L80.2242 80.198L83.0358 80L78.4026 68.1596L81.0162 68.12L83.0358 65.3876V56.1608L80.6202 52.874H72.0666V80H75.1554L74.799 68.4764L75.9474 68.3972ZM74.3238 55.2896H78.7194L80.5014 57.3884L80.3826 63.8828L78.8778 65.3876L74.6802 65.546L74.3238 55.2896ZM96.9796 52.7552L86.7232 52.9928L87.3964 80H97.6528L97.8904 76.7924L89.9308 77.228L89.8516 65.15L94.762 64.8728L94.366 62.6948L89.812 63.2492L89.7724 55.8044L97.138 56.3588L96.9796 52.7552ZM110.592 52.7552L100.336 52.9928L101.009 80H111.265L111.503 76.7924L103.543 77.228L103.464 65.15L108.375 64.8728L107.979 62.6948L103.425 63.2492L103.385 55.8044L110.751 56.3588L110.592 52.7552ZM129.392 52.874L124.997 52.676L125.749 72.278L118.185 52.676H113.948L114.344 80.0396L118.067 79.9604L117.473 58.8536L125.591 79.9604H128.719L129.392 52.874ZM52.0475 120.198L64.1255 119.762L69.3527 113.585L69.9467 101.071L63.4919 93.1908L51.4931 92.7552L52.0475 120.198ZM64.5611 111.882L61.6307 116.357L55.6511 116.594L56.0075 95.9628L61.3139 95.8044L65.3135 102.457L64.5611 111.882ZM83.7152 92.7552L73.4588 92.9928L74.132 120H84.3884L84.626 116.792L76.6664 117.228L76.5872 105.15L81.4976 104.873L81.1016 102.695L76.5476 103.249L76.508 95.8044L83.8736 96.3588L83.7152 92.7552ZM96.8525 119.921L105.01 93.1512L99.5057 92.7552L95.0705 114.575L89.9225 93.1512L85.2101 92.9532L92.8529 120.04L96.8525 119.921ZM115.716 95.4876L116.032 92.7552L106.766 92.9532L107.004 95.0124L109.617 95.1708L110.132 118.06L107.518 118.218L107.835 120.119L115.359 120.04L115.795 117.624L112.864 117.862L113.3 95.3688L115.716 95.4876ZM130.603 115.961L123.079 116.911L123.911 93.0324L119.594 92.6364L120.03 120.158L131.078 120.277L130.603 115.961Z" fill="white"/>
<path d="M50 172V182L93.5 185L90.5 168L67.5 162L50 172Z" fill="#1C5416"/>
<path d="M96.5 176.5V182H120.5L119 174.5H111.5L96.5 176.5Z" fill="#1C5416"/>
</g>
<defs>
<clipPath id="clip0_873_1968">
<rect width="180" height="180" fill="white"/>
</clipPath>
</defs>
</svg>
