<svg width="180" height="180" viewBox="0 0 180 180" fill="none" xmlns="http://www.w3.org/2000/svg">
<g clip-path="url(#clip0_873_1989)">
<rect width="180" height="180" fill="#697548"/>
<path d="M126.5 69.4995L67.5 36.9995C132.7 15.3995 178.667 49.6662 193.5 69.4995V197H67.5C67.5 183.5 73.7 151.9 98.5 133.5C123.3 115.1 127.5 83.1662 126.5 69.4995Z" fill="#59C44D"/>
<path d="M29.4468 17C29.4468 17 17.225 45.6243 40.6154 64.3781C40.6154 64.3781 26.1367 79.1429 36.4692 106.07L11.3249 168.441L1.16658 174.393L-22.1271 173.905L-23.5673 176.843L36.7386 206.405L38.1787 203.468L23.5258 185.353L22.0084 173.678L55.9095 115.6C83.5236 107.275 86.3264 86.7862 86.3264 86.7862C115.477 93.7889 130.618 66.5955 130.618 66.5955L29.4468 17Z" fill="#06451B"/>
<path d="M68.1418 56.5964L64.6174 53.1116L59.7467 52.3196L52.8959 55.2104L49.6091 65.6648L52.0643 77.0696L59.6674 80.6336L68.7358 77.9012L68.4586 68.7932L67.1122 67.2092L62.5978 66.8924V70.6148L65.8054 70.3772L65.6074 75.7232L60.1031 76.9904L55.1531 73.862L52.9355 65.9816L55.8263 57.23L62.1622 55.4084L65.8054 58.8932L68.1418 56.5964ZM75.9474 68.3972L80.2242 80.198L83.0358 80L78.4026 68.1596L81.0162 68.12L83.0358 65.3876V56.1608L80.6202 52.874H72.0666V80H75.1554L74.799 68.4764L75.9474 68.3972ZM74.3238 55.2896H78.7194L80.5014 57.3884L80.3826 63.8828L78.8778 65.3876L74.6802 65.546L74.3238 55.2896ZM96.9796 52.7552L86.7232 52.9928L87.3964 80H97.6528L97.8904 76.7924L89.9308 77.228L89.8516 65.15L94.762 64.8728L94.366 62.6948L89.812 63.2492L89.7724 55.8044L97.138 56.3588L96.9796 52.7552ZM110.592 52.7552L100.336 52.9928L101.009 80H111.265L111.503 76.7924L103.543 77.228L103.464 65.15L108.375 64.8728L107.979 62.6948L103.425 63.2492L103.385 55.8044L110.751 56.3588L110.592 52.7552ZM129.392 52.874L124.997 52.676L125.749 72.278L118.185 52.676H113.948L114.344 80.0396L118.067 79.9604L117.473 58.8536L125.591 79.9604H128.719L129.392 52.874ZM37.9353 92.478L33.6981 92.9532L30.2529 103.17L26.0553 92.7552L21.4221 92.9136L20.1153 119.96L23.9169 120.158L23.9565 97.9032L27.9561 107.645L30.8865 108.001L34.7277 98.4972L35.0445 119.881C35.0445 119.881 38.5689 119.881 39.2024 119.842L37.9353 92.478ZM44.7987 92.3592L40.6803 119.683L44.0067 119.881L45.9471 107.843L49.3131 107.605L51.4911 119.683L54.1443 119.96L49.1943 92.3592H44.7987ZM46.2639 106.1L47.6103 98.2992L49.0359 105.902L46.2639 106.1ZM60.962 108.397L65.2388 120.198L68.0504 120L63.4172 108.16L66.0308 108.12L68.0504 105.388V96.1608L65.6348 92.874H57.0812V120H60.17L59.8136 108.476L60.962 108.397ZM59.3384 95.2896H63.734L65.516 97.3884L65.3972 103.883L63.8924 105.388L59.6948 105.546L59.3384 95.2896ZM89.0827 96.5964L85.5583 93.1116L80.6875 92.3196L73.8367 95.2104L70.5499 105.665L73.0051 117.07L80.6083 120.634L89.6767 117.901L89.3995 108.793L88.0531 107.209L83.5387 106.892V110.615L86.7463 110.377L86.5483 115.723L81.0439 116.99L76.0939 113.862L73.8763 105.982L76.7671 97.23L83.1031 95.4084L86.7463 98.8932L89.0827 96.5964ZM95.3042 92.3592L91.1858 119.683L94.5122 119.881L96.4526 107.843L99.8186 107.605L101.997 119.683L104.65 119.96L99.6998 92.3592H95.3042ZM96.7694 106.1L98.1158 98.2992L99.5414 105.902L96.7694 106.1ZM111.467 108.397L115.744 120.198L118.556 120L113.923 108.16L116.536 108.12L118.556 105.388V96.1608L116.14 92.874H107.587V120H110.675L110.319 108.476L111.467 108.397ZM109.844 95.2896H114.239L116.021 97.3884L115.903 103.883L114.398 105.388L110.2 105.546L109.844 95.2896ZM130.005 95.4876L130.322 92.7552L121.055 92.9532L121.293 95.0124L123.907 95.1708L124.421 118.06L121.808 118.218L122.125 120.119L129.649 120.04L130.084 117.624L127.154 117.862L127.589 95.3688L130.005 95.4876ZM147.892 92.3988L132.171 93.3096L132.329 95.5272H138.388L137.873 120.277L141.279 119.802L142.467 95.5272L147.733 95.6064L147.892 92.3988ZM151.069 92.3592L146.951 119.683L150.277 119.881L152.217 107.843L155.583 107.605L157.761 119.683L160.415 119.96L155.465 92.3592H151.069ZM152.534 106.1L153.881 98.2992L155.306 105.902L152.534 106.1Z" fill="white"/>
</g>
<defs>
<clipPath id="clip0_873_1989">
<rect width="180" height="180" fill="white"/>
</clipPath>
</defs>
</svg>
