<svg width="180" height="180" viewBox="0 0 180 180" fill="none" xmlns="http://www.w3.org/2000/svg">
<g clip-path="url(#clip0_873_1974)">
<rect width="180" height="180" fill="#06451B"/>
<path d="M54.5002 87.3398C38.1002 70.5398 46.0002 48.6732 52.0002 39.8398H23C23 80.6398 44.0002 88.5065 54.5002 87.3398Z" fill="#26871B"/>
<path d="M126 87.3398C142.4 70.5398 134.5 48.6732 128.5 39.8398H157.5C157.5 80.6398 136.5 88.5065 126 87.3398Z" fill="#26871B"/>
<path d="M69.5 19.339C59.9 33.739 28.5 39.339 14 40.339C35.2 52.3384 74.5 49.006 91.5 45.8398V21.839C88.1667 15.0057 79.1 4.93903 69.5 19.339Z" fill="#26871B"/>
<path d="M113 19.339C122.6 33.739 154 39.339 168.5 40.339C147.3 52.3384 108 49.006 91 45.8398V21.839C94.3333 15.0057 103.4 4.93903 113 19.339Z" fill="#26871B"/>
<path d="M68.1418 56.5964L64.6174 53.1116L59.7467 52.3196L52.8959 55.2104L49.6091 65.6648L52.0643 77.0696L59.6674 80.6336L68.7358 77.9012L68.4586 68.7932L67.1122 67.2092L62.5978 66.8924V70.6148L65.8054 70.3772L65.6074 75.7232L60.1031 76.9904L55.1531 73.862L52.9355 65.9816L55.8263 57.23L62.1622 55.4084L65.8054 58.8932L68.1418 56.5964ZM75.9474 68.3972L80.2242 80.198L83.0358 80L78.4026 68.1596L81.0162 68.12L83.0358 65.3876V56.1608L80.6202 52.874H72.0666V80H75.1554L74.799 68.4764L75.9474 68.3972ZM74.3238 55.2896H78.7194L80.5014 57.3884L80.3826 63.8828L78.8778 65.3876L74.6802 65.546L74.3238 55.2896ZM96.9796 52.7552L86.7232 52.9928L87.3964 80H97.6528L97.8904 76.7924L89.9308 77.228L89.8516 65.15L94.762 64.8728L94.366 62.6948L89.812 63.2492L89.7724 55.8044L97.138 56.3588L96.9796 52.7552ZM110.592 52.7552L100.336 52.9928L101.009 80H111.265L111.503 76.7924L103.543 77.228L103.464 65.15L108.375 64.8728L107.979 62.6948L103.425 63.2492L103.385 55.8044L110.751 56.3588L110.592 52.7552ZM129.392 52.874L124.997 52.676L125.749 72.278L118.185 52.676H113.948L114.344 80.0396L118.067 79.9604L117.473 58.8536L125.591 79.9604H128.719L129.392 52.874ZM75.563 92.478L71.3258 92.9532L67.8806 103.17L63.683 92.7552L59.0498 92.9136L57.743 119.96L61.5446 120.158L61.5842 97.9032L65.5838 107.645L68.5142 108.001L72.3554 98.4972L72.6722 119.881C72.6722 119.881 76.1966 119.881 76.8302 119.842L75.563 92.478ZM82.4265 92.3592L78.3081 119.683L81.6345 119.881L83.5749 107.843L86.9409 107.605L89.1189 119.683L91.7721 119.96L86.8221 92.3592H82.4265ZM83.8917 106.1L85.2381 98.2992L86.6637 105.902L83.8917 106.1ZM98.5898 108.397L102.867 120.198L105.678 120L101.045 108.16L103.659 108.12L105.678 105.388V96.1608L103.263 92.874H94.709V120H97.7978L97.4414 108.476L98.5898 108.397ZM96.9662 95.2896H101.362L103.144 97.3884L103.025 103.883L101.52 105.388L97.3226 105.546L96.9662 95.2896ZM118.771 92.7156L114.732 102.853L109.901 92.874L106.535 93.072L113.346 106.457L113.504 119.96H117.623L117.227 106.536L122.929 92.9928L118.771 92.7156Z" fill="white"/>
<path d="M116 125.068C125.892 135.654 121.127 149.434 117.508 155L135 155C135 129.29 122.333 124.332 116 125.068Z" fill="#26871B"/>
<path d="M66 125.068C55.5874 135.654 60.6032 149.434 64.4127 155L46 155C46 129.29 59.3333 124.332 66 125.068Z" fill="#26871B"/>
<path d="M90 150.5C58 150.5 43.3333 154.833 40 157C47 161.167 66.8 169.5 90 169.5V150.5Z" fill="#26871B"/>
<path d="M90 150.5C122 150.5 136.667 154.833 140 157C133 161.167 113.2 169.5 90 169.5V150.5Z" fill="#26871B"/>
</g>
<defs>
<clipPath id="clip0_873_1974">
<rect width="180" height="180" fill="white"/>
</clipPath>
</defs>
</svg>
