<svg width="180" height="180" viewBox="0 0 180 180" fill="none" xmlns="http://www.w3.org/2000/svg">
<g clip-path="url(#clip0_874_2763)">
<rect width="180" height="180" fill="#713FFF"/>
<path d="M52.2467 122.511L62.9851 159.708L64.2273 169.196L96.9221 164.916L129.617 160.636L128.375 151.148L129.176 112.44L132.277 106.243L133.262 54L83.2582 60.5464L33.2544 67.0928L47.655 117.322L52.2467 122.511Z" fill="#511AC0"/>
<path d="M126.523 5.72864L81.0523 20.1081C85.0194 25.1281 96.0851 33.8775 108.611 28.7157C121.137 23.5539 125.771 11.2403 126.523 5.72864Z" fill="#FFB26A"/>
<path d="M107.904 56.4846L47.4444 12.7915C44.8397 22.4547 44.1711 44.5101 62.3341 55.4271C80.4972 66.344 100.282 60.6808 107.904 56.4846Z" fill="#FFB26A"/>
<path d="M72.9315 77.9604L69.7631 74.8276L65.3843 74.1156L59.2255 76.7144L56.2707 86.1128L58.4779 96.3656L65.3131 99.5696L73.4655 97.1132L73.2163 88.9252L72.0059 87.5012L67.9475 87.2164V90.5628L70.8311 90.3492L70.6531 95.1552L65.7047 96.2944L61.2547 93.482L59.2611 86.3976L61.8599 78.53L67.5559 76.8924L70.8311 80.0252L72.9315 77.9604ZM79.9486 88.5692L83.7934 99.178L86.321 99L82.1558 88.3556L84.5054 88.32L86.321 85.8636V77.5688L84.1494 74.614H76.4598V99H79.2366L78.9162 88.6404L79.9486 88.5692ZM78.489 76.7856H82.4406L84.0426 78.6724L83.9358 84.5108L82.583 85.8636L78.8094 86.006L78.489 76.7856ZM104.837 80.9508L100.387 74.6852L94.1216 74.258L88.5324 80.5948L88.8172 92.9836L93.374 99.178L99.3904 99.1068L104.161 92.8412L104.837 80.9508ZM100.886 92.3784L97.9664 96.5436L94.5132 96.4368L91.9144 92.414L91.3448 82.7308L95.688 76.9636L98.358 77.0704L101.099 80.5948L100.886 92.3784ZM123.585 77.9604L120.417 74.8276L116.038 74.1156L109.879 76.7144L106.924 86.1128L109.131 96.3656L115.967 99.5696L124.119 97.1132L123.87 88.9252L122.659 87.5012L118.601 87.2164V90.5628L121.485 90.3492L121.307 95.1552L116.358 96.2944L111.908 93.482L109.915 86.3976L112.513 78.53L118.209 76.8924L121.485 80.0252L123.585 77.9604Z" fill="white"/>
</g>
<defs>
<clipPath id="clip0_874_2763">
<rect width="180" height="180" fill="white"/>
</clipPath>
</defs>
</svg>
