<svg width="180" height="180" viewBox="0 0 180 180" fill="none" xmlns="http://www.w3.org/2000/svg">
<g clip-path="url(#clip0_874_2533)">
<rect width="180" height="180" fill="#FF843F"/>
<path d="M50.1884 103.366C57.2429 96.8487 61.698 91.9446 65.1927 87.7404C70.4115 88.6968 87.6394 95.201 82.5002 97.5003C76.0763 100.374 72.058 97.1795 61.4998 109.5C50.9417 121.82 41.3702 111.513 50.1884 103.366Z" fill="#C62E2E"/>
<path d="M84.4158 44.6083C80.1243 38.4818 74.9955 27.0941 79.6443 18.4502C84.8644 5.92924 90.4996 14.5001 90.5 17.5003C90.5003 20.5004 93.4746 31.3397 95.4633 35.5002C97.4521 39.6607 100.727 46.3787 112.947 49.1871C122.723 51.4338 178.055 31.121 188 31.5003L202 76.5003C176.883 69.6868 105.487 83.114 95.4633 88.1455L88.001 66.0913C88.5941 61.483 88.7073 50.7348 84.4158 44.6083Z" fill="#C62E2E"/>
<path d="M56.3408 65.1059L52.1888 48.7429C40.0473 47.4696 30.8585 54.1554 34.6223 64.0857C37.6334 72.0299 50.3559 68.0759 56.3408 65.1059Z" fill="#C62E2E"/>
<path d="M62.1758 74.9805L53.0024 62.9097C42.2448 66.3245 36.7421 75.2669 43.3664 82.134C48.6658 87.6278 58.1141 79.654 62.1758 74.9805Z" fill="#C62E2E"/>
<path d="M65.7807 89.0665L57.5095 78.1827C47.8098 81.2617 42.8482 89.3247 48.8211 95.5165C53.5994 100.47 62.1185 93.2804 65.7807 89.0665Z" fill="#C62E2E"/>
<path d="M94.8037 114.425C94.8037 114.425 98.3609 99.9321 99.9176 88.4823C102.795 67.3695 72.9984 21.4475 72.9984 21.4475L45.6822 31.6361C45.6822 31.6361 53.2367 85.8541 69.2373 99.9257C77.912 107.559 90.0911 116.182 90.0911 116.182L106.99 160.214L90.0202 170.759L91.0502 173.521L131.628 158.386L130.598 155.624L110.868 158.768L94.8037 114.425Z" fill="#7452D2"/>
<path d="M44.0971 69.9912L51.4153 83.2689C62.5554 81.4567 69.3015 73.4107 63.7475 65.6523C59.3044 59.4456 48.7959 65.9588 44.0971 69.9912Z" fill="#C62E2E"/>
<path d="M52.8527 82.6129L58.4996 92.8583C67.0957 91.4599 72.3012 85.2514 68.0156 79.2648C64.5871 74.4755 56.4785 79.5013 52.8527 82.6129Z" fill="#C62E2E"/>
<path d="M24.9218 99.0712H26.6662L26.3102 85.5432H30.689L30.9026 99.0712H33.7506L32.8962 74.4004H30.5466L30.689 83.7988L26.2746 84.1192L26.0254 74.4004H23.9606L24.9218 99.0712ZM40.0707 74.1512L36.3683 98.7152L39.3587 98.8932L41.1031 88.0708L44.1291 87.8572L46.0871 98.7152L48.4723 98.9644L44.0223 74.1512H40.0707ZM41.3879 86.5044L42.5983 79.4912L43.8799 86.3264L41.3879 86.5044ZM64.9966 74.614L61.045 74.436L61.7214 92.058L54.9218 74.436H51.1126L51.4686 99.0356L54.815 98.9644L54.281 79.9896L61.579 98.9644H64.3914L64.9966 74.614ZM69.7586 99.178L80.6166 98.7864L85.3158 93.2328L85.8498 81.9832L80.047 74.8988L69.2602 74.5072L69.7586 99.178ZM81.0082 91.702L78.3738 95.7248L72.9982 95.9384L73.3186 77.3908L78.089 77.2484L81.6846 83.2292L81.0082 91.702ZM97.716 74.4004L96.9684 99H105.797L108.432 96.9352V87.2164L105.441 84.938L108.218 78.2096L106.011 74.5072L97.716 74.4004ZM106.509 88.6048L106.331 95.2264L104.231 96.7572L100.813 96.4368L100.849 87.2164L104.124 86.6824L106.509 88.6048ZM102.842 84.8312L100.849 85.2228L100.884 76.6432L104.088 76.6076L105.406 78.5656L102.842 84.8312ZM120.79 74.5072L111.57 74.7208L112.175 99H121.396L121.609 96.1164L114.454 96.508L114.382 85.65L118.797 85.4008L118.441 83.4428L114.347 83.9412L114.311 77.2484L120.933 77.7468L120.79 74.5072ZM137.691 74.614L133.74 74.436L134.416 92.058L127.617 74.436H123.807L124.163 99.0356L127.51 98.9644L126.976 79.9896L134.274 98.9644H137.086L137.691 74.614ZM157.156 80.9508L152.706 74.6852L146.441 74.258L140.852 80.5948L141.136 92.9836L145.693 99.178L151.71 99.1068L156.48 92.8412L157.156 80.9508ZM153.205 92.3784L150.286 96.5436L146.832 96.4368L144.234 92.414L143.664 82.7308L148.007 76.9636L150.677 77.0704L153.418 80.5948L153.205 92.3784Z" fill="white"/>
</g>
<defs>
<clipPath id="clip0_874_2533">
<rect width="180" height="180" fill="white"/>
</clipPath>
</defs>
</svg>
