<svg width="180" height="180" viewBox="0 0 180 180" fill="none" xmlns="http://www.w3.org/2000/svg">
<g clip-path="url(#clip0_874_2533)">
<rect width="180" height="180" fill="#FF843F"/>
<path d="M50.1884 103.366C57.2429 96.8487 61.698 91.9446 65.1927 87.7404C70.4115 88.6968 87.6394 95.201 82.5002 97.5003C76.0763 100.374 72.058 97.1795 61.4998 109.5C50.9417 121.82 41.3702 111.513 50.1884 103.366Z" fill="#C62E2E"/>
<path d="M84.4158 44.6083C80.1243 38.4818 74.9955 27.0941 79.6443 18.4502C84.8644 5.92924 90.4996 14.5001 90.5 17.5003C90.5003 20.5004 93.4746 31.3397 95.4633 35.5002C97.4521 39.6607 100.727 46.3787 112.947 49.1871C122.723 51.4338 178.055 31.121 188 31.5003L202 76.5003C176.883 69.6868 105.487 83.114 95.4633 88.1455L88.001 66.0913C88.5941 61.483 88.7073 50.7348 84.4158 44.6083Z" fill="#C62E2E"/>
<path d="M56.3408 65.1059L52.1888 48.7429C40.0473 47.4696 30.8585 54.1554 34.6223 64.0857C37.6334 72.0299 50.3559 68.0759 56.3408 65.1059Z" fill="#C62E2E"/>
<path d="M62.1758 74.9805L53.0024 62.9097C42.2448 66.3245 36.7421 75.2669 43.3664 82.134C48.6658 87.6278 58.1141 79.654 62.1758 74.9805Z" fill="#C62E2E"/>
<path d="M65.7807 89.0665L57.5095 78.1827C47.8098 81.2617 42.8482 89.3247 48.8211 95.5165C53.5994 100.47 62.1185 93.2804 65.7807 89.0665Z" fill="#C62E2E"/>
<path d="M94.8037 114.425C94.8037 114.425 98.3609 99.9321 99.9176 88.4823C102.795 67.3695 72.9984 21.4475 72.9984 21.4475L45.6822 31.6361C45.6822 31.6361 53.2367 85.8541 69.2373 99.9257C77.912 107.559 90.0911 116.182 90.0911 116.182L106.99 160.214L90.0202 170.759L91.0502 173.521L131.628 158.386L130.598 155.624L110.868 158.768L94.8037 114.425Z" fill="#7452D2"/>
<path d="M44.0971 69.9912L51.4153 83.2689C62.5554 81.4567 69.3015 73.4107 63.7475 65.6523C59.3044 59.4456 48.7959 65.9588 44.0971 69.9912Z" fill="#C62E2E"/>
<path d="M52.8527 82.6129L58.4996 92.8583C67.0957 91.4599 72.3012 85.2514 68.0156 79.2648C64.5871 74.4755 56.4785 79.5013 52.8527 82.6129Z" fill="#C62E2E"/>
<path d="M46.2768 59.8536C48.1992 59.8536 50.5132 60.4944 50.5132 63.022C50.5132 65.336 48.8044 67.8636 45.9564 67.8636L46.2768 59.8536ZM42.9304 56.4004C42.0048 77.5824 41.9692 80.822 41.9692 81.1068L45.3156 81.3204C49.2316 81.3204 53.1832 79.4692 53.1832 74.8412C53.1832 71.9576 51.51 69.3944 48.484 68.896C51.8304 68.006 53.0052 65.3716 53.0052 62.9508C53.0052 58.2872 48.9824 56.0444 42.9304 56.4004ZM45.9564 70.1064C48.6264 70.1064 50.442 71.6728 50.442 74.6276C50.442 77.1908 48.7332 78.7216 46.1344 78.7216C45.992 78.7216 45.814 78.686 45.636 78.686L45.9564 70.1064ZM65.5478 56.5072L56.3274 56.7208L56.9326 81H66.153L66.3666 78.1164L59.211 78.508L59.1398 67.65L63.5542 67.4008L63.1982 65.4428L59.1042 65.9412L59.0686 59.2484L65.6902 59.7468L65.5478 56.5072ZM82.4489 56.614L78.4973 56.436L79.1737 74.058L72.3741 56.436H68.5649L68.9209 81.0356L72.2673 80.9644L71.7333 61.9896L79.0313 80.9644H81.8437L82.4489 56.614ZM95.933 56.4716L92.3018 65.5852L87.9586 56.614L84.9326 56.792L91.0558 68.8248L91.1982 80.9644H94.9006L94.5446 68.896L99.671 56.7208L95.933 56.4716ZM116.237 62.9508L111.787 56.6852L105.522 56.258L99.9324 62.5948L100.217 74.9836L104.774 81.178L110.79 81.1068L115.561 74.8412L116.237 62.9508ZM112.286 74.3784L109.366 78.5436L105.913 78.4368L103.314 74.414L102.745 64.7308L107.088 58.9636L109.758 59.0704L112.499 62.5948L112.286 74.3784ZM120.674 54.6916L120.389 61.954H121.991L124.519 55.0476L120.674 54.6916ZM131.029 58.5008L135.479 60.7436L137.437 58.2872L133.628 56.1156L127.647 57.2904L126.294 64.1256L135.728 72.99L134.411 78.5436L130.281 78.152L128.074 74.8412L125.902 77.5468L128.822 80.9288L136.618 81.0356L139.252 71.8864L129.213 62.6304L131.029 58.5008ZM60.574 117.071H62.3184L61.9624 103.543H66.3412L66.5548 117.071H69.4028L68.5484 92.4004H66.1988L66.3412 101.799L61.9268 102.119L61.6776 92.4004H59.6128L60.574 117.071ZM75.7229 92.1512L72.0205 116.715L75.0109 116.893L76.7553 106.071L79.7813 105.857L81.7393 116.715L84.1245 116.964L79.6745 92.1512H75.7229ZM77.0401 104.504L78.2505 97.4912L79.5321 104.326L77.0401 104.504ZM100.649 92.614L96.6971 92.436L97.3735 110.058L90.5739 92.436H86.7647L87.1207 117.036L90.4671 116.964L89.9331 97.9896L97.2311 116.964H100.044L100.649 92.614ZM105.411 117.178L116.269 116.786L120.968 111.233L121.502 99.9832L115.699 92.8988L104.912 92.5072L105.411 117.178ZM116.66 109.702L114.026 113.725L108.65 113.938L108.971 95.3908L113.741 95.2484L117.337 101.229L116.66 109.702Z" fill="white"/>
</g>
<defs>
<clipPath id="clip0_874_2533">
<rect width="180" height="180" fill="white"/>
</clipPath>
</defs>
</svg>
