<svg width="180" height="180" viewBox="0 0 180 180" fill="none" xmlns="http://www.w3.org/2000/svg">
<g clip-path="url(#clip0_874_2567)">
<rect width="180" height="180" fill="#D76950"/>
<path d="M167.235 99.1763C167.235 122.827 148.063 142 124.412 142C100.761 142 81.5884 122.827 81.5884 99.1763C81.5884 75.5255 100.761 66.2939 124.412 66.2939C148.063 66.2939 167.235 75.5255 167.235 99.1763Z" fill="#C62E2E"/>
<path d="M97.6471 99.1763C97.6471 122.827 78.4743 142 54.8235 142C31.1727 142 12 122.827 12 99.1763C12 75.5255 31.1727 66.2939 54.8235 66.2939C78.4743 66.2939 97.6471 75.5255 97.6471 99.1763Z" fill="#9E2828"/>
<path d="M116.765 25.5712C95.9648 20.3712 72.4118 51.9536 63.2354 68.3947C97.4942 34.7476 109.628 34.2379 111.412 38.1889C109.118 49.2772 112.304 60.238 116.765 64.9536C113.094 57.0007 120.588 43.7968 124.794 38.1889L116.765 25.5712Z" fill="#148D3D"/>
<path d="M23.7271 81L23.4423 56.5784H19.5263L19.4195 65.6564L8.95313 65.4428L9.02433 56.5784H6.24753L6.24753 81H8.81073L8.91753 67.3652H19.4195L19.2771 81H23.7271ZM37.2312 56.5072L28.0108 56.7208L28.616 81H37.8364L38.05 78.1164L30.8944 78.508L30.8232 67.65L35.2376 67.4008L34.8816 65.4428L30.7876 65.9412L30.752 59.2484L37.3736 59.7468L37.2312 56.5072ZM40.7467 81.178L51.6047 80.7864L56.3039 75.2328L56.8379 63.9832L51.0351 56.8988L40.2483 56.5072L40.7467 81.178ZM51.9963 73.702L49.3619 77.7248L43.9863 77.9384L44.3067 59.3908L49.0771 59.2484L52.6727 65.2292L51.9963 73.702ZM75.588 59.9604L72.4196 56.8276L68.0408 56.1156L61.882 58.7144L58.9272 68.1128L61.1344 78.3656L67.9696 81.5696L76.122 79.1132L75.8728 70.9252L74.6624 69.5012L70.604 69.2164V72.5628L73.4876 72.3492L73.3096 77.1552L68.3612 78.2944L63.9112 75.482L61.9176 68.3976L64.5164 60.53L70.2124 58.8924L73.4876 62.0252L75.588 59.9604ZM88.3367 56.5072L79.1163 56.7208L79.7215 81H88.9419L89.1555 78.1164L81.9999 78.508L81.9287 67.65L86.3431 67.4008L85.9871 65.4428L81.8931 65.9412L81.8575 59.2484L88.4791 59.7468L88.3367 56.5072ZM92.315 81.0712H94.0594L93.7034 67.5432H98.0822L98.2958 81.0712H101.144L100.289 56.4004H97.9398L98.0822 65.7988L93.6678 66.1192L93.4186 56.4004H91.3538L92.315 81.0712ZM120.6 62.9508L116.15 56.6852L109.885 56.258L104.295 62.5948L104.58 74.9836L109.137 81.178L115.153 81.1068L119.924 74.8412L120.6 62.9508ZM116.649 74.3784L113.729 78.5436L110.276 78.4368L107.677 74.414L107.108 64.7308L111.451 58.9636L114.121 59.0704L116.862 62.5948L116.649 74.3784ZM139.348 59.9604L136.18 56.8276L131.801 56.1156L125.642 58.7144L122.687 68.1128L124.895 78.3656L131.73 81.5696L139.882 79.1132L139.633 70.9252L138.423 69.5012L134.364 69.2164V72.5628L137.248 72.3492L137.07 77.1552L132.121 78.2944L127.671 75.482L125.678 68.3976L128.277 60.53L133.973 58.8924L137.248 62.0252L139.348 59.9604ZM152.097 56.5072L142.876 56.7208L143.482 81H152.702L152.916 78.1164L145.76 78.508L145.689 67.65L150.103 67.4008L149.747 65.4428L145.653 65.9412L145.618 59.2484L152.239 59.7468L152.097 56.5072ZM156.396 54.6916L156.111 61.954H157.713L160.24 55.0476L156.396 54.6916ZM166.75 58.5008L171.2 60.7436L173.158 58.2872L169.349 56.1156L163.368 57.2904L162.016 64.1256L171.45 72.99L170.132 78.5436L166.003 78.152L163.796 74.8412L161.624 77.5468L164.543 80.9288L172.34 81.0356L174.974 71.8864L164.935 62.6304L166.75 58.5008ZM72.9069 92.1512L69.2045 116.715L72.1949 116.893L73.9393 106.071L76.9653 105.857L78.9233 116.715L81.3085 116.964L76.8585 92.1512H72.9069ZM74.2241 104.504L75.4345 97.4912L76.7161 104.326L74.2241 104.504ZM87.9715 94.5008L92.4215 96.7436L94.3795 94.2872L90.5703 92.1156L84.5895 93.2904L83.2367 100.126L92.6707 108.99L91.3535 114.544L87.2239 114.152L85.0167 110.841L82.8451 113.547L85.7643 116.929L93.5607 117.036L96.1951 107.886L86.1559 98.6304L87.9715 94.5008ZM102.156 94.5008L106.606 96.7436L108.564 94.2872L104.755 92.1156L98.7739 93.2904L97.4211 100.126L106.855 108.99L105.538 114.544L101.408 114.152L99.2011 110.841L97.0295 113.547L99.9487 116.929L107.745 117.036L110.379 107.886L100.34 98.6304L102.156 94.5008Z" fill="white"/>
</g>
<defs>
<clipPath id="clip0_874_2567">
<rect width="180" height="180" fill="white"/>
</clipPath>
</defs>
</svg>
