<svg width="180" height="180" viewBox="0 0 180 180" fill="none" xmlns="http://www.w3.org/2000/svg">
<g clip-path="url(#clip0_874_2567)">
<rect width="180" height="180" fill="#D76950"/>
<path d="M167.235 99.1763C167.235 122.827 148.063 142 124.412 142C100.761 142 81.5884 122.827 81.5884 99.1763C81.5884 75.5255 100.761 66.2939 124.412 66.2939C148.063 66.2939 167.235 75.5255 167.235 99.1763Z" fill="#C62E2E"/>
<path d="M97.6471 99.1763C97.6471 122.827 78.4743 142 54.8235 142C31.1727 142 12 122.827 12 99.1763C12 75.5255 31.1727 66.2939 54.8235 66.2939C78.4743 66.2939 97.6471 75.5255 97.6471 99.1763Z" fill="#9E2828"/>
<path d="M116.765 25.5712C95.9648 20.3712 72.4118 51.9536 63.2354 68.3947C97.4942 34.7476 109.628 34.2379 111.412 38.1889C109.118 49.2772 112.304 60.238 116.765 64.9536C113.094 57.0007 120.588 43.7968 124.794 38.1889L116.765 25.5712Z" fill="#148D3D"/>
<path d="M3.36713 99.0712H5.11153L4.75553 85.5432H9.13433L9.34793 99.0712H12.1959L11.3415 74.4004H8.99193L9.13433 83.7988L4.71993 84.1192L4.47073 74.4004H2.40593L3.36713 99.0712ZM25.6716 74.5072L16.4512 74.7208L17.0564 99H26.2768L26.4904 96.1164L19.3348 96.508L19.2636 85.65L23.678 85.4008L23.322 83.4428L19.228 83.9412L19.1924 77.2484L25.814 77.7468L25.6716 74.5072ZM29.1871 99.178L40.0451 98.7864L44.7443 93.2328L45.2783 81.9832L39.4755 74.8988L28.6887 74.5072L29.1871 99.178ZM40.4367 91.702L37.8023 95.7248L32.4267 95.9384L32.7471 77.3908L37.5175 77.2484L41.1131 83.2292L40.4367 91.702ZM64.0284 77.9604L60.86 74.8276L56.4812 74.1156L50.3224 76.7144L47.3676 86.1128L49.5748 96.3656L56.41 99.5696L64.5624 97.1132L64.3132 88.9252L63.1028 87.5012L59.0444 87.2164V90.5628L61.928 90.3492L61.75 95.1552L56.8016 96.2944L52.3516 93.482L50.358 86.3976L52.9568 78.53L58.6528 76.8924L61.928 80.0252L64.0284 77.9604ZM76.7771 74.5072L67.5567 74.7208L68.1619 99H77.3823L77.5959 96.1164L70.4403 96.508L70.3691 85.65L74.7835 85.4008L74.4275 83.4428L70.3335 83.9412L70.2979 77.2484L76.9195 77.7468L76.7771 74.5072ZM80.7554 99.0712H82.4998L82.1438 85.5432H86.5226L86.7362 99.0712H89.5842L88.7298 74.4004H86.3802L86.5226 83.7988L82.1082 84.1192L81.859 74.4004H79.7942L80.7554 99.0712ZM109.041 80.9508L104.591 74.6852L98.3251 74.258L92.7359 80.5948L93.0207 92.9836L97.5775 99.178L103.594 99.1068L108.364 92.8412L109.041 80.9508ZM105.089 92.3784L102.17 96.5436L98.7167 96.4368L96.1179 92.414L95.5483 82.7308L99.8915 76.9636L102.562 77.0704L105.303 80.5948L105.089 92.3784ZM127.789 77.9604L124.62 74.8276L120.241 74.1156L114.083 76.7144L111.128 86.1128L113.335 96.3656L120.17 99.5696L128.323 97.1132L128.073 88.9252L126.863 87.5012L122.805 87.2164V90.5628L125.688 90.3492L125.51 95.1552L120.562 96.2944L116.112 93.482L114.118 86.3976L116.717 78.53L122.413 76.8924L125.688 80.0252L127.789 77.9604ZM141.343 74.1512L137.641 98.7152L140.631 98.8932L142.375 88.0708L145.401 87.8572L147.359 98.7152L149.745 98.9644L145.295 74.1512H141.343ZM142.66 86.5044L143.871 79.4912L145.152 86.3264L142.66 86.5044ZM156.408 76.5008L160.858 78.7436L162.816 76.2872L159.006 74.1156L153.026 75.2904L151.673 82.1256L161.107 90.99L159.79 96.5436L155.66 96.152L153.453 92.8412L151.281 95.5468L154.2 98.9288L161.997 99.0356L164.631 89.8864L154.592 80.6304L156.408 76.5008ZM170.592 76.5008L175.042 78.7436L177 76.2872L173.191 74.1156L167.21 75.2904L165.857 82.1256L175.291 90.99L173.974 96.5436L169.844 96.152L167.637 92.8412L165.466 95.5468L168.385 98.9288L176.181 99.0356L178.816 89.8864L168.776 80.6304L170.592 76.5008Z" fill="white"/>
</g>
<defs>
<clipPath id="clip0_874_2567">
<rect width="180" height="180" fill="white"/>
</clipPath>
</defs>
</svg>
