<svg width="180" height="180" viewBox="0 0 180 180" fill="none" xmlns="http://www.w3.org/2000/svg">
<g clip-path="url(#clip0_874_2377)">
<rect width="180" height="180" fill="#477F83"/>
<path d="M131.633 115.569C114.219 142.783 80.4133 144.53 51.8032 126.224C23.1931 107.917 10.6129 76.4907 28.0262 49.2762C45.4394 22.0617 82.7487 14.8401 111.359 33.1464C139.969 51.4526 149.046 88.3544 131.633 115.569Z" fill="#3D3535"/>
<path d="M124.376 106.907C109.775 129.727 81.428 131.191 57.4378 115.841C33.4477 100.491 22.899 74.139 37.5004 51.3191C52.1017 28.4992 83.3863 22.4438 107.377 37.7939C131.367 53.1441 138.978 84.087 124.376 106.907Z" fill="#544B4B"/>
<path d="M144.5 162.5C141.7 151.7 125.667 134.667 118 127.5C118.833 120.5 120.8 108.8 122 118C123.5 129.5 154 150 158 156C162 162 148 176 144.5 162.5Z" fill="#3D3535"/>
<path d="M83.2459 81L82.9611 56.5784H79.0451L78.9383 65.6564L68.4719 65.4428L68.5431 56.5784H65.7663V81H68.3295L68.4363 67.3652H78.9383L78.7959 81H83.2459ZM102.731 62.9508L98.2808 56.6852L92.0152 56.258L86.426 62.5948L86.7108 74.9836L91.2676 81.178L97.284 81.1068L102.054 74.8412L102.731 62.9508ZM98.7792 74.3784L95.86 78.5436L92.4068 78.4368L89.808 74.414L89.2384 64.7308L93.5816 58.9636L96.2516 59.0704L98.9928 62.5948L98.7792 74.3784ZM116.254 56.1868L102.121 57.0056L102.263 58.9992H107.71L107.247 81.2492L110.309 80.822L111.377 58.9992L116.112 59.0704L116.254 56.1868ZM61.6314 92.5784L47.7474 93.3616L47.8898 95.284H53.123L52.6958 117L55.8998 116.608L56.9678 95.284L61.5246 95.3552L61.6314 92.5784ZM79.0901 98.9508L74.6401 92.6852L68.3745 92.258L62.7853 98.5948L63.0701 110.984L67.6269 117.178L73.6433 117.107L78.4137 110.841L79.0901 98.9508ZM75.1385 110.378L72.2193 114.544L68.7661 114.437L66.1673 110.414L65.5977 100.731L69.9409 94.9636L72.6109 95.0704L75.3521 98.5948L75.1385 110.378ZM82.7436 117.178L93.6016 116.786L98.3008 111.233L98.8348 99.9832L93.032 92.8988L82.2452 92.5072L82.7436 117.178ZM93.9932 109.702L91.3588 113.725L85.9832 113.938L86.3036 95.3908L91.074 95.2484L94.6696 101.229L93.9932 109.702ZM102.49 117.178L113.348 116.786L118.048 111.233L118.582 99.9832L112.779 92.8988L101.992 92.5072L102.49 117.178ZM113.74 109.702L111.106 113.725L105.73 113.938L106.05 95.3908L110.821 95.2484L114.416 101.229L113.74 109.702ZM128.352 92.4716L124.721 101.585L120.378 92.614L117.352 92.792L123.475 104.825L123.617 116.964H127.32L126.964 104.896L132.09 92.7208L128.352 92.4716Z" fill="white"/>
</g>
<defs>
<clipPath id="clip0_874_2377">
<rect width="180" height="180" fill="white"/>
</clipPath>
</defs>
</svg>
