<svg width="180" height="180" viewBox="0 0 180 180" fill="none" xmlns="http://www.w3.org/2000/svg">
<g clip-path="url(#clip0_874_2685)">
<rect width="180" height="180" fill="#CC4163"/>
<path d="M93.0984 168.222L58 76.3773L149.214 54.2736L151.902 78.5182L152.044 78.4836C159.621 73.0267 165.441 75.1622 168.281 76.9079C175.423 81.4425 179.064 93.2862 176.841 105.123C174.854 115.626 166.956 124.993 157.462 128.21L160.11 152.043L140.026 175.15L145.418 197.403L174.435 196.005L175.686 201.171L101.796 219.077L100.544 213.911L126.981 201.87L121.589 179.618L93.0984 168.222ZM169.629 103.731C171.237 95.1528 168.87 85.8851 164.341 83.0311C163.538 82.5198 161.059 80.957 156.391 84.3268C155.18 85.1911 154.033 86.13 152.918 87.0764L156.64 120.641C159.951 118.997 162.839 116.618 165.082 113.688C167.324 110.758 168.861 107.356 169.572 103.745L169.629 103.731Z" fill="#8E1D39"/>
<path d="M33.0317 139.215C28.0793 137.58 6.2091 103.195 -4.10696 86.2062C-7.17488 81.206 48.7116 31.5799 77.0383 7.39186C91.9563 22.1843 121.577 52.9582 120.718 57.7144C119.858 62.4705 61.9023 114.03 33.0317 139.215Z" fill="#FF843F"/>
<path d="M41.5776 81.0712H43.322L42.966 67.5432H47.3448L47.5584 81.0712H50.4064L49.552 56.4004H47.2024L47.3448 65.7988L42.9304 66.1192L42.6812 56.4004H40.6164L41.5776 81.0712ZM69.8629 62.9508L65.4129 56.6852L59.1473 56.258L53.5581 62.5948L53.8429 74.9836L58.3997 81.178L64.4161 81.1068L69.1865 74.8412L69.8629 62.9508ZM65.9113 74.3784L62.9921 78.5436L59.5389 78.4368L56.9401 74.414L56.3705 64.7308L60.7137 58.9636L63.3837 59.0704L66.1249 62.5948L65.9113 74.3784ZM83.3862 56.1868L69.253 57.0056L69.3954 58.9992H74.8422L74.3794 81.2492L77.441 80.822L78.509 58.9992L83.2438 59.0704L83.3862 56.1868ZM97.088 70.5692L100.933 81.178L103.46 81L99.2952 70.3556L101.645 70.32L103.46 67.8636V59.5688L101.289 56.614H93.5992V81H96.376L96.0556 70.6404L97.088 70.5692ZM95.6284 58.7856H99.58L101.182 60.6724L101.075 66.5108L99.7224 67.8636L95.9488 68.006L95.6284 58.7856ZM117.811 73.4884L116.138 77.4044L111.581 77.796L109.054 73.5596L109.73 56.4004L106.17 56.1868L105.814 75.6244L109.232 80.9288L117.883 81.1424L121.087 76.016L121.727 56.4004L117.384 56.5784L117.811 73.4884ZM139.73 56.258L135.921 56.6852L132.824 65.87L129.05 56.5072L124.885 56.6496L123.71 80.9644L127.128 81.1424L127.163 61.1352L130.759 69.8928L133.393 70.2132L136.847 61.6692L137.131 80.8932C137.131 80.8932 140.3 80.8932 140.869 80.8576L139.73 56.258ZM22.2356 107.708L25.1192 116.964L28.5724 117.071L33.3072 92.614L28.8216 92.5428L26.5432 112.158L23.0188 102.155L21.5948 102.333L17.2872 113.725L14.5104 92.5428L10.9148 92.3648L15.3648 117.107L18.6756 117L22.2356 107.708ZM43.2657 94.9636L43.5505 92.5072L35.2201 92.6852L35.4337 94.5364L37.7833 94.6788L38.2461 115.256L35.8965 115.398L36.1813 117.107L42.9453 117.036L43.3369 114.864L40.7025 115.078L41.0941 94.8568L43.2657 94.9636ZM59.3458 92.1868L45.2126 93.0056L45.355 94.9992H50.8018L50.339 117.249L53.4006 116.822L54.4686 94.9992L59.2034 95.0704L59.3458 92.1868ZM62.5587 117.071H64.3031L63.9471 103.543H68.3259L68.5395 117.071H71.3875L70.5331 92.4004H68.1835L68.3259 101.799L63.9115 102.119L63.6623 92.4004H61.5975L62.5587 117.071ZM84.3517 92.4004L83.6041 117H92.4329L95.0673 114.935V105.216L92.0769 102.938L94.8537 96.2096L92.6465 92.5072L84.3517 92.4004ZM93.1449 106.605L92.9669 113.226L90.8665 114.757L87.4489 114.437L87.4845 105.216L90.7597 104.682L93.1449 106.605ZM89.4781 102.831L87.4845 103.223L87.5201 94.6432L90.7241 94.6076L92.0413 96.5656L89.4781 102.831ZM109.242 109.488L107.568 113.404L103.012 113.796L100.484 109.56L101.16 92.4004L97.6005 92.1868L97.2445 111.624L100.662 116.929L109.313 117.142L112.517 112.016L113.158 92.4004L108.814 92.5784L109.242 109.488ZM128.668 92.1868L114.535 93.0056L114.678 94.9992H120.124L119.662 117.249L122.723 116.822L123.791 94.9992L128.526 95.0704L128.668 92.1868ZM144.626 92.1868L130.493 93.0056L130.635 94.9992H136.082L135.619 117.249L138.681 116.822L139.749 94.9992L144.483 95.0704L144.626 92.1868ZM156.098 92.5072L146.878 92.7208L147.483 117H156.703L156.917 114.116L149.761 114.508L149.69 103.65L154.104 103.401L153.748 101.443L149.654 101.941L149.619 95.2484L156.24 95.7468L156.098 92.5072ZM162.604 106.569L166.449 117.178L168.976 117L164.811 106.356L167.161 106.32L168.976 103.864V95.5688L166.805 92.614H159.115V117H161.892L161.571 106.64L162.604 106.569ZM161.144 94.7856H165.096L166.698 96.6724L166.591 102.511L165.238 103.864L161.465 104.006L161.144 94.7856Z" fill="white"/>
</g>
<defs>
<clipPath id="clip0_874_2685">
<rect width="180" height="180" fill="white"/>
</clipPath>
</defs>
</svg>
