<svg width="180" height="180" viewBox="0 0 180 180" fill="none" xmlns="http://www.w3.org/2000/svg">
<g clip-path="url(#clip0_874_2776)">
<rect width="180" height="180" fill="#1F6981"/>
<path d="M53.7186 131.5C32.5186 171.9 50.8853 189 62.7186 192.5L217.219 201C216.552 194.167 214.619 178.3 212.219 169.5C209.219 158.5 203.219 89.5 196.719 66C191.519 47.2 175.885 32.8333 168.719 28C177.219 36.5 178.719 72.5 153.219 66C132.819 60.8 131.052 18.5 132.719 -2C123.219 8.83333 107.119 39.7 118.719 76.5C133.219 122.5 68.2188 145.5 78.7188 117.5C87.1188 95.1 75.2188 73.8333 68.2188 66C72.2187 71 74.9186 91.1 53.7186 131.5Z" fill="#E0204E"/>
<path d="M24.4092 100.079H26.3496L25.9536 85.0312H30.8244L31.062 100.079H34.23L33.2796 72.6364H30.666L30.8244 83.0908L25.914 83.4472L25.6368 72.6364H23.34L24.4092 100.079ZM55.8727 79.9228L50.9227 72.9532L43.9531 72.478L37.7359 79.5268L38.0527 93.3076L43.1215 100.198L49.8139 100.119L55.1203 93.1492L55.8727 79.9228ZM51.4771 92.6344L48.2299 97.2676L44.3887 97.1488L41.4979 92.674L40.8643 81.9028L45.6955 75.4876L48.6655 75.6064L51.7147 79.5268L51.4771 92.6344ZM70.9154 72.3988L55.1942 73.3096L55.3526 75.5272H61.4114L60.8966 100.277L64.3022 99.802L65.4902 75.5272L70.757 75.6064L70.9154 72.3988ZM82.6719 72.7552L82.2759 100.079L86.1171 100.04L86.2359 88.318L88.1763 86.4568L99.3435 100.673L102.234 98.6536L90.7107 84.556L100.175 75.3688L97.9575 73.0324L86.2755 84.7144L86.3943 72.9928L82.6719 72.7552ZM111.191 75.4876L111.508 72.7552L102.241 72.9532L102.479 75.0124L105.093 75.1708L105.607 98.0596L102.994 98.218L103.311 100.119L110.835 100.04L111.27 97.624L108.34 97.8616L108.775 75.3688L111.191 75.4876ZM118.95 88.3972L123.227 100.198L126.039 100L121.406 88.1596L124.019 88.12L126.039 85.3876V76.1608L123.623 72.874H115.07V100H118.158L117.802 88.4764L118.95 88.3972ZM117.327 75.2896H121.722L123.504 77.3884L123.386 83.8828L121.881 85.3876L117.683 85.546L117.327 75.2896ZM133.428 74.9728L138.378 77.4676L140.556 74.7352L136.318 72.3196L129.666 73.6264L128.161 81.2296L138.655 91.09L137.19 97.2676L132.596 96.832L130.141 93.1492L127.725 96.1588L130.972 99.9208L139.645 100.04L142.575 89.8624L131.408 79.5664L133.428 74.9728ZM147.038 100.079H148.978L148.582 85.0312H153.453L153.691 100.079H156.859L155.908 72.6364H153.295L153.453 83.0908L148.543 83.4472L148.265 72.6364H145.969L147.038 100.079Z" fill="white"/>
</g>
<defs>
<clipPath id="clip0_874_2776">
<rect width="180" height="180" fill="white"/>
</clipPath>
</defs>
</svg>
