<svg width="180" height="180" viewBox="0 0 180 180" fill="none" xmlns="http://www.w3.org/2000/svg">
<g clip-path="url(#clip0_874_2776)">
<rect width="180" height="180" fill="#1F6981"/>
<path d="M53.7186 131.5C32.5186 171.9 50.8853 189 62.7186 192.5L217.219 201C216.552 194.167 214.619 178.3 212.219 169.5C209.219 158.5 203.219 89.5 196.719 66C191.519 47.2 175.885 32.8333 168.719 28C177.219 36.5 178.719 72.5 153.219 66C132.819 60.8 131.052 18.5 132.719 -2C123.219 8.83333 107.119 39.7 118.719 76.5C133.219 122.5 68.2188 145.5 78.7188 117.5C87.1188 95.1 75.2188 73.8333 68.2188 66C72.2187 71 74.9186 91.1 53.7186 131.5Z" fill="#E0204E"/>
<path d="M32.0715 100L31.7547 72.8344H27.3987L27.2799 82.9324L15.6375 82.6948L15.7167 72.8344H12.6279V100H15.4791L15.5979 84.8332H27.2799L27.1215 100H32.0715ZM53.7457 79.9228L48.7957 72.9532L41.8261 72.478L35.6089 79.5268L35.9257 93.3076L40.9945 100.198L47.6869 100.119L52.9933 93.1492L53.7457 79.9228ZM49.3501 92.6344L46.1029 97.2676L42.2617 97.1488L39.3709 92.674L38.7373 81.9028L43.5685 75.4876L46.5385 75.6064L49.5877 79.5268L49.3501 92.6344ZM68.7884 72.3988L53.0672 73.3096L53.2256 75.5272H59.2844L58.7696 100.277L62.1752 99.802L63.3632 75.5272L68.63 75.6064L68.7884 72.3988ZM80.545 72.7552L80.149 100.079L83.9902 100.04L84.109 88.318L86.0494 86.4568L97.2166 100.673L100.107 98.6536L88.5838 84.556L98.0482 75.3688L95.8306 73.0324L84.1486 84.7144L84.2674 72.9928L80.545 72.7552ZM109.064 75.4876L109.381 72.7552L100.115 72.9532L100.352 75.0124L102.966 75.1708L103.481 98.0596L100.867 98.218L101.184 100.119L108.708 100.04L109.143 97.624L106.213 97.8616L106.649 75.3688L109.064 75.4876ZM116.824 88.3972L121.1 100.198L123.912 100L119.279 88.1596L121.892 88.12L123.912 85.3876V76.1608L121.496 72.874H112.943V100H116.032L115.675 88.4764L116.824 88.3972ZM115.2 75.2896H119.596L121.378 77.3884L121.259 83.8828L119.754 85.3876L115.556 85.546L115.2 75.2896ZM131.301 74.9728L136.251 77.4676L138.429 74.7352L134.192 72.3196L127.539 73.6264L126.034 81.2296L136.528 91.09L135.063 97.2676L130.469 96.832L128.014 93.1492L125.598 96.1588L128.846 99.9208L137.518 100.04L140.448 89.8624L129.281 79.5664L131.301 74.9728ZM154.514 96.7132L147.505 97.1488L145.525 84.754L147.149 77.2696L154.396 76.3192L154.475 72.2404L145.604 73.27L141.803 85.744L145.09 100.317L154.95 100.079L154.514 96.7132ZM157.75 100.079H159.69L159.294 85.0312H164.165L164.403 100.079H167.571L166.62 72.6364H164.007L164.165 83.0908L159.255 83.4472L158.977 72.6364H156.681L157.75 100.079Z" fill="white"/>
</g>
<defs>
<clipPath id="clip0_874_2776">
<rect width="180" height="180" fill="white"/>
</clipPath>
</defs>
</svg>
