<svg width="180" height="180" viewBox="0 0 180 180" fill="none" xmlns="http://www.w3.org/2000/svg">
<g clip-path="url(#clip0_874_2377)">
<rect width="180" height="180" fill="#477F83"/>
<path d="M131.633 115.569C114.219 142.783 80.4133 144.53 51.8032 126.224C23.1931 107.917 10.6129 76.4907 28.0262 49.2762C45.4394 22.0617 82.7487 14.8401 111.359 33.1464C139.969 51.4526 149.046 88.3544 131.633 115.569Z" fill="#3D3535"/>
<path d="M124.376 106.907C109.775 129.727 81.428 131.191 57.4378 115.841C33.4477 100.491 22.899 74.139 37.5004 51.3191C52.1017 28.4992 83.3863 22.4438 107.377 37.7939C131.367 53.1441 138.978 84.087 124.376 106.907Z" fill="#544B4B"/>
<path d="M144.5 162.5C141.7 151.7 125.667 134.667 118 127.5C118.833 120.5 120.8 108.8 122 118C123.5 129.5 154 150 158 156C162 162 148 176 144.5 162.5Z" fill="#3D3535"/>
<path d="M70.5865 81.0712H72.3309L71.9749 67.5432H76.3537L76.5673 81.0712H79.4153L78.5609 56.4004H76.2113L76.3537 65.7988L71.9393 66.1192L71.6901 56.4004H69.6253L70.5865 81.0712ZM98.8718 62.9508L94.4218 56.6852L88.1562 56.258L82.567 62.5948L82.8518 74.9836L87.4086 81.178L93.425 81.1068L98.1954 74.8412L98.8718 62.9508ZM94.9202 74.3784L92.001 78.5436L88.5478 78.4368L85.949 74.414L85.3794 64.7308L89.7226 58.9636L92.3926 59.0704L95.1338 62.5948L94.9202 74.3784ZM112.395 56.1868L98.2618 57.0056L98.4042 58.9992H103.851L103.388 81.2492L106.45 80.822L107.518 58.9992L112.253 59.0704L112.395 56.1868ZM61.7589 92.1868L47.6257 93.0056L47.7681 94.9992H53.2149L52.7521 117.249L55.8137 116.822L56.8817 94.9992L61.6165 95.0704L61.7589 92.1868ZM79.2118 98.9508L74.7618 92.6852L68.4962 92.258L62.907 98.5948L63.1918 110.984L67.7486 117.178L73.765 117.107L78.5354 110.841L79.2118 98.9508ZM75.2602 110.378L72.341 114.544L68.8878 114.437L66.289 110.414L65.7194 100.731L70.0626 94.9636L72.7326 95.0704L75.4738 98.5948L75.2602 110.378ZM82.8653 117.178L93.7233 116.786L98.4225 111.233L98.9565 99.9832L93.1537 92.8988L82.3669 92.5072L82.8653 117.178ZM94.1149 109.702L91.4805 113.725L86.1049 113.938L86.4253 95.3908L91.1957 95.2484L94.7913 101.229L94.1149 109.702ZM102.612 117.178L113.47 116.786L118.169 111.233L118.703 99.9832L112.901 92.8988L102.114 92.5072L102.612 117.178ZM113.862 109.702L111.227 113.725L105.852 113.938L106.172 95.3908L110.943 95.2484L114.538 101.229L113.862 109.702ZM128.474 92.4716L124.842 101.585L120.499 92.614L117.473 92.792L123.596 104.825L123.739 116.964H127.441L127.085 104.896L132.212 92.7208L128.474 92.4716Z" fill="white"/>
</g>
<defs>
<clipPath id="clip0_874_2377">
<rect width="180" height="180" fill="white"/>
</clipPath>
</defs>
</svg>
