<svg width="180" height="180" viewBox="0 0 180 180" fill="none" xmlns="http://www.w3.org/2000/svg">
<g clip-path="url(#clip0_874_2410)">
<rect width="180" height="180" fill="#D3951A"/>
<path d="M14.9998 42C-5.40018 48.4 -5.83352 80 -3.50019 95L-13 191H186.5C193.167 165 199.2 107.1 170 83.5C140.8 59.9 157.833 39 170 31.5C156.5 32.3333 132.4 42.9 144 78.5C158.5 123 132.5 132 129.5 113C127.1 97.8 114.5 94.6667 108.5 95C116 115.5 85.5 138 64.5 126C47.7 116.4 57.5 87.6667 64.5 74.5C50 74.5 49 122.5 22 105C0.4 91 8.33321 57.1667 14.9998 42Z" fill="#D32E2E"/>
<path d="M68.4052 80.0792H70.3456L69.9496 65.0312H74.8204L75.058 80.0792H78.226L77.2756 52.6364H74.662L74.8204 63.0908L69.91 63.4472L69.6328 52.6364H67.336L68.4052 80.0792ZM99.8686 59.9228L94.9186 52.9532L87.949 52.478L81.7318 59.5268L82.0486 73.3076L87.1174 80.198L93.8098 80.1188L99.1162 73.1492L99.8686 59.9228ZM95.473 72.6344L92.2258 77.2676L88.3846 77.1488L85.4938 72.674L84.8602 61.9028L89.6914 55.4876L92.6614 55.6064L95.7106 59.5268L95.473 72.6344ZM114.911 52.3988L99.1901 53.3096L99.3485 55.5272H105.407L104.893 80.2772L108.298 79.802L109.486 55.5272L114.753 55.6064L114.911 52.3988ZM75.473 92.478L71.2358 92.9532L67.7906 103.17L63.593 92.7552L58.9598 92.9136L57.653 119.96L61.4546 120.158L61.4942 97.9032L65.4938 107.645L68.4242 108.001L72.2654 98.4972L72.5822 119.881C72.5822 119.881 76.1066 119.881 76.7402 119.842L75.473 92.478ZM82.3365 92.3592L78.2181 119.683L81.5445 119.881L83.4849 107.843L86.8509 107.605L89.0289 119.683L91.6821 119.96L86.7321 92.3592H82.3365ZM83.8017 106.1L85.1481 98.2992L86.5737 105.902L83.8017 106.1ZM98.4998 108.397L102.777 120.198L105.588 120L100.955 108.16L103.569 108.12L105.588 105.388V96.1608L103.173 92.874H94.619V120H97.7078L97.3514 108.476L98.4998 108.397ZM96.8762 95.2896H101.272L103.054 97.3884L102.935 103.883L101.43 105.388L97.2326 105.546L96.8762 95.2896ZM118.681 92.7156L114.642 102.853L109.811 92.874L106.445 93.072L113.256 106.457L113.414 119.96H117.533L117.137 106.536L122.839 92.9928L118.681 92.7156Z" fill="white"/>
</g>
<defs>
<clipPath id="clip0_874_2410">
<rect width="180" height="180" fill="white"/>
</clipPath>
</defs>
</svg>
