<svg width="180" height="180" viewBox="0 0 180 180" fill="none" xmlns="http://www.w3.org/2000/svg">
<g clip-path="url(#clip0_874_2783)">
<rect width="180" height="180" fill="#4CB469"/>
<path d="M50 40.5332L58.3793 193.045L59.7759 198.533H90.5H121.224L122.621 193.045L131 40.5332H90.5H50Z" fill="#2A8D46"/>
<path d="M130.757 28.0331C116.357 23.2331 105.757 33.0331 102.257 38.5331C95.257 13.0332 119.257 4.53305 130.757 16.033C139.957 25.233 147.924 23.533 150.757 21.533C150.09 25.6997 145.157 32.8331 130.757 28.0331Z" fill="#78E645"/>
<rect x="91" y="134.384" width="33.1523" height="33.1523" rx="9" transform="rotate(-14.6491 91 134.384)" fill="#AED8FF"/>
<rect x="72.481" y="109" width="21.9942" height="21.9942" rx="5" transform="rotate(37.8021 72.481 109)" fill="#AED8FF"/>
<path d="M57.3601 58.9636L57.6449 56.5072L49.3145 56.6852L49.5281 58.5364L51.8777 58.6788L52.3405 79.2556L49.9909 79.398L50.2757 81.1068L57.0397 81.0356L57.4313 78.864L54.7969 79.0776L55.1885 58.8568L57.3601 58.9636ZM70.4417 78.0452L64.1405 78.4368L62.3605 67.294L63.8201 60.5656L70.3349 59.7112L70.4061 56.0444L62.4317 56.97L59.0141 68.184L61.9689 81.2848L70.8333 81.0712L70.4417 78.0452ZM81.9572 56.5072L72.7368 56.7208L73.342 81H82.5624L82.776 78.1164L75.6204 78.508L75.5492 67.65L79.9636 67.4008L79.6076 65.4428L75.5136 65.9412L75.478 59.2484L82.0996 59.7468L81.9572 56.5072ZM105.146 56.1868L91.0132 57.0056L91.1556 58.9992H96.6024L96.1396 81.2492L99.2012 80.822L100.269 58.9992L105.004 59.0704L105.146 56.1868ZM116.619 56.5072L107.398 56.7208L108.003 81H117.224L117.437 78.1164L110.282 78.508L110.211 67.65L114.625 67.4008L114.269 65.4428L110.175 65.9412L110.139 59.2484L116.761 59.7468L116.619 56.5072ZM122.848 56.1512L119.145 80.7152L122.136 80.8932L123.88 70.0708L126.906 69.8572L128.864 80.7152L131.249 80.9644L126.799 56.1512H122.848ZM124.165 68.5044L125.375 61.4912L126.657 68.3264L124.165 68.5044ZM41.371 107.708L44.2546 116.964L47.7078 117.071L52.4426 92.614L47.957 92.5428L45.6786 112.158L42.1542 102.155L40.7302 102.333L36.4226 113.725L33.6458 92.5428L30.0502 92.3648L34.5002 117.107L37.811 117L41.371 107.708ZM62.4011 94.9636L62.6859 92.5072L54.3555 92.6852L54.5691 94.5364L56.9187 94.6788L57.3815 115.256L55.0319 115.398L55.3167 117.107L62.0807 117.036L62.4723 114.864L59.8379 115.078L60.2295 94.8568L62.4011 94.9636ZM78.4812 92.1868L64.348 93.0056L64.4904 94.9992H69.9372L69.4744 117.249L72.536 116.822L73.604 94.9992L78.3388 95.0704L78.4812 92.1868ZM81.6941 117.071H83.4385L83.0825 103.543H87.4613L87.6749 117.071H90.5229L89.6685 92.4004H87.3189L87.4613 101.799L83.0469 102.119L82.7977 92.4004H80.7329L81.6941 117.071ZM106.228 106.569L110.073 117.178L112.601 117L108.436 106.356L110.785 106.32L112.601 103.864V95.5688L110.429 92.614H102.74V117H105.516L105.196 106.64L106.228 106.569ZM104.769 94.7856H108.72L110.322 96.6724L110.216 102.511L108.863 103.864L105.089 104.006L104.769 94.7856ZM126.952 109.488L125.278 113.404L120.722 113.796L118.194 109.56L118.87 92.4004L115.31 92.1868L114.954 111.624L118.372 116.929L127.023 117.142L130.227 112.016L130.868 92.4004L126.524 92.5784L126.952 109.488ZM148.87 92.258L145.061 92.6852L141.964 101.87L138.19 92.5072L134.025 92.6496L132.85 116.964L136.268 117.142L136.304 97.1352L139.899 105.893L142.534 106.213L145.987 97.6692L146.272 116.893C146.272 116.893 149.44 116.893 150.01 116.858L148.87 92.258Z" fill="white"/>
</g>
<defs>
<clipPath id="clip0_874_2783">
<rect width="180" height="180" fill="white"/>
</clipPath>
</defs>
</svg>
