<svg width="180" height="180" viewBox="0 0 180 180" fill="none" xmlns="http://www.w3.org/2000/svg">
<g clip-path="url(#clip0_874_2783)">
<rect width="180" height="180" fill="#4CB469"/>
<path d="M50 40.5332L58.3793 193.045L59.7759 198.533H90.5H121.224L122.621 193.045L131 40.5332H90.5H50Z" fill="#2A8D46"/>
<path d="M130.757 28.0331C116.357 23.2331 105.757 33.0331 102.257 38.5331C95.257 13.0332 119.257 4.53305 130.757 16.033C139.957 25.233 147.924 23.533 150.757 21.533C150.09 25.6997 145.157 32.8331 130.757 28.0331Z" fill="#78E645"/>
<rect x="91" y="134.384" width="33.1523" height="33.1523" rx="9" transform="rotate(-14.6491 91 134.384)" fill="#AED8FF"/>
<rect x="72.481" y="109" width="21.9942" height="21.9942" rx="5" transform="rotate(37.8021 72.481 109)" fill="#AED8FF"/>
<path d="M46.0272 77.4756C41.2924 77.2976 37.3408 75.3752 37.3408 69.0384C37.3408 61.8828 40.6516 58.6788 46.8104 58.6788V56.4716C46.2764 56.4004 45.7424 56.4004 45.244 56.4004C38.3376 56.4004 34.2436 62.0252 34.2436 69.6436C34.2436 76.4076 38.2308 81.2848 44.9236 81.2848C45.2796 81.2848 45.6356 81.2848 46.0272 81.2492V77.4756ZM64.6972 62.9508L60.2472 56.6852L53.9816 56.258L48.3924 62.5948L48.6772 74.9836L53.234 81.178L59.2504 81.1068L64.0208 74.8412L64.6972 62.9508ZM60.7456 74.3784L57.8264 78.5436L54.3732 78.4368L51.7744 74.414L51.2048 64.7308L55.548 58.9636L58.218 59.0704L60.9592 62.5948L60.7456 74.3784ZM77.749 77.3688L70.985 78.2232L71.7326 56.7564L67.8522 56.4004L68.2438 81.1424L78.1762 81.2492L77.749 77.3688ZM80.7967 81.178L91.6547 80.7864L96.3539 75.2328L96.8879 63.9832L91.0851 56.8988L80.2983 56.5072L80.7967 81.178ZM92.0463 73.702L89.4119 77.7248L84.0363 77.9384L84.3567 59.3908L89.1271 59.2484L92.7227 65.2292L92.0463 73.702ZM120.217 56.1868L106.084 57.0056L106.227 58.9992H111.673L111.211 81.2492L114.272 80.822L115.34 58.9992L120.075 59.0704L120.217 56.1868ZM131.689 56.5072L122.469 56.7208L123.074 81H132.295L132.508 78.1164L125.353 78.508L125.281 67.65L129.696 67.4008L129.34 65.4428L125.246 65.9412L125.21 59.2484L131.832 59.7468L131.689 56.5072ZM137.919 56.1512L134.216 80.7152L137.207 80.8932L138.951 70.0708L141.977 69.8572L143.935 80.7152L146.32 80.9644L141.87 56.1512H137.919ZM139.236 68.5044L140.446 61.4912L141.728 68.3264L139.236 68.5044ZM41.371 107.708L44.2546 116.964L47.7078 117.071L52.4426 92.614L47.957 92.5428L45.6786 112.158L42.1542 102.155L40.7302 102.333L36.4226 113.725L33.6458 92.5428L30.0502 92.3648L34.5002 117.107L37.811 117L41.371 107.708ZM62.4011 94.9636L62.6859 92.5072L54.3555 92.6852L54.5691 94.5364L56.9187 94.6788L57.3815 115.256L55.0319 115.398L55.3167 117.107L62.0807 117.036L62.4723 114.864L59.8379 115.078L60.2295 94.8568L62.4011 94.9636ZM78.4812 92.1868L64.348 93.0056L64.4904 94.9992H69.9372L69.4744 117.249L72.536 116.822L73.604 94.9992L78.3388 95.0704L78.4812 92.1868ZM81.6941 117.071H83.4385L83.0825 103.543H87.4613L87.6749 117.071H90.5229L89.6685 92.4004H87.3189L87.4613 101.799L83.0469 102.119L82.7977 92.4004H80.7329L81.6941 117.071ZM106.228 106.569L110.073 117.178L112.601 117L108.436 106.356L110.785 106.32L112.601 103.864V95.5688L110.429 92.614H102.74V117H105.516L105.196 106.64L106.228 106.569ZM104.769 94.7856H108.72L110.322 96.6724L110.216 102.511L108.863 103.864L105.089 104.006L104.769 94.7856ZM126.952 109.488L125.278 113.404L120.722 113.796L118.194 109.56L118.87 92.4004L115.31 92.1868L114.954 111.624L118.372 116.929L127.023 117.142L130.227 112.016L130.868 92.4004L126.524 92.5784L126.952 109.488ZM148.87 92.258L145.061 92.6852L141.964 101.87L138.19 92.5072L134.025 92.6496L132.85 116.964L136.268 117.142L136.304 97.1352L139.899 105.893L142.534 106.213L145.987 97.6692L146.272 116.893C146.272 116.893 149.44 116.893 150.01 116.858L148.87 92.258Z" fill="white"/>
</g>
<defs>
<clipPath id="clip0_874_2783">
<rect width="180" height="180" fill="white"/>
</clipPath>
</defs>
</svg>
