<svg width="180" height="180" viewBox="0 0 180 180" fill="none" xmlns="http://www.w3.org/2000/svg">
<g clip-path="url(#clip0_874_2530)">
<rect width="180" height="180" fill="#713FFF"/>
<path d="M21.5 71L13 39L152 26.5L156.5 55.5L106.5 71L96 161.5L77 71H21.5Z" fill="#FFBE3F"/>
<path d="M63.6005 58.9636L63.8853 56.5072L55.5549 56.6852L55.7685 58.5364L58.1181 58.6788L58.5809 79.2556L56.2313 79.398L56.5161 81.1068L63.2801 81.0356L63.6717 78.864L61.0373 79.0776L61.4289 58.8568L63.6005 58.9636ZM76.9842 77.3688L70.2202 78.2232L70.9678 56.7564L67.0874 56.4004L67.479 81.1424L77.4114 81.2492L76.9842 77.3688ZM93.2397 62.9508L88.7897 56.6852L82.5241 56.258L76.9349 62.5948L77.2197 74.9836L81.7765 81.178L87.7929 81.1068L92.5633 74.8412L93.2397 62.9508ZM89.2881 74.3784L86.3689 78.5436L82.9157 78.4368L80.3169 74.414L79.7473 64.7308L84.0905 58.9636L86.7605 59.0704L89.5017 62.5948L89.2881 74.3784ZM110.279 56.614L106.327 56.436L107.004 74.058L100.204 56.436H96.3948L96.7508 81.0356L100.097 80.9644L99.5632 61.9896L106.861 80.9644H109.674L110.279 56.614ZM116.607 56.1512L112.905 80.7152L115.895 80.8932L117.64 70.0708L120.666 69.8572L122.624 80.7152L125.009 80.9644L120.559 56.1512H116.607ZM117.924 68.5044L119.135 61.4912L120.416 68.3264L117.924 68.5044ZM71.1519 92.258L67.3427 92.6852L64.2455 101.87L60.4719 92.5072L56.3067 92.6496L55.1319 116.964L58.5495 117.142L58.5851 97.1352L62.1807 105.893L64.8151 106.213L68.2683 97.6692L68.5531 116.893C68.5531 116.893 71.7215 116.893 72.2911 116.858L71.1519 92.258ZM87.0581 109.488L85.3849 113.404L80.8281 113.796L78.3005 109.56L78.9769 92.4004L75.4169 92.1868L75.0609 111.624L78.4785 116.929L87.1293 117.142L90.3333 112.016L90.9741 92.4004L86.6309 92.5784L87.0581 109.488ZM97.532 94.5008L101.982 96.7436L103.94 94.2872L100.131 92.1156L94.15 93.2904L92.7972 100.126L102.231 108.99L100.914 114.544L96.7844 114.152L94.5772 110.841L92.4056 113.547L95.3248 116.929L103.121 117.036L105.756 107.886L95.7164 98.6304L97.532 94.5008ZM109.162 92.5072L108.806 117.071L112.259 117.036L112.366 106.498L114.111 104.825L124.15 117.605L126.749 115.79L116.389 103.116L124.897 94.8568L122.904 92.7564L112.402 103.258L112.509 92.7208L109.162 92.5072Z" fill="white"/>
</g>
<defs>
<clipPath id="clip0_874_2530">
<rect width="180" height="180" fill="white"/>
</clipPath>
</defs>
</svg>
