<svg width="180" height="180" viewBox="0 0 180 180" fill="none" xmlns="http://www.w3.org/2000/svg">
<g clip-path="url(#clip0_874_2556)">
<rect width="180" height="180" fill="#CC4163"/>
<path fill-rule="evenodd" clip-rule="evenodd" d="M64.1433 153.072L87.1093 163.879C87.7444 164.178 88.4999 163.902 88.7968 163.263L119.014 98.1988C114.996 89.9787 112.567 61.4627 135 13.1597L126.732 9.26879L126.731 9.26989L121.908 7C99.4746 55.303 76.1803 71.7139 67.3373 73.8815L37.1198 138.946C36.8229 139.585 37.097 140.346 37.7321 140.644L64.1428 153.073L64.1433 153.072Z" fill="#3A2D2D"/>
<path d="M46.2525 76.9636L46.5373 74.5072L38.2069 74.6852L38.4205 76.5364L40.7701 76.6788L41.2329 97.2556L38.8833 97.398L39.1681 99.1068L45.9321 99.0356L46.3237 96.864L43.6893 97.0776L44.0809 76.8568L46.2525 76.9636ZM64.4421 74.258L60.6329 74.6852L57.5357 83.87L53.7621 74.5072L49.5969 74.6496L48.4221 98.9644L51.8397 99.1424L51.8753 79.1352L55.4709 87.8928L58.1053 88.2132L61.5585 79.6692L61.8433 98.8932C61.8433 98.8932 65.0117 98.8932 65.5813 98.8576L64.4421 74.258ZM77.0072 99.178L87.8652 98.7864L92.5644 93.2328L93.0984 81.9832L87.2956 74.8988L76.5088 74.5072L77.0072 99.178ZM88.2568 91.702L85.6224 95.7248L80.2468 95.9384L80.5672 77.3908L85.3376 77.2484L88.9332 83.2292L88.2568 91.702ZM111.457 80.9508L107.007 74.6852L100.741 74.258L95.1521 80.5948L95.4369 92.9836L99.9937 99.178L106.01 99.1068L110.781 92.8412L111.457 80.9508ZM107.505 92.3784L104.586 96.5436L101.133 96.4368L98.5341 92.414L97.9645 82.7308L102.308 76.9636L104.978 77.0704L107.719 80.5948L107.505 92.3784ZM128.496 74.614L124.544 74.436L125.221 92.058L118.421 74.436H114.612L114.968 99.0356L118.314 98.9644L117.78 79.9896L125.078 98.9644H127.891L128.496 74.614ZM141.98 74.5072L132.76 74.7208L133.365 99H142.585L142.799 96.1164L135.643 96.508L135.572 85.65L139.986 85.4008L139.63 83.4428L135.536 83.9412L135.501 77.2484L142.122 77.7468L141.98 74.5072Z" fill="white"/>
<path d="M71.5 126L103.5 134L98.5 146.5L91 134L71.5 129L61.5 115.5L71.5 126Z" fill="#CC4163"/>
</g>
<defs>
<clipPath id="clip0_874_2556">
<rect width="180" height="180" fill="white"/>
</clipPath>
</defs>
</svg>
