<svg width="180" height="180" viewBox="0 0 180 180" fill="none" xmlns="http://www.w3.org/2000/svg">
<g clip-path="url(#clip0_874_2556)">
<rect width="180" height="180" fill="#CC4163"/>
<path fill-rule="evenodd" clip-rule="evenodd" d="M64.1433 153.072L87.1093 163.879C87.7444 164.178 88.4999 163.902 88.7968 163.263L119.014 98.1988C114.996 89.9787 112.567 61.4627 135 13.1597L126.732 9.26879L126.731 9.26989L121.908 7C99.4746 55.303 76.1803 71.7139 67.3373 73.8815L37.1198 138.946C36.8229 139.585 37.097 140.346 37.7321 140.644L64.1428 153.073L64.1433 153.072Z" fill="#3A2D2D"/>
<path d="M35.3361 76.9636L35.6209 74.5072L27.2905 74.6852L27.5041 76.5364L29.8537 76.6788L30.3165 97.2556L27.9669 97.398L28.2517 99.1068L35.0157 99.0356L35.4073 96.864L32.7729 97.0776L33.1645 76.8568L35.3361 76.9636ZM48.849 74.1512L45.1466 98.7152L48.137 98.8932L49.8814 88.0708L52.9074 87.8572L54.8654 98.7152L57.2506 98.9644L52.8006 74.1512H48.849ZM50.1662 86.5044L51.3766 79.4912L52.6582 86.3264L50.1662 86.5044ZM75.3585 74.258L71.5493 74.6852L68.4521 83.87L64.6785 74.5072L60.5133 74.6496L59.3385 98.9644L62.7561 99.1424L62.7917 79.1352L66.3873 87.8928L69.0217 88.2132L72.4749 79.6692L72.7597 98.8932C72.7597 98.8932 75.9281 98.8932 76.4977 98.8576L75.3585 74.258ZM87.9237 99.178L98.7817 98.7864L103.481 93.2328L104.015 81.9832L98.2121 74.8988L87.4253 74.5072L87.9237 99.178ZM99.1733 91.702L96.5389 95.7248L91.1633 95.9384L91.4837 77.3908L96.2541 77.2484L99.8497 83.2292L99.1733 91.702ZM122.373 80.9508L117.923 74.6852L111.658 74.258L106.069 80.5948L106.353 92.9836L110.91 99.178L116.927 99.1068L121.697 92.8412L122.373 80.9508ZM118.422 92.3784L115.503 96.5436L112.049 96.4368L109.451 92.414L108.881 82.7308L113.224 76.9636L115.894 77.0704L118.635 80.5948L118.422 92.3784ZM139.412 74.614L135.461 74.436L136.137 92.058L129.338 74.436H125.528L125.884 99.0356L129.231 98.9644L128.697 79.9896L135.995 98.9644H138.807L139.412 74.614ZM152.896 74.5072L143.676 74.7208L144.281 99H153.502L153.715 96.1164L146.56 96.508L146.488 85.65L150.903 85.4008L150.547 83.4428L146.453 83.9412L146.417 77.2484L153.039 77.7468L152.896 74.5072Z" fill="white"/>
<path d="M71.5 126L103.5 134L98.5 146.5L91 134L71.5 129L61.5 115.5L71.5 126Z" fill="#CC4163"/>
</g>
<defs>
<clipPath id="clip0_874_2556">
<rect width="180" height="180" fill="white"/>
</clipPath>
</defs>
</svg>
