<svg width="180" height="180" viewBox="0 0 180 180" fill="none" xmlns="http://www.w3.org/2000/svg">
<g clip-path="url(#clip0_874_2197)">
<rect width="180" height="180" fill="#D3951A"/>
<circle cx="72.0249" cy="45.0306" r="13" transform="rotate(-23.3999 72.0249 45.0306)" fill="#4E4141"/>
<path d="M54.0886 41.3512C55.6239 44.8992 53.9923 49.0201 50.4443 50.5555C46.8963 52.0908 42.7753 50.4593 41.24 46.9112C39.7046 43.3632 35.1805 25.0171 38.7285 23.4817C42.2765 21.9463 52.5532 37.8031 54.0886 41.3512Z" fill="#C01A6A"/>
<path d="M55.0649 76.3408L90.8574 60.8521L136.449 143.547L92.3967 162.61L55.0649 76.3408Z" fill="#D03030"/>
<path d="M43.0538 58.6572L72.4703 41.0244L82.3238 61.2767L50.2024 75.1768L43.0538 58.6572Z" fill="#602929"/>
<path d="M49.3934 35.4876L49.7102 32.7552L40.4438 32.9532L40.6814 35.0124L43.295 35.1708L43.8098 58.0596L41.1962 58.218L41.513 60.1188L49.037 60.0396L49.4726 57.624L46.5422 57.8616L46.9778 35.3688L49.3934 35.4876ZM68.716 32.874L64.3204 32.676L65.0728 52.278L57.5092 32.676H53.272L53.668 60.0396L57.3904 59.9604L56.7964 38.8536L64.9144 59.9604H68.0428L68.716 32.874ZM84.9824 56.7132L77.9732 57.1488L75.9932 44.754L77.6168 37.2696L84.8636 36.3192L84.9428 32.2404L76.0724 33.27L72.2708 45.744L75.5576 60.3168L85.418 60.0792L84.9824 56.7132ZM97.7917 32.7552L87.5353 32.9928L88.2085 60H98.4649L98.7025 56.7924L90.7429 57.228L90.6637 45.15L95.5741 44.8728L95.1781 42.6948L90.6241 43.2492L90.5845 35.8044L97.9501 36.3588L97.7917 32.7552ZM116.592 32.874L112.196 32.676L112.949 52.278L105.385 32.676H101.148L101.544 60.0396L105.266 59.9604L104.672 38.8536L112.79 59.9604H115.919L116.592 32.874ZM121.889 60.198L133.967 59.7624L139.194 53.5848L139.788 41.0712L133.333 33.1908L121.335 32.7552L121.889 60.198ZM134.403 51.882L131.472 56.3568L125.493 56.5944L125.849 35.9628L131.155 35.8044L135.155 42.4572L134.403 51.882ZM71.6104 75.4876L71.9272 72.7552L62.6608 72.9532L62.8984 75.0124L65.512 75.1708L66.0268 98.0596L63.4132 98.218L63.73 100.119L71.254 100.04L71.6896 97.624L68.7592 97.8616L69.1948 75.3688L71.6104 75.4876ZM77.7858 72.3592L73.6674 99.6832L76.9938 99.8812L78.9342 87.8428L82.3002 87.6052L84.4782 99.6832L87.1314 99.9604L82.1814 72.3592H77.7858ZM79.251 86.1004L80.5974 78.2992L82.023 85.9024L79.251 86.1004ZM93.9491 88.3972L98.2259 100.198L101.038 100L96.4043 88.1596L99.0179 88.12L101.038 85.3876V76.1608L98.6219 72.874H90.0683V100H93.1571L92.8007 88.4764L93.9491 88.3972ZM92.3255 75.2896H96.7211L98.5031 77.3884L98.3843 83.8828L96.8795 85.3876L92.6819 85.546L92.3255 75.2896ZM114.131 72.7156L110.091 82.8532L105.26 72.874L101.894 73.072L108.705 86.4568L108.864 99.9604H112.982L112.586 86.536L118.289 72.9928L114.131 72.7156ZM46.9244 112.874L42.5288 112.676L43.2812 132.278L35.7176 112.676H31.4804L31.8764 140.04L35.5988 139.96L35.0048 118.854L43.1228 139.96H46.2512L46.9244 112.874ZM61.9236 112.755L51.6672 112.993L52.3404 140H62.5968L62.8344 136.792L54.8748 137.228L54.7956 125.15L59.706 124.873L59.31 122.695L54.756 123.249L54.7164 115.804L62.082 116.359L61.9236 112.755ZM82.6245 116.596L79.1001 113.112L74.2293 112.32L67.3785 115.21L64.0917 125.665L66.5469 137.07L74.1501 140.634L83.2185 137.901L82.9413 128.793L81.5949 127.209L77.0805 126.892V130.615L80.2881 130.377L80.0901 135.723L74.5857 136.99L69.6357 133.862L67.4181 125.982L70.3089 117.23L76.6449 115.408L80.2881 118.893L82.6245 116.596ZM90.43 128.397L94.7068 140.198L97.5184 140L92.8852 128.16L95.4988 128.12L97.5184 125.388V116.161L95.1028 112.874H86.5492V140H89.638L89.2816 128.476L90.43 128.397ZM88.8064 115.29H93.202L94.984 117.388L94.8652 123.883L93.3604 125.388L89.1628 125.546L88.8064 115.29ZM118.115 119.923L113.165 112.953L106.195 112.478L99.9782 119.527L100.295 133.308L105.364 140.198L112.056 140.119L117.363 133.149L118.115 119.923ZM113.719 132.634L110.472 137.268L106.631 137.149L103.74 132.674L103.107 121.903L107.938 115.488L110.908 115.606L113.957 119.527L113.719 132.634ZM137.069 112.874L132.673 112.676L133.425 132.278L125.862 112.676H121.625L122.021 140.04L125.743 139.96L125.149 118.854L133.267 139.96H136.395L137.069 112.874ZM149.573 115.488L149.89 112.755L140.623 112.953L140.861 115.012L143.474 115.171L143.989 138.06L141.376 138.218L141.692 140.119L149.216 140.04L149.652 137.624L146.722 137.862L147.157 115.369L149.573 115.488Z" fill="white"/>
</g>
<defs>
<clipPath id="clip0_874_2197">
<rect width="180" height="180" fill="white"/>
</clipPath>
</defs>
</svg>
