<svg width="180" height="180" viewBox="0 0 180 180" fill="none" xmlns="http://www.w3.org/2000/svg">
<g clip-path="url(#clip0_874_2197)">
<rect width="180" height="180" fill="#D3951A"/>
<circle cx="72.0249" cy="45.0306" r="13" transform="rotate(-23.3999 72.0249 45.0306)" fill="#4E4141"/>
<path d="M54.0886 41.3512C55.6239 44.8992 53.9923 49.0201 50.4443 50.5555C46.8963 52.0908 42.7753 50.4593 41.24 46.9112C39.7046 43.3632 35.1805 25.0171 38.7285 23.4817C42.2765 21.9463 52.5532 37.8031 54.0886 41.3512Z" fill="#C01A6A"/>
<path d="M55.0649 76.3408L90.8574 60.8521L136.449 143.547L92.3967 162.61L55.0649 76.3408Z" fill="#D03030"/>
<path d="M43.0538 58.6572L72.4703 41.0244L82.3238 61.2767L50.2024 75.1768L43.0538 58.6572Z" fill="#602929"/>
<path d="M51.6338 53.072L48.2678 52.5968L48.1094 79.9208H60.9398L61.3754 76.04L51.0398 76.9904L51.6338 53.072ZM71.4944 55.4876L71.8112 52.7552L62.5448 52.9532L62.7824 55.0124L65.396 55.1708L65.9108 78.0596L63.2972 78.218L63.614 80.1188L71.138 80.0396L71.5736 77.624L68.6432 77.8616L69.0788 55.3688L71.4944 55.4876ZM85.1542 79.9208L93.3118 53.1512L87.8074 52.7552L83.3722 74.5748L78.2242 53.1512L73.5118 52.9532L81.1546 80.0396L85.1542 79.9208ZM106.512 52.7552L96.2558 52.9928L96.929 80H107.185L107.423 76.7924L99.4634 77.228L99.3842 65.15L104.295 64.8728L103.899 62.6948L99.3446 63.2492L99.305 55.8044L106.671 56.3588L106.512 52.7552ZM120.877 75.9608L113.353 76.9112L114.185 53.0324L109.868 52.6364L110.304 80.1584L121.352 80.2772L120.877 75.9608ZM129.87 52.7156L125.831 62.8532L121 52.874L117.634 53.072L124.445 66.4568L124.603 79.9604H128.722L128.326 66.536L134.028 52.9928L129.87 52.7156ZM43.2186 112.674L35.8134 92.7552H31.6158L31.9722 120.277L35.6154 120.198L35.0214 98.8536L43.0206 120.198H46.1094L46.7826 92.9136L42.4266 92.7552L43.2186 112.674ZM61.7882 92.7552L51.5318 92.9928L52.205 120H62.4614L62.699 116.792L54.7394 117.228L54.6602 105.15L59.5706 104.873L59.1746 102.695L54.6206 103.249L54.581 95.8044L61.9466 96.3588L61.7882 92.7552ZM82.4891 96.5964L78.9647 93.1116L74.0939 92.3196L67.2431 95.2104L63.9563 105.665L66.4115 117.07L74.0147 120.634L83.0831 117.901L82.8059 108.793L81.4595 107.209L76.9451 106.892V110.615L80.1527 110.377L79.9547 115.723L74.4503 116.99L69.5003 113.862L67.2827 105.982L70.1735 97.23L76.5095 95.4084L80.1527 98.8932L82.4891 96.5964ZM90.2946 108.397L94.5714 120.198L97.383 120L92.7498 108.16L95.3634 108.12L97.383 105.388V96.1608L94.9674 92.874H86.4138V120H89.5026L89.1462 108.476L90.2946 108.397ZM88.671 95.2896H93.0666L94.8486 97.3884L94.7298 103.883L93.225 105.388L89.0274 105.546L88.671 95.2896ZM117.98 99.9228L113.03 92.9532L106.06 92.478L99.8429 99.5268L100.16 113.308L105.228 120.198L111.921 120.119L117.227 113.149L117.98 99.9228ZM113.584 112.634L110.337 117.268L106.496 117.149L103.605 112.674L102.971 101.903L107.802 95.4876L110.772 95.6064L113.822 99.5268L113.584 112.634ZM136.933 92.874L132.538 92.676L133.29 112.278L125.726 92.676H121.489L121.885 120.04L125.608 119.96L125.014 98.8536L133.132 119.96H136.26L136.933 92.874ZM149.438 95.4876L149.754 92.7552L140.488 92.9532L140.726 95.0124L143.339 95.1708L143.854 118.06L141.24 118.218L141.557 120.119L149.081 120.04L149.517 117.624L146.586 117.862L147.022 95.3688L149.438 95.4876Z" fill="white"/>
</g>
<defs>
<clipPath id="clip0_874_2197">
<rect width="180" height="180" fill="white"/>
</clipPath>
</defs>
</svg>
