<svg width="180" height="180" viewBox="0 0 180 180" fill="none" xmlns="http://www.w3.org/2000/svg">
<g clip-path="url(#clip0_874_2745)">
<rect width="180" height="180" fill="#6B291A"/>
<path d="M83 35.5L90.5 100.5H98V35.5H83Z" fill="#F2B133"/>
<path d="M51.5 97L62 136.5L135.5 124.5V91.5L51.5 97Z" fill="#CE6048"/>
<path d="M22 132.5L35 168H152.5L155 113L22 132.5Z" fill="#D7745D"/>
<path d="M68.4012 40.9636L68.686 38.5072L60.3556 38.6852L60.5692 40.5364L62.9188 40.6788L63.3816 61.2556L61.032 61.398L61.3168 63.1068L68.0808 63.0356L68.4724 60.864L65.838 61.0776L66.2296 40.8568L68.4012 40.9636ZM75.3769 52.5692L79.2217 63.178L81.7493 63L77.5841 52.3556L79.9337 52.32L81.7493 49.8636V41.5688L79.5777 38.614H71.8881V63H74.6649L74.3445 52.6404L75.3769 52.5692ZM73.9173 40.7856H77.8689L79.4709 42.6724L79.3641 48.5108L78.0113 49.8636L74.2377 50.006L73.9173 40.7856ZM92.0419 40.9636L92.3267 38.5072L83.9963 38.6852L84.2099 40.5364L86.5595 40.6788L87.0223 61.2556L84.6727 61.398L84.9575 63.1068L91.7215 63.0356L92.1131 60.864L89.4787 61.0776L89.8703 40.8568L92.0419 40.9636ZM97.7089 40.5008L102.159 42.7436L104.117 40.2872L100.308 38.1156L94.3269 39.2904L92.9741 46.1256L102.408 54.99L101.091 60.5436L96.9613 60.152L94.7541 56.8412L92.5825 59.5468L95.5017 62.9288L103.298 63.0356L105.933 53.8864L95.8933 44.6304L97.7089 40.5008ZM109.944 63.0712H111.689L111.333 49.5432H115.711L115.925 63.0712H118.773L117.919 38.4004H115.569L115.711 47.7988L111.297 48.1192L111.048 38.4004H108.983L109.944 63.0712ZM84.8518 77.5688L82.6446 74.5784H74.6346V99H77.3758L77.0198 88.6404L82.6446 88.4624L84.8162 85.828L84.8518 77.5688ZM82.075 84.5464L80.7222 85.828L76.9486 85.9704L76.6282 76.8212H80.5798L82.1818 78.6724L82.075 84.5464ZM94.093 76.9636L94.3778 74.5072L86.0474 74.6852L86.261 76.5364L88.6106 76.6788L89.0734 97.2556L86.7238 97.398L87.0086 99.1068L93.7726 99.0356L94.1642 96.864L91.5298 97.0776L91.9214 76.8568L94.093 76.9636ZM106.8 74.5072L97.5799 74.7208L98.1851 99H107.405L107.619 96.1164L100.463 96.508L100.392 85.65L104.807 85.4008L104.451 83.4428L100.357 83.9412L100.321 77.2484L106.943 77.7468L106.8 74.5072ZM61.8489 110.187L47.7157 111.006L47.8581 112.999H53.3049L52.8421 135.249L55.9037 134.822L56.9717 112.999L61.7065 113.07L61.8489 110.187ZM79.3018 116.951L74.8518 110.685L68.5862 110.258L62.997 116.595L63.2818 128.984L67.8386 135.178L73.855 135.107L78.6254 128.841L79.3018 116.951ZM75.3502 128.378L72.431 132.544L68.9778 132.437L66.379 128.414L65.8094 118.731L70.1526 112.964L72.8226 113.07L75.5638 116.595L75.3502 128.378ZM82.9552 135.178L93.8132 134.786L98.5124 129.233L99.0464 117.983L93.2436 110.899L82.4568 110.507L82.9552 135.178ZM94.2048 127.702L91.5704 131.725L86.1948 131.938L86.5152 113.391L91.2856 113.248L94.8812 119.229L94.2048 127.702ZM102.702 135.178L113.56 134.786L118.259 129.233L118.793 117.983L112.991 110.899L102.204 110.507L102.702 135.178ZM113.952 127.702L111.317 131.725L105.942 131.938L106.262 113.391L111.033 113.248L114.628 119.229L113.952 127.702ZM128.564 110.472L124.932 119.585L120.589 110.614L117.563 110.792L123.686 122.825L123.829 134.964H127.531L127.175 122.896L132.302 110.721L128.564 110.472Z" fill="white"/>
<path d="M94 28.7778C94 31.1096 92.2091 33 90 33C87.7909 33 86 31.1096 86 28.7778C86 26.4459 87.7909 14 90 14C92.2091 14 94 26.4459 94 28.7778Z" fill="#FF3F6D"/>
</g>
<defs>
<clipPath id="clip0_874_2745">
<rect width="180" height="180" fill="white"/>
</clipPath>
</defs>
</svg>
