<svg width="180" height="180" viewBox="0 0 180 180" fill="none" xmlns="http://www.w3.org/2000/svg">
<g clip-path="url(#clip0_874_2745)">
<rect width="180" height="180" fill="#6B291A"/>
<path d="M83 35.5L90.5 100.5H98V35.5H83Z" fill="#F2B133"/>
<path d="M51.5 97L62 136.5L135.5 124.5V91.5L51.5 97Z" fill="#CE6048"/>
<path d="M22 132.5L35 168H152.5L155 113L22 132.5Z" fill="#D7745D"/>
<path d="M59.7482 58.6432L62.347 58.5364L62.5962 78.4368L59.9974 78.2588L59.677 81.2492H69.289V78.864L65.8358 78.6504L66.0494 58.3584L69.111 58.216L69.3602 56.258H59.7482V58.6432ZM76.7675 70.5692L80.6123 81.178L83.1399 81L78.9747 70.3556L81.3243 70.32L83.1399 67.8636V59.5688L80.9683 56.614H73.2787V81H76.0555L75.7351 70.6404L76.7675 70.5692ZM75.3079 58.7856H79.2595L80.8615 60.6724L80.7547 66.5108L79.4019 67.8636L75.6283 68.006L75.3079 58.7856ZM93.4325 58.9636L93.7173 56.5072L85.3869 56.6852L85.6005 58.5364L87.9501 58.6788L88.4129 79.2556L86.0633 79.398L86.3481 81.1068L93.1121 81.0356L93.5037 78.864L90.8693 79.0776L91.2609 58.8568L93.4325 58.9636ZM99.0996 58.5008L103.55 60.7436L105.508 58.2872L101.698 56.1156L95.7176 57.2904L94.3648 64.1256L103.799 72.99L102.482 78.5436L98.352 78.152L96.1448 74.8412L93.9732 77.5468L96.8924 80.9288L104.689 81.0356L107.323 71.8864L97.284 62.6304L99.0996 58.5008ZM111.335 81.0712H113.079L112.723 67.5432H117.102L117.316 81.0712H120.164L119.309 56.4004H116.96L117.102 65.7988L112.688 66.1192L112.438 56.4004H110.374L111.335 81.0712ZM61.7214 92.5784L47.8374 93.3616L47.9798 95.284H53.213L52.7858 117L55.9898 116.608L57.0578 95.284L61.6146 95.3552L61.7214 92.5784ZM79.1801 98.9508L74.7301 92.6852L68.4645 92.258L62.8753 98.5948L63.1601 110.984L67.7169 117.178L73.7333 117.107L78.5037 110.841L79.1801 98.9508ZM75.2285 110.378L72.3093 114.544L68.8561 114.437L66.2573 110.414L65.6877 100.731L70.0309 94.9636L72.7009 95.0704L75.4421 98.5948L75.2285 110.378ZM82.8336 117.178L93.6916 116.786L98.3908 111.233L98.9248 99.9832L93.122 92.8988L82.3352 92.5072L82.8336 117.178ZM94.0832 109.702L91.4488 113.725L86.0732 113.938L86.3936 95.3908L91.164 95.2484L94.7596 101.229L94.0832 109.702ZM102.58 117.178L113.438 116.786L118.138 111.233L118.672 99.9832L112.869 92.8988L102.082 92.5072L102.58 117.178ZM113.83 109.702L111.196 113.725L105.82 113.938L106.14 95.3908L110.911 95.2484L114.506 101.229L113.83 109.702ZM128.442 92.4716L124.811 101.585L120.467 92.614L117.441 92.792L123.565 104.825L123.707 116.964H127.409L127.053 104.896L132.18 92.7208L128.442 92.4716Z" fill="white"/>
<path d="M94 28.7778C94 31.1096 92.2091 33 90 33C87.7909 33 86 31.1096 86 28.7778C86 26.4459 87.7909 14 90 14C92.2091 14 94 26.4459 94 28.7778Z" fill="#FF3F6D"/>
</g>
<defs>
<clipPath id="clip0_874_2745">
<rect width="180" height="180" fill="white"/>
</clipPath>
</defs>
</svg>
