<svg width="180" height="180" viewBox="0 0 180 180" fill="none" xmlns="http://www.w3.org/2000/svg">
<g clip-path="url(#clip0_873_2017)">
<rect width="180" height="180" fill="#1F3930"/>
<path d="M13 182.222C18.6489 176.811 29.2277 169.046 43.0068 162.843C37.4184 155.767 28.6346 144.183 29 142.722C29.4 141.122 35.5 114.723 46.5 109.723C59.5 106.223 82.9 112.822 90.5 117.222C91.2157 117.636 91.8069 118.231 92.2873 118.979C91.8143 107.825 94.5454 97.516 103.5 91.7219C129 75.2219 148.467 86.1954 155.5 91.7219C162.5 97.2227 165 121.133 165 126.723C165 131.77 147.317 157.025 142.472 163.469C150.125 166.806 154.136 170.1 155.5 172.222L167.5 185.722L13 182.222Z" fill="#26871B"/>
<path d="M81 144.223C81 154.716 72.0457 163.223 61 163.223C49.9543 163.223 45.5 154.716 45.5 144.223C45.5 133.729 49.9543 125.223 61 125.223C72.0457 125.223 81 133.729 81 144.223Z" fill="#ABDF93"/>
<path d="M63 144C63 148.418 59.4687 152 55.1127 152C50.7566 152 49 148.418 49 144C49 139.582 50.7566 136 55.1127 136C59.4687 136 63 139.582 63 144Z" fill="#26871B"/>
<path d="M145.5 134.223C145.5 148.03 139.359 159.223 125 159.223C110.641 159.223 99 148.03 99 134.223C99 120.416 110.641 109.223 125 109.223C139.359 109.223 145.5 120.416 145.5 134.223Z" fill="#ABDF93"/>
<path d="M117 136C117 140.418 113.469 144 109.113 144C104.757 144 103 140.418 103 136C103 131.582 104.757 128 109.113 128C113.469 128 117 131.582 117 136Z" fill="#26871B"/>
<path d="M65.9643 55.4876L66.2811 52.7552L57.0147 52.9532L57.2523 55.0124L59.8659 55.1708L60.3807 78.0596L57.7671 78.218L58.0839 80.1188L65.6079 80.0396L66.0435 77.624L63.1131 77.8616L63.5487 55.3688L65.9643 55.4876ZM73.7237 68.3972L78.0005 80.198L80.8121 80L76.1789 68.1596L78.7925 68.12L80.8121 65.3876V56.1608L78.3965 52.874H69.8429V80H72.9317L72.5753 68.4764L73.7237 68.3972ZM72.1001 55.2896H76.4957L78.2777 57.3884L78.1589 63.8828L76.6541 65.3876L72.4565 65.546L72.1001 55.2896ZM92.2612 55.4876L92.578 52.7552L83.3116 52.9532L83.5492 55.0124L86.1628 55.1708L86.6776 78.0596L84.064 78.218L84.3808 80.1188L91.9048 80.0396L92.3404 77.624L89.41 77.8616L89.8456 55.3688L92.2612 55.4876ZM98.565 54.9728L103.515 57.4676L105.693 54.7352L101.456 52.3196L94.803 53.6264L93.2982 61.2296L103.792 71.09L102.327 77.2676L97.7334 76.832L95.2782 73.1492L92.8626 76.1588L96.1098 79.9208L104.782 80.0396L107.713 69.8624L96.5454 59.5664L98.565 54.9728ZM112.175 80.0792H114.115L113.719 65.0312H118.59L118.828 80.0792H121.996L121.045 52.6364H118.432L118.59 63.0908L113.68 63.4472L113.403 52.6364H111.106L112.175 80.0792ZM58.7378 93.0324L58.1834 119.96L61.985 119.683L61.6286 106.14L66.2222 106.259L66.341 104.002L61.589 104.358L61.4306 96.6756L68.0438 95.9628L67.7666 92.5176L58.7378 93.0324ZM74.2845 108.397L78.5613 120.198L81.3729 120L76.7397 108.16L79.3533 108.12L81.3729 105.388V96.1608L78.9573 92.874H70.4037V120H73.4925L73.1361 108.476L74.2845 108.397ZM72.6609 95.2896H77.0565L78.8385 97.3884L78.7197 103.883L77.2149 105.388L73.0173 105.546L72.6609 95.2896ZM101.97 99.9228L97.0195 92.9532L90.0499 92.478L83.8327 99.5268L84.1495 113.308L89.2183 120.198L95.9107 120.119L101.217 113.149L101.97 99.9228ZM97.5739 112.634L94.3267 117.268L90.4855 117.149L87.5947 112.674L86.9611 101.903L91.7923 95.4876L94.7623 95.6064L97.8115 99.5268L97.5739 112.634ZM122.824 96.5964L119.299 93.1116L114.429 92.3196L107.578 95.2104L104.291 105.665L106.746 117.07L114.349 120.634L123.418 117.901L123.141 108.793L121.794 107.209L117.28 106.892V110.615L120.487 110.377L120.289 115.723L114.785 116.99L109.835 113.862L107.617 105.982L110.508 97.23L116.844 95.4084L120.487 98.8932L122.824 96.5964Z" fill="white"/>
</g>
<defs>
<clipPath id="clip0_873_2017">
<rect width="180" height="180" fill="white"/>
</clipPath>
</defs>
</svg>
