<svg width="180" height="180" viewBox="0 0 180 180" fill="none" xmlns="http://www.w3.org/2000/svg">
<g clip-path="url(#clip0_873_1998)">
<rect width="180" height="180" fill="#54B931"/>
<path d="M233.963 7.92948C215.292 7.23038 184.747 31.8828 163.409 57.676C167.83 32.2507 178.572 -43.7306 148.794 -42.9947C113.134 -42.1484 67.2066 -13.5589 66.4758 6.38394C65.8182 24.0823 87.4848 52.3775 111.38 73.5714C82.1504 68.8248 16.3832 61.2082 17.0044 89.1355C17.8447 125.047 46.2342 171.299 66.0374 172.071C84.708 172.77 115.253 148.081 136.591 122.325C132.17 147.75 121.428 223.694 151.206 222.995C186.866 222.149 232.793 193.56 233.561 173.58C234.218 155.918 212.515 127.586 188.62 106.392C217.85 111.176 283.617 118.755 282.996 90.8282C282.046 54.9532 253.62 8.73897 233.963 7.92948Z" fill="#135F28"/>
<path d="M147.5 102C155.508 102 162 95.5081 162 87.5C162 79.4919 155.508 73 147.5 73C139.492 73 133 79.4919 133 87.5C133 95.5081 139.492 102 147.5 102Z" fill="#54B931"/>
<path d="M65.9643 55.4876L66.2811 52.7552L57.0147 52.9532L57.2523 55.0124L59.8659 55.1708L60.3807 78.0596L57.7671 78.218L58.0839 80.1188L65.6079 80.0396L66.0435 77.624L63.1131 77.8616L63.5487 55.3688L65.9643 55.4876ZM73.7237 68.3972L78.0005 80.198L80.8121 80L76.1789 68.1596L78.7925 68.12L80.8121 65.3876V56.1608L78.3965 52.874H69.8429V80H72.9317L72.5753 68.4764L73.7237 68.3972ZM72.1001 55.2896H76.4957L78.2777 57.3884L78.1589 63.8828L76.6541 65.3876L72.4565 65.546L72.1001 55.2896ZM92.2612 55.4876L92.578 52.7552L83.3116 52.9532L83.5492 55.0124L86.1628 55.1708L86.6776 78.0596L84.064 78.218L84.3808 80.1188L91.9048 80.0396L92.3404 77.624L89.41 77.8616L89.8456 55.3688L92.2612 55.4876ZM98.565 54.9728L103.515 57.4676L105.693 54.7352L101.456 52.3196L94.803 53.6264L93.2982 61.2296L103.792 71.09L102.327 77.2676L97.7334 76.832L95.2782 73.1492L92.8626 76.1588L96.1098 79.9208L104.782 80.0396L107.713 69.8624L96.5454 59.5664L98.565 54.9728ZM112.175 80.0792H114.115L113.719 65.0312H118.59L118.828 80.0792H121.996L121.045 52.6364H118.432L118.59 63.0908L113.68 63.4472L113.403 52.6364H111.106L112.175 80.0792ZM51.2291 115.961L43.7051 116.911L44.5367 93.0324L40.2203 92.6364L40.6559 120.158L51.7043 120.277L51.2291 115.961ZM64.3212 92.7552L54.0648 92.9928L54.738 120H64.9944L65.232 116.792L57.2724 117.228L57.1932 105.15L62.1036 104.873L61.7076 102.695L57.1536 103.249L57.114 95.8044L64.4796 96.3588L64.3212 92.7552ZM85.0221 96.5964L81.4977 93.1116L76.6269 92.3196L69.7761 95.2104L66.4893 105.665L68.9445 117.07L76.5477 120.634L85.6161 117.901L85.3389 108.793L83.9925 107.209L79.4781 106.892V110.615L82.6857 110.377L82.4877 115.723L76.9833 116.99L72.0333 113.862L69.8157 105.982L72.7065 97.23L79.0425 95.4084L82.6857 98.8932L85.0221 96.5964ZM99.2032 92.7552L88.9468 92.9928L89.62 120H99.8764L100.114 116.792L92.1544 117.228L92.0752 105.15L96.9856 104.873L96.5896 102.695L92.0356 103.249L91.996 95.8044L99.3616 96.3588L99.2032 92.7552ZM118.003 92.874L113.608 92.676L114.36 112.278L106.797 92.676H102.559L102.955 120.04L106.678 119.96L106.084 98.8536L114.202 119.96H117.33L118.003 92.874ZM123.3 120.198L135.378 119.762L140.606 113.585L141.2 101.071L134.745 93.1908L122.746 92.7552L123.3 120.198ZM135.814 111.882L132.884 116.357L126.904 116.594L127.26 95.9628L132.567 95.8044L136.566 102.457L135.814 111.882Z" fill="white"/>
</g>
<defs>
<clipPath id="clip0_873_1998">
<rect width="180" height="180" fill="white"/>
</clipPath>
</defs>
</svg>
