<svg width="180" height="180" viewBox="0 0 180 180" fill="none" xmlns="http://www.w3.org/2000/svg">
<g clip-path="url(#clip0_874_2795)">
<rect width="180" height="180" fill="#6B291A"/>
<path d="M82.4624 80.4672C74.1974 49.4304 100.044 28.5571 114 22C12.2098 37.2998 22.6497 119.081 40.5934 158.059C57.4497 166.256 92.7937 119.263 82.4624 80.4672Z" fill="#CC7E6D"/>
<path d="M98.5376 99.5328C106.803 130.57 80.9563 151.443 67 158C168.79 142.7 158.35 60.9189 140.407 21.9407C123.55 13.7444 88.2063 60.7367 98.5376 99.5328Z" fill="#CC7E6D"/>
<path d="M65.9643 55.4876L66.2811 52.7552L57.0147 52.9532L57.2523 55.0124L59.8659 55.1708L60.3807 78.0596L57.7671 78.218L58.0839 80.1188L65.6079 80.0396L66.0435 77.624L63.1131 77.8616L63.5487 55.3688L65.9643 55.4876ZM73.7237 68.3972L78.0005 80.198L80.8121 80L76.1789 68.1596L78.7925 68.12L80.8121 65.3876V56.1608L78.3965 52.874H69.8429V80H72.9317L72.5753 68.4764L73.7237 68.3972ZM72.1001 55.2896H76.4957L78.2777 57.3884L78.1589 63.8828L76.6541 65.3876L72.4565 65.546L72.1001 55.2896ZM92.2612 55.4876L92.578 52.7552L83.3116 52.9532L83.5492 55.0124L86.1628 55.1708L86.6776 78.0596L84.064 78.218L84.3808 80.1188L91.9048 80.0396L92.3404 77.624L89.41 77.8616L89.8456 55.3688L92.2612 55.4876ZM98.565 54.9728L103.515 57.4676L105.693 54.7352L101.456 52.3196L94.803 53.6264L93.2982 61.2296L103.792 71.09L102.327 77.2676L97.7334 76.832L95.2782 73.1492L92.8626 76.1588L96.1098 79.9208L104.782 80.0396L107.713 69.8624L96.5454 59.5664L98.565 54.9728ZM112.175 80.0792H114.115L113.719 65.0312H118.59L118.828 80.0792H121.996L121.045 52.6364H118.432L118.59 63.0908L113.68 63.4472L113.403 52.6364H111.106L112.175 80.0792ZM61.2958 116.713L54.2866 117.149L52.3066 104.754L53.9302 97.2696L61.177 96.3192L61.2562 92.2404L52.3858 93.27L48.5842 105.744L51.871 120.317L61.7314 120.079L61.2958 116.713ZM79.9846 99.9228L75.0346 92.9532L68.065 92.478L61.8478 99.5268L62.1646 113.308L67.2334 120.198L73.9258 120.119L79.2322 113.149L79.9846 99.9228ZM75.589 112.634L72.3418 117.268L68.5006 117.149L65.6098 112.674L64.9762 101.903L69.8074 95.4876L72.7774 95.6064L75.8266 99.5268L75.589 112.634ZM84.0485 93.0324L83.4941 119.96L87.2957 119.683L86.9393 106.14L91.5329 106.259L91.6517 104.002L86.8997 104.358L86.7413 96.6756L93.3545 95.9628L93.0773 92.5176L84.0485 93.0324ZM96.2688 93.0324L95.7144 119.96L99.516 119.683L99.1596 106.14L103.753 106.259L103.872 104.002L99.12 104.358L98.9616 96.6756L105.575 95.9628L105.298 92.5176L96.2688 93.0324ZM118.191 92.7552L107.935 92.9928L108.608 120H118.864L119.102 116.792L111.142 117.228L111.063 105.15L115.974 104.873L115.578 102.695L111.024 103.249L110.984 95.8044L118.35 96.3588L118.191 92.7552ZM131.804 92.7552L121.547 92.9928L122.22 120H132.477L132.714 116.792L124.755 117.228L124.676 105.15L129.586 104.873L129.19 102.695L124.636 103.249L124.596 95.8044L131.962 96.3588L131.804 92.7552Z" fill="white"/>
</g>
<defs>
<clipPath id="clip0_874_2795">
<rect width="180" height="180" fill="white"/>
</clipPath>
</defs>
</svg>
