<svg width="180" height="180" viewBox="0 0 180 180" fill="none" xmlns="http://www.w3.org/2000/svg">
<g clip-path="url(#clip0_874_2598)">
<rect width="180" height="180" fill="#713FFF"/>
<path fill-rule="evenodd" clip-rule="evenodd" d="M89.7867 159.917C88.2271 156.464 88.3046 152.912 88.8735 150.636L91.784 151.364C91.3529 153.088 91.2804 155.936 92.5208 158.683C93.7312 161.363 96.2487 164.079 101.255 165.562C108.363 167.668 114.463 172.795 117.167 178.135C118.523 180.812 119.102 183.709 118.295 186.352C117.468 189.058 115.293 191.167 111.837 192.411L110.821 189.589C113.615 188.583 114.939 187.068 115.426 185.476C115.931 183.823 115.635 181.75 114.491 179.49C112.194 174.955 106.795 170.332 100.403 168.438C94.6088 166.722 91.3763 163.437 89.7867 159.917Z" fill="#FFBE3F"/>
<ellipse cx="90" cy="83" rx="47" ry="65" fill="#FFBE3F"/>
<path d="M86.4589 76.9636L86.7437 74.5072L78.4133 74.6852L78.6269 76.5364L80.9765 76.6788L81.4393 97.2556L79.0897 97.398L79.3745 99.1068L86.1385 99.0356L86.5301 96.864L83.8957 97.0776L84.2873 76.8568L86.4589 76.9636ZM102.539 74.1868L88.4058 75.0056L88.5482 76.9992H93.995L93.5322 99.2492L96.5938 98.822L97.6618 76.9992L102.397 77.0704L102.539 74.1868Z" fill="white"/>
<path d="M80.5001 154C82.5 151.5 85.0001 147.833 85.5001 145H92.5003L101 154C93.0001 154.167 78.7332 156.209 80.5001 154Z" fill="#FFBE3F"/>
</g>
<defs>
<clipPath id="clip0_874_2598">
<rect width="180" height="180" fill="white"/>
</clipPath>
</defs>
</svg>
