<svg width="180" height="180" viewBox="0 0 180 180" fill="none" xmlns="http://www.w3.org/2000/svg">
<g clip-path="url(#clip0_874_2315)">
<rect width="180" height="180" fill="#6B291A"/>
<path d="M161.5 97.4997C115.9 79.8997 70.1667 103.166 53 117C45.1667 110.5 30.2 92.3998 33 71.9999C36.5 46.5001 87 27.4999 131.5 33.9999C167.1 39.1999 166.333 78.4998 161.5 97.4997Z" fill="#242320"/>
<path d="M65.3018 74.4956L59.4806 76.9508L56.5502 71.684L53.2634 73.862L57.0254 80H63.7178L68.5094 76.4756L69.2618 52.874H64.6286L65.3018 74.4956ZM90.3293 59.9228L85.3793 52.9532L78.4097 52.478L72.1925 59.5268L72.5093 73.3076L77.5781 80.198L84.2705 80.1188L89.5769 73.1492L90.3293 59.9228ZM85.9337 72.6344L82.6865 77.2676L78.8453 77.1488L75.9545 72.674L75.3209 61.9028L80.1521 55.4876L83.1221 55.6064L86.1713 59.5268L85.9337 72.6344ZM94.908 80.0792H96.8484L96.4524 65.0312H101.323L101.561 80.0792H104.729L103.778 52.6364H101.165L101.323 63.0908L96.4128 63.4472L96.1356 52.6364H93.8388L94.908 80.0792ZM124.906 52.874L120.511 52.676L121.263 72.278L113.699 52.676H109.462L109.858 80.0396L113.581 79.9604L112.987 58.8536L121.105 79.9604H124.233L124.906 52.874ZM49.6943 116.713L42.6851 117.149L40.7051 104.754L42.3287 97.2696L49.5755 96.3192L49.6547 92.2404L40.7843 93.27L36.9827 105.744L40.2695 120.317L50.1299 120.079L49.6943 116.713ZM68.383 99.9228L63.433 92.9532L56.4634 92.478L50.2462 99.5268L50.563 113.308L55.6318 120.198L62.3242 120.119L67.6306 113.149L68.383 99.9228ZM63.9874 112.634L60.7402 117.268L56.899 117.149L54.0082 112.674L53.3746 101.903L58.2058 95.4876L61.1758 95.6064L64.225 99.5268L63.9874 112.634ZM82.9014 115.961L75.3774 116.911L76.209 93.0324L71.8926 92.6364L72.3282 120.158L83.3766 120.277L82.9014 115.961ZM96.7459 115.961L89.2219 116.911L90.0535 93.0324L85.7371 92.6364L86.1727 120.158L97.2211 120.277L96.7459 115.961ZM107.343 95.4876L107.66 92.7552L98.3936 92.9532L98.6312 95.0124L101.245 95.1708L101.76 118.06L99.146 118.218L99.4628 120.119L106.987 120.04L107.422 117.624L104.492 117.862L104.928 95.3688L107.343 95.4876ZM126.666 92.874L122.27 92.676L123.023 112.278L115.459 92.676H111.222L111.618 120.04L115.34 119.96L114.746 98.8536L122.864 119.96H125.993L126.666 92.874ZM134.22 94.9728L139.17 97.4676L141.348 94.7352L137.111 92.3196L130.458 93.6264L128.954 101.23L139.448 111.09L137.982 117.268L133.389 116.832L130.934 113.149L128.518 116.159L131.765 119.921L140.438 120.04L143.368 109.862L132.201 99.5664L134.22 94.9728Z" fill="white"/>
<path d="M79.5 138.5L109 126L87 144L92.5 155.5L59.5 166L57 151.5H84L79.5 138.5Z" fill="#FFDFDF"/>
<path d="M62 165.5L57.5 151.5H52L54 167.5L62 165.5Z" fill="#FF0000"/>
<path d="M57.5 140C60.7 131.6 48.5 131.5 42 132.5C54 133.999 53 140 49 145C45.8 149 48.3333 152.333 50 153.5C48.5 148.5 53.5 150.5 57.5 140Z" fill="#F1E2E2"/>
</g>
<defs>
<clipPath id="clip0_874_2315">
<rect width="180" height="180" fill="white"/>
</clipPath>
</defs>
</svg>
