<svg width="180" height="180" viewBox="0 0 180 180" fill="none" xmlns="http://www.w3.org/2000/svg">
<g clip-path="url(#clip0_873_1993)">
<rect width="180" height="180" fill="#1F3930"/>
<path d="M58.2828 94.4956L52.4616 96.9508L49.5312 91.684L46.2444 93.862L50.0064 100H56.6988L61.4904 96.4756L62.2428 72.874H57.6096L58.2828 94.4956ZM83.3103 79.9228L78.3603 72.9532L71.3907 72.478L65.1735 79.5268L65.4903 93.3076L70.5591 100.198L77.2515 100.119L82.5579 93.1492L83.3103 79.9228ZM78.9147 92.6344L75.6675 97.2676L71.8263 97.1488L68.9355 92.674L68.3019 81.9028L73.1331 75.4876L76.1031 75.6064L79.1523 79.5268L78.9147 92.6344ZM87.2159 72.7552L86.8199 100.079L90.6611 100.04L90.7799 88.318L92.7203 86.4568L103.887 100.673L106.778 98.6536L95.2547 84.556L104.719 75.3688L102.501 73.0324L90.8195 84.7144L90.9383 72.9928L87.2159 72.7552ZM118.655 72.7552L108.399 72.9928L109.072 100H119.328L119.566 96.7924L111.606 97.228L111.527 85.15L116.438 84.8728L116.042 82.6948L111.488 83.2492L111.448 75.8044L118.814 76.3588L118.655 72.7552ZM125.892 88.3972L130.169 100.198L132.98 100L128.347 88.1596L130.961 88.12L132.98 85.3876V76.1608L130.565 72.874H122.011V100H125.1L124.744 88.4764L125.892 88.3972ZM124.268 75.2896H128.664L130.446 77.3884L130.327 83.8828L128.822 85.3876L124.625 85.546L124.268 75.2896Z" fill="white"/>
<path d="M159.5 93C126.7 151.4 60.5 140.667 31.5 128C46.8333 138.167 84.5 156 112.5 146C140.5 136 155.5 106.5 159.5 93Z" fill="#FF0000"/>
<path d="M35.9999 122.5C33.8333 125 30.3999 132 33.9999 140C29.6666 136 23.9999 126.9 35.9999 122.5Z" fill="#FF0000"/>
<path d="M153.664 89.3145C156.679 90.6761 162.73 95.5923 162.815 104.365C165.073 98.9166 166.403 88.2793 153.664 89.3145Z" fill="#FF0000"/>
</g>
<defs>
<clipPath id="clip0_873_1993">
<rect width="180" height="180" fill="white"/>
</clipPath>
</defs>
</svg>
