<svg width="180" height="180" viewBox="0 0 180 180" fill="none" xmlns="http://www.w3.org/2000/svg">
<g clip-path="url(#clip0_873_2107)">
<rect width="180" height="180" fill="#242320"/>
<path d="M71.7252 95.9608L64.2012 96.9112L65.0328 73.0324L60.7164 72.6364L61.152 100.158L72.2004 100.277L71.7252 95.9608ZM78.1339 72.3592L74.0155 99.6832L77.3419 99.8812L79.2823 87.8428L82.6483 87.6052L84.8263 99.6832L87.4795 99.9604L82.5295 72.3592H78.1339ZM79.5991 86.1004L80.9455 78.2992L82.3711 85.9024L79.5991 86.1004ZM98.5347 99.9208L106.692 73.1512L101.188 72.7552L96.7527 94.5748L91.6047 73.1512L86.8923 72.9532L94.5351 100.04L98.5347 99.9208ZM111.933 72.3592L107.815 99.6832L111.141 99.8812L113.081 87.8428L116.447 87.6052L118.625 99.6832L121.279 99.9604L116.329 72.3592H111.933ZM113.398 86.1004L114.745 78.2992L116.17 85.9024L113.398 86.1004Z" fill="white"/>
<path d="M47.5001 123.999C-2.49991 121.999 -12.9999 157.499 -11.9999 175.499L-9.5 177.5C-12 182.333 -17 193 -17 197C-17 201 120.667 198.667 189.5 197L214 184.5L202 9C189.833 18.1667 164.9 43.4 162.5 71C159.5 105.5 110 126.499 47.5001 123.999Z" fill="#FF0000"/>
<path d="M115.5 10.2099C165.5 12.2099 176 -23.2901 175 -41.2901L172.5 -43.291C175 -48.1243 180 -58.791 180 -62.791C180 -66.791 42.3334 -64.4577 -26.5 -62.791L-51 -50.291L-39 125.209C-26.8333 116.042 -1.89999 90.809 0.500005 63.209C3.50001 28.709 52.9999 7.70993 115.5 10.2099Z" fill="#FF0000"/>
<path d="M7.5 142.5C13.6667 137 31 126.9 51 130.5C76 135 19.5 156.5 7.5 142.5Z" fill="#242320"/>
<path d="M87 182.939C103.093 168.739 148.328 142.661 200.523 151.956C265.765 163.575 118.317 219.085 87 182.939Z" fill="#242320"/>
<path d="M50 143.124C52.4759 140.915 59.4351 136.858 67.465 138.304C77.5024 140.112 54.8179 148.747 50 143.124Z" fill="#242320"/>
</g>
<defs>
<clipPath id="clip0_873_2107">
<rect width="180" height="180" fill="white"/>
</clipPath>
</defs>
</svg>
