<svg width="180" height="180" viewBox="0 0 180 180" fill="none" xmlns="http://www.w3.org/2000/svg">
<g clip-path="url(#clip0_874_2396)">
<rect width="180" height="180" fill="#CC4163"/>
<path d="M48.0062 107.713C8.56803 90.7672 7.38123 26.3988 11.7176 -3.66718L137.016 -17.3335C162.806 -24.1667 218.357 -28.6766 234.242 7.94921C254.098 53.7314 206.854 107.713 183.575 107.713C160.296 107.713 134.277 120.013 137.016 135.046C139.755 150.079 126.061 156.912 120.583 135.046C115.106 113.18 97.3039 128.896 48.0062 107.713Z" fill="#EDB527"/>
<path d="M54.1245 56.792L51.0985 56.3648L50.9561 80.9288H62.4905L62.8821 77.44L53.5905 78.2944L54.1245 56.792ZM74.2218 56.5072L65.0014 56.7208L65.6066 81H74.827L75.0406 78.1164L67.885 78.508L67.8138 67.65L72.2282 67.4008L71.8722 65.4428L67.7782 65.9412L67.7426 59.2484L74.3642 59.7468L74.2218 56.5072ZM92.7066 56.258L88.8974 56.6852L85.8002 65.87L82.0266 56.5072L77.8614 56.6496L76.6866 80.9644L80.1042 81.1424L80.1398 61.1352L83.7354 69.8928L86.3698 70.2132L89.823 61.6692L90.1078 80.8932C90.1078 80.8932 93.2762 80.8932 93.8458 80.8576L92.7066 56.258ZM112.013 62.9508L107.563 56.6852L101.298 56.258L95.7084 62.5948L95.9932 74.9836L100.55 81.178L106.566 81.1068L111.337 74.8412L112.013 62.9508ZM108.062 74.3784L105.142 78.5436L101.689 78.4368L99.0904 74.414L98.5208 64.7308L102.864 58.9636L105.534 59.0704L108.275 62.5948L108.062 74.3784ZM129.052 56.614L125.101 56.436L125.777 74.058L118.977 56.436H115.168L115.524 81.0356L118.871 80.9644L118.337 61.9896L125.635 80.9644H128.447L129.052 56.614ZM60.4893 94.5008L64.9393 96.7436L66.8973 94.2872L63.0881 92.1156L57.1073 93.2904L55.7545 100.126L65.1885 108.99L63.8713 114.544L59.7417 114.152L57.5345 110.841L55.3629 113.547L58.2821 116.929L66.0785 117.036L68.7129 107.886L58.6737 98.6304L60.4893 94.5008ZM81.6601 113.369L74.8961 114.223L75.6437 92.7564L71.7633 92.4004L72.1549 117.142L82.0873 117.249L81.6601 113.369ZM87.4215 92.1512L83.7191 116.715L86.7095 116.893L88.4539 106.071L91.4799 105.857L93.4379 116.715L95.8231 116.964L91.3731 92.1512H87.4215ZM88.7387 104.504L89.9491 97.4912L91.2307 104.326L88.7387 104.504ZM102.486 94.5008L106.936 96.7436L108.894 94.2872L105.085 92.1156L99.1041 93.2904L97.7513 100.126L107.185 108.99L105.868 114.544L101.739 114.152L99.5313 110.841L97.3597 113.547L100.279 116.929L108.075 117.036L110.71 107.886L100.671 98.6304L102.486 94.5008ZM114.721 117.071H116.466L116.11 103.543H120.489L120.702 117.071H123.55L122.696 92.4004H120.346L120.489 101.799L116.074 102.119L115.825 92.4004H113.76L114.721 117.071Z" fill="white"/>
</g>
<defs>
<clipPath id="clip0_874_2396">
<rect width="180" height="180" fill="white"/>
</clipPath>
</defs>
</svg>
