<svg width="180" height="180" viewBox="0 0 180 180" fill="none" xmlns="http://www.w3.org/2000/svg">
<g clip-path="url(#clip0_874_2396)">
<rect width="180" height="180" fill="#CC4163"/>
<path d="M48.0062 107.713C8.56803 90.7672 7.38123 26.3988 11.7176 -3.66718L137.016 -17.3335C162.806 -24.1667 218.357 -28.6766 234.242 7.94921C254.098 53.7314 206.854 107.713 183.575 107.713C160.296 107.713 134.277 120.013 137.016 135.046C139.755 150.079 126.061 156.912 120.583 135.046C115.106 113.18 97.3039 128.896 48.0062 107.713Z" fill="#EDB527"/>
<path d="M61.6525 77.3688L54.8885 78.2232L55.6361 56.7564L51.7557 56.4004L52.1473 81.1424L62.0797 81.2492L61.6525 77.3688ZM73.4222 56.5072L64.2018 56.7208L64.807 81H74.0274L74.241 78.1164L67.0854 78.508L67.0142 67.65L71.4286 67.4008L71.0726 65.4428L66.9786 65.9412L66.943 59.2484L73.5646 59.7468L73.4222 56.5072ZM91.907 56.258L88.0978 56.6852L85.0006 65.87L81.227 56.5072L77.0618 56.6496L75.887 80.9644L79.3046 81.1424L79.3402 61.1352L82.9358 69.8928L85.5702 70.2132L89.0234 61.6692L89.3082 80.8932C89.3082 80.8932 92.4766 80.8932 93.0462 80.8576L91.907 56.258ZM111.214 62.9508L106.764 56.6852L100.498 56.258L94.9088 62.5948L95.1936 74.9836L99.7504 81.178L105.767 81.1068L110.537 74.8412L111.214 62.9508ZM107.262 74.3784L104.343 78.5436L100.89 78.4368L98.2908 74.414L97.7212 64.7308L102.064 58.9636L104.734 59.0704L107.476 62.5948L107.262 74.3784ZM128.253 56.614L124.301 56.436L124.977 74.058L118.178 56.436H114.369L114.725 81.0356L118.071 80.9644L117.537 61.9896L124.835 80.9644H127.647L128.253 56.614ZM58.8727 94.5008L63.3227 96.7436L65.2807 94.2872L61.4715 92.1156L55.4907 93.2904L54.1379 100.126L63.5719 108.99L62.2547 114.544L58.1251 114.152L55.9179 110.841L53.7463 113.547L56.6655 116.929L64.4619 117.036L67.0963 107.886L57.0571 98.6304L58.8727 94.5008ZM80.0435 113.369L73.2795 114.223L74.0271 92.7564L70.1467 92.4004L70.5383 117.142L80.4707 117.249L80.0435 113.369ZM93.6288 109.488L91.9556 113.404L87.3988 113.796L84.8712 109.56L85.5476 92.4004L81.9876 92.1868L81.6316 111.624L85.0492 116.929L93.7 117.142L96.904 112.016L97.5448 92.4004L93.2016 92.5784L93.6288 109.488ZM104.103 94.5008L108.553 96.7436L110.511 94.2872L106.702 92.1156L100.721 93.2904L99.3679 100.126L108.802 108.99L107.485 114.544L103.355 114.152L101.148 110.841L98.9763 113.547L101.896 116.929L109.692 117.036L112.326 107.886L102.287 98.6304L104.103 94.5008ZM116.338 117.071H118.082L117.726 103.543H122.105L122.319 117.071H125.167L124.312 92.4004H121.963L122.105 101.799L117.691 102.119L117.442 92.4004H115.377L116.338 117.071Z" fill="white"/>
</g>
<defs>
<clipPath id="clip0_874_2396">
<rect width="180" height="180" fill="white"/>
</clipPath>
</defs>
</svg>
