<svg width="180" height="180" viewBox="0 0 180 180" fill="none" xmlns="http://www.w3.org/2000/svg">
<g clip-path="url(#clip0_874_2436)">
<rect width="180" height="180" fill="#3EC26B"/>
<path d="M124.757 110.642L18.9104 38.1089C18.1517 52.773 23.3426 87.8128 50.1747 110.659C77.0068 133.506 111.076 120.167 124.757 110.642Z" fill="#FFBE3F"/>
<path d="M46.0344 75.9608L38.5104 76.9112L39.342 53.0324L35.0256 52.6364L35.4612 80.1584L46.5096 80.2772L46.0344 75.9608ZM56.6317 55.4876L56.9485 52.7552L47.6821 52.9532L47.9197 55.0124L50.5333 55.1708L51.0481 78.0596L48.4345 78.218L48.7513 80.1188L56.2753 80.0396L56.7109 77.624L53.7805 77.8616L54.2161 55.3688L56.6317 55.4876ZM76.8652 52.478L72.628 52.9532L69.1828 63.17L64.9852 52.7552L60.352 52.9136L59.0452 79.9604L62.8468 80.1584L62.8864 57.9032L66.886 67.6448L69.8164 68.0012L73.6576 58.4972L73.9744 79.8812C73.9744 79.8812 77.4988 79.8812 78.1324 79.8416L76.8652 52.478ZM98.3411 59.9228L93.3911 52.9532L86.4215 52.478L80.2043 59.5268L80.5211 73.3076L85.5899 80.198L92.2823 80.1188L97.5887 73.1492L98.3411 59.9228ZM93.9455 72.6344L90.6983 77.2676L86.8571 77.1488L83.9663 72.674L83.3327 61.9028L88.1639 55.4876L91.1339 55.6064L94.1831 59.5268L93.9455 72.6344ZM117.295 52.874L112.899 52.676L113.651 72.278L106.088 52.676H101.851L102.247 80.0396L105.969 79.9604L105.375 58.8536L113.493 79.9604H116.621L117.295 52.874ZM133.561 76.7132L126.552 77.1488L124.572 64.754L126.195 57.2696L133.442 56.3192L133.521 52.2404L124.651 53.27L120.849 65.744L124.136 80.3168L133.997 80.0792L133.561 76.7132ZM146.37 52.7552L136.114 52.9928L136.787 80H147.043L147.281 76.7924L139.321 77.228L139.242 65.15L144.153 64.8728L143.757 62.6948L139.203 63.2492L139.163 55.8044L146.529 56.3588L146.37 52.7552ZM80.1623 115.961L72.6383 116.911L73.4699 93.0324L69.1535 92.6364L69.5891 120.158L80.6375 120.277L80.1623 115.961ZM94.0069 115.961L86.4829 116.911L87.3145 93.0324L82.9981 92.6364L83.4337 120.158L94.4821 120.277L94.0069 115.961ZM112.089 99.9228L107.139 92.9532L100.169 92.478L93.9521 99.5268L94.2689 113.308L99.3377 120.198L106.03 120.119L111.337 113.149L112.089 99.9228ZM107.693 112.634L104.446 117.268L100.605 117.149L97.7141 112.674L97.0805 101.903L101.912 95.4876L104.882 95.6064L107.931 99.5268L107.693 112.634Z" fill="white"/>
<path d="M171.5 112L63 180.5C76.1667 187 110.4 196.1 142 180.5C173.6 164.9 174.833 128.333 171.5 112Z" fill="#FFEC3F"/>
<path d="M41.0546 -64.4065L114.179 41.0321C120.104 27.5969 127.716 -6.99773 110.765 -37.8941C93.8144 -68.7905 57.2286 -68.4425 41.0546 -64.4065Z" fill="#FFEC3F"/>
</g>
<defs>
<clipPath id="clip0_874_2436">
<rect width="180" height="180" fill="white"/>
</clipPath>
</defs>
</svg>
