<svg width="180" height="180" viewBox="0 0 180 180" fill="none" xmlns="http://www.w3.org/2000/svg">
<g clip-path="url(#clip0_874_2444)">
<rect width="180" height="180" fill="#6B291A"/>
<path fill-rule="evenodd" clip-rule="evenodd" d="M107.094 13.9037C116.521 8.00897 127.192 7.25623 137.363 9.47181C156.025 13.5368 167.899 27.8372 175.29 41.8086C182.832 56.0667 187.702 73.5765 190.932 91.004C197.427 126.049 198.19 165.901 196.978 191.955L156.022 190.05C157.144 165.936 156.357 129.438 150.618 98.4753C147.731 82.8986 143.814 69.9896 139.048 60.98C134.257 51.9233 130.379 49.966 128.761 49.5614C128.658 49.7914 128.548 50.0527 128.431 50.3484C125.812 56.9915 124.706 68.1467 123.71 84.1499C123.637 85.3252 123.565 86.5298 123.49 87.759C122.682 101.161 121.697 117.481 117.99 130.572C115.91 137.916 112.433 146.406 105.907 153.253C98.7214 160.791 89.0925 165.001 78 165.001C61.9011 165.001 48.4011 159.528 37.9603 150.066C27.9683 141.011 21.8406 129.291 17.9512 118.114C10.2885 96.0931 9.5 70.6932 9.5 55.0021H50.5C50.5 70.311 51.4615 89.6604 56.6738 104.639C59.2219 111.962 62.313 116.804 65.4929 119.686C68.0468 122 71.3826 123.759 76.8351 123.978C76.8657 123.919 76.8973 123.857 76.9298 123.792C77.4108 122.828 77.9731 121.406 78.5415 119.399C80.9798 110.79 81.723 98.8027 82.6636 83.6317C82.7052 82.9617 82.7471 82.2854 82.7896 81.6029C83.6685 67.4815 84.8129 49.1995 90.2878 35.3116C93.1874 27.9564 98.1526 19.4949 107.094 13.9037ZM129.578 48.072C129.578 48.0722 129.575 48.0763 129.568 48.0842C129.575 48.0758 129.578 48.0719 129.578 48.072ZM127.134 49.3164C127.127 49.3168 127.124 49.3169 127.124 49.3169C127.124 49.3168 127.127 49.3166 127.134 49.3164Z" fill="#B842A5"/>
<path d="M66.3565 75.9608L58.8325 76.9112L59.6641 53.0324L55.3477 52.6364L55.7833 80.1584L66.8317 80.2772L66.3565 75.9608ZM84.4385 59.9228L79.4885 52.9532L72.5189 52.478L66.3017 59.5268L66.6185 73.3076L71.6873 80.198L78.3797 80.1188L83.6861 73.1492L84.4385 59.9228ZM80.0429 72.6344L76.7957 77.2676L72.9545 77.1488L70.0637 72.674L69.4301 61.9028L74.2613 55.4876L77.2313 55.6064L80.2805 59.5268L80.0429 72.6344ZM103.392 52.874L98.9965 52.676L99.7489 72.278L92.1853 52.676H87.9481L88.3441 80.0396L92.0665 79.9604L91.4725 58.8536L99.5905 79.9604H102.719L103.392 52.874ZM125.48 56.5964L121.955 53.1116L117.084 52.3196L110.234 55.2104L106.947 65.6648L109.402 77.0696L117.005 80.6336L126.074 77.9012L125.796 68.7932L124.45 67.2092L119.936 66.8924V70.6148L123.143 70.3772L122.945 75.7232L117.441 76.9904L112.491 73.862L110.273 65.9816L113.164 57.23L119.5 55.4084L123.143 58.8932L125.48 56.5964ZM50.9083 95.4876L51.2251 92.7552L41.9587 92.9532L42.1963 95.0124L44.8099 95.1708L45.3247 118.06L42.7111 118.218L43.0279 120.119L50.5519 120.04L50.9875 117.624L48.0571 117.862L48.4927 95.3688L50.9083 95.4876ZM57.2121 94.9728L62.1621 97.4676L64.3401 94.7352L60.1029 92.3196L53.4501 93.6264L51.9453 101.23L62.4393 111.09L60.9741 117.268L56.3805 116.832L53.9253 113.149L51.5097 116.159L54.7569 119.921L63.4293 120.04L66.3597 109.862L55.1925 99.5664L57.2121 94.9728ZM80.7618 115.961L73.2378 116.911L74.0694 93.0324L69.753 92.6364L70.1886 120.158L81.237 120.277L80.7618 115.961ZM87.1705 92.3592L83.0521 119.683L86.3785 119.881L88.3189 107.843L91.6849 107.605L93.8629 119.683L96.5161 119.96L91.5661 92.3592H87.1705ZM88.6357 106.1L89.9821 98.2992L91.4077 105.902L88.6357 106.1ZM114.897 92.874L110.501 92.676L111.254 112.278L103.69 92.676H99.4529L99.8489 120.04L103.571 119.96L102.977 98.8536L111.095 119.96H114.224L114.897 92.874ZM120.194 120.198L132.272 119.762L137.499 113.585L138.093 101.071L131.638 93.1908L119.64 92.7552L120.194 120.198ZM132.708 111.882L129.777 116.357L123.798 116.594L124.154 95.9628L129.46 95.8044L133.46 102.457L132.708 111.882Z" fill="white"/>
</g>
<defs>
<clipPath id="clip0_874_2444">
<rect width="180" height="180" fill="white"/>
</clipPath>
</defs>
</svg>
