<svg width="180" height="180" viewBox="0 0 180 180" fill="none" xmlns="http://www.w3.org/2000/svg">
<g clip-path="url(#clip0_873_1912)">
<rect width="180" height="180" fill="#3EC26B"/>
<path d="M90.0069 30H49L55.8665 161.507L54.4932 180H90.0069H125.507L124.133 161.507L131 30H90.0069Z" fill="#3A6227"/>
<path d="M132 10.5C121.6 13.7 112 29.5 108.5 37H105C106.167 32 110.5 19.7 118.5 10.5C128.5 -0.99998 145 6.50002 132 10.5Z" fill="#3A6227"/>
<path d="M66.4465 75.9608L58.9225 76.9112L59.7541 53.0324L55.4377 52.6364L55.8733 80.1584L66.9217 80.2772L66.4465 75.9608ZM84.5285 59.9228L79.5785 52.9532L72.6089 52.478L66.3917 59.5268L66.7085 73.3076L71.7773 80.198L78.4697 80.1188L83.7761 73.1492L84.5285 59.9228ZM80.1329 72.6344L76.8857 77.2676L73.0445 77.1488L70.1537 72.674L69.5201 61.9028L74.3513 55.4876L77.3213 55.6064L80.3705 59.5268L80.1329 72.6344ZM103.482 52.874L99.0865 52.676L99.8389 72.278L92.2753 52.676H88.0381L88.4341 80.0396L92.1565 79.9604L91.5625 58.8536L99.6805 79.9604H102.809L103.482 52.874ZM125.57 56.5964L122.045 53.1116L117.174 52.3196L110.324 55.2104L107.037 65.6648L109.492 77.0696L117.095 80.6336L126.164 77.9012L125.886 68.7932L124.54 67.2092L120.026 66.8924V70.6148L123.233 70.3772L123.035 75.7232L117.531 76.9904L112.581 73.862L110.363 65.9816L113.254 57.23L119.59 55.4084L123.233 58.8932L125.57 56.5964ZM50.9983 95.4876L51.3151 92.7552L42.0487 92.9532L42.2863 95.0124L44.8999 95.1708L45.4147 118.06L42.8011 118.218L43.1179 120.119L50.6419 120.04L51.0775 117.624L48.1471 117.862L48.5827 95.3688L50.9983 95.4876ZM57.3021 94.9728L62.2521 97.4676L64.4301 94.7352L60.1929 92.3196L53.5401 93.6264L52.0353 101.23L62.5293 111.09L61.0641 117.268L56.4705 116.832L54.0153 113.149L51.5997 116.159L54.8469 119.921L63.5193 120.04L66.4497 109.862L55.2825 99.5664L57.3021 94.9728ZM80.8517 115.961L73.3277 116.911L74.1593 93.0324L69.8429 92.6364L70.2785 120.158L81.3269 120.277L80.8517 115.961ZM87.2604 92.3592L83.142 119.683L86.4684 119.881L88.4088 107.843L91.7748 107.605L93.9528 119.683L96.606 119.96L91.656 92.3592H87.2604ZM88.7256 106.1L90.072 98.2992L91.4976 105.902L88.7256 106.1ZM114.987 92.874L110.591 92.676L111.344 112.278L103.78 92.676H99.5429L99.9389 120.04L103.661 119.96L103.067 98.8536L111.185 119.96H114.314L114.987 92.874ZM120.284 120.198L132.362 119.762L137.589 113.585L138.183 101.071L131.728 93.1908L119.73 92.7552L120.284 120.198ZM132.798 111.882L129.867 116.357L123.888 116.594L124.244 95.9628L129.55 95.8044L133.55 102.457L132.798 111.882Z" fill="white"/>
</g>
<defs>
<clipPath id="clip0_873_1912">
<rect width="180" height="180" fill="white"/>
</clipPath>
</defs>
</svg>
