<svg width="180" height="180" viewBox="0 0 180 180" fill="none" xmlns="http://www.w3.org/2000/svg">
<g clip-path="url(#clip0_873_1912)">
<rect width="180" height="180" fill="#3EC26B"/>
<path d="M90.0069 30H49L55.8665 161.507L54.4932 180H90.0069H125.507L124.133 161.507L131 30H90.0069Z" fill="#3A6227"/>
<path d="M132 10.5C121.6 13.7 112 29.5 108.5 37H105C106.167 32 110.5 19.7 118.5 10.5C128.5 -0.99998 145 6.50002 132 10.5Z" fill="#3A6227"/>
<path d="M57.2412 33.072L53.8752 32.5968L53.7168 59.9208L66.5472 59.9208L66.9828 56.04L56.6472 56.9904L57.2412 33.072ZM86.2494 39.9228L81.2994 32.9532L74.3298 32.478L68.1126 39.5268L68.4294 53.3076L73.4982 60.198L80.1906 60.1188L85.497 53.1492L86.2494 39.9228ZM81.8538 52.6344L78.6066 57.2676L74.7654 57.1488L71.8746 52.674L71.241 41.9028L76.0722 35.4876L79.0422 35.6064L82.0914 39.5268L81.8538 52.6344ZM105.203 32.874L100.807 32.676L101.56 52.278L93.9962 32.676H89.759L90.155 60.0396L93.8774 59.9604L93.2834 38.8536L101.401 59.9604H104.53L105.203 32.874ZM127.29 36.5964L123.766 33.1116L118.895 32.3196L112.044 35.2104L108.758 45.6648L111.213 57.0696L118.816 60.6336L127.884 57.9012L127.607 48.7932L126.261 47.2092L121.746 46.8924V50.6148L124.954 50.3772L124.756 55.7232L119.252 56.9904L114.302 53.862L112.084 45.9816L114.975 37.23L121.311 35.4084L124.954 38.8932L127.29 36.5964ZM27.3311 75.4876L27.6479 72.7552L18.3815 72.9532L18.6191 75.0124L21.2327 75.1708L21.7475 98.0596L19.1339 98.218L19.4507 100.119L26.9747 100.04L27.4103 97.624L24.4799 97.8616L24.9155 75.3688L27.3311 75.4876ZM33.6349 74.9728L38.5849 77.4676L40.7629 74.7352L36.5257 72.3196L29.8729 73.6264L28.3681 81.2296L38.8621 91.09L37.3969 97.2676L32.8033 96.832L30.3481 93.1492L27.9325 96.1588L31.1797 99.9208L39.8521 100.04L42.7825 89.8624L31.6153 79.5664L33.6349 74.9728ZM57.1846 95.9608L49.6606 96.9112L50.4922 73.0324L46.1758 72.6364L46.6114 100.158L57.6598 100.277L57.1846 95.9608ZM63.5933 72.3592L59.4749 99.6832L62.8013 99.8812L64.7417 87.8428L68.1077 87.6052L70.2857 99.6832L72.9389 99.9604L67.9889 72.3592H63.5933ZM65.0585 86.1004L66.4049 78.2992L67.8305 85.9024L65.0585 86.1004ZM91.3198 72.874L86.9242 72.676L87.6766 92.278L80.113 72.676H75.8758L76.2718 100.04L79.9942 99.9604L79.4002 78.8536L87.5182 99.9604H90.6466L91.3198 72.874ZM96.6169 100.198L108.695 99.7624L113.922 93.5848L114.516 81.0712L108.061 73.1908L96.0625 72.7552L96.6169 100.198ZM109.13 91.882L106.2 96.3568L100.22 96.5944L100.577 75.9628L105.883 75.8044L109.883 82.4572L109.13 91.882ZM134.646 75.4876L134.962 72.7552L125.696 72.9532L125.934 75.0124L128.547 75.1708L129.062 98.0596L126.448 98.218L126.765 100.119L134.289 100.04L134.725 97.624L131.794 97.8616L132.23 75.3688L134.646 75.4876ZM149.197 96.7132L142.188 97.1488L140.208 84.754L141.831 77.2696L149.078 76.3192L149.157 72.2404L140.287 73.27L136.485 85.744L139.772 100.317L149.633 100.079L149.197 96.7132ZM162.006 72.7552L151.75 72.9928L152.423 100H162.68L162.917 96.7924L154.958 97.228L154.878 85.15L159.789 84.8728L159.393 82.6948L154.839 83.2492L154.799 75.8044L162.165 76.3588L162.006 72.7552ZM83.2711 112.399L67.5499 113.31L67.7083 115.527H73.7671L73.2523 140.277L76.6579 139.802L77.8459 115.527L83.1127 115.606L83.2711 112.399ZM96.0321 112.755L85.7757 112.993L86.4489 140H96.7053L96.9429 136.792L88.9833 137.228L88.9041 125.15L93.8145 124.873L93.4185 122.695L88.8645 123.249L88.8249 115.804L96.1905 116.359L96.0321 112.755ZM102.961 112.359L98.8428 139.683L102.169 139.881L104.11 127.843L107.476 127.605L109.654 139.683L112.307 139.96L107.357 112.359H102.961ZM104.426 126.1L105.773 118.299L107.198 125.902L104.426 126.1Z" fill="white"/>
</g>
<defs>
<clipPath id="clip0_873_1912">
<rect width="180" height="180" fill="white"/>
</clipPath>
</defs>
</svg>
