<svg width="180" height="180" viewBox="0 0 180 180" fill="none" xmlns="http://www.w3.org/2000/svg">
<g clip-path="url(#clip0_874_2336)">
<rect width="180" height="180" fill="#B842A5"/>
<path d="M43.9207 95.5228C43.9207 95.5228 20.0666 81.0916 14.1599 66.9503C8.25314 52.8091 14.1599 25.5096 35.6159 25.5096C57.072 25.5096 62.9534 49.2423 62.9534 49.2423C62.9534 49.2423 65.3262 18.3886 89.1046 11.2675C112.883 4.14649 131.853 27.8791 116.404 61.1527C100.956 94.4263 77.1902 111 77.1902 111L43.9207 95.5228Z" fill="#4192B5"/>
<path d="M90.4263 136.344C90.4263 136.344 85.9442 120.344 89.1637 111.775C92.3832 103.207 106.057 93.7535 115.349 102.461C124.641 111.169 117.558 123.946 117.558 123.946C117.558 123.946 131.156 111.485 144.388 118.056C157.619 124.628 156.205 142.713 135.954 150.915C115.703 159.117 98.6202 156.653 98.6202 156.653L90.4263 136.344Z" fill="#FFC81A"/>
<path d="M39.6455 53.072L36.2795 52.5968L36.1211 79.9208H48.9515L49.3871 76.04L39.0515 76.9904L39.6455 53.072ZM68.6537 59.9228L63.7037 52.9532L56.7341 52.478L50.5169 59.5268L50.8337 73.3076L55.9025 80.198L62.5949 80.1188L67.9013 73.1492L68.6537 59.9228ZM64.2581 72.6344L61.0109 77.2676L57.1697 77.1488L54.2789 72.674L53.6453 61.9028L58.4765 55.4876L61.4465 55.6064L64.4957 59.5268L64.2581 72.6344ZM80.707 79.9208L88.8646 53.1512L83.3602 52.7552L78.925 74.5748L73.777 53.1512L69.0646 52.9532L76.7074 80.0396L80.707 79.9208ZM102.065 52.7552L91.8086 52.9928L92.4818 80H102.738L102.976 76.7924L95.0162 77.228L94.937 65.15L99.8474 64.8728L99.4514 62.6948L94.8974 63.2492L94.8578 55.8044L102.223 56.3588L102.065 52.7552ZM130.632 52.478L126.395 52.9532L122.949 63.17L118.752 52.7552L114.119 52.9136L112.812 79.9604L116.613 80.1584L116.653 57.9032L120.653 67.6448L123.583 68.0012L127.424 58.4972L127.741 79.8812C127.741 79.8812 131.265 79.8812 131.899 79.8416L130.632 52.478ZM145.455 52.7552L135.198 52.9928L135.872 80H146.128L146.366 76.7924L138.406 77.228L138.327 65.15L143.237 64.8728L142.841 62.6948L138.287 63.2492L138.248 55.8044L145.613 56.3588L145.455 52.7552ZM53.6353 92.3592L49.5169 119.683L52.8433 119.881L54.7837 107.843L58.1497 107.605L60.3277 119.683L62.9809 119.96L58.0309 92.3592H53.6353ZM55.1005 106.1L56.4469 98.2992L57.8725 105.902L55.1005 106.1ZM83.2626 96.5964L79.7382 93.1116L74.8674 92.3196L68.0166 95.2104L64.7298 105.665L67.185 117.07L74.7882 120.634L83.8565 117.901L83.5794 108.793L82.233 107.209L77.7186 106.892V110.615L80.9261 110.377L80.7282 115.723L75.2238 116.99L70.2738 113.862L68.0562 105.982L70.947 97.23L77.283 95.4084L80.9261 98.8932L83.2626 96.5964ZM89.4841 92.3592L85.3657 119.683L88.6921 119.881L90.6325 107.843L93.9985 107.605L96.1765 119.683L98.8297 119.96L93.8797 92.3592H89.4841ZM90.9493 106.1L92.2957 98.2992L93.7213 105.902L90.9493 106.1ZM109.528 95.4876L109.845 92.7552L100.579 92.9532L100.816 95.0124L103.43 95.1708L103.945 118.06L101.331 118.218L101.648 120.119L109.172 120.04L109.607 117.624L106.677 117.862L107.113 95.3688L109.528 95.4876ZM128.851 92.874L124.455 92.676L125.208 112.278L117.644 92.676H113.407L113.803 120.04L117.525 119.96L116.931 98.8536L125.049 119.96H128.178L128.851 92.874Z" fill="white"/>
</g>
<defs>
<clipPath id="clip0_874_2336">
<rect width="180" height="180" fill="white"/>
</clipPath>
</defs>
</svg>
