<svg width="180" height="180" viewBox="0 0 180 180" fill="none" xmlns="http://www.w3.org/2000/svg">
<g clip-path="url(#clip0_874_2261)">
<rect width="180" height="180" fill="#4B93C7"/>
<path d="M12.5 117L57.5 20L186 52L135.5 132L149 96L82.5 194L24 136L64.5 90L27 117H12.5Z" fill="#38ACFF"/>
<path d="M52.9786 52.478L48.7414 52.9532L45.2962 63.17L41.0986 52.7552L36.4654 52.9136L35.1586 79.9604L38.9602 80.1584L38.9998 57.9032L42.9994 67.6448L45.9298 68.0012L49.771 58.4972L50.0878 79.8812C50.0878 79.8812 53.6122 79.8812 54.2458 79.8416L52.9786 52.478ZM59.8421 52.3592L55.7237 79.6832L59.0501 79.8812L60.9905 67.8428L64.3565 67.6052L66.5345 79.6832L69.1877 79.9604L64.2377 52.3592H59.8421ZM61.3073 66.1004L62.6537 58.2992L64.0793 65.9024L61.3073 66.1004ZM89.4694 56.5964L85.945 53.1116L81.0742 52.3196L74.2234 55.2104L70.9366 65.6648L73.3918 77.0696L80.995 80.6336L90.0634 77.9012L89.7862 68.7932L88.4398 67.2092L83.9254 66.8924V70.6148L87.133 70.3772L86.935 75.7232L81.4306 76.9904L76.4806 73.862L74.263 65.9816L77.1538 57.23L83.4898 55.4084L87.133 58.8932L89.4694 56.5964ZM101.156 55.4876L101.473 52.7552L92.2061 52.9532L92.4437 55.0124L95.0573 55.1708L95.5721 78.0596L92.9585 78.218L93.2753 80.1188L100.799 80.0396L101.235 77.624L98.3045 77.8616L98.7401 55.3688L101.156 55.4876ZM115.707 76.7132L108.698 77.1488L106.718 64.754L108.342 57.2696L115.588 56.3192L115.668 52.2404L106.797 53.27L102.996 65.744L106.282 80.3168L116.143 80.0792L115.707 76.7132ZM122.181 52.3592L118.063 79.6832L121.389 79.8812L123.33 67.8428L126.696 67.6052L128.874 79.6832L131.527 79.9604L126.577 52.3592H122.181ZM123.646 66.1004L124.993 58.2992L126.418 65.9024L123.646 66.1004ZM145.472 75.9608L137.948 76.9112L138.78 53.0324L134.464 52.6364L134.899 80.1584L145.948 80.2772L145.472 75.9608ZM53.8458 93.0324L53.2914 119.96L57.093 119.683L56.7366 106.14L61.3302 106.259L61.449 104.002L56.697 104.358L56.5386 96.6756L63.1518 95.9628L62.8746 92.5176L53.8458 93.0324ZM69.3925 108.397L73.6693 120.198L76.4809 120L71.8477 108.16L74.4613 108.12L76.4809 105.388V96.1608L74.0653 92.874H65.5117V120H68.6005L68.2441 108.476L69.3925 108.397ZM67.7689 95.2896H72.1645L73.9465 97.3884L73.8277 103.883L72.3229 105.388L68.1253 105.546L67.7689 95.2896ZM97.0775 99.9228L92.1275 92.9532L85.1579 92.478L78.9407 99.5268L79.2575 113.308L84.3263 120.198L91.0187 120.119L96.3251 113.149L97.0775 99.9228ZM92.6819 112.634L89.4347 117.268L85.5935 117.149L82.7027 112.674L82.0691 101.903L86.9003 95.4876L89.8703 95.6064L92.9195 99.5268L92.6819 112.634ZM105.062 94.9728L110.012 97.4676L112.19 94.7352L107.953 92.3196L101.3 93.6264L99.7951 101.23L110.289 111.09L108.824 117.268L104.23 116.832L101.775 113.149L99.3595 116.159L102.607 119.921L111.279 120.04L114.209 109.862L103.042 99.5664L105.062 94.9728ZM129.136 92.3988L113.415 93.3096L113.573 95.5272H119.632L119.117 120.277L122.523 119.802L123.711 95.5272L128.977 95.6064L129.136 92.3988Z" fill="white"/>
</g>
<defs>
<clipPath id="clip0_874_2261">
<rect width="180" height="180" fill="white"/>
</clipPath>
</defs>
</svg>
