<svg width="180" height="180" viewBox="0 0 180 180" fill="none" xmlns="http://www.w3.org/2000/svg">
<g clip-path="url(#clip0_874_2261)">
<rect width="180" height="180" fill="#4B93C7"/>
<path d="M12.5 117L57.5 20L186 52L135.5 132L149 96L82.5 194L24 136L64.5 90L27 117H12.5Z" fill="#38ACFF"/>
<path d="M49.2341 80.3168L52.5605 57.2696L58.4213 71.486H60.9161L67.5293 58.3388L69.6677 80.2772L73.4693 79.9604L70.6181 53.468L67.6877 52.9928L59.7281 68.5952L53.3525 52.9136L50.4617 53.3096L45.1553 79.7228L49.2341 80.3168ZM79.0427 52.3592L74.9243 79.6832L78.2507 79.8812L80.1911 67.8428L83.5571 67.6052L85.7351 79.6832L88.3883 79.9604L83.4383 52.3592H79.0427ZM80.5079 66.1004L81.8543 58.2992L83.2799 65.9024L80.5079 66.1004ZM108.67 56.5964L105.146 53.1116L100.275 52.3196L93.424 55.2104L90.1372 65.6648L92.5924 77.0696L100.196 80.6336L109.264 77.9012L108.987 68.7932L107.64 67.2092L103.126 66.8924V70.6148L106.334 70.3772L106.136 75.7232L100.631 76.9904L95.6812 73.862L93.4636 65.9816L96.3544 57.23L102.69 55.4084L106.334 58.8932L108.67 56.5964ZM120.356 55.4876L120.673 52.7552L111.407 52.9532L111.644 55.0124L114.258 55.1708L114.773 78.0596L112.159 78.218L112.476 80.1188L120 80.0396L120.436 77.624L117.505 77.8616L117.941 55.3688L120.356 55.4876ZM134.908 76.7132L127.899 77.1488L125.919 64.754L127.542 57.2696L134.789 56.3192L134.868 52.2404L125.998 53.27L122.196 65.744L125.483 80.3168L135.343 80.0792L134.908 76.7132ZM53.8458 93.0324L53.2914 119.96L57.093 119.683L56.7366 106.14L61.3302 106.259L61.449 104.002L56.697 104.358L56.5386 96.6756L63.1518 95.9628L62.8746 92.5176L53.8458 93.0324ZM69.3925 108.397L73.6693 120.198L76.4809 120L71.8477 108.16L74.4613 108.12L76.4809 105.388V96.1608L74.0653 92.874H65.5117V120H68.6005L68.2441 108.476L69.3925 108.397ZM67.7689 95.2896H72.1645L73.9465 97.3884L73.8277 103.883L72.3229 105.388L68.1253 105.546L67.7689 95.2896ZM97.0775 99.9228L92.1275 92.9532L85.1579 92.478L78.9407 99.5268L79.2575 113.308L84.3263 120.198L91.0187 120.119L96.3251 113.149L97.0775 99.9228ZM92.6819 112.634L89.4347 117.268L85.5935 117.149L82.7027 112.674L82.0691 101.903L86.9003 95.4876L89.8703 95.6064L92.9195 99.5268L92.6819 112.634ZM105.062 94.9728L110.012 97.4676L112.19 94.7352L107.953 92.3196L101.3 93.6264L99.7951 101.23L110.289 111.09L108.824 117.268L104.23 116.832L101.775 113.149L99.3595 116.159L102.607 119.921L111.279 120.04L114.209 109.862L103.042 99.5664L105.062 94.9728ZM129.136 92.3988L113.415 93.3096L113.573 95.5272H119.632L119.117 120.277L122.523 119.802L123.711 95.5272L128.977 95.6064L129.136 92.3988Z" fill="white"/>
</g>
<defs>
<clipPath id="clip0_874_2261">
<rect width="180" height="180" fill="white"/>
</clipPath>
</defs>
</svg>
