<svg width="180" height="180" viewBox="0 0 180 180" fill="none" xmlns="http://www.w3.org/2000/svg">
<g clip-path="url(#clip0_873_1916)">
<rect width="180" height="180" fill="#85263D"/>
<g clip-path="url(#clip1_873_1916)">
<path d="M46 196V88.1455L104 87L100.879 196H46Z" fill="#B842A5"/>
<path d="M26 233V125.145L84 124L80.8785 233H26Z" fill="#B842A5"/>
<path d="M-3 205V97.1455L13 96L12.1389 205H-3Z" fill="#B842A5"/>
<path d="M60.6742 92.4779L58.1143 64.3294H68.3542C68.3542 64.3294 65.7943 53.2202 74.7514 53.6873C83.7085 54.1544 81.1485 61.799 81.1485 61.799H91.3826V95.032L60.6742 92.4779Z" fill="#B842A5"/>
<path d="M60.6743 61.7694H66.2851C66.2851 61.7694 66.2851 51.8604 76.0995 51.8604V38.741C76.0995 38.741 60.6743 33.621 60.6743 61.7694Z" fill="#B842A5"/>
<path d="M90.1235 61.7694H84.5127C84.5127 61.7694 84.5126 51.8604 74.6982 51.8604V38.741C74.6982 38.741 90.1235 33.621 90.1235 61.7694Z" fill="#B842A5"/>
<path d="M65.7944 45.3688C65.7944 45.3688 65.7943 23.3868 75.2954 23.3868C84.7964 23.3868 84.8024 42.6195 84.8024 42.6195L65.7944 45.3688Z" fill="#B842A5"/>
<path d="M71.1152 26.7982C71.1152 26.7982 71.1151 17.1257 75.2951 17.1257C79.4751 17.1257 79.4811 25.5922 79.4811 25.5922L71.1152 26.7982Z" fill="#B842A5"/>
<path d="M76.0995 19.5321C75.9339 18.7635 74.7515 -17 74.7515 -17V19.0295L76.0995 19.5321Z" fill="#B842A5"/>
<path d="M126.823 122.718H106.722V208.395H126.823V122.718Z" fill="#B842A5"/>
<path d="M120 144H97V190H120V144Z" fill="#B842A5"/>
<path d="M128.553 112.769H122.05V183.125H128.553V112.769Z" fill="#B842A5"/>
<path d="M132.101 185.49H179.99V115.134L132.101 119.864V185.49Z" fill="#B842A5"/>
</g>
<path d="M33.0819 72.478L28.8447 72.9532L25.3995 83.17L21.2019 72.7552L16.5687 72.9136L15.2619 99.9604L19.0635 100.158L19.1031 77.9032L23.1027 87.6448L26.0331 88.0012L29.8743 78.4972L30.1911 99.8812C30.1911 99.8812 33.7155 99.8812 34.3491 99.8416L33.0819 72.478ZM39.9454 72.3592L35.827 99.6832L39.1534 99.8812L41.0938 87.8428L44.4598 87.6052L46.6378 99.6832L49.291 99.9604L44.341 72.3592H39.9454ZM41.4106 86.1004L42.757 78.2992L44.1826 85.9024L41.4106 86.1004ZM67.6719 72.874L63.2763 72.676L64.0287 92.278L56.4651 72.676H52.2279L52.6239 100.04L56.3463 99.9604L55.7523 78.8536L63.8703 99.9604H66.9987L67.6719 72.874ZM73.4838 100.079H75.4242L75.0282 85.0312H79.899L80.1366 100.079H83.3046L82.3542 72.6364H79.7406L79.899 83.0908L74.9886 83.4472L74.7114 72.6364H72.4146L73.4838 100.079ZM90.3349 72.3592L86.2165 99.6832L89.5429 99.8812L91.4833 87.8428L94.8493 87.6052L97.0273 99.6832L99.6805 99.9604L94.7305 72.3592H90.3349ZM91.8001 86.1004L93.1465 78.2992L94.5721 85.9024L91.8001 86.1004ZM114.151 72.3988L98.4293 73.3096L98.5877 75.5272H104.647L104.132 100.277L107.537 99.802L108.725 75.5272L113.992 75.6064L114.151 72.3988ZM131.901 72.3988L116.18 73.3096L116.338 75.5272H122.397L121.882 100.277L125.288 99.802L126.476 75.5272L131.743 75.6064L131.901 72.3988ZM144.662 72.7552L134.406 72.9928L135.079 100H145.335L145.573 96.7924L137.613 97.228L137.534 85.15L142.444 84.8728L142.048 82.6948L137.494 83.2492L137.455 75.8044L144.82 76.3588L144.662 72.7552ZM163.462 72.874L159.067 72.676L159.819 92.278L152.255 72.676H148.018L148.414 100.04L152.137 99.9604L151.543 78.8536L159.661 99.9604H162.789L163.462 72.874Z" fill="white"/>
</g>
<defs>
<clipPath id="clip0_873_1916">
<rect width="180" height="180" fill="white"/>
</clipPath>
<clipPath id="clip1_873_1916">
<rect width="179.99" height="202.49" fill="white" transform="translate(0 -17)"/>
</clipPath>
</defs>
</svg>
