<svg width="180" height="180" viewBox="0 0 180 180" fill="none" xmlns="http://www.w3.org/2000/svg">
<g clip-path="url(#clip0_873_1916)">
<rect width="180" height="180" fill="#85263D"/>
<g clip-path="url(#clip1_873_1916)">
<path d="M46 196V88.1455L104 87L100.879 196H46Z" fill="#B842A5"/>
<path d="M26 233V125.145L84 124L80.8785 233H26Z" fill="#B842A5"/>
<path d="M-3 205V97.1455L13 96L12.1389 205H-3Z" fill="#B842A5"/>
<path d="M60.6742 92.4779L58.1143 64.3294H68.3542C68.3542 64.3294 65.7943 53.2202 74.7514 53.6873C83.7085 54.1544 81.1485 61.799 81.1485 61.799H91.3826V95.032L60.6742 92.4779Z" fill="#B842A5"/>
<path d="M60.6743 61.7694H66.2851C66.2851 61.7694 66.2851 51.8604 76.0995 51.8604V38.741C76.0995 38.741 60.6743 33.621 60.6743 61.7694Z" fill="#B842A5"/>
<path d="M90.1235 61.7694H84.5127C84.5127 61.7694 84.5126 51.8604 74.6982 51.8604V38.741C74.6982 38.741 90.1235 33.621 90.1235 61.7694Z" fill="#B842A5"/>
<path d="M65.7944 45.3688C65.7944 45.3688 65.7943 23.3868 75.2954 23.3868C84.7964 23.3868 84.8024 42.6195 84.8024 42.6195L65.7944 45.3688Z" fill="#B842A5"/>
<path d="M71.1152 26.7982C71.1152 26.7982 71.1151 17.1257 75.2951 17.1257C79.4751 17.1257 79.4811 25.5922 79.4811 25.5922L71.1152 26.7982Z" fill="#B842A5"/>
<path d="M76.0995 19.5321C75.9339 18.7635 74.7515 -17 74.7515 -17V19.0295L76.0995 19.5321Z" fill="#B842A5"/>
<path d="M126.823 122.718H106.722V208.395H126.823V122.718Z" fill="#B842A5"/>
<path d="M120 144H97V190H120V144Z" fill="#B842A5"/>
<path d="M128.553 112.769H122.05V183.125H128.553V112.769Z" fill="#B842A5"/>
<path d="M132.101 185.49H179.99V115.134L132.101 119.864V185.49Z" fill="#B842A5"/>
</g>
<path d="M15.0675 100.317L18.3939 77.2696L24.2547 91.486H26.7495L33.3627 78.3388L35.5011 100.277L39.3027 99.9604L36.4515 73.468L33.5211 72.9928L25.5615 88.5952L19.1859 72.9136L16.2951 73.3096L10.9887 99.7228L15.0675 100.317ZM44.8761 72.3592L40.7577 99.6832L44.0841 99.8812L46.0245 87.8428L49.3905 87.6052L51.5685 99.6832L54.2217 99.9604L49.2717 72.3592H44.8761ZM46.3413 86.1004L47.6877 78.2992L49.1133 85.9024L46.3413 86.1004ZM72.6026 72.874L68.207 72.676L68.9594 92.278L61.3958 72.676H57.1586L57.5546 100.04L61.277 99.9604L60.683 78.8536L68.801 99.9604H71.9294L72.6026 72.874ZM78.4145 100.079H80.3549L79.9589 85.0312H84.8297L85.0673 100.079H88.2353L87.2849 72.6364H84.6713L84.8297 83.0908L79.9193 83.4472L79.6421 72.6364H77.3453L78.4145 100.079ZM95.2655 72.3592L91.1471 99.6832L94.4735 99.8812L96.4139 87.8428L99.7799 87.6052L101.958 99.6832L104.611 99.9604L99.6611 72.3592H95.2655ZM96.7307 86.1004L98.0771 78.2992L99.5027 85.9024L96.7307 86.1004ZM119.081 72.3988L103.36 73.3096L103.518 75.5272H109.577L109.062 100.277L112.468 99.802L113.656 75.5272L118.923 75.6064L119.081 72.3988ZM136.832 72.3988L121.11 73.3096L121.269 75.5272H127.328L126.813 100.277L130.218 99.802L131.406 75.5272L136.673 75.6064L136.832 72.3988ZM140.009 72.3592L135.89 99.6832L139.217 99.8812L141.157 87.8428L144.523 87.6052L146.701 99.6832L149.354 99.9604L144.404 72.3592H140.009ZM141.474 86.1004L142.82 78.2992L144.246 85.9024L141.474 86.1004ZM167.735 72.874L163.34 72.676L164.092 92.278L156.529 72.676H152.291L152.687 100.04L156.41 99.9604L155.816 78.8536L163.934 99.9604H167.062L167.735 72.874Z" fill="white"/>
</g>
<defs>
<clipPath id="clip0_873_1916">
<rect width="180" height="180" fill="white"/>
</clipPath>
<clipPath id="clip1_873_1916">
<rect width="179.99" height="202.49" fill="white" transform="translate(0 -17)"/>
</clipPath>
</defs>
</svg>
