<svg width="180" height="180" viewBox="0 0 180 180" fill="none" xmlns="http://www.w3.org/2000/svg">
<rect width="180" height="180" fill="#85263D"/>
<path d="M51.9686 101.889C51.9686 101.889 93.7924 106.427 112.031 131.407C112.031 131.407 99.8778 155.062 76.478 154.991C53.0782 154.92 44.0777 137.517 41.8936 126.118" fill="#B842A5"/>
<path d="M139.896 70.4282C139.896 70.4282 110.384 100.449 112.031 131.407C112.031 131.407 136.373 142.003 154.445 127.098C172.517 112.193 168.536 93.0149 162.997 82.7899" fill="#B842A5"/>
<path d="M51.4316 110.895C51.4316 110.895 55.245 79.2226 41.8938 56.2033C28.5426 33.184 12.6814 71.161 27.6531 94.1184C42.6248 117.076 51.5462 120.378 53.2459 128.44" stroke="#B842A5" stroke-width="4" stroke-miterlimit="10"/>
<path d="M139.808 78.7546C139.808 78.7546 141.675 40.9366 111.961 27.3475C82.2465 13.7584 98.9707 66.9138 113.511 78.7546C128.051 90.5953 130.112 98.1272 128.201 102.745" stroke="#B842A5" stroke-width="4" stroke-miterlimit="10"/>
<path d="M61.1191 141.799C60.2384 141.799 31.0437 164.757 26.2704 141.799C21.4971 118.842 5.63588 106.48 3.87451 120.608" stroke="#B842A5" stroke-width="4" stroke-miterlimit="10"/>
<path d="M160.637 93.2356C162.398 91.4696 176.718 82.0659 168.677 70.4282" stroke="#B842A5" stroke-width="4" stroke-miterlimit="10"/>
<path d="M83.588 32.2L79.308 32.68L75.828 43L71.588 32.48L66.908 32.64L65.588 59.96L69.428 60.16L69.468 37.68L73.508 47.52L76.468 47.88L80.348 38.28L80.668 59.88C80.668 59.88 84.228 59.88 84.868 59.84L83.588 32.2ZM90.5208 32.08L86.3608 59.68L89.7208 59.88L91.6808 47.72L95.0808 47.48L97.2808 59.68L99.9608 59.96L94.9608 32.08H90.5208ZM92.0008 45.96L93.3608 38.08L94.8008 45.76L92.0008 45.96ZM106.847 48.28L111.167 60.2L114.007 60L109.327 48.04L111.967 48L114.007 45.24V35.92L111.567 32.6H102.927V60H106.047L105.687 48.36L106.847 48.28ZM105.207 35.04H109.647L111.447 37.16L111.327 43.72L109.807 45.24L105.567 45.4L105.207 35.04ZM91.8145 76.36L88.2545 72.84L83.3345 72.04L76.4145 74.96L73.0945 85.52L75.5745 97.04L83.2545 100.64L92.4145 97.88L92.1345 88.68L90.7745 87.08L86.2145 86.76V90.52L89.4545 90.28L89.2545 95.68L83.6945 96.96L78.6945 93.8L76.4545 85.84L79.3745 77L85.7745 75.16L89.4545 78.68L91.8145 76.36ZM98.0989 72.08L93.9389 99.68L97.2989 99.88L99.2589 87.72L102.659 87.48L104.859 99.68L107.539 99.96L102.539 72.08H98.0989ZM99.5789 85.96L100.939 78.08L102.379 85.76L99.5789 85.96ZM68.1559 128.28L72.4759 140.2L75.3159 140L70.6359 128.04L73.2759 128L75.3159 125.24V115.92L72.8759 112.6H64.2359V140H67.3559L66.9959 128.36L68.1559 128.28ZM66.5159 115.04H70.9559L72.7559 117.16L72.6359 123.72L71.1159 125.24L66.8759 125.4L66.5159 115.04ZM86.8806 115.24L87.2006 112.48L77.8406 112.68L78.0806 114.76L80.7206 114.92L81.2406 138.04L78.6006 138.2L78.9206 140.12L86.5206 140.04L86.9606 137.6L84.0006 137.84L84.4406 115.12L86.8806 115.24ZM104.948 112.12L89.0681 113.04L89.2281 115.28H95.3481L94.8281 140.28L98.2681 139.8L99.4681 115.28L104.788 115.36L104.948 112.12ZM108.158 112.08L103.998 139.68L107.358 139.88L109.317 127.72L112.718 127.48L114.918 139.68L117.598 139.96L112.598 112.08H108.158ZM109.638 125.96L110.998 118.08L112.438 125.76L109.638 125.96Z" fill="white"/>
</svg>
