<svg width="180" height="180" viewBox="0 0 180 180" fill="none" xmlns="http://www.w3.org/2000/svg">
<g clip-path="url(#clip0_874_2399)">
<rect width="180" height="180" fill="#CC4163"/>
<path d="M80 140.5L32 30H40.5L94 140.5H80Z" fill="#6B291A"/>
<path d="M143.5 127.5L71.5 132.5L82.5 187H143.5V127.5Z" fill="#FF843F"/>
<path d="M107 145.767C105 136.967 96.1667 132.434 92 131.267C93.5 128.267 100 129.767 103.5 125.767C106.3 122.567 115.333 124.434 119.5 125.767C124 123.267 129 126.767 133 128.267C137 129.767 129.224 153.224 137.5 161.5C139.5 163.5 125 170 113 168.5C101 167 109.5 156.767 107 145.767Z" fill="#D9D9D9"/>
<path d="M35.4282 80.3168L38.7546 57.2696L44.6154 71.486H47.1102L53.7234 58.3388L55.8618 80.2772L59.6634 79.9604L56.8122 53.468L53.8818 52.9928L45.9222 68.5952L39.5466 52.9136L36.6558 53.3096L31.3494 79.7228L35.4282 80.3168ZM65.2368 52.3592L61.1184 79.6832L64.4448 79.8812L66.3852 67.8428L69.7512 67.6052L71.9292 79.6832L74.5824 79.9604L69.6324 52.3592H65.2368ZM66.702 66.1004L68.0484 58.2992L69.474 65.9024L66.702 66.1004ZM81.4001 68.3972L85.6769 80.198L88.4885 80L83.8553 68.1596L86.4689 68.12L88.4885 65.3876V56.1608L86.0729 52.874H77.5193V80H80.6081L80.2517 68.4764L81.4001 68.3972ZM79.7765 55.2896H84.1721L85.9541 57.3884L85.8353 63.8828L84.3305 65.3876L80.1329 65.546L79.7765 55.2896ZM105.759 52.3988L90.0375 53.3096L90.1959 55.5272H96.2547L95.7399 80.2772L99.1455 79.802L100.334 55.5272L105.6 55.6064L105.759 52.3988ZM116.412 55.4876L116.729 52.7552L107.462 52.9532L107.7 55.0124L110.313 55.1708L110.828 78.0596L108.215 78.218L108.531 80.1188L116.055 80.0396L116.491 77.624L113.561 77.8616L113.996 55.3688L116.412 55.4876ZM135.734 52.874L131.339 52.676L132.091 72.278L124.528 52.676H120.29L120.686 80.0396L124.409 79.9604L123.815 58.8536L131.933 79.9604H135.061L135.734 52.874ZM148.239 55.4876L148.556 52.7552L139.289 52.9532L139.527 55.0124L142.14 55.1708L142.655 78.0596L140.042 78.218L140.358 80.1188L147.882 80.0396L148.318 77.624L145.388 77.8616L145.823 55.3688L148.239 55.4876ZM66.5302 120.198L78.6082 119.762L83.8354 113.585L84.4294 101.071L77.9746 93.1908L65.9758 92.7552L66.5302 120.198ZM79.0438 111.882L76.1134 116.357L70.1338 116.594L70.4902 95.9628L75.7966 95.8044L79.7962 102.457L79.0438 111.882ZM91.8222 108.397L96.099 120.198L98.9106 120L94.2774 108.16L96.891 108.12L98.9106 105.388V96.1608L96.495 92.874H87.9414V120H91.0302L90.6738 108.476L91.8222 108.397ZM90.1986 95.2896H94.5942L96.3762 97.3884L96.2574 103.883L94.7526 105.388L90.555 105.546L90.1986 95.2896ZM112.004 92.7156L107.964 102.853L103.133 92.874L99.7672 93.072L106.578 106.457L106.737 119.96H110.855L110.459 106.536L116.162 92.9928L112.004 92.7156Z" fill="white"/>
</g>
<defs>
<clipPath id="clip0_874_2399">
<rect width="180" height="180" fill="white"/>
</clipPath>
</defs>
</svg>
