<svg width="180" height="180" viewBox="0 0 180 180" fill="none" xmlns="http://www.w3.org/2000/svg">
<g clip-path="url(#clip0_874_2399)">
<rect width="180" height="180" fill="#CC4163"/>
<path d="M80 140.5L32 30H40.5L94 140.5H80Z" fill="#6B291A"/>
<path d="M143.5 127.5L71.5 132.5L82.5 187H143.5V127.5Z" fill="#FF843F"/>
<path d="M107 145.767C105 136.967 96.1667 132.434 92 131.267C93.5 128.267 100 129.767 103.5 125.767C106.3 122.567 115.333 124.434 119.5 125.767C124 123.267 129 126.767 133 128.267C137 129.767 129.224 153.224 137.5 161.5C139.5 163.5 125 170 113 168.5C101 167 109.5 156.767 107 145.767Z" fill="#D9D9D9"/>
<path d="M53.7714 52.478L49.5342 52.9532L46.089 63.17L41.8914 52.7552L37.2582 52.9136L35.9514 79.9604L39.753 80.1584L39.7926 57.9032L43.7922 67.6448L46.7226 68.0012L50.5638 58.4972L50.8806 79.8812C50.8806 79.8812 54.405 79.8812 55.0386 79.8416L53.7714 52.478ZM60.6349 52.3592L56.5165 79.6832L59.8429 79.8812L61.7833 67.8428L65.1493 67.6052L67.3273 79.6832L69.9805 79.9604L65.0305 52.3592H60.6349ZM62.1001 66.1004L63.4465 58.2992L64.8721 65.9024L62.1001 66.1004ZM76.7982 68.3972L81.075 80.198L83.8866 80L79.2534 68.1596L81.867 68.12L83.8866 65.3876V56.1608L81.471 52.874H72.9174V80H76.0062L75.6498 68.4764L76.7982 68.3972ZM75.1746 55.2896H79.5702L81.3522 57.3884L81.2334 63.8828L79.7286 65.3876L75.531 65.546L75.1746 55.2896ZM101.157 52.3988L85.4356 53.3096L85.594 55.5272H91.6528L91.138 80.2772L94.5436 79.802L95.7316 55.5272L100.998 55.6064L101.157 52.3988ZM111.81 55.4876L112.127 52.7552L102.86 52.9532L103.098 55.0124L105.711 55.1708L106.226 78.0596L103.613 78.218L103.929 80.1188L111.453 80.0396L111.889 77.624L108.959 77.8616L109.394 55.3688L111.81 55.4876ZM131.132 52.874L126.737 52.676L127.489 72.278L119.926 52.676H115.688L116.084 80.0396L119.807 79.9604L119.213 58.8536L127.331 79.9604H130.459L131.132 52.874ZM143.637 55.4876L143.954 52.7552L134.687 52.9532L134.925 55.0124L137.538 55.1708L138.053 78.0596L135.44 78.218L135.756 80.1188L143.28 80.0396L143.716 77.624L140.786 77.8616L141.221 55.3688L143.637 55.4876ZM66.5302 120.198L78.6082 119.762L83.8354 113.585L84.4294 101.071L77.9746 93.1908L65.9758 92.7552L66.5302 120.198ZM79.0438 111.882L76.1134 116.357L70.1338 116.594L70.4902 95.9628L75.7966 95.8044L79.7962 102.457L79.0438 111.882ZM91.8222 108.397L96.099 120.198L98.9106 120L94.2774 108.16L96.891 108.12L98.9106 105.388V96.1608L96.495 92.874H87.9414V120H91.0302L90.6738 108.476L91.8222 108.397ZM90.1986 95.2896H94.5942L96.3762 97.3884L96.2574 103.883L94.7526 105.388L90.555 105.546L90.1986 95.2896ZM112.004 92.7156L107.964 102.853L103.133 92.874L99.7672 93.072L106.578 106.457L106.737 119.96H110.855L110.459 106.536L116.162 92.9928L112.004 92.7156Z" fill="white"/>
</g>
<defs>
<clipPath id="clip0_874_2399">
<rect width="180" height="180" fill="white"/>
</clipPath>
</defs>
</svg>
