<svg width="180" height="180" viewBox="0 0 180 180" fill="none" xmlns="http://www.w3.org/2000/svg">
<g clip-path="url(#clip0_874_2520)">
<rect width="180" height="180" fill="#242320"/>
<path d="M31.3158 -20.8896L5 17.8037V61.6074L31.3158 93H82.4854L119.766 61.6074L130 17.8037L89.0643 -26L31.3158 -20.8896Z" fill="#922B31"/>
<path d="M35.4211 10.4479L23 28.9816V49.9632L35.4211 65H59.5731L77.1696 49.9632L82 28.9816L62.6784 8L35.4211 10.4479Z" fill="#CD6022"/>
<path d="M40.2105 19.589L32 31.6196V45.2393L40.2105 55H56.1754L67.807 45.2393L71 31.6196L58.2281 18L40.2105 19.589Z" fill="#954213"/>
<path d="M21.5263 9.20245L15 18.3067V28.6135L21.5263 36H34.2164L43.462 28.6135L46 18.3067L35.848 8L21.5263 9.20245Z" fill="#F7B089"/>
<path d="M177.3 127.588L163.35 98.75L137.37 83.75L113.916 88.1475L92.25 118.899L98.1195 151.733L120.6 172.795L160.581 163.546L177.3 127.588Z" fill="#922B31"/>
<path d="M124.547 123.322L115.916 136.003V150.359L124.547 160.647H141.331L153.559 150.359L156.916 136.003L143.489 121.647L124.547 123.322Z" fill="#CD6022"/>
<path d="M128.684 131.074L123 139.202V148.405L128.684 155H139.737L147.789 148.405L150 139.202L141.158 130L128.684 131.074Z" fill="#954213"/>
<path d="M44.3875 80.3168L47.7139 57.2696L53.5747 71.486H56.0695L62.6827 58.3388L64.8211 80.2772L68.6227 79.9604L65.7715 53.468L62.8411 52.9928L54.8815 68.5952L48.5059 52.9136L45.6151 53.3096L40.3087 79.7228L44.3875 80.3168ZM74.196 52.3592L70.0776 79.6832L73.404 79.8812L75.3444 67.8428L78.7104 67.6052L80.8884 79.6832L83.5416 79.9604L78.5916 52.3592H74.196ZM75.6612 66.1004L77.0076 58.2992L78.4332 65.9024L75.6612 66.1004ZM90.3593 68.3972L94.6361 80.198L97.4477 80L92.8145 68.1596L95.4281 68.12L97.4477 65.3876V56.1608L95.0321 52.874H86.4785V80H89.5673L89.2109 68.4764L90.3593 68.3972ZM88.7357 55.2896H93.1313L94.9133 57.3884L94.7945 63.8828L93.2897 65.3876L89.0921 65.546L88.7357 55.2896ZM110.541 52.7156L106.502 62.8532L101.67 52.874L98.3044 53.072L105.116 66.4568L105.274 79.9604H109.392L108.996 66.536L114.699 52.9928L110.541 52.7156ZM118.919 50.7356L118.602 58.814H120.384L123.196 51.1316L118.919 50.7356ZM130.437 54.9728L135.387 57.4676L137.565 54.7352L133.328 52.3196L126.675 53.6264L125.171 61.2296L135.665 71.09L134.199 77.2676L129.606 76.832L127.151 73.1492L124.735 76.1588L127.982 79.9208L136.655 80.0396L139.585 69.8624L128.418 59.5664L130.437 54.9728ZM71.9076 92.7552L61.6512 92.9928L62.3244 120H72.5808L72.8184 116.792L64.8588 117.228L64.7796 105.15L69.69 104.873L69.294 102.695L64.74 103.249L64.7004 95.8044L72.066 96.3588L71.9076 92.7552ZM85.5201 92.7156L81.4809 102.853L76.6497 92.874L73.2837 93.072L80.0949 106.457L80.2533 119.96H84.3717L83.9757 106.536L89.6781 92.9928L85.5201 92.7156ZM102.729 92.7552L92.4727 92.9928L93.1459 120H103.402L103.64 116.792L95.6803 117.228L95.6011 105.15L100.511 104.873L100.115 102.695L95.5615 103.249L95.5219 95.8044L102.887 96.3588L102.729 92.7552ZM110.56 94.9728L115.51 97.4676L117.688 94.7352L113.451 92.3196L106.798 93.6264L105.293 101.23L115.787 111.09L114.322 117.268L109.728 116.832L107.273 113.149L104.858 116.159L108.105 119.921L116.777 120.04L119.708 109.862L108.54 99.5664L110.56 94.9728Z" fill="white"/>
<path d="M120.337 119.463L115.916 125.641V132.635L120.337 137.647H128.933L135.196 132.635L136.916 125.641L130.038 118.647L120.337 119.463Z" fill="#F7B089"/>
</g>
<defs>
<clipPath id="clip0_874_2520">
<rect width="180" height="180" fill="white"/>
</clipPath>
</defs>
</svg>
