<svg width="180" height="180" viewBox="0 0 180 180" fill="none" xmlns="http://www.w3.org/2000/svg">
<g clip-path="url(#clip0_873_2097)">
<rect width="180" height="180" fill="#478358"/>
<path d="M112.821 -48L-11.1484 38.2036C0.619035 45.3188 33.5132 53.8023 70.9502 30.8147C108.387 7.82708 114.462 -31.3066 112.821 -48Z" fill="#FF843F"/>
<path d="M136.687 62.4164L-12.4582 38.8584C-8.88718 52.138 8.98815 81.0252 51.9212 90.3374C94.8542 99.6495 126.321 75.6034 136.687 62.4164Z" fill="#FFA26D"/>
<path d="M85.265 154.102L-13.4437 39.8395C-19.2878 52.2873 -24.2809 85.8888 2.49987 120.713C29.2806 155.538 68.8353 157.483 85.265 154.102Z" fill="#FFBA7A"/>
<path d="M46.8171 77.3168L50.1435 54.2696L56.0043 68.486H58.4991L65.1123 55.3388L67.2507 77.2772L71.0523 76.9604L68.2011 50.468L65.2707 49.9928L57.3111 65.5952L50.9355 49.9136L48.0447 50.3096L42.7383 76.7228L46.8171 77.3168ZM84.5853 49.7552L74.3289 49.9928L75.0021 77H85.2585L85.4961 73.7924L77.5365 74.228L77.4573 62.15L82.3677 61.8728L81.9717 59.6948L77.4177 60.2492L77.3781 52.8044L84.7437 53.3588L84.5853 49.7552ZM98.9502 72.9608L91.4262 73.9112L92.2578 50.0324L87.9414 49.6364L88.377 77.1584L99.4254 77.2772L98.9502 72.9608ZM117.032 56.9228L112.082 49.9532L105.113 49.478L98.8954 56.5268L99.2122 70.3076L104.281 77.198L110.973 77.1188L116.28 70.1492L117.032 56.9228ZM112.637 69.6344L109.389 74.2676L105.548 74.1488L102.657 69.674L102.024 58.9028L106.855 52.4876L109.825 52.6064L112.874 56.5268L112.637 69.6344ZM135.986 49.874L131.59 49.676L132.343 69.278L124.779 49.676H120.542L120.938 77.0396L124.66 76.9604L124.066 55.8536L132.184 76.9604H135.313L135.986 49.874ZM32.6988 89.6364L31.8672 117H41.688L44.6184 114.703V103.892L41.292 101.358L44.3808 93.8736L41.9256 89.7552L32.6988 89.6364ZM42.48 105.437L42.282 112.802L39.9456 114.505L36.144 114.149L36.1836 103.892L39.8268 103.298L42.48 105.437ZM38.4012 101.239L36.1836 101.675L36.2232 92.1312L39.7872 92.0916L41.2524 94.2696L38.4012 101.239ZM58.3658 89.7552L48.1094 89.9928L48.7826 117H59.039L59.2766 113.792L51.317 114.228L51.2378 102.15L56.1482 101.873L55.7522 99.6948L51.1982 100.249L51.1586 92.8044L58.5242 93.3588L58.3658 89.7552ZM72.7307 112.961L65.2067 113.911L66.0383 90.0324L61.7219 89.6364L62.1575 117.158L73.2059 117.277L72.7307 112.961ZM86.5752 112.961L79.0512 113.911L79.8828 90.0324L75.5664 89.6364L76.002 117.158L87.0504 117.277L86.5752 112.961ZM97.1725 92.4876L97.4893 89.7552L88.2229 89.9532L88.4605 92.0124L91.0741 92.1708L91.5889 115.06L88.9753 115.218L89.2921 117.119L96.8161 117.04L97.2517 114.624L94.3213 114.862L94.7569 92.3688L97.1725 92.4876ZM116.495 89.874L112.1 89.676L112.852 109.278L105.288 89.676H101.051L101.447 117.04L105.17 116.96L104.576 95.8536L112.694 116.96H115.822L116.495 89.874ZM136.682 89.874L132.286 89.676L133.039 109.278L125.475 89.676H121.238L121.634 117.04L125.356 116.96L124.762 95.8536L132.88 116.96H136.009L136.682 89.874ZM149.186 92.4876L149.503 89.7552L140.237 89.9532L140.474 92.0124L143.088 92.1708L143.603 115.06L140.989 115.218L141.306 117.119L148.83 117.04L149.265 114.624L146.335 114.862L146.771 92.3688L149.186 92.4876Z" fill="white"/>
</g>
<defs>
<clipPath id="clip0_873_2097">
<rect width="180" height="180" fill="white"/>
</clipPath>
</defs>
</svg>
