<svg width="180" height="180" viewBox="0 0 180 180" fill="none" xmlns="http://www.w3.org/2000/svg">
<g clip-path="url(#clip0_873_2097)">
<rect width="180" height="180" fill="#478358"/>
<path d="M112.821 -48L-11.1484 38.2036C0.619035 45.3188 33.5132 53.8023 70.9502 30.8147C108.387 7.82708 114.462 -31.3066 112.821 -48Z" fill="#FF843F"/>
<path d="M136.687 62.4164L-12.4582 38.8584C-8.88718 52.138 8.98815 81.0252 51.9212 90.3374C94.8542 99.6495 126.321 75.6034 136.687 62.4164Z" fill="#FFA26D"/>
<path d="M85.265 154.102L-13.4437 39.8395C-19.2878 52.2873 -24.2809 85.8888 2.49987 120.713C29.2806 155.538 68.8353 157.483 85.265 154.102Z" fill="#FFBA7A"/>
<path d="M58.238 49.478L54.0008 49.9532L50.5556 60.17L46.358 49.7552L41.7248 49.9136L40.418 76.9604L44.2196 77.1584L44.2592 54.9032L48.2588 64.6448L51.1892 65.0012L55.0304 55.4972L55.3472 76.8812C55.3472 76.8812 58.8716 76.8812 59.5052 76.8416L58.238 49.478ZM73.0611 49.7552L62.8047 49.9928L63.4779 77H73.7343L73.9719 73.7924L66.0123 74.228L65.9331 62.15L70.8435 61.8728L70.4475 59.6948L65.8935 60.2492L65.8539 52.8044L73.2195 53.3588L73.0611 49.7552ZM87.426 72.9608L79.902 73.9112L80.7336 50.0324L76.4172 49.6364L76.8528 77.1584L87.9012 77.2772L87.426 72.9608ZM101.27 72.9608L93.7465 73.9112L94.5781 50.0324L90.2617 49.6364L90.6973 77.1584L101.746 77.2772L101.27 72.9608ZM119.353 56.9228L114.403 49.9532L107.433 49.478L101.216 56.5268L101.533 70.3076L106.601 77.198L113.294 77.1188L118.6 70.1492L119.353 56.9228ZM114.957 69.6344L111.71 74.2676L107.869 74.1488L104.978 69.674L104.344 58.9028L109.175 52.4876L112.145 52.6064L115.195 56.5268L114.957 69.6344ZM138.306 49.874L133.91 49.676L134.663 69.278L127.099 49.676H122.862L123.258 77.0396L126.98 76.9604L126.386 55.8536L134.504 76.9604H137.633L138.306 49.874ZM42.7921 89.6364L41.9605 117H51.7813L54.7117 114.703V103.892L51.3853 101.358L54.4741 93.8736L52.0189 89.7552L42.7921 89.6364ZM52.5733 105.437L52.3753 112.802L50.0389 114.505L46.2373 114.149L46.2769 103.892L49.9201 103.298L52.5733 105.437ZM48.4945 101.239L46.2769 101.675L46.3165 92.1312L49.8805 92.0916L51.3457 94.2696L48.4945 101.239ZM68.4591 89.7552L58.2027 89.9928L58.8759 117H69.1323L69.3699 113.792L61.4103 114.228L61.3311 102.15L66.2415 101.873L65.8455 99.6948L61.2915 100.249L61.2519 92.8044L68.6175 93.3588L68.4591 89.7552ZM82.824 112.961L75.3 113.911L76.1316 90.0324L71.8152 89.6364L72.2508 117.158L83.2992 117.277L82.824 112.961ZM96.6685 112.961L89.1445 113.911L89.9761 90.0324L85.6597 89.6364L86.0953 117.158L97.1437 117.277L96.6685 112.961ZM107.266 92.4876L107.583 89.7552L98.3163 89.9532L98.5539 92.0124L101.167 92.1708L101.682 115.06L99.0687 115.218L99.3855 117.119L106.909 117.04L107.345 114.624L104.415 114.862L104.85 92.3688L107.266 92.4876ZM126.588 89.874L122.193 89.676L122.945 109.278L115.382 89.676H111.145L111.541 117.04L115.263 116.96L114.669 95.8536L122.787 116.96H125.915L126.588 89.874ZM139.093 92.4876L139.41 89.7552L130.143 89.9532L130.381 92.0124L132.994 92.1708L133.509 115.06L130.896 115.218L131.212 117.119L138.736 117.04L139.172 114.624L136.242 114.862L136.677 92.3688L139.093 92.4876Z" fill="white"/>
</g>
<defs>
<clipPath id="clip0_873_2097">
<rect width="180" height="180" fill="white"/>
</clipPath>
</defs>
</svg>
