<svg width="180" height="180" viewBox="0 0 180 180" fill="none" xmlns="http://www.w3.org/2000/svg">
<g clip-path="url(#clip0_874_2670)">
<rect width="180" height="180" fill="#477F83"/>
<path d="M24 63.2093L162.333 219L190 197.512L35.5278 54L24 63.2093Z" fill="#CC4163"/>
<path d="M75.4026 87L38 52.9155L57.4805 32L98 68.4085L75.4026 87Z" fill="#F4C4CF"/>
<path d="M61.8349 33.6739C49.4563 24.5435 56.6771 10.087 61.8349 4C61.8349 23.0217 109.802 39 117.538 51.1739C123.728 60.913 108.77 70.4493 100.518 74C105.933 64.8696 77.3081 45.087 61.8349 33.6739Z" fill="#4CB469"/>
<path d="M75.8974 56.258L72.0882 56.6852L68.991 65.87L65.2174 56.5072L61.0522 56.6496L59.8774 80.9644L63.295 81.1424L63.3306 61.1352L66.9262 69.8928L69.5606 70.2132L73.0138 61.6692L73.2986 80.8932C73.2986 80.8932 76.467 80.8932 77.0366 80.8576L75.8974 56.258ZM86.9804 58.9636L87.2652 56.5072L78.9348 56.6852L79.1484 58.5364L81.498 58.6788L81.9608 79.2556L79.6112 79.398L79.896 81.1068L86.66 81.0356L87.0516 78.864L84.4172 79.0776L84.8088 58.8568L86.9804 58.9636ZM104.351 56.614L100.4 56.436L101.076 74.058L94.2765 56.436H90.4673L90.8233 81.0356L94.1697 80.9644L93.6357 61.9896L100.934 80.9644H103.746L104.351 56.614ZM120.826 56.1868L106.693 57.0056L106.835 58.9992H112.282L111.819 81.2492L114.881 80.822L115.949 58.9992L120.683 59.0704L120.826 56.1868ZM51.0156 94.5008L55.4656 96.7436L57.4236 94.2872L53.6144 92.1156L47.6336 93.2904L46.2808 100.126L55.7148 108.99L54.3976 114.544L50.268 114.152L48.0608 110.841L45.8892 113.547L48.8084 116.929L56.6048 117.036L59.2392 107.886L49.2 98.6304L51.0156 94.5008ZM72.3645 107.708L75.2481 116.964L78.7013 117.071L83.4361 92.614L78.9505 92.5428L76.6721 112.158L73.1477 102.155L71.7237 102.333L67.4161 113.725L64.6393 92.5428L61.0437 92.3648L65.4937 117.107L68.8045 117L72.3645 107.708ZM93.3947 94.9636L93.6795 92.5072L85.3491 92.6852L85.5627 94.5364L87.9123 94.6788L88.3751 115.256L86.0255 115.398L86.3103 117.107L93.0743 117.036L93.4659 114.864L90.8315 115.078L91.2231 94.8568L93.3947 94.9636ZM110.026 92.7208L97.1035 92.7564L96.783 96.53L106.324 95.6756L94.7895 114.223L95.6438 116.893L108.104 117V114.366L98.3495 113.262L109.421 97.2776L110.026 92.7208ZM122.492 113.369L115.728 114.223L116.476 92.7564L112.596 92.4004L112.987 117.142L122.92 117.249L122.492 113.369ZM134.262 92.5072L125.042 92.7208L125.647 117H134.867L135.081 114.116L127.925 114.508L127.854 103.65L132.268 103.401L131.912 101.443L127.818 101.941L127.783 95.2484L134.404 95.7468L134.262 92.5072Z" fill="white"/>
</g>
<defs>
<clipPath id="clip0_874_2670">
<rect width="180" height="180" fill="white"/>
</clipPath>
</defs>
</svg>
