<svg width="180" height="180" viewBox="0 0 180 180" fill="none" xmlns="http://www.w3.org/2000/svg">
<g clip-path="url(#clip0_874_2670)">
<rect width="180" height="180" fill="#477F83"/>
<path d="M24 63.2093L162.333 219L190 197.512L35.5278 54L24 63.2093Z" fill="#CC4163"/>
<path d="M75.4026 87L38 52.9155L57.4805 32L98 68.4085L75.4026 87Z" fill="#F4C4CF"/>
<path d="M61.8349 33.6739C49.4563 24.5435 56.6771 10.087 61.8349 4C61.8349 23.0217 109.802 39 117.538 51.1739C123.728 60.913 108.77 70.4493 100.518 74C105.933 64.8696 77.3081 45.087 61.8349 33.6739Z" fill="#4CB469"/>
<path d="M59.4071 81.2848L62.3975 60.5656L67.6663 73.346H69.9091L75.8543 61.5268L77.7767 81.2492L81.1943 80.9644L78.6311 57.148L75.9967 56.7208L68.8411 70.7472L63.1095 56.6496L60.5107 57.0056L55.7403 80.7508L59.4071 81.2848ZM91.1175 58.9636L91.4023 56.5072L83.0719 56.6852L83.2855 58.5364L85.6351 58.6788L86.0979 79.2556L83.7483 79.398L84.0331 81.1068L90.7971 81.0356L91.1887 78.864L88.5543 79.0776L88.9459 58.8568L91.1175 58.9636ZM108.488 56.614L104.537 56.436L105.213 74.058L98.4136 56.436H94.6044L94.9604 81.0356L98.3068 80.9644L97.7728 61.9896L105.071 80.9644H107.883L108.488 56.614ZM124.963 56.1868L110.83 57.0056L110.972 58.9992H116.419L115.956 81.2492L119.018 80.822L120.086 58.9992L124.82 59.0704L124.963 56.1868ZM43.9235 94.5008L48.3735 96.7436L50.3315 94.2872L46.5223 92.1156L40.5415 93.2904L39.1887 100.126L48.6227 108.99L47.3055 114.544L43.1759 114.152L40.9687 110.841L38.7971 113.547L41.7163 116.929L49.5127 117.036L52.1471 107.886L42.1079 98.6304L43.9235 94.5008ZM65.2723 107.708L68.1559 116.964L71.6091 117.071L76.3439 92.614L71.8583 92.5428L69.5799 112.158L66.0555 102.155L64.6315 102.333L60.3239 113.725L57.5471 92.5428L53.9515 92.3648L58.4015 117.107L61.7123 117L65.2723 107.708ZM86.3025 94.9636L86.5873 92.5072L78.2569 92.6852L78.4705 94.5364L80.8201 94.6788L81.2829 115.256L78.9333 115.398L79.2181 117.107L85.9821 117.036L86.3737 114.864L83.7393 115.078L84.1309 94.8568L86.3025 94.9636ZM102.934 92.7208L90.0113 92.7564L89.6909 96.53L99.2317 95.6756L87.6973 114.223L88.5517 116.893L101.012 117V114.366L91.2573 113.262L102.329 97.2776L102.934 92.7208ZM117.118 92.7208L104.196 92.7564L103.875 96.53L113.416 95.6756L101.882 114.223L102.736 116.893L115.196 117V114.366L105.442 113.262L116.513 97.2776L117.118 92.7208ZM129.585 113.369L122.821 114.223L123.568 92.7564L119.688 92.4004L120.079 117.142L130.012 117.249L129.585 113.369ZM141.354 92.5072L132.134 92.7208L132.739 117H141.959L142.173 114.116L135.017 114.508L134.946 103.65L139.361 103.401L139.005 101.443L134.911 101.941L134.875 95.2484L141.497 95.7468L141.354 92.5072Z" fill="white"/>
</g>
<defs>
<clipPath id="clip0_874_2670">
<rect width="180" height="180" fill="white"/>
</clipPath>
</defs>
</svg>
