<svg width="180" height="180" viewBox="0 0 180 180" fill="none" xmlns="http://www.w3.org/2000/svg">
<g clip-path="url(#clip0_874_2181)">
<rect width="180" height="180" fill="#4B93C7"/>
<path d="M67.3179 153.276C67.3179 153.276 71.3463 82.8174 127.092 51.9454C131.009 50.884 129.398 56.5756 129.398 56.5756C129.398 56.5756 144.716 47.1694 147.736 50.5551C150.755 53.9409 148.083 55.716 148.083 55.716C148.083 55.716 161.26 50.0431 164.28 53.4289C167.299 56.8147 162.669 59.1205 162.669 59.1205C162.669 59.1205 176.907 57.364 181.885 60.2191C186.863 63.0742 180.988 64.6662 180.988 64.6662C180.988 64.6662 210.873 70.2307 213.527 80.0218C216.18 89.8129 197.678 87.4698 197.678 87.4698C197.678 87.4698 201.228 92.8138 190.906 93.5089C190.906 93.5089 190.193 94.7533 184.318 96.3453C184.318 96.3453 183.238 103.995 172.916 104.69C172.916 104.69 172.019 109.137 161.697 109.832C161.697 109.832 157.945 119.257 150.296 118.177C150.296 118.177 153.315 121.563 137.833 122.606C122.35 123.648 77.4753 144.217 71.765 154.173C69.6237 157.906 67.1348 156.479 67.3179 153.276Z" fill="#236CA2"/>
<path d="M69.8967 105.412C69.8967 105.412 84.8223 62.7026 59.3995 30.7268C57.3412 29.1362 56.8966 32.9019 56.8966 32.9019C56.8966 32.9019 50.1375 23.5689 47.5177 24.8318C44.898 26.0947 46.044 27.8022 46.044 27.8022C46.044 27.8022 39.6355 21.2058 37.0158 22.4687C34.396 23.7316 36.5711 26.2345 36.5711 26.2345C36.5711 26.2345 28.572 21.6963 24.9232 22.1638C21.2743 22.6314 24.3616 25.0174 24.3616 25.0174C24.3616 25.0174 5.29902 20.9697 1.32238 26.1152C-2.65425 31.2608 8.87682 34.4192 8.87682 34.4192C8.87682 34.4192 5.46173 36.7112 11.4026 39.6587C11.4026 39.6587 11.5195 40.5709 14.6068 42.9569C14.6068 42.9569 13.3668 47.7518 19.3077 50.6993C19.3077 50.6993 18.7462 53.5528 24.687 56.5003C24.687 56.5003 24.593 63.0028 29.3879 64.2427C29.3879 64.2427 26.7681 65.5056 35.6795 69.9269C44.5908 74.3482 66.108 97.5525 67.0432 104.85C67.3938 107.587 69.2183 107.353 69.8967 105.412Z" fill="#236CA2"/>
<path d="M74.4028 52.478L70.1656 52.9532L66.7204 63.17L62.5228 52.7552L57.8896 52.9136L56.5828 79.9604L60.3844 80.1584L60.424 57.9032L64.4236 67.6448L67.354 68.0012L71.1952 58.4972L71.512 79.8812C71.512 79.8812 75.0364 79.8812 75.67 79.8416L74.4028 52.478ZM86.7311 55.4876L87.0479 52.7552L77.7815 52.9532L78.0191 55.0124L80.6327 55.1708L81.1475 78.0596L78.5339 78.218L78.8507 80.1188L86.3747 80.0396L86.8103 77.624L83.8799 77.8616L84.3155 55.3688L86.7311 55.4876ZM106.054 52.874L101.658 52.676L102.411 72.278L94.8469 52.676H90.6097L91.0057 80.0396L94.7281 79.9604L94.1341 58.8536L102.252 79.9604H105.381L106.054 52.874ZM124.379 52.3988L108.658 53.3096L108.816 55.5272H114.875L114.36 80.2772L117.766 79.802L118.954 55.5272L124.221 55.6064L124.379 52.3988ZM62.5948 114.496L56.7736 116.951L53.8432 111.684L50.5564 113.862L54.3184 120H61.0108L65.8024 116.476L66.5548 92.874H61.9216L62.5948 114.496ZM82.9891 111.644L81.1279 116L76.0591 116.436L73.2475 111.724L73.9999 92.6364L70.0399 92.3988L69.6439 114.02L73.4455 119.921L83.0683 120.158L86.6323 114.456L87.3451 92.6364L82.5139 92.8344L82.9891 111.644ZM102.025 115.961L94.5006 116.911L95.3322 93.0324L91.0158 92.6364L91.4514 120.158L102.5 120.277L102.025 115.961ZM115.117 92.7552L104.86 92.9928L105.534 120H115.79L116.028 116.792L108.068 117.228L107.989 105.15L112.899 104.873L112.503 102.695L107.949 103.249L107.91 95.8044L115.275 96.3588L115.117 92.7552ZM129.838 96.1608L127.383 92.8344H118.473V120H121.522L121.126 108.476L127.383 108.278L129.798 105.348L129.838 96.1608ZM126.749 103.922L125.244 105.348L121.047 105.506L120.69 95.3292H125.086L126.868 97.3884L126.749 103.922Z" fill="white"/>
</g>
<defs>
<clipPath id="clip0_874_2181">
<rect width="180" height="180" fill="white"/>
</clipPath>
</defs>
</svg>
