<svg width="180" height="180" viewBox="0 0 180 180" fill="none" xmlns="http://www.w3.org/2000/svg">
<g clip-path="url(#clip0_873_1828)">
<rect width="180" height="180" fill="#A6C54F"/>
<g clip-path="url(#clip1_873_1828)">
<path d="M71.9239 158.69C71.9239 158.69 74.7319 109.576 113.59 88.0569C116.319 87.3171 115.197 91.2844 115.197 91.2844C115.197 91.2844 125.874 84.7278 127.979 87.0878C130.084 89.4479 128.221 90.6852 128.221 90.6852C128.221 90.6852 137.406 86.7309 139.511 89.091C141.616 91.4511 138.388 93.0583 138.388 93.0583C138.388 93.0583 148.313 91.834 151.783 93.8241C155.253 95.8143 151.158 96.924 151.158 96.924C151.158 96.924 171.989 100.803 173.839 107.628C175.688 114.452 162.791 112.819 162.791 112.819C162.791 112.819 165.266 116.544 158.071 117.029C158.071 117.029 157.574 117.896 153.479 119.006C153.479 119.006 152.726 124.338 145.531 124.823C145.531 124.823 144.906 127.923 137.711 128.407C137.711 128.407 135.096 134.977 129.764 134.224C129.764 134.224 131.868 136.584 121.076 137.311C110.284 138.038 79.004 152.375 75.0237 159.315C73.5311 161.917 71.7962 160.922 71.9239 158.69Z" fill="#3CB200"/>
<path d="M125.817 -0.797823C125.817 -0.797823 99.9413 -20.0308 72.7868 -9.53786C71.2673 -8.47614 73.7341 -7.373 73.7341 -7.373C73.7341 -7.373 65.9489 -4.76011 66.2508 -2.7097C66.5528 -0.659294 67.9579 -1.0757 67.9579 -1.0757C67.9579 -1.0757 62.1086 1.88056 62.4105 3.93097C62.7125 5.98137 64.8773 5.03411 64.8773 5.03411C64.8773 5.03411 60.0898 9.50991 59.632 12.0912C59.1742 14.6724 61.4535 13.0799 61.4535 13.0799C61.4535 13.0799 54.6471 25.185 57.3014 28.9839C59.9558 32.7827 64.5558 25.6112 64.5558 25.6112C64.5558 25.6112 65.3886 28.4214 68.6566 25.0073C68.6566 25.0073 69.3019 25.1218 71.5813 23.5292C71.5813 23.5292 74.5789 25.3921 77.8469 21.978C77.8469 21.978 79.6684 22.9667 82.9364 19.5526C82.9364 19.5526 87.3392 20.9991 89.2021 18.0015C89.2021 18.0015 89.5041 20.0519 94.4061 14.9307C99.3081 9.80962 119.666 0.108028 124.829 1.02367C126.765 1.36704 126.993 0.076405 125.817 -0.797823Z" fill="#3CB200"/>
<path d="M82.1181 90.2856C82.1181 90.2856 46.927 100.068 22.501 77.9084C21.3275 76.1667 24.3847 76.0062 24.3847 76.0062C24.3847 76.0062 17.2205 70.071 18.3755 68.0267C19.5304 65.9824 20.8459 66.9953 20.8459 66.9953C20.8459 66.9953 15.868 61.4863 17.023 59.442C18.1779 57.3977 20.0801 59.2814 20.0801 59.2814C20.0801 59.2814 16.8439 52.599 17.4121 49.6839C17.9803 46.7688 19.7405 49.3813 19.7405 49.3813C19.7405 49.3813 17.4802 33.8115 21.8343 30.8779C26.1884 27.9443 28.1276 37.3998 28.1276 37.3998C28.1276 37.3998 30.1534 34.7688 32.2161 39.7097C32.2161 39.7097 32.9449 39.8517 34.7051 42.4642C34.7051 42.4642 38.633 41.7169 40.6958 46.6578C40.6958 46.6578 43.0242 46.3552 45.0869 51.296C45.0869 51.296 50.3304 51.5616 51.0776 55.4896C51.0776 55.4896 52.2326 53.4453 55.3267 60.8566C58.4208 68.2678 75.9854 86.8208 81.8155 87.9572C84.0018 88.3833 83.7177 89.8409 82.1181 90.2856Z" fill="#41A20F"/>
<path d="M82.198 188.847L47.6334 134.683C42.489 141.606 34.9709 159.075 46.054 173.576C57.1371 188.077 74.7679 189.799 82.198 188.847Z" fill="#5CDD1A"/>
<path d="M90.1382 35.3043L138.943 77.0954C141.855 68.9774 143.976 50.0772 129.159 39.4203C114.343 28.7634 96.9717 32.2359 90.1382 35.3043Z" fill="#B9DE24"/>
</g>
<path d="M56.053 72.478L51.8158 72.9532L48.3706 83.17L44.173 72.7552L39.5398 72.9136L38.233 99.9604L42.0346 100.158L42.0742 77.9032L46.0738 87.6448L49.0042 88.0012L52.8454 78.4972L53.1622 99.8812C53.1622 99.8812 56.6866 99.8812 57.3202 99.8416L56.053 72.478ZM77.5289 79.9228L72.5789 72.9532L65.6093 72.478L59.3921 79.5268L59.7089 93.3076L64.7777 100.198L71.4701 100.119L76.7765 93.1492L77.5289 79.9228ZM73.1333 92.6344L69.8861 97.2676L66.0449 97.1488L63.1541 92.674L62.5205 81.9028L67.3517 75.4876L70.3217 75.6064L73.3709 79.5268L73.1333 92.6344ZM82.1077 100.079H84.0481L83.6521 85.0312H88.5229L88.7605 100.079H91.9285L90.9781 72.6364H88.3645L88.5229 83.0908L83.6125 83.4472L83.3353 72.6364H81.0385L82.1077 100.079ZM104.423 75.4876L104.74 72.7552L95.4739 72.9532L95.7115 75.0124L98.3251 75.1708L98.8399 98.0596L96.2263 98.218L96.5431 100.119L104.067 100.04L104.503 97.624L101.572 97.8616L102.008 75.3688L104.423 75.4876ZM122.31 72.3988L106.589 73.3096L106.748 75.5272H112.806L112.292 100.277L115.697 99.802L116.885 75.5272L122.152 75.6064L122.31 72.3988ZM141.724 79.9228L136.774 72.9532L129.805 72.478L123.587 79.5268L123.904 93.3076L128.973 100.198L135.665 100.119L140.972 93.1492L141.724 79.9228ZM137.329 92.6344L134.081 97.2676L130.24 97.1488L127.349 92.674L126.716 81.9028L131.547 75.4876L134.517 75.6064L137.566 79.5268L137.329 92.6344Z" fill="white"/>
</g>
<defs>
<clipPath id="clip0_873_1828">
<rect width="180" height="180" fill="white"/>
</clipPath>
<clipPath id="clip1_873_1828">
<rect width="180" height="180" fill="white"/>
</clipPath>
</defs>
</svg>
