<svg width="180" height="180" viewBox="0 0 180 180" fill="none" xmlns="http://www.w3.org/2000/svg">
<g clip-path="url(#clip0_874_2609)">
<rect width="180" height="180" fill="#6B291A"/>
<path fill-rule="evenodd" clip-rule="evenodd" d="M116.584 127.378C125.219 125.211 132.93 121.447 139.331 116.607L156.385 124.223C161.964 120.571 164.638 113.975 165.277 111.133L151.861 103.368C158.12 93.8454 160.59 82.7588 157.882 71.9711C157.591 70.8122 157.246 69.6785 156.849 68.5712C157.705 68.2744 158.565 67.9008 159.391 67.4371C162.223 65.8457 164.695 63.1526 165.086 58.8965C165.335 56.1901 164.443 54.0745 162.916 52.5997C161.989 51.7031 160.857 51.0706 159.666 50.6695C159.634 50.2656 159.564 49.8546 159.45 49.4391C158.823 47.1597 156.948 45.001 153.504 43.2157L152.403 45.2919C155.492 46.8932 156.774 48.617 157.172 50.0643C157.18 50.0968 157.189 50.1293 157.197 50.1618C155.344 50.0061 153.441 50.3319 152.003 51.1851C151.24 51.6375 150.575 52.2591 150.154 53.0671C149.726 53.8873 149.588 54.8281 149.774 55.8345C149.878 56.3985 150.076 56.9056 150.371 57.3294C138.829 43.5287 117.266 37.127 95.3112 42.6384C83.9422 45.4925 74.1745 51.1127 66.8909 58.3151C65.933 55.291 64.4656 53.2558 62.2764 53.3442C57.9728 53.5179 54.6108 58.4589 52.5304 63.0751C52.0209 63.1727 51.5114 63.2852 51.0022 63.413C47.5794 64.2723 44.4668 65.7489 41.7442 67.7028C37.6436 64.1372 31.2499 60.0831 26.7625 62.2594C22.0151 64.5618 26.7735 75.7412 30.9415 83.2335C29.8487 87.0654 29.5016 91.1835 30.0284 95.3623L25.001 97.286C25.4092 101.607 27.9434 110.301 32.5195 114.299L37.4933 111.948C44.3994 119.735 55.0025 123.535 65.4373 120.915C66.7055 120.597 67.9311 120.194 69.1101 119.713C69.6054 120.071 70.1096 120.419 70.6223 120.759L60.263 137.496C62.169 139.698 67.6415 144.249 74.2833 144.834L87.4326 127.852C96.439 129.928 106.47 129.917 116.584 127.378ZM150.692 57.718C152.841 60.3562 154.628 63.2579 155.987 66.3926C156.748 66.1344 157.51 65.8077 158.234 65.401C160.554 64.0971 162.43 62.0123 162.735 58.6941C162.922 56.6665 162.268 55.2494 161.265 54.2802C160.744 53.777 160.109 53.376 159.409 53.0802C159.152 53.9562 158.735 54.7613 158.23 55.4608C157.098 57.0282 155.415 58.219 153.792 58.5376C152.967 58.6996 152.055 58.6514 151.266 58.173C151.052 58.0438 150.861 57.8911 150.692 57.718ZM153.208 53.1935C154.15 52.6347 155.586 52.3533 157.121 52.5072C156.947 53.0731 156.668 53.6109 156.312 54.1028C155.449 55.2985 154.248 56.0631 153.344 56.2407C152.905 56.3267 152.643 56.2581 152.503 56.1733C152.386 56.1025 152.193 55.924 152.096 55.4021C151.998 54.8714 152.079 54.4627 152.25 54.1352C152.427 53.7955 152.739 53.4712 153.208 53.1935Z" fill="#E7B5E4"/>
<path d="M38.6286 74.258L34.8194 74.6852L31.7222 83.87L27.9486 74.5072L23.7834 74.6496L22.6086 98.9644L26.0262 99.1424L26.0618 79.1352L29.6574 87.8928L32.2918 88.2132L35.745 79.6692L36.0298 98.8932C36.0298 98.8932 39.1982 98.8932 39.7678 98.8576L38.6286 74.258ZM57.9353 80.9508L53.4853 74.6852L47.2197 74.258L41.6305 80.5948L41.9153 92.9836L46.4721 99.178L52.4885 99.1068L57.2589 92.8412L57.9353 80.9508ZM53.9837 92.3784L51.0645 96.5436L47.6113 96.4368L45.0125 92.414L44.4429 82.7308L48.7861 76.9636L51.4561 77.0704L54.1973 80.5948L53.9837 92.3784ZM74.9743 74.614L71.0227 74.436L71.6991 92.058L64.8995 74.436H61.0903L61.4463 99.0356L64.7927 98.9644L64.2587 79.9896L71.5567 98.9644H74.3691L74.9743 74.614ZM88.4584 74.5072L79.238 74.7208L79.8432 99H89.0636L89.2772 96.1164L82.1216 96.508L82.0504 85.65L86.4648 85.4008L86.1088 83.4428L82.0148 83.9412L81.9792 77.2484L88.6008 77.7468L88.4584 74.5072ZM100.696 74.4716L97.0647 83.5852L92.7215 74.614L89.6955 74.792L95.8187 86.8248L95.9611 98.9644H99.6635L99.3075 86.896L104.434 74.7208L100.696 74.4716ZM116.078 95.3688L109.314 96.2232L110.062 74.7564L106.181 74.4004L106.573 99.1424L116.505 99.2492L116.078 95.3688ZM127.848 74.5072L118.627 74.7208L119.233 99H128.453L128.667 96.1164L121.511 96.508L121.44 85.65L125.854 85.4008L125.498 83.4428L121.404 83.9412L121.369 77.2484L127.99 77.7468L127.848 74.5072ZM134.888 76.5008L139.338 78.7436L141.296 76.2872L137.487 74.1156L131.506 75.2904L130.153 82.1256L139.587 90.99L138.27 96.5436L134.14 96.152L131.933 92.8412L129.761 95.5468L132.681 98.9288L140.477 99.0356L143.111 89.8864L133.072 80.6304L134.888 76.5008ZM149.072 76.5008L153.522 78.7436L155.48 76.2872L151.671 74.1156L145.69 75.2904L144.337 82.1256L153.771 90.99L152.454 96.5436L148.324 96.152L146.117 92.8412L143.946 95.5468L146.865 98.9288L154.661 99.0356L157.296 89.8864L147.256 80.6304L149.072 76.5008Z" fill="white"/>
<path d="M106.5 46L83 55L86.5 57.5L108 51L106.5 46Z" fill="#A2579E"/>
</g>
<defs>
<clipPath id="clip0_874_2609">
<rect width="180" height="180" fill="white"/>
</clipPath>
</defs>
</svg>
