<svg width="180" height="180" viewBox="0 0 180 180" fill="none" xmlns="http://www.w3.org/2000/svg">
<g clip-path="url(#clip0_874_2609)">
<rect width="180" height="180" fill="#6B291A"/>
<path fill-rule="evenodd" clip-rule="evenodd" d="M116.584 127.378C125.219 125.211 132.93 121.447 139.331 116.607L156.385 124.223C161.964 120.571 164.638 113.975 165.277 111.133L151.861 103.368C158.12 93.8454 160.59 82.7588 157.882 71.9711C157.591 70.8122 157.246 69.6785 156.849 68.5712C157.705 68.2744 158.565 67.9008 159.391 67.4371C162.223 65.8457 164.695 63.1526 165.086 58.8965C165.335 56.1901 164.443 54.0745 162.916 52.5997C161.989 51.7031 160.857 51.0706 159.666 50.6695C159.634 50.2656 159.564 49.8546 159.45 49.4391C158.823 47.1597 156.948 45.001 153.504 43.2157L152.403 45.2919C155.492 46.8932 156.774 48.617 157.172 50.0643C157.18 50.0968 157.189 50.1293 157.197 50.1618C155.344 50.0061 153.441 50.3319 152.003 51.1851C151.24 51.6375 150.575 52.2591 150.154 53.0671C149.726 53.8873 149.588 54.8281 149.774 55.8345C149.878 56.3985 150.076 56.9056 150.371 57.3294C138.829 43.5287 117.266 37.127 95.3112 42.6384C83.9422 45.4925 74.1745 51.1127 66.8908 58.3151C65.933 55.291 64.4656 53.2558 62.2764 53.3442C57.9728 53.5179 54.6108 58.4589 52.5304 63.0751C52.0209 63.1727 51.5114 63.2852 51.0022 63.413C47.5794 64.2723 44.4668 65.7489 41.7442 67.7028C37.6436 64.1372 31.2499 60.0831 26.7625 62.2594C22.0151 64.5618 26.7735 75.7412 30.9415 83.2335C29.8487 87.0654 29.5016 91.1835 30.0284 95.3623L25.001 97.286C25.4092 101.607 27.9434 110.301 32.5195 114.299L37.4933 111.948C44.3994 119.735 55.0025 123.535 65.4373 120.915C66.7055 120.597 67.9311 120.194 69.1101 119.713C69.6054 120.071 70.1096 120.419 70.6223 120.759L60.263 137.496C62.169 139.698 67.6415 144.249 74.2833 144.834L87.4326 127.852C96.439 129.928 106.47 129.917 116.584 127.378ZM150.692 57.718C152.841 60.3562 154.628 63.2579 155.987 66.3926C156.748 66.1344 157.51 65.8077 158.234 65.401C160.554 64.0971 162.43 62.0123 162.735 58.6941C162.922 56.6665 162.268 55.2494 161.265 54.2802C160.744 53.777 160.109 53.376 159.409 53.0802C159.152 53.9561 158.735 54.7613 158.23 55.4608C157.098 57.0282 155.415 58.219 153.792 58.5376C152.967 58.6995 152.055 58.6514 151.266 58.173C151.052 58.0438 150.861 57.8912 150.692 57.718ZM153.208 53.1935C154.15 52.6347 155.586 52.3533 157.121 52.5072C156.947 53.0731 156.668 53.6109 156.312 54.1028C155.449 55.2985 154.248 56.0631 153.344 56.2407C152.905 56.3267 152.643 56.2581 152.503 56.1733C152.386 56.1025 152.193 55.924 152.096 55.4021C151.998 54.8714 152.079 54.4627 152.25 54.1352C152.427 53.7955 152.739 53.4712 153.208 53.1935Z" fill="#E7B5E4"/>
<path d="M46.8585 56.792L43.8325 56.3648L43.6901 80.9288H55.2245L55.6161 77.44L46.3245 78.2944L46.8585 56.792ZM59.8002 56.1512L56.0978 80.7152L59.0882 80.8932L60.8326 70.0708L63.8586 69.8572L65.8166 80.7152L68.2018 80.9644L63.7518 56.1512H59.8002ZM61.1174 68.5044L62.3278 61.4912L63.6094 68.3264L61.1174 68.5044ZM81.2017 78.0452L74.9005 78.4368L73.1205 67.294L74.5801 60.5656L81.0949 59.7112L81.1661 56.0444L73.1917 56.97L69.7741 68.184L72.7289 81.2848L81.5933 81.0712L81.2017 78.0452ZM84.6176 56.5072L84.2616 81.0712L87.7148 81.0356L87.8216 70.498L89.566 68.8248L99.6052 81.6052L102.204 79.7896L91.8444 67.116L100.353 58.8568L98.3592 56.7564L87.8572 67.2584L87.964 56.7208L84.6176 56.5072ZM126.441 62.9508L121.991 56.6852L115.725 56.258L110.136 62.5948L110.421 74.9836L114.978 81.178L120.994 81.1068L125.765 74.8412L126.441 62.9508ZM122.489 74.3784L119.57 78.5436L116.117 78.4368L113.518 74.414L112.949 64.7308L117.292 58.9636L119.962 59.0704L122.703 62.5948L122.489 74.3784ZM130.094 56.7564L129.596 80.9644L133.014 80.7152L132.693 68.54L136.823 68.6468L136.93 66.6176L132.658 66.938L132.515 60.0316L138.46 59.3908L138.211 56.2936L130.094 56.7564ZM65.3286 92.258L61.5194 92.6852L58.4222 101.87L54.6486 92.5072L50.4834 92.6496L49.3086 116.964L52.7262 117.142L52.7618 97.1352L56.3574 105.893L58.9918 106.213L62.445 97.6692L62.7298 116.893C62.7298 116.893 65.8982 116.893 66.4678 116.858L65.3286 92.258ZM84.6352 98.9508L80.1853 92.6852L73.9196 92.258L68.3304 98.5948L68.6152 110.984L73.172 117.178L79.1885 117.107L83.9589 110.841L84.6352 98.9508ZM80.6836 110.378L77.7644 114.544L74.3113 114.437L71.7124 110.414L71.1428 100.731L75.486 94.9636L78.156 95.0704L80.8973 98.5948L80.6836 110.378ZM101.674 92.614L97.7227 92.436L98.3991 110.058L91.5995 92.436H87.7903L88.1463 117.036L91.4927 116.964L90.9587 97.9896L98.2567 116.964H101.069L101.674 92.614ZM115.158 92.5072L105.938 92.7208L106.543 117H115.764L115.977 114.116L108.822 114.508L108.75 103.65L113.165 103.401L112.809 101.443L108.715 101.941L108.679 95.2484L115.301 95.7468L115.158 92.5072ZM127.396 92.4716L123.765 101.585L119.421 92.614L116.395 92.792L122.519 104.825L122.661 116.964H126.363L126.007 104.896L131.134 92.7208L127.396 92.4716Z" fill="white"/>
<path d="M106.5 46L83 55L86.5 57.5L108 51L106.5 46Z" fill="#A2579E"/>
</g>
<defs>
<clipPath id="clip0_874_2609">
<rect width="180" height="180" fill="white"/>
</clipPath>
</defs>
</svg>
