<svg width="180" height="180" viewBox="0 0 180 180" fill="none" xmlns="http://www.w3.org/2000/svg">
<g clip-path="url(#clip0_873_1900)">
<rect width="180" height="180" fill="#D76950"/>
<path d="M54 130L89 46L120.5 130H54Z" fill="#C62E2E"/>
<path d="M52 134L118 132L120 168H52V134Z" fill="#C62E2E"/>
<path d="M8 146L169 153V180H8V146Z" fill="#C62E2E"/>
<rect x="42" y="138" width="7" height="16" fill="#C62E2E"/>
<rect x="149" y="138" width="7" height="16" fill="#C62E2E"/>
<rect x="29" y="141" width="7" height="16" fill="#C62E2E"/>
<rect x="136" y="141" width="7" height="16" fill="#C62E2E"/>
<rect x="16" y="138" width="7" height="16" fill="#C62E2E"/>
<rect x="123" y="138" width="7" height="16" fill="#C62E2E"/>
<path d="M88 20L91.3677 30.3647H102.266L93.4491 36.7705L96.8168 47.1353L88 40.7295L79.1832 47.1353L82.5509 36.7705L73.7342 30.3647H84.6323L88 20Z" fill="#C62E2E"/>
<path d="M49.7882 52.478L45.551 52.9532L42.1058 63.17L37.9082 52.7552L33.275 52.9136L31.9682 79.9604L35.7698 80.1584L35.8094 57.9032L39.809 67.6448L42.7394 68.0012L46.5806 58.4972L46.8974 79.8812C46.8974 79.8812 50.4218 79.8812 51.0554 79.8416L49.7882 52.478ZM71.2641 59.9228L66.3141 52.9532L59.3445 52.478L53.1273 59.5268L53.4441 73.3076L58.5129 80.198L65.2053 80.1188L70.5117 73.1492L71.2641 59.9228ZM66.8685 72.6344L63.6213 77.2676L59.7801 77.1488L56.8893 72.674L56.2557 61.9028L61.0869 55.4876L64.0569 55.6064L67.1061 59.5268L66.8685 72.6344ZM79.2484 54.9728L84.1984 57.4676L86.3764 54.7352L82.1392 52.3196L75.4864 53.6264L73.9816 61.2296L84.4756 71.09L83.0104 77.2676L78.4168 76.832L75.9616 73.1492L73.546 76.1588L76.7932 79.9208L85.4656 80.0396L88.396 69.8624L77.2288 59.5664L79.2484 54.9728ZM102.462 76.7132L95.4529 77.1488L93.4729 64.754L95.0965 57.2696L102.343 56.3192L102.422 52.2404L93.5521 53.27L89.7505 65.744L93.0373 80.3168L102.898 80.0792L102.462 76.7132ZM121.151 59.9228L116.201 52.9532L109.231 52.478L103.014 59.5268L103.331 73.3076L108.4 80.198L115.092 80.1188L120.398 73.1492L121.151 59.9228ZM116.755 72.6344L113.508 77.2676L109.667 77.1488L106.776 72.674L106.142 61.9028L110.974 55.4876L113.944 55.6064L116.993 59.5268L116.755 72.6344ZM135.867 69.6644L139.075 79.9604L142.916 80.0792L148.183 52.874L143.193 52.7948L140.659 74.6144L136.738 63.4868L135.154 63.6848L130.363 76.3568L127.274 52.7948L123.274 52.5968L128.224 80.1188L131.907 80L135.867 69.6644ZM74.0548 92.478L69.8176 92.9532L66.3724 103.17L62.1748 92.7552L57.5416 92.9136L56.2348 119.96L60.0364 120.158L60.076 97.9032L64.0756 107.645L67.006 108.001L70.8472 98.4972L71.164 119.881C71.164 119.881 74.6884 119.881 75.322 119.842L74.0548 92.478ZM91.7482 111.644L89.887 116L84.8182 116.436L82.0066 111.724L82.759 92.6364L78.799 92.3988L78.403 114.02L82.2046 119.921L91.8274 120.158L95.3914 114.456L96.1042 92.6364L91.273 92.8344L91.7482 111.644ZM110.784 115.961L103.26 116.911L104.091 93.0324L99.775 92.6364L100.211 120.158L111.259 120.277L110.784 115.961ZM123.876 92.7552L113.619 92.9928L114.293 120H124.549L124.787 116.792L116.827 117.228L116.748 105.15L121.658 104.873L121.262 102.695L116.708 103.249L116.669 95.8044L124.034 96.3588L123.876 92.7552Z" fill="white"/>
</g>
<defs>
<clipPath id="clip0_873_1900">
<rect width="180" height="180" fill="white"/>
</clipPath>
</defs>
</svg>
