<svg width="180" height="180" viewBox="0 0 180 180" fill="none" xmlns="http://www.w3.org/2000/svg">
<g clip-path="url(#clip0_874_2617)">
<rect width="180" height="180" fill="#304034"/>
<path d="M121 37.9997L97.5002 51.4997C91.1669 59.1664 77.7002 72.5 74.5002 64.5C70.5002 54.5 91.0002 51.4997 92.0002 45.5C93.0002 39.5003 108.5 32.5 114 31.5C119.5 30.5 117.5 25.9994 117.5 14.4994C117.5 2.99938 131 6.49938 143 14.4994C155 22.4994 157 12.9993 180.5 11.4993C204 9.99933 188.5 32.9993 189 34.4993C189.5 35.9993 183 37.9997 178.5 37.9997C174 37.9997 168 51.4997 159.5 53.9993C151 56.499 138.5 51.4997 137 41.9997C135.8 34.3997 125.834 36.1663 121 37.9997Z" fill="#E44242"/>
<path d="M49 74.3545C49 74.3545 60.0588 93.5589 80.7439 88.2723C80.7439 88.2723 82.9491 102.83 102.697 108.473L127.429 149.472L126.468 157.8L116.22 170.848L117.275 172.925L159.913 151.255L158.858 149.178L142.277 149.766L134.983 145.633L116.441 101.487C123.523 82.2092 113.063 71.8467 113.063 71.8467C129.526 58.2532 120.531 37.9998 120.531 37.9998L49 74.3545Z" fill="#E49988"/>
<path d="M59.9052 56.258L56.096 56.6852L52.9988 65.87L49.2252 56.5072L45.06 56.6496L43.8852 80.9644L47.3028 81.1424L47.3384 61.1352L50.934 69.8928L53.5684 70.2132L57.0216 61.6692L57.3064 80.8932C57.3064 80.8932 60.4748 80.8932 61.0444 80.8576L59.9052 56.258ZM75.8114 73.4884L74.1383 77.4044L69.5815 77.796L67.0539 73.5596L67.7303 56.4004L64.1703 56.1868L63.8143 75.6244L67.2319 80.9288L75.8826 81.1424L79.0866 76.016L79.7275 56.4004L75.3842 56.5784L75.8114 73.4884ZM97.7302 56.258L93.921 56.6852L90.8238 65.87L87.0502 56.5072L82.885 56.6496L81.7102 80.9644L85.1278 81.1424L85.1634 61.1352L88.759 69.8928L91.3934 70.2132L94.8466 61.6692L95.1314 80.8932C95.1314 80.8932 98.2998 80.8932 98.8694 80.8576L97.7302 56.258ZM116.775 58.9636L117.059 56.5072L108.729 56.6852L108.943 58.5364L111.292 58.6788L111.755 79.2556L109.405 79.398L109.69 81.1068L116.454 81.0356L116.846 78.864L114.211 79.0776L114.603 58.8568L116.775 58.9636ZM134.964 56.258L131.155 56.6852L128.058 65.87L124.284 56.5072L120.119 56.6496L118.944 80.9644L122.362 81.1424L122.397 61.1352L125.993 69.8928L128.627 70.2132L132.081 61.6692L132.365 80.8932C132.365 80.8932 135.534 80.8932 136.103 80.8576L134.964 56.258ZM36.5574 117.178L47.4154 116.786L52.1147 111.233L52.6486 99.9832L46.8458 92.8988L36.059 92.5072L36.5574 117.178ZM47.807 109.702L45.1726 113.725L39.797 113.938L40.1175 95.3908L44.8879 95.2484L48.4834 101.229L47.807 109.702ZM57.8707 92.1512L54.1683 116.715L57.1587 116.893L58.9031 106.071L61.9291 105.857L63.8871 116.715L66.2723 116.964L61.8223 92.1512H57.8707ZM59.1879 104.504L60.3983 97.4912L61.6799 104.326L59.1879 104.504ZM82.7966 92.614L78.845 92.436L79.5214 110.058L72.7218 92.436H68.9126L69.2686 117.036L72.615 116.964L72.081 97.9896L79.379 116.964H82.1914L82.7966 92.614ZM97.4198 114.045L91.1186 114.437L89.3386 103.294L90.7982 96.5656L97.313 95.7112L97.3842 92.0444L89.4098 92.97L85.9922 104.184L88.947 117.285L97.8114 117.071L97.4198 114.045ZM107.457 94.9636L107.742 92.5072L99.4117 92.6852L99.6254 94.5364L101.975 94.6788L102.438 115.256L100.088 115.398L100.373 117.107L107.137 117.036L107.529 114.864L104.894 115.078L105.286 94.8568L107.457 94.9636ZM124.828 92.614L120.877 92.436L121.553 110.058L114.753 92.436H110.944L111.3 117.036L114.647 116.964L114.113 97.9896L121.411 116.964H124.223L124.828 92.614ZM144.685 95.9604L141.516 92.8276L137.137 92.1156L130.979 94.7144L128.024 104.113L130.231 114.366L137.066 117.57L145.219 115.113L144.969 106.925L143.759 105.501L139.701 105.216V108.563L142.584 108.349L142.406 113.155L137.458 114.294L133.008 111.482L131.014 104.398L133.613 96.53L139.309 94.8924L142.584 98.0252L144.685 95.9604Z" fill="white"/>
<path d="M181.238 9.70311C175.288 9.44445 168.512 11.1041 165.868 11.9663C164.38 12.4087 160.91 8.40994 170.33 4.85345C179.751 1.29697 188.676 10.0264 181.238 9.70311Z" fill="#E44242"/>
<path d="M109.9 27.2281C111.781 26.0961 113.002 23.5568 113.377 22.4287C113.608 21.8214 116.521 23.6224 115.413 27.9516C114.306 32.2809 107.549 28.643 109.9 27.2281Z" fill="#E44242"/>
</g>
<defs>
<clipPath id="clip0_874_2617">
<rect width="180" height="180" fill="white"/>
</clipPath>
</defs>
</svg>
