<svg width="180" height="180" viewBox="0 0 180 180" fill="none" xmlns="http://www.w3.org/2000/svg">
<g clip-path="url(#clip0_874_2617)">
<rect width="180" height="180" fill="#304034"/>
<path d="M121 37.9997L97.5002 51.4997C91.1669 59.1664 77.7002 72.5 74.5002 64.5C70.5002 54.5 91.0002 51.4997 92.0002 45.5C93.0002 39.5003 108.5 32.5 114 31.5C119.5 30.5 117.5 25.9994 117.5 14.4994C117.5 2.99938 131 6.49938 143 14.4994C155 22.4994 157 12.9993 180.5 11.4993C204 9.99933 188.5 32.9993 189 34.4993C189.5 35.9993 183 37.9997 178.5 37.9997C174 37.9997 168 51.4997 159.5 53.9993C151 56.499 138.5 51.4997 137 41.9997C135.8 34.3997 125.834 36.1663 121 37.9997Z" fill="#E44242"/>
<path d="M49 74.3545C49 74.3545 60.0588 93.5589 80.7439 88.2723C80.7439 88.2723 82.9491 102.83 102.697 108.473L127.429 149.472L126.468 157.8L116.22 170.848L117.275 172.925L159.913 151.255L158.858 149.178L142.277 149.766L134.983 145.633L116.441 101.487C123.523 82.2092 113.063 71.8466 113.063 71.8466C129.526 58.2532 120.531 37.9998 120.531 37.9998L49 74.3545Z" fill="#E49988"/>
<path d="M64.5681 59.996C62.7525 58.6076 60.1181 56.6852 57.5905 56.6852C54.5289 56.6852 53.3185 59.3196 53.3185 61.5624C53.3185 68.0772 60.9725 69.5368 60.9725 75.2328C60.9725 76.4788 60.4741 77.8672 58.9789 77.8672C56.8785 77.8672 55.2053 76.2652 53.4965 73.9156L51.4317 76.2652C53.5321 79.4692 55.5969 81.3204 58.4449 81.3204C61.2929 81.3204 63.8561 79.3624 63.8561 75.0904C63.8561 69.3232 55.8461 65.6208 55.8461 61.6692C55.8461 60.6368 56.3801 59.4976 57.4125 59.4976C59.0857 59.4976 61.2573 61.4912 63.0729 62.844L64.5681 59.996ZM76.6207 56.5072L67.4003 56.7208L68.0055 81H77.2259L77.4395 78.1164L70.2839 78.508L70.2127 67.65L74.6271 67.4008L74.2711 65.4428L70.1771 65.9412L70.1415 59.2484L76.7631 59.7468L76.6207 56.5072ZM88.8582 56.5072L79.6378 56.7208L80.243 81H89.4634L89.677 78.1164L82.5214 78.508L82.4502 67.65L86.8646 67.4008L86.5086 65.4428L82.4146 65.9412L82.379 59.2484L89.0006 59.7468L88.8582 56.5072ZM114.539 56.258L110.73 56.6852L107.633 65.87L103.859 56.5072L99.6942 56.6496L98.5194 80.9644L101.937 81.1424L101.973 61.1352L105.568 69.8928L108.203 70.2132L111.656 61.6692L111.941 80.8932C111.941 80.8932 115.109 80.8932 115.679 80.8576L114.539 56.258ZM127.865 56.5072L118.645 56.7208L119.25 81H128.47L128.684 78.1164L121.528 78.508L121.457 67.65L125.872 67.4008L125.516 65.4428L121.422 65.9412L121.386 59.2484L128.008 59.7468L127.865 56.5072ZM36.5574 117.178L47.4154 116.786L52.1147 111.233L52.6486 99.9832L46.8458 92.8988L36.059 92.5072L36.5574 117.178ZM47.807 109.702L45.1726 113.725L39.797 113.938L40.1175 95.3908L44.8879 95.2484L48.4834 101.229L47.807 109.702ZM57.8707 92.1512L54.1683 116.715L57.1587 116.893L58.9031 106.071L61.9291 105.857L63.8871 116.715L66.2723 116.964L61.8223 92.1512H57.8707ZM59.1879 104.504L60.3983 97.4912L61.6799 104.326L59.1879 104.504ZM82.7966 92.614L78.845 92.436L79.5214 110.058L72.7218 92.436H68.9126L69.2686 117.036L72.615 116.964L72.081 97.9896L79.379 116.964H82.1914L82.7966 92.614ZM97.4198 114.045L91.1186 114.437L89.3386 103.294L90.7982 96.5656L97.313 95.7112L97.3842 92.0444L89.4098 92.97L85.9922 104.184L88.947 117.285L97.8114 117.071L97.4198 114.045ZM107.457 94.9636L107.742 92.5072L99.4117 92.6852L99.6254 94.5364L101.975 94.6788L102.438 115.256L100.088 115.398L100.373 117.107L107.137 117.036L107.529 114.864L104.894 115.078L105.286 94.8568L107.457 94.9636ZM124.828 92.614L120.877 92.436L121.553 110.058L114.753 92.436H110.944L111.3 117.036L114.647 116.964L114.113 97.9896L121.411 116.964H124.223L124.828 92.614ZM144.685 95.9604L141.516 92.8276L137.137 92.1156L130.979 94.7144L128.024 104.113L130.231 114.366L137.066 117.57L145.219 115.113L144.969 106.925L143.759 105.501L139.701 105.216V108.563L142.584 108.349L142.406 113.155L137.458 114.294L133.008 111.482L131.014 104.398L133.613 96.53L139.309 94.8924L142.584 98.0252L144.685 95.9604Z" fill="white"/>
<path d="M181.238 9.70311C175.288 9.44445 168.512 11.1041 165.868 11.9663C164.38 12.4087 160.91 8.40994 170.33 4.85345C179.751 1.29697 188.676 10.0264 181.238 9.70311Z" fill="#E44242"/>
<path d="M109.9 27.2281C111.781 26.0961 113.002 23.5568 113.377 22.4287C113.608 21.8214 116.521 23.6224 115.413 27.9516C114.306 32.2809 107.549 28.643 109.9 27.2281Z" fill="#E44242"/>
</g>
<defs>
<clipPath id="clip0_874_2617">
<rect width="180" height="180" fill="white"/>
</clipPath>
</defs>
</svg>
