<svg width="180" height="180" viewBox="0 0 180 180" fill="none" xmlns="http://www.w3.org/2000/svg">
<g clip-path="url(#clip0_874_2731)">
<rect width="180" height="180" fill="#3EC26B"/>
<path d="M22.6907 47.6377L140.739 133.653C145.913 114.753 147.391 71.5723 111.911 50.0574C76.4305 28.5425 37.6473 39.4797 22.6907 47.6377Z" fill="#FFB26A"/>
<path d="M147 150.077C147 153.348 144.314 156 141 156C137.686 156 135 153.348 135 150.077C135 146.806 139.636 135 141 135C142.364 135 147 146.806 147 150.077Z" fill="#FFB26A"/>
<path d="M64.0927 74.614L60.1411 74.436L60.8175 92.058L54.0179 74.436H50.2087L50.5647 99.0356L53.9111 98.9644L53.3771 79.9896L60.6751 98.9644H63.4875L64.0927 74.614ZM77.5767 74.5072L68.3563 74.7208L68.9615 99H78.1819L78.3955 96.1164L71.2399 96.508L71.1687 85.65L75.5831 85.4008L75.2271 83.4428L71.1331 83.9412L71.0975 77.2484L77.7191 77.7468L77.5767 74.5072ZM90.9534 96.0452L84.6522 96.4368L82.8722 85.294L84.3318 78.5656L90.8466 77.7112L90.9178 74.0444L82.9434 74.97L79.5258 86.184L82.4806 99.2848L91.345 99.0712L90.9534 96.0452ZM106.989 74.1868L92.8558 75.0056L92.9982 76.9992H98.445L97.9822 99.2492L101.044 98.822L102.112 76.9992L106.847 77.0704L106.989 74.1868ZM109.845 74.1512L106.143 98.7152L109.133 98.8932L110.878 88.0708L113.904 87.8572L115.862 98.7152L118.247 98.9644L113.797 74.1512H109.845ZM111.163 86.5044L112.373 79.4912L113.655 86.3264L111.163 86.5044ZM124.376 88.5692L128.221 99.178L130.748 99L126.583 88.3556L128.933 88.32L130.748 85.8636V77.5688L128.577 74.614H120.887V99H123.664L123.344 88.6404L124.376 88.5692ZM122.916 76.7856H126.868L128.47 78.6724L128.363 84.5108L127.01 85.8636L123.237 86.006L122.916 76.7856Z" fill="white"/>
</g>
<defs>
<clipPath id="clip0_874_2731">
<rect width="180" height="180" fill="white"/>
</clipPath>
</defs>
</svg>
