<svg width="180" height="180" viewBox="0 0 180 180" fill="none" xmlns="http://www.w3.org/2000/svg">
<g clip-path="url(#clip0_873_1877)">
<rect width="180" height="180" fill="#85263D"/>
<path d="M-11 104.5L104.5 2.5L207 164.5L-8 134.5L-11 104.5Z" fill="#B842A5"/>
<path d="M46.9244 75.874L42.5288 75.676L43.2812 95.278L35.7176 75.676H31.4804L31.8764 103.04L35.5988 102.96L35.0048 81.8536L43.1228 102.96H46.2512L46.9244 75.874ZM61.9236 75.7552L51.6672 75.9928L52.3404 103H62.5968L62.8344 99.7924L54.8748 100.228L54.7956 88.15L59.706 87.8728L59.31 85.6948L54.756 86.2492L54.7164 78.8044L62.082 79.3588L61.9236 75.7552ZM82.6245 79.5964L79.1001 76.1116L74.2293 75.3196L67.3785 78.2104L64.0917 88.6648L66.5469 100.07L74.1501 103.634L83.2185 100.901L82.9413 91.7932L81.5949 90.2092L77.0805 89.8924V93.6148L80.2881 93.3772L80.0901 98.7232L74.5857 99.9904L69.6357 96.862L67.4181 88.9816L70.3089 80.23L76.6449 78.4084L80.2881 81.8932L82.6245 79.5964ZM90.43 91.3972L94.7068 103.198L97.5184 103L92.8852 91.1596L95.4988 91.12L97.5184 88.3876V79.1608L95.1028 75.874H86.5492V103H89.638L89.2816 91.4764L90.43 91.3972ZM88.8064 78.2896H93.202L94.984 80.3884L94.8652 86.8828L93.3604 88.3876L89.1628 88.546L88.8064 78.2896ZM118.115 82.9228L113.165 75.9532L106.195 75.478L99.9782 82.5268L100.295 96.3076L105.364 103.198L112.056 103.119L117.363 96.1492L118.115 82.9228ZM113.719 95.6344L110.472 100.268L106.631 100.149L103.74 95.674L103.107 84.9028L107.938 78.4876L110.908 78.6064L113.957 82.5268L113.719 95.6344ZM137.069 75.874L132.673 75.676L133.425 95.278L125.862 75.676H121.625L122.021 103.04L125.743 102.96L125.149 81.8536L133.267 102.96H136.395L137.069 75.874ZM149.573 78.4876L149.89 75.7552L140.623 75.9532L140.861 78.0124L143.474 78.1708L143.989 101.06L141.376 101.218L141.692 103.119L149.216 103.04L149.652 100.624L146.722 100.862L147.157 78.3688L149.573 78.4876Z" fill="white"/>
<path d="M-1.5 80.5L100 -7.5L93 -10L-8 64L-1.5 80.5Z" fill="#B842A5"/>
<path d="M196 126.5L107 -13.5L114 -16L209.5 79.5L196 126.5Z" fill="#B842A5"/>
</g>
<defs>
<clipPath id="clip0_873_1877">
<rect width="180" height="180" fill="white"/>
</clipPath>
</defs>
</svg>
