<svg width="180" height="180" viewBox="0 0 180 180" fill="none" xmlns="http://www.w3.org/2000/svg">
<g clip-path="url(#clip0_874_2368)">
<rect width="180" height="180" fill="#713FFF"/>
<path d="M87.0063 116.5C57.4063 100.1 61.0063 42 66.5063 15L34.0063 21.5C24.5063 39.3333 5.60625 83.3 6.00625 116.5C6.40625 149.7 29.8396 166.333 41.5062 170.5C53.5062 145.3 103.506 148.333 127.006 153C126.006 147.667 116.606 132.9 87.0063 116.5Z" fill="#C12F2F"/>
<path d="M-13.174 47.5C54.026 69.1 110.159 21.5 129.826 -5L-8.17402 -9C-37.8407 0.833333 -80.374 25.9 -13.174 47.5Z" fill="#D23A3A"/>
<path d="M121.462 110.775C88.6836 115.478 58.2319 69.2965 47.1034 45.6179C53.6054 29.9565 67.1107 2.91415 69.1159 20.0361C71.121 37.158 111.92 42.9341 132.069 43.6819C111.718 62.3023 116.518 96.169 121.462 110.775Z" fill="#D23A3A"/>
<path d="M47.2139 56.614L43.2623 56.436L43.9387 74.058L37.1391 56.436H33.3299L33.6859 81.0356L37.0323 80.9644L36.4983 61.9896L43.7963 80.9644H46.6087L47.2139 56.614ZM60.698 56.5072L51.4776 56.7208L52.0828 81H61.3032L61.5168 78.1164L54.3612 78.508L54.29 67.65L58.7044 67.4008L58.3484 65.4428L54.2544 65.9412L54.2188 59.2484L60.8404 59.7468L60.698 56.5072ZM73.7899 71.7084L76.6735 80.9644L80.1267 81.0712L84.8615 56.614L80.3759 56.5428L78.0975 76.1584L74.5731 66.1548L73.1491 66.3328L68.8415 77.7248L66.0647 56.5428L62.4691 56.3648L66.9191 81.1068L70.2299 81L73.7899 71.7084ZM105.024 56.4716L101.393 65.5852L97.0498 56.614L94.0238 56.792L100.147 68.8248L100.289 80.9644H103.992L103.636 68.896L108.762 56.7208L105.024 56.4716ZM120.495 56.5072L111.274 56.7208L111.88 81H121.1L121.314 78.1164L114.158 78.508L114.087 67.65L118.501 67.4008L118.145 65.4428L114.051 65.9412L114.016 59.2484L120.637 59.7468L120.495 56.5072ZM126.724 56.1512L123.022 80.7152L126.012 80.8932L127.756 70.0708L130.782 69.8572L132.74 80.7152L135.126 80.9644L130.676 56.1512H126.724ZM128.041 68.5044L129.252 61.4912L130.533 68.3264L128.041 68.5044ZM141.255 70.5692L145.099 81.178L147.627 81L143.462 70.3556L145.811 70.32L147.627 67.8636V59.5688L145.455 56.614H137.766V81H140.543L140.222 70.6404L141.255 70.5692ZM139.795 58.7856H143.747L145.349 60.6724L145.242 66.5108L143.889 67.8636L140.115 68.006L139.795 58.7856ZM23.0189 92.258L19.2097 92.6852L16.1125 101.87L12.3389 92.5072L8.17368 92.6496L6.99888 116.964L10.4165 117.142L10.4521 97.1352L14.0477 105.893L16.6821 106.213L20.1353 97.6692L20.4201 116.893C20.4201 116.893 23.5885 116.893 24.1581 116.858L23.0189 92.258ZM38.9251 109.488L37.2519 113.404L32.6951 113.796L30.1675 109.56L30.8439 92.4004L27.2839 92.1868L26.9279 111.624L30.3455 116.929L38.9963 117.142L42.2003 112.016L42.8411 92.4004L38.4979 92.5784L38.9251 109.488ZM56.0379 113.369L49.2739 114.223L50.0215 92.7564L46.1411 92.4004L46.5327 117.142L56.4651 117.249L56.0379 113.369ZM68.484 113.369L61.72 114.223L62.4676 92.7564L58.5872 92.4004L58.9788 117.142L68.9112 117.249L68.484 113.369ZM80.2537 92.5072L71.0333 92.7208L71.6385 117H80.8589L81.0725 114.116L73.9169 114.508L73.8457 103.65L78.2601 103.401L77.9041 101.443L73.8101 101.941L73.7745 95.2484L80.3961 95.7468L80.2537 92.5072ZM83.7692 117.178L94.6272 116.786L99.3264 111.233L99.8604 99.9832L94.0576 92.8988L83.2708 92.5072L83.7692 117.178ZM95.0188 109.702L92.3844 113.725L87.0088 113.938L87.3292 95.3908L92.0996 95.2484L95.6952 101.229L95.0188 109.702ZM121.054 107.708L123.937 116.964L127.391 117.071L132.125 92.614L127.64 92.5428L125.361 112.158L121.837 102.155L120.413 102.333L116.105 113.725L113.329 92.5428L109.733 92.3648L114.183 117.107L117.494 117L121.054 107.708ZM142.084 94.9636L142.369 92.5072L134.038 92.6852L134.252 94.5364L136.602 94.6788L137.064 115.256L134.715 115.398L135 117.107L141.764 117.036L142.155 114.864L139.521 115.078L139.912 94.8568L142.084 94.9636ZM159.455 92.614L155.503 92.436L156.18 110.058L149.38 92.436H145.571L145.927 117.036L149.273 116.964L148.739 97.9896L156.037 116.964H158.85L159.455 92.614ZM172.939 92.5072L163.718 92.7208L164.324 117H173.544L173.758 114.116L166.602 114.508L166.531 103.65L170.945 103.401L170.589 101.443L166.495 101.941L166.46 95.2484L173.081 95.7468L172.939 92.5072Z" fill="white"/>
</g>
<defs>
<clipPath id="clip0_874_2368">
<rect width="180" height="180" fill="white"/>
</clipPath>
</defs>
</svg>
