<svg width="180" height="180" viewBox="0 0 180 180" fill="none" xmlns="http://www.w3.org/2000/svg">
<g clip-path="url(#clip0_874_2391)">
<rect width="180" height="180" fill="#478358"/>
<path d="M45.4976 112H135C108.384 37.3586 59.2432 28.2676 38 33.0523C50.7459 49.7031 48.3092 92.6219 45.4976 112Z" fill="#D51442"/>
<path d="M50 112C50 112 51.1685 134.353 72.2014 139.059C72.2014 139.059 67.5274 153.176 82.7179 167.294L86.2233 215.529L81.5494 222.588L66.3589 229.647V232H114.641V229.647L99.4506 222.588L94.7767 215.529L98.2821 167.294C113.473 153.176 108.799 139.059 108.799 139.059C129.832 134.353 131 112 131 112H50Z" fill="#405A43"/>
<path d="M32.7574 74.414L26.1002 56.5072H22.3266L22.647 81.2492L25.9222 81.178L25.3882 61.9896L32.5794 81.178H35.3562L35.9614 56.6496L32.0454 56.5072L32.7574 74.414ZM49.4513 56.5072L40.2309 56.7208L40.8361 81H50.0565L50.2701 78.1164L43.1145 78.508L43.0433 67.65L47.4577 67.4008L47.1017 65.4428L43.0077 65.9412L42.9721 59.2484L49.5937 59.7468L49.4513 56.5072ZM62.5432 71.7084L65.4268 80.9644L68.88 81.0712L73.6148 56.614L69.1292 56.5428L66.8508 76.1584L63.3264 66.1548L61.9024 66.3328L57.5948 77.7248L54.818 56.5428L51.2224 56.3648L55.6724 81.1068L58.9832 81L62.5432 71.7084ZM93.1367 56.5072C92.0687 59.6044 90.8583 62.8796 89.8615 65.9768L85.3403 56.5784C84.4147 56.5784 83.7027 56.5072 82.7771 56.5072C84.7707 60.7792 86.7999 64.9444 88.7935 69.2164L88.9715 81.178H92.2467C92.1399 77.5112 91.9619 73.7732 91.8551 70.142L96.8391 56.792L93.1367 56.5072ZM108.588 56.5072L99.3672 56.7208L99.9724 81H109.193L109.406 78.1164L102.251 78.508L102.18 67.65L106.594 67.4008L106.238 65.4428L102.144 65.9412L102.108 59.2484L108.73 59.7468L108.588 56.5072ZM114.817 56.1512L111.114 80.7152L114.105 80.8932L115.849 70.0708L118.875 69.8572L120.833 80.7152L123.218 80.9644L118.768 56.1512H114.817ZM116.134 68.5044L117.344 61.4912L118.626 68.3264L116.134 68.5044ZM129.347 70.5692L133.192 81.178L135.72 81L131.555 70.3556L133.904 70.32L135.72 67.8636V59.5688L133.548 56.614H125.859V81H128.635L128.315 70.6404L129.347 70.5692ZM127.888 58.7856H131.839L133.441 60.6724L133.335 66.5108L131.982 67.8636L128.208 68.006L127.888 58.7856ZM140.316 54.6916L140.032 61.954H141.634L144.161 55.0476L140.316 54.6916ZM150.671 58.5008L155.121 60.7436L157.079 58.2872L153.27 56.1156L147.289 57.2904L145.936 64.1256L155.37 72.99L154.053 78.5436L149.924 78.152L147.716 74.8412L145.545 77.5468L148.464 80.9288L156.26 81.0356L158.895 71.8864L148.856 62.6304L150.671 58.5008ZM43.1134 92.258L39.3042 92.6852L36.207 101.87L32.4334 92.5072L28.2682 92.6496L27.0934 116.964L30.511 117.142L30.5466 97.1352L34.1422 105.893L36.7766 106.213L40.2298 97.6692L40.5146 116.893C40.5146 116.893 43.683 116.893 44.2526 116.858L43.1134 92.258ZM49.2836 92.1512L45.5812 116.715L48.5716 116.893L50.316 106.071L53.342 105.857L55.3 116.715L57.6852 116.964L53.2352 92.1512H49.2836ZM50.6008 104.504L51.8112 97.4912L53.0928 104.326L50.6008 104.504ZM63.8143 106.569L67.6591 117.178L70.1867 117L66.0215 106.356L68.3711 106.32L70.1867 103.864V95.5688L68.0151 92.614H60.3255V117H63.1023L62.7819 106.64L63.8143 106.569ZM62.3547 94.7856H66.3063L67.9083 96.6724L67.8015 102.511L66.4487 103.864L62.6751 104.006L62.3547 94.7856ZM89.0944 95.9604L85.926 92.8276L81.5472 92.1156L75.3884 94.7144L72.4336 104.113L74.6408 114.366L81.476 117.57L89.6284 115.113L89.3792 106.925L88.1688 105.501L84.1104 105.216V108.563L86.994 108.349L86.816 113.155L81.8676 114.294L77.4176 111.482L75.424 104.398L78.0228 96.53L83.7188 94.8924L86.994 98.0252L89.0944 95.9604ZM94.6875 92.1512L90.9851 116.715L93.9755 116.893L95.7199 106.071L98.7459 105.857L100.704 116.715L103.089 116.964L98.6391 92.1512H94.6875ZM96.0047 104.504L97.2151 97.4912L98.4967 104.326L96.0047 104.504ZM109.218 106.569L113.063 117.178L115.591 117L111.425 106.356L113.775 106.32L115.591 103.864V95.5688L113.419 92.614H105.729V117H108.506L108.186 106.64L109.218 106.569ZM107.759 94.7856H111.71L113.312 96.6724L113.205 102.511L111.853 103.864L108.079 104.006L107.759 94.7856ZM125.883 94.9636L126.168 92.5072L117.838 92.6852L118.051 94.5364L120.401 94.6788L120.864 115.256L118.514 115.398L118.799 117.107L125.563 117.036L125.954 114.864L123.32 115.078L123.712 94.8568L125.883 94.9636ZM141.963 92.1868L127.83 93.0056L127.972 94.9992H133.419L132.956 117.249L136.018 116.822L137.086 94.9992L141.821 95.0704L141.963 92.1868ZM144.82 92.1512L141.117 116.715L144.108 116.893L145.852 106.071L148.878 105.857L150.836 116.715L153.221 116.964L148.771 92.1512H144.82ZM146.137 104.504L147.347 97.4912L148.629 104.326L146.137 104.504Z" fill="white"/>
<circle cx="38" cy="29" r="15" fill="#F4D8D8"/>
</g>
<defs>
<clipPath id="clip0_874_2391">
<rect width="180" height="180" fill="white"/>
</clipPath>
</defs>
</svg>
