<svg width="180" height="180" viewBox="0 0 180 180" fill="none" xmlns="http://www.w3.org/2000/svg">
<g clip-path="url(#clip0_874_2368)">
<rect width="180" height="180" fill="#713FFF"/>
<path d="M87.0063 116.5C57.4063 100.1 61.0063 42 66.5063 15L34.0063 21.5C24.5063 39.3333 5.60625 83.3 6.00625 116.5C6.40625 149.7 29.8396 166.333 41.5062 170.5C53.5062 145.3 103.506 148.333 127.006 153C126.006 147.667 116.606 132.9 87.0063 116.5Z" fill="#C12F2F"/>
<path d="M-13.174 47.5C54.026 69.1 110.159 21.5 129.826 -5L-8.17402 -9C-37.8407 0.833333 -80.374 25.9 -13.174 47.5Z" fill="#D23A3A"/>
<path d="M121.462 110.775C88.6836 115.478 58.2319 69.2965 47.1034 45.6179C53.6054 29.9565 67.1107 2.91415 69.1159 20.0361C71.121 37.158 111.92 42.9341 132.069 43.6819C111.718 62.3023 116.518 96.169 121.462 110.775Z" fill="#D23A3A"/>
<path d="M32.7574 74.414L26.1002 56.5072H22.3266L22.647 81.2492L25.9222 81.178L25.3882 61.9896L32.5794 81.178H35.3562L35.9614 56.6496L32.0454 56.5072L32.7574 74.414ZM49.4513 56.5072L40.2309 56.7208L40.8361 81H50.0565L50.2701 78.1164L43.1145 78.508L43.0433 67.65L47.4577 67.4008L47.1017 65.4428L43.0077 65.9412L42.9721 59.2484L49.5937 59.7468L49.4513 56.5072ZM62.5432 71.7084L65.4268 80.9644L68.88 81.0712L73.6148 56.614L69.1292 56.5428L66.8508 76.1584L63.3264 66.1548L61.9024 66.3328L57.5948 77.7248L54.818 56.5428L51.2224 56.3648L55.6724 81.1068L58.9832 81L62.5432 71.7084ZM93.1367 56.5072C92.0687 59.6044 90.8583 62.8796 89.8615 65.9768L85.3403 56.5784C84.4147 56.5784 83.7027 56.5072 82.7771 56.5072C84.7707 60.7792 86.7999 64.9444 88.7935 69.2164L88.9715 81.178H92.2467C92.1399 77.5112 91.9619 73.7732 91.8551 70.142L96.8391 56.792L93.1367 56.5072ZM108.588 56.5072L99.3672 56.7208L99.9724 81H109.193L109.406 78.1164L102.251 78.508L102.18 67.65L106.594 67.4008L106.238 65.4428L102.144 65.9412L102.108 59.2484L108.73 59.7468L108.588 56.5072ZM114.817 56.1512L111.114 80.7152L114.105 80.8932L115.849 70.0708L118.875 69.8572L120.833 80.7152L123.218 80.9644L118.768 56.1512H114.817ZM116.134 68.5044L117.344 61.4912L118.626 68.3264L116.134 68.5044ZM129.347 70.5692L133.192 81.178L135.72 81L131.555 70.3556L133.904 70.32L135.72 67.8636V59.5688L133.548 56.614H125.859V81H128.635L128.315 70.6404L129.347 70.5692ZM127.888 58.7856H131.839L133.441 60.6724L133.335 66.5108L131.982 67.8636L128.208 68.006L127.888 58.7856ZM140.316 54.6916L140.032 61.954H141.634L144.161 55.0476L140.316 54.6916ZM150.671 58.5008L155.121 60.7436L157.079 58.2872L153.27 56.1156L147.289 57.2904L145.936 64.1256L155.37 72.99L154.053 78.5436L149.924 78.152L147.716 74.8412L145.545 77.5468L148.464 80.9288L156.26 81.0356L158.895 71.8864L148.856 62.6304L150.671 58.5008ZM45.7511 117L45.4663 92.5784H41.5503L41.4435 101.656L30.9771 101.443L31.0483 92.5784H28.2715V117H30.8347L30.9415 103.365H41.4435L41.3011 117H45.7511ZM65.236 98.9508L60.786 92.6852L54.5204 92.258L48.9312 98.5948L49.216 110.984L53.7728 117.178L59.7892 117.107L64.5596 110.841L65.236 98.9508ZM61.2844 110.378L58.3652 114.544L54.912 114.437L52.3132 110.414L51.7436 100.731L56.0868 94.9636L58.7568 95.0704L61.498 98.5948L61.2844 110.378ZM78.7593 92.1868L64.6261 93.0056L64.7685 94.9992H70.2153L69.7525 117.249L72.8141 116.822L73.8821 94.9992L78.6169 95.0704L78.7593 92.1868ZM105.135 112.016L100.151 102.831C99.7947 102.867 99.4387 102.974 99.0471 103.009L94.7039 113.298L94.3123 113.262L91.6067 92.8276L87.7263 92.6496L92.1407 117.107L96.7331 116.893L99.6523 107.851L103.675 116.964L107.52 117.071L112.148 92.614L107.449 92.5072L105.135 112.016ZM122.128 94.9636L122.413 92.5072L114.083 92.6852L114.296 94.5364L116.646 94.6788L117.109 115.256L114.759 115.398L115.044 117.107L121.808 117.036L122.2 114.864L119.565 115.078L119.957 94.8568L122.128 94.9636ZM139.499 92.614L135.548 92.436L136.224 110.058L129.424 92.436H125.615L125.971 117.036L129.318 116.964L128.784 97.9896L136.082 116.964H138.894L139.499 92.614ZM152.983 92.5072L143.763 92.7208L144.368 117H153.589L153.802 114.116L146.647 114.508L146.575 103.65L150.99 103.401L150.634 101.443L146.54 101.941L146.504 95.2484L153.126 95.7468L152.983 92.5072Z" fill="white"/>
</g>
<defs>
<clipPath id="clip0_874_2368">
<rect width="180" height="180" fill="white"/>
</clipPath>
</defs>
</svg>
