<svg width="180" height="180" viewBox="0 0 180 180" fill="none" xmlns="http://www.w3.org/2000/svg">
<g clip-path="url(#clip0_874_2441)">
<rect width="180" height="180" fill="#6B291A"/>
<path fill-rule="evenodd" clip-rule="evenodd" d="M109.225 9L23 86.1648L41.4964 108.389L74.3921 80.9601C73.6747 84.8482 73.8042 88.9525 75.5272 92.8197C77.5798 97.4265 81.6151 101.075 87.644 103.567C89.9389 104.516 92.1519 105.188 94.2767 105.608C94.3499 106.218 94.4471 106.827 94.5698 107.434C95.7061 113.053 98.9865 118.183 105.024 121.809C108.878 124.123 112.63 125.613 116.183 126.426C116.07 131.011 117.48 135.899 121.318 140.575C127.619 148.253 134.682 152.878 141.15 154.164C143.079 156.697 145.711 159.31 149.09 162L154.127 155.662C152.998 154.763 152.004 153.905 151.129 153.092C151.866 152.719 152.568 152.269 153.228 151.74C155.995 149.518 157.569 146.239 157.946 142.457C158.175 140.164 157.676 137.979 156.355 136.204C155.063 134.469 153.253 133.481 151.475 133.025C148.048 132.146 144.043 133.031 141.142 135.343C138.664 137.318 137.03 140.305 137.061 143.919C134.116 142.176 130.855 139.437 127.571 135.435C125.329 132.704 124.355 129.88 124.281 127.152C127.732 126.961 130.857 126.109 133.532 124.787C137.011 123.069 139.801 120.502 141.343 117.506C142.898 114.486 143.284 110.686 141.104 107.412C139.789 105.438 137.803 104.419 135.731 104.194C133.799 103.983 131.895 104.457 130.255 105.156C126.964 106.559 123.664 109.322 121.126 112.737C119.861 114.439 118.733 116.388 117.875 118.508C115.219 117.888 112.305 116.737 109.187 114.864C105.167 112.45 103.243 109.318 102.53 105.97C104.118 105.776 105.635 105.425 107.079 104.93C112.515 103.068 116.487 99.3259 119.051 95.2617C121.584 91.2481 122.912 86.6581 122.818 82.7252C122.771 80.7666 122.362 78.6793 121.276 76.902C120.115 75.0027 118.216 73.5597 115.699 73.2448C113.409 72.9583 111.234 73.6698 109.449 74.6306C107.624 75.6124 105.877 77.0272 104.289 78.6578C101.114 81.9185 98.2037 86.4259 96.3182 91.3646C95.5879 93.2777 94.9941 95.3019 94.6058 97.3831C93.3876 97.0732 92.0976 96.6456 90.7331 96.0815C86.1274 94.1775 83.9302 91.7947 82.9172 89.521C81.8756 87.1832 81.8019 84.323 82.6709 80.99C83.7138 76.9901 85.9873 72.8148 88.6177 69.0987L130.31 34.3352L109.225 9ZM148.165 145.422C147.62 145.86 146.848 146.221 145.805 146.366C145.581 145.873 145.424 145.426 145.321 145.027C144.848 143.195 145.443 142.268 146.182 141.679C147.182 140.882 148.595 140.647 149.466 140.87C149.728 140.937 149.835 141.016 149.864 141.042C149.888 141.104 149.932 141.281 149.895 141.652C149.695 143.655 148.957 144.787 148.165 145.422ZM149.862 141.038C149.856 141.022 149.851 141.016 149.851 141.016C149.85 141.017 149.851 141.019 149.853 141.024C149.855 141.027 149.858 141.032 149.862 141.038ZM129.95 117.525C129.057 117.967 128.033 118.346 126.89 118.62C127.121 118.263 127.364 117.913 127.618 117.571C129.487 115.057 131.714 113.337 133.426 112.607C133.912 112.4 134.273 112.307 134.513 112.269C134.568 112.575 134.529 113.061 134.15 113.797C133.543 114.977 132.179 116.424 129.95 117.525ZM104.459 97.2675C103.936 97.4466 103.384 97.6002 102.802 97.7226C103.076 96.569 103.437 95.4082 103.877 94.2555C105.387 90.2998 107.714 86.7444 110.084 84.3105C111.269 83.0939 112.371 82.2534 113.28 81.7641C113.848 81.4586 114.235 81.3448 114.459 81.3032C114.57 81.5734 114.709 82.089 114.728 82.9186C114.779 85.0419 114.012 88.0808 112.21 90.9369C110.44 93.7423 107.837 96.1103 104.459 97.2675Z" fill="#201E1E"/>
<path d="M47.2139 56.614L43.2623 56.436L43.9387 74.058L37.1391 56.436H33.3299L33.6859 81.0356L37.0323 80.9644L36.4983 61.9896L43.7963 80.9644H46.6087L47.2139 56.614ZM60.698 56.5072L51.4776 56.7208L52.0828 81H61.3032L61.5168 78.1164L54.3612 78.508L54.29 67.65L58.7044 67.4008L58.3484 65.4428L54.2544 65.9412L54.2188 59.2484L60.8404 59.7468L60.698 56.5072ZM73.7899 71.7084L76.6735 80.9644L80.1267 81.0712L84.8615 56.614L80.3759 56.5428L78.0975 76.1584L74.5731 66.1548L73.1491 66.3328L68.8415 77.7248L66.0647 56.5428L62.4691 56.3648L66.9191 81.1068L70.2299 81L73.7899 71.7084ZM105.024 56.4716L101.393 65.5852L97.0498 56.614L94.0238 56.792L100.147 68.8248L100.289 80.9644H103.992L103.636 68.896L108.762 56.7208L105.024 56.4716ZM120.495 56.5072L111.274 56.7208L111.88 81H121.1L121.314 78.1164L114.158 78.508L114.087 67.65L118.501 67.4008L118.145 65.4428L114.051 65.9412L114.016 59.2484L120.637 59.7468L120.495 56.5072ZM126.724 56.1512L123.022 80.7152L126.012 80.8932L127.756 70.0708L130.782 69.8572L132.74 80.7152L135.126 80.9644L130.676 56.1512H126.724ZM128.041 68.5044L129.252 61.4912L130.533 68.3264L128.041 68.5044ZM141.255 70.5692L145.099 81.178L147.627 81L143.462 70.3556L145.811 70.32L147.627 67.8636V59.5688L145.455 56.614H137.766V81H140.543L140.222 70.6404L141.255 70.5692ZM139.795 58.7856H143.747L145.349 60.6724L145.242 66.5108L143.889 67.8636L140.115 68.006L139.795 58.7856ZM57.4125 94.5008L61.8625 96.7436L63.8205 94.2872L60.0113 92.1156L54.0305 93.2904L52.6777 100.126L62.1117 108.99L60.7945 114.544L56.6649 114.152L54.4577 110.841L52.2861 113.547L55.2053 116.929L63.0017 117.036L65.6361 107.886L55.5969 98.6304L57.4125 94.5008ZM78.2813 114.045L71.9801 114.437L70.2001 103.294L71.6597 96.5656L78.1745 95.7112L78.2457 92.0444L70.2713 92.97L66.8537 104.184L69.8085 117.285L78.6729 117.071L78.2813 114.045ZM84.8301 106.569L88.6749 117.178L91.2025 117L87.0373 106.356L89.3869 106.32L91.2025 103.864V95.5688L89.0309 92.614H81.3413V117H84.1181L83.7977 106.64L84.8301 106.569ZM83.3705 94.7856H87.3221L88.9241 96.6724L88.8173 102.511L87.4645 103.864L83.6909 104.006L83.3705 94.7856ZM103.738 92.5072L94.5174 92.7208L95.1226 117H104.343L104.557 114.116L97.401 114.508L97.3298 103.65L101.744 103.401L101.388 101.443L97.2942 101.941L97.2586 95.2484L103.88 95.7468L103.738 92.5072ZM116.83 107.708L119.713 116.964L123.167 117.071L127.901 92.614L123.416 92.5428L121.137 112.158L117.613 102.155L116.189 102.333L111.881 113.725L109.105 92.5428L105.509 92.3648L109.959 117.107L113.27 117L116.83 107.708Z" fill="white"/>
</g>
<defs>
<clipPath id="clip0_874_2441">
<rect width="180" height="180" fill="white"/>
</clipPath>
</defs>
</svg>
