<svg width="180" height="180" viewBox="0 0 180 180" fill="none" xmlns="http://www.w3.org/2000/svg">
<g clip-path="url(#clip0_874_2441)">
<rect width="180" height="180" fill="#6B291A"/>
<path fill-rule="evenodd" clip-rule="evenodd" d="M109.225 9L23 86.1648L41.4964 108.389L74.3921 80.9601C73.6747 84.8482 73.8042 88.9525 75.5272 92.8197C77.5798 97.4265 81.6151 101.075 87.644 103.567C89.9389 104.516 92.1519 105.188 94.2767 105.608C94.3499 106.218 94.4471 106.827 94.5698 107.434C95.7061 113.053 98.9865 118.183 105.024 121.809C108.878 124.123 112.63 125.613 116.183 126.426C116.07 131.011 117.48 135.899 121.318 140.575C127.619 148.253 134.682 152.878 141.15 154.164C143.079 156.697 145.711 159.31 149.09 162L154.127 155.662C152.998 154.763 152.004 153.905 151.129 153.092C151.866 152.719 152.568 152.269 153.228 151.74C155.995 149.518 157.569 146.239 157.946 142.457C158.175 140.164 157.676 137.979 156.355 136.204C155.063 134.469 153.253 133.481 151.475 133.025C148.048 132.146 144.043 133.031 141.142 135.343C138.664 137.318 137.03 140.305 137.061 143.919C134.116 142.176 130.855 139.437 127.571 135.435C125.329 132.704 124.355 129.88 124.281 127.152C127.732 126.961 130.857 126.109 133.532 124.787C137.011 123.069 139.801 120.502 141.343 117.506C142.898 114.486 143.284 110.686 141.104 107.412C139.789 105.438 137.803 104.419 135.731 104.194C133.799 103.983 131.895 104.457 130.255 105.156C126.964 106.559 123.664 109.322 121.126 112.737C119.861 114.439 118.733 116.388 117.875 118.508C115.219 117.888 112.305 116.737 109.187 114.864C105.167 112.45 103.243 109.318 102.53 105.97C104.118 105.776 105.635 105.425 107.079 104.93C112.515 103.068 116.487 99.3259 119.051 95.2617C121.584 91.2481 122.912 86.6581 122.818 82.7252C122.771 80.7666 122.362 78.6793 121.276 76.902C120.115 75.0027 118.216 73.5597 115.699 73.2448C113.409 72.9583 111.234 73.6698 109.449 74.6306C107.624 75.6124 105.877 77.0272 104.289 78.6578C101.114 81.9185 98.2037 86.4259 96.3182 91.3646C95.5879 93.2777 94.9941 95.3019 94.6058 97.3831C93.3876 97.0732 92.0976 96.6456 90.7331 96.0815C86.1274 94.1775 83.9302 91.7947 82.9172 89.521C81.8756 87.1832 81.8019 84.323 82.6709 80.99C83.7138 76.9901 85.9873 72.8148 88.6177 69.0987L130.31 34.3352L109.225 9ZM148.165 145.422C147.62 145.86 146.848 146.221 145.805 146.366C145.581 145.873 145.424 145.426 145.321 145.027C144.848 143.195 145.443 142.268 146.182 141.679C147.182 140.882 148.595 140.647 149.466 140.87C149.728 140.937 149.835 141.016 149.864 141.042C149.888 141.104 149.932 141.281 149.895 141.652C149.695 143.655 148.957 144.787 148.165 145.422ZM149.862 141.038C149.856 141.022 149.851 141.016 149.851 141.016C149.85 141.017 149.851 141.019 149.853 141.024C149.855 141.027 149.858 141.032 149.862 141.038ZM129.95 117.525C129.057 117.967 128.033 118.346 126.89 118.62C127.121 118.263 127.364 117.913 127.618 117.571C129.487 115.057 131.714 113.337 133.426 112.607C133.912 112.4 134.273 112.307 134.513 112.269C134.568 112.575 134.529 113.061 134.15 113.797C133.543 114.977 132.179 116.424 129.95 117.525ZM104.459 97.2675C103.936 97.4466 103.384 97.6003 102.802 97.7226C103.076 96.569 103.437 95.4082 103.877 94.2555C105.387 90.2998 107.714 86.7444 110.084 84.3105C111.269 83.0939 112.371 82.2534 113.28 81.7641C113.848 81.4586 114.235 81.3448 114.459 81.3032C114.57 81.5734 114.709 82.089 114.728 82.9186C114.779 85.0419 114.012 88.0808 112.21 90.9369C110.44 93.7423 107.837 96.1103 104.459 97.2675Z" fill="#201E1E"/>
<path d="M32.7574 74.414L26.1002 56.5072H22.3266L22.647 81.2492L25.9222 81.178L25.3882 61.9896L32.5794 81.178H35.3562L35.9614 56.6496L32.0454 56.5072L32.7574 74.414ZM49.4513 56.5072L40.2309 56.7208L40.8361 81H50.0565L50.2701 78.1164L43.1145 78.508L43.0433 67.65L47.4577 67.4008L47.1017 65.4428L43.0077 65.9412L42.9721 59.2484L49.5937 59.7468L49.4513 56.5072ZM62.5432 71.7084L65.4268 80.9644L68.88 81.0712L73.6148 56.614L69.1292 56.5428L66.8508 76.1584L63.3264 66.1548L61.9024 66.3328L57.5948 77.7248L54.818 56.5428L51.2224 56.3648L55.6724 81.1068L58.9832 81L62.5432 71.7084ZM93.1367 56.5072C92.0687 59.6044 90.8583 62.8796 89.8615 65.9768L85.3403 56.5784C84.4147 56.5784 83.7027 56.5072 82.7771 56.5072C84.7707 60.7792 86.7999 64.9444 88.7935 69.2164L88.9715 81.178H92.2467C92.1399 77.5112 91.9619 73.7732 91.8551 70.142L96.8391 56.792L93.1367 56.5072ZM108.588 56.5072L99.3672 56.7208L99.9724 81H109.193L109.406 78.1164L102.251 78.508L102.18 67.65L106.594 67.4008L106.238 65.4428L102.144 65.9412L102.108 59.2484L108.73 59.7468L108.588 56.5072ZM114.817 56.1512L111.114 80.7152L114.105 80.8932L115.849 70.0708L118.875 69.8572L120.833 80.7152L123.218 80.9644L118.768 56.1512H114.817ZM116.134 68.5044L117.344 61.4912L118.626 68.3264L116.134 68.5044ZM129.347 70.5692L133.192 81.178L135.72 81L131.555 70.3556L133.904 70.32L135.72 67.8636V59.5688L133.548 56.614H125.859V81H128.635L128.315 70.6404L129.347 70.5692ZM127.888 58.7856H131.839L133.441 60.6724L133.335 66.5108L131.982 67.8636L128.208 68.006L127.888 58.7856ZM140.316 54.6916L140.032 61.954H141.634L144.161 55.0476L140.316 54.6916ZM150.671 58.5008L155.121 60.7436L157.079 58.2872L153.27 56.1156L147.289 57.2904L145.936 64.1256L155.37 72.99L154.053 78.5436L149.924 78.152L147.716 74.8412L145.545 77.5468L148.464 80.9288L156.26 81.0356L158.895 71.8864L148.856 62.6304L150.671 58.5008ZM13.6252 94.5008L18.0752 96.7436L20.0332 94.2872L16.224 92.1156L10.2432 93.2904L8.89041 100.126L18.3244 108.99L17.0072 114.544L12.8776 114.152L10.6704 110.841L8.49881 113.547L11.418 116.929L19.2144 117.036L21.8488 107.886L11.8096 98.6304L13.6252 94.5008ZM34.494 114.045L28.1928 114.437L26.4128 103.294L27.8724 96.5656L34.3872 95.7112L34.4584 92.0444L26.484 92.97L23.0664 104.184L26.0212 117.285L34.8856 117.071L34.494 114.045ZM41.0428 106.569L44.8876 117.178L47.4152 117L43.25 106.356L45.5996 106.32L47.4152 103.864V95.5688L45.2436 92.614H37.554V117H40.3308L40.0104 106.64L41.0428 106.569ZM39.5832 94.7856H43.5348L45.1368 96.6724L45.03 102.511L43.6772 103.864L39.9036 104.006L39.5832 94.7856ZM59.9505 92.5072L50.7301 92.7208L51.3353 117H60.5557L60.7693 114.116L53.6137 114.508L53.5425 103.65L57.9569 103.401L57.6009 101.443L53.5069 101.941L53.4713 95.2484L60.0929 95.7468L59.9505 92.5072ZM73.0424 107.708L75.926 116.964L79.3792 117.071L84.114 92.614L79.6284 92.5428L77.35 112.158L73.8256 102.155L72.4016 102.333L68.094 113.725L65.3172 92.5428L61.7216 92.3648L66.1716 117.107L69.4824 117L73.0424 107.708ZM87.5934 117.178L98.4514 116.786L103.151 111.233L103.685 99.9832L97.8818 92.8988L87.095 92.5072L87.5934 117.178ZM98.843 109.702L96.2086 113.725L90.833 113.938L91.1534 95.3908L95.9238 95.2484L99.5194 101.229L98.843 109.702ZM110.331 106.569L114.175 117.178L116.703 117L112.538 106.356L114.887 106.32L116.703 103.864V95.5688L114.531 92.614H106.842V117H109.619L109.298 106.64L110.331 106.569ZM108.871 94.7856H112.823L114.425 96.6724L114.318 102.511L112.965 103.864L109.191 104.006L108.871 94.7856ZM126.996 94.9636L127.28 92.5072L118.95 92.6852L119.164 94.5364L121.513 94.6788L121.976 115.256L119.626 115.398L119.911 117.107L126.675 117.036L127.067 114.864L124.432 115.078L124.824 94.8568L126.996 94.9636ZM139.276 116.929L146.609 92.8632L141.661 92.5072L137.674 112.123L133.046 92.8632L128.809 92.6852L135.68 117.036L139.276 116.929ZM158.476 92.5072L149.256 92.7208L149.861 117H159.082L159.295 114.116L152.14 114.508L152.068 103.65L156.483 103.401L156.127 101.443L152.033 101.941L151.997 95.2484L158.619 95.7468L158.476 92.5072ZM164.982 106.569L168.827 117.178L171.355 117L167.189 106.356L169.539 106.32L171.355 103.864V95.5688L169.183 92.614H161.493V117H164.27L163.95 106.64L164.982 106.569ZM163.523 94.7856H167.474L169.076 96.6724L168.969 102.511L167.617 103.864L163.843 104.006L163.523 94.7856Z" fill="white"/>
</g>
<defs>
<clipPath id="clip0_874_2441">
<rect width="180" height="180" fill="white"/>
</clipPath>
</defs>
</svg>
