<svg width="180" height="180" viewBox="0 0 180 180" fill="none" xmlns="http://www.w3.org/2000/svg">
<g clip-path="url(#clip0_874_2391)">
<rect width="180" height="180" fill="#478358"/>
<path d="M45.4976 112H135C108.384 37.3586 59.2432 28.2676 38 33.0523C50.7459 49.7031 48.3092 92.6219 45.4976 112Z" fill="#D51442"/>
<path d="M50 112C50 112 51.1685 134.353 72.2014 139.059C72.2014 139.059 67.5274 153.176 82.7179 167.294L86.2233 215.529L81.5494 222.588L66.3589 229.647V232H114.641V229.647L99.4506 222.588L94.7767 215.529L98.2821 167.294C113.473 153.176 108.799 139.059 108.799 139.059C129.832 134.353 131 112 131 112H50Z" fill="#405A43"/>
<path d="M47.2139 56.614L43.2623 56.436L43.9387 74.058L37.1391 56.436H33.3299L33.6859 81.0356L37.0323 80.9644L36.4983 61.9896L43.7963 80.9644H46.6087L47.2139 56.614ZM60.698 56.5072L51.4776 56.7208L52.0828 81H61.3032L61.5168 78.1164L54.3612 78.508L54.29 67.65L58.7044 67.4008L58.3484 65.4428L54.2544 65.9412L54.2188 59.2484L60.8404 59.7468L60.698 56.5072ZM73.7899 71.7084L76.6735 80.9644L80.1267 81.0712L84.8615 56.614L80.3759 56.5428L78.0975 76.1584L74.5731 66.1548L73.1491 66.3328L68.8415 77.7248L66.0647 56.5428L62.4691 56.3648L66.9191 81.1068L70.2299 81L73.7899 71.7084ZM105.024 56.4716L101.393 65.5852L97.0498 56.614L94.0238 56.792L100.147 68.8248L100.289 80.9644H103.992L103.636 68.896L108.762 56.7208L105.024 56.4716ZM120.495 56.5072L111.274 56.7208L111.88 81H121.1L121.314 78.1164L114.158 78.508L114.087 67.65L118.501 67.4008L118.145 65.4428L114.051 65.9412L114.016 59.2484L120.637 59.7468L120.495 56.5072ZM126.724 56.1512L123.022 80.7152L126.012 80.8932L127.756 70.0708L130.782 69.8572L132.74 80.7152L135.126 80.9644L130.676 56.1512H126.724ZM128.041 68.5044L129.252 61.4912L130.533 68.3264L128.041 68.5044ZM141.255 70.5692L145.099 81.178L147.627 81L143.462 70.3556L145.811 70.32L147.627 67.8636V59.5688L145.455 56.614H137.766V81H140.543L140.222 70.6404L141.255 70.5692ZM139.795 58.7856H143.747L145.349 60.6724L145.242 66.5108L143.889 67.8636L140.115 68.006L139.795 58.7856ZM43.1134 92.258L39.3042 92.6852L36.207 101.87L32.4334 92.5072L28.2682 92.6496L27.0934 116.964L30.511 117.142L30.5466 97.1352L34.1422 105.893L36.7766 106.213L40.2298 97.6692L40.5146 116.893C40.5146 116.893 43.683 116.893 44.2526 116.858L43.1134 92.258ZM49.2836 92.1512L45.5812 116.715L48.5716 116.893L50.316 106.071L53.342 105.857L55.3 116.715L57.6852 116.964L53.2352 92.1512H49.2836ZM50.6008 104.504L51.8112 97.4912L53.0928 104.326L50.6008 104.504ZM63.8143 106.569L67.6591 117.178L70.1867 117L66.0215 106.356L68.3711 106.32L70.1867 103.864V95.5688L68.0151 92.614H60.3255V117H63.1023L62.7819 106.64L63.8143 106.569ZM62.3547 94.7856H66.3063L67.9083 96.6724L67.8015 102.511L66.4487 103.864L62.6751 104.006L62.3547 94.7856ZM89.0944 95.9604L85.926 92.8276L81.5472 92.1156L75.3884 94.7144L72.4336 104.113L74.6408 114.366L81.476 117.57L89.6284 115.113L89.3792 106.925L88.1688 105.501L84.1104 105.216V108.563L86.994 108.349L86.816 113.155L81.8676 114.294L77.4176 111.482L75.424 104.398L78.0228 96.53L83.7188 94.8924L86.994 98.0252L89.0944 95.9604ZM94.6875 92.1512L90.9851 116.715L93.9755 116.893L95.7199 106.071L98.7459 105.857L100.704 116.715L103.089 116.964L98.6391 92.1512H94.6875ZM96.0047 104.504L97.2151 97.4912L98.4967 104.326L96.0047 104.504ZM109.218 106.569L113.063 117.178L115.591 117L111.425 106.356L113.775 106.32L115.591 103.864V95.5688L113.419 92.614H105.729V117H108.506L108.186 106.64L109.218 106.569ZM107.759 94.7856H111.71L113.312 96.6724L113.205 102.511L111.853 103.864L108.079 104.006L107.759 94.7856ZM125.883 94.9636L126.168 92.5072L117.838 92.6852L118.051 94.5364L120.401 94.6788L120.864 115.256L118.514 115.398L118.799 117.107L125.563 117.036L125.954 114.864L123.32 115.078L123.712 94.8568L125.883 94.9636ZM141.963 92.1868L127.83 93.0056L127.972 94.9992H133.419L132.956 117.249L136.018 116.822L137.086 94.9992L141.821 95.0704L141.963 92.1868ZM144.82 92.1512L141.117 116.715L144.108 116.893L145.852 106.071L148.878 105.857L150.836 116.715L153.221 116.964L148.771 92.1512H144.82ZM146.137 104.504L147.347 97.4912L148.629 104.326L146.137 104.504Z" fill="white"/>
<circle cx="38" cy="29" r="15" fill="#F4D8D8"/>
</g>
<defs>
<clipPath id="clip0_874_2391">
<rect width="180" height="180" fill="white"/>
</clipPath>
</defs>
</svg>
