<svg width="180" height="180" viewBox="0 0 180 180" fill="none" xmlns="http://www.w3.org/2000/svg">
<g clip-path="url(#clip0_874_2799)">
<rect width="180" height="180" fill="#242320"/>
<path d="M129.457 140.951C71.8147 103.949 109.135 55.2978 135 35.5977C112.494 32.7426 65.3654 38.6812 56.9003 85.2763C48.4353 131.871 101.745 141.807 129.457 140.951Z" fill="#555555"/>
<path d="M50.4502 56.614L46.4986 56.436L47.175 74.058L40.3754 56.436H36.5662L36.9222 81.0356L40.2686 80.9644L39.7346 61.9896L47.0326 80.9644H49.845L50.4502 56.614ZM61.6915 58.9636L61.9763 56.5072L53.6459 56.6852L53.8595 58.5364L56.2091 58.6788L56.6719 79.2556L54.3223 79.398L54.6071 81.1068L61.3711 81.0356L61.7627 78.864L59.1283 79.0776L59.5199 58.8568L61.6915 58.9636ZM79.2762 59.9604L76.1078 56.8276L71.729 56.1156L65.5702 58.7144L62.6154 68.1128L64.8226 78.3656L71.6578 81.5696L79.8102 79.1132L79.561 70.9252L78.3506 69.5012L74.2922 69.2164V72.5628L77.1758 72.3492L76.9978 77.1552L72.0494 78.2944L67.5994 75.482L65.6058 68.3976L68.2046 60.53L73.9006 58.8924L77.1758 62.0252L79.2762 59.9604ZM83.7657 81.0712H85.5101L85.1541 67.5432H89.5329L89.7465 81.0712H92.5945L91.7401 56.4004H89.3905L89.5329 65.7988L85.1185 66.1192L84.8693 56.4004H82.8045L83.7657 81.0712ZM109.061 56.1868L94.9274 57.0056L95.0698 58.9992H100.517L100.054 81.2492L103.115 80.822L104.183 58.9992L108.918 59.0704L109.061 56.1868ZM126.251 58.9636L126.536 56.5072L118.206 56.6852L118.419 58.5364L120.769 58.6788L121.232 79.2556L118.882 79.398L119.167 81.1068L125.931 81.0356L126.322 78.864L123.688 79.0776L124.08 58.8568L126.251 58.9636ZM143.622 56.614L139.67 56.436L140.347 74.058L133.547 56.436H129.738L130.094 81.0356L133.44 80.9644L132.906 61.9896L140.204 80.9644H143.017L143.622 56.614ZM67.0464 92.1868L52.9132 93.0056L53.0556 94.9992H58.5024L58.0396 117.249L61.1012 116.822L62.1692 94.9992L66.904 95.0704L67.0464 92.1868ZM80.3341 109.488L78.6609 113.404L74.1041 113.796L71.5765 109.56L72.2529 92.4004L68.6929 92.1868L68.3369 111.624L71.7545 116.929L80.4053 117.142L83.6093 112.016L84.2501 92.4004L79.9069 92.5784L80.3341 109.488ZM101.434 92.614L97.4824 92.436L98.1588 110.058L91.3592 92.436H87.55L87.906 117.036L91.2524 116.964L90.7184 97.9896L98.0164 116.964H100.829L101.434 92.614ZM112.675 94.9636L112.96 92.5072L104.63 92.6852L104.843 94.5364L107.193 94.6788L107.656 115.256L105.306 115.398L105.591 117.107L112.355 117.036L112.746 114.864L110.112 115.078L110.504 94.8568L112.675 94.9636ZM118.342 94.5008L122.792 96.7436L124.75 94.2872L120.941 92.1156L114.96 93.2904L113.608 100.126L123.042 108.99L121.724 114.544L117.595 114.152L115.388 110.841L113.216 113.547L116.135 116.929L123.932 117.036L126.566 107.886L116.527 98.6304L118.342 94.5008Z" fill="white"/>
</g>
<defs>
<clipPath id="clip0_874_2799">
<rect width="180" height="180" fill="white"/>
</clipPath>
</defs>
</svg>
