<svg width="180" height="180" viewBox="0 0 180 180" fill="none" xmlns="http://www.w3.org/2000/svg">
<g clip-path="url(#clip0_874_2799)">
<rect width="180" height="180" fill="#242320"/>
<path d="M129.457 140.951C71.8147 103.949 109.135 55.2978 135 35.5977C112.494 32.7426 65.3654 38.6812 56.9003 85.2763C48.4353 131.871 101.745 141.807 129.457 140.951Z" fill="#555555"/>
<path d="M47.1187 74.414L40.4615 56.5072H36.6879L37.0083 81.2492L40.2835 81.178L39.7495 61.9896L46.9407 81.178H49.7175L50.3227 56.6496L46.4067 56.5072L47.1187 74.414ZM61.5698 58.9636L61.8546 56.5072L53.5242 56.6852L53.7378 58.5364L56.0874 58.6788L56.5502 79.2556L54.2006 79.398L54.4854 81.1068L61.2494 81.0356L61.641 78.864L59.0066 79.0776L59.3982 58.8568L61.5698 58.9636ZM79.1545 59.9604L75.9861 56.8276L71.6073 56.1156L65.4485 58.7144L62.4937 68.1128L64.7009 78.3656L71.5361 81.5696L79.6885 79.1132L79.4393 70.9252L78.2289 69.5012L74.1705 69.2164V72.5628L77.0541 72.3492L76.8761 77.1552L71.9277 78.2944L67.4777 75.482L65.4841 68.3976L68.0829 60.53L73.7789 58.8924L77.0541 62.0252L79.1545 59.9604ZM83.644 81.0712H85.3884L85.0324 67.5432H89.4112L89.6248 81.0712H92.4728L91.6184 56.4004H89.2688L89.4112 65.7988L84.9968 66.1192L84.7476 56.4004H82.6828L83.644 81.0712ZM108.939 56.1868L94.8057 57.0056L94.9481 58.9992H100.395L99.9321 81.2492L102.994 80.822L104.062 58.9992L108.797 59.0704L108.939 56.1868ZM126.13 58.9636L126.414 56.5072L118.084 56.6852L118.298 58.5364L120.647 58.6788L121.11 79.2556L118.76 79.398L119.045 81.1068L125.809 81.0356L126.201 78.864L123.566 79.0776L123.958 58.8568L126.13 58.9636ZM143.5 56.614L139.549 56.436L140.225 74.058L133.426 56.436H129.616L129.972 81.0356L133.319 80.9644L132.785 61.9896L140.083 80.9644H142.895L143.5 56.614ZM56.2284 92.5784L42.3444 93.3616L42.4868 95.284H47.72L47.2928 117L50.4968 116.608L51.5648 95.284L56.1216 95.3552L56.2284 92.5784ZM69.5219 109.488L67.8487 113.404L63.2919 113.796L60.7643 109.56L61.4407 92.4004L57.8807 92.1868L57.5247 111.624L60.9423 116.929L69.5931 117.142L72.7971 112.016L73.4379 92.4004L69.0947 92.5784L69.5219 109.488ZM90.6219 92.614L86.6703 92.436L87.3467 110.058L80.5471 92.436H76.7379L77.0939 117.036L80.4403 116.964L79.9063 97.9896L87.2043 116.964H90.0167L90.6219 92.614ZM101.863 94.9636L102.148 92.5072L93.8176 92.6852L94.0312 94.5364L96.3808 94.6788L96.8436 115.256L94.494 115.398L94.7788 117.107L101.543 117.036L101.934 114.864L99.3 115.078L99.6916 94.8568L101.863 94.9636ZM107.53 94.5008L111.98 96.7436L113.938 94.2872L110.129 92.1156L104.148 93.2904L102.795 100.126L112.229 108.99L110.912 114.544L106.783 114.152L104.575 110.841L102.404 113.547L105.323 116.929L113.119 117.036L115.754 107.886L105.715 98.6304L107.53 94.5008ZM123.592 94.9636L123.876 92.5072L115.546 92.6852L115.76 94.5364L118.109 94.6788L118.572 115.256L116.222 115.398L116.507 117.107L123.271 117.036L123.663 114.864L121.028 115.078L121.42 94.8568L123.592 94.9636ZM129.143 92.1512L125.441 116.715L128.431 116.893L130.176 106.071L133.202 105.857L135.16 116.715L137.545 116.964L133.095 92.1512H129.143ZM130.461 104.504L131.671 97.4912L132.953 104.326L130.461 104.504Z" fill="white"/>
</g>
<defs>
<clipPath id="clip0_874_2799">
<rect width="180" height="180" fill="white"/>
</clipPath>
</defs>
</svg>
