<svg width="180" height="180" viewBox="0 0 180 180" fill="none" xmlns="http://www.w3.org/2000/svg">
<g clip-path="url(#clip0_874_2470)">
<rect width="180" height="180" fill="#3C47A5"/>
<path d="M138 18L90.1061 27.9039C84.4175 59.083 71.6091 121.881 65.8838 123.642C60.1586 125.403 38.9091 131.345 29 134.096V144H81.298C101.116 137.397 118.549 85.8603 124.788 60.917L120.384 144H138V18Z" fill="#FFBE3F"/>
<path d="M60.2645 62.9508L55.8145 56.6852L49.5489 56.258L43.9597 62.5948L44.2445 74.9836L48.8013 81.178L54.8177 81.1068L59.5881 74.8412L60.2645 62.9508ZM56.3129 74.3784L53.3937 78.5436L49.9405 78.4368L47.3417 74.414L46.7721 64.7308L51.1153 58.9636L53.7853 59.0704L56.5265 62.5948L56.3129 74.3784ZM66.9084 70.5692L70.7532 81.178L73.2808 81L69.1156 70.3556L71.4652 70.32L73.2808 67.8636V59.5688L71.1092 56.614H63.4196V81H66.1964L65.876 70.6404L66.9084 70.5692ZM65.4488 58.7856H69.4004L71.0024 60.6724L70.8956 66.5108L69.5428 67.8636L65.7692 68.006L65.4488 58.7856ZM78.6606 56.1512L74.9582 80.7152L77.9486 80.8932L79.693 70.0708L82.719 69.8572L84.677 80.7152L87.0622 80.9644L82.6122 56.1512H78.6606ZM79.9778 68.5044L81.1882 61.4912L82.4698 68.3264L79.9778 68.5044ZM103.586 56.614L99.6348 56.436L100.311 74.058L93.5116 56.436H89.7024L90.0584 81.0356L93.4048 80.9644L92.8708 61.9896L100.169 80.9644H102.981L103.586 56.614ZM123.443 59.9604L120.274 56.8276L115.896 56.1156L109.737 58.7144L106.782 68.1128L108.989 78.3656L115.824 81.5696L123.977 79.1132L123.728 70.9252L122.517 69.5012L118.459 69.2164V72.5628L121.342 72.3492L121.164 77.1552L116.216 78.2944L111.766 75.482L109.772 68.3976L112.371 60.53L118.067 58.8924L121.342 62.0252L123.443 59.9604ZM136.192 56.5072L126.971 56.7208L127.576 81H136.797L137.01 78.1164L129.855 78.508L129.784 67.65L134.198 67.4008L133.842 65.4428L129.748 65.9412L129.712 59.2484L136.334 59.7468L136.192 56.5072ZM53.1407 117.178L63.9987 116.786L68.6979 111.233L69.2319 99.9832L63.4291 92.8988L52.6423 92.5072L53.1407 117.178ZM64.3903 109.702L61.7559 113.725L56.3803 113.938L56.7007 95.3908L61.4711 95.2484L65.0667 101.229L64.3903 109.702ZM75.8779 106.569L79.7227 117.178L82.2503 117L78.0851 106.356L80.4347 106.32L82.2503 103.864V95.5688L80.0787 92.614H72.3891V117H75.1659L74.8455 106.64L75.8779 106.569ZM74.4183 94.7856H78.3699L79.9719 96.6724L79.8651 102.511L78.5123 103.864L74.7387 104.006L74.4183 94.7856ZM94.7857 92.5072L85.5653 92.7208L86.1705 117H95.3909L95.6045 114.116L88.4489 114.508L88.3777 103.65L92.7921 103.401L92.4361 101.443L88.3421 101.941L88.3065 95.2484L94.9281 95.7468L94.7857 92.5072ZM101.015 92.1512L97.3125 116.715L100.303 116.893L102.047 106.071L105.073 105.857L107.031 116.715L109.416 116.964L104.966 92.1512H101.015ZM102.332 104.504L103.542 97.4912L104.824 104.326L102.332 104.504ZM127.524 92.258L123.715 92.6852L120.618 101.87L116.844 92.5072L112.679 92.6496L111.504 116.964L114.922 117.142L114.958 97.1352L118.553 105.893L121.188 106.213L124.641 97.6692L124.926 116.893C124.926 116.893 128.094 116.893 128.664 116.858L127.524 92.258Z" fill="white"/>
</g>
<defs>
<clipPath id="clip0_874_2470">
<rect width="180" height="180" fill="white"/>
</clipPath>
</defs>
</svg>
