<svg width="180" height="180" viewBox="0 0 180 180" fill="none" xmlns="http://www.w3.org/2000/svg">
<g clip-path="url(#clip0_874_2413)">
<rect width="180" height="180" fill="#F29F23"/>
<path d="M44.8655 -15.5003L-27.6341 -1.4998L39.7431 83.0682L63.3656 69.9925L44.8655 -15.5003Z" fill="#FF4C00"/>
<rect width="27" height="80" transform="matrix(-0.874909 0.484287 0.484287 0.874909 -23.3774 30)" fill="#FF4C00"/>
<path d="M64 -16H113L106 72H79L64 -16Z" fill="#FF4C00"/>
<path d="M135.5 -15.5003L208 -1.4998L140.623 83.0682L117 69.9925L135.5 -15.5003Z" fill="#FF4C00"/>
<rect x="203.743" y="30" width="27" height="80" transform="rotate(28.9658 203.743 30)" fill="#FF4C00"/>
<ellipse cx="90" cy="164" rx="101" ry="80" fill="#FF4D00"/>
<path d="M60.2645 62.9508L55.8145 56.6852L49.5489 56.258L43.9597 62.5948L44.2445 74.9836L48.8013 81.178L54.8177 81.1068L59.5881 74.8412L60.2645 62.9508ZM56.3129 74.3784L53.3937 78.5436L49.9405 78.4368L47.3417 74.414L46.7721 64.7308L51.1153 58.9636L53.7853 59.0704L56.5265 62.5948L56.3129 74.3784ZM66.9084 70.5692L70.7532 81.178L73.2808 81L69.1156 70.3556L71.4652 70.32L73.2808 67.8636V59.5688L71.1092 56.614H63.4196V81H66.1964L65.876 70.6404L66.9084 70.5692ZM65.4488 58.7856H69.4004L71.0024 60.6724L70.8956 66.5108L69.5428 67.8636L65.7692 68.006L65.4488 58.7856ZM78.6606 56.1512L74.9582 80.7152L77.9486 80.8932L79.693 70.0708L82.719 69.8572L84.677 80.7152L87.0622 80.9644L82.6122 56.1512H78.6606ZM79.9778 68.5044L81.1882 61.4912L82.4698 68.3264L79.9778 68.5044ZM103.586 56.614L99.6348 56.436L100.311 74.058L93.5116 56.436H89.7024L90.0584 81.0356L93.4048 80.9644L92.8708 61.9896L100.169 80.9644H102.981L103.586 56.614ZM123.443 59.9604L120.274 56.8276L115.896 56.1156L109.737 58.7144L106.782 68.1128L108.989 78.3656L115.824 81.5696L123.977 79.1132L123.728 70.9252L122.517 69.5012L118.459 69.2164V72.5628L121.342 72.3492L121.164 77.1552L116.216 78.2944L111.766 75.482L109.772 68.3976L112.371 60.53L118.067 58.8924L121.342 62.0252L123.443 59.9604ZM136.192 56.5072L126.971 56.7208L127.576 81H136.797L137.01 78.1164L129.855 78.508L129.784 67.65L134.198 67.4008L133.842 65.4428L129.748 65.9412L129.712 59.2484L136.334 59.7468L136.192 56.5072ZM49.8858 94.5008L54.3358 96.7436L56.2938 94.2872L52.4846 92.1156L46.5038 93.2904L45.151 100.126L54.585 108.99L53.2678 114.544L49.1382 114.152L46.931 110.841L44.7594 113.547L47.6786 116.929L55.475 117.036L58.1094 107.886L48.0702 98.6304L49.8858 94.5008ZM72.1958 109.488L70.5226 113.404L65.9658 113.796L63.4382 109.56L64.1146 92.4004L60.5546 92.1868L60.1986 111.624L63.6162 116.929L72.267 117.142L75.471 112.016L76.1118 92.4004L71.7686 92.5784L72.1958 109.488ZM93.2958 92.614L89.3442 92.436L90.0206 110.058L83.221 92.436H79.4118L79.7678 117.036L83.1142 116.964L82.5802 97.9896L89.8782 116.964H92.6906L93.2958 92.614ZM100.087 94.5008L104.537 96.7436L106.495 94.2872L102.686 92.1156L96.7053 93.2904L95.3525 100.126L104.787 108.99L103.469 114.544L99.3397 114.152L97.1325 110.841L94.9609 113.547L97.8801 116.929L105.677 117.036L108.311 107.886L98.2717 98.6304L100.087 94.5008ZM119.817 92.5072L110.597 92.7208L111.202 117H120.422L120.636 114.116L113.48 114.508L113.409 103.65L117.823 103.401L117.467 101.443L113.373 101.941L113.338 95.2484L119.959 95.7468L119.817 92.5072ZM136.157 92.1868L122.024 93.0056L122.167 94.9992H127.613L127.151 117.249L130.212 116.822L131.28 94.9992L136.015 95.0704L136.157 92.1868Z" fill="white"/>
</g>
<defs>
<clipPath id="clip0_874_2413">
<rect width="180" height="180" fill="white"/>
</clipPath>
</defs>
</svg>
