<svg width="180" height="180" viewBox="0 0 180 180" fill="none" xmlns="http://www.w3.org/2000/svg">
<g clip-path="url(#clip0_874_2470)">
<rect width="180" height="180" fill="#3C47A5"/>
<path d="M138 18L90.1061 27.9039C84.4175 59.083 71.6091 121.881 65.8838 123.642C60.1586 125.403 38.9091 131.345 29 134.096V144H81.298C101.116 137.397 118.549 85.8603 124.788 60.917L120.384 144H138V18Z" fill="#FFBE3F"/>
<path d="M51.5648 77.7604C47.8624 77.7604 46.83 72.812 46.83 68.4688C46.83 64.446 48.254 58.6432 51.8496 58.6432C54.9824 58.6432 56.6912 63.6272 56.6912 68.362C56.6912 73.2392 54.9824 77.7604 51.5648 77.7604ZM51.6004 81.2136C57.0472 81.2136 59.6816 74.8412 59.6816 68.5044C59.6816 62.31 57.154 56.1512 52.17 56.1512C46.3316 56.1512 44.516 64.1612 44.516 68.9316C44.516 74.4496 46.0824 81.2136 51.6004 81.2136ZM66.3521 70.5692L70.1969 81.178L72.7245 81L68.5593 70.3556L70.9089 70.32L72.7245 67.8636V59.5688L70.5529 56.614H62.8633V81H65.6401L65.3197 70.6404L66.3521 70.5692ZM64.8925 58.7856H68.8441L70.4461 60.6724L70.3393 66.5108L68.9865 67.8636L65.2129 68.006L64.8925 58.7856ZM78.1043 56.1512L74.4019 80.7152L77.3923 80.8932L79.1367 70.0708L82.1627 69.8572L84.1207 80.7152L86.5059 80.9644L82.0559 56.1512H78.1043ZM79.4215 68.5044L80.6319 61.4912L81.9135 68.3264L79.4215 68.5044ZM103.03 56.614L99.0786 56.436L99.755 74.058L92.9554 56.436H89.1462L89.5022 81.0356L92.8486 80.9644L92.3146 61.9896L99.6126 80.9644H102.425L103.03 56.614ZM122.887 59.9604L119.718 56.8276L115.339 56.1156L109.181 58.7144L106.226 68.1128L108.433 78.3656L115.268 81.5696L123.421 79.1132L123.171 70.9252L121.961 69.5012L117.903 69.2164V72.5628L120.786 72.3492L120.608 77.1552L115.66 78.2944L111.21 75.482L109.216 68.3976L111.815 60.53L117.511 58.8924L120.786 62.0252L122.887 59.9604ZM135.635 56.5072L126.415 56.7208L127.02 81H136.241L136.454 78.1164L129.299 78.508L129.227 67.65L133.642 67.4008L133.286 65.4428L129.192 65.9412L129.156 59.2484L135.778 59.7468L135.635 56.5072ZM53.1407 117.178L63.9987 116.786L68.6979 111.233L69.2319 99.9832L63.4291 92.8988L52.6423 92.5072L53.1407 117.178ZM64.3903 109.702L61.7559 113.725L56.3803 113.938L56.7007 95.3908L61.4711 95.2484L65.0667 101.229L64.3903 109.702ZM75.8779 106.569L79.7227 117.178L82.2503 117L78.0851 106.356L80.4347 106.32L82.2503 103.864V95.5688L80.0787 92.614H72.3891V117H75.1659L74.8455 106.64L75.8779 106.569ZM74.4183 94.7856H78.3699L79.9719 96.6724L79.8651 102.511L78.5123 103.864L74.7387 104.006L74.4183 94.7856ZM94.7857 92.5072L85.5653 92.7208L86.1705 117H95.3909L95.6045 114.116L88.4489 114.508L88.3777 103.65L92.7921 103.401L92.4361 101.443L88.3421 101.941L88.3065 95.2484L94.9281 95.7468L94.7857 92.5072ZM101.015 92.1512L97.3125 116.715L100.303 116.893L102.047 106.071L105.073 105.857L107.031 116.715L109.416 116.964L104.966 92.1512H101.015ZM102.332 104.504L103.542 97.4912L104.824 104.326L102.332 104.504ZM127.524 92.258L123.715 92.6852L120.618 101.87L116.844 92.5072L112.679 92.6496L111.504 116.964L114.922 117.142L114.958 97.1352L118.553 105.893L121.188 106.213L124.641 97.6692L124.926 116.893C124.926 116.893 128.094 116.893 128.664 116.858L127.524 92.258Z" fill="white"/>
</g>
<defs>
<clipPath id="clip0_874_2470">
<rect width="180" height="180" fill="white"/>
</clipPath>
</defs>
</svg>
