<svg width="180" height="180" viewBox="0 0 180 180" fill="none" xmlns="http://www.w3.org/2000/svg">
<g clip-path="url(#clip0_874_2413)">
<rect width="180" height="180" fill="#F29F23"/>
<path d="M44.8655 -15.5003L-27.6341 -1.4998L39.7431 83.0682L63.3656 69.9925L44.8655 -15.5003Z" fill="#FF4C00"/>
<rect width="27" height="80" transform="matrix(-0.874909 0.484287 0.484287 0.874909 -23.3774 30)" fill="#FF4C00"/>
<path d="M64 -16H113L106 72H79L64 -16Z" fill="#FF4C00"/>
<path d="M135.5 -15.5003L208 -1.4998L140.623 83.0682L117 69.9925L135.5 -15.5003Z" fill="#FF4C00"/>
<rect x="203.743" y="30" width="27" height="80" transform="rotate(28.9658 203.743 30)" fill="#FF4C00"/>
<ellipse cx="90" cy="164" rx="101" ry="80" fill="#FF4D00"/>
<path d="M51.5648 77.7604C47.8624 77.7604 46.83 72.812 46.83 68.4688C46.83 64.446 48.254 58.6432 51.8496 58.6432C54.9824 58.6432 56.6912 63.6272 56.6912 68.362C56.6912 73.2392 54.9824 77.7604 51.5648 77.7604ZM51.6004 81.2136C57.0472 81.2136 59.6816 74.8412 59.6816 68.5044C59.6816 62.31 57.154 56.1512 52.17 56.1512C46.3316 56.1512 44.516 64.1612 44.516 68.9316C44.516 74.4496 46.0824 81.2136 51.6004 81.2136ZM66.3521 70.5692L70.1969 81.178L72.7245 81L68.5593 70.3556L70.9089 70.32L72.7245 67.8636V59.5688L70.5529 56.614H62.8633V81H65.6401L65.3197 70.6404L66.3521 70.5692ZM64.8925 58.7856H68.8441L70.4461 60.6724L70.3393 66.5108L68.9865 67.8636L65.2129 68.006L64.8925 58.7856ZM78.1043 56.1512L74.4019 80.7152L77.3923 80.8932L79.1367 70.0708L82.1627 69.8572L84.1207 80.7152L86.5059 80.9644L82.0559 56.1512H78.1043ZM79.4215 68.5044L80.6319 61.4912L81.9135 68.3264L79.4215 68.5044ZM103.03 56.614L99.0786 56.436L99.755 74.058L92.9554 56.436H89.1462L89.5022 81.0356L92.8486 80.9644L92.3146 61.9896L99.6126 80.9644H102.425L103.03 56.614ZM122.887 59.9604L119.718 56.8276L115.339 56.1156L109.181 58.7144L106.226 68.1128L108.433 78.3656L115.268 81.5696L123.421 79.1132L123.171 70.9252L121.961 69.5012L117.903 69.2164V72.5628L120.786 72.3492L120.608 77.1552L115.66 78.2944L111.21 75.482L109.216 68.3976L111.815 60.53L117.511 58.8924L120.786 62.0252L122.887 59.9604ZM135.635 56.5072L126.415 56.7208L127.02 81H136.241L136.454 78.1164L129.299 78.508L129.227 67.65L133.642 67.4008L133.286 65.4428L129.192 65.9412L129.156 59.2484L135.778 59.7468L135.635 56.5072ZM49.8858 94.5008L54.3358 96.7436L56.2938 94.2872L52.4846 92.1156L46.5038 93.2904L45.151 100.126L54.585 108.99L53.2678 114.544L49.1382 114.152L46.931 110.841L44.7594 113.547L47.6786 116.929L55.475 117.036L58.1094 107.886L48.0702 98.6304L49.8858 94.5008ZM72.1958 109.488L70.5226 113.404L65.9658 113.796L63.4382 109.56L64.1146 92.4004L60.5546 92.1868L60.1986 111.624L63.6162 116.929L72.267 117.142L75.471 112.016L76.1118 92.4004L71.7686 92.5784L72.1958 109.488ZM93.2958 92.614L89.3442 92.436L90.0206 110.058L83.221 92.436H79.4118L79.7678 117.036L83.1142 116.964L82.5802 97.9896L89.8782 116.964H92.6906L93.2958 92.614ZM100.087 94.5008L104.537 96.7436L106.495 94.2872L102.686 92.1156L96.7053 93.2904L95.3525 100.126L104.787 108.99L103.469 114.544L99.3397 114.152L97.1325 110.841L94.9609 113.547L97.8801 116.929L105.677 117.036L108.311 107.886L98.2717 98.6304L100.087 94.5008ZM119.817 92.5072L110.597 92.7208L111.202 117H120.422L120.636 114.116L113.48 114.508L113.409 103.65L117.823 103.401L117.467 101.443L113.373 101.941L113.338 95.2484L119.959 95.7468L119.817 92.5072ZM136.157 92.1868L122.024 93.0056L122.167 94.9992H127.613L127.151 117.249L130.212 116.822L131.28 94.9992L136.015 95.0704L136.157 92.1868Z" fill="white"/>
</g>
<defs>
<clipPath id="clip0_874_2413">
<rect width="180" height="180" fill="white"/>
</clipPath>
</defs>
</svg>
