<svg width="180" height="180" viewBox="0 0 180 180" fill="none" xmlns="http://www.w3.org/2000/svg">
<g clip-path="url(#clip0_873_1888)">
<rect width="180" height="180" fill="#E1B37E"/>
<circle cx="81" cy="47" r="38" fill="#EA864E"/>
<circle cx="119" cy="31" r="22" fill="#EA864E"/>
<circle cx="25" cy="61" r="11" fill="#EA864E"/>
<circle cx="32" cy="50" r="7" fill="#EA864E"/>
<circle cx="36" cy="137" r="7" fill="#EA864E"/>
<circle cx="60" cy="120" r="21" fill="#EA864E"/>
<path d="M155.246 161.189C176.032 121.315 153.239 105.305 141.862 82.802C130.485 60.299 133.881 33 133.881 33L80.0945 50.5234C80.0945 50.5234 98.8019 70.6382 102.859 95.5089C106.916 120.38 97.8766 146.845 138.203 166.741L150.002 190.485L130.221 204.384L131.189 207.354L184.976 189.83L184.008 186.861L159.78 187.368L155.246 161.189Z" fill="#BC7745"/>
<path d="M73.6865 56.1608L71.2313 52.8344H62.3213V80H65.3705L64.9745 68.4764L71.2313 68.2784L73.6469 65.348L73.6865 56.1608ZM70.5977 63.9224L69.0929 65.348L64.8953 65.5064L64.5389 55.3292H68.9345L70.7165 57.3884L70.5977 63.9224ZM83.9661 55.4876L84.2829 52.7552L75.0165 52.9532L75.2541 55.0124L77.8677 55.1708L78.3825 78.0596L75.7689 78.218L76.0857 80.1188L83.6097 80.0396L84.0453 77.624L81.1149 77.8616L81.5505 55.3688L83.9661 55.4876ZM103.289 52.874L98.8931 52.676L99.6455 72.278L92.0819 52.676H87.8447L88.2407 80.0396L91.9631 79.9604L91.3691 58.8536L99.4871 79.9604H102.616L103.289 52.874ZM110.328 52.3592L106.21 79.6832L109.536 79.8812L111.477 67.8428L114.843 67.6052L117.021 79.6832L119.674 79.9604L114.724 52.3592H110.328ZM111.793 66.1004L113.14 58.2992L114.565 65.9024L111.793 66.1004ZM54.0062 116.713L46.997 117.149L45.017 104.754L46.6406 97.2696L53.8874 96.3192L53.9666 92.2404L45.0962 93.27L41.2946 105.744L44.5814 120.317L54.4418 120.079L54.0062 116.713ZM72.6949 99.9228L67.7449 92.9532L60.7753 92.478L54.5581 99.5268L54.8749 113.308L59.9437 120.198L66.6361 120.119L71.9425 113.149L72.6949 99.9228ZM68.2993 112.634L65.0521 117.268L61.2109 117.149L58.3201 112.674L57.6865 101.903L62.5177 95.4876L65.4877 95.6064L68.5369 99.5268L68.2993 112.634ZM87.2133 115.961L79.6893 116.911L80.5209 93.0324L76.2045 92.6364L76.6401 120.158L87.6885 120.277L87.2133 115.961ZM93.622 92.3592L89.5036 119.683L92.83 119.881L94.7704 107.843L98.1364 107.605L100.314 119.683L102.968 119.96L98.0176 92.3592H93.622ZM95.0872 106.1L96.4336 98.2992L97.8592 105.902L95.0872 106.1ZM106.459 120.198L118.537 119.762L123.764 113.585L124.358 101.071L117.903 93.1908L105.904 92.7552L106.459 120.198ZM118.972 111.882L116.042 116.357L110.062 116.594L110.419 95.9628L115.725 95.8044L119.725 102.457L118.972 111.882ZM130.167 92.3592L126.048 119.683L129.375 119.881L131.315 107.843L134.681 107.605L136.859 119.683L139.512 119.96L134.562 92.3592H130.167ZM131.632 106.1L132.978 98.2992L134.404 105.902L131.632 106.1Z" fill="white"/>
</g>
<defs>
<clipPath id="clip0_873_1888">
<rect width="180" height="180" fill="white"/>
</clipPath>
</defs>
</svg>
