<svg width="180" height="180" viewBox="0 0 180 180" fill="none" xmlns="http://www.w3.org/2000/svg">
<g clip-path="url(#clip0_874_2340)">
<rect width="180" height="180" fill="#4191CC"/>
<path d="M112.461 66L52.9613 18.5C46.9613 26.6667 40.2613 46.7 61.4613 61.5C82.6613 76.3 104.295 70.6667 112.461 66Z" fill="#FFBE3F"/>
<path d="M27 56L38 185L142.5 188L152.5 51.5L27 56Z" fill="#3F5565"/>
<path d="M58 56C57.8333 78.6667 68.3 124.4 111.5 126C165.5 128 155 83 151.5 69.5" stroke="#20303A" stroke-width="5"/>
<path d="M24.5947 47.9616C29.8219 47.13 31.2475 42.8928 31.2475 39.3684C31.2475 35.9628 29.9011 32.7552 24.4363 32.7552H22.4167L21.4267 34.1016L21.3871 60L24.8719 59.6436L24.5947 47.9616ZM28.6339 39.8436C28.6339 42.7344 27.2083 44.9124 24.5551 45.6648L24.4363 35.2104C27.2875 35.4876 28.6339 37.1904 28.6339 39.8436ZM41.5624 35.4876L41.8792 32.7552L32.6128 32.9532L32.8504 35.0124L35.464 35.1708L35.9788 58.0596L33.3652 58.218L33.682 60.1188L41.206 60.0396L41.6416 57.624L38.7112 57.8616L39.1468 35.3688L41.5624 35.4876ZM60.885 32.874L56.4894 32.676L57.2418 52.278L49.6782 32.676H45.441L45.837 60.0396L49.5594 59.9604L48.9654 38.8536L57.0834 59.9604H60.2118L60.885 32.874ZM75.8841 32.7552L65.6277 32.9928L66.3009 60H76.5573L76.7949 56.7924L68.8353 57.228L68.7561 45.15L73.6665 44.8728L73.2705 42.6948L68.7165 43.2492L68.6769 35.8044L76.0425 36.3588L75.8841 32.7552ZM82.8132 32.3592L78.6948 59.6832L82.0212 59.8812L83.9616 47.8428L87.3276 47.6052L89.5056 59.6832L92.1588 59.9604L87.2088 32.3592H82.8132ZM84.2784 46.1004L85.6248 38.2992L87.0504 45.9024L84.2784 46.1004ZM106.461 36.1608L104.006 32.8344H95.0957V60H98.1449L97.7489 48.4764L104.006 48.2784L106.421 45.348L106.461 36.1608ZM103.372 43.9224L101.867 45.348L97.6697 45.5064L97.3133 35.3292H101.709L103.491 37.3884L103.372 43.9224ZM120.344 36.1608L117.889 32.8344H108.979V60H112.028L111.632 48.4764L117.889 48.2784L120.304 45.348L120.344 36.1608ZM117.255 43.9224L115.75 45.348L111.553 45.5064L111.196 35.3292H115.592L117.374 37.3884L117.255 43.9224ZM133.871 55.9608L126.347 56.9112L127.178 33.0324L122.862 32.6364L123.298 60.1584L134.346 60.2772L133.871 55.9608ZM146.963 32.7552L136.707 32.9928L137.38 60H147.636L147.874 56.7924L139.914 57.228L139.835 45.15L144.745 44.8728L144.349 42.6948L139.795 43.2492L139.756 35.8044L147.121 36.3588L146.963 32.7552ZM149.923 47.0112L158.794 47.7636L159.19 44.6352H149.923V47.0112ZM60.1329 72.478L55.8957 72.9532L52.4505 83.17L48.2529 72.7552L43.6197 72.9136L42.3129 99.9604L46.1145 100.158L46.1541 77.9032L50.1537 87.6448L53.0841 88.0012L56.9253 78.4972L57.2421 99.8812C57.2421 99.8812 60.7665 99.8812 61.4001 99.8416L60.1329 72.478ZM66.9964 72.3592L62.878 99.6832L66.2044 99.8812L68.1448 87.8428L71.5108 87.6052L73.6888 99.6832L76.342 99.9604L71.392 72.3592H66.9964ZM68.4616 86.1004L69.808 78.2992L71.2336 85.9024L68.4616 86.1004ZM94.7229 72.874L90.3273 72.676L91.0797 92.278L83.5161 72.676H79.2789L79.6749 100.04L83.3973 99.9604L82.8033 78.8536L90.9213 99.9604H94.0497L94.7229 72.874ZM116.81 76.5964L113.286 73.1116L108.415 72.3196L101.564 75.2104L98.2776 85.6648L100.733 97.0696L108.336 100.634L117.404 97.9012L117.127 88.7932L115.781 87.2092L111.266 86.8924V90.6148L114.474 90.3772L114.276 95.7232L108.772 96.9904L103.822 93.862L101.604 85.9816L104.495 77.23L110.831 75.4084L114.474 78.8932L116.81 76.5964ZM137.644 79.9228L132.694 72.9532L125.725 72.478L119.508 79.5268L119.824 93.3076L124.893 100.198L131.586 100.119L136.892 93.1492L137.644 79.9228ZM133.249 92.6344L130.002 97.2676L126.16 97.1488L123.27 92.674L122.636 81.9028L127.467 75.4876L130.437 75.6064L133.486 79.5268L133.249 92.6344ZM61.9882 116.161L59.533 112.834H50.623V140H53.6722L53.2762 128.476L59.533 128.278L61.9486 125.348L61.9882 116.161ZM58.8994 123.922L57.3946 125.348L53.197 125.506L52.8406 115.329H57.2362L59.0182 117.388L58.8994 123.922ZM76.7822 131.644L74.921 136L69.8522 136.436L67.0406 131.724L67.793 112.636L63.833 112.399L63.437 134.02L67.2386 139.921L76.8614 140.158L80.4254 134.456L81.1382 112.636L76.307 112.834L76.7822 131.644ZM100.253 112.874L95.8574 112.676L96.6098 132.278L89.0462 112.676H84.809L85.205 140.04L88.9274 139.96L88.3334 118.854L96.4514 139.96H99.5798L100.253 112.874ZM116.519 136.713L109.51 137.149L107.53 124.754L109.154 117.27L116.4 116.319L116.48 112.24L107.609 113.27L103.808 125.744L107.094 140.317L116.955 140.079L116.519 136.713ZM119.755 140.079H121.695L121.299 125.031H126.17L126.408 140.079H129.576L128.625 112.636H126.012L126.17 123.091L121.26 123.447L120.982 112.636H118.686L119.755 140.079Z" fill="white"/>
</g>
<defs>
<clipPath id="clip0_874_2340">
<rect width="180" height="180" fill="white"/>
</clipPath>
</defs>
</svg>
