<svg width="180" height="180" viewBox="0 0 180 180" fill="none" xmlns="http://www.w3.org/2000/svg">
<g clip-path="url(#clip0_874_2340)">
<rect width="180" height="180" fill="#4191CC"/>
<path d="M112.461 66L52.9613 18.5C46.9613 26.6667 40.2613 46.7 61.4613 61.5C82.6613 76.3 104.295 70.6667 112.461 66Z" fill="#FFBE3F"/>
<path d="M27 56L38 185L142.5 188L152.5 51.5L27 56Z" fill="#3F5565"/>
<path d="M58 56C57.8333 78.6667 68.3 124.4 111.5 126C165.5 128 155 83 151.5 69.5" stroke="#20303A" stroke-width="5"/>
<path d="M38.6304 36.1608L36.1752 32.8344H27.2652V60H30.3144L29.9184 48.4764L36.1752 48.2784L38.5908 45.348L38.6304 36.1608ZM35.5416 43.9224L34.0368 45.348L29.8392 45.5064L29.4828 35.3292H33.8784L35.6604 37.3884L35.5416 43.9224ZM48.91 35.4876L49.2268 32.7552L39.9604 32.9532L40.198 35.0124L42.8116 35.1708L43.3264 58.0596L40.7128 58.218L41.0296 60.1188L48.5536 60.0396L48.9892 57.624L46.0588 57.8616L46.4944 35.3688L48.91 35.4876ZM68.2326 32.874L63.837 32.676L64.5894 52.278L57.0258 32.676H52.7886L53.1846 60.0396L56.907 59.9604L56.313 38.8536L64.431 59.9604H67.5594L68.2326 32.874ZM83.2318 32.7552L72.9754 32.9928L73.6486 60H83.905L84.1426 56.7924L76.183 57.228L76.1038 45.15L81.0142 44.8728L80.6182 42.6948L76.0642 43.2492L76.0246 35.8044L83.3902 36.3588L83.2318 32.7552ZM90.1608 32.3592L86.0424 59.6832L89.3688 59.8812L91.3092 47.8428L94.6752 47.6052L96.8532 59.6832L99.5064 59.9604L94.5564 32.3592H90.1608ZM91.626 46.1004L92.9724 38.2992L94.398 45.9024L91.626 46.1004ZM113.809 36.1608L111.353 32.8344H102.443V60H105.493L105.097 48.4764L111.353 48.2784L113.769 45.348L113.809 36.1608ZM110.72 43.9224L109.215 45.348L105.017 45.5064L104.661 35.3292H109.057L110.839 37.3884L110.72 43.9224ZM127.692 36.1608L125.237 32.8344H116.327V60H119.376L118.98 48.4764L125.237 48.2784L127.652 45.348L127.692 36.1608ZM124.603 43.9224L123.098 45.348L118.901 45.5064L118.544 35.3292H122.94L124.722 37.3884L124.603 43.9224ZM141.219 55.9608L133.695 56.9112L134.526 33.0324L130.21 32.6364L130.645 60.1584L141.694 60.2772L141.219 55.9608ZM154.311 32.7552L144.054 32.9928L144.727 60H154.984L155.221 56.7924L147.262 57.228L147.183 45.15L152.093 44.8728L151.697 42.6948L147.143 43.2492L147.103 35.8044L154.469 36.3588L154.311 32.7552ZM60.1329 72.478L55.8957 72.9532L52.4505 83.17L48.2529 72.7552L43.6197 72.9136L42.3129 99.9604L46.1145 100.158L46.1541 77.9032L50.1537 87.6448L53.0841 88.0012L56.9253 78.4972L57.2421 99.8812C57.2421 99.8812 60.7665 99.8812 61.4001 99.8416L60.1329 72.478ZM66.9964 72.3592L62.878 99.6832L66.2044 99.8812L68.1448 87.8428L71.5108 87.6052L73.6888 99.6832L76.342 99.9604L71.392 72.3592H66.9964ZM68.4616 86.1004L69.808 78.2992L71.2336 85.9024L68.4616 86.1004ZM94.7229 72.874L90.3273 72.676L91.0797 92.278L83.5161 72.676H79.2789L79.6749 100.04L83.3973 99.9604L82.8033 78.8536L90.9213 99.9604H94.0497L94.7229 72.874ZM116.81 76.5964L113.286 73.1116L108.415 72.3196L101.564 75.2104L98.2776 85.6648L100.733 97.0696L108.336 100.634L117.404 97.9012L117.127 88.7932L115.781 87.2092L111.266 86.8924V90.6148L114.474 90.3772L114.276 95.7232L108.772 96.9904L103.822 93.862L101.604 85.9816L104.495 77.23L110.831 75.4084L114.474 78.8932L116.81 76.5964ZM137.644 79.9228L132.694 72.9532L125.725 72.478L119.508 79.5268L119.824 93.3076L124.893 100.198L131.586 100.119L136.892 93.1492L137.644 79.9228ZM133.249 92.6344L130.002 97.2676L126.16 97.1488L123.27 92.674L122.636 81.9028L127.467 75.4876L130.437 75.6064L133.486 79.5268L133.249 92.6344ZM61.9882 116.161L59.533 112.834H50.623V140H53.6722L53.2762 128.476L59.533 128.278L61.9486 125.348L61.9882 116.161ZM58.8994 123.922L57.3946 125.348L53.197 125.506L52.8406 115.329H57.2362L59.0182 117.388L58.8994 123.922ZM76.7822 131.644L74.921 136L69.8522 136.436L67.0406 131.724L67.793 112.636L63.833 112.399L63.437 134.02L67.2386 139.921L76.8614 140.158L80.4254 134.456L81.1382 112.636L76.307 112.834L76.7822 131.644ZM100.253 112.874L95.8574 112.676L96.6098 132.278L89.0462 112.676H84.809L85.205 140.04L88.9274 139.96L88.3334 118.854L96.4514 139.96H99.5798L100.253 112.874ZM116.519 136.713L109.51 137.149L107.53 124.754L109.154 117.27L116.4 116.319L116.48 112.24L107.609 113.27L103.808 125.744L107.094 140.317L116.955 140.079L116.519 136.713ZM119.755 140.079H121.695L121.299 125.031H126.17L126.408 140.079H129.576L128.625 112.636H126.012L126.17 123.091L121.26 123.447L120.982 112.636H118.686L119.755 140.079Z" fill="white"/>
</g>
<defs>
<clipPath id="clip0_874_2340">
<rect width="180" height="180" fill="white"/>
</clipPath>
</defs>
</svg>
