<svg width="180" height="180" viewBox="0 0 180 180" fill="none" xmlns="http://www.w3.org/2000/svg">
<g clip-path="url(#clip0_874_2245)">
<rect width="180" height="180" fill="#E8A5DD"/>
<path d="M53.293 81.3386C42.9281 112.444 49.1074 148.776 80.2196 159.144C111.332 169.511 135.149 146.65 145.514 115.545C155.879 84.4391 144.696 69.3837 113.584 59.0166C82.4714 48.6495 63.6578 50.2332 53.293 81.3386Z" fill="#B02367"/>
<path d="M24.4232 6L117 99.8835C100.669 106.885 62.0266 113.696 38.1029 84.9258C14.1793 56.1561 19.0149 20.3212 24.4232 6Z" fill="#FFC93F"/>
<path d="M24.5947 47.9616C29.8219 47.13 31.2475 42.8928 31.2475 39.3684C31.2475 35.9628 29.9011 32.7552 24.4363 32.7552H22.4167L21.4267 34.1016L21.3871 60L24.8719 59.6436L24.5947 47.9616ZM28.6339 39.8436C28.6339 42.7344 27.2083 44.9124 24.5551 45.6648L24.4363 35.2104C27.2875 35.4876 28.6339 37.1904 28.6339 39.8436ZM41.5624 35.4876L41.8792 32.7552L32.6128 32.9532L32.8504 35.0124L35.464 35.1708L35.9788 58.0596L33.3652 58.218L33.682 60.1188L41.206 60.0396L41.6416 57.624L38.7112 57.8616L39.1468 35.3688L41.5624 35.4876ZM60.885 32.874L56.4894 32.676L57.2418 52.278L49.6782 32.676H45.441L45.837 60.0396L49.5594 59.9604L48.9654 38.8536L57.0834 59.9604H60.2118L60.885 32.874ZM75.8841 32.7552L65.6277 32.9928L66.3009 60H76.5573L76.7949 56.7924L68.8353 57.228L68.7561 45.15L73.6665 44.8728L73.2705 42.6948L68.7165 43.2492L68.6769 35.8044L76.0425 36.3588L75.8841 32.7552ZM82.8132 32.3592L78.6948 59.6832L82.0212 59.8812L83.9616 47.8428L87.3276 47.6052L89.5056 59.6832L92.1588 59.9604L87.2088 32.3592H82.8132ZM84.2784 46.1004L85.6248 38.2992L87.0504 45.9024L84.2784 46.1004ZM106.461 36.1608L104.006 32.8344H95.0957V60H98.1449L97.7489 48.4764L104.006 48.2784L106.421 45.348L106.461 36.1608ZM103.372 43.9224L101.867 45.348L97.6697 45.5064L97.3133 35.3292H101.709L103.491 37.3884L103.372 43.9224ZM120.344 36.1608L117.889 32.8344H108.979V60H112.028L111.632 48.4764L117.889 48.2784L120.304 45.348L120.344 36.1608ZM117.255 43.9224L115.75 45.348L111.553 45.5064L111.196 35.3292H115.592L117.374 37.3884L117.255 43.9224ZM133.871 55.9608L126.347 56.9112L127.178 33.0324L122.862 32.6364L123.298 60.1584L134.346 60.2772L133.871 55.9608ZM146.963 32.7552L136.707 32.9928L137.38 60H147.636L147.874 56.7924L139.914 57.228L139.835 45.15L144.745 44.8728L144.349 42.6948L139.795 43.2492L139.756 35.8044L147.121 36.3588L146.963 32.7552ZM149.923 47.0112L158.794 47.7636L159.19 44.6352H149.923V47.0112ZM28.9417 88.3972L33.2185 100.198L36.0301 100L31.3969 88.1596L34.0105 88.12L36.0301 85.3876V76.1608L33.6145 72.874H25.0609L25.0609 100H28.1497L27.7933 88.4764L28.9417 88.3972ZM27.3181 75.2896H31.7137L33.4957 77.3884L33.3769 83.8828L31.8721 85.3876L27.6745 85.546L27.3181 75.2896ZM42.0144 72.3592L37.896 99.6832L41.2224 99.8812L43.1628 87.8428L46.5288 87.6052L48.7068 99.6832L51.36 99.9604L46.41 72.3592H42.0144ZM43.4796 86.1004L44.826 78.2992L46.2516 85.9024L43.4796 86.1004ZM58.7717 74.9728L63.7217 77.4676L65.8997 74.7352L61.6625 72.3196L55.0097 73.6264L53.5049 81.2296L63.9989 91.09L62.5337 97.2676L57.9401 96.832L55.4849 93.1492L53.0693 96.1588L56.3165 99.9208L64.9889 100.04L67.9193 89.8624L56.7521 79.5664L58.7717 74.9728ZM81.8269 76.1608L79.3717 72.8344H70.4617V100H73.5109L73.1149 88.4764L79.3717 88.2784L81.7873 85.348L81.8269 76.1608ZM78.7381 83.9224L77.2333 85.348L73.0357 85.5064L72.6793 75.3292H77.0749L78.8569 77.3884L78.7381 83.9224ZM85.1765 72.6364L84.3449 100H94.1657L97.0961 97.7032V86.8924L93.7697 84.358L96.8585 76.8736L94.4033 72.7552L85.1765 72.6364ZM94.9577 88.4368L94.7597 95.8024L92.4233 97.5052L88.6217 97.1488L88.6613 86.8924L92.3045 86.2984L94.9577 88.4368ZM90.8789 84.2392L88.6613 84.6748L88.7009 75.1312L92.2649 75.0916L93.7301 77.2696L90.8789 84.2392ZM110.843 72.7552L100.587 72.9928L101.26 100H111.517L111.754 96.7924L103.795 97.228L103.715 85.15L108.626 84.8728L108.23 82.6948L103.676 83.2492L103.636 75.8044L111.002 76.3588L110.843 72.7552ZM118.08 88.3972L122.357 100.198L125.169 100L120.536 88.1596L123.149 88.12L125.169 85.3876V76.1608L122.753 72.874H114.2V100H117.288L116.932 88.4764L118.08 88.3972ZM116.457 75.2896H120.852L122.634 77.3884L122.516 83.8828L121.011 85.3876L116.813 85.546L116.457 75.2896ZM132.737 88.3972L137.014 100.198L139.825 100L135.192 88.1596L137.806 88.12L139.825 85.3876V76.1608L137.41 72.874H128.856V100H131.945L131.589 88.4764L132.737 88.3972ZM131.113 75.2896H135.509L137.291 77.3884L137.172 83.8828L135.667 85.3876L131.47 85.546L131.113 75.2896ZM152.918 72.7156L148.879 82.8532L144.048 72.874L140.682 73.072L147.493 86.4568L147.652 99.9604H151.77L151.374 86.536L157.076 72.9928L152.918 72.7156ZM41.8246 136.713L34.8154 137.149L32.8354 124.754L34.459 117.27L41.7058 116.319L41.785 112.24L32.9146 113.27L29.113 125.744L32.3998 140.317L42.2602 140.079L41.8246 136.713ZM60.5133 119.923L55.5633 112.953L48.5937 112.478L42.3765 119.527L42.6933 133.308L47.7621 140.198L54.4545 140.119L59.7609 133.149L60.5133 119.923ZM56.1177 132.634L52.8705 137.268L49.0293 137.149L46.1385 132.674L45.5049 121.903L50.3361 115.488L53.3061 115.606L56.3553 119.527L56.1177 132.634ZM75.5464 136.713L68.5372 137.149L66.5572 124.754L68.1808 117.27L75.4276 116.319L75.5068 112.24L66.6364 113.27L62.8348 125.744L66.1216 140.317L75.982 140.079L75.5464 136.713ZM79.3462 112.755L78.9502 140.079L82.7914 140.04L82.9102 128.318L84.8506 126.457L96.0178 140.673L98.9086 138.654L87.385 124.556L96.8494 115.369L94.6318 113.032L82.9498 124.714L83.0686 112.993L79.3462 112.755ZM113.686 112.399L97.9653 113.31L98.1237 115.527H104.182L103.668 140.277L107.073 139.802L108.261 115.527L113.528 115.606L113.686 112.399ZM116.864 112.359L112.745 139.683L116.072 139.881L118.012 127.843L121.378 127.605L123.556 139.683L126.209 139.96L121.259 112.359H116.864ZM118.329 126.1L119.675 118.299L121.101 125.902L118.329 126.1ZM136.908 115.488L137.225 112.755L127.958 112.953L128.196 115.012L130.809 115.171L131.324 138.06L128.711 138.218L129.027 140.119L136.551 140.04L136.987 137.624L134.057 137.862L134.492 115.369L136.908 115.488ZM151.795 135.961L144.271 136.911L145.103 113.032L140.786 112.636L141.222 140.158L152.27 140.277L151.795 135.961Z" fill="white"/>
</g>
<defs>
<clipPath id="clip0_874_2245">
<rect width="180" height="180" fill="white"/>
</clipPath>
</defs>
</svg>
