<svg width="180" height="180" viewBox="0 0 180 180" fill="none" xmlns="http://www.w3.org/2000/svg">
<g clip-path="url(#clip0_874_2245)">
<rect width="180" height="180" fill="#E8A5DD"/>
<path d="M53.293 81.3386C42.9281 112.444 49.1074 148.776 80.2196 159.144C111.332 169.511 135.149 146.65 145.514 115.545C155.879 84.4391 144.696 69.3837 113.584 59.0166C82.4714 48.6495 63.6578 50.2332 53.293 81.3386Z" fill="#B02367"/>
<path d="M24.4232 6L117 99.8835C100.669 106.885 62.0266 113.696 38.1029 84.9258C14.1793 56.1561 19.0149 20.3212 24.4232 6Z" fill="#FFC93F"/>
<path d="M38.6304 36.1608L36.1752 32.8344H27.2652V60H30.3144L29.9184 48.4764L36.1752 48.2784L38.5908 45.348L38.6304 36.1608ZM35.5416 43.9224L34.0368 45.348L29.8392 45.5064L29.4828 35.3292H33.8784L35.6604 37.3884L35.5416 43.9224ZM48.91 35.4876L49.2268 32.7552L39.9604 32.9532L40.198 35.0124L42.8116 35.1708L43.3264 58.0596L40.7128 58.218L41.0296 60.1188L48.5536 60.0396L48.9892 57.624L46.0588 57.8616L46.4944 35.3688L48.91 35.4876ZM68.2326 32.874L63.837 32.676L64.5894 52.278L57.0258 32.676H52.7886L53.1846 60.0396L56.907 59.9604L56.313 38.8536L64.431 59.9604H67.5594L68.2326 32.874ZM83.2318 32.7552L72.9754 32.9928L73.6486 60H83.905L84.1426 56.7924L76.183 57.228L76.1038 45.15L81.0142 44.8728L80.6182 42.6948L76.0642 43.2492L76.0246 35.8044L83.3902 36.3588L83.2318 32.7552ZM90.1608 32.3592L86.0424 59.6832L89.3688 59.8812L91.3092 47.8428L94.6752 47.6052L96.8532 59.6832L99.5064 59.9604L94.5564 32.3592H90.1608ZM91.626 46.1004L92.9724 38.2992L94.398 45.9024L91.626 46.1004ZM113.809 36.1608L111.353 32.8344H102.443V60H105.493L105.097 48.4764L111.353 48.2784L113.769 45.348L113.809 36.1608ZM110.72 43.9224L109.215 45.348L105.017 45.5064L104.661 35.3292H109.057L110.839 37.3884L110.72 43.9224ZM127.692 36.1608L125.237 32.8344H116.327V60H119.376L118.98 48.4764L125.237 48.2784L127.652 45.348L127.692 36.1608ZM124.603 43.9224L123.098 45.348L118.901 45.5064L118.544 35.3292H122.94L124.722 37.3884L124.603 43.9224ZM141.219 55.9608L133.695 56.9112L134.526 33.0324L130.21 32.6364L130.645 60.1584L141.694 60.2772L141.219 55.9608ZM154.311 32.7552L144.054 32.9928L144.727 60H154.984L155.221 56.7924L147.262 57.228L147.183 45.15L152.093 44.8728L151.697 42.6948L147.143 43.2492L147.103 35.8044L154.469 36.3588L154.311 32.7552ZM51.7775 88.3972L56.0543 100.198L58.8659 100L54.2327 88.1596L56.8463 88.12L58.8659 85.3876V76.1608L56.4503 72.874H47.8967V100H50.9855L50.6291 88.4764L51.7775 88.3972ZM50.1539 75.2896H54.5495L56.3315 77.3884L56.2127 83.8828L54.7079 85.3876L50.5103 85.546L50.1539 75.2896ZM64.8501 72.3592L60.7317 99.6832L64.0581 99.8812L65.9985 87.8428L69.3645 87.6052L71.5425 99.6832L74.1957 99.9604L69.2457 72.3592H64.8501ZM66.3153 86.1004L67.6617 78.2992L69.0873 85.9024L66.3153 86.1004ZM81.6074 74.9728L86.5574 77.4676L88.7354 74.7352L84.4982 72.3196L77.8454 73.6264L76.3406 81.2296L86.8346 91.09L85.3694 97.2676L80.7758 96.832L78.3206 93.1492L75.905 96.1588L79.1522 99.9208L87.8246 100.04L90.755 89.8624L79.5878 79.5664L81.6074 74.9728ZM104.663 76.1608L102.207 72.8344H93.2974V100H96.3466L95.9506 88.4764L102.207 88.2784L104.623 85.348L104.663 76.1608ZM101.574 83.9224L100.069 85.348L95.8714 85.5064L95.515 75.3292H99.9106L101.693 77.3884L101.574 83.9224ZM108.012 72.6364L107.181 100H117.001L119.932 97.7032V86.8924L116.605 84.358L119.694 76.8736L117.239 72.7552L108.012 72.6364ZM117.793 88.4368L117.595 95.8024L115.259 97.5052L111.457 97.1488L111.497 86.8924L115.14 86.2984L117.793 88.4368ZM113.715 84.2392L111.497 84.6748L111.537 75.1312L115.101 75.0916L116.566 77.2696L113.715 84.2392ZM133.679 72.7552L123.423 72.9928L124.096 100H134.352L134.59 96.7924L126.63 97.228L126.551 85.15L131.462 84.8728L131.066 82.6948L126.512 83.2492L126.472 75.8044L133.838 76.3588L133.679 72.7552ZM73.511 128.397L77.7878 140.198L80.5994 140L75.9662 128.16L78.5798 128.12L80.5994 125.388V116.161L78.1838 112.874H69.6302V140H72.719L72.3626 128.476L73.511 128.397ZM71.8874 115.29H76.283L78.065 117.388L77.9462 123.883L76.4414 125.388L72.2438 125.546L71.8874 115.29ZM88.1677 128.397L92.4445 140.198L95.2561 140L90.6229 128.16L93.2365 128.12L95.2561 125.388V116.161L92.8405 112.874H84.2869V140H87.3757L87.0193 128.476L88.1677 128.397ZM86.5441 115.29H90.9397L92.7217 117.388L92.6029 123.883L91.0981 125.388L86.9005 125.546L86.5441 115.29ZM108.349 112.716L104.31 122.853L99.4788 112.874L96.1128 113.072L102.924 126.457L103.082 139.96H107.201L106.805 126.536L112.507 112.993L108.349 112.716Z" fill="white"/>
</g>
<defs>
<clipPath id="clip0_874_2245">
<rect width="180" height="180" fill="white"/>
</clipPath>
</defs>
</svg>
