<svg width="180" height="180" viewBox="0 0 180 180" fill="none" xmlns="http://www.w3.org/2000/svg">
<g clip-path="url(#clip0_874_2272)">
<rect width="180" height="180" fill="#7452D2"/>
<circle cx="91" cy="82" r="49" fill="#E7B5E4"/>
<ellipse cx="91" cy="176" rx="131" ry="83" fill="#B842A5"/>
<path d="M58.5002 153.523C62.5002 139.923 52.8335 114.523 47.5002 103.523C70.3003 91.5229 115.667 96.5229 135.5 100.523C132 101.523 125 104.223 125 107.023C125 110.523 115 116.523 120 142.523C120.094 143.013 120.181 143.482 120.261 143.929C121.352 144.245 122.889 145.184 125 147.023C140.5 160.523 135.5 160.523 129.5 168.523C123.5 176.523 126.5 174.023 135.5 188.023C144.5 202.023 140 211.023 129.5 212.523C121.1 213.723 81.3333 215.023 62.5 215.523C61.1667 206.023 55.8002 184.423 45.0002 174.023C31.5002 161.023 53.5002 170.523 58.5002 153.523Z" fill="#DC72CB"/>
<path d="M70.3994 56.1608L67.9442 52.8344H59.0342V80H62.0834L61.6874 68.4764L67.9442 68.2784L70.3598 65.348L70.3994 56.1608ZM67.3106 63.9224L65.8058 65.348L61.6082 65.5064L61.2518 55.3292H65.6474L67.4294 57.3884L67.3106 63.9224ZM80.679 55.4876L80.9958 52.7552L71.7294 52.9532L71.967 55.0124L74.5806 55.1708L75.0954 78.0596L72.4818 78.218L72.7986 80.1188L80.3226 80.0396L80.7582 77.624L77.8278 77.8616L78.2634 55.3688L80.679 55.4876ZM100.002 52.874L95.606 52.676L96.3584 72.278L88.7948 52.676H84.5576L84.9536 80.0396L88.676 79.9604L88.082 58.8536L96.2 79.9604H99.3284L100.002 52.874ZM105.14 52.7552L104.744 80.0792L108.586 80.0396L108.704 68.318L110.645 66.4568L121.812 80.6732L124.703 78.6536L113.179 64.556L122.644 55.3688L120.426 53.0324L108.744 64.7144L108.863 52.9928L105.14 52.7552ZM45.4685 94.9728L50.4185 97.4676L52.5965 94.7352L48.3593 92.3196L41.7065 93.6264L40.2017 101.23L50.6957 111.09L49.2305 117.268L44.6369 116.832L42.1817 113.149L39.7661 116.159L43.0133 119.921L51.6857 120.04L54.6161 109.862L43.4489 99.5664L45.4685 94.9728ZM70.2854 111.644L68.4242 116L63.3554 116.436L60.5438 111.724L61.2962 92.6364L57.3362 92.3988L56.9402 114.02L60.7418 119.921L70.3646 120.158L73.9286 114.456L74.6414 92.6364L69.8102 92.8344L70.2854 111.644ZM93.7561 92.874L89.3605 92.676L90.1129 112.278L82.5493 92.676H78.3121L78.7081 120.04L82.4305 119.96L81.8365 98.8536L89.9545 119.96H93.0829L93.7561 92.874ZM101.311 94.9728L106.261 97.4676L108.439 94.7352L104.202 92.3196L97.5487 93.6264L96.0439 101.23L106.538 111.09L105.073 117.268L100.479 116.832L98.0239 113.149L95.6083 116.159L98.8555 119.921L107.528 120.04L110.458 109.862L99.2911 99.5664L101.311 94.9728ZM123.257 92.7552L113.001 92.9928L113.674 120H123.93L124.168 116.792L116.208 117.228L116.129 105.15L121.04 104.873L120.644 102.695L116.09 103.249L116.05 95.8044L123.416 96.3588L123.257 92.7552ZM141.434 92.3988L125.712 93.3096L125.871 95.5272H131.93L131.415 120.277L134.82 119.802L136.008 95.5272L141.275 95.6064L141.434 92.3988Z" fill="white"/>
</g>
<defs>
<clipPath id="clip0_874_2272">
<rect width="180" height="180" fill="white"/>
</clipPath>
</defs>
</svg>
