<svg width="180" height="180" viewBox="0 0 180 180" fill="none" xmlns="http://www.w3.org/2000/svg">
<g clip-path="url(#clip0_874_2772)">
<rect width="180" height="180" fill="#F0C3E9"/>
<path d="M167.5 100.5C190.3 102.5 160 154.5 125.5 167L139.5 189C190.5 162 195.833 108.167 193.5 86.5L167.5 100.5Z" fill="#938CE3"/>
<path d="M124.5 62.8713C121.531 80.956 108.517 119.842 99.8059 144.371C112.528 114.361 159.02 87.715 181.823 77.7228C188.056 82.4581 199.102 92.8327 193.429 96.4487C186.337 100.969 168 96.4487 152 112C130.89 132.518 133.469 165.541 130.89 171.352C128.311 177.164 123.154 181.684 118.64 184.912C114.127 188.141 58.5 209 54.8123 160.5C52.6894 132.581 28.3784 93.2201 27.089 82.2429C25.7995 71.2656 38.6941 62.8713 54.8123 62.8713C67.7068 62.8713 90.0576 86.1172 98.0093 94.5115L83 126C81.2807 112.44 72.8649 80.8223 62.5493 77.7228C49.6547 73.8485 52.2336 79.0143 62.5493 103.552C70.8018 123.181 78.1404 136.821 79 145C79 132.086 80.6016 132.609 98.0093 96.4487C115.417 60.2884 108.97 11.8594 106.391 13.1509C104.328 14.184 97.7944 26.0652 94.7857 31.8767H86.4042L75.4438 62.8713L69.6413 60.2884L80.6016 31.8767L75.4438 26.711C79.3122 14.4424 98.0093 0.236521 108.97 3.46512C119.93 6.69372 128.846 36.3968 124.5 62.8713Z" fill="#938CE3"/>
<path d="M20.3198 80.488C20.3198 77.4976 19.145 74.6852 14.339 74.6852L11.9894 74.97L11.8826 98.9644L14.7306 98.644L14.4814 88.0352C14.9086 87.964 15.3358 87.8572 15.6918 87.7148L18.255 98.9644L20.6402 98.8576L17.6854 86.6824C19.679 85.1516 20.3198 82.6596 20.3198 80.488ZM14.4458 86.006L14.339 76.8568C16.831 77.106 18.0414 78.6012 18.0414 80.9152C18.0414 83.4428 16.7598 85.3652 14.4458 86.006ZM39.1475 80.9508L34.6975 74.6852L28.4319 74.258L22.8427 80.5948L23.1275 92.9836L27.6843 99.178L33.7007 99.1068L38.4711 92.8412L39.1475 80.9508ZM35.1959 92.3784L32.2767 96.5436L28.8235 96.4368L26.2247 92.414L25.6551 82.7308L29.9983 76.9636L32.6683 77.0704L35.4095 80.5948L35.1959 92.3784ZM46.3254 76.5008L50.7754 78.7436L52.7334 76.2872L48.9242 74.1156L42.9434 75.2904L41.5906 82.1256L51.0246 90.99L49.7074 96.5436L45.5778 96.152L43.3706 92.8412L41.199 95.5468L44.1182 98.9288L51.9146 99.0356L54.549 89.8864L44.5098 80.6304L46.3254 76.5008ZM66.055 74.5072L56.8346 74.7208L57.4398 99H66.6602L66.8738 96.1164L59.7182 96.508L59.647 85.65L64.0614 85.4008L63.7054 83.4428L59.6114 83.9412L59.5758 77.2484L66.1974 77.7468L66.055 74.5072ZM92.6262 77.9604L89.4578 74.8276L85.079 74.1156L78.9202 76.7144L75.9654 86.1128L78.1726 96.3656L85.0078 99.5696L93.1602 97.1132L92.911 88.9252L91.7006 87.5012L87.6422 87.2164V90.5628L90.5258 90.3492L90.3478 95.1552L85.3994 96.2944L80.9494 93.482L78.9558 86.3976L81.5546 78.53L87.2506 76.8924L90.5258 80.0252L92.6262 77.9604ZM98.2193 74.1512L94.5169 98.7152L97.5073 98.8932L99.2517 88.0708L102.278 87.8572L104.236 98.7152L106.621 98.9644L102.171 74.1512H98.2193ZM99.5365 86.5044L100.747 79.4912L102.029 86.3264L99.5365 86.5044ZM112.75 88.5692L116.595 99.178L119.122 99L114.957 88.3556L117.307 88.32L119.122 85.8636V77.5688L116.951 74.614H109.261V99H112.038L111.718 88.6404L112.75 88.5692ZM111.29 76.7856H115.242L116.844 78.6724L116.737 84.5108L115.384 85.8636L111.611 86.006L111.29 76.7856ZM122.936 99.178L133.794 98.7864L138.493 93.2328L139.027 81.9832L133.224 74.8988L122.437 74.5072L122.936 99.178ZM134.185 91.702L131.551 95.7248L126.175 95.9384L126.496 77.3908L131.266 77.2484L134.862 83.2292L134.185 91.702ZM151.405 74.5072L142.184 74.7208L142.789 99H152.01L152.223 96.1164L145.068 96.508L144.997 85.65L149.411 85.4008L149.055 83.4428L144.961 83.9412L144.925 77.2484L151.547 77.7468L151.405 74.5072ZM168.306 74.614L164.354 74.436L165.031 92.058L158.231 74.436H154.422L154.778 99.0356L158.124 98.9644L157.59 79.9896L164.888 98.9644H167.701L168.306 74.614Z" fill="white"/>
</g>
<defs>
<clipPath id="clip0_874_2772">
<rect width="180" height="180" fill="white"/>
</clipPath>
</defs>
</svg>
