<svg width="180" height="180" viewBox="0 0 180 180" fill="none" xmlns="http://www.w3.org/2000/svg">
<g clip-path="url(#clip0_874_2272)">
<rect width="180" height="180" fill="#7452D2"/>
<circle cx="91" cy="82" r="49" fill="#E7B5E4"/>
<ellipse cx="91" cy="176" rx="131" ry="83" fill="#B842A5"/>
<path d="M58.5002 153.523C62.5002 139.923 52.8335 114.523 47.5002 103.523C70.3003 91.5229 115.667 96.5229 135.5 100.523C132 101.523 125 104.223 125 107.023C125 110.523 115 116.523 120 142.523C120.094 143.013 120.181 143.482 120.261 143.929C121.352 144.245 122.889 145.184 125 147.023C140.5 160.523 135.5 160.523 129.5 168.523C123.5 176.523 126.5 174.023 135.5 188.023C144.5 202.023 140 211.023 129.5 212.523C121.1 213.723 81.3333 215.023 62.5 215.523C61.1667 206.023 55.8002 184.423 45.0002 174.023C31.5002 161.023 53.5002 170.523 58.5002 153.523Z" fill="#DC72CB"/>
<path d="M62.9765 67.9616C68.2037 67.13 69.6293 62.8928 69.6293 59.3684C69.6293 55.9628 68.2829 52.7552 62.8181 52.7552H60.7985L59.8085 54.1016L59.7689 80L63.2537 79.6436L62.9765 67.9616ZM67.0157 59.8436C67.0157 62.7344 65.5901 64.9124 62.9369 65.6648L62.8181 55.2104C65.6693 55.4876 67.0157 57.1904 67.0157 59.8436ZM79.9442 55.4876L80.261 52.7552L70.9946 52.9532L71.2322 55.0124L73.8458 55.1708L74.3606 78.0596L71.747 78.218L72.0638 80.1188L79.5878 80.0396L80.0234 77.624L77.093 77.8616L77.5286 55.3688L79.9442 55.4876ZM99.2668 52.874L94.8712 52.676L95.6236 72.278L88.06 52.676H83.8228L84.2188 80.0396L87.9412 79.9604L87.3472 58.8536L95.4652 79.9604H98.5936L99.2668 52.874ZM104.406 52.7552L104.01 80.0792L107.851 80.0396L107.97 68.318L109.91 66.4568L121.077 80.6732L123.968 78.6536L112.444 64.556L121.909 55.3688L119.691 53.0324L108.009 64.7144L108.128 52.9928L104.406 52.7552ZM45.4685 94.9728L50.4185 97.4676L52.5965 94.7352L48.3593 92.3196L41.7065 93.6264L40.2017 101.23L50.6957 111.09L49.2305 117.268L44.6369 116.832L42.1817 113.149L39.7661 116.159L43.0133 119.921L51.6857 120.04L54.6161 109.862L43.4489 99.5664L45.4685 94.9728ZM70.2854 111.644L68.4242 116L63.3554 116.436L60.5438 111.724L61.2962 92.6364L57.3362 92.3988L56.9402 114.02L60.7418 119.921L70.3646 120.158L73.9286 114.456L74.6414 92.6364L69.8102 92.8344L70.2854 111.644ZM93.7561 92.874L89.3605 92.676L90.1129 112.278L82.5493 92.676H78.3121L78.7081 120.04L82.4305 119.96L81.8365 98.8536L89.9545 119.96H93.0829L93.7561 92.874ZM101.311 94.9728L106.261 97.4676L108.439 94.7352L104.202 92.3196L97.5487 93.6264L96.0439 101.23L106.538 111.09L105.073 117.268L100.479 116.832L98.0239 113.149L95.6083 116.159L98.8555 119.921L107.528 120.04L110.458 109.862L99.2911 99.5664L101.311 94.9728ZM123.257 92.7552L113.001 92.9928L113.674 120H123.93L124.168 116.792L116.208 117.228L116.129 105.15L121.04 104.873L120.644 102.695L116.09 103.249L116.05 95.8044L123.416 96.3588L123.257 92.7552ZM141.434 92.3988L125.712 93.3096L125.871 95.5272H131.93L131.415 120.277L134.82 119.802L136.008 95.5272L141.275 95.6064L141.434 92.3988Z" fill="white"/>
</g>
<defs>
<clipPath id="clip0_874_2272">
<rect width="180" height="180" fill="white"/>
</clipPath>
</defs>
</svg>
