<svg width="180" height="180" viewBox="0 0 180 180" fill="none" xmlns="http://www.w3.org/2000/svg">
<g clip-path="url(#clip0_874_2772)">
<rect width="180" height="180" fill="#F0C3E9"/>
<path d="M167.5 100.5C190.3 102.5 160 154.5 125.5 167L139.5 189C190.5 162 195.833 108.167 193.5 86.5L167.5 100.5Z" fill="#938CE3"/>
<path d="M124.5 62.8713C121.531 80.956 108.517 119.842 99.8059 144.371C112.528 114.361 159.02 87.715 181.823 77.7228C188.056 82.4581 199.102 92.8327 193.429 96.4487C186.337 100.969 168 96.4487 152 112C130.89 132.518 133.469 165.541 130.89 171.352C128.311 177.164 123.154 181.684 118.64 184.912C114.127 188.141 58.5 209 54.8123 160.5C52.6894 132.581 28.3784 93.2201 27.089 82.2429C25.7995 71.2656 38.6941 62.8713 54.8123 62.8713C67.7068 62.8713 90.0576 86.1172 98.0093 94.5115L83 126C81.2807 112.44 72.8649 80.8223 62.5493 77.7228C49.6547 73.8485 52.2336 79.0143 62.5493 103.552C70.8018 123.181 78.1404 136.821 79 145C79 132.086 80.6016 132.609 98.0093 96.4487C115.417 60.2884 108.97 11.8594 106.391 13.1509C104.328 14.184 97.7944 26.0652 94.7857 31.8767H86.4042L75.4438 62.8713L69.6413 60.2884L80.6016 31.8767L75.4438 26.711C79.3122 14.4424 98.0093 0.236521 108.97 3.46512C119.93 6.69372 128.846 36.3968 124.5 62.8713Z" fill="#938CE3"/>
<path d="M24.6203 77.5688L22.4131 74.5784H14.4031V99H17.1443L16.7883 88.6404L22.4131 88.4624L24.5847 85.828L24.6203 77.5688ZM21.8435 84.5464L20.4907 85.828L16.7171 85.9704L16.3967 76.8212H20.3483L21.9503 78.6724L21.8435 84.5464ZM33.8616 76.9636L34.1464 74.5072L25.816 74.6852L26.0296 76.5364L28.3792 76.6788L28.842 97.2556L26.4924 97.398L26.7772 99.1068L33.5412 99.0356L33.9328 96.864L31.2984 97.0776L31.69 76.8568L33.8616 76.9636ZM51.2324 74.614L47.2808 74.436L47.9572 92.058L41.1576 74.436H37.3484L37.7044 99.0356L41.0508 98.9644L40.5168 79.9896L47.8148 98.9644H50.6272L51.2324 74.614ZM55.8521 74.5072L55.4961 99.0712L58.9493 99.0356L59.0561 88.498L60.8005 86.8248L70.8397 99.6052L73.4385 97.7896L63.0789 85.116L71.5873 76.8568L69.5937 74.7564L59.0917 85.2584L59.1985 74.7208L55.8521 74.5072ZM98.067 77.9604L94.8986 74.8276L90.5198 74.1156L84.361 76.7144L81.4062 86.1128L83.6134 96.3656L90.4486 99.5696L98.601 97.1132L98.3518 88.9252L97.1414 87.5012L93.083 87.2164V90.5628L95.9666 90.3492L95.7886 95.1552L90.8402 96.2944L86.3902 93.482L84.3966 86.3976L86.9954 78.53L92.6914 76.8924L95.9666 80.0252L98.067 77.9604ZM103.66 74.1512L99.9577 98.7152L102.948 98.8932L104.693 88.0708L107.719 87.8572L109.677 98.7152L112.062 98.9644L107.612 74.1512H103.66ZM104.977 86.5044L106.188 79.4912L107.469 86.3264L104.977 86.5044ZM118.191 88.5692L122.036 99.178L124.563 99L120.398 88.3556L122.748 88.32L124.563 85.8636V77.5688L122.392 74.614H114.702V99H117.479L117.158 88.6404L118.191 88.5692ZM116.731 76.7856H120.683L122.285 78.6724L122.178 84.5108L120.825 85.8636L117.052 86.006L116.731 76.7856ZM128.377 99.178L139.235 98.7864L143.934 93.2328L144.468 81.9832L138.665 74.8988L127.878 74.5072L128.377 99.178ZM139.626 91.702L136.992 95.7248L131.616 95.9384L131.937 77.3908L136.707 77.2484L140.303 83.2292L139.626 91.702ZM156.845 74.5072L147.625 74.7208L148.23 99H157.451L157.664 96.1164L150.509 96.508L150.437 85.65L154.852 85.4008L154.496 83.4428L150.402 83.9412L150.366 77.2484L156.988 77.7468L156.845 74.5072ZM173.747 74.614L169.795 74.436L170.471 92.058L163.672 74.436H159.863L160.219 99.0356L163.565 98.9644L163.031 79.9896L170.329 98.9644H173.141L173.747 74.614Z" fill="white"/>
</g>
<defs>
<clipPath id="clip0_874_2772">
<rect width="180" height="180" fill="white"/>
</clipPath>
</defs>
</svg>
