<svg width="180" height="180" viewBox="0 0 180 180" fill="none" xmlns="http://www.w3.org/2000/svg">
<g clip-path="url(#clip0_874_2561)">
<rect width="180" height="180" fill="#CC4163"/>
<rect x="32" y="90" width="58" height="55" fill="#FFBE3F"/>
<rect x="90" y="90" width="58" height="55" fill="#F06083"/>
<rect x="32" y="35" width="58" height="55" fill="#E8426A"/>
<rect x="90" y="35" width="58" height="55" fill="#A24058"/>
<path d="M35.8833 88.1776C40.5825 87.43 41.8641 83.6208 41.8641 80.4524C41.8641 77.3908 40.6537 74.5072 35.7409 74.5072H33.9253L33.0353 75.7176L32.9997 99L36.1325 98.6796L35.8833 88.1776ZM39.5145 80.8796C39.5145 83.4784 38.2329 85.4364 35.8477 86.1128L35.7409 76.7144C38.3041 76.9636 39.5145 78.4944 39.5145 80.8796ZM51.137 76.9636L51.4218 74.5072L43.0914 74.6852L43.305 76.5364L45.6546 76.6788L46.1174 97.2556L43.7678 97.398L44.0526 99.1068L50.8166 99.0356L51.2082 96.864L48.5738 97.0776L48.9654 76.8568L51.137 76.9636ZM63.4171 74.4716L60.3199 82.6952L57.3295 74.4716L53.4491 74.614L58.3975 86.2908L54.1255 99.178L57.1871 99.4272L60.1775 89.9576L63.9155 99.178L66.7635 98.8576L61.7795 85.6856L66.9771 74.7208L63.4171 74.4716ZM79.315 74.5072L70.0946 74.7208L70.6998 99H79.9202L80.1338 96.1164L72.9782 96.508L72.907 85.65L77.3214 85.4008L76.9654 83.4428L72.8714 83.9412L72.8358 77.2484L79.4574 77.7468L79.315 74.5072ZM92.2289 95.3688L85.4649 96.2232L86.2125 74.7564L82.3321 74.4004L82.7237 99.1424L92.6561 99.2492L92.2289 95.3688ZM101.756 76.9636L102.041 74.5072L93.7102 74.6852L93.9238 76.5364L96.2734 76.6788L96.7362 97.2556L94.3866 97.398L94.6714 99.1068L101.435 99.0356L101.827 96.864L99.1926 97.0776L99.5842 76.8568L101.756 76.9636ZM107.307 74.1512L103.605 98.7152L106.595 98.8932L108.34 88.0708L111.366 87.8572L113.324 98.7152L115.709 98.9644L111.259 74.1512H107.307ZM108.625 86.5044L109.835 79.4912L111.117 86.3264L108.625 86.5044ZM121.838 88.5692L125.683 99.178L128.21 99L124.045 88.3556L126.395 88.32L128.21 85.8636V77.5688L126.039 74.614H118.349V99H121.126L120.806 88.6404L121.838 88.5692ZM120.378 76.7856H124.33L125.932 78.6724L125.825 84.5108L124.472 85.8636L120.699 86.006L120.378 76.7856ZM132.024 99.178L142.882 98.7864L147.581 93.2328L148.115 81.9832L142.312 74.8988L131.525 74.5072L132.024 99.178ZM143.273 91.702L140.639 95.7248L135.263 95.9384L135.584 77.3908L140.354 77.2484L143.95 83.2292L143.273 91.702Z" fill="white"/>
</g>
<defs>
<clipPath id="clip0_874_2561">
<rect width="180" height="180" fill="white"/>
</clipPath>
</defs>
</svg>
