<svg width="180" height="180" viewBox="0 0 180 180" fill="none" xmlns="http://www.w3.org/2000/svg">
<g clip-path="url(#clip0_874_2561)">
<rect width="180" height="180" fill="#CC4163"/>
<rect x="32" y="90" width="58" height="55" fill="#FFBE3F"/>
<rect x="90" y="90" width="58" height="55" fill="#F06083"/>
<rect x="32" y="35" width="58" height="55" fill="#E8426A"/>
<rect x="90" y="35" width="58" height="55" fill="#A24058"/>
<path d="M41.8958 77.5688L39.6886 74.5784H31.6786V99H34.4198L34.0638 88.6404L39.6886 88.4624L41.8602 85.828L41.8958 77.5688ZM39.119 84.5464L37.7662 85.828L33.9926 85.9704L33.6722 76.8212H37.6238L39.2258 78.6724L39.119 84.5464ZM51.137 76.9636L51.4218 74.5072L43.0914 74.6852L43.305 76.5364L45.6546 76.6788L46.1174 97.2556L43.7678 97.398L44.0526 99.1068L50.8166 99.0356L51.2082 96.864L48.5738 97.0776L48.9654 76.8568L51.137 76.9636ZM63.4171 74.4716L60.3199 82.6952L57.3295 74.4716L53.4491 74.614L58.3975 86.2908L54.1255 99.178L57.1871 99.4272L60.1775 89.9576L63.9155 99.178L66.7635 98.8576L61.7795 85.6856L66.9771 74.7208L63.4171 74.4716ZM79.315 74.5072L70.0946 74.7208L70.6998 99H79.9202L80.1338 96.1164L72.9782 96.508L72.907 85.65L77.3214 85.4008L76.9654 83.4428L72.8714 83.9412L72.8358 77.2484L79.4574 77.7468L79.315 74.5072ZM92.2289 95.3688L85.4649 96.2232L86.2125 74.7564L82.3321 74.4004L82.7237 99.1424L92.6561 99.2492L92.2289 95.3688ZM100.313 74.4716L96.6822 83.5852L92.339 74.614L89.313 74.792L95.4362 86.8248L95.5786 98.9644H99.281L98.925 86.896L104.051 74.7208L100.313 74.4716ZM108.629 74.1512L104.926 98.7152L107.917 98.8932L109.661 88.0708L112.687 87.8572L114.645 98.7152L117.03 98.9644L112.58 74.1512H108.629ZM109.946 86.5044L111.156 79.4912L112.438 86.3264L109.946 86.5044ZM123.159 88.5692L127.004 99.178L129.532 99L125.366 88.3556L127.716 88.32L129.532 85.8636V77.5688L127.36 74.614H119.67V99H122.447L122.127 88.6404L123.159 88.5692ZM121.7 76.7856H125.651L127.253 78.6724L127.146 84.5108L125.794 85.8636L122.02 86.006L121.7 76.7856ZM133.345 99.178L144.203 98.7864L148.902 93.2328L149.436 81.9832L143.633 74.8988L132.847 74.5072L133.345 99.178ZM144.595 91.702L141.96 95.7248L136.585 95.9384L136.905 77.3908L141.675 77.2484L145.271 83.2292L144.595 91.702Z" fill="white"/>
</g>
<defs>
<clipPath id="clip0_874_2561">
<rect width="180" height="180" fill="white"/>
</clipPath>
</defs>
</svg>
