<svg width="180" height="180" viewBox="0 0 180 180" fill="none" xmlns="http://www.w3.org/2000/svg">
<g clip-path="url(#clip0_874_2312)">
<rect width="180" height="180" fill="#6B291A"/>
<path d="M31.5 143L13 116.5L144.5 42L161 63C99.8 95.4 121 136.833 145 150L134.5 157.5C88.5 109.9 45 129.833 31.5 143Z" fill="#B842A5"/>
<path d="M51.7015 56.1608L49.2463 52.8344H40.3363V80H43.3855L42.9895 68.4764L49.2463 68.2784L51.6619 65.348L51.7015 56.1608ZM48.6127 63.9224L47.1079 65.348L42.9103 65.5064L42.5539 55.3292H46.9495L48.7315 57.3884L48.6127 63.9224ZM65.2283 75.9608L57.7043 76.9112L58.5359 53.0324L54.2195 52.6364L54.6551 80.1584L65.7035 80.2772L65.2283 75.9608ZM71.637 52.3592L67.5186 79.6832L70.845 79.8812L72.7854 67.8428L76.1514 67.6052L78.3294 79.6832L80.9826 79.9604L76.0326 52.3592H71.637ZM73.1022 66.1004L74.4486 58.2992L75.8742 65.9024L73.1022 66.1004ZM91.2755 52.7156L87.2363 62.8532L82.4051 52.874L79.0391 53.072L85.8503 66.4568L86.0087 79.9604H90.1271L89.7311 66.536L95.4335 52.9928L91.2755 52.7156ZM98.7825 53.0324L98.2281 79.9604L102.03 79.6832L101.673 66.14L106.267 66.2588L106.386 64.0016L101.634 64.358L101.475 56.6756L108.088 55.9628L107.811 52.5176L98.7825 53.0324ZM122.724 71.6444L120.863 76.0004L115.794 76.436L112.983 71.7236L113.735 52.6364L109.775 52.3988L109.379 74.0204L113.181 79.9208L122.804 80.1584L126.368 74.456L127.08 52.6364L122.249 52.8344L122.724 71.6444ZM141.76 75.9608L134.236 76.9112L135.068 53.0324L130.751 52.6364L131.187 80.1584L142.235 80.2772L141.76 75.9608ZM48.5111 96.1608L46.0559 92.8344H37.1459V120H40.1951L39.7991 108.476L46.0559 108.278L48.4715 105.348L48.5111 96.1608ZM45.4223 103.922L43.9175 105.348L39.7199 105.506L39.3635 95.3292H43.7591L45.5411 97.3884L45.4223 103.922ZM53.3259 92.3592L49.2075 119.683L52.5339 119.881L54.4743 107.843L57.8403 107.605L60.0183 119.683L62.6715 119.96L57.7215 92.3592H53.3259ZM54.7911 106.1L56.1375 98.2992L57.5631 105.902L54.7911 106.1ZM70.0832 94.9728L75.0332 97.4676L77.2112 94.7352L72.974 92.3196L66.3212 93.6264L64.8164 101.23L75.3104 111.09L73.8452 117.268L69.2516 116.832L66.7964 113.149L64.3808 116.159L67.628 119.921L76.3004 120.04L79.2308 109.862L68.0636 99.5664L70.0832 94.9728ZM85.8613 94.9728L90.8113 97.4676L92.9893 94.7352L88.7521 92.3196L82.0993 93.6264L80.5945 101.23L91.0885 111.09L89.6233 117.268L85.0297 116.832L82.5745 113.149L80.1589 116.159L83.4061 119.921L92.0785 120.04L95.0089 109.862L83.8417 99.5664L85.8613 94.9728ZM103.727 95.4876L104.044 92.7552L94.7778 92.9532L95.0154 95.0124L97.629 95.1708L98.1438 118.06L95.5302 118.218L95.847 120.119L103.371 120.04L103.807 117.624L100.876 117.862L101.312 95.3688L103.727 95.4876ZM124.09 99.9228L119.14 92.9532L112.17 92.478L105.953 99.5268L106.27 113.308L111.339 120.198L118.031 120.119L123.337 113.149L124.09 99.9228ZM119.694 112.634L116.447 117.268L112.606 117.149L109.715 112.674L109.081 101.903L113.913 95.4876L116.883 95.6064L119.932 99.5268L119.694 112.634ZM143.043 92.874L138.648 92.676L139.4 112.278L131.837 92.676H127.599L127.995 120.04L131.718 119.96L131.124 98.8536L139.242 119.96H142.37L143.043 92.874Z" fill="white"/>
</g>
<defs>
<clipPath id="clip0_874_2312">
<rect width="180" height="180" fill="white"/>
</clipPath>
</defs>
</svg>
