<svg width="180" height="180" viewBox="0 0 180 180" fill="none" xmlns="http://www.w3.org/2000/svg">
<g clip-path="url(#clip0_874_2312)">
<rect width="180" height="180" fill="#6B291A"/>
<path d="M31.5 143L13 116.5L144.5 42L161 63C99.8 95.4 121 136.833 145 150L134.5 157.5C88.5 109.9 45 129.833 31.5 143Z" fill="#B842A5"/>
<path d="M31.5012 56.636C29.4816 55.0916 26.5512 52.9532 23.7396 52.9532C20.334 52.9532 18.9876 55.8836 18.9876 58.3784C18.9876 65.6252 27.5016 67.2488 27.5016 73.5848C27.5016 74.9708 26.9472 76.5152 25.284 76.5152C22.9476 76.5152 21.0864 74.7332 19.1856 72.1196L16.8888 74.7332C19.2252 78.2972 21.522 80.3564 24.69 80.3564C27.858 80.3564 30.7092 78.1784 30.7092 73.4264C30.7092 67.0112 21.7992 62.8928 21.7992 58.4972C21.7992 57.3488 22.3932 56.0816 23.5416 56.0816C25.4028 56.0816 27.8184 58.2992 29.838 59.804L31.5012 56.636ZM46.0167 56.1608L43.5615 52.8344H34.6515V80H37.7007L37.3047 68.4764L43.5615 68.2784L45.9771 65.348L46.0167 56.1608ZM42.9279 63.9224L41.4231 65.348L37.2255 65.5064L36.8691 55.3292H41.2647L43.0467 57.3884L42.9279 63.9224ZM50.8315 52.3592L46.7131 79.6832L50.0395 79.8812L51.9799 67.8428L55.3459 67.6052L57.5239 79.6832L60.1771 79.9604L55.2271 52.3592H50.8315ZM52.2967 66.1004L53.6431 58.2992L55.0687 65.9024L52.2967 66.1004ZM66.9948 68.3972L71.2716 80.198L74.0832 80L69.45 68.1596L72.0636 68.12L74.0832 65.3876V56.1608L71.6676 52.874H63.114V80H66.2028L65.8464 68.4764L66.9948 68.3972ZM65.3712 55.2896H69.7668L71.5488 57.3884L71.43 63.8828L69.9252 65.3876L65.7276 65.546L65.3712 55.2896ZM78.1667 52.7552L77.7707 80.0792L81.6119 80.0396L81.7307 68.318L83.6711 66.4568L94.8383 80.6732L97.7291 78.6536L86.2055 64.556L95.6699 55.3688L93.4523 53.0324L81.7703 64.7144L81.8891 52.9928L78.1667 52.7552ZM109.933 75.9608L102.409 76.9112L103.241 53.0324L98.9242 52.6364L99.3598 80.1584L110.408 80.2772L109.933 75.9608ZM120.53 55.4876L120.847 52.7552L111.581 52.9532L111.818 55.0124L114.432 55.1708L114.947 78.0596L112.333 78.218L112.65 80.1188L120.174 80.0396L120.61 77.624L117.679 77.8616L118.115 55.3688L120.53 55.4876ZM139.853 52.874L135.457 52.676L136.21 72.278L128.646 52.676H124.409L124.805 80.0396L128.527 79.9604L127.933 58.8536L136.051 79.9604H139.18L139.853 52.874ZM161.94 56.5964L158.416 53.1116L153.545 52.3196L146.694 55.2104L143.408 65.6648L145.863 77.0696L153.466 80.6336L162.534 77.9012L162.257 68.7932L160.911 67.2092L156.396 66.8924V70.6148L159.604 70.3772L159.406 75.7232L153.902 76.9904L148.952 73.862L146.734 65.9816L149.625 57.23L155.961 55.4084L159.604 58.8932L161.94 56.5964ZM48.5111 96.1608L46.0559 92.8344H37.1459V120H40.1951L39.7991 108.476L46.0559 108.278L48.4715 105.348L48.5111 96.1608ZM45.4223 103.922L43.9175 105.348L39.7199 105.506L39.3635 95.3292H43.7591L45.5411 97.3884L45.4223 103.922ZM53.3259 92.3592L49.2075 119.683L52.5339 119.881L54.4743 107.843L57.8403 107.605L60.0183 119.683L62.6715 119.96L57.7215 92.3592H53.3259ZM54.7911 106.1L56.1375 98.2992L57.5631 105.902L54.7911 106.1ZM70.0832 94.9728L75.0332 97.4676L77.2112 94.7352L72.974 92.3196L66.3212 93.6264L64.8164 101.23L75.3104 111.09L73.8452 117.268L69.2516 116.832L66.7964 113.149L64.3808 116.159L67.628 119.921L76.3004 120.04L79.2308 109.862L68.0636 99.5664L70.0832 94.9728ZM85.8613 94.9728L90.8113 97.4676L92.9893 94.7352L88.7521 92.3196L82.0993 93.6264L80.5945 101.23L91.0885 111.09L89.6233 117.268L85.0297 116.832L82.5745 113.149L80.1589 116.159L83.4061 119.921L92.0785 120.04L95.0089 109.862L83.8417 99.5664L85.8613 94.9728ZM103.727 95.4876L104.044 92.7552L94.7778 92.9532L95.0154 95.0124L97.629 95.1708L98.1438 118.06L95.5302 118.218L95.847 120.119L103.371 120.04L103.807 117.624L100.876 117.862L101.312 95.3688L103.727 95.4876ZM124.09 99.9228L119.14 92.9532L112.17 92.478L105.953 99.5268L106.27 113.308L111.339 120.198L118.031 120.119L123.337 113.149L124.09 99.9228ZM119.694 112.634L116.447 117.268L112.606 117.149L109.715 112.674L109.081 101.903L113.913 95.4876L116.883 95.6064L119.932 99.5268L119.694 112.634ZM143.043 92.874L138.648 92.676L139.4 112.278L131.837 92.676H127.599L127.995 120.04L131.718 119.96L131.124 98.8536L139.242 119.96H142.37L143.043 92.874Z" fill="white"/>
</g>
<defs>
<clipPath id="clip0_874_2312">
<rect width="180" height="180" fill="white"/>
</clipPath>
</defs>
</svg>
