<svg width="180" height="180" viewBox="0 0 180 180" fill="none" xmlns="http://www.w3.org/2000/svg">
<g clip-path="url(#clip0_874_2452)">
<rect width="180" height="180" fill="#9D4633"/>
<path d="M93.9262 50.1825L118.041 62.7458L135.517 85.2026L124.98 105.428L117.914 105.702L123.869 113.255L110.796 132.653L102.108 136.04L103.298 147.044L91.7738 155.875L68.1368 149.989L47.523 139.25L39.3552 134.995L37.956 113.002L48.1108 103.951L41.1752 96.3818L50.0911 79.2684L60.4715 80.2259L55.3596 69.156L60.6281 59.0435L93.9262 50.1825Z" fill="#58B748"/>
<path d="M97.2729 49.4534L100.446 43.3623C93.6438 25.3809 74.913 21.5569 65.5594 22.0518L66.6705 14.224C85.3932 13.428 97.7965 25.8904 104.116 36.3181L108.823 27.2838L133.846 32.4083L118.511 58.0457L97.2729 49.4534Z" fill="#242320"/>
<path fill-rule="evenodd" clip-rule="evenodd" d="M82.6615 46.8168C85.1213 44.5629 87.8743 40.9165 90.2327 36.3897C92.5911 31.8629 94.002 27.5172 94.4395 24.2098C94.6598 22.5447 94.6134 21.2889 94.4186 20.4562C94.2714 19.8267 94.0922 19.6285 94.0426 19.5851C93.9786 19.5694 93.7135 19.5361 93.1132 19.7761C92.3192 20.0936 91.2635 20.7752 90.0251 21.9099C87.5652 24.1638 84.8123 27.8102 82.4539 32.337C80.0955 36.8638 78.6846 41.2094 78.247 44.5169C78.0268 46.182 78.0731 47.4378 78.2679 48.2704C78.4152 48.9 78.5944 49.0982 78.6439 49.1416C78.7079 49.1573 78.9731 49.1906 79.5734 48.9506C80.3674 48.6331 81.4231 47.9515 82.6615 46.8168ZM78.6281 49.1365C78.6282 49.1364 78.6306 49.1371 78.6353 49.1392C78.6304 49.1377 78.628 49.1367 78.6281 49.1365ZM78.6508 49.1473C78.6552 49.1499 78.6573 49.1515 78.6572 49.1517C78.6571 49.1518 78.6549 49.1505 78.6508 49.1473ZM94.0585 19.5902C94.0584 19.5903 94.0559 19.5896 94.0512 19.5874C94.0562 19.5889 94.0585 19.59 94.0585 19.5902ZM94.0358 19.5794C94.0313 19.5768 94.0293 19.5751 94.0294 19.575C94.0294 19.5749 94.0317 19.5762 94.0358 19.5794ZM77.4274 51.4767C80.8643 53.2673 87.6422 47.0569 92.5663 37.6055C97.4904 28.154 98.6961 19.0406 95.2592 17.25C91.8223 15.4594 85.0443 21.6697 80.1202 31.1212C75.1961 40.5726 73.9905 49.6861 77.4274 51.4767Z" fill="#242320"/>
<path d="M26.1289 67.9616C31.3561 67.13 32.7817 62.8928 32.7817 59.3684C32.7817 55.9628 31.4353 52.7552 25.9705 52.7552H23.9509L22.9609 54.1016L22.9213 80L26.4061 79.6436L26.1289 67.9616ZM30.1681 59.8436C30.1681 62.7344 28.7425 64.9124 26.0893 65.6648L25.9705 55.2104C28.8217 55.4876 30.1681 57.1904 30.1681 59.8436ZM52.2442 59.9228L47.2942 52.9532L40.3246 52.478L34.1074 59.5268L34.4242 73.3076L39.493 80.198L46.1854 80.1188L51.4918 73.1492L52.2442 59.9228ZM47.8486 72.6344L44.6014 77.2676L40.7602 77.1488L37.8694 72.674L37.2358 61.9028L42.067 55.4876L45.037 55.6064L48.0862 59.5268L47.8486 72.6344ZM72.9593 52.478L68.7221 52.9532L65.2769 63.17L61.0793 52.7552L56.4461 52.9136L55.1393 79.9604L58.9409 80.1584L58.9805 57.9032L62.9801 67.6448L65.9105 68.0012L69.7517 58.4972L70.0685 79.8812C70.0685 79.8812 73.5929 79.8812 74.2265 79.8416L72.9593 52.478ZM87.7824 52.7552L77.526 52.9928L78.1992 80H88.4556L88.6932 76.7924L80.7336 77.228L80.6544 65.15L85.5648 64.8728L85.1688 62.6948L80.6148 63.2492L80.5752 55.8044L87.9408 56.3588L87.7824 52.7552ZM108.483 56.5964L104.959 53.1116L100.088 52.3196L93.2373 55.2104L89.9505 65.6648L92.4057 77.0696L100.009 80.6336L109.077 77.9012L108.8 68.7932L107.454 67.2092L102.939 66.8924V70.6148L106.147 70.3772L105.949 75.7232L100.444 76.9904L95.4945 73.862L93.2769 65.9816L96.1677 57.23L102.504 55.4084L106.147 58.8932L108.483 56.5964ZM116.289 68.3972L120.566 80.198L123.377 80L118.744 68.1596L121.358 68.12L123.377 65.3876V56.1608L120.962 52.874H112.408V80H115.497L115.14 68.4764L116.289 68.3972ZM114.665 55.2896H119.061L120.843 57.3884L120.724 63.8828L119.219 65.3876L115.022 65.546L114.665 55.2896ZM129.361 52.3592L125.243 79.6832L128.569 79.8812L130.51 67.8428L133.876 67.6052L136.054 79.6832L138.707 79.9604L133.757 52.3592H129.361ZM130.827 66.1004L132.173 58.2992L133.599 65.9024L130.827 66.1004ZM157.088 52.874L152.692 52.676L153.445 72.278L145.881 52.676H141.644L142.04 80.0396L145.762 79.9604L145.168 58.8536L153.286 79.9604H156.415L157.088 52.874ZM16.3816 92.3592L12.2632 119.683L15.5896 119.881L17.53 107.843L20.896 107.605L23.074 119.683L25.7272 119.96L20.7772 92.3592H16.3816ZM17.8468 106.1L19.1932 98.2992L20.6188 105.902L17.8468 106.1ZM40.1973 92.3988L24.4761 93.3096L24.6345 95.5272H30.6933L30.1785 120.277L33.5841 119.802L34.7721 95.5272L40.0389 95.6064L40.1973 92.3988ZM52.9584 92.7552L42.702 92.9928L43.3752 120H53.6316L53.8692 116.792L45.9096 117.228L45.8304 105.15L50.7408 104.873L50.3448 102.695L45.7908 103.249L45.7512 95.8044L53.1168 96.3588L52.9584 92.7552ZM81.5251 92.478L77.2879 92.9532L73.8427 103.17L69.6451 92.7552L65.0119 92.9136L63.7051 119.96L67.5067 120.158L67.5463 97.9032L71.5459 107.645L74.4763 108.001L78.3175 98.4972L78.6343 119.881C78.6343 119.881 82.1587 119.881 82.7923 119.842L81.5251 92.478ZM93.8534 95.4876L94.1702 92.7552L84.9038 92.9532L85.1414 95.0124L87.755 95.1708L88.2698 118.06L85.6562 118.218L85.973 120.119L93.497 120.04L93.9326 117.624L91.0022 117.862L91.4378 95.3688L93.8534 95.4876ZM114.087 92.478L109.85 92.9532L106.404 103.17L102.207 92.7552L97.5737 92.9136L96.2669 119.96L100.068 120.158L100.108 97.9032L104.108 107.645L107.038 108.001L110.879 98.4972L111.196 119.881C111.196 119.881 114.72 119.881 115.354 119.842L114.087 92.478ZM135.563 99.9228L130.613 92.9532L123.643 92.478L117.426 99.5268L117.743 113.308L122.812 120.198L129.504 120.119L134.81 113.149L135.563 99.9228ZM131.167 112.634L127.92 117.268L124.079 117.149L121.188 112.674L120.554 101.903L125.386 95.4876L128.356 95.6064L131.405 99.5268L131.167 112.634ZM143.547 94.9728L148.497 97.4676L150.675 94.7352L146.438 92.3196L139.785 93.6264L138.28 101.23L148.774 111.09L147.309 117.268L142.715 116.832L140.26 113.149L137.845 116.159L141.092 119.921L149.764 120.04L152.695 109.862L141.527 99.5664L143.547 94.9728ZM158.385 92.3592L154.266 119.683L157.593 119.881L159.533 107.843L162.899 107.605L165.077 119.683L167.73 119.96L162.78 92.3592H158.385ZM159.85 106.1L161.196 98.2992L162.622 105.902L159.85 106.1Z" fill="white"/>
</g>
<defs>
<clipPath id="clip0_874_2452">
<rect width="180" height="180" fill="white"/>
</clipPath>
</defs>
</svg>
