<svg width="180" height="180" viewBox="0 0 180 180" fill="none" xmlns="http://www.w3.org/2000/svg">
<g clip-path="url(#clip0_874_2452)">
<rect width="180" height="180" fill="#9D4633"/>
<path d="M93.9262 50.1825L118.041 62.7458L135.517 85.2026L124.98 105.428L117.914 105.702L123.869 113.255L110.796 132.653L102.108 136.04L103.298 147.044L91.7738 155.875L68.1368 149.989L47.523 139.25L39.3552 134.995L37.956 113.002L48.1108 103.951L41.1752 96.3818L50.0911 79.2684L60.4715 80.2259L55.3596 69.156L60.6281 59.0435L93.9262 50.1825Z" fill="#58B748"/>
<path d="M97.2729 49.4534L100.446 43.3623C93.6438 25.3809 74.913 21.5569 65.5594 22.0518L66.6705 14.224C85.3932 13.428 97.7965 25.8904 104.116 36.3181L108.823 27.2838L133.846 32.4083L118.511 58.0457L97.2729 49.4534Z" fill="#242320"/>
<path fill-rule="evenodd" clip-rule="evenodd" d="M82.6615 46.8168C85.1213 44.5629 87.8743 40.9165 90.2327 36.3897C92.5911 31.8629 94.0019 27.5172 94.4395 24.2098C94.6598 22.5447 94.6134 21.2889 94.4186 20.4562C94.2714 19.8267 94.0922 19.6285 94.0426 19.5851C93.9786 19.5694 93.7135 19.5361 93.1132 19.7761C92.3192 20.0936 91.2635 20.7752 90.0251 21.9099C87.5652 24.1638 84.8123 27.8102 82.4539 32.337C80.0955 36.8638 78.6846 41.2094 78.247 44.5169C78.0268 46.182 78.0731 47.4378 78.2679 48.2704C78.4152 48.9 78.5944 49.0982 78.6439 49.1416C78.7079 49.1573 78.9731 49.1906 79.5734 48.9506C80.3674 48.6331 81.4231 47.9515 82.6615 46.8168ZM78.6281 49.1365C78.6282 49.1364 78.6306 49.1371 78.6353 49.1392C78.6304 49.1377 78.628 49.1367 78.6281 49.1365ZM78.6508 49.1473C78.6552 49.1499 78.6573 49.1515 78.6572 49.1517C78.6571 49.1518 78.6549 49.1505 78.6508 49.1473ZM94.0585 19.5902C94.0584 19.5903 94.0559 19.5896 94.0512 19.5874C94.0562 19.5889 94.0585 19.59 94.0585 19.5902ZM94.0358 19.5794C94.0313 19.5768 94.0293 19.5751 94.0294 19.575C94.0294 19.5749 94.0317 19.5762 94.0358 19.5794ZM77.4274 51.4767C80.8643 53.2673 87.6422 47.0569 92.5663 37.6055C97.4904 28.154 98.6961 19.0406 95.2592 17.25C91.8223 15.4594 85.0443 21.6697 80.1202 31.1212C75.1961 40.5726 73.9905 49.6861 77.4274 51.4767Z" fill="#242320"/>
<path d="M21.9115 56.1608L19.4563 52.8344H10.5463V80H13.5955L13.1995 68.4764L19.4563 68.2784L21.8719 65.348L21.9115 56.1608ZM18.8227 63.9224L17.3179 65.348L13.1203 65.5064L12.7639 55.3292H17.1595L18.9415 57.3884L18.8227 63.9224ZM42.5762 59.9228L37.6262 52.9532L30.6566 52.478L24.4394 59.5268L24.7562 73.3076L29.825 80.198L36.5174 80.1188L41.8238 73.1492L42.5762 59.9228ZM38.1806 72.6344L34.9334 77.2676L31.0922 77.1488L28.2014 72.674L27.5678 61.9028L32.399 55.4876L35.369 55.6064L38.4182 59.5268L38.1806 72.6344ZM63.2914 52.478L59.0542 52.9532L55.609 63.17L51.4114 52.7552L46.7782 52.9136L45.4714 79.9604L49.273 80.1584L49.3126 57.9032L53.3122 67.6448L56.2426 68.0012L60.0838 58.4972L60.4006 79.8812C60.4006 79.8812 63.925 79.8812 64.5586 79.8416L63.2914 52.478ZM78.1144 52.7552L67.858 52.9928L68.5312 80H78.7876L79.0252 76.7924L71.0656 77.228L70.9864 65.15L75.8968 64.8728L75.5008 62.6948L70.9468 63.2492L70.9072 55.8044L78.2728 56.3588L78.1144 52.7552ZM98.8153 56.5964L95.2909 53.1116L90.4201 52.3196L83.5693 55.2104L80.2825 65.6648L82.7377 77.0696L90.3409 80.6336L99.4093 77.9012L99.1321 68.7932L97.7857 67.2092L93.2713 66.8924V70.6148L96.4789 70.3772L96.2809 75.7232L90.7765 76.9904L85.8265 73.862L83.6089 65.9816L86.4997 57.23L92.8357 55.4084L96.4789 58.8932L98.8153 56.5964ZM106.621 68.3972L110.898 80.198L113.709 80L109.076 68.1596L111.69 68.12L113.709 65.3876V56.1608L111.294 52.874H102.74V80H105.829L105.472 68.4764L106.621 68.3972ZM104.997 55.2896H109.393L111.175 57.3884L111.056 63.8828L109.551 65.3876L105.354 65.546L104.997 55.2896ZM119.693 52.3592L115.575 79.6832L118.901 79.8812L120.842 67.8428L124.208 67.6052L126.386 79.6832L129.039 79.9604L124.089 52.3592H119.693ZM121.159 66.1004L122.505 58.2992L123.931 65.9024L121.159 66.1004ZM134.273 52.3592L130.154 79.6832L133.481 79.8812L135.421 67.8428L138.787 67.6052L140.965 79.6832L143.618 79.9604L138.668 52.3592L134.273 52.3592ZM135.738 66.1004L137.084 58.2992L138.51 65.9024L135.738 66.1004ZM158.088 52.3988L142.367 53.3096L142.526 55.5272L148.584 55.5272L148.07 80.2772L151.475 79.802L152.663 55.5272L157.93 55.6064L158.088 52.3988ZM170.85 52.7552L160.593 52.9928L161.266 80H171.523L171.76 76.7924L163.801 77.228L163.722 65.15L168.632 64.8728L168.236 62.6948L163.682 63.2492L163.642 55.8044L171.008 56.3588L170.85 52.7552ZM55.9824 92.478L51.7452 92.9532L48.3 103.17L44.1024 92.7552L39.4692 92.9136L38.1624 119.96L41.964 120.158L42.0036 97.9032L46.0032 107.645L48.9336 108.001L52.7748 98.4972L53.0916 119.881C53.0916 119.881 56.616 119.881 57.2496 119.842L55.9824 92.478ZM68.3106 95.4876L68.6274 92.7552L59.361 92.9532L59.5986 95.0124L62.2122 95.1708L62.727 118.06L60.1134 118.218L60.4302 120.119L67.9542 120.04L68.3898 117.624L65.4594 117.862L65.895 95.3688L68.3106 95.4876ZM88.5441 92.478L84.3069 92.9532L80.8617 103.17L76.6641 92.7552L72.0309 92.9136L70.7241 119.96L74.5257 120.158L74.5653 97.9032L78.5649 107.645L81.4953 108.001L85.3365 98.4972L85.6533 119.881C85.6533 119.881 89.1777 119.881 89.8113 119.842L88.5441 92.478ZM110.02 99.9228L105.07 92.9532L98.1004 92.478L91.8832 99.5268L92.2 113.308L97.2688 120.198L103.961 120.119L109.268 113.149L110.02 99.9228ZM105.624 112.634L102.377 117.268L98.536 117.149L95.6452 112.674L95.0116 101.903L99.8428 95.4876L102.813 95.6064L105.862 99.5268L105.624 112.634ZM118.004 94.9728L122.954 97.4676L125.132 94.7352L120.895 92.3196L114.242 93.6264L112.738 101.23L123.232 111.09L121.766 117.268L117.173 116.832L114.718 113.149L112.302 116.159L115.549 119.921L124.222 120.04L127.152 109.862L115.985 99.5664L118.004 94.9728ZM132.842 92.3592L128.724 119.683L132.05 119.881L133.99 107.843L137.356 107.605L139.534 119.683L142.188 119.96L137.238 92.3592H132.842ZM134.307 106.1L135.654 98.2992L137.079 105.902L134.307 106.1Z" fill="white"/>
</g>
<defs>
<clipPath id="clip0_874_2452">
<rect width="180" height="180" fill="white"/>
</clipPath>
</defs>
</svg>
