<svg width="180" height="180" viewBox="0 0 180 180" fill="none" xmlns="http://www.w3.org/2000/svg">
<g clip-path="url(#clip0_874_2351)">
<rect width="180" height="180" fill="#421D40"/>
<path d="M67.799 78.6299C57.9021 97.2421 58.3571 116.838 68.8153 122.4C79.2736 127.961 95.7748 117.381 105.672 98.7687C115.569 80.1565 115.114 60.5602 104.655 54.999C94.1972 49.4378 77.696 60.0178 67.799 78.6299Z" fill="#CC2BA9"/>
<path d="M126.847 51.9781L112.646 67.0706L88.5387 94.599C128.019 107.688 126.075 136.791 120.168 149.707C168.9 146.636 172.638 106.519 168.416 86.8451C168.479 103.759 135.401 86.9928 125.02 79.4147C116.716 73.3522 122.778 58.5976 126.847 51.9781Z" fill="#CC2BA9"/>
<path d="M95.0726 35.0815L90.5002 55.294L81.1566 90.6729C48.2296 65.2593 25.1881 83.144 17.7832 95.263C-6.9191 53.1434 24.2501 27.6136 42.9224 20.1137C28.8641 29.5182 61.2601 47.5682 73.3469 51.9367C83.0163 55.4316 91.8596 42.1561 95.0726 35.0815Z" fill="#CC2BA9"/>
<path d="M44.9571 70.1776C49.6563 69.43 50.9379 65.6208 50.9379 62.4524C50.9379 59.3908 49.7275 56.5072 44.8147 56.5072H42.9991L42.1091 57.7176L42.0735 81L45.2063 80.6796L44.9571 70.1776ZM48.5883 62.8796C48.5883 65.4784 47.3067 67.4364 44.9215 68.1128L44.8147 58.7144C47.3779 58.9636 48.5883 60.4944 48.5883 62.8796ZM68.4345 62.9508L63.9845 56.6852L57.7189 56.258L52.1297 62.5948L52.4145 74.9836L56.9713 81.178L62.9877 81.1068L67.7581 74.8412L68.4345 62.9508ZM64.4829 74.3784L61.5637 78.5436L58.1105 78.4368L55.5117 74.414L54.9421 64.7308L59.2853 58.9636L61.9553 59.0704L64.6965 62.5948L64.4829 74.3784ZM81.8067 59.5688L79.5995 56.5784H71.5895V81H74.3307L73.9747 70.6404L79.5995 70.4624L81.7711 67.828L81.8067 59.5688ZM79.0299 66.5464L77.6771 67.828L73.9035 67.9704L73.5831 58.8212H77.5347L79.1367 60.6724L79.0299 66.5464ZM95.1064 73.4884L93.4332 77.4044L88.8764 77.796L86.3488 73.5596L87.0252 56.4004L83.4652 56.1868L83.1092 75.6244L86.5268 80.9288L95.1776 81.1424L98.3816 76.016L99.0224 56.4004L94.6792 56.5784L95.1064 73.4884ZM112.219 77.3688L105.455 78.2232L106.203 56.7564L102.322 56.4004L102.714 81.1424L112.646 81.2492L112.219 77.3688ZM117.98 56.1512L114.278 80.7152L117.268 80.8932L119.013 70.0708L122.039 69.8572L123.997 80.7152L126.382 80.9644L121.932 56.1512H117.98ZM119.298 68.5044L120.508 61.4912L121.79 68.3264L119.298 68.5044ZM132.511 70.5692L136.356 81.178L138.884 81L134.718 70.3556L137.068 70.32L138.884 67.8636V59.5688L136.712 56.614L129.022 56.614V81H131.799L131.479 70.6404L132.511 70.5692ZM131.052 58.7856H135.003L136.605 60.6724L136.498 66.5108L135.146 67.8636L131.372 68.006L131.052 58.7856ZM68.647 92.614L64.6954 92.436L65.3718 110.058L58.5722 92.436H54.763L55.119 117.036L58.4654 116.964L57.9314 97.9896L65.2294 116.964H68.0418L68.647 92.614ZM79.8882 94.9636L80.173 92.5072L71.8426 92.6852L72.0562 94.5364L74.4058 94.6788L74.8686 115.256L72.519 115.398L72.8038 117.107L79.5678 117.036L79.9594 114.864L77.325 115.078L77.7166 94.8568L79.8882 94.9636ZM97.4729 95.9604L94.3045 92.8276L89.9257 92.1156L83.7669 94.7144L80.8121 104.113L83.0193 114.366L89.8545 117.57L98.0069 115.113L97.7577 106.925L96.5473 105.501L92.4889 105.216V108.563L95.3725 108.349L95.1945 113.155L90.2461 114.294L85.7961 111.482L83.8025 104.398L86.4013 96.53L92.0973 94.8924L95.3725 98.0252L97.4729 95.9604ZM101.962 117.071H103.707L103.351 103.543H107.73L107.943 117.071H110.791L109.937 92.4004H107.587L107.73 101.799L103.315 102.119L103.066 92.4004H101.001L101.962 117.071ZM127.257 92.1868L113.124 93.0056L113.267 94.9992H118.713L118.251 117.249L121.312 116.822L122.38 94.9992L127.115 95.0704L127.257 92.1868Z" fill="white"/>
</g>
<defs>
<clipPath id="clip0_874_2351">
<rect width="180" height="180" fill="white"/>
</clipPath>
</defs>
</svg>
