<svg width="180" height="180" viewBox="0 0 180 180" fill="none" xmlns="http://www.w3.org/2000/svg">
<g clip-path="url(#clip0_874_2351)">
<rect width="180" height="180" fill="#421D40"/>
<path d="M67.799 78.6299C57.9021 97.2421 58.3571 116.838 68.8153 122.4C79.2736 127.961 95.7748 117.381 105.672 98.7687C115.569 80.1565 115.114 60.5602 104.655 54.999C94.1972 49.4378 77.696 60.0178 67.799 78.6299Z" fill="#CC2BA9"/>
<path d="M126.847 51.9781L112.646 67.0706L88.5387 94.599C128.019 107.688 126.075 136.791 120.168 149.707C168.9 146.636 172.638 106.519 168.416 86.8451C168.479 103.759 135.401 86.9928 125.02 79.4147C116.716 73.3522 122.778 58.5976 126.847 51.9781Z" fill="#CC2BA9"/>
<path d="M95.0726 35.0815L90.5002 55.294L81.1566 90.6729C48.2296 65.2593 25.1881 83.144 17.7832 95.263C-6.9191 53.1434 24.2501 27.6136 42.9224 20.1137C28.8641 29.5182 61.2601 47.5682 73.3469 51.9367C83.0163 55.4316 91.8596 42.1561 95.0726 35.0815Z" fill="#CC2BA9"/>
<path d="M51.0739 59.5688L48.8667 56.5784H40.8567V81H43.5979L43.2419 70.6404L48.8667 70.4624L51.0383 67.828L51.0739 59.5688ZM48.2971 66.5464L46.9443 67.828L43.1707 67.9704L42.8503 58.8212H46.8019L48.4039 60.6724L48.2971 66.5464ZM69.6513 62.9508L65.2013 56.6852L58.9357 56.258L53.3465 62.5948L53.6313 74.9836L58.1881 81.178L64.2045 81.1068L68.9749 74.8412L69.6513 62.9508ZM65.6997 74.3784L62.7805 78.5436L59.3273 78.4368L56.7285 74.414L56.1589 64.7308L60.5021 58.9636L63.1721 59.0704L65.9133 62.5948L65.6997 74.3784ZM83.0235 59.5688L80.8163 56.5784H72.8063V81H75.5475L75.1915 70.6404L80.8163 70.4624L82.9879 67.828L83.0235 59.5688ZM80.2467 66.5464L78.8939 67.828L75.1203 67.9704L74.7999 58.8212H78.7515L80.3535 60.6724L80.2467 66.5464ZM96.3232 73.4884L94.65 77.4044L90.0932 77.796L87.5656 73.5596L88.242 56.4004L84.682 56.1868L84.326 75.6244L87.7436 80.9288L96.3944 81.1424L99.5984 76.016L100.239 56.4004L95.896 56.5784L96.3232 73.4884ZM113.436 77.3688L106.672 78.2232L107.42 56.7564L103.539 56.4004L103.931 81.1424L113.863 81.2492L113.436 77.3688ZM119.197 56.1512L115.495 80.7152L118.485 80.8932L120.23 70.0708L123.256 69.8572L125.214 80.7152L127.599 80.9644L123.149 56.1512H119.197ZM120.514 68.5044L121.725 61.4912L123.006 68.3264L120.514 68.5044ZM133.728 70.5692L137.573 81.178L140.1 81L135.935 70.3556L138.285 70.32L140.1 67.8636V59.5688L137.929 56.614L130.239 56.614V81H133.016L132.696 70.6404L133.728 70.5692ZM132.268 58.7856H136.22L137.822 60.6724L137.715 66.5108L136.362 67.8636L132.589 68.006L132.268 58.7856ZM68.647 92.614L64.6954 92.436L65.3718 110.058L58.5722 92.436H54.763L55.119 117.036L58.4654 116.964L57.9314 97.9896L65.2294 116.964H68.0418L68.647 92.614ZM79.8882 94.9636L80.173 92.5072L71.8426 92.6852L72.0562 94.5364L74.4058 94.6788L74.8686 115.256L72.519 115.398L72.8038 117.107L79.5678 117.036L79.9594 114.864L77.325 115.078L77.7166 94.8568L79.8882 94.9636ZM97.4729 95.9604L94.3045 92.8276L89.9257 92.1156L83.7669 94.7144L80.8121 104.113L83.0193 114.366L89.8545 117.57L98.0069 115.113L97.7577 106.925L96.5473 105.501L92.4889 105.216V108.563L95.3725 108.349L95.1945 113.155L90.2461 114.294L85.7961 111.482L83.8025 104.398L86.4013 96.53L92.0973 94.8924L95.3725 98.0252L97.4729 95.9604ZM101.962 117.071H103.707L103.351 103.543H107.73L107.943 117.071H110.791L109.937 92.4004H107.587L107.73 101.799L103.315 102.119L103.066 92.4004H101.001L101.962 117.071ZM127.257 92.1868L113.124 93.0056L113.267 94.9992H118.713L118.251 117.249L121.312 116.822L122.38 94.9992L127.115 95.0704L127.257 92.1868Z" fill="white"/>
</g>
<defs>
<clipPath id="clip0_874_2351">
<rect width="180" height="180" fill="white"/>
</clipPath>
</defs>
</svg>
