<svg width="180" height="180" viewBox="0 0 180 180" fill="none" xmlns="http://www.w3.org/2000/svg">
<g clip-path="url(#clip0_874_2642)">
<rect width="180" height="180" fill="#FF843F"/>
<path d="M127 135L157 41.5H148L116 137.5L137.5 162.5L143.5 155.5L127 135Z" fill="#C3612A"/>
<path d="M62.5 58L9.5 90L4.5 165L36 185H42.5L13 160V96.5L46 147L102 106L96 76H107L128.5 96.5L174 61.5L143.5 17L102 44.5L99 61.5L88.5 67.5L62.5 58Z" fill="#C4612A"/>
<path d="M49 132L24.5 90.5L65 67.5L90.5 105L49 132Z" fill="#934F28"/>
<path d="M129.045 81L109 46.8992L142.136 28L163 58.814L129.045 81Z" fill="#934F28"/>
<path d="M47.6178 59.5688L45.4106 56.5784H37.4006V81H40.1418L39.7858 70.6404L45.4106 70.4624L47.5822 67.828L47.6178 59.5688ZM44.841 66.5464L43.4882 67.828L39.7146 67.9704L39.3942 58.8212H43.3458L44.9478 60.6724L44.841 66.5464ZM60.9175 73.4884L59.2443 77.4044L54.6875 77.796L52.1599 73.5596L52.8363 56.4004L49.2763 56.1868L48.9203 75.6244L52.3379 80.9288L60.9887 81.1424L64.1927 76.016L64.8335 56.4004L60.4903 56.5784L60.9175 73.4884ZM82.8362 56.258L79.027 56.6852L75.9298 65.87L72.1562 56.5072L67.991 56.6496L66.8162 80.9644L70.2338 81.1424L70.2694 61.1352L73.865 69.8928L76.4994 70.2132L79.9526 61.6692L80.2374 80.8932C80.2374 80.8932 83.4058 80.8932 83.9754 80.8576L82.8362 56.258ZM97.1588 59.5688L94.9516 56.5784H86.9416V81H89.6828L89.3268 70.6404L94.9516 70.4624L97.1232 67.828L97.1588 59.5688ZM94.382 66.5464L93.0292 67.828L89.2556 67.9704L88.9352 58.8212H92.8868L94.4888 60.6724L94.382 66.5464ZM99.7785 56.5072L99.4225 81.0712L102.876 81.0356L102.982 70.498L104.727 68.8248L114.766 81.6052L117.365 79.7896L107.005 67.116L115.514 58.8568L113.52 56.7564L103.018 67.2584L103.125 56.7208L99.7785 56.5072ZM125.417 58.9636L125.702 56.5072L117.371 56.6852L117.585 58.5364L119.934 58.6788L120.397 79.2556L118.048 79.398L118.332 81.1068L125.096 81.0356L125.488 78.864L122.854 79.0776L123.245 58.8568L125.417 58.9636ZM142.788 56.614L138.836 56.436L139.513 74.058L132.713 56.436H128.904L129.26 81.0356L132.606 80.9644L132.072 61.9896L139.37 80.9644H142.183L142.788 56.614ZM45.301 98.9508L40.851 92.6852L34.5854 92.258L28.9962 98.5948L29.281 110.984L33.8378 117.178L39.8542 117.107L44.6246 110.841L45.301 98.9508ZM41.3494 110.378L38.4302 114.544L34.977 114.437L32.3782 110.414L31.8086 100.731L36.1518 94.9636L38.8218 95.0704L41.563 98.5948L41.3494 110.378ZM58.3529 113.369L51.5889 114.223L52.3365 92.7564L48.4561 92.4004L48.8477 117.142L58.7801 117.249L58.3529 113.369ZM61.4006 117.178L72.2586 116.786L76.9578 111.233L77.4918 99.9832L71.689 92.8988L60.9022 92.5072L61.4006 117.178ZM72.6502 109.702L70.0158 113.725L64.6402 113.938L64.9606 95.3908L69.731 95.2484L73.3266 101.229L72.6502 109.702ZM89.1088 92.7564L88.6104 116.964L92.028 116.715L91.7076 104.54L95.8372 104.647L95.944 102.618L91.672 102.938L91.5296 96.0316L97.4748 95.3908L97.2256 92.2936L89.1088 92.7564ZM103.085 106.569L106.93 117.178L109.458 117L105.292 106.356L107.642 106.32L109.458 103.864V95.5688L107.286 92.614H99.5963V117H102.373L102.053 106.64L103.085 106.569ZM101.626 94.7856H105.577L107.179 96.6724L107.072 102.511L105.72 103.864L101.946 104.006L101.626 94.7856ZM121.993 92.5072L112.772 92.7208L113.378 117H122.598L122.812 114.116L115.656 114.508L115.585 103.65L119.999 103.401L119.643 101.443L115.549 101.941L115.514 95.2484L122.135 95.7468L121.993 92.5072ZM129.033 94.5008L133.483 96.7436L135.441 94.2872L131.632 92.1156L125.651 93.2904L124.298 100.126L133.732 108.99L132.415 114.544L128.285 114.152L126.078 110.841L123.906 113.547L126.826 116.929L134.622 117.036L137.256 107.886L127.217 98.6304L129.033 94.5008ZM141.268 117.071H143.012L142.656 103.543H147.035L147.249 117.071H150.097L149.242 92.4004H146.893L147.035 101.799L142.621 102.119L142.372 92.4004H140.307L141.268 117.071Z" fill="white"/>
</g>
<defs>
<clipPath id="clip0_874_2642">
<rect width="180" height="180" fill="white"/>
</clipPath>
</defs>
</svg>
