<svg width="180" height="180" viewBox="0 0 180 180" fill="none" xmlns="http://www.w3.org/2000/svg">
<g clip-path="url(#clip0_874_2642)">
<rect width="180" height="180" fill="#FF843F"/>
<path d="M127 135L157 41.5H148L116 137.5L137.5 162.5L143.5 155.5L127 135Z" fill="#C3612A"/>
<path d="M62.5 58L9.5 90L4.5 165L36 185H42.5L13 160V96.5L46 147L102 106L96 76H107L128.5 96.5L174 61.5L143.5 17L102 44.5L99 61.5L88.5 67.5L62.5 58Z" fill="#C4612A"/>
<path d="M49 132L24.5 90.5L65 67.5L90.5 105L49 132Z" fill="#934F28"/>
<path d="M129.045 81L109 46.8992L142.136 28L163 58.814L129.045 81Z" fill="#934F28"/>
<path d="M5.74455 70.1776C10.4438 69.43 11.7254 65.6208 11.7254 62.4524C11.7254 59.3908 10.515 56.5072 5.60215 56.5072H3.78655L2.89655 57.7176L2.86095 81L5.99375 80.6796L5.74455 70.1776ZM9.37575 62.8796C9.37575 65.4784 8.09415 67.4364 5.70895 68.1128L5.60215 58.7144C8.16535 58.9636 9.37575 60.4944 9.37575 62.8796ZM25.0567 73.4884L23.3835 77.4044L18.8267 77.796L16.2991 73.5596L16.9755 56.4004L13.4155 56.1868L13.0595 75.6244L16.4771 80.9288L25.1279 81.1424L28.3319 76.016L28.9727 56.4004L24.6295 56.5784L25.0567 73.4884ZM46.9755 56.258L43.1663 56.6852L40.0691 65.87L36.2955 56.5072L32.1303 56.6496L30.9555 80.9644L34.3731 81.1424L34.4087 61.1352L38.0043 69.8928L40.6387 70.2132L44.0919 61.6692L44.3767 80.8932C44.3767 80.8932 47.5451 80.8932 48.1147 80.8576L46.9755 56.258ZM61.2981 59.5688L59.0909 56.5784H51.0809V81H53.8221L53.4661 70.6404L59.0909 70.4624L61.2625 67.828L61.2981 59.5688ZM58.5213 66.5464L57.1685 67.828L53.3949 67.9704L53.0745 58.8212H57.0261L58.6281 60.6724L58.5213 66.5464ZM63.9177 56.5072L63.5617 81.0712L67.0149 81.0356L67.1217 70.498L68.8661 68.8248L78.9053 81.6052L81.5041 79.7896L71.1445 67.116L79.6529 58.8568L77.6593 56.7564L67.1573 67.2584L67.2641 56.7208L63.9177 56.5072ZM89.5561 58.9636L89.8409 56.5072L81.5105 56.6852L81.7241 58.5364L84.0737 58.6788L84.5365 79.2556L82.1869 79.398L82.4717 81.1068L89.2357 81.0356L89.6273 78.864L86.9929 79.0776L87.3845 58.8568L89.5561 58.9636ZM106.927 56.614L102.975 56.436L103.652 74.058L96.8522 56.436H93.043L93.399 81.0356L96.7454 80.9644L96.2114 61.9896L103.509 80.9644H106.322L106.927 56.614ZM134.353 62.9508L129.903 56.6852L123.638 56.258L118.048 62.5948L118.333 74.9836L122.89 81.178L128.906 81.1068L133.677 74.8412L134.353 62.9508ZM130.402 74.3784L127.482 78.5436L124.029 78.4368L121.43 74.414L120.861 64.7308L125.204 58.9636L127.874 59.0704L130.615 62.5948L130.402 74.3784ZM147.405 77.3688L140.641 78.2232L141.389 56.7564L137.508 56.4004L137.9 81.1424L147.832 81.2492L147.405 77.3688ZM150.453 81.178L161.311 80.7864L166.01 75.2328L166.544 63.9832L160.741 56.8988L149.954 56.5072L150.453 81.178ZM161.702 73.702L159.068 77.7248L153.692 77.9384L154.013 59.3908L158.783 59.2484L162.379 65.2292L161.702 73.702ZM169.345 69.3232L177.32 69.9996L177.676 67.1872H169.345V69.3232ZM17.648 92.7564L17.1496 116.964L20.5672 116.715L20.2468 104.54L24.3764 104.647L24.4832 102.618L20.2112 102.938L20.0688 96.0316L26.014 95.3908L25.7648 92.2936L17.648 92.7564ZM30.2004 92.1512L26.498 116.715L29.4884 116.893L31.2328 106.071L34.2588 105.857L36.2168 116.715L38.602 116.964L34.152 92.1512H30.2004ZM31.5176 104.504L32.728 97.4912L34.0096 104.326L31.5176 104.504ZM45.265 94.5008L49.715 96.7436L51.673 94.2872L47.8638 92.1156L41.883 93.2904L40.5302 100.126L49.9642 108.99L48.647 114.544L44.5174 114.152L42.3102 110.841L40.1386 113.547L43.0578 116.929L50.8542 117.036L53.4886 107.886L43.4494 98.6304L45.265 94.5008ZM57.5003 117.071H59.2447L58.8887 103.543H63.2675L63.4811 117.071H66.3291L65.4747 92.4004H63.1251L63.2675 101.799L58.8531 102.119L58.6039 92.4004H56.5391L57.5003 117.071ZM77.562 94.9636L77.8468 92.5072L69.5164 92.6852L69.73 94.5364L72.0796 94.6788L72.5424 115.256L70.1928 115.398L70.4776 117.107L77.2416 117.036L77.6332 114.864L74.9988 115.078L75.3904 94.8568L77.562 94.9636ZM95.8676 98.9508L91.4176 92.6852L85.152 92.258L79.5628 98.5948L79.8476 110.984L84.4044 117.178L90.4208 117.107L95.1912 110.841L95.8676 98.9508ZM91.916 110.378L88.9968 114.544L85.5436 114.437L82.9448 110.414L82.3752 100.731L86.7184 94.9636L89.3884 95.0704L92.1296 98.5948L91.916 110.378ZM112.907 92.614L108.955 92.436L109.631 110.058L102.832 92.436H99.0227L99.3787 117.036L102.725 116.964L102.191 97.9896L109.489 116.964H112.301L112.907 92.614ZM131.054 92.614L127.103 92.436L127.779 110.058L120.98 92.436H117.17L117.526 117.036L120.873 116.964L120.339 97.9896L127.637 116.964H130.449L131.054 92.614ZM144.538 92.5072L135.318 92.7208L135.923 117H145.144L145.357 114.116L138.202 114.508L138.13 103.65L142.545 103.401L142.189 101.443L138.095 101.941L138.059 95.2484L144.681 95.7468L144.538 92.5072ZM148.054 117.178L158.912 116.786L163.611 111.233L164.145 99.9832L158.342 92.8988L147.555 92.5072L148.054 117.178ZM159.303 109.702L156.669 113.725L151.293 113.938L151.614 95.3908L156.384 95.2484L159.98 101.229L159.303 109.702Z" fill="white"/>
</g>
<defs>
<clipPath id="clip0_874_2642">
<rect width="180" height="180" fill="white"/>
</clipPath>
</defs>
</svg>
