<svg width="180" height="180" viewBox="0 0 180 180" fill="none" xmlns="http://www.w3.org/2000/svg">
<g clip-path="url(#clip0_874_2543)">
<rect width="180" height="180" fill="#1E6CA5"/>
<path fill-rule="evenodd" clip-rule="evenodd" d="M140.515 18.5737C142.019 17.4111 143.785 17.322 145.882 18.4108C148.077 19.5501 150.412 21.9222 152.289 25.2093C156.053 31.8014 157.425 41.0447 153.113 48.6291C148.064 57.5098 146.284 65.2506 146.742 71.7989C147.202 78.3658 149.901 83.5428 153.463 87.2655C154.528 88.3779 155.4 90.4988 155.754 93.2612C156.099 95.9591 155.899 98.8845 155.199 101.268C154.469 103.755 153.375 105.1 152.393 105.541C151.926 105.75 151.147 105.892 149.953 105.416C142.481 87.7185 131.792 57.5273 131.589 40.9238C131.619 40.4258 131.666 39.8736 131.734 39.2702C131.965 37.2251 132.408 34.7965 133.081 32.2947C133.205 32.0598 133.337 31.8367 133.478 31.6258C133.391 31.6853 133.303 31.7452 133.215 31.8053C133.218 31.795 133.221 31.7846 133.224 31.7742C134.771 26.2609 137.265 21.0864 140.515 18.5737ZM127.163 35.939C127.464 34.1898 127.878 32.3172 128.41 30.4231C130.021 24.6846 132.872 18.1623 137.457 14.6179C140.851 11.9949 144.788 12.2093 148.186 13.973C151.486 15.6862 154.44 18.8939 156.631 22.7299C161.002 30.3842 162.883 41.561 157.459 51.1003C152.773 59.3432 151.357 66.1082 151.73 71.4499C152.103 76.7729 154.264 80.8703 157.075 83.8084C159.198 86.0264 160.297 89.3764 160.713 92.6255C161.138 95.9391 160.909 99.5658 159.997 102.675C159.115 105.681 157.415 108.769 154.438 110.103C151.751 111.308 148.806 110.771 145.869 108.885C126.236 108.639 85.8973 127.89 63.6862 140.038C62.4012 142.348 60.7364 144.763 58.8429 147.103C55.4514 151.292 51.159 155.446 46.5771 158.539C42.0454 161.597 36.9476 163.808 32.016 163.644C26.8385 163.472 22.3119 160.702 19.194 154.846C16.2788 149.371 15.4447 144.933 16.2486 141.078C17.045 137.258 19.3609 134.485 21.6467 132.195C22.4043 131.436 23.1511 130.726 23.8704 130.041C27.749 126.349 30.8306 123.416 30.5132 117.781C30.3372 114.655 28.6282 111.991 25.886 109.544C23.1213 107.076 19.5732 105.065 16.1847 103.212C15.9665 103.093 15.7482 102.974 15.5306 102.855L15.5284 102.854L15.5281 102.854L15.528 102.854C14.1018 102.076 12.7028 101.313 11.5024 100.579C10.1562 99.7564 8.80549 98.8236 7.88209 97.7527C6.90475 96.6192 6.06732 94.8809 6.89084 92.8926C7.56298 91.2698 9.13309 90.1293 10.8148 89.2339C16.5882 86.1599 23.0142 86.1156 28.5017 87.1574C30.4119 87.52 32.2414 88.02 33.9347 88.5912C63.2094 78.9156 104.519 51.3716 127.163 35.939ZM54.9565 143.957C57.226 141.153 58.9935 138.409 60.1115 136.077C58.0297 122.086 44.5073 104.675 34.6386 94.1885C32.581 93.3438 30.1576 92.561 27.5692 92.0696C22.7248 91.15 17.5753 91.2989 13.1646 93.6473C12.3959 94.0566 11.9714 94.3727 11.745 94.5724C12.1471 95.0032 12.8998 95.5733 14.1096 96.3126C15.1967 96.9768 16.4733 97.6735 17.9133 98.4594C18.133 98.5793 18.3565 98.7013 18.5837 98.8256C21.9276 100.654 25.9644 102.912 29.2154 105.813C32.4887 108.735 35.2261 112.541 35.5053 117.5C35.9637 125.64 30.9426 130.321 27.0166 133.981L27.0163 133.982L27.0159 133.982C26.3657 134.588 25.7457 135.166 25.1855 135.728C23.0785 137.839 21.6332 139.749 21.1433 142.098C20.6609 144.412 21.0155 147.628 23.6074 152.496C25.9968 156.984 29.0178 158.542 32.1818 158.647C35.5916 158.76 39.6292 157.196 43.7799 154.394C47.8805 151.627 51.8178 147.834 54.9565 143.957Z" fill="#71C3FF"/>
<path d="M16.8716 92.9124L21.3928 99.0712L26.5192 99.1424L29.8656 102.952L32.144 101.243L28.2992 97.3268L31.2896 93.0192L31.5744 80.7728L26.3056 74.5072L20.4316 74.8988L16.302 81.0932L16.8716 92.9124ZM19.7908 80.7728L22.3184 77.2484L24.8816 77.1416L28.94 82.8732L28.4416 92.4496L26.5192 95.5112L24.3476 93.2684L22.4608 94.4788L24.2052 96.508L22.7456 96.5436L20.0044 92.414L19.7908 80.7728ZM46.3823 91.4884L44.7092 95.4044L40.1524 95.796L37.6248 91.5596L38.3012 74.4004L34.7412 74.1868L34.3851 93.6244L37.8028 98.9288L46.4535 99.1424L49.6575 94.016L50.2983 74.4004L45.9551 74.5784L46.3823 91.4884ZM55.6631 74.1512L51.9607 98.7152L54.9511 98.8932L56.6955 88.0708L59.7215 87.8572L61.6795 98.7152L64.0647 98.9644L59.6147 74.1512H55.6631ZM56.9803 86.5044L58.1907 79.4912L59.4723 86.3264L56.9803 86.5044ZM70.1937 88.5692L74.0385 99.178L76.5661 99L72.4009 88.3556L74.7505 88.32L76.5661 85.8636V77.5688L74.3945 74.614H66.7049V99H69.4817L69.1613 88.6404L70.1937 88.5692ZM68.7341 76.7856H72.6857L74.2877 78.6724L74.1809 84.5108L72.8281 85.8636L69.0545 86.006L68.7341 76.7856ZM81.9459 74.1512L78.2435 98.7152L81.2339 98.8932L82.9783 88.0708L86.0043 87.8572L87.9623 98.7152L90.3475 98.9644L85.8975 74.1512H81.9459ZM83.2631 86.5044L84.4735 79.4912L85.7551 86.3264L83.2631 86.5044ZM106.872 74.614L102.92 74.436L103.597 92.058L96.797 74.436H92.9878L93.3438 99.0356L96.6902 98.9644L96.1562 79.9896L103.454 98.9644H106.267L106.872 74.614ZM123.346 74.1868L109.213 75.0056L109.355 76.9992H114.802L114.339 99.2492L117.401 98.822L118.469 76.9992L123.204 77.0704L123.346 74.1868ZM132.923 76.9636L133.208 74.5072L124.878 74.6852L125.091 76.5364L127.441 76.6788L127.904 97.2556L125.554 97.398L125.839 99.1068L132.603 99.0356L132.994 96.864L130.36 97.0776L130.752 76.8568L132.923 76.9636ZM150.294 74.614L146.342 74.436L147.019 92.058L140.219 74.436H136.41L136.766 99.0356L140.112 98.9644L139.578 79.9896L146.876 98.9644H149.689L150.294 74.614ZM163.778 74.5072L154.558 74.7208L155.163 99H164.383L164.597 96.1164L157.441 96.508L157.37 85.65L161.784 85.4008L161.428 83.4428L157.334 83.9412L157.299 77.2484L163.92 77.7468L163.778 74.5072Z" fill="white"/>
</g>
<defs>
<clipPath id="clip0_874_2543">
<rect width="180" height="180" fill="white"/>
</clipPath>
</defs>
</svg>
