<svg width="180" height="180" viewBox="0 0 180 180" fill="none" xmlns="http://www.w3.org/2000/svg">
<g clip-path="url(#clip0_874_2543)">
<rect width="180" height="180" fill="#1E6CA5"/>
<path fill-rule="evenodd" clip-rule="evenodd" d="M140.515 18.5737C142.019 17.4111 143.785 17.322 145.882 18.4108C148.077 19.5501 150.412 21.9222 152.289 25.2093C156.053 31.8014 157.425 41.0447 153.113 48.6291C148.064 57.5098 146.284 65.2506 146.742 71.7989C147.202 78.3658 149.901 83.5428 153.463 87.2655C154.528 88.3779 155.4 90.4988 155.754 93.2612C156.099 95.9591 155.899 98.8845 155.199 101.268C154.469 103.755 153.375 105.1 152.393 105.541C151.926 105.75 151.147 105.892 149.953 105.416C142.481 87.7185 131.792 57.5273 131.589 40.9238C131.619 40.4258 131.666 39.8736 131.734 39.2702C131.965 37.2251 132.408 34.7965 133.081 32.2947C133.205 32.0598 133.337 31.8367 133.478 31.6258C133.391 31.6853 133.303 31.7452 133.215 31.8053C133.218 31.795 133.221 31.7846 133.224 31.7742C134.771 26.2609 137.265 21.0864 140.515 18.5737ZM127.163 35.939C127.464 34.1898 127.878 32.3172 128.41 30.4231C130.021 24.6846 132.872 18.1623 137.457 14.6179C140.851 11.9949 144.788 12.2093 148.186 13.973C151.486 15.6862 154.44 18.8939 156.631 22.7299C161.002 30.3842 162.883 41.561 157.459 51.1003C152.773 59.3432 151.357 66.1082 151.73 71.4499C152.103 76.7729 154.264 80.8703 157.075 83.8084C159.198 86.0264 160.297 89.3764 160.713 92.6255C161.138 95.9391 160.909 99.5658 159.997 102.675C159.115 105.681 157.415 108.769 154.438 110.103C151.751 111.308 148.806 110.771 145.869 108.885C126.236 108.639 85.8973 127.89 63.6862 140.038C62.4012 142.348 60.7364 144.763 58.8429 147.103C55.4514 151.292 51.159 155.446 46.5771 158.539C42.0454 161.597 36.9476 163.808 32.016 163.644C26.8385 163.472 22.3119 160.702 19.194 154.846C16.2788 149.371 15.4447 144.933 16.2486 141.078C17.045 137.258 19.3609 134.485 21.6467 132.195C22.4043 131.436 23.1511 130.726 23.8704 130.041C27.749 126.349 30.8306 123.416 30.5132 117.781C30.3372 114.655 28.6282 111.991 25.886 109.544C23.1213 107.076 19.5732 105.065 16.1847 103.212C15.9665 103.093 15.7482 102.974 15.5306 102.855L15.5284 102.854L15.5281 102.854L15.528 102.854C14.1018 102.076 12.7028 101.313 11.5024 100.579C10.1562 99.7564 8.80549 98.8236 7.88209 97.7527C6.90475 96.6192 6.06732 94.8809 6.89084 92.8926C7.56298 91.2698 9.13309 90.1293 10.8148 89.2339C16.5882 86.1599 23.0142 86.1156 28.5017 87.1574C30.4119 87.52 32.2414 88.02 33.9347 88.5912C63.2094 78.9156 104.519 51.3716 127.163 35.939ZM54.9565 143.957C57.226 141.153 58.9935 138.409 60.1115 136.077C58.0297 122.086 44.5073 104.675 34.6386 94.1885C32.581 93.3438 30.1576 92.561 27.5692 92.0696C22.7248 91.15 17.5753 91.2989 13.1646 93.6473C12.3959 94.0566 11.9714 94.3727 11.745 94.5724C12.1471 95.0032 12.8998 95.5733 14.1096 96.3126C15.1967 96.9768 16.4733 97.6735 17.9133 98.4594C18.133 98.5793 18.3565 98.7013 18.5837 98.8256C21.9276 100.654 25.9644 102.912 29.2154 105.813C32.4887 108.735 35.2261 112.541 35.5053 117.5C35.9637 125.64 30.9426 130.321 27.0166 133.981L27.0163 133.982L27.0159 133.982C26.3657 134.588 25.7457 135.166 25.1855 135.728C23.0785 137.839 21.6332 139.749 21.1433 142.098C20.6609 144.412 21.0155 147.628 23.6074 152.496C25.9968 156.984 29.0178 158.542 32.1818 158.647C35.5916 158.76 39.6292 157.196 43.7799 154.394C47.8805 151.627 51.8178 147.834 54.9565 143.957Z" fill="#71C3FF"/>
<path d="M62.0256 59.8536C63.948 59.8536 66.262 60.4944 66.262 63.022C66.262 65.336 64.5532 67.8636 61.7052 67.8636L62.0256 59.8536ZM58.6792 56.4004C57.7536 77.5824 57.718 80.822 57.718 81.1068L61.0644 81.3204C64.9804 81.3204 68.932 79.4692 68.932 74.8412C68.932 71.9576 67.2588 69.3944 64.2328 68.896C67.5792 68.006 68.754 65.3716 68.754 62.9508C68.754 58.2872 64.7312 56.0444 58.6792 56.4004ZM61.7052 70.1064C64.3752 70.1064 66.1908 71.6728 66.1908 74.6276C66.1908 77.1908 64.482 78.7216 61.8832 78.7216C61.7408 78.7216 61.5628 78.686 61.3848 78.686L61.7052 70.1064ZM81.2966 56.5072L72.0762 56.7208L72.6814 81H81.9018L82.1154 78.1164L74.9598 78.508L74.8886 67.65L79.303 67.4008L78.947 65.4428L74.853 65.9412L74.8174 59.2484L81.439 59.7468L81.2966 56.5072ZM106.978 56.258L103.169 56.6852L100.071 65.87L96.2979 56.5072L92.1327 56.6496L90.9579 80.9644L94.3755 81.1424L94.4111 61.1352L98.0067 69.8928L100.641 70.2132L104.094 61.6692L104.379 80.8932C104.379 80.8932 107.547 80.8932 108.117 80.8576L106.978 56.258ZM120.304 56.4716L116.672 65.5852L112.329 56.614L109.303 56.792L115.426 68.8248L115.569 80.9644H119.271L118.915 68.896L124.042 56.7208L120.304 56.4716ZM16.8716 110.912L21.3928 117.071L26.5192 117.142L29.8656 120.952L32.144 119.243L28.2992 115.327L31.2896 111.019L31.5744 98.7728L26.3056 92.5072L20.4316 92.8988L16.302 99.0932L16.8716 110.912ZM19.7908 98.7728L22.3184 95.2484L24.8816 95.1416L28.94 100.873L28.4416 110.45L26.5192 113.511L24.3476 111.268L22.4608 112.479L24.2052 114.508L22.7456 114.544L20.0044 110.414L19.7908 98.7728ZM46.3823 109.488L44.7092 113.404L40.1524 113.796L37.6248 109.56L38.3012 92.4004L34.7412 92.1868L34.3851 111.624L37.8028 116.929L46.4535 117.142L49.6575 112.016L50.2983 92.4004L45.9551 92.5784L46.3823 109.488ZM55.6631 92.1512L51.9607 116.715L54.9511 116.893L56.6955 106.071L59.7215 105.857L61.6795 116.715L64.0647 116.964L59.6147 92.1512H55.6631ZM56.9803 104.504L58.1907 97.4912L59.4723 104.326L56.9803 104.504ZM70.1937 106.569L74.0385 117.178L76.5661 117L72.4009 106.356L74.7505 106.32L76.5661 103.864V95.5688L74.3945 92.614H66.7049V117H69.4817L69.1613 106.64L70.1937 106.569ZM68.7341 94.7856H72.6857L74.2877 96.6724L74.1809 102.511L72.8281 103.864L69.0545 104.006L68.7341 94.7856ZM81.9459 92.1512L78.2435 116.715L81.2339 116.893L82.9783 106.071L86.0043 105.857L87.9623 116.715L90.3475 116.964L85.8975 92.1512H81.9459ZM83.2631 104.504L84.4735 97.4912L85.7551 104.326L83.2631 104.504ZM106.872 92.614L102.92 92.436L103.597 110.058L96.797 92.436H92.9878L93.3438 117.036L96.6902 116.964L96.1562 97.9896L103.454 116.964H106.267L106.872 92.614ZM123.346 92.1868L109.213 93.0056L109.355 94.9992H114.802L114.339 117.249L117.401 116.822L118.469 94.9992L123.204 95.0704L123.346 92.1868ZM132.923 94.9636L133.208 92.5072L124.878 92.6852L125.091 94.5364L127.441 94.6788L127.904 115.256L125.554 115.398L125.839 117.107L132.603 117.036L132.994 114.864L130.36 115.078L130.752 94.8568L132.923 94.9636ZM150.294 92.614L146.342 92.436L147.019 110.058L140.219 92.436H136.41L136.766 117.036L140.112 116.964L139.578 97.9896L146.876 116.964H149.689L150.294 92.614ZM163.778 92.5072L154.558 92.7208L155.163 117H164.383L164.597 114.116L157.441 114.508L157.37 103.65L161.784 103.401L161.428 101.443L157.334 101.941L157.299 95.2484L163.92 95.7468L163.778 92.5072Z" fill="white"/>
</g>
<defs>
<clipPath id="clip0_874_2543">
<rect width="180" height="180" fill="white"/>
</clipPath>
</defs>
</svg>
