<svg width="180" height="180" viewBox="0 0 180 180" fill="none" xmlns="http://www.w3.org/2000/svg">
<g clip-path="url(#clip0_874_2789)">
<rect width="180" height="180" fill="#B842A5"/>
<path d="M87.6884 45.7546C92.3711 52.0734 93.6725 60.8171 87.3537 65.4999C81.0349 70.1827 73.9006 66.7464 69.2179 60.4276C64.5351 54.1088 65.9613 49.8428 72.2801 45.16C78.5989 40.4772 83.0056 39.4358 87.6884 45.7546Z" fill="#EE187F"/>
<path d="M92.5 52H44L89.9474 106.804L87.3947 170.529L60.5921 176.902V182H92.5H124.408V176.902L97.6053 170.529L95.0526 106.804L141 52H92.5Z" fill="#511AC0"/>
<path d="M35.1183 70.5692L38.9631 81.178L41.4907 81L37.3255 70.3556L39.6751 70.32L41.4907 67.8636V59.5688L39.3191 56.614H31.6295V81H34.4063L34.0859 70.6404L35.1183 70.5692ZM33.6587 58.7856H37.6103L39.2123 60.6724L39.1055 66.5108L37.7527 67.8636L33.9791 68.006L33.6587 58.7856ZM46.8705 56.1512L43.1681 80.7152L46.1585 80.8932L47.9029 70.0708L50.9289 69.8572L52.8869 80.7152L55.2721 80.9644L50.8221 56.1512H46.8705ZM48.1877 68.5044L49.3981 61.4912L50.6797 68.3264L48.1877 68.5044ZM61.9351 58.5008L66.3851 60.7436L68.3431 58.2872L64.5339 56.1156L58.5531 57.2904L57.2003 64.1256L66.6343 72.99L65.3171 78.5436L61.1875 78.152L58.9803 74.8412L56.8087 77.5468L59.7279 80.9288L67.5243 81.0356L70.1587 71.8864L60.1195 62.6304L61.9351 58.5008ZM82.6615 59.5688L80.4544 56.5784H72.4443V81H75.1855L74.8295 70.6404L80.4544 70.4624L82.6259 67.828L82.6615 59.5688ZM79.8848 66.5464L78.5319 67.828L74.7583 67.9704L74.4379 58.8212H78.3895L79.9915 60.6724L79.8848 66.5464ZM85.6728 56.4004L84.9252 81H93.754L96.3884 78.9352V69.2164L93.398 66.938L96.1748 60.2096L93.9676 56.5072L85.6728 56.4004ZM94.466 70.6048L94.288 77.2264L92.1876 78.7572L88.77 78.4368L88.8056 69.2164L92.0808 68.6824L94.466 70.6048ZM90.7992 66.8312L88.8056 67.2228L88.8412 58.6432L92.0452 58.6076L93.3624 60.5656L90.7992 66.8312ZM108.747 56.5072L99.5268 56.7208L100.132 81H109.352L109.566 78.1164L102.41 78.508L102.339 67.65L106.754 67.4008L106.398 65.4428L102.304 65.9412L102.268 59.2484L108.89 59.7468L108.747 56.5072ZM115.253 70.5692L119.098 81.178L121.625 81L117.46 70.3556L119.81 70.32L121.625 67.8636V59.5688L119.454 56.614H111.764V81H114.541L114.221 70.6404L115.253 70.5692ZM113.793 58.7856H117.745L119.347 60.6724L119.24 66.5108L117.887 67.8636L114.114 68.006L113.793 58.7856ZM128.429 70.5692L132.274 81.178L134.802 81L130.636 70.3556L132.986 70.32L134.802 67.8636V59.5688L132.63 56.614H124.94V81H127.717L127.397 70.6404L128.429 70.5692ZM126.97 58.7856H130.921L132.523 60.6724L132.416 66.5108L131.064 67.8636L127.29 68.006L126.97 58.7856ZM146.572 56.4716L142.941 65.5852L138.598 56.614L135.572 56.792L141.695 68.8248L141.837 80.9644H145.54L145.184 68.896L150.31 56.7208L146.572 56.4716ZM48.722 117.071H50.4664L50.1104 103.543H54.4892L54.7028 117.071H57.5508L56.6964 92.4004H54.3468L54.4892 101.799L50.0748 102.119L49.8256 92.4004H47.7608L48.722 117.071ZM77.0073 98.9508L72.5573 92.6852L66.2917 92.258L60.7025 98.5948L60.9873 110.984L65.5441 117.178L71.5605 117.107L76.3309 110.841L77.0073 98.9508ZM73.0557 110.378L70.1365 114.544L66.6833 114.437L64.0845 110.414L63.5149 100.731L67.8581 94.9636L70.5281 95.0704L73.2693 98.5948L73.0557 110.378ZM91.5807 109.488L89.9075 113.404L85.3507 113.796L82.8231 109.56L83.4995 92.4004L79.9395 92.1868L79.5835 111.624L83.0011 116.929L91.6519 117.142L94.8559 112.016L95.4967 92.4004L91.1535 92.5784L91.5807 109.488ZM112.681 92.614L108.729 92.436L109.405 110.058L102.606 92.436H98.7967L99.1527 117.036L102.499 116.964L101.965 97.9896L109.263 116.964H112.075L112.681 92.614ZM117.443 117.178L128.301 116.786L133 111.233L133.534 99.9832L127.731 92.8988L116.944 92.5072L117.443 117.178ZM128.692 109.702L126.058 113.725L120.682 113.938L121.003 95.3908L125.773 95.2484L129.369 101.229L128.692 109.702Z" fill="white"/>
<path d="M132.988 39.255C126.334 46.8391 115.722 50.8403 108.138 44.1859C100.554 37.5316 102.93 27.6545 109.584 20.0704C116.238 12.4862 121.974 13.1186 129.558 19.7729C137.143 26.4273 139.642 31.6708 132.988 39.255Z" fill="#EE187F"/>
<path d="M78.1007 -8.21864C87.4077 -4.32266 94.5768 4.46454 90.6808 13.7716C86.7848 23.0787 76.6651 23.9686 67.3581 20.0726C58.051 16.1766 56.8258 10.5377 60.7218 1.23063C64.6178 -8.07644 68.7936 -12.1146 78.1007 -8.21864Z" fill="#EE187F"/>
</g>
<defs>
<clipPath id="clip0_874_2789">
<rect width="180" height="180" fill="white"/>
</clipPath>
</defs>
</svg>
