<svg width="180" height="180" viewBox="0 0 180 180" fill="none" xmlns="http://www.w3.org/2000/svg">
<g clip-path="url(#clip0_874_2241)">
<rect width="180" height="180" fill="#4191CC"/>
<path d="M-13.5 114C39.7 151.6 118 103 150.5 74C77.3 103.2 53 31.8333 50 -7.5H-13.5V114Z" fill="#FF3F6D"/>
<path d="M101 119C120.667 103 161.6 69.1 168 61.5L205 92.5L177 193.5L101 119Z" fill="#FFBE3F"/>
<path d="M35.0649 39.408C35.0649 36.0816 33.7581 32.9532 28.4121 32.9532L25.7985 33.27L25.6797 59.9604L28.8477 59.604L28.5705 47.8032C29.0457 47.724 29.5209 47.6052 29.9169 47.4468L32.7681 59.9604L35.4213 59.8416L32.1345 46.2984C34.3521 44.5956 35.0649 41.8236 35.0649 39.408ZM28.5309 45.546L28.4121 35.3688C31.1841 35.646 32.5305 37.3092 32.5305 39.8832C32.5305 42.6948 31.1049 44.8332 28.5309 45.546ZM41.3956 32.3592L37.2772 59.6832L40.6036 59.8812L42.544 47.8428L45.91 47.6052L48.088 59.6832L50.7412 59.9604L45.7912 32.3592H41.3956ZM42.8608 46.1004L44.2072 38.2992L45.6328 45.9024L42.8608 46.1004ZM58.1529 34.9728L63.1029 37.4676L65.2809 34.7352L61.0437 32.3196L54.3909 33.6264L52.8861 41.2296L63.3801 51.09L61.9149 57.2676L57.3213 56.832L54.8661 53.1492L52.4505 56.1588L55.6977 59.9208L64.3701 60.0396L67.3005 49.8624L56.1333 39.5664L58.1529 34.9728ZM81.2081 36.1608L78.7529 32.8344H69.8429V60H72.8921L72.4961 48.4764L78.7529 48.2784L81.1685 45.348L81.2081 36.1608ZM78.1193 43.9224L76.6145 45.348L72.4169 45.5064L72.0605 35.3292H76.4561L78.2381 37.3884L78.1193 43.9224ZM84.5578 32.6364L83.7262 60H93.547L96.4774 57.7032V46.8924L93.1509 44.358L96.2397 36.8736L93.7845 32.7552L84.5578 32.6364ZM94.3389 48.4368L94.1409 55.8024L91.8045 57.5052L88.003 57.1488L88.0426 46.8924L91.6857 46.2984L94.3389 48.4368ZM90.2602 44.2392L88.0426 44.6748L88.0822 35.1312L91.6462 35.0916L93.1114 37.2696L90.2602 44.2392ZM110.225 32.7552L99.9683 32.9928L100.642 60H110.898L111.136 56.7924L103.176 57.228L103.097 45.15L108.007 44.8728L107.611 42.6948L103.057 43.2492L103.018 35.8044L110.383 36.3588L110.225 32.7552ZM117.462 48.3972L121.738 60.198L124.55 60L119.917 48.1596L122.53 48.12L124.55 45.3876V36.1608L122.134 32.874H113.581V60H116.67L116.313 48.4764L117.462 48.3972ZM115.838 35.2896H120.234L122.016 37.3884L121.897 43.8828L120.392 45.3876L116.194 45.546L115.838 35.2896ZM132.118 48.3972L136.395 60.198L139.207 60L134.573 48.1596L137.187 48.12L139.207 45.3876V36.1608L136.791 32.874L128.237 32.874V60H131.326L130.97 48.4764L132.118 48.3972ZM130.495 35.2896H134.89L136.672 37.3884L136.553 43.8828L135.049 45.3876L130.851 45.546L130.495 35.2896ZM152.3 32.7156L148.261 42.8532L143.429 32.874L140.063 33.072L146.875 46.4568L147.033 59.9604H151.151L150.755 46.536L156.458 32.9928L152.3 32.7156ZM64.2357 72.6364L63.4041 100H73.2249L76.1553 97.7032V86.8924L72.8289 84.358L75.9177 76.8736L73.4625 72.7552L64.2357 72.6364ZM74.0169 88.4368L73.8189 95.8024L71.4825 97.5052L67.6809 97.1488L67.7205 86.8924L71.3637 86.2984L74.0169 88.4368ZM69.9381 84.2392L67.7205 84.6748L67.7601 75.1312L71.3241 75.0916L72.7893 77.2696L69.9381 84.2392ZM89.9027 72.7552L79.6463 72.9928L80.3195 100H90.5759L90.8135 96.7924L82.8539 97.228L82.7747 85.15L87.6851 84.8728L87.2891 82.6948L82.7351 83.2492L82.6955 75.8044L90.0611 76.3588L89.9027 72.7552ZM103.515 72.7552L93.2588 72.9928L93.932 100H104.188L104.426 96.7924L96.4664 97.228L96.3872 85.15L101.298 84.8728L100.902 82.6948L96.3476 83.2492L96.308 75.8044L103.674 76.3588L103.515 72.7552ZM110.752 88.3972L115.029 100.198L117.84 100L113.207 88.1596L115.821 88.12L117.84 85.3876V76.1608L115.425 72.874H106.871V100H109.96L109.604 88.4764L110.752 88.3972ZM109.128 75.2896H113.524L115.306 77.3884L115.187 83.8828L113.682 85.3876L109.485 85.546L109.128 75.2896ZM41.8246 136.713L34.8154 137.149L32.8354 124.754L34.459 117.27L41.7058 116.319L41.785 112.24L32.9146 113.27L29.113 125.744L32.3998 140.317L42.2602 140.079L41.8246 136.713ZM60.5133 119.923L55.5633 112.953L48.5937 112.478L42.3765 119.527L42.6933 133.308L47.7621 140.198L54.4545 140.119L59.7609 133.149L60.5133 119.923ZM56.1177 132.634L52.8705 137.268L49.0293 137.149L46.1385 132.674L45.5049 121.903L50.3361 115.488L53.3061 115.606L56.3553 119.527L56.1177 132.634ZM75.5464 136.713L68.5372 137.149L66.5572 124.754L68.1808 117.27L75.4276 116.319L75.5068 112.24L66.6364 113.27L62.8348 125.744L66.1216 140.317L75.982 140.079L75.5464 136.713ZM79.3462 112.755L78.9502 140.079L82.7914 140.04L82.9102 128.318L84.8506 126.457L96.0178 140.673L98.9086 138.654L87.385 124.556L96.8494 115.369L94.6318 113.032L82.9498 124.714L83.0686 112.993L79.3462 112.755ZM113.686 112.399L97.9653 113.31L98.1237 115.527H104.182L103.668 140.277L107.073 139.802L108.261 115.527L113.528 115.606L113.686 112.399ZM116.864 112.359L112.745 139.683L116.072 139.881L118.012 127.843L121.378 127.605L123.556 139.683L126.209 139.96L121.259 112.359H116.864ZM118.329 126.1L119.675 118.299L121.101 125.902L118.329 126.1ZM136.908 115.488L137.225 112.755L127.958 112.953L128.196 115.012L130.809 115.171L131.324 138.06L128.711 138.218L129.027 140.119L136.551 140.04L136.987 137.624L134.057 137.862L134.492 115.369L136.908 115.488ZM151.795 135.961L144.271 136.911L145.103 113.032L140.786 112.636L141.222 140.158L152.27 140.277L151.795 135.961Z" fill="white"/>
</g>
<defs>
<clipPath id="clip0_874_2241">
<rect width="180" height="180" fill="white"/>
</clipPath>
</defs>
</svg>
