<svg width="180" height="180" viewBox="0 0 180 180" fill="none" xmlns="http://www.w3.org/2000/svg">
<g clip-path="url(#clip0_873_2131)">
<rect width="180" height="180" fill="#6B291A"/>
<path d="M17.705 105.621C23.4298 74.5211 56.0361 45.7096 80.2267 29.9419C111.213 23.3449 157.906 30.0623 168.776 39.4951C150.723 43.2458 147.337 66.6372 147.9 77.8641C122.357 69.2832 98.6897 94.0145 90.0489 107.453C68.8194 85.0807 32.974 96.9101 17.705 105.621Z" fill="#7452D2"/>
<path d="M123.808 128.322C118.569 120.593 81.6303 48.8698 63.8159 13.9746L67.7195 14.8475L121.817 116.605C127.848 121.711 139.3 134.656 136.855 145.586C134.411 156.516 119.92 157.169 112.979 156.129L115.38 145.394C126.384 148.88 130.358 137.984 123.808 128.322Z" fill="#7452D2"/>
<path d="M28.9417 68.3972L33.2185 80.198L36.0301 80L31.3969 68.1596L34.0105 68.12L36.0301 65.3876V56.1608L33.6145 52.874H25.0609V80H28.1497L27.7933 68.4764L28.9417 68.3972ZM27.3181 55.2896H31.7137L33.4957 57.3884L33.3769 63.8828L31.8721 65.3876L27.6745 65.546L27.3181 55.2896ZM42.0144 52.3592L37.896 79.6832L41.2224 79.8812L43.1628 67.8428L46.5288 67.6052L48.7068 79.6832L51.36 79.9604L46.41 52.3592H42.0144ZM43.4796 66.1004L44.826 58.2992L46.2516 65.9024L43.4796 66.1004ZM58.7717 54.9728L63.7217 57.4676L65.8997 54.7352L61.6625 52.3196L55.0097 53.6264L53.5049 61.2296L63.9989 71.09L62.5337 77.2676L57.9401 76.832L55.4849 73.1492L53.0693 76.1588L56.3165 79.9208L64.9889 80.0396L67.9193 69.8624L56.7521 59.5664L58.7717 54.9728ZM81.8269 56.1608L79.3717 52.8344H70.4617V80H73.5109L73.1149 68.4764L79.3717 68.2784L81.7873 65.348L81.8269 56.1608ZM78.7381 63.9224L77.2333 65.348L73.0357 65.5064L72.6793 55.3292H77.0749L78.8569 57.3884L78.7381 63.9224ZM85.1765 52.6364L84.3449 80H94.1657L97.0961 77.7032V66.8924L93.7697 64.358L96.8585 56.8736L94.4033 52.7552L85.1765 52.6364ZM94.9577 68.4368L94.7597 75.8024L92.4233 77.5052L88.6217 77.1488L88.6613 66.8924L92.3045 66.2984L94.9577 68.4368ZM90.8789 64.2392L88.6613 64.6748L88.7009 55.1312L92.2649 55.0916L93.7301 57.2696L90.8789 64.2392ZM110.843 52.7552L100.587 52.9928L101.26 80H111.517L111.754 76.7924L103.795 77.228L103.715 65.15L108.626 64.8728L108.23 62.6948L103.676 63.2492L103.636 55.8044L111.002 56.3588L110.843 52.7552ZM118.08 68.3972L122.357 80.198L125.169 80L120.536 68.1596L123.149 68.12L125.169 65.3876V56.1608L122.753 52.874H114.2V80H117.288L116.932 68.4764L118.08 68.3972ZM116.457 55.2896H120.852L122.634 57.3884L122.516 63.8828L121.011 65.3876L116.813 65.546L116.457 55.2896ZM132.737 68.3972L137.014 80.198L139.825 80L135.192 68.1596L137.806 68.12L139.825 65.3876V56.1608L137.41 52.874L128.856 52.874V80H131.945L131.589 68.4764L132.737 68.3972ZM131.113 55.2896H135.509L137.291 57.3884L137.172 63.8828L135.667 65.3876L131.47 65.546L131.113 55.2896ZM152.918 52.7156L148.879 62.8532L144.048 52.874L140.682 53.072L147.493 66.4568L147.652 79.9604H151.77L151.374 66.536L157.076 52.9928L152.918 52.7156ZM48.4962 92.6364L47.6646 120H57.4854L60.4158 117.703V106.892L57.0894 104.358L60.1782 96.8736L57.723 92.7552L48.4962 92.6364ZM58.2774 108.437L58.0794 115.802L55.743 117.505L51.9414 117.149L51.981 106.892L55.6242 106.298L58.2774 108.437ZM54.1986 104.239L51.981 104.675L52.0206 95.1312L55.5846 95.0916L57.0498 97.2696L54.1986 104.239ZM67.7876 108.397L72.0644 120.198L74.876 120L70.2428 108.16L72.8564 108.12L74.876 105.388V96.1608L72.4604 92.874H63.9068V120H66.9956L66.6392 108.476L67.7876 108.397ZM66.164 95.2896H70.5596L72.3416 97.3884L72.2228 103.883L70.718 105.388L66.5204 105.546L66.164 95.2896ZM88.8199 92.7552L78.5635 92.9928L79.2367 120H89.4931L89.7307 116.792L81.7711 117.228L81.6919 105.15L86.6023 104.873L86.2063 102.695L81.6523 103.249L81.6127 95.8044L88.9783 96.3588L88.8199 92.7552ZM102.432 92.7552L92.1759 92.9928L92.8491 120H103.106L103.343 116.792L95.3835 117.228L95.3043 105.15L100.215 104.873L99.8187 102.695L95.2647 103.249L95.2251 95.8044L102.591 96.3588L102.432 92.7552ZM120.797 92.9928L106.422 93.0324L106.066 97.23L116.678 96.2796L103.848 116.911L104.798 119.881L118.658 120V117.07L107.808 115.842L120.124 98.0616L120.797 92.9928ZM133.911 92.7552L123.655 92.9928L124.328 120H134.584L134.822 116.792L126.862 117.228L126.783 105.15L131.694 104.873L131.298 102.695L126.744 103.249L126.704 95.8044L134.07 96.3588L133.911 92.7552Z" fill="white"/>
</g>
<defs>
<clipPath id="clip0_873_2131">
<rect width="180" height="180" fill="white"/>
</clipPath>
</defs>
</svg>
