<svg width="180" height="180" viewBox="0 0 180 180" fill="none" xmlns="http://www.w3.org/2000/svg">
<g clip-path="url(#clip0_874_2635)">
<rect width="180" height="180" fill="#713FFF"/>
<path d="M147.453 103.137C153.949 120.508 151.202 141.171 133.832 147.667C116.461 154.163 102.532 141.728 96.0359 124.357C89.5401 106.987 95.5512 98.248 112.922 91.7522C130.292 85.2563 140.957 85.767 147.453 103.137Z" fill="#C01A6A"/>
<path d="M76.9757 77.0947C68.133 87.173 54.0321 92.49 43.9538 83.6473C33.8756 74.8046 37.0325 61.6794 45.8752 51.6011C54.7179 41.5229 62.3398 42.3632 72.4181 51.2059C82.4963 60.0486 85.8185 67.0165 76.9757 77.0947Z" fill="#C01A6A"/>
<path d="M114.646 -7.96532C120.634 -3.86282 124.401 3.37317 120.299 9.36074C116.196 15.3483 108.938 14.4985 102.95 10.396C96.9628 6.29348 96.9226 2.14255 101.025 -3.84501C105.128 -9.83258 108.658 -12.0678 114.646 -7.96532Z" fill="#C01A6A"/>
<path d="M35.0649 39.408C35.0649 36.0816 33.7581 32.9532 28.4121 32.9532L25.7985 33.27L25.6797 59.9604L28.8477 59.604L28.5705 47.8032C29.0457 47.724 29.5209 47.6052 29.9169 47.4468L32.7681 59.9604L35.4213 59.8416L32.1345 46.2984C34.3521 44.5956 35.0649 41.8236 35.0649 39.408ZM28.5309 45.546L28.4121 35.3688C31.1841 35.646 32.5305 37.3092 32.5305 39.8832C32.5305 42.6948 31.1049 44.8332 28.5309 45.546ZM41.3956 32.3592L37.2772 59.6832L40.6036 59.8812L42.544 47.8428L45.91 47.6052L48.088 59.6832L50.7412 59.9604L45.7912 32.3592H41.3956ZM42.8608 46.1004L44.2072 38.2992L45.6328 45.9024L42.8608 46.1004ZM58.1529 34.9728L63.1029 37.4676L65.2809 34.7352L61.0437 32.3196L54.3909 33.6264L52.8861 41.2296L63.3801 51.09L61.9149 57.2676L57.3213 56.832L54.8661 53.1492L52.4505 56.1588L55.6977 59.9208L64.3701 60.0396L67.3005 49.8624L56.1333 39.5664L58.1529 34.9728ZM81.2081 36.1608L78.7529 32.8344H69.8429V60H72.8921L72.4961 48.4764L78.7529 48.2784L81.1685 45.348L81.2081 36.1608ZM78.1193 43.9224L76.6145 45.348L72.4169 45.5064L72.0605 35.3292H76.4561L78.2381 37.3884L78.1193 43.9224ZM84.5578 32.6364L83.7262 60H93.547L96.4774 57.7032V46.8924L93.1509 44.358L96.2397 36.8736L93.7845 32.7552L84.5578 32.6364ZM94.3389 48.4368L94.1409 55.8024L91.8045 57.5052L88.003 57.1488L88.0426 46.8924L91.6857 46.2984L94.3389 48.4368ZM90.2602 44.2392L88.0426 44.6748L88.0822 35.1312L91.6462 35.0916L93.1114 37.2696L90.2602 44.2392ZM110.225 32.7552L99.9683 32.9928L100.642 60H110.898L111.136 56.7924L103.176 57.228L103.097 45.15L108.007 44.8728L107.611 42.6948L103.057 43.2492L103.018 35.8044L110.383 36.3588L110.225 32.7552ZM117.462 48.3972L121.738 60.198L124.55 60L119.917 48.1596L122.53 48.12L124.55 45.3876V36.1608L122.134 32.874H113.581V60H116.67L116.313 48.4764L117.462 48.3972ZM115.838 35.2896H120.234L122.016 37.3884L121.897 43.8828L120.392 45.3876L116.194 45.546L115.838 35.2896ZM132.118 48.3972L136.395 60.198L139.207 60L134.573 48.1596L137.187 48.12L139.207 45.3876V36.1608L136.791 32.874L128.237 32.874V60H131.326L130.97 48.4764L132.118 48.3972ZM130.495 35.2896H134.89L136.672 37.3884L136.553 43.8828L135.049 45.3876L130.851 45.546L130.495 35.2896ZM152.3 32.7156L148.261 42.8532L143.429 32.874L140.063 33.072L146.875 46.4568L147.033 59.9604H151.151L150.755 46.536L156.458 32.9928L152.3 32.7156ZM68.4952 100.079H70.4356L70.0396 85.0312H74.9104L75.148 100.079H78.316L77.3656 72.6364H74.752L74.9104 83.0908L70 83.4472L69.7228 72.6364H67.426L68.4952 100.079ZM99.9586 79.9228L95.0086 72.9532L88.039 72.478L81.8218 79.5268L82.1386 93.3076L87.2074 100.198L93.8998 100.119L99.2062 93.1492L99.9586 79.9228ZM95.563 92.6344L92.3158 97.2676L88.4746 97.1488L85.5838 92.674L84.9502 81.9028L89.7814 75.4876L92.7514 75.6064L95.8006 79.5268L95.563 92.6344ZM115.001 72.3988L99.2801 73.3096L99.4385 75.5272H105.497L104.983 100.277L108.388 99.802L109.576 75.5272L114.843 75.6064L115.001 72.3988ZM67.5339 129.664L70.7415 139.96L74.5827 140.079L79.8495 112.874L74.8599 112.795L72.3255 134.614L68.4051 123.487L66.8211 123.685L62.0295 136.357L58.9407 112.795L54.9411 112.597L59.8911 140.119L63.5739 140L67.5339 129.664ZM90.927 115.488L91.2438 112.755L81.9774 112.953L82.215 115.012L84.8286 115.171L85.3434 138.06L82.7298 138.218L83.0466 140.119L90.5706 140.04L91.0062 137.624L88.0758 137.862L88.5114 115.369L90.927 115.488ZM110.25 112.874L105.854 112.676L106.606 132.278L99.0428 112.676H94.8056L95.2016 140.04L98.924 139.96L98.33 118.854L106.448 139.96H109.576L110.25 112.874ZM125.249 112.755L114.992 112.993L115.666 140H125.922L126.16 136.792L118.2 137.228L118.121 125.15L123.031 124.873L122.635 122.695L118.081 123.249L118.042 115.804L125.407 116.359L125.249 112.755Z" fill="white"/>
<path d="M32.5319 155.465L24.9915 198.953L160.031 182.539L157.361 164.023C102.555 175.198 51.306 162.974 32.5319 155.465Z" fill="#B59BFF"/>
<ellipse cx="94.5023" cy="154.904" rx="55" ry="9" transform="rotate(4.09407 94.5023 154.904)" fill="#523A96"/>
</g>
<defs>
<clipPath id="clip0_874_2635">
<rect width="180" height="180" fill="white"/>
</clipPath>
</defs>
</svg>
