<svg width="180" height="180" viewBox="0 0 180 180" fill="none" xmlns="http://www.w3.org/2000/svg">
<g clip-path="url(#clip0_874_2241)">
<rect width="180" height="180" fill="#4191CC"/>
<path d="M-13.5 114C39.7 151.6 118 103 150.5 74C77.3 103.2 53 31.8333 50 -7.5H-13.5V114Z" fill="#FF3F6D"/>
<path d="M101 119C120.667 103 161.6 69.1 168 61.5L205 92.5L177 193.5L101 119Z" fill="#FFBE3F"/>
<path d="M51.7775 28.3972L56.0543 40.198L58.8659 40L54.2327 28.1596L56.8463 28.12L58.8659 25.3876V16.1608L56.4503 12.874H47.8967V40H50.9855L50.6291 28.4764L51.7775 28.3972ZM50.1539 15.2896H54.5495L56.3315 17.3884L56.2127 23.8828L54.7079 25.3876L50.5103 25.546L50.1539 15.2896ZM64.8501 12.3592L60.7317 39.6832L64.0581 39.8812L65.9985 27.8428L69.3645 27.6052L71.5425 39.6832L74.1957 39.9604L69.2457 12.3592H64.8501ZM66.3153 26.1004L67.6617 18.2992L69.0873 25.9024L66.3153 26.1004ZM81.6074 14.9728L86.5574 17.4676L88.7354 14.7352L84.4982 12.3196L77.8454 13.6264L76.3406 21.2296L86.8346 31.09L85.3694 37.2676L80.7758 36.832L78.3206 33.1492L75.905 36.1588L79.1522 39.9208L87.8246 40.0396L90.755 29.8624L79.5878 19.5664L81.6074 14.9728ZM104.663 16.1608L102.207 12.8344H93.2974V40H96.3466L95.9506 28.4764L102.207 28.2784L104.623 25.348L104.663 16.1608ZM101.574 23.9224L100.069 25.348L95.8714 25.5064L95.515 15.3292H99.9106L101.693 17.3884L101.574 23.9224ZM108.012 12.6364L107.181 40H117.001L119.932 37.7032V26.8924L116.605 24.358L119.694 16.8736L117.239 12.7552L108.012 12.6364ZM117.793 28.4368L117.595 35.8024L115.259 37.5052L111.457 37.1488L111.497 26.8924L115.14 26.2984L117.793 28.4368ZM113.715 24.2392L111.497 24.6748L111.537 15.1312L115.101 15.0916L116.566 17.2696L113.715 24.2392ZM133.679 12.7552L123.423 12.9928L124.096 40H134.352L134.59 36.7924L126.63 37.228L126.551 25.15L131.462 24.8728L131.066 22.6948L126.512 23.2492L126.472 15.8044L133.838 16.3588L133.679 12.7552ZM73.511 68.3972L77.7878 80.198L80.5994 80L75.9662 68.1596L78.5798 68.12L80.5994 65.3876V56.1608L78.1838 52.874H69.6302V80H72.719L72.3626 68.4764L73.511 68.3972ZM71.8874 55.2896H76.283L78.065 57.3884L77.9462 63.8828L76.4414 65.3876L72.2438 65.546L71.8874 55.2896ZM88.1677 68.3972L92.4445 80.198L95.2561 80L90.6229 68.1596L93.2365 68.12L95.2561 65.3876V56.1608L92.8405 52.874H84.2869V80H87.3757L87.0193 68.4764L88.1677 68.3972ZM86.5441 55.2896H90.9397L92.7217 57.3884L92.6029 63.8828L91.0981 65.3876L86.9005 65.546L86.5441 55.2896ZM108.349 52.7156L104.31 62.8532L99.4788 52.874L96.1128 53.072L102.924 66.4568L103.082 79.9604H107.201L106.805 66.536L112.507 52.9928L108.349 52.7156ZM64.2357 92.6364L63.4041 120H73.2249L76.1553 117.703V106.892L72.8289 104.358L75.9177 96.8736L73.4625 92.7552L64.2357 92.6364ZM74.0169 108.437L73.8189 115.802L71.4825 117.505L67.6809 117.149L67.7205 106.892L71.3637 106.298L74.0169 108.437ZM69.9381 104.239L67.7205 104.675L67.7601 95.1312L71.3241 95.0916L72.7893 97.2696L69.9381 104.239ZM89.9027 92.7552L79.6463 92.9928L80.3195 120H90.5759L90.8135 116.792L82.8539 117.228L82.7747 105.15L87.6851 104.873L87.2891 102.695L82.7351 103.249L82.6955 95.8044L90.0611 96.3588L89.9027 92.7552ZM103.515 92.7552L93.2588 92.9928L93.932 120H104.188L104.426 116.792L96.4664 117.228L96.3872 105.15L101.298 104.873L100.902 102.695L96.3476 103.249L96.308 95.8044L103.674 96.3588L103.515 92.7552ZM110.752 108.397L115.029 120.198L117.84 120L113.207 108.16L115.821 108.12L117.84 105.388V96.1608L115.425 92.874H106.871V120H109.96L109.604 108.476L110.752 108.397ZM109.128 95.2896H113.524L115.306 97.3884L115.187 103.883L113.682 105.388L109.485 105.546L109.128 95.2896ZM50.9705 156.713L43.9613 157.149L41.9813 144.754L43.6049 137.27L50.8517 136.319L50.9309 132.24L42.0605 133.27L38.2589 145.744L41.5457 160.317L51.4061 160.079L50.9705 156.713ZM69.6592 139.923L64.7092 132.953L57.7396 132.478L51.5224 139.527L51.8392 153.308L56.908 160.198L63.6004 160.119L68.9068 153.149L69.6592 139.923ZM65.2636 152.634L62.0164 157.268L58.1752 157.149L55.2844 152.674L54.6508 141.903L59.482 135.488L62.452 135.606L65.5012 139.527L65.2636 152.634ZM84.6923 156.713L77.6831 157.149L75.7031 144.754L77.3267 137.27L84.5735 136.319L84.6527 132.24L75.7823 133.27L71.9807 145.744L75.2675 160.317L85.1279 160.079L84.6923 156.713ZM102.53 132.399L86.8084 133.31L86.9668 135.527H93.0256L92.5108 160.277L95.9164 159.802L97.1044 135.527L102.371 135.606L102.53 132.399ZM113.183 135.488L113.499 132.755L104.233 132.953L104.471 135.012L107.084 135.171L107.599 158.06L104.985 158.218L105.302 160.119L112.826 160.04L113.262 157.624L110.331 157.862L110.767 135.369L113.183 135.488ZM119.358 132.359L115.24 159.683L118.566 159.881L120.506 147.843L123.872 147.605L126.05 159.683L128.704 159.96L123.754 132.359H119.358ZM120.823 146.1L122.17 138.299L123.595 145.902L120.823 146.1ZM142.649 155.961L135.125 156.911L135.957 133.032L131.641 132.636L132.076 160.158L143.125 160.277L142.649 155.961Z" fill="white"/>
</g>
<defs>
<clipPath id="clip0_874_2241">
<rect width="180" height="180" fill="white"/>
</clipPath>
</defs>
</svg>
