<svg width="180" height="180" viewBox="0 0 180 180" fill="none" xmlns="http://www.w3.org/2000/svg">
<g clip-path="url(#clip0_873_2131)">
<rect width="180" height="180" fill="#6B291A"/>
<path d="M17.705 105.621C23.4298 74.5211 56.0361 45.7096 80.2267 29.9419C111.213 23.3449 157.906 30.0623 168.776 39.4951C150.723 43.2458 147.337 66.6372 147.9 77.8641C122.357 69.2832 98.6897 94.0145 90.0489 107.453C68.8194 85.0807 32.974 96.9101 17.705 105.621Z" fill="#7452D2"/>
<path d="M123.808 128.322C118.569 120.593 81.6303 48.8698 63.8159 13.9746L67.7195 14.8475L121.817 116.605C127.848 121.711 139.3 134.656 136.855 145.586C134.411 156.516 119.92 157.169 112.979 156.129L115.38 145.394C126.384 148.88 130.358 137.984 123.808 128.322Z" fill="#7452D2"/>
<path d="M35.0649 59.408C35.0649 56.0816 33.7581 52.9532 28.4121 52.9532L25.7985 53.27L25.6797 79.9604L28.8477 79.604L28.5705 67.8032C29.0457 67.724 29.5209 67.6052 29.9169 67.4468L32.7681 79.9604L35.4213 79.8416L32.1345 66.2984C34.3521 64.5956 35.0649 61.8236 35.0649 59.408ZM28.5309 65.546L28.4121 55.3688C31.1841 55.646 32.5305 57.3092 32.5305 59.8832C32.5305 62.6948 31.1049 64.8332 28.5309 65.546ZM41.3956 52.3592L37.2772 79.6832L40.6036 79.8812L42.544 67.8428L45.91 67.6052L48.088 79.6832L50.7412 79.9604L45.7912 52.3592H41.3956ZM42.8608 66.1004L44.2072 58.2992L45.6328 65.9024L42.8608 66.1004ZM58.1529 54.9728L63.1029 57.4676L65.2809 54.7352L61.0437 52.3196L54.3909 53.6264L52.8861 61.2296L63.3801 71.09L61.9149 77.2676L57.3213 76.832L54.8661 73.1492L52.4505 76.1588L55.6977 79.9208L64.3701 80.0396L67.3005 69.8624L56.1333 59.5664L58.1529 54.9728ZM81.2081 56.1608L78.7529 52.8344H69.8429V80H72.8921L72.4961 68.4764L78.7529 68.2784L81.1685 65.348L81.2081 56.1608ZM78.1193 63.9224L76.6145 65.348L72.4169 65.5064L72.0605 55.3292H76.4561L78.2381 57.3884L78.1193 63.9224ZM84.5578 52.6364L83.7262 80H93.547L96.4774 77.7032V66.8924L93.1509 64.358L96.2397 56.8736L93.7845 52.7552L84.5578 52.6364ZM94.3389 68.4368L94.1409 75.8024L91.8045 77.5052L88.003 77.1488L88.0426 66.8924L91.6857 66.2984L94.3389 68.4368ZM90.2602 64.2392L88.0426 64.6748L88.0822 55.1312L91.6462 55.0916L93.1114 57.2696L90.2602 64.2392ZM110.225 52.7552L99.9683 52.9928L100.642 80H110.898L111.136 76.7924L103.176 77.228L103.097 65.15L108.007 64.8728L107.611 62.6948L103.057 63.2492L103.018 55.8044L110.383 56.3588L110.225 52.7552ZM117.462 68.3972L121.738 80.198L124.55 80L119.917 68.1596L122.53 68.12L124.55 65.3876V56.1608L122.134 52.874H113.581V80H116.67L116.313 68.4764L117.462 68.3972ZM115.838 55.2896H120.234L122.016 57.3884L121.897 63.8828L120.392 65.3876L116.194 65.546L115.838 55.2896ZM132.118 68.3972L136.395 80.198L139.207 80L134.573 68.1596L137.187 68.12L139.207 65.3876V56.1608L136.791 52.874L128.237 52.874V80H131.326L130.97 68.4764L132.118 68.3972ZM130.495 55.2896H134.89L136.672 57.3884L136.553 63.8828L135.049 65.3876L130.851 65.546L130.495 55.2896ZM152.3 52.7156L148.261 62.8532L143.429 52.874L140.063 53.072L146.875 66.4568L147.033 79.9604H151.151L150.755 66.536L156.458 52.9928L152.3 52.7156ZM48.4962 92.6364L47.6646 120H57.4854L60.4158 117.703V106.892L57.0894 104.358L60.1782 96.8736L57.723 92.7552L48.4962 92.6364ZM58.2774 108.437L58.0794 115.802L55.743 117.505L51.9414 117.149L51.981 106.892L55.6242 106.298L58.2774 108.437ZM54.1986 104.239L51.981 104.675L52.0206 95.1312L55.5846 95.0916L57.0498 97.2696L54.1986 104.239ZM67.7876 108.397L72.0644 120.198L74.876 120L70.2428 108.16L72.8564 108.12L74.876 105.388V96.1608L72.4604 92.874H63.9068V120H66.9956L66.6392 108.476L67.7876 108.397ZM66.164 95.2896H70.5596L72.3416 97.3884L72.2228 103.883L70.718 105.388L66.5204 105.546L66.164 95.2896ZM88.8199 92.7552L78.5635 92.9928L79.2367 120H89.4931L89.7307 116.792L81.7711 117.228L81.6919 105.15L86.6023 104.873L86.2063 102.695L81.6523 103.249L81.6127 95.8044L88.9783 96.3588L88.8199 92.7552ZM102.432 92.7552L92.1759 92.9928L92.8491 120H103.106L103.343 116.792L95.3835 117.228L95.3043 105.15L100.215 104.873L99.8187 102.695L95.2647 103.249L95.2251 95.8044L102.591 96.3588L102.432 92.7552ZM120.797 92.9928L106.422 93.0324L106.066 97.23L116.678 96.2796L103.848 116.911L104.798 119.881L118.658 120V117.07L107.808 115.842L120.124 98.0616L120.797 92.9928ZM133.911 92.7552L123.655 92.9928L124.328 120H134.584L134.822 116.792L126.862 117.228L126.783 105.15L131.694 104.873L131.298 102.695L126.744 103.249L126.704 95.8044L134.07 96.3588L133.911 92.7552Z" fill="white"/>
</g>
<defs>
<clipPath id="clip0_873_2131">
<rect width="180" height="180" fill="white"/>
</clipPath>
</defs>
</svg>
