<svg width="180" height="180" viewBox="0 0 180 180" fill="none" xmlns="http://www.w3.org/2000/svg">
<g clip-path="url(#clip0_874_2635)">
<rect width="180" height="180" fill="#713FFF"/>
<path d="M147.453 103.137C153.949 120.508 151.202 141.171 133.832 147.667C116.461 154.163 102.532 141.728 96.0359 124.357C89.5401 106.987 95.5512 98.248 112.922 91.7522C130.292 85.2563 140.957 85.767 147.453 103.137Z" fill="#C01A6A"/>
<path d="M76.9757 77.0947C68.133 87.173 54.0321 92.49 43.9538 83.6473C33.8755 74.8046 37.0325 61.6794 45.8752 51.6011C54.7179 41.5229 62.3398 42.3632 72.4181 51.2059C82.4963 60.0486 85.8185 67.0165 76.9757 77.0947Z" fill="#C01A6A"/>
<path d="M114.646 -7.96532C120.634 -3.86282 124.401 3.37318 120.299 9.36074C116.196 15.3483 108.938 14.4985 102.95 10.396C96.9628 6.29348 96.9226 2.14255 101.025 -3.84501C105.128 -9.83258 108.658 -12.0678 114.646 -7.96532Z" fill="#C01A6A"/>
<path d="M28.9417 48.3972L33.2185 60.198L36.0301 60L31.3969 48.1596L34.0105 48.12L36.0301 45.3876V36.1608L33.6145 32.874H25.0609V60H28.1497L27.7933 48.4764L28.9417 48.3972ZM27.3181 35.2896H31.7137L33.4957 37.3884L33.3769 43.8828L31.8721 45.3876L27.6745 45.546L27.3181 35.2896ZM42.0144 32.3592L37.896 59.6832L41.2224 59.8812L43.1628 47.8428L46.5288 47.6052L48.7068 59.6832L51.36 59.9604L46.41 32.3592H42.0144ZM43.4796 46.1004L44.826 38.2992L46.2516 45.9024L43.4796 46.1004ZM58.7717 34.9728L63.7217 37.4676L65.8997 34.7352L61.6625 32.3196L55.0097 33.6264L53.5049 41.2296L63.9989 51.09L62.5337 57.2676L57.9401 56.832L55.4849 53.1492L53.0693 56.1588L56.3165 59.9208L64.9889 60.0396L67.9193 49.8624L56.7521 39.5664L58.7717 34.9728ZM81.8269 36.1608L79.3717 32.8344H70.4617V60H73.5109L73.1149 48.4764L79.3717 48.2784L81.7873 45.348L81.8269 36.1608ZM78.7381 43.9224L77.2333 45.348L73.0357 45.5064L72.6793 35.3292H77.0749L78.8569 37.3884L78.7381 43.9224ZM85.1765 32.6364L84.3449 60H94.1657L97.0961 57.7032V46.8924L93.7697 44.358L96.8585 36.8736L94.4033 32.7552L85.1765 32.6364ZM94.9577 48.4368L94.7597 55.8024L92.4233 57.5052L88.6217 57.1488L88.6613 46.8924L92.3045 46.2984L94.9577 48.4368ZM90.8789 44.2392L88.6613 44.6748L88.7009 35.1312L92.2649 35.0916L93.7301 37.2696L90.8789 44.2392ZM110.843 32.7552L100.587 32.9928L101.26 60H111.517L111.754 56.7924L103.795 57.228L103.715 45.15L108.626 44.8728L108.23 42.6948L103.676 43.2492L103.636 35.8044L111.002 36.3588L110.843 32.7552ZM118.08 48.3972L122.357 60.198L125.169 60L120.536 48.1596L123.149 48.12L125.169 45.3876V36.1608L122.753 32.874H114.2V60H117.288L116.932 48.4764L118.08 48.3972ZM116.457 35.2896H120.852L122.634 37.3884L122.516 43.8828L121.011 45.3876L116.813 45.546L116.457 35.2896ZM132.737 48.3972L137.014 60.198L139.825 60L135.192 48.1596L137.806 48.12L139.825 45.3876V36.1608L137.41 32.874L128.856 32.874V60H131.945L131.589 48.4764L132.737 48.3972ZM131.113 35.2896H135.509L137.291 37.3884L137.172 43.8828L135.667 45.3876L131.47 45.546L131.113 35.2896ZM152.918 32.7156L148.879 42.8532L144.048 32.874L140.682 33.072L147.493 46.4568L147.652 59.9604H151.77L151.374 46.536L157.076 32.9928L152.918 32.7156ZM56.1497 72.478L51.9125 72.9532L48.4673 83.17L44.2697 72.7552L39.6365 72.9136L38.3297 99.9604L42.1313 100.158L42.1709 77.9032L46.1705 87.6448L49.1009 88.0012L52.9421 78.4972L53.2589 99.8812C53.2589 99.8812 56.7833 99.8812 57.4169 99.8416L56.1497 72.478ZM73.8432 91.6444L71.982 96.0004L66.9132 96.436L64.1016 91.7236L64.854 72.6364L60.894 72.3988L60.498 94.0204L64.2996 99.9208L73.9224 100.158L77.4864 94.456L78.1992 72.6364L73.368 72.8344L73.8432 91.6444ZM92.8787 95.9608L85.3547 96.9112L86.1863 73.0324L81.8699 72.6364L82.3055 100.158L93.3539 100.277L92.8787 95.9608ZM106.723 95.9608L99.1992 96.9112L100.031 73.0324L95.7144 72.6364L96.15 100.158L107.198 100.277L106.723 95.9608ZM119.815 72.7552L109.559 72.9928L110.232 100H120.489L120.726 96.7924L112.767 97.228L112.687 85.15L117.598 84.8728L117.202 82.6948L112.648 83.2492L112.608 75.8044L119.974 76.3588L119.815 72.7552ZM123.726 100.198L135.804 99.7624L141.031 93.5848L141.625 81.0712L135.17 73.1908L123.171 72.7552L123.726 100.198ZM136.239 91.882L133.309 96.3568L127.329 96.5944L127.686 75.9628L132.992 75.8044L136.992 82.4572L136.239 91.882ZM67.5339 129.664L70.7415 139.96L74.5827 140.079L79.8495 112.874L74.8599 112.795L72.3255 134.614L68.4051 123.487L66.8211 123.685L62.0295 136.357L58.9407 112.795L54.9411 112.597L59.8911 140.119L63.5739 140L67.5339 129.664ZM90.927 115.488L91.2438 112.755L81.9774 112.953L82.215 115.012L84.8286 115.171L85.3434 138.06L82.7298 138.218L83.0466 140.119L90.5706 140.04L91.0062 137.624L88.0758 137.862L88.5114 115.369L90.927 115.488ZM110.25 112.874L105.854 112.676L106.606 132.278L99.0428 112.676H94.8056L95.2016 140.04L98.924 139.96L98.33 118.854L106.448 139.96H109.576L110.25 112.874ZM125.249 112.755L114.992 112.993L115.666 140H125.922L126.16 136.792L118.2 137.228L118.121 125.15L123.031 124.873L122.635 122.695L118.081 123.249L118.042 115.804L125.407 116.359L125.249 112.755Z" fill="white"/>
<path d="M32.5319 155.465L24.9915 198.953L160.031 182.539L157.361 164.023C102.555 175.198 51.306 162.974 32.5319 155.465Z" fill="#B59BFF"/>
<ellipse cx="94.5023" cy="154.904" rx="55" ry="9" transform="rotate(4.09407 94.5023 154.904)" fill="#523A96"/>
</g>
<defs>
<clipPath id="clip0_874_2635">
<rect width="180" height="180" fill="white"/>
</clipPath>
</defs>
</svg>
