<svg width="180" height="180" viewBox="0 0 180 180" fill="none" xmlns="http://www.w3.org/2000/svg">
<g clip-path="url(#clip0_874_2345)">
<rect width="180" height="180" fill="#478358"/>
<path d="M48.914 159.302L30 19.2447L127.059 10L140 163L48.914 159.302Z" fill="#2F6B40"/>
<path d="M35 22.0264L120.046 18.7885L135 159.864L58.7069 155.675L35 22.0264Z" fill="#ADBB87"/>
<path d="M33.389 68.3972L37.6658 80.198L40.4774 80L35.8442 68.1596L38.4578 68.12L40.4774 65.3876V56.1608L38.0618 52.874H29.5082V80H32.597L32.2406 68.4764L33.389 68.3972ZM31.7654 55.2896H36.161L37.943 57.3884L37.8242 63.8828L36.3194 65.3876L32.1218 65.546L31.7654 55.2896ZM45.234 80.0792H47.1744L46.7784 65.0312H51.6492L51.8868 80.0792H55.0548L54.1044 52.6364H51.4908L51.6492 63.0908L46.7388 63.4472L46.4616 52.6364H44.1648L45.234 80.0792ZM72.0643 71.6444L70.2031 76.0004L65.1343 76.436L62.3227 71.7236L63.0751 52.6364L59.1151 52.3988L58.7191 74.0204L62.5207 79.9208L72.1435 80.1584L75.7075 74.456L76.4203 52.6364L71.5891 52.8344L72.0643 71.6444ZM80.9226 52.6364L80.091 80H89.9118L92.8422 77.7032V66.8924L89.5158 64.358L92.6046 56.8736L90.1494 52.7552L80.9226 52.6364ZM90.7038 68.4368L90.5058 75.8024L88.1694 77.5052L84.3678 77.1488L84.4074 66.8924L88.0506 66.2984L90.7038 68.4368ZM86.625 64.2392L84.4074 64.6748L84.447 55.1312L88.011 55.0916L89.4762 57.2696L86.625 64.2392ZM98.63 52.3592L94.5116 79.6832L97.838 79.8812L99.7784 67.8428L103.144 67.6052L105.322 79.6832L107.976 79.9604L103.026 52.3592H98.63ZM100.095 66.1004L101.442 58.2992L102.867 65.9024L100.095 66.1004ZM114.793 68.3972L119.07 80.198L121.882 80L117.248 68.1596L119.862 68.12L121.882 65.3876V56.1608L119.466 52.874H110.912V80H114.001L113.645 68.4764L114.793 68.3972ZM113.17 55.2896H117.565L119.347 57.3884L119.228 63.8828L117.724 65.3876L113.526 65.546L113.17 55.2896ZM126.401 52.6364L125.569 80H135.39L138.32 77.7032V66.8924L134.994 64.358L138.083 56.8736L135.628 52.7552L126.401 52.6364ZM136.182 68.4368L135.984 75.8024L133.648 77.5052L129.846 77.1488L129.886 66.8924L133.529 66.2984L136.182 68.4368ZM132.103 64.2392L129.886 64.6748L129.925 55.1312L133.489 55.0916L134.954 57.2696L132.103 64.2392ZM152.068 52.7552L141.811 52.9928L142.485 80H152.741L152.979 76.7924L145.019 77.228L144.94 65.15L149.85 64.8728L149.454 62.6948L144.9 63.2492L144.861 55.8044L152.226 56.3588L152.068 52.7552ZM42.7921 92.6364L41.9605 120H51.7813L54.7117 117.703V106.892L51.3853 104.358L54.4741 96.8736L52.0189 92.7552L42.7921 92.6364ZM52.5733 108.437L52.3753 115.802L50.0389 117.505L46.2373 117.149L46.2769 106.892L49.9201 106.298L52.5733 108.437ZM48.4945 104.239L46.2769 104.675L46.3165 95.1312L49.8805 95.0916L51.3457 97.2696L48.4945 104.239ZM68.4591 92.7552L58.2027 92.9928L58.8759 120H69.1323L69.3699 116.792L61.4103 117.228L61.3311 105.15L66.2415 104.873L65.8455 102.695L61.2915 103.249L61.2519 95.8044L68.6175 96.3588L68.4591 92.7552ZM82.824 115.961L75.3 116.911L76.1316 93.0324L71.8152 92.6364L72.2508 120.158L83.2992 120.277L82.824 115.961ZM96.6685 115.961L89.1445 116.911L89.9761 93.0324L85.6597 92.6364L86.0953 120.158L97.1437 120.277L96.6685 115.961ZM107.266 95.4876L107.583 92.7552L98.3163 92.9532L98.5539 95.0124L101.167 95.1708L101.682 118.06L99.0687 118.218L99.3855 120.119L106.909 120.04L107.345 117.624L104.415 117.862L104.85 95.3688L107.266 95.4876ZM126.588 92.874L122.193 92.676L122.945 112.278L115.382 92.676H111.145L111.541 120.04L115.263 119.96L114.669 98.8536L122.787 119.96H125.915L126.588 92.874ZM139.093 95.4876L139.41 92.7552L130.143 92.9532L130.381 95.0124L132.994 95.1708L133.509 118.06L130.896 118.218L131.212 120.119L138.736 120.04L139.172 117.624L136.242 117.862L136.677 95.3688L139.093 95.4876Z" fill="white"/>
<path d="M106 140C106 142.761 101.747 145 96.5 145C91.2533 145 87 142.761 87 140C87 137.239 91.2533 135 96.5 135C101.747 135 106 137.239 106 140Z" fill="#98A671"/>
</g>
<defs>
<clipPath id="clip0_874_2345">
<rect width="180" height="180" fill="white"/>
</clipPath>
</defs>
</svg>
