<svg width="180" height="180" viewBox="0 0 180 180" fill="none" xmlns="http://www.w3.org/2000/svg">
<g clip-path="url(#clip0_874_2345)">
<rect width="180" height="180" fill="#478358"/>
<path d="M48.914 159.302L30 19.2447L127.059 10L140 163L48.914 159.302Z" fill="#2F6B40"/>
<path d="M35 22.0264L120.046 18.7885L135 159.864L58.7069 155.675L35 22.0264Z" fill="#ADBB87"/>
<path d="M40.1952 68.3972L44.472 80.198L47.2836 80L42.6504 68.1596L45.264 68.12L47.2836 65.3876V56.1608L44.868 52.874H36.3144V80H39.4032L39.0468 68.4764L40.1952 68.3972ZM38.5716 55.2896H42.9672L44.7492 57.3884L44.6304 63.8828L43.1256 65.3876L38.928 65.546L38.5716 55.2896ZM52.0403 80.0792H53.9807L53.5847 65.0312H58.4555L58.6931 80.0792H61.8611L60.9107 52.6364H58.2971L58.4555 63.0908L53.5451 63.4472L53.2679 52.6364H50.9711L52.0403 80.0792ZM78.8705 71.6444L77.0093 76.0004L71.9405 76.436L69.1289 71.7236L69.8813 52.6364L65.9213 52.3988L65.5253 74.0204L69.3269 79.9208L78.9497 80.1584L82.5137 74.456L83.2265 52.6364L78.3953 52.8344L78.8705 71.6444ZM87.7288 52.6364L86.8972 80H96.718L99.6484 77.7032V66.8924L96.322 64.358L99.4108 56.8736L96.9556 52.7552L87.7288 52.6364ZM97.51 68.4368L97.312 75.8024L94.9756 77.5052L91.174 77.1488L91.2136 66.8924L94.8568 66.2984L97.51 68.4368ZM93.4312 64.2392L91.2136 64.6748L91.2532 55.1312L94.8172 55.0916L96.2824 57.2696L93.4312 64.2392ZM105.436 52.3592L101.318 79.6832L104.644 79.8812L106.585 67.8428L109.951 67.6052L112.129 79.6832L114.782 79.9604L109.832 52.3592H105.436ZM106.901 66.1004L108.248 58.2992L109.673 65.9024L106.901 66.1004ZM121.6 68.3972L125.876 80.198L128.688 80L124.055 68.1596L126.668 68.12L128.688 65.3876V56.1608L126.272 52.874H117.719V80H120.808L120.451 68.4764L121.6 68.3972ZM119.976 55.2896H124.372L126.154 57.3884L126.035 63.8828L124.53 65.3876L120.332 65.546L119.976 55.2896ZM133.207 52.6364L132.375 80H142.196L145.127 77.7032V66.8924L141.8 64.358L144.889 56.8736L142.434 52.7552L133.207 52.6364ZM142.988 68.4368L142.79 75.8024L140.454 77.5052L136.652 77.1488L136.692 66.8924L140.335 66.2984L142.988 68.4368ZM138.909 64.2392L136.692 64.6748L136.731 55.1312L140.295 55.0916L141.761 57.2696L138.909 64.2392ZM42.7921 92.6364L41.9605 120H51.7813L54.7117 117.703V106.892L51.3853 104.358L54.4741 96.8736L52.0189 92.7552L42.7921 92.6364ZM52.5733 108.437L52.3753 115.802L50.0389 117.505L46.2373 117.149L46.2769 106.892L49.9201 106.298L52.5733 108.437ZM48.4945 104.239L46.2769 104.675L46.3165 95.1312L49.8805 95.0916L51.3457 97.2696L48.4945 104.239ZM68.4591 92.7552L58.2027 92.9928L58.8759 120H69.1323L69.3699 116.792L61.4103 117.228L61.3311 105.15L66.2415 104.873L65.8455 102.695L61.2915 103.249L61.2519 95.8044L68.6175 96.3588L68.4591 92.7552ZM82.824 115.961L75.3 116.911L76.1316 93.0324L71.8152 92.6364L72.2508 120.158L83.2992 120.277L82.824 115.961ZM96.6685 115.961L89.1445 116.911L89.9761 93.0324L85.6597 92.6364L86.0953 120.158L97.1437 120.277L96.6685 115.961ZM107.266 95.4876L107.583 92.7552L98.3163 92.9532L98.5539 95.0124L101.167 95.1708L101.682 118.06L99.0687 118.218L99.3855 120.119L106.909 120.04L107.345 117.624L104.415 117.862L104.85 95.3688L107.266 95.4876ZM126.588 92.874L122.193 92.676L122.945 112.278L115.382 92.676H111.145L111.541 120.04L115.263 119.96L114.669 98.8536L122.787 119.96H125.915L126.588 92.874ZM139.093 95.4876L139.41 92.7552L130.143 92.9532L130.381 95.0124L132.994 95.1708L133.509 118.06L130.896 118.218L131.212 120.119L138.736 120.04L139.172 117.624L136.242 117.862L136.677 95.3688L139.093 95.4876Z" fill="white"/>
<path d="M106 140C106 142.761 101.747 145 96.5 145C91.2533 145 87 142.761 87 140C87 137.239 91.2533 135 96.5 135C101.747 135 106 137.239 106 140Z" fill="#98A671"/>
</g>
<defs>
<clipPath id="clip0_874_2345">
<rect width="180" height="180" fill="white"/>
</clipPath>
</defs>
</svg>
