<svg width="180" height="180" viewBox="0 0 180 180" fill="none" xmlns="http://www.w3.org/2000/svg">
<g clip-path="url(#clip0_874_2823)">
<rect width="180" height="180" fill="#6B291A"/>
<path fill-rule="evenodd" clip-rule="evenodd" d="M9.0002 39.6016L39.473 21.39C47.2283 16.7552 56.7252 17.5717 63.5069 22.717C63.4958 22.6298 63.4855 22.5425 63.476 22.4551C63.2824 20.672 63.4188 18.7623 64.1824 16.9498C64.9568 15.1118 66.3255 13.4969 68.3864 12.2652L70.4384 15.6988C69.0658 16.5191 68.2934 17.4944 67.8686 18.5028C67.433 19.5367 67.3121 20.7296 67.4526 22.0233C67.568 23.0858 67.8538 24.1598 68.2309 25.1729L74.4586 21.451L85.2317 39.4771L92.9267 52.3529L109.343 79.8214L102.476 83.9254L91.7026 65.8992L88.269 67.9512L82.626 58.509L68.8918 66.717L63.6553 57.9549C60.7021 59.1472 56.6808 60.0006 52.5733 59.317C48.2227 58.5929 43.9453 56.1663 40.8629 51.0058C33.7506 54.4768 27.282 59.3531 23.1077 63.2072L9.0002 39.6016ZM44.5487 49.3651C46.4124 48.6176 48.2998 47.9892 50.1833 47.5206C49.7351 48.9136 49.4576 50.4314 49.425 52.0692L53.4242 52.1489C53.465 50.1021 54.0179 48.285 54.8554 46.7066C55.5296 46.6431 56.2002 46.6051 56.866 46.5945L61.5729 54.4705C59.2306 55.3214 56.2114 55.8675 53.23 55.3712C50.1722 54.8623 47.0053 53.2392 44.5487 49.3651Z" fill="#E2A225"/>
<path d="M47 73H133L123.444 180H62.1296L47 73Z" fill="#FFBE3F"/>
<path d="M51.3829 44.488C51.3829 41.4976 50.2081 38.6852 45.4021 38.6852L43.0525 38.97L42.9457 62.9644L45.7937 62.644L45.5445 52.0352C45.9717 51.964 46.3989 51.8572 46.7549 51.7148L49.3181 62.9644L51.7033 62.8576L48.7485 50.6824C50.7421 49.1516 51.3829 46.6596 51.3829 44.488ZM45.5089 50.006L45.4021 40.8568C47.8941 41.106 49.1045 42.6012 49.1045 44.9152C49.1045 47.4428 47.8229 49.3652 45.5089 50.006ZM66.0454 55.4884L64.3722 59.4044L59.8154 59.796L57.2878 55.5596L57.9642 38.4004L54.4042 38.1868L54.0482 57.6244L57.4658 62.9288L66.1166 63.1424L69.3206 58.016L69.9614 38.4004L65.6182 38.5784L66.0454 55.4884ZM76.5193 40.5008L80.9693 42.7436L82.9273 40.2872L79.1181 38.1156L73.1373 39.2904L71.7845 46.1256L81.2185 54.99L79.9013 60.5436L75.7717 60.152L73.5645 56.8412L71.3929 59.5468L74.3121 62.9288L82.1085 63.0356L84.7429 53.8864L74.7037 44.6304L76.5193 40.5008ZM90.7037 40.5008L95.1537 42.7436L97.1117 40.2872L93.3025 38.1156L87.3217 39.2904L85.9689 46.1256L95.4029 54.99L94.0857 60.5436L89.9561 60.152L87.7489 56.8412L85.5773 59.5468L88.4965 62.9288L96.2929 63.0356L98.9273 53.8864L88.8881 44.6304L90.7037 40.5008ZM106.765 40.9636L107.05 38.5072L98.7195 38.6852L98.9331 40.5364L101.283 40.6788L101.746 61.2556L99.3959 61.398L99.6807 63.1068L106.445 63.0356L106.836 60.864L104.202 61.0776L104.594 40.8568L106.765 40.9636ZM112.317 38.1512L108.614 62.7152L111.605 62.8932L113.349 52.0708L116.375 51.8572L118.333 62.7152L120.718 62.9644L116.268 38.1512H112.317ZM113.634 50.5044L114.844 43.4912L116.126 50.3264L113.634 50.5044ZM137.243 38.614L133.291 38.436L133.967 56.058L127.168 38.436H123.359L123.715 63.0356L127.061 62.9644L126.527 43.9896L133.825 62.9644H136.637L137.243 38.614ZM52.2877 76.5008L56.7377 78.7436L58.6957 76.2872L54.8865 74.1156L48.9057 75.2904L47.5529 82.1256L56.9869 90.99L55.6697 96.5436L51.5401 96.152L49.3329 92.8412L47.1613 95.5468L50.0805 98.9288L57.8769 99.0356L60.5113 89.8864L50.4721 80.6304L52.2877 76.5008ZM73.0141 77.5688L70.8069 74.5784H62.7969V99H65.5381L65.1821 88.6404L70.8069 88.4624L72.9785 85.828L73.0141 77.5688ZM70.2373 84.5464L68.8845 85.828L65.1109 85.9704L64.7905 76.8212H68.7421L70.3441 78.6724L70.2373 84.5464ZM78.7665 88.5692L82.6113 99.178L85.1389 99L80.9737 88.3556L83.3233 88.32L85.1389 85.8636V77.5688L82.9673 74.614H75.2777V99H78.0545L77.7341 88.6404L78.7665 88.5692ZM77.3069 76.7856H81.2585L82.8605 78.6724L82.7537 84.5108L81.4009 85.8636L77.6273 86.006L77.3069 76.7856ZM95.4315 76.9636L95.7163 74.5072L87.3859 74.6852L87.5995 76.5364L89.9491 76.6788L90.4119 97.2556L88.0623 97.398L88.3471 99.1068L95.1111 99.0356L95.5027 96.864L92.8683 97.0776L93.2599 76.8568L95.4315 76.9636ZM112.802 74.614L108.851 74.436L109.527 92.058L102.728 74.436H98.9184L99.2744 99.0356L102.621 98.9644L102.087 79.9896L109.385 98.9644H112.197L112.802 74.614ZM132.659 77.9604L129.49 74.8276L125.112 74.1156L118.953 76.7144L115.998 86.1128L118.205 96.3656L125.04 99.5696L133.193 97.1132L132.944 88.9252L131.733 87.5012L127.675 87.2164V90.5628L130.558 90.3492L130.38 95.1552L125.432 96.2944L120.982 93.482L118.988 86.3976L121.587 78.53L127.283 76.8924L130.558 80.0252L132.659 77.9604ZM64.8268 113.569L62.6196 110.578H54.6096V135H57.3508L56.9948 124.64L62.6196 124.462L64.7912 121.828L64.8268 113.569ZM62.05 120.546L60.6972 121.828L56.9236 121.97L56.6032 112.821H60.5548L62.1568 114.672L62.05 120.546ZM78.1264 127.488L76.4532 131.404L71.8964 131.796L69.3688 127.56L70.0452 110.4L66.4852 110.187L66.1292 129.624L69.5468 134.929L78.1976 135.142L81.4016 130.016L82.0424 110.4L77.6992 110.578L78.1264 127.488ZM99.2264 110.614L95.2748 110.436L95.9512 128.058L89.1516 110.436H85.3424L85.6984 135.036L89.0448 134.964L88.5108 115.99L95.8088 134.964H98.6212L99.2264 110.614ZM113.85 132.045L107.548 132.437L105.768 121.294L107.228 114.566L113.743 113.711L113.814 110.044L105.84 110.97L102.422 122.184L105.377 135.285L114.241 135.071L113.85 132.045ZM116.758 135.071H118.503L118.147 121.543H122.525L122.739 135.071H125.587L124.733 110.4H122.383L122.525 119.799L118.111 120.119L117.862 110.4H115.797L116.758 135.071Z" fill="white"/>
</g>
<defs>
<clipPath id="clip0_874_2823">
<rect width="180" height="180" fill="white"/>
</clipPath>
</defs>
</svg>
