<svg width="180" height="180" viewBox="0 0 180 180" fill="none" xmlns="http://www.w3.org/2000/svg">
<g clip-path="url(#clip0_874_2592)">
<rect width="180" height="180" fill="#421A14"/>
<path d="M32.5 189V81.5L119 71.5L168.5 185.5L32.5 189Z" fill="#815018"/>
<path d="M31.597 80.0131C45.4304 72.5131 81.097 59.5131 113.097 67.5131C153.097 77.5131 21.097 92.5131 31.597 80.0131Z" fill="#AF8350"/>
<path d="M98 74.5L82.5 76.5C82.5 76.5 81 75 74 67.5C67 60 57 61 57 61L102.5 26C102.5 26 105 32.5 111 42C117 51.5 121 55 121 55L98 74.5Z" fill="#C5BABA"/>
<path d="M151 -4L53.5 65.5V59.5L138.5 -9.5L151 -4Z" fill="#AF8350"/>
<path d="M54.6014 88.5692L58.4462 99.178L60.9738 99L56.8086 88.3556L59.1582 88.32L60.9738 85.8636V77.5688L58.8022 74.614H51.1126V99H53.8894L53.569 88.6404L54.6014 88.5692ZM53.1418 76.7856H57.0934L58.6954 78.6724L58.5886 84.5108L57.2358 85.8636L53.4622 86.006L53.1418 76.7856ZM75.3247 91.4884L73.6515 95.4044L69.0947 95.796L66.5671 91.5596L67.2435 74.4004L63.6835 74.1868L63.3275 93.6244L66.7451 98.9288L75.3959 99.1424L78.5999 94.016L79.2407 74.4004L74.8975 74.5784L75.3247 91.4884ZM85.7986 76.5008L90.2486 78.7436L92.2066 76.2872L88.3974 74.1156L82.4166 75.2904L81.0638 82.1256L90.4978 90.99L89.1806 96.5436L85.051 96.152L82.8438 92.8412L80.6722 95.5468L83.5914 98.9288L91.3878 99.0356L94.0222 89.8864L83.983 80.6304L85.7986 76.5008ZM107.441 74.1868L93.3077 75.0056L93.4501 76.9992H98.8969L98.4341 99.2492L101.496 98.822L102.564 76.9992L107.299 77.0704L107.441 74.1868ZM117.018 76.9636L117.303 74.5072L108.972 74.6852L109.186 76.5364L111.535 76.6788L111.998 97.2556L109.649 97.398L109.933 99.1068L116.697 99.0356L117.089 96.864L114.455 97.0776L114.846 76.8568L117.018 76.9636ZM130.1 96.0452L123.798 96.4368L122.018 85.294L123.478 78.5656L129.993 77.7112L130.064 74.0444L122.09 74.97L118.672 86.184L121.627 99.2848L130.491 99.0712L130.1 96.0452Z" fill="white"/>
</g>
<defs>
<clipPath id="clip0_874_2592">
<rect width="180" height="180" fill="white"/>
</clipPath>
</defs>
</svg>
