<svg width="180" height="180" viewBox="0 0 180 180" fill="none" xmlns="http://www.w3.org/2000/svg">
<g clip-path="url(#clip0_873_2025)">
<rect width="180" height="180" fill="#26871B"/>
<path d="M89.9999 96.3514C64.7999 87.5514 58.8333 55.6847 58.9999 40.8514C76.8333 38.1847 108.5 31.8995 116.5 35.4995C126.5 39.9995 119 56.8514 119 80.3514C119 103.851 181 92.8514 202.5 126.351C219.7 153.151 204.333 180.185 194.5 190.351H54C119.5 186.351 121.5 107.351 89.9999 96.3514Z" fill="#224F1D"/>
<path d="M36.8447 54.9728L41.7947 57.4676L43.9727 54.7352L39.7355 52.3196L33.0827 53.6264L31.5779 61.2296L42.0719 71.09L40.6067 77.2676L36.0131 76.832L33.5579 73.1492L31.1423 76.1588L34.3895 79.9208L43.0619 80.0396L45.9923 69.8624L34.8251 59.5664L36.8447 54.9728ZM51.6823 52.3592L47.5639 79.6832L50.8903 79.8812L52.8307 67.8428L56.1967 67.6052L58.3747 79.6832L61.0279 79.9604L56.0779 52.3592H51.6823ZM53.1475 66.1004L54.4939 58.2992L55.9195 65.9024L53.1475 66.1004ZM81.1704 52.478L76.9332 52.9532L73.488 63.17L69.2904 52.7552L64.6572 52.9136L63.3504 79.9604L67.152 80.1584L67.1916 57.9032L71.1912 67.6448L74.1216 68.0012L77.9628 58.4972L78.2796 79.8812C78.2796 79.8812 81.804 79.8812 82.4376 79.8416L81.1704 52.478ZM86.5687 52.6364L85.7371 80H95.5579L98.4883 77.7032V66.8924L95.1619 64.358L98.2507 56.8736L95.7955 52.7552L86.5687 52.6364ZM96.3499 68.4368L96.1519 75.8024L93.8155 77.5052L90.0139 77.1488L90.0535 66.8924L93.6967 66.2984L96.3499 68.4368ZM92.2711 64.2392L90.0535 64.6748L90.0931 55.1312L93.6571 55.0916L95.1223 57.2696L92.2711 64.2392ZM114.255 71.6444L112.394 76.0004L107.325 76.436L104.514 71.7236L105.266 52.6364L101.306 52.3988L100.91 74.0204L104.712 79.9208L114.334 80.1584L117.898 74.456L118.611 52.6364L113.78 52.8344L114.255 71.6444ZM133.806 76.7132L126.796 77.1488L124.816 64.754L126.44 57.2696L133.687 56.3192L133.766 52.2404L124.896 53.27L121.094 65.744L124.381 80.3168L134.241 80.0792L133.806 76.7132ZM140.28 52.3592L136.161 79.6832L139.488 79.8812L141.428 67.8428L144.794 67.6052L146.972 79.6832L149.625 79.9604L144.675 52.3592H140.28ZM141.745 66.1004L143.091 58.2992L144.517 65.9024L141.745 66.1004ZM44.9964 92.6364L44.1648 120H53.9856L56.916 117.703V106.892L53.5896 104.358L56.6784 96.8736L54.2232 92.7552L44.9964 92.6364ZM54.7776 108.437L54.5796 115.802L52.2432 117.505L48.4416 117.149L48.4812 106.892L52.1244 106.298L54.7776 108.437ZM50.6988 104.239L48.4812 104.675L48.5208 95.1312L52.0848 95.0916L53.55 97.2696L50.6988 104.239ZM62.7038 92.3592L58.5854 119.683L61.9118 119.881L63.8522 107.843L67.2182 107.605L69.3962 119.683L72.0494 119.96L67.0994 92.3592H62.7038ZM64.169 106.1L65.5154 98.2992L66.941 105.902L64.169 106.1ZM79.4611 94.9728L84.4111 97.4676L86.5891 94.7352L82.3519 92.3196L75.6991 93.6264L74.1943 101.23L84.6883 111.09L83.2231 117.268L78.6295 116.832L76.1743 113.149L73.7587 116.159L77.0059 119.921L85.6783 120.04L88.6087 109.862L77.4415 99.5664L79.4611 94.9728ZM97.3272 95.4876L97.644 92.7552L88.3776 92.9532L88.6152 95.0124L91.2288 95.1708L91.7436 118.06L89.13 118.218L89.4468 120.119L96.9708 120.04L97.4064 117.624L94.476 117.862L94.9116 95.3688L97.3272 95.4876ZM112.215 115.961L104.691 116.911L105.522 93.0324L101.206 92.6364L101.641 120.158L112.69 120.277L112.215 115.961ZM122.812 95.4876L123.129 92.7552L113.862 92.9532L114.1 95.0124L116.714 95.1708L117.228 118.06L114.615 118.218L114.932 120.119L122.456 120.04L122.891 117.624L119.961 117.862L120.396 95.3688L122.812 95.4876ZM137.363 116.713L130.354 117.149L128.374 104.754L129.998 97.2696L137.245 96.3192L137.324 92.2404L128.453 93.27L124.652 105.744L127.939 120.317L137.799 120.079L137.363 116.713Z" fill="white"/>
<path d="M54 46L63.5 -4H113L127 42.5L54 46Z" fill="#91CFA2"/>
<path d="M84.5 163.408C84.5 179.408 65.8333 196.075 56.5 202.408L38 208.408C46.3333 204.756 62.6 192.844 61 174.408C59 151.363 84.5 143.408 84.5 163.408Z" fill="#224F1D"/>
</g>
<defs>
<clipPath id="clip0_873_2025">
<rect width="180" height="180" fill="white"/>
</clipPath>
</defs>
</svg>
