<svg width="180" height="180" viewBox="0 0 180 180" fill="none" xmlns="http://www.w3.org/2000/svg">
<g clip-path="url(#clip0_873_2025)">
<rect width="180" height="180" fill="#26871B"/>
<path d="M89.9999 96.3514C64.7999 87.5514 58.8333 55.6847 58.9999 40.8514C76.8333 38.1847 108.5 31.8995 116.5 35.4995C126.5 39.9995 119 56.8514 119 80.3514C119 103.851 181 92.8514 202.5 126.351C219.7 153.151 204.333 180.185 194.5 190.351H54C119.5 186.351 121.5 107.351 89.9999 96.3514Z" fill="#224F1D"/>
<path d="M61.9502 56.4776C64.0886 56.4776 66.6626 57.1904 66.6626 60.002C66.6626 62.576 64.7618 65.3876 61.5938 65.3876L61.9502 56.4776ZM58.2278 52.6364C57.1982 76.1984 57.1586 79.802 57.1586 80.1188L60.881 80.3564C65.237 80.3564 69.6326 78.2972 69.6326 73.1492C69.6326 69.9416 67.7714 67.0904 64.4054 66.536C68.1278 65.546 69.4346 62.6156 69.4346 59.9228C69.4346 54.7352 64.9598 52.2404 58.2278 52.6364ZM61.5938 67.8824C64.5638 67.8824 66.5834 69.6248 66.5834 72.9116C66.5834 75.7628 64.6826 77.4656 61.7918 77.4656C61.6334 77.4656 61.4354 77.426 61.2374 77.426L61.5938 67.8824ZM75.4269 52.3592L71.3085 79.6832L74.6349 79.8812L76.5753 67.8428L79.9413 67.6052L82.1192 79.6832L84.7724 79.9604L79.8225 52.3592H75.4269ZM76.8921 66.1004L78.2385 58.2992L79.6641 65.9024L76.8921 66.1004ZM92.1841 54.9728L97.1341 57.4676L99.3121 54.7352L95.0749 52.3196L88.4221 53.6264L86.9173 61.2296L97.4113 71.09L95.9461 77.2676L91.3525 76.832L88.8973 73.1492L86.4817 76.1588L89.7289 79.9208L98.4013 80.0396L101.332 69.8624L90.1645 59.5664L92.1841 54.9728ZM110.05 55.4876L110.367 52.7552L101.101 52.9532L101.338 55.0124L103.952 55.1708L104.467 78.0596L101.853 78.218L102.17 80.1188L109.694 80.0396L110.129 77.624L107.199 77.8616L107.635 55.3688L110.05 55.4876ZM124.938 75.9608L117.414 76.9112L118.245 53.0324L113.929 52.6364L114.364 80.1584L125.413 80.2772L124.938 75.9608ZM36.8447 94.9728L41.7947 97.4676L43.9727 94.7352L39.7355 92.3196L33.0827 93.6264L31.5779 101.23L42.0719 111.09L40.6067 117.268L36.0131 116.832L33.5579 113.149L31.1423 116.159L34.3895 119.921L43.0619 120.04L45.9923 109.862L34.8251 99.5664L36.8447 94.9728ZM51.6823 92.3592L47.5639 119.683L50.8903 119.881L52.8307 107.843L56.1967 107.605L58.3747 119.683L61.0279 119.96L56.0779 92.3592H51.6823ZM53.1475 106.1L54.4939 98.2992L55.9195 105.902L53.1475 106.1ZM81.1704 92.478L76.9332 92.9532L73.488 103.17L69.2904 92.7552L64.6572 92.9136L63.3504 119.96L67.152 120.158L67.1916 97.9032L71.1912 107.645L74.1216 108.001L77.9628 98.4972L78.2796 119.881C78.2796 119.881 81.804 119.881 82.4376 119.842L81.1704 92.478ZM86.5687 92.6364L85.7371 120H95.5579L98.4883 117.703V106.892L95.1619 104.358L98.2507 96.8736L95.7955 92.7552L86.5687 92.6364ZM96.3499 108.437L96.1519 115.802L93.8155 117.505L90.0139 117.149L90.0535 106.892L93.6967 106.298L96.3499 108.437ZM92.2711 104.239L90.0535 104.675L90.0931 95.1312L93.6571 95.0916L95.1223 97.2696L92.2711 104.239ZM114.255 111.644L112.394 116L107.325 116.436L104.514 111.724L105.266 92.6364L101.306 92.3988L100.91 114.02L104.712 119.921L114.334 120.158L117.898 114.456L118.611 92.6364L113.78 92.8344L114.255 111.644ZM133.806 116.713L126.796 117.149L124.816 104.754L126.44 97.2696L133.687 96.3192L133.766 92.2404L124.896 93.27L121.094 105.744L124.381 120.317L134.241 120.079L133.806 116.713ZM140.28 92.3592L136.161 119.683L139.488 119.881L141.428 107.843L144.794 107.605L146.972 119.683L149.625 119.96L144.675 92.3592H140.28ZM141.745 106.1L143.091 98.2992L144.517 105.902L141.745 106.1Z" fill="white"/>
<path d="M54 46L63.5 -4H113L127 42.5L54 46Z" fill="#91CFA2"/>
<path d="M84.5 163.408C84.5 179.408 65.8333 196.075 56.5 202.408L38 208.408C46.3333 204.756 62.6 192.844 61 174.408C59 151.363 84.5 143.408 84.5 163.408Z" fill="#224F1D"/>
</g>
<defs>
<clipPath id="clip0_873_2025">
<rect width="180" height="180" fill="white"/>
</clipPath>
</defs>
</svg>
