<svg width="180" height="180" viewBox="0 0 180 180" fill="none" xmlns="http://www.w3.org/2000/svg">
<g clip-path="url(#clip0_873_1954)">
<rect width="180" height="180" fill="#B6002C"/>
<g clip-path="url(#clip1_873_1954)">
<path d="M86.6659 93.8754L42.4152 138.058L33.8448 140.15L23.7005 160.03L28.7369 164.221L47.6032 149.915L47.1153 142.046L90.663 102.029L86.6659 93.8754Z" fill="#FFDF8B"/>
<path d="M77.6522 88.6583L94.3969 109.105C94.3969 109.105 100.146 109.699 107.458 105.917C114.77 102.135 108.586 94.2295 114.934 90.9682C118.76 89.0041 122.893 87.7054 127.156 87.1283L169.827 47.0402L144.961 19.1609L96.645 65.4773C96.645 65.4773 99.1352 76.8517 95.5526 77.441C91.97 78.0304 86.3774 76.2575 86.3774 76.2575C86.3774 76.2575 80.7115 75.3584 77.6522 88.6583Z" fill="#B27500"/>
<path d="M113 146.5L80.5 141L113 151L109.5 160H115.5L122.5 141H115.5L113 146.5Z" fill="#D9D9D9"/>
<path d="M76.5 31L80.5 57L70.5 33H60V28L86 22.5V28L76.5 31Z" fill="#D9D9D9"/>
</g>
<path d="M37.9594 56.636C35.9398 55.0916 33.0094 52.9532 30.1978 52.9532C26.7922 52.9532 25.4458 55.8836 25.4458 58.3784C25.4458 65.6252 33.9598 67.2488 33.9598 73.5848C33.9598 74.9708 33.4054 76.5152 31.7422 76.5152C29.4058 76.5152 27.5446 74.7332 25.6438 72.1196L23.347 74.7332C25.6834 78.2972 27.9802 80.3564 31.1482 80.3564C34.3162 80.3564 37.1674 78.1784 37.1674 73.4264C37.1674 67.0112 28.2574 62.8928 28.2574 58.4972C28.2574 57.3488 28.8514 56.0816 29.9998 56.0816C31.861 56.0816 34.2766 58.2992 36.2962 59.804L37.9594 56.636ZM52.6333 76.7132L45.6241 77.1488L43.6441 64.754L45.2677 57.2696L52.5145 56.3192L52.5937 52.2404L43.7233 53.27L39.9217 65.744L43.2085 80.3168L53.0689 80.0792L52.6333 76.7132ZM59.9179 68.3972L64.1947 80.198L67.0063 80L62.3731 68.1596L64.9867 68.12L67.0063 65.3876V56.1608L64.5907 52.874H56.0371V80H59.1259L58.7695 68.4764L59.9179 68.3972ZM58.2943 55.2896H62.6899L64.4719 57.3884L64.3531 63.8828L62.8483 65.3876L58.6507 65.546L58.2943 55.2896ZM80.9501 52.7552L70.6937 52.9928L71.3669 80H81.6233L81.8609 76.7924L73.9013 77.228L73.8221 65.15L78.7325 64.8728L78.3365 62.6948L73.7825 63.2492L73.7429 55.8044L81.1085 56.3588L80.9501 52.7552ZM95.513 69.6644L98.7206 79.9604L102.562 80.0792L107.829 52.874L102.839 52.7948L100.305 74.6144L96.3842 63.4868L94.8002 63.6848L90.0086 76.3568L86.9198 52.7948L82.9202 52.5968L87.8702 80.1188L91.553 80L95.513 69.6644ZM111.699 80.198L123.777 79.7624L129.004 73.5848L129.598 61.0712L123.143 53.1908L111.145 52.7552L111.699 80.198ZM124.212 71.882L121.282 76.3568L115.303 76.5944L115.659 55.9628L120.965 55.8044L124.965 62.4572L124.212 71.882ZM136.991 68.3972L141.268 80.198L144.079 80L139.446 68.1596L142.06 68.12L144.079 65.3876V56.1608L141.664 52.874L133.11 52.874V80H136.199L135.843 68.4764L136.991 68.3972ZM135.367 55.2896H139.763L141.545 57.3884L141.426 63.8828L139.921 65.3876L135.724 65.546L135.367 55.2896ZM155.528 55.4876L155.845 52.7552L146.579 52.9532L146.816 55.0124L149.43 55.1708L149.945 78.0596L147.331 78.218L147.648 80.1188L155.172 80.0396L155.608 77.624L152.677 77.8616L153.113 55.3688L155.528 55.4876ZM77.6712 119.921L85.8288 93.1512L80.3244 92.7552L75.8892 114.575L70.7412 93.1512L66.0288 92.9532L73.6716 120.04L77.6712 119.921ZM99.0292 92.7552L88.7728 92.9928L89.446 120H99.7024L99.94 116.792L91.9804 117.228L91.9012 105.15L96.8116 104.873L96.4156 102.695L91.8616 103.249L91.822 95.8044L99.1876 96.3588L99.0292 92.7552ZM106.266 108.397L110.543 120.198L113.355 120L108.721 108.16L111.335 108.12L113.355 105.388V96.1608L110.939 92.874H102.385V120H105.474L105.118 108.476L106.266 108.397ZM104.643 95.2896H109.038L110.82 97.3884L110.701 103.883L109.197 105.388L104.999 105.546L104.643 95.2896Z" fill="white"/>
</g>
<defs>
<clipPath id="clip0_873_1954">
<rect width="180" height="180" fill="white"/>
</clipPath>
<clipPath id="clip1_873_1954">
<rect width="180" height="180" fill="white"/>
</clipPath>
</defs>
</svg>
