<svg width="180" height="180" viewBox="0 0 180 180" fill="none" xmlns="http://www.w3.org/2000/svg">
<g clip-path="url(#clip0_873_1954)">
<rect width="180" height="180" fill="#B6002C"/>
<g clip-path="url(#clip1_873_1954)">
<path d="M86.6659 93.8754L42.4152 138.058L33.8448 140.15L23.7005 160.03L28.7369 164.221L47.6032 149.915L47.1153 142.046L90.663 102.029L86.6659 93.8754Z" fill="#FFDF8B"/>
<path d="M77.6522 88.6583L94.3969 109.105C94.3969 109.105 100.146 109.699 107.458 105.917C114.77 102.135 108.586 94.2295 114.934 90.9682C118.76 89.0041 122.893 87.7054 127.156 87.1283L169.827 47.0402L144.961 19.1609L96.645 65.4773C96.645 65.4773 99.1352 76.8517 95.5526 77.441C91.97 78.0304 86.3774 76.2575 86.3774 76.2575C86.3774 76.2575 80.7115 75.3584 77.6522 88.6583Z" fill="#B27500"/>
<path d="M113 146.5L80.5 141L113 151L109.5 160H115.5L122.5 141H115.5L113 146.5Z" fill="#D9D9D9"/>
<path d="M76.5 31L80.5 57L70.5 33H60V28L86 22.5V28L76.5 31Z" fill="#D9D9D9"/>
</g>
<path d="M53.841 74.9728L58.791 77.4676L60.969 74.7352L56.7318 72.3196L50.079 73.6264L48.5742 81.2296L59.0682 91.09L57.603 97.2676L53.0094 96.832L50.5542 93.1492L48.1386 96.1588L51.3858 99.9208L60.0582 100.04L62.9886 89.8624L51.8214 79.5664L53.841 74.9728ZM77.0546 96.7132L70.0454 97.1488L68.0654 84.754L69.689 77.2696L76.9358 76.3192L77.015 72.2404L68.1446 73.27L64.343 85.744L67.6298 100.317L77.4902 100.079L77.0546 96.7132ZM84.3392 88.3972L88.616 100.198L91.4276 100L86.7944 88.1596L89.408 88.12L91.4276 85.3876V76.1608L89.012 72.874H80.4584V100H83.5472L83.1908 88.4764L84.3392 88.3972ZM82.7156 75.2896H87.1112L88.8932 77.3884L88.7744 83.8828L87.2696 85.3876L83.072 85.546L82.7156 75.2896ZM105.371 72.7552L95.115 72.9928L95.7882 100H106.045L106.282 96.7924L98.3226 97.228L98.2434 85.15L103.154 84.8728L102.758 82.6948L98.2038 83.2492L98.1642 75.8044L105.53 76.3588L105.371 72.7552ZM119.934 89.6644L123.142 99.9604L126.983 100.079L132.25 72.874L127.26 72.7948L124.726 94.6144L120.806 83.4868L119.222 83.6848L114.43 96.3568L111.341 72.7948L107.342 72.5968L112.292 100.119L115.974 100L119.934 89.6644Z" fill="white"/>
</g>
<defs>
<clipPath id="clip0_873_1954">
<rect width="180" height="180" fill="white"/>
</clipPath>
<clipPath id="clip1_873_1954">
<rect width="180" height="180" fill="white"/>
</clipPath>
</defs>
</svg>
