<svg width="180" height="180" viewBox="0 0 180 180" fill="none" xmlns="http://www.w3.org/2000/svg">
<g clip-path="url(#clip0_873_1964)">
<rect width="180" height="180" fill="#4191CC"/>
<path d="M73.0622 143.097C64.2828 108.885 112.082 33.444 137.079 0C152.168 27.2304 183.993 92.3275 190.578 134.873C198.809 188.054 84.0364 185.861 73.0622 143.097Z" fill="#AED8FF"/>
<path d="M74.1244 54.9728L79.0744 57.4676L81.2524 54.7352L77.0152 52.3196L70.3624 53.6264L68.8576 61.2296L79.3516 71.09L77.8864 77.2676L73.2928 76.832L70.8376 73.1492L68.422 76.1588L71.6692 79.9208L80.3416 80.0396L83.272 69.8624L72.1048 59.5664L74.1244 54.9728ZM96.0708 52.7552L85.8144 52.9928L86.4876 80H96.744L96.9816 76.7924L89.022 77.228L88.9428 65.15L93.8532 64.8728L93.4572 62.6948L88.9032 63.2492L88.8636 55.8044L96.2292 56.3588L96.0708 52.7552ZM103 52.3592L98.8815 79.6832L102.208 79.8812L104.148 67.8428L107.514 67.6052L109.692 79.6832L112.346 79.9604L107.396 52.3592H103ZM104.465 66.1004L105.812 58.2992L107.237 65.9024L104.465 66.1004ZM48.4962 92.6364L47.6646 120H57.4854L60.4158 117.703V106.892L57.0894 104.358L60.1782 96.8736L57.723 92.7552L48.4962 92.6364ZM58.2774 108.437L58.0794 115.802L55.743 117.505L51.9414 117.149L51.981 106.892L55.6242 106.298L58.2774 108.437ZM54.1986 104.239L51.981 104.675L52.0206 95.1312L55.5846 95.0916L57.0498 97.2696L54.1986 104.239ZM67.7876 108.397L72.0644 120.198L74.876 120L70.2428 108.16L72.8564 108.12L74.876 105.388V96.1608L72.4604 92.874H63.9068V120H66.9956L66.6392 108.476L67.7876 108.397ZM66.164 95.2896H70.5596L72.3416 97.3884L72.2228 103.883L70.718 105.388L66.5204 105.546L66.164 95.2896ZM88.8199 92.7552L78.5635 92.9928L79.2367 120H89.4931L89.7307 116.792L81.7711 117.228L81.6919 105.15L86.6023 104.873L86.2063 102.695L81.6523 103.249L81.6127 95.8044L88.9783 96.3588L88.8199 92.7552ZM102.432 92.7552L92.1759 92.9928L92.8491 120H103.106L103.343 116.792L95.3835 117.228L95.3043 105.15L100.215 104.873L99.8187 102.695L95.2647 103.249L95.2251 95.8044L102.591 96.3588L102.432 92.7552ZM120.797 92.9928L106.422 93.0324L106.066 97.23L116.678 96.2796L103.848 116.911L104.798 119.881L118.658 120V117.07L107.808 115.842L120.124 98.0616L120.797 92.9928ZM133.911 92.7552L123.655 92.9928L124.328 120H134.584L134.822 116.792L126.862 117.228L126.783 105.15L131.694 104.873L131.298 102.695L126.744 103.249L126.704 95.8044L134.07 96.3588L133.911 92.7552Z" fill="white"/>
<ellipse cx="172.146" cy="130.371" rx="17" ry="26.5" transform="rotate(-17.399 172.146 130.371)" fill="#DBEEFF"/>
</g>
<defs>
<clipPath id="clip0_873_1964">
<rect width="180" height="180" fill="white"/>
</clipPath>
</defs>
</svg>
