<svg width="180" height="180" viewBox="0 0 180 180" fill="none" xmlns="http://www.w3.org/2000/svg">
<g clip-path="url(#clip0_873_1842)">
<rect width="180" height="180" fill="#D76950"/>
<g clip-path="url(#clip1_873_1842)">
<path d="M219.5 179L135 140C92.5202 149.618 15 179 15 179C31 189.8 158 183.5 219.5 179Z" fill="#FFBE3F"/>
<path d="M129.5 164.5C154.7 94.5 128.333 60.3333 112 52H119.5C153.9 62.8 166.5 121.5 168.5 149.5L129.5 164.5Z" fill="#613705"/>
<path d="M41.5 81.5L105.5 49.5L78 113L41.5 81.5Z" fill="#38864E"/>
<path d="M94 95L110 56.5L121.5 91.5L94 95Z" fill="#38864E"/>
<path d="M194.5 30.5L118 46.5L196.5 95L194.5 30.5Z" fill="#38864E"/>
<path d="M159.5 -3.5L112 42V-5.5L159.5 -3.5Z" fill="#38864E"/>
<path d="M43 36.5L108 46.5L94 -15L72 -11L43 36.5Z" fill="#38864E"/>
</g>
<path d="M75.3576 54.9728L80.3076 57.4676L82.4856 54.7352L78.2484 52.3196L71.5956 53.6264L70.0908 61.2296L80.5848 71.09L79.1196 77.2676L74.526 76.832L72.0708 73.1492L69.6552 76.1588L72.9024 79.9208L81.5748 80.0396L84.5052 69.8624L73.338 59.5664L75.3576 54.9728ZM97.3041 52.7552L87.0477 52.9928L87.7209 80H97.9773L98.2149 76.7924L90.2553 77.228L90.1761 65.15L95.0865 64.8728L94.6905 62.6948L90.1365 63.2492L90.0969 55.8044L97.4625 56.3588L97.3041 52.7552ZM110.441 52.7156L106.996 61.8632L103.67 52.7156L99.3534 52.874L104.858 65.8628L100.106 80.198L103.511 80.4752L106.838 69.9416L110.996 80.198L114.164 79.8416L108.62 65.1896L114.401 52.9928L110.441 52.7156ZM49.0428 99.9228L44.0928 92.9532L37.1232 92.478L30.906 99.5268L31.2228 113.308L36.2916 120.198L42.984 120.119L48.2904 113.149L49.0428 99.9228ZM44.6472 112.634L41.4 117.268L37.5588 117.149L34.668 112.674L34.0344 101.903L38.8656 95.4876L41.8356 95.6064L44.8848 99.5268L44.6472 112.634ZM67.9964 92.874L63.6008 92.676L64.3532 112.278L56.7896 92.676H52.5524L52.9484 120.04L56.6708 119.96L56.0768 98.8536L64.1948 119.96H67.3232L67.9964 92.874ZM82.4265 92.6364L81.5949 120H91.4157L94.3461 117.703V106.892L91.0197 104.358L94.1085 96.8736L91.6533 92.7552L82.4265 92.6364ZM92.2077 108.437L92.0097 115.802L89.6733 117.505L85.8717 117.149L85.9113 106.892L89.5545 106.298L92.2077 108.437ZM88.1289 104.239L85.9113 104.675L85.9509 95.1312L89.5149 95.0916L90.9801 97.2696L88.1289 104.239ZM108.094 92.7552L97.8371 92.9928L98.5103 120H108.767L109.004 116.792L101.045 117.228L100.966 105.15L105.876 104.873L105.48 102.695L100.926 103.249L100.886 95.8044L108.252 96.3588L108.094 92.7552ZM115.023 92.3592L110.904 119.683L114.231 119.881L116.171 107.843L119.537 107.605L121.715 119.683L124.368 119.96L119.418 92.3592H115.023ZM116.488 106.1L117.834 98.2992L119.26 105.902L116.488 106.1ZM138.829 116.713L131.819 117.149L129.839 104.754L131.463 97.2696L138.71 96.3192L138.789 92.2404L129.919 93.27L126.117 105.744L129.404 120.317L139.264 120.079L138.829 116.713ZM142.064 120.079H144.005L143.609 105.031H148.479L148.717 120.079H151.885L150.935 92.6364H148.321L148.479 103.091L143.569 103.447L143.292 92.6364H140.995L142.064 120.079Z" fill="white"/>
</g>
<defs>
<clipPath id="clip0_873_1842">
<rect width="180" height="180" fill="white"/>
</clipPath>
<clipPath id="clip1_873_1842">
<rect width="180" height="180" fill="white"/>
</clipPath>
</defs>
</svg>
