<svg width="180" height="180" viewBox="0 0 180 180" fill="none" xmlns="http://www.w3.org/2000/svg">
<g clip-path="url(#clip0_873_1842)">
<rect width="180" height="180" fill="#D76950"/>
<g clip-path="url(#clip1_873_1842)">
<path d="M219.5 179L135 140C92.5202 149.618 15 179 15 179C31 189.8 158 183.5 219.5 179Z" fill="#FFBE3F"/>
<path d="M129.5 164.5C154.7 94.5 128.333 60.3333 112 52H119.5C153.9 62.8 166.5 121.5 168.5 149.5L129.5 164.5Z" fill="#613705"/>
<path d="M41.5 81.5L105.5 49.5L78 113L41.5 81.5Z" fill="#38864E"/>
<path d="M94 95L110 56.5L121.5 91.5L94 95Z" fill="#38864E"/>
<path d="M194.5 30.5L118 46.5L196.5 95L194.5 30.5Z" fill="#38864E"/>
<path d="M159.5 -3.5L112 42V-5.5L159.5 -3.5Z" fill="#38864E"/>
<path d="M43 36.5L108 46.5L94 -15L72 -11L43 36.5Z" fill="#38864E"/>
</g>
<path d="M31.787 56.636C29.7674 55.0916 26.837 52.9532 24.0254 52.9532C20.6198 52.9532 19.2734 55.8836 19.2734 58.3784C19.2734 65.6252 27.7874 67.2488 27.7874 73.5848C27.7874 74.9708 27.233 76.5152 25.5698 76.5152C23.2334 76.5152 21.3722 74.7332 19.4714 72.1196L17.1746 74.7332C19.511 78.2972 21.8078 80.3564 24.9758 80.3564C28.1438 80.3564 30.995 78.1784 30.995 73.4264C30.995 67.0112 22.085 62.8928 22.085 58.4972C22.085 57.3488 22.679 56.0816 23.8274 56.0816C25.6886 56.0816 28.1042 58.2992 30.1238 59.804L31.787 56.636ZM45.1937 52.7552L34.9373 52.9928L35.6105 80H45.8669L46.1045 76.7924L38.1449 77.228L38.0657 65.15L42.9761 64.8728L42.5801 62.6948L38.0261 63.2492L37.9865 55.8044L45.3521 56.3588L45.1937 52.7552ZM58.331 52.7156L54.8858 61.8632L51.5594 52.7156L47.243 52.874L52.7474 65.8628L47.9954 80.198L51.401 80.4752L54.7274 69.9416L58.8854 80.198L62.0534 79.8416L56.5094 65.1896L62.291 52.9928L58.331 52.7156ZM91.5239 59.9228L86.5739 52.9532L79.6043 52.478L73.3871 59.5268L73.7039 73.3076L78.7727 80.198L85.4651 80.1188L90.7715 73.1492L91.5239 59.9228ZM87.1283 72.6344L83.8811 77.2676L80.0399 77.1488L77.1491 72.674L76.5155 61.9028L81.3467 55.4876L84.3167 55.6064L87.3659 59.5268L87.1283 72.6344ZM110.477 52.874L106.082 52.676L106.834 72.278L99.2706 52.676H95.0334L95.4294 80.0396L99.1518 79.9604L98.5578 58.8536L106.676 79.9604H109.804L110.477 52.874ZM137.659 52.3988L121.938 53.3096L122.096 55.5272H128.155L127.64 80.2772L131.046 79.802L132.234 55.5272L137.5 55.6064L137.659 52.3988ZM141.233 80.0792H143.173L142.777 65.0312H147.648L147.885 80.0792H151.053L150.103 52.6364H147.489L147.648 63.0908L142.737 63.4472L142.46 52.6364H140.163L141.233 80.0792ZM166.043 52.7552L155.787 52.9928L156.46 80H166.717L166.954 76.7924L158.995 77.228L158.915 65.15L163.826 64.8728L163.43 62.6948L158.876 63.2492L158.836 55.8044L166.202 56.3588L166.043 52.7552ZM57.6959 92.6364L56.8643 120H66.6851L69.6155 117.703V106.892L66.2891 104.358L69.3779 96.8736L66.9227 92.7552L57.6959 92.6364ZM67.4771 108.437L67.2791 115.802L64.9427 117.505L61.1411 117.149L61.1807 106.892L64.8239 106.298L67.4771 108.437ZM63.3983 104.239L61.1807 104.675L61.2203 95.1312L64.7843 95.0916L66.2495 97.2696L63.3983 104.239ZM83.3629 92.7552L73.1065 92.9928L73.7797 120H84.0361L84.2737 116.792L76.3141 117.228L76.2349 105.15L81.1453 104.873L80.7493 102.695L76.1953 103.249L76.1557 95.8044L83.5213 96.3588L83.3629 92.7552ZM90.2919 92.3592L86.1735 119.683L89.4999 119.881L91.4403 107.843L94.8063 107.605L96.9843 119.683L99.6375 119.96L94.6875 92.3592H90.2919ZM91.7571 106.1L93.1035 98.2992L94.5291 105.902L91.7571 106.1ZM114.098 116.713L107.089 117.149L105.109 104.754L106.732 97.2696L113.979 96.3192L114.058 92.2404L105.188 93.27L101.386 105.744L104.673 120.317L114.534 120.079L114.098 116.713ZM117.333 120.079H119.274L118.878 105.031H123.749L123.986 120.079H127.154L126.204 92.6364H123.59L123.749 103.091L118.838 103.447L118.561 92.6364H116.264L117.333 120.079Z" fill="white"/>
</g>
<defs>
<clipPath id="clip0_873_1842">
<rect width="180" height="180" fill="white"/>
</clipPath>
<clipPath id="clip1_873_1842">
<rect width="180" height="180" fill="white"/>
</clipPath>
</defs>
</svg>
