<svg width="180" height="180" viewBox="0 0 180 180" fill="none" xmlns="http://www.w3.org/2000/svg">
<g clip-path="url(#clip0_873_2030)">
<rect width="180" height="180" fill="#3F9D34"/>
<path fill-rule="evenodd" clip-rule="evenodd" d="M145.584 67.4034L104.151 80.3315L104.152 80.3321L145.584 67.404C151.977 70.4846 163.507 81.5253 158.485 101.043C153.278 121.278 135.298 107.645 125.81 100.45C123.858 98.9701 122.266 97.7626 121.218 97.1782C117.386 95.042 110.186 93.5238 105.012 92.7123C130.259 114.3 136.436 167.91 134.483 166.024C132.668 164.271 111.456 162.358 101.078 161.621C118.611 140.347 109.888 113.581 99.3102 96.2978L99.0697 96.4479C97.9729 101.341 96.3369 110.806 97.188 116.005C97.3818 117.189 97.9771 119.097 98.7066 121.435C102.253 132.803 108.974 154.342 88.1731 152.371C68.1095 150.47 61.6381 135.877 60.9104 128.818L87.631 93.5801L87.6308 93.58L60.9107 128.818C53.9173 130.022 38.1194 127.728 30.8747 108.922C23.3637 89.4243 45.9179 90.0834 57.8206 90.4312C60.2689 90.5028 62.2665 90.5611 63.4592 90.4282C67.6294 89.9635 73.9796 87.2494 78.6226 84.9632C74.577 82.6335 69.814 80.2582 66.4042 79.5603C65.2286 79.3197 63.2341 79.1965 60.7897 79.0455L60.7894 79.0455L60.7893 79.0454L60.7892 79.0454C48.904 78.3112 26.3831 76.92 35.6332 58.1849C44.5552 40.114 60.496 39.2642 67.3513 41.0981C68.7169 34.1344 76.4864 20.1893 96.6397 20.1175C117.534 20.043 108.885 40.8835 104.321 51.882C103.382 54.1442 102.616 55.9901 102.316 57.1519C101.725 59.4344 101.553 62.6129 101.601 65.874C104.463 62.8554 107.275 59.479 108.609 56.7694C109.139 55.6927 109.762 53.7938 110.526 51.4667C114.239 40.1525 121.275 18.7138 137.065 32.3972C152.296 45.5955 149.09 61.234 145.584 67.4034Z" fill="#1F3930"/>
<path d="M26.8674 74.9728L31.8174 77.4676L33.9954 74.7352L29.7582 72.3196L23.1054 73.6264L21.6006 81.2296L32.0946 91.09L30.6294 97.2676L26.0358 96.832L23.5806 93.1492L21.165 96.1588L24.4122 99.9208L33.0846 100.04L36.015 89.8624L24.8478 79.5664L26.8674 74.9728ZM40.4774 100.079H42.4178L42.0218 85.0312H46.8926L47.1302 100.079H50.2982L49.3478 72.6364H46.7342L46.8926 83.0908L41.9822 83.4472L41.705 72.6364H39.4082L40.4774 100.079ZM57.3284 72.3592L53.21 99.6832L56.5364 99.8812L58.4768 87.8428L61.8428 87.6052L64.0208 99.6832L66.674 99.9604L61.724 72.3592H57.3284ZM58.7936 86.1004L60.14 78.2992L61.5656 85.9024L58.7936 86.1004ZM86.8165 72.478L82.5793 72.9532L79.1341 83.17L74.9365 72.7552L70.3033 72.9136L68.9965 99.9604L72.7981 100.158L72.8377 77.9032L76.8373 87.6448L79.7677 88.0012L83.6089 78.4972L83.9257 99.8812C83.9257 99.8812 87.4501 99.8812 88.0837 99.8416L86.8165 72.478ZM95.264 88.3972L99.5408 100.198L102.352 100L97.7192 88.1596L100.333 88.12L102.352 85.3876V76.1608L99.9368 72.874H91.3832V100H94.472L94.1156 88.4764L95.264 88.3972ZM93.6404 75.2896H98.036L99.818 77.3884L99.6992 83.8828L98.1944 85.3876L93.9968 85.546L93.6404 75.2896ZM122.949 79.9228L117.999 72.9532L111.029 72.478L104.812 79.5268L105.129 93.3076L110.198 100.198L116.89 100.119L122.197 93.1492L122.949 79.9228ZM118.553 92.6344L115.306 97.2676L111.465 97.1488L108.574 92.674L107.941 81.9028L112.772 75.4876L115.742 75.6064L118.791 79.5268L118.553 92.6344ZM137.982 96.7132L130.973 97.1488L128.993 84.754L130.617 77.2696L137.863 76.3192L137.943 72.2404L129.072 73.27L125.271 85.744L128.557 100.317L138.418 100.079L137.982 96.7132ZM141.782 72.7552L141.386 100.079L145.227 100.04L145.346 88.318L147.286 86.4568L158.454 100.673L161.344 98.6536L149.821 84.556L159.285 75.3688L157.068 73.0324L145.386 84.7144L145.504 72.9928L141.782 72.7552Z" fill="white"/>
</g>
<defs>
<clipPath id="clip0_873_2030">
<rect width="180" height="180" fill="white"/>
</clipPath>
</defs>
</svg>
