<svg width="180" height="180" viewBox="0 0 180 180" fill="none" xmlns="http://www.w3.org/2000/svg">
<g clip-path="url(#clip0_874_2632)">
<rect width="180" height="180" fill="#E99A89"/>
<path d="M33.9072 82.1099C19.8997 53.4857 34.0569 28.6007 42.8864 19.7363L145.249 12C134.773 29.5678 124.762 71.5022 137.995 93.2308C165.382 138.198 154.158 172.044 142.555 188H42.8864C76.5586 164.791 51.4167 117.89 33.9072 82.1099Z" fill="#BC8544"/>
<path d="M40.5362 69.074C40.5362 77.1908 47.3358 83.5276 55.3814 79.8964L54.6338 71.4948L48.6174 72.2424V73.9156L52.8894 74.1648L52.6046 77.8316C47.3358 78.4724 43.2418 75.1972 43.2418 69.1096C43.2418 61.8472 47.6918 59.3196 54.0998 59.5688L54.705 56.614C45.3066 54.9052 40.5362 60.8504 40.5362 69.074ZM61.85 70.5692L65.6948 81.178L68.2224 81L64.0572 70.3556L66.4068 70.32L68.2224 67.8636V59.5688L66.0508 56.614H58.3612V81H61.138L60.8176 70.6404L61.85 70.5692ZM60.3904 58.7856H64.342L65.944 60.6724L65.8372 66.5108L64.4844 67.8636L60.7108 68.006L60.3904 58.7856ZM86.7386 62.9508L82.2886 56.6852L76.023 56.258L70.4338 62.5948L70.7186 74.9836L75.2754 81.178L81.2918 81.1068L86.0622 74.8412L86.7386 62.9508ZM82.787 74.3784L79.8678 78.5436L76.4146 78.4368L73.8158 74.414L73.2462 64.7308L77.5894 58.9636L80.2594 59.0704L83.0006 62.5948L82.787 74.3784ZM100.253 78.0452L93.952 78.4368L92.172 67.294L93.6316 60.5656L100.146 59.7112L100.218 56.0444L92.2432 56.97L88.8256 68.184L91.7804 81.2848L100.645 81.0712L100.253 78.0452ZM111.769 56.5072L102.548 56.7208L103.154 81H112.374L112.588 78.1164L105.432 78.508L105.361 67.65L109.775 67.4008L109.419 65.4428L105.325 65.9412L105.29 59.2484L111.911 59.7468L111.769 56.5072ZM118.275 70.5692L122.119 81.178L124.647 81L120.482 70.3556L122.831 70.32L124.647 67.8636V59.5688L122.475 56.614H114.786V81H117.563L117.242 70.6404L118.275 70.5692ZM116.815 58.7856H120.767L122.369 60.6724L122.262 66.5108L120.909 67.8636L117.135 68.006L116.815 58.7856ZM136.418 56.4716L132.786 65.5852L128.443 56.614L125.417 56.792L131.54 68.8248L131.683 80.9644H135.385L135.029 68.896L140.156 56.7208L136.418 56.4716ZM77.5404 113.369L70.7764 114.223L71.524 92.7564L67.6436 92.4004L68.0352 117.142L77.9676 117.249L77.5404 113.369ZM87.0673 94.9636L87.3521 92.5072L79.0217 92.6852L79.2353 94.5364L81.5849 94.6788L82.0477 115.256L79.6981 115.398L79.9829 117.107L86.7469 117.036L87.1385 114.864L84.5041 115.078L84.8957 94.8568L87.0673 94.9636ZM92.7344 94.5008L97.1844 96.7436L99.1424 94.2872L95.3332 92.1156L89.3524 93.2904L87.9996 100.126L97.4336 108.99L96.1164 114.544L91.9868 114.152L89.7796 110.841L87.608 113.547L90.5272 116.929L98.3236 117.036L100.958 107.886L90.9188 98.6304L92.7344 94.5008ZM114.377 92.1868L100.243 93.0056L100.386 94.9992H105.833L105.37 117.249L108.431 116.822L109.499 94.9992L114.234 95.0704L114.377 92.1868Z" fill="white"/>
</g>
<defs>
<clipPath id="clip0_874_2632">
<rect width="180" height="180" fill="white"/>
</clipPath>
</defs>
</svg>
