<svg width="180" height="180" viewBox="0 0 180 180" fill="none" xmlns="http://www.w3.org/2000/svg">
<g clip-path="url(#clip0_874_2632)">
<rect width="180" height="180" fill="#E99A89"/>
<path d="M33.9072 82.1099C19.8997 53.4857 34.0569 28.6007 42.8864 19.7363L145.249 12C134.773 29.5678 124.762 71.5022 137.995 93.2308C165.382 138.198 154.158 172.044 142.555 188H42.8864C76.5586 164.791 51.4167 117.89 33.9072 82.1099Z" fill="#BC8544"/>
<path d="M35.9621 58.5008L40.4121 60.7436L42.3701 58.2872L38.5609 56.1156L32.5801 57.2904L31.2273 64.1256L40.6613 72.99L39.3441 78.5436L35.2145 78.152L33.0073 74.8412L30.8357 77.5468L33.7549 80.9288L41.5513 81.0356L44.1857 71.8864L34.1465 62.6304L35.9621 58.5008ZM48.1974 81.0712H49.9418L49.5858 67.5432H53.9646L54.1782 81.0712H57.0262L56.1718 56.4004H53.8222L53.9646 65.7988L49.5502 66.1192L49.301 56.4004H47.2362L48.1974 81.0712ZM76.4827 62.9508L72.0327 56.6852L65.7671 56.258L60.1779 62.5948L60.4627 74.9836L65.0195 81.178L71.0359 81.1068L75.8063 74.8412L76.4827 62.9508ZM72.5311 74.3784L69.6119 78.5436L66.1587 78.4368L63.5599 74.414L62.9903 64.7308L67.3335 58.9636L70.0035 59.0704L72.7447 62.5948L72.5311 74.3784ZM89.855 59.5688L87.6478 56.5784H79.6378V81H82.379L82.023 70.6404L87.6478 70.4624L89.8194 67.828L89.855 59.5688ZM87.0782 66.5464L85.7254 67.828L81.9518 67.9704L81.6314 58.8212H85.583L87.185 60.6724L87.0782 66.5464ZM102.336 59.5688L100.129 56.5784H92.1186V81H94.8598L94.5038 70.6404L100.129 70.4624L102.3 67.828L102.336 59.5688ZM99.559 66.5464L98.2062 67.828L94.4326 67.9704L94.1122 58.8212H98.0638L99.6658 60.6724L99.559 66.5464ZM111.577 58.9636L111.862 56.5072L103.531 56.6852L103.745 58.5364L106.095 58.6788L106.557 79.2556L104.208 79.398L104.493 81.1068L111.257 81.0356L111.648 78.864L109.014 79.0776L109.405 58.8568L111.577 58.9636ZM128.948 56.614L124.996 56.436L125.673 74.058L118.873 56.436H115.064L115.42 81.0356L118.766 80.9644L118.232 61.9896L125.53 80.9644H128.343L128.948 56.614ZM148.804 59.9604L145.636 56.8276L141.257 56.1156L135.098 58.7144L132.144 68.1128L134.351 78.3656L141.186 81.5696L149.338 79.1132L149.089 70.9252L147.879 69.5012L143.82 69.2164V72.5628L146.704 72.3492L146.526 77.1552L141.578 78.2944L137.128 75.482L135.134 68.3976L137.733 60.53L143.429 58.8924L146.704 62.0252L148.804 59.9604ZM77.5404 113.369L70.7764 114.223L71.524 92.7564L67.6436 92.4004L68.0352 117.142L77.9676 117.249L77.5404 113.369ZM87.0673 94.9636L87.3521 92.5072L79.0217 92.6852L79.2353 94.5364L81.5849 94.6788L82.0477 115.256L79.6981 115.398L79.9829 117.107L86.7469 117.036L87.1385 114.864L84.5041 115.078L84.8957 94.8568L87.0673 94.9636ZM92.7344 94.5008L97.1844 96.7436L99.1424 94.2872L95.3332 92.1156L89.3524 93.2904L87.9996 100.126L97.4336 108.99L96.1164 114.544L91.9868 114.152L89.7796 110.841L87.608 113.547L90.5272 116.929L98.3236 117.036L100.958 107.886L90.9188 98.6304L92.7344 94.5008ZM114.377 92.1868L100.243 93.0056L100.386 94.9992H105.833L105.37 117.249L108.431 116.822L109.499 94.9992L114.234 95.0704L114.377 92.1868Z" fill="white"/>
</g>
<defs>
<clipPath id="clip0_874_2632">
<rect width="180" height="180" fill="white"/>
</clipPath>
</defs>
</svg>
