<svg width="180" height="180" viewBox="0 0 180 180" fill="none" xmlns="http://www.w3.org/2000/svg">
<g clip-path="url(#clip0_874_2466)">
<rect width="180" height="180" fill="#D65BC2"/>
<ellipse cx="75.7564" cy="81.8108" rx="43" ry="57.1595" transform="rotate(-24.3736 75.7564 81.8108)" fill="#574CA0"/>
<path d="M46.5126 76.636C44.493 75.0916 41.5626 72.9532 38.751 72.9532C35.3454 72.9532 33.999 75.8836 33.999 78.3784C33.999 85.6252 42.513 87.2488 42.513 93.5848C42.513 94.9708 41.9586 96.5152 40.2954 96.5152C37.959 96.5152 36.0978 94.7332 34.197 92.1196L31.9002 94.7332C34.2366 98.2972 36.5334 100.356 39.7014 100.356C42.8694 100.356 45.7206 98.1784 45.7206 93.4264C45.7206 87.0112 36.8106 82.8928 36.8106 78.4972C36.8106 77.3488 37.4046 76.0816 38.553 76.0816C40.4142 76.0816 42.8298 78.2992 44.8494 79.804L46.5126 76.636ZM57.4245 75.4876L57.7413 72.7552L48.4749 72.9532L48.7125 75.0124L51.3261 75.1708L51.8409 98.0596L49.2273 98.218L49.5441 100.119L57.0681 100.04L57.5037 97.624L54.5733 97.8616L55.0089 75.3688L57.4245 75.4876ZM61.8576 100.198L73.9356 99.7624L79.1628 93.5848L79.7568 81.0712L73.302 73.1908L61.3032 72.7552L61.8576 100.198ZM74.3712 91.882L71.4408 96.3568L65.4612 96.5944L65.8176 75.9628L71.124 75.8044L75.1236 82.4572L74.3712 91.882ZM93.5252 72.7552L83.2688 72.9928L83.942 100H94.1984L94.436 96.7924L86.4764 97.228L86.3972 85.15L91.3076 84.8728L90.9116 82.6948L86.3576 83.2492L86.318 75.8044L93.6836 76.3588L93.5252 72.7552ZM108.405 96.7132L101.396 97.1488L99.4157 84.754L101.039 77.2696L108.286 76.3192L108.365 72.2404L99.4949 73.27L95.6933 85.744L98.9801 100.317L108.84 100.079L108.405 96.7132ZM114.879 72.3592L110.76 99.6832L114.087 99.8812L116.027 87.8428L119.393 87.6052L121.571 99.6832L124.224 99.9604L119.274 72.3592H114.879ZM116.344 86.1004L117.69 78.2992L119.116 85.9024L116.344 86.1004ZM131.042 88.3972L135.319 100.198L138.131 100L133.497 88.1596L136.111 88.12L138.131 85.3876V76.1608L135.715 72.874H127.161V100H130.25L129.894 88.4764L131.042 88.3972ZM129.419 75.2896H133.814L135.596 77.3884L135.477 83.8828L133.973 85.3876L129.775 85.546L129.419 75.2896Z" fill="white"/>
<path d="M165 141C132.6 129 76.5 133.333 52.5 137V141H165Z" fill="#574CA0"/>
</g>
<defs>
<clipPath id="clip0_874_2466">
<rect width="180" height="180" fill="white"/>
</clipPath>
</defs>
</svg>
