<svg width="180" height="180" viewBox="0 0 180 180" fill="none" xmlns="http://www.w3.org/2000/svg">
<g clip-path="url(#clip0_874_2466)">
<rect width="180" height="180" fill="#D65BC2"/>
<ellipse cx="75.7564" cy="81.8108" rx="43" ry="57.1595" transform="rotate(-24.3736 75.7564 81.8108)" fill="#574CA0"/>
<path d="M43.4836 74.9728L48.4336 77.4676L50.6116 74.7352L46.3744 72.3196L39.7216 73.6264L38.2168 81.2296L48.7108 91.09L47.2456 97.2676L42.652 96.832L40.1968 93.1492L37.7812 96.1588L41.0284 99.9208L49.7008 100.04L52.6312 89.8624L41.464 79.5664L43.4836 74.9728ZM61.3497 75.4876L61.6665 72.7552L52.4001 72.9532L52.6377 75.0124L55.2513 75.1708L55.7661 98.0596L53.1525 98.218L53.4693 100.119L60.9933 100.04L61.4289 97.624L58.4985 97.8616L58.9341 75.3688L61.3497 75.4876ZM65.7827 100.198L77.8607 99.7624L83.0879 93.5848L83.6819 81.0712L77.2271 73.1908L65.2283 72.7552L65.7827 100.198ZM78.2963 91.882L75.3659 96.3568L69.3863 96.5944L69.7427 75.9628L75.0491 75.8044L79.0487 82.4572L78.2963 91.882ZM97.4504 72.7552L87.194 72.9928L87.8672 100H98.1236L98.3612 96.7924L90.4016 97.228L90.3224 85.15L95.2328 84.8728L94.8368 82.6948L90.2828 83.2492L90.2432 75.8044L97.6088 76.3588L97.4504 72.7552ZM112.33 96.7132L105.321 97.1488L103.341 84.754L104.964 77.2696L112.211 76.3192L112.29 72.2404L103.42 73.27L99.6185 85.744L102.905 100.317L112.766 100.079L112.33 96.7132ZM118.804 72.3592L114.686 99.6832L118.012 99.8812L119.952 87.8428L123.318 87.6052L125.496 99.6832L128.15 99.9604L123.2 72.3592H118.804ZM120.269 86.1004L121.616 78.2992L123.041 85.9024L120.269 86.1004ZM134.967 88.3972L139.244 100.198L142.056 100L137.423 88.1596L140.036 88.12L142.056 85.3876V76.1608L139.64 72.874H131.087V100H134.175L133.819 88.4764L134.967 88.3972ZM133.344 75.2896H137.739L139.521 77.3884L139.403 83.8828L137.898 85.3876L133.7 85.546L133.344 75.2896Z" fill="white"/>
<path d="M165 141C132.6 129 76.5 133.333 52.5 137V141H165Z" fill="#574CA0"/>
</g>
<defs>
<clipPath id="clip0_874_2466">
<rect width="180" height="180" fill="white"/>
</clipPath>
</defs>
</svg>
