<svg width="180" height="180" viewBox="0 0 180 180" fill="none" xmlns="http://www.w3.org/2000/svg">
<g clip-path="url(#clip0_874_2779)">
<rect width="180" height="180" fill="#1F6981"/>
<path d="M60.1968 58.5008L64.6468 60.7436L66.6048 58.2872L62.7956 56.1156L56.8148 57.2904L55.462 64.1256L64.896 72.99L63.5788 78.5436L59.4492 78.152L57.242 74.8412L55.0704 77.5468L57.9896 80.9288L65.786 81.0356L68.4204 71.8864L58.3812 62.6304L60.1968 58.5008ZM86.1737 56.258L82.3645 56.6852L79.2673 65.87L75.4937 56.5072L71.3285 56.6496L70.1537 80.9644L73.5713 81.1424L73.6069 61.1352L77.2025 69.8928L79.8369 70.2132L83.2901 61.6692L83.5749 80.8932C83.5749 80.8932 86.7433 80.8932 87.3129 80.8576L86.1737 56.258ZM92.3439 56.1512L88.6415 80.7152L91.6319 80.8932L93.3763 70.0708L96.4023 69.8572L98.3603 80.7152L100.746 80.9644L96.2955 56.1512H92.3439ZM93.6611 68.5044L94.8715 61.4912L96.1531 68.3264L93.6611 68.5044ZM113.283 77.3688L106.519 78.2232L107.266 56.7564L103.386 56.4004L103.777 81.1424L113.71 81.2492L113.283 77.3688ZM125.729 77.3688L118.965 78.2232L119.712 56.7564L115.832 56.4004L116.223 81.1424L126.156 81.2492L125.729 77.3688ZM54.714 92.4004L53.9664 117H62.7952L65.4296 114.935V105.216L62.4392 102.938L65.216 96.2096L63.0088 92.5072L54.714 92.4004ZM63.5072 106.605L63.3292 113.226L61.2288 114.757L57.8112 114.437L57.8468 105.216L61.122 104.682L63.5072 106.605ZM59.8404 102.831L57.8468 103.223L57.8824 94.6432L61.0864 94.6076L62.4036 96.5656L59.8404 102.831ZM75.5456 94.9636L75.8304 92.5072L67.5 92.6852L67.7136 94.5364L70.0632 94.6788L70.526 115.256L68.1764 115.398L68.4612 117.107L75.2252 117.036L75.6168 114.864L72.9824 115.078L73.374 94.8568L75.5456 94.9636ZM92.1772 92.7208L79.2544 92.7564L78.934 96.53L88.4748 95.6756L76.9404 114.223L77.7948 116.893L90.2548 117V114.366L80.5004 113.262L91.572 97.2776L92.1772 92.7208ZM109.183 98.9508L104.733 92.6852L98.4673 92.258L92.8781 98.5948L93.1629 110.984L97.7197 117.178L103.736 117.107L108.506 110.841L109.183 98.9508ZM105.231 110.378L102.312 114.544L98.8589 114.437L96.2601 110.414L95.6905 100.731L100.034 94.9636L102.704 95.0704L105.445 98.5948L105.231 110.378ZM126.222 92.614L122.27 92.436L122.947 110.058L116.147 92.436H112.338L112.694 117.036L116.04 116.964L115.506 97.9896L122.804 116.964H125.617L126.222 92.614Z" fill="white"/>
<path d="M203.997 137.011C168.067 131.125 38.2408 146.239 -22.181 154.532L-22.181 189.985L190.864 197.771L196.51 189.985L203.997 137.011Z" fill="#144F61"/>
<path d="M142.734 124.886C142.734 124.56 143.487 124.208 143.863 124.072L145.402 124.275L146.428 123.054L150.224 121.12L154.328 120L160.176 120.407L168.691 122.341L170.333 123.359L170.948 124.479V127.533L173 128.449L172.282 129.263L170.538 128.144C170.469 127.635 170.333 126.556 170.333 126.311C170.333 126.006 170.538 124.479 170.538 124.275C170.538 124.113 169.922 123.597 169.614 123.359V123.97C169.614 124.174 169.717 126.515 169.614 127.228C169.512 127.94 170.025 129.467 170.333 129.976C170.64 130.485 170.333 130.994 170.333 131.401C170.333 131.727 171.358 133.98 171.871 135.066L171.358 137H170.538C170.469 136.559 170.333 135.636 170.333 135.473C170.333 135.269 169.409 132.012 169.101 131.605C168.855 131.279 167.836 129.908 167.357 129.263C167.46 129.637 167.665 130.505 167.665 130.994C167.665 131.483 167.939 131.605 168.075 131.605L165.51 136.593L163.972 136.796C164.314 136.355 165.018 135.473 165.1 135.473C165.203 135.473 166.229 133.743 166.331 132.725C166.413 131.91 165.34 130.214 164.792 129.467L162.535 130.994L158.842 131.605C158.739 131.978 158.493 132.806 158.329 133.132C158.165 133.457 157.987 133.946 157.918 134.15V135.473C157.918 135.636 157.713 136.287 157.611 136.593H156.174L156.585 135.982L157.098 134.659L156.585 132.725L155.969 131.401L154.943 132.725C153.78 133.166 151.393 134.068 151.147 134.15C150.901 134.231 150.771 135.066 150.737 135.473L149.916 137L147.864 136.796C148.274 136.423 149.157 135.636 149.403 135.473C149.649 135.31 149.506 134.862 149.403 134.659C149.54 134.319 149.834 133.58 149.916 133.335C149.998 133.091 150.155 132.216 150.224 131.808L149.403 129.976H148.89C148.651 130.078 148.11 130.302 147.864 130.383C147.556 130.485 146.838 131.707 146.428 132.012C146.099 132.256 145.812 132.589 145.709 132.725L144.684 132.419H143.145L142.529 132.012C142.597 131.741 142.734 131.137 142.734 130.892C142.734 130.587 142.119 129.467 142.016 129.162C141.934 128.917 142.187 128.381 142.324 128.144V126.515C142.324 126.006 142.734 125.293 142.734 124.886Z" fill="#144F61"/>
</g>
<defs>
<clipPath id="clip0_874_2779">
<rect width="180" height="180" fill="white"/>
</clipPath>
</defs>
</svg>
