<svg width="180" height="180" viewBox="0 0 180 180" fill="none" xmlns="http://www.w3.org/2000/svg">
<g clip-path="url(#clip0_874_2707)">
<rect width="180" height="180" fill="#242320"/>
<path d="M67 141.5C53 131.9 34.8333 143.5 27.5 150.5C12.5 -14.9999 118.5 12.5003 132 37.0003C142.8 56.6003 147 116.167 143.5 146C137 141.5 127.5 141.5 109.5 150.5C91.5 159.5 84.5 153.5 67 141.5Z" fill="#464646"/>
<path d="M42.95 58.5008L47.4 60.7436L49.358 58.2872L45.5488 56.1156L39.568 57.2904L38.2152 64.1256L47.6492 72.99L46.332 78.5436L42.2024 78.152L39.9952 74.8412L37.8236 77.5468L40.7428 80.9288L48.5392 81.0356L51.1736 71.8864L41.1344 62.6304L42.95 58.5008ZM69.4253 62.9508L64.9753 56.6852L58.7097 56.258L53.1205 62.5948L53.4053 74.9836L57.9621 81.178L63.9785 81.1068L68.7489 74.8412L69.4253 62.9508ZM65.4737 74.3784L62.5545 78.5436L59.1013 78.4368L56.5025 74.414L55.9329 64.7308L60.2761 58.9636L62.9461 59.0704L65.6873 62.5948L65.4737 74.3784ZM83.9988 73.4884L82.3256 77.4044L77.7688 77.796L75.2412 73.5596L75.9176 56.4004L72.3576 56.1868L72.0016 75.6244L75.4192 80.9288L84.07 81.1424L87.274 76.016L87.9148 56.4004L83.5716 56.5784L83.9988 73.4884ZM101.112 77.3688L94.3475 78.2232L95.0951 56.7564L91.2147 56.4004L91.6063 81.1424L101.539 81.2492L101.112 77.3688ZM104.159 56.7564L103.661 80.9644L107.078 80.7152L106.758 68.54L110.888 68.6468L110.994 66.6176L106.722 66.938L106.58 60.0316L112.525 59.3908L112.276 56.2936L104.159 56.7564ZM125.683 73.4884L124.01 77.4044L119.453 77.796L116.925 73.5596L117.602 56.4004L114.042 56.1868L113.686 75.6244L117.103 80.9288L125.754 81.1424L128.958 76.016L129.599 56.4004L125.256 56.5784L125.683 73.4884ZM142.795 77.3688L136.031 78.2232L136.779 56.7564L132.899 56.4004L133.29 81.1424L143.223 81.2492L142.795 77.3688ZM64.7368 95.5688L62.5296 92.5784H54.5196V117H57.2608L56.9048 106.64L62.5296 106.462L64.7012 103.828L64.7368 95.5688ZM61.96 102.546L60.6072 103.828L56.8336 103.97L56.5132 94.8212H60.4648L62.0668 96.6724L61.96 102.546ZM78.0365 109.488L76.3633 113.404L71.8065 113.796L69.2789 109.56L69.9553 92.4004L66.3953 92.1868L66.0393 111.624L69.4569 116.929L78.1077 117.142L81.3117 112.016L81.9525 92.4004L77.6093 92.5784L78.0365 109.488ZM99.1364 92.614L95.1848 92.436L95.8612 110.058L89.0616 92.436H85.2524L85.6084 117.036L88.9548 116.964L88.4208 97.9896L95.7188 116.964H98.5312L99.1364 92.614ZM113.76 114.045L107.458 114.437L105.678 103.294L107.138 96.5656L113.653 95.7112L113.724 92.0444L105.75 92.97L102.332 104.184L105.287 117.285L114.151 117.071L113.76 114.045ZM116.668 117.071H118.413L118.057 103.543H122.435L122.649 117.071H125.497L124.643 92.4004H122.293L122.435 101.799L118.021 102.119L117.772 92.4004H115.707L116.668 117.071Z" fill="white"/>
</g>
<defs>
<clipPath id="clip0_874_2707">
<rect width="180" height="180" fill="white"/>
</clipPath>
</defs>
</svg>
