<svg width="180" height="180" viewBox="0 0 180 180" fill="none" xmlns="http://www.w3.org/2000/svg">
<g clip-path="url(#clip0_874_2707)">
<rect width="180" height="180" fill="#242320"/>
<path d="M67 141.5C53 131.9 34.8333 143.5 27.5 150.5C12.5 -14.9999 118.5 12.5003 132 37.0003C142.8 56.6003 147 116.167 143.5 146C137 141.5 127.5 141.5 109.5 150.5C91.5 159.5 84.5 153.5 67 141.5Z" fill="#464646"/>
<path d="M71.5908 59.996C69.7752 58.6076 67.1408 56.6852 64.6132 56.6852C61.5516 56.6852 60.3412 59.3196 60.3412 61.5624C60.3412 68.0772 67.9952 69.5368 67.9952 75.2328C67.9952 76.4788 67.4968 77.8672 66.0016 77.8672C63.9012 77.8672 62.228 76.2652 60.5192 73.9156L58.4544 76.2652C60.5548 79.4692 62.6196 81.3204 65.4676 81.3204C68.3156 81.3204 70.8788 79.3624 70.8788 75.0904C70.8788 69.3232 62.8688 65.6208 62.8688 61.6692C62.8688 60.6368 63.4028 59.4976 64.4352 59.4976C66.1084 59.4976 68.28 61.4912 70.0956 62.844L71.5908 59.996ZM89.6241 62.9508L85.1741 56.6852L78.9085 56.258L73.3193 62.5948L73.6041 74.9836L78.1609 81.178L84.1773 81.1068L88.9477 74.8412L89.6241 62.9508ZM85.6725 74.3784L82.7533 78.5436L79.3001 78.4368L76.7013 74.414L76.1317 64.7308L80.4749 58.9636L83.1449 59.0704L85.8861 62.5948L85.6725 74.3784ZM104.198 73.4884L102.524 77.4044L97.9676 77.796L95.44 73.5596L96.1164 56.4004L92.5564 56.1868L92.2004 75.6244L95.618 80.9288L104.269 81.1424L107.473 76.016L108.114 56.4004L103.77 56.5784L104.198 73.4884ZM121.31 77.3688L114.546 78.2232L115.294 56.7564L111.414 56.4004L111.805 81.1424L121.738 81.2492L121.31 77.3688ZM64.7368 95.5688L62.5296 92.5784H54.5196V117H57.2608L56.9048 106.64L62.5296 106.462L64.7012 103.828L64.7368 95.5688ZM61.96 102.546L60.6072 103.828L56.8336 103.97L56.5132 94.8212H60.4648L62.0668 96.6724L61.96 102.546ZM78.0365 109.488L76.3633 113.404L71.8065 113.796L69.2789 109.56L69.9553 92.4004L66.3953 92.1868L66.0393 111.624L69.4569 116.929L78.1077 117.142L81.3117 112.016L81.9525 92.4004L77.6093 92.5784L78.0365 109.488ZM99.1364 92.614L95.1848 92.436L95.8612 110.058L89.0616 92.436H85.2524L85.6084 117.036L88.9548 116.964L88.4208 97.9896L95.7188 116.964H98.5312L99.1364 92.614ZM113.76 114.045L107.458 114.437L105.678 103.294L107.138 96.5656L113.653 95.7112L113.724 92.0444L105.75 92.97L102.332 104.184L105.287 117.285L114.151 117.071L113.76 114.045ZM116.668 117.071H118.413L118.057 103.543H122.435L122.649 117.071H125.497L124.643 92.4004H122.293L122.435 101.799L118.021 102.119L117.772 92.4004H115.707L116.668 117.071Z" fill="white"/>
</g>
<defs>
<clipPath id="clip0_874_2707">
<rect width="180" height="180" fill="white"/>
</clipPath>
</defs>
</svg>
