<svg width="180" height="180" viewBox="0 0 180 180" fill="none" xmlns="http://www.w3.org/2000/svg">
<g clip-path="url(#clip0_874_2689)">
<rect width="180" height="180" fill="#CC4163"/>
<path d="M64.5209 20.8375L57.568 25.5145L47.4749 32.3037C33.9054 41.4314 28.3434 83.2883 55.3872 96.3714C77.0222 106.838 72.6402 134.935 67.7448 147.676L159.703 85.8185C152.177 84.8001 127.607 83.6272 118.009 47.081C109.226 13.6356 72.9541 17.5538 64.5209 20.8375Z" fill="#FFBE3F"/>
<path d="M112.403 123.5L88.8522 139.341C92.0205 144.051 100.779 151.647 110.465 144.35C120.151 137.053 115.793 127.409 112.403 123.5Z" fill="#FFBE3F"/>
<path d="M41.7792 59.996C39.9636 58.6076 37.3292 56.6852 34.8016 56.6852C31.74 56.6852 30.5296 59.3196 30.5296 61.5624C30.5296 68.0772 38.1836 69.5368 38.1836 75.2328C38.1836 76.4788 37.6852 77.8672 36.19 77.8672C34.0896 77.8672 32.4164 76.2652 30.7076 73.9156L28.6428 76.2652C30.7432 79.4692 32.808 81.3204 35.656 81.3204C38.504 81.3204 41.0672 79.3624 41.0672 75.0904C41.0672 69.3232 33.0572 65.6208 33.0572 61.6692C33.0572 60.6368 33.5912 59.4976 34.6236 59.4976C36.2968 59.4976 38.4684 61.4912 40.284 62.844L41.7792 59.996ZM59.8126 62.9508L55.3626 56.6852L49.097 56.258L43.5078 62.5948L43.7926 74.9836L48.3494 81.178L54.3658 81.1068L59.1362 74.8412L59.8126 62.9508ZM55.861 74.3784L52.9418 78.5436L49.4886 78.4368L46.8898 74.414L46.3202 64.7308L50.6634 58.9636L53.3334 59.0704L56.0746 62.5948L55.861 74.3784ZM74.3861 73.4884L72.7129 77.4044L68.1561 77.796L65.6285 73.5596L66.3049 56.4004L62.7449 56.1868L62.3889 75.6244L65.8065 80.9288L74.4573 81.1424L77.6613 76.016L78.3021 56.4004L73.9589 56.5784L74.3861 73.4884ZM93.8128 56.1868L79.6796 57.0056L79.822 58.9992H85.2688L84.806 81.2492L87.8676 80.822L88.9356 58.9992L93.6704 59.0704L93.8128 56.1868ZM97.0257 81.0712H98.7701L98.4141 67.5432H102.793L103.007 81.0712H105.855L105 56.4004H102.651L102.793 65.7988L98.3785 66.1192L98.1293 56.4004H96.0645L97.0257 81.0712ZM119.33 56.5072L110.11 56.7208L110.715 81H119.935L120.149 78.1164L112.993 78.508L112.922 67.65L117.337 67.4008L116.981 65.4428L112.887 65.9412L112.851 59.2484L119.473 59.7468L119.33 56.5072ZM125.836 70.5692L129.681 81.178L132.209 81L128.043 70.3556L130.393 70.32L132.209 67.8636V59.5688L130.037 56.614H122.347V81H125.124L124.804 70.6404L125.836 70.5692ZM124.377 58.7856H128.328L129.93 60.6724L129.823 66.5108L128.471 67.8636L124.697 68.006L124.377 58.7856ZM149.407 56.614L145.456 56.436L146.132 74.058L139.333 56.436L135.523 56.436L135.879 81.0356L139.226 80.9644L138.692 61.9896L145.99 80.9644H148.802L149.407 56.614ZM67.018 92.4004L66.2704 117H75.0992L77.7336 114.935V105.216L74.7432 102.938L77.52 96.2096L75.3128 92.5072L67.018 92.4004ZM75.8112 106.605L75.6332 113.226L73.5328 114.757L70.1152 114.437L70.1508 105.216L73.426 104.682L75.8112 106.605ZM72.1444 102.831L70.1508 103.223L70.1864 94.6432L73.3904 94.6076L74.7076 96.5656L72.1444 102.831ZM90.0923 92.5072L80.8719 92.7208L81.4771 117H90.6975L90.9111 114.116L83.7555 114.508L83.6843 103.65L88.0987 103.401L87.7427 101.443L83.6487 101.941L83.6131 95.2484L90.2347 95.7468L90.0923 92.5072ZM103.006 113.369L96.2422 114.223L96.9898 92.7564L93.1094 92.4004L93.501 117.142L103.433 117.249L103.006 113.369ZM115.452 113.369L108.688 114.223L109.436 92.7564L105.556 92.4004L105.947 117.142L115.88 117.249L115.452 113.369Z" fill="white"/>
<circle cx="57" cy="28" r="15" fill="#FFBE3F"/>
</g>
<defs>
<clipPath id="clip0_874_2689">
<rect width="180" height="180" fill="white"/>
</clipPath>
</defs>
</svg>
