<svg width="180" height="180" viewBox="0 0 180 180" fill="none" xmlns="http://www.w3.org/2000/svg">
<g clip-path="url(#clip0_874_2213)">
<rect width="180" height="180" fill="#ED9A38"/>
<path d="M74.9809 50.4725C72.0085 55.8845 65.2116 57.8623 59.7995 54.8899C54.3875 51.9175 52.4098 45.1206 55.3821 39.7086C58.3545 34.2965 74.9874 14.4096 80.3995 17.382C85.8115 20.3543 77.9532 45.0605 74.9809 50.4725Z" fill="#4191CC"/>
<path d="M15.9809 17.4725C13.0085 22.8845 6.21158 24.8623 0.799538 21.8899C-4.61251 18.9175 -6.59025 12.1206 -3.61787 6.70857C-0.645493 1.29652 15.9874 -18.5904 21.3995 -15.618C26.8115 -12.6457 18.9532 12.0605 15.9809 17.4725Z" fill="#4191CC"/>
<path d="M130.124 119.577C124.02 130.691 110.062 134.752 98.9476 128.648C87.8336 122.544 83.7721 108.586 89.8761 97.4721C95.9801 86.358 130.137 45.5186 141.251 51.6226C152.365 57.7266 136.228 108.463 130.124 119.577Z" fill="#4191CC"/>
<path d="M120.864 188.979C117.461 195.176 109.679 197.44 103.483 194.037C97.2874 190.634 95.0231 182.852 98.4261 176.656C101.829 170.46 120.872 147.692 127.068 151.095C133.264 154.498 124.267 182.783 120.864 188.979Z" fill="#4191CC"/>
<path d="M209.259 94.2647C202.208 107.103 186.085 111.795 173.246 104.744C160.408 97.6927 155.716 81.569 162.767 68.7305C169.818 55.892 209.275 8.71604 222.113 15.7671C234.952 22.8182 216.31 81.4263 209.259 94.2647Z" fill="#4191CC"/>
<path d="M167.462 24.5164C162.925 32.778 152.549 35.7971 144.288 31.2597C136.026 26.7223 133.007 16.3466 137.544 8.08498C142.082 -0.176653 167.472 -30.5346 175.734 -25.9972C183.996 -21.4598 172 16.2548 167.462 24.5164Z" fill="#4191CC"/>
<path d="M19.5423 122.097C17.217 126.331 11.8998 127.878 7.66592 125.553C3.43207 123.228 1.88487 117.91 4.21017 113.676C6.53547 109.443 19.5475 93.885 23.7813 96.2103C28.0152 98.5356 21.8676 117.863 19.5423 122.097Z" fill="#4191CC"/>
<path d="M27.7761 54.9728L32.7261 57.4676L34.9041 54.7352L30.6669 52.3196L24.0141 53.6264L22.5093 61.2296L33.0033 71.09L31.5381 77.2676L26.9445 76.832L24.4893 73.1492L22.0737 76.1588L25.3209 79.9208L33.9933 80.0396L36.9237 69.8624L25.7565 59.5664L27.7761 54.9728ZM57.2262 59.9228L52.2762 52.9532L45.3066 52.478L39.0894 59.5268L39.4062 73.3076L44.475 80.198L51.1674 80.1188L56.4738 73.1492L57.2262 59.9228ZM52.8306 72.6344L49.5834 77.2676L45.7422 77.1488L42.8514 72.674L42.2178 61.9028L47.049 55.4876L50.019 55.6064L53.0682 59.5268L52.8306 72.6344ZM73.4371 71.6444L71.5759 76.0004L66.5071 76.436L63.6955 71.7236L64.4479 52.6364L60.4879 52.3988L60.0919 74.0204L63.8935 79.9208L73.5163 80.1584L77.0803 74.456L77.7931 52.6364L72.9619 52.8344L73.4371 71.6444ZM95.0466 52.3988L79.3254 53.3096L79.4838 55.5272H85.5426L85.0278 80.2772L88.4334 79.802L89.6214 55.5272L94.8882 55.6064L95.0466 52.3988ZM98.6205 80.0792H100.561L100.165 65.0312H105.036L105.273 80.0792H108.441L107.491 52.6364H104.877L105.036 63.0908L100.125 63.4472L99.8481 52.6364H97.5513L98.6205 80.0792ZM123.431 52.7552L113.175 52.9928L113.848 80H124.104L124.342 76.7924L116.382 77.228L116.303 65.15L121.214 64.8728L120.818 62.6948L116.264 63.2492L116.224 55.8044L123.59 56.3588L123.431 52.7552ZM130.668 68.3972L134.945 80.198L137.756 80L133.123 68.1596L135.737 68.12L137.756 65.3876V56.1608L135.341 52.874H126.787V80H129.876L129.52 68.4764L130.668 68.3972ZM129.044 55.2896H133.44L135.222 57.3884L135.103 63.8828L133.598 65.3876L129.401 65.546L129.044 55.2896ZM156.888 52.874L152.492 52.676L153.245 72.278L145.681 52.676H141.444L141.84 80.0396L145.562 79.9604L144.968 58.8536L153.086 79.9604H156.215L156.888 52.874ZM48.4962 92.6364L47.6646 120H57.4854L60.4158 117.703V106.892L57.0894 104.358L60.1782 96.8736L57.723 92.7552L48.4962 92.6364ZM58.2774 108.437L58.0794 115.802L55.743 117.505L51.9414 117.149L51.981 106.892L55.6242 106.298L58.2774 108.437ZM54.1986 104.239L51.981 104.675L52.0206 95.1312L55.5846 95.0916L57.0498 97.2696L54.1986 104.239ZM67.7876 108.397L72.0644 120.198L74.876 120L70.2428 108.16L72.8564 108.12L74.876 105.388V96.1608L72.4604 92.874H63.9068V120H66.9956L66.6392 108.476L67.7876 108.397ZM66.164 95.2896H70.5596L72.3416 97.3884L72.2228 103.883L70.718 105.388L66.5204 105.546L66.164 95.2896ZM88.8199 92.7552L78.5635 92.9928L79.2367 120H89.4931L89.7307 116.792L81.7711 117.228L81.6919 105.15L86.6023 104.873L86.2063 102.695L81.6523 103.249L81.6127 95.8044L88.9783 96.3588L88.8199 92.7552ZM102.432 92.7552L92.1759 92.9928L92.8491 120H103.106L103.343 116.792L95.3835 117.228L95.3043 105.15L100.215 104.873L99.8187 102.695L95.2647 103.249L95.2251 95.8044L102.591 96.3588L102.432 92.7552ZM120.797 92.9928L106.422 93.0324L106.066 97.23L116.678 96.2796L103.848 116.911L104.798 119.881L118.658 120V117.07L107.808 115.842L120.124 98.0616L120.797 92.9928ZM133.911 92.7552L123.655 92.9928L124.328 120H134.584L134.822 116.792L126.862 117.228L126.783 105.15L131.694 104.873L131.298 102.695L126.744 103.249L126.704 95.8044L134.07 96.3588L133.911 92.7552Z" fill="white"/>
</g>
<defs>
<clipPath id="clip0_874_2213">
<rect width="180" height="180" fill="white"/>
</clipPath>
</defs>
</svg>
