<svg width="180" height="180" viewBox="0 0 180 180" fill="none" xmlns="http://www.w3.org/2000/svg">
<g clip-path="url(#clip0_874_2578)">
<rect width="180" height="180" fill="#3EC26B"/>
<path d="M35 126L75 31H63.8655L8.19299 93.2689H-61V126H35Z" fill="#304034"/>
<path d="M144 126L104 31H115.134L170.807 93.2689H240V126H144Z" fill="#304034"/>
<path d="M45.3662 76.5008L49.8162 78.7436L51.7742 76.2872L47.965 74.1156L41.9842 75.2904L40.6314 82.1256L50.0654 90.99L48.7482 96.5436L44.6186 96.152L42.4114 92.8412L40.2398 95.5468L43.159 98.9288L50.9554 99.0356L53.5898 89.8864L43.5506 80.6304L45.3662 76.5008ZM67.0085 74.1868L52.8753 75.0056L53.0177 76.9992H58.4645L58.0017 99.2492L61.0633 98.822L62.1313 76.9992L66.8661 77.0704L67.0085 74.1868ZM72.1438 88.1776C76.843 87.43 78.1246 83.6208 78.1246 80.4524C78.1246 77.3908 76.9142 74.5072 72.0014 74.5072H70.1858L69.2958 75.7176L69.2602 99L72.393 98.6796L72.1438 88.1776ZM75.775 80.8796C75.775 83.4784 74.4934 85.4364 72.1082 86.1128L72.0014 76.7144C74.5646 76.9636 75.775 78.4944 75.775 80.8796ZM98.2781 95.3688L91.5141 96.2232L92.2617 74.7564L88.3813 74.4004L88.7729 99.1424L98.7053 99.2492L98.2781 95.3688ZM107.805 76.9636L108.09 74.5072L99.7594 74.6852L99.973 76.5364L102.323 76.6788L102.785 97.2556L100.436 97.398L100.721 99.1068L107.485 99.0356L107.876 96.864L105.242 97.0776L105.633 76.8568L107.805 76.9636ZM111.648 74.5072L111.292 99.0712L114.745 99.0356L114.852 88.498L116.596 86.8248L126.635 99.6052L129.234 97.7896L118.875 85.116L127.383 76.8568L125.389 74.7564L114.887 85.2584L114.994 74.7208L111.648 74.5072ZM139.911 74.5072L130.691 74.7208L131.296 99H140.517L140.73 96.1164L133.575 96.508L133.503 85.65L137.918 85.4008L137.562 83.4428L133.468 83.9412L133.432 77.2484L140.054 77.7468L139.911 74.5072Z" fill="white"/>
</g>
<defs>
<clipPath id="clip0_874_2578">
<rect width="180" height="180" fill="white"/>
</clipPath>
</defs>
</svg>
