<svg width="180" height="180" viewBox="0 0 180 180" fill="none" xmlns="http://www.w3.org/2000/svg">
<g clip-path="url(#clip0_874_2578)">
<rect width="180" height="180" fill="#3EC26B"/>
<path d="M35 126L75 31H63.8655L8.19299 93.2689H-61V126H35Z" fill="#304034"/>
<path d="M144 126L104 31H115.134L170.807 93.2689H240V126H144Z" fill="#304034"/>
<path d="M62.2736 41.996C60.458 40.6076 57.8236 38.6852 55.296 38.6852C52.2344 38.6852 51.024 41.3196 51.024 43.5624C51.024 50.0772 58.678 51.5368 58.678 57.2328C58.678 58.4788 58.1796 59.8672 56.6844 59.8672C54.584 59.8672 52.9108 58.2652 51.202 55.9156L49.1372 58.2652C51.2376 61.4692 53.3024 63.3204 56.1504 63.3204C58.9984 63.3204 61.5616 61.3624 61.5616 57.0904C61.5616 51.3232 53.5516 47.6208 53.5516 43.6692C53.5516 42.6368 54.0856 41.4976 55.118 41.4976C56.7912 41.4976 58.9628 43.4912 60.7784 44.844L62.2736 41.996ZM67.1705 38.1512L63.4681 62.7152L66.4585 62.8932L68.2029 52.0708L71.2289 51.8572L73.1869 62.7152L75.5721 62.9644L71.1221 38.1512H67.1705ZM68.4877 50.5044L69.6981 43.4912L70.9797 50.3264L68.4877 50.5044ZM85.19 40.9636L85.4748 38.5072L77.1444 38.6852L77.358 40.5364L79.7076 40.6788L80.1704 61.2556L77.8208 61.398L78.1056 63.1068L84.8696 63.0356L85.2612 60.864L82.6268 61.0776L83.0184 40.8568L85.19 40.9636ZM102.561 38.614L98.6092 38.436L99.2856 56.058L92.486 38.436H88.6768L89.0328 63.0356L92.3792 62.9644L91.8452 43.9896L99.1432 62.9644H101.956L102.561 38.614ZM119.035 38.1868L104.902 39.0056L105.044 40.9992H110.491L110.028 63.2492L113.09 62.822L114.158 40.9992L118.893 41.0704L119.035 38.1868ZM120.931 51.3232L128.905 51.9996L129.261 49.1872H120.931V51.3232ZM13.5811 88.1776C18.2803 87.43 19.5619 83.6208 19.5619 80.4524C19.5619 77.3908 18.3515 74.5072 13.4387 74.5072H11.6231L10.7331 75.7176L10.6975 99L13.8303 98.6796L13.5811 88.1776ZM17.2123 80.8796C17.2123 83.4784 15.9307 85.4364 13.5455 86.1128L13.4387 76.7144C16.0019 76.9636 17.2123 78.4944 17.2123 80.8796ZM31.0777 74.5072L21.8573 74.7208L22.4625 99H31.6829L31.8965 96.1164L24.7409 96.508L24.6697 85.65L29.0841 85.4008L28.7281 83.4428L24.6341 83.9412L24.5985 77.2484L31.2201 77.7468L31.0777 74.5072ZM47.4181 74.1868L33.2849 75.0056L33.4273 76.9992H38.8741L38.4113 99.2492L41.4729 98.822L42.5409 76.9992L47.2757 77.0704L47.4181 74.1868ZM58.8902 74.5072L49.6698 74.7208L50.275 99H59.4954L59.709 96.1164L52.5534 96.508L52.4822 85.65L56.8966 85.4008L56.5406 83.4428L52.4466 83.9412L52.411 77.2484L59.0326 77.7468L58.8902 74.5072ZM65.3961 88.5692L69.2409 99.178L71.7685 99L67.6033 88.3556L69.9529 88.32L71.7685 85.8636V77.5688L69.5969 74.614H61.9073V99H64.6841L64.3637 88.6404L65.3961 88.5692ZM63.9365 76.7856H67.8881L69.4901 78.6724L69.3833 84.5108L68.0305 85.8636L64.2569 86.006L63.9365 76.7856ZM78.4109 76.5008L82.8609 78.7436L84.8189 76.2872L81.0097 74.1156L75.0289 75.2904L73.6761 82.1256L83.1101 90.99L81.7929 96.5436L77.6633 96.152L75.4561 92.8412L73.2845 95.5468L76.2037 98.9288L84.0001 99.0356L86.6345 89.8864L76.5953 80.6304L78.4109 76.5008ZM90.4326 74.4004L89.685 99H98.5138L101.148 96.9352V87.2164L98.1578 84.938L100.935 78.2096L98.7274 74.5072L90.4326 74.4004ZM99.2258 88.6048L99.0478 95.2264L96.9474 96.7572L93.5298 96.4368L93.5654 87.2164L96.8406 86.6824L99.2258 88.6048ZM95.559 84.8312L93.5654 85.2228L93.601 76.6432L96.805 76.6076L98.1222 78.5656L95.559 84.8312ZM119.488 80.9508L115.038 74.6852L108.772 74.258L103.183 80.5948L103.468 92.9836L108.025 99.178L114.041 99.1068L118.811 92.8412L119.488 80.9508ZM115.536 92.3784L112.617 96.5436L109.164 96.4368L106.565 92.414L105.995 82.7308L110.339 76.9636L113.009 77.0704L115.75 80.5948L115.536 92.3784ZM134.061 91.4884L132.388 95.4044L127.831 95.796L125.304 91.5596L125.98 74.4004L122.42 74.1868L122.064 93.6244L125.482 98.9288L134.132 99.1424L137.336 94.016L137.977 74.4004L133.634 74.5784L134.061 91.4884ZM144.766 88.5692L148.611 99.178L151.138 99L146.973 88.3556L149.323 88.32L151.138 85.8636V77.5688L148.967 74.614H141.277V99H144.054L143.734 88.6404L144.766 88.5692ZM143.306 76.7856H147.258L148.86 78.6724L148.753 84.5108L147.4 85.8636L143.627 86.006L143.306 76.7856ZM170.046 77.9604L166.878 74.8276L162.499 74.1156L156.34 76.7144L153.385 86.1128L155.593 96.3656L162.428 99.5696L170.58 97.1132L170.331 88.9252L169.121 87.5012L165.062 87.2164V90.5628L167.946 90.3492L167.768 95.1552L162.819 96.2944L158.369 93.482L156.376 86.3976L158.975 78.53L164.671 76.8924L167.946 80.0252L170.046 77.9604ZM61.9494 112.501L66.3994 114.744L68.3574 112.287L64.5482 110.116L58.5674 111.29L57.2146 118.126L66.6486 126.99L65.3314 132.544L61.2018 132.152L58.9946 128.841L56.823 131.547L59.7422 134.929L67.5386 135.036L70.173 125.886L60.1338 116.63L61.9494 112.501ZM83.5917 110.187L69.4585 111.006L69.6009 112.999H75.0477L74.5849 135.249L77.6465 134.822L78.7145 112.999L83.4493 113.07L83.5917 110.187ZM96.1763 110.472L92.5451 119.585L88.2019 110.614L85.1759 110.792L91.2991 122.825L91.4415 134.964H95.1439L94.7879 122.896L99.9143 110.721L96.1763 110.472ZM111.559 131.369L104.795 132.223L105.542 110.756L101.662 110.4L102.053 135.142L111.986 135.249L111.559 131.369ZM123.328 110.507L114.108 110.721L114.713 135H123.933L124.147 132.116L116.991 132.508L116.92 121.65L121.335 121.401L120.979 119.443L116.885 119.941L116.849 113.248L123.471 113.747L123.328 110.507Z" fill="white"/>
</g>
<defs>
<clipPath id="clip0_874_2578">
<rect width="180" height="180" fill="white"/>
</clipPath>
</defs>
</svg>
