<svg width="180" height="180" viewBox="0 0 180 180" fill="none" xmlns="http://www.w3.org/2000/svg">
<g clip-path="url(#clip0_873_2103)">
<rect width="180" height="180" fill="#E78173"/>
<path d="M87.5 156.5C78.7 92.1 -3.83333 71.3333 -44 69L-17.5 196.5H186V72.5C122.4 62.1 93.8333 124.167 87.5 156.5Z" fill="#AC3424"/>
<path d="M23.2641 56.636C21.2445 55.0916 18.3141 52.9532 15.5025 52.9532C12.0969 52.9532 10.7505 55.8836 10.7505 58.3784C10.7505 65.6252 19.2645 67.2488 19.2645 73.5848C19.2645 74.9708 18.7101 76.5152 17.0469 76.5152C14.7105 76.5152 12.8493 74.7332 10.9485 72.1196L8.65167 74.7332C10.9881 78.2972 13.2849 80.3564 16.4529 80.3564C19.6209 80.3564 22.4721 78.1784 22.4721 73.4264C22.4721 67.0112 13.5621 62.8928 13.5621 58.4972C13.5621 57.3488 14.1561 56.0816 15.3045 56.0816C17.1657 56.0816 19.5813 58.2992 21.6009 59.804L23.2641 56.636ZM39.9972 52.3988L24.276 53.3096L24.4344 55.5272H30.4932L29.9784 80.2772L33.384 79.802L34.572 55.5272L39.8388 55.6064L39.9972 52.3988ZM46.3827 68.3972L50.6595 80.198L53.4711 80L48.8379 68.1596L51.4515 68.12L53.4711 65.3876V56.1608L51.0555 52.874H42.5019V80H45.5907L45.2343 68.4764L46.3827 68.3972ZM44.7591 55.2896H49.1547L50.9367 57.3884L50.8179 63.8828L49.3131 65.3876L45.1155 65.546L44.7591 55.2896ZM59.4554 52.3592L55.337 79.6832L58.6634 79.8812L60.6038 67.8428L63.9698 67.6052L66.1478 79.6832L68.801 79.9604L63.851 52.3592H59.4554ZM60.9206 66.1004L62.267 58.2992L63.6926 65.9024L60.9206 66.1004ZM82.9447 69.6644L86.1523 79.9604L89.9935 80.0792L95.2603 52.874L90.2707 52.7948L87.7363 74.6144L83.8159 63.4868L82.2319 63.6848L77.4403 76.3568L74.3515 52.7948L70.3519 52.5968L75.3019 80.1188L78.9847 80L82.9447 69.6644ZM99.4077 52.6364L98.5761 80H108.397L111.327 77.7032V66.8924L108.001 64.358L111.09 56.8736L108.635 52.7552L99.4077 52.6364ZM109.189 68.4368L108.991 75.8024L106.655 77.5052L102.853 77.1488L102.893 66.8924L106.536 66.2984L109.189 68.4368ZM105.11 64.2392L102.893 64.6748L102.932 55.1312L106.496 55.0916L107.961 57.2696L105.11 64.2392ZM125.075 52.7552L114.818 52.9928L115.492 80H125.748L125.986 76.7924L118.026 77.228L117.947 65.15L122.857 64.8728L122.461 62.6948L117.907 63.2492L117.868 55.8044L125.233 56.3588L125.075 52.7552ZM132.312 68.3972L136.588 80.198L139.4 80L134.767 68.1596L137.38 68.12L139.4 65.3876V56.1608L136.984 52.874L128.431 52.874V80H131.52L131.163 68.4764L132.312 68.3972ZM130.688 55.2896H135.084L136.866 57.3884L136.747 63.8828L135.242 65.3876L131.044 65.546L130.688 55.2896ZM146.968 68.3972L151.245 80.198L154.057 80L149.423 68.1596L152.037 68.12L154.057 65.3876V56.1608L151.641 52.874H143.087V80H146.176L145.82 68.4764L146.968 68.3972ZM145.345 55.2896H149.74L151.522 57.3884L151.403 63.8828L149.899 65.3876L145.701 65.546L145.345 55.2896ZM167.15 52.7156L163.111 62.8532L158.279 52.874L154.913 53.072L161.725 66.4568L161.883 79.9604H166.001L165.605 66.536L171.308 52.9928L167.15 52.7156ZM43.4294 116.713L36.4202 117.149L34.4402 104.754L36.0638 97.2696L43.3106 96.3192L43.3898 92.2404L34.5194 93.27L30.7178 105.744L34.0046 120.317L43.865 120.079L43.4294 116.713ZM49.9034 92.3592L45.785 119.683L49.1114 119.881L51.0518 107.843L54.4178 107.605L56.5958 119.683L59.249 119.96L54.299 92.3592H49.9034ZM51.3686 106.1L52.715 98.2992L54.1406 105.902L51.3686 106.1ZM66.0667 108.397L70.3435 120.198L73.1551 120L68.5219 108.16L71.1355 108.12L73.1551 105.388V96.1608L70.7395 92.874H62.1859V120H65.2747L64.9183 108.476L66.0667 108.397ZM64.4431 95.2896H68.8387L70.6207 97.3884L70.5019 103.883L68.9971 105.388L64.7995 105.546L64.4431 95.2896ZM87.099 92.7552L76.8426 92.9928L77.5158 120H87.7722L88.0098 116.792L80.0502 117.228L79.971 105.15L84.8814 104.873L84.4854 102.695L79.9314 103.249L79.8918 95.8044L87.2574 96.3588L87.099 92.7552ZM94.9298 94.9728L99.8798 97.4676L102.058 94.7352L97.8206 92.3196L91.1678 93.6264L89.663 101.23L100.157 111.09L98.6918 117.268L94.0982 116.832L91.643 113.149L89.2274 116.159L92.4746 119.921L101.147 120.04L104.077 109.862L92.9102 99.5664L94.9298 94.9728ZM110.708 94.9728L115.658 97.4676L117.836 94.7352L113.599 92.3196L106.946 93.6264L105.441 101.23L115.935 111.09L114.47 117.268L109.876 116.832L107.421 113.149L105.006 116.159L108.253 119.921L116.925 120.04L119.856 109.862L108.688 99.5664L110.708 94.9728ZM132.654 92.7552L122.398 92.9928L123.071 120H133.328L133.565 116.792L125.606 117.228L125.526 105.15L130.437 104.873L130.041 102.695L125.487 103.249L125.447 95.8044L132.813 96.3588L132.654 92.7552ZM140.485 94.9728L145.435 97.4676L147.613 94.7352L143.376 92.3196L136.723 93.6264L135.219 101.23L145.713 111.09L144.247 117.268L139.654 116.832L137.199 113.149L134.783 116.159L138.03 119.921L146.703 120.04L149.633 109.862L138.466 99.5664L140.485 94.9728Z" fill="white"/>
<path fill-rule="evenodd" clip-rule="evenodd" d="M131.896 17.2605C143.581 10.6333 150 1.94083 150 -7C150 -15.9408 143.581 -24.6333 131.896 -31.2605C120.3 -37.8372 104.08 -42 86 -42C67.9201 -42 51.6996 -37.8372 40.1039 -31.2605C28.4189 -24.6333 22 -15.9408 22 -7C22 1.94083 28.4189 10.6333 40.1039 17.2605C51.6996 23.8372 67.9201 28 86 28C104.08 28 120.3 23.8372 131.896 17.2605ZM86 31C123.003 31 153 13.9868 153 -7C153 -27.9868 123.003 -45 86 -45C48.9969 -45 19 -27.9868 19 -7C19 13.9868 48.9969 31 86 31Z" fill="#FFBE3F"/>
</g>
<defs>
<clipPath id="clip0_873_2103">
<rect width="180" height="180" fill="white"/>
</clipPath>
</defs>
</svg>
