<svg width="180" height="180" viewBox="0 0 180 180" fill="none" xmlns="http://www.w3.org/2000/svg">
<g clip-path="url(#clip0_874_2829)">
<rect width="180" height="180" fill="#FF9081"/>
<path d="M92.0772 47.3635C104.787 63.2891 108.966 85.8061 93.0406 98.5155C77.1151 111.225 58.3258 102.989 45.6165 87.0637C32.9071 71.1382 36.2042 59.9613 52.1297 47.2519C68.0553 34.5425 79.3679 31.4379 92.0772 47.3635Z" fill="#C62E2E"/>
<path d="M141.665 160.607C135.186 170.535 123.508 176.953 113.58 170.473C103.652 163.994 104.774 152.11 111.253 142.182C117.733 132.255 124.51 132.037 134.437 138.516C144.365 144.996 148.145 150.679 141.665 160.607Z" fill="#C62E2E"/>
<path d="M68.196 -27.6471C79.7012 -24.7878 89.5987 -15.8659 86.7394 -4.36071C83.8801 7.14451 72.2874 9.98839 60.7822 7.12912C49.277 4.26984 46.8454 -2.05936 49.7046 -13.5646C52.5639 -25.0698 56.6908 -30.5064 68.196 -27.6471Z" fill="#C62E2E"/>
<path d="M92.0836 148.408C92.0836 148.408 84.2529 112.732 107.724 89.5626C109.527 88.4868 109.519 91.5482 109.519 91.5482C109.519 91.5482 115.84 84.7216 117.817 85.9873C119.795 87.253 118.711 88.5107 118.711 88.5107C118.711 88.5107 124.486 83.8437 126.464 85.1094C128.441 86.3751 126.456 88.1707 126.456 88.1707C126.456 88.1707 133.306 85.3073 136.185 86.0351C139.065 86.7629 136.359 88.3766 136.359 88.3766C136.359 88.3766 152.03 86.9767 154.719 91.4857C157.409 95.9947 147.861 97.4105 147.861 97.4105C147.861 97.4105 150.377 99.578 145.33 101.366C145.33 101.366 145.148 102.086 142.442 103.699C142.442 103.699 142.972 107.662 137.925 109.45C137.925 109.45 138.099 111.792 133.052 113.579C133.052 113.579 132.499 118.8 128.535 119.33C128.535 119.33 130.513 120.596 122.943 123.277C115.372 125.959 95.8807 142.475 94.4251 148.234C93.8792 150.394 92.4395 150.03 92.0836 148.408Z" fill="#41A20F"/>
<path d="M122.167 46.5718C122.167 46.5718 126.725 25.802 113.061 12.3134C112.011 11.6871 112.016 13.4694 112.016 13.4694C112.016 13.4694 108.336 9.49508 107.185 10.2319C106.034 10.9688 106.665 11.701 106.665 11.701C106.665 11.701 103.303 8.98399 102.151 9.72086C101 10.4577 102.156 11.5031 102.156 11.5031C102.156 11.5031 98.1679 9.83606 96.4916 10.2598C94.8153 10.6835 96.3903 11.6229 96.3903 11.6229C96.3903 11.6229 87.2673 10.808 85.7015 13.433C84.1358 16.058 89.6944 16.8823 89.6944 16.8823C89.6944 16.8823 88.2299 18.1441 91.1681 19.1849C91.1681 19.1849 91.274 19.604 92.849 20.5434C92.849 20.5434 92.5405 22.8506 95.4787 23.8914C95.4787 23.8914 95.3774 25.2545 98.3156 26.2953C98.3156 26.2953 98.638 29.3347 100.945 29.6432C100.945 29.6432 99.794 30.3801 104.201 31.9412C108.609 33.5023 119.956 43.1179 120.803 46.4705C121.121 47.7277 121.959 47.5159 122.167 46.5718Z" fill="#41A20F"/>
<path d="M104.883 261.219C104.883 261.219 61.2752 249.69 49.0679 210.835C48.9039 208.246 52.2622 209.982 52.2622 209.982C52.2622 209.982 48.3298 199.188 50.836 197.729C53.3422 196.271 54.1123 198.171 54.1123 198.171C54.1123 198.171 52.2441 189.195 54.7503 187.737C57.2565 186.278 58.1086 189.473 58.1086 189.473C58.1086 189.473 58.8286 180.332 61.2528 177.58C63.677 174.827 63.923 178.71 63.923 178.71C63.923 178.71 71.2276 160.706 77.6981 160.296C84.1687 159.886 80.3364 171.173 80.3364 171.173C80.3364 171.173 84.1367 169.633 83.2527 176.185C83.2527 176.185 83.9408 176.791 84.1868 180.674C84.1868 180.674 88.8392 182.328 87.9552 188.881C87.9552 188.881 90.6254 190.011 89.7414 196.563C89.7414 196.563 95.1638 200.117 93.5097 204.77C93.5097 204.77 96.0159 203.312 94.6899 213.141C93.3638 222.969 100.509 253.7 106.013 258.548C108.077 260.367 106.865 261.743 104.883 261.219Z" fill="#41A20F"/>
<path d="M29.9242 59.996C28.1086 58.6076 25.4742 56.6852 22.9466 56.6852C19.885 56.6852 18.6746 59.3196 18.6746 61.5624C18.6746 68.0772 26.3286 69.5368 26.3286 75.2328C26.3286 76.4788 25.8302 77.8672 24.335 77.8672C22.2346 77.8672 20.5614 76.2652 18.8526 73.9156L16.7878 76.2652C18.8882 79.4692 20.953 81.3204 23.801 81.3204C26.649 81.3204 29.2122 79.3624 29.2122 75.0904C29.2122 69.3232 21.2022 65.6208 21.2022 61.6692C21.2022 60.6368 21.7362 59.4976 22.7686 59.4976C24.4418 59.4976 26.6134 61.4912 28.429 62.844L29.9242 59.996ZM44.9671 56.1868L30.8339 57.0056L30.9763 58.9992H36.4231L35.9603 81.2492L39.0219 80.822L40.0899 58.9992L44.8247 59.0704L44.9671 56.1868ZM50.7076 70.5692L54.5524 81.178L57.08 81L52.9148 70.3556L55.2644 70.32L57.08 67.8636V59.5688L54.9084 56.614H47.2188V81H49.9956L49.6752 70.6404L50.7076 70.5692ZM49.248 58.7856H53.1996L54.8016 60.6724L54.6948 66.5108L53.342 67.8636L49.5684 68.006L49.248 58.7856ZM62.4598 56.1512L58.7574 80.7152L61.7478 80.8932L63.4922 70.0708L66.5182 69.8572L68.4762 80.7152L70.8614 80.9644L66.4114 56.1512H62.4598ZM63.777 68.5044L64.9874 61.4912L66.269 68.3264L63.777 68.5044ZM83.5764 71.7084L86.46 80.9644L89.9132 81.0712L94.648 56.614L90.1624 56.5428L87.884 76.1584L84.3596 66.1548L82.9356 66.3328L78.628 77.7248L75.8512 56.5428L72.2556 56.3648L76.7056 81.1068L80.0164 81L83.5764 71.7084ZM98.3766 56.4004L97.629 81H106.458L109.092 78.9352V69.2164L106.102 66.938L108.879 60.2096L106.671 56.5072L98.3766 56.4004ZM107.17 70.6048L106.992 77.2264L104.891 78.7572L101.474 78.4368L101.509 69.2164L104.785 68.6824L107.17 70.6048ZM103.503 66.8312L101.509 67.2228L101.545 58.6432L104.749 58.6076L106.066 60.5656L103.503 66.8312ZM121.451 56.5072L112.231 56.7208L112.836 81H122.056L122.27 78.1164L115.114 78.508L115.043 67.65L119.457 67.4008L119.101 65.4428L115.007 65.9412L114.972 59.2484L121.593 59.7468L121.451 56.5072ZM127.957 70.5692L131.802 81.178L134.329 81L130.164 70.3556L132.514 70.32L134.329 67.8636V59.5688L132.158 56.614H124.468V81H127.245L126.924 70.6404L127.957 70.5692ZM126.497 58.7856H130.449L132.051 60.6724L131.944 66.5108L130.591 67.8636L126.818 68.006L126.497 58.7856ZM141.133 70.5692L144.978 81.178L147.505 81L143.34 70.3556L145.69 70.32L147.505 67.8636V59.5688L145.334 56.614H137.644V81H140.421L140.101 70.6404L141.133 70.5692ZM139.673 58.7856H143.625L145.227 60.6724L145.12 66.5108L143.767 67.8636L139.994 68.006L139.673 58.7856ZM159.276 56.4716L155.645 65.5852L151.302 56.614L148.276 56.792L154.399 68.8248L154.541 80.9644H158.244L157.888 68.896L163.014 56.7208L159.276 56.4716ZM58.2712 92.258L54.462 92.6852L51.3648 101.87L47.5912 92.5072L43.426 92.6496L42.2512 116.964L45.6688 117.142L45.7044 97.1352L49.3 105.893L51.9344 106.213L55.3876 97.6692L55.6724 116.893C55.6724 116.893 58.8408 116.893 59.4104 116.858L58.2712 92.258ZM77.5778 98.9508L73.1278 92.6852L66.8622 92.258L61.273 98.5948L61.5578 110.984L66.1146 117.178L72.131 117.107L76.9014 110.841L77.5778 98.9508ZM73.6262 110.378L70.707 114.544L67.2538 114.437L64.655 110.414L64.0854 100.731L68.4286 94.9636L71.0986 95.0704L73.8398 98.5948L73.6262 110.378ZM89.7397 112.052L84.5065 114.259L81.8721 109.524L78.9173 111.482L82.2993 117H88.3157L92.6233 113.832L93.2997 92.614H89.1345L89.7397 112.052ZM104.016 94.9636L104.3 92.5072L95.97 92.6852L96.1836 94.5364L98.5332 94.6788L98.996 115.256L96.6464 115.398L96.9312 117.107L103.695 117.036L104.087 114.864L101.452 115.078L101.844 94.8568L104.016 94.9636ZM120.096 92.1868L105.962 93.0056L106.105 94.9992H111.552L111.089 117.249L114.15 116.822L115.218 94.9992L119.953 95.0704L120.096 92.1868ZM137.549 98.9508L133.099 92.6852L126.833 92.258L121.244 98.5948L121.529 110.984L126.085 117.178L132.102 117.107L136.872 110.841L137.549 98.9508ZM133.597 110.378L130.678 114.544L127.225 114.437L124.626 110.414L124.056 100.731L128.399 94.9636L131.069 95.0704L133.811 98.5948L133.597 110.378Z" fill="white"/>
</g>
<defs>
<clipPath id="clip0_874_2829">
<rect width="180" height="180" fill="white"/>
</clipPath>
</defs>
</svg>
