<svg width="180" height="180" viewBox="0 0 180 180" fill="none" xmlns="http://www.w3.org/2000/svg">
<g clip-path="url(#clip0_874_2204)">
<rect width="180" height="180" fill="#3E2121"/>
<path d="M59.4791 156.795C55.108 170.393 43.5778 181.567 29.9761 177.195C16.3744 172.823 13.8952 158.655 18.2663 145.057C22.6374 131.458 30.4447 129.049 44.0464 133.421C57.6481 137.793 63.8502 143.196 59.4791 156.795Z" fill="#B0232C"/>
<path d="M154.292 89.0931C162.156 101.018 163.646 117.004 151.719 124.87C139.791 132.735 127.194 125.795 119.33 113.871C111.467 101.946 114.478 94.351 126.405 86.4854C138.332 78.6199 146.429 77.1686 154.292 89.0931Z" fill="#B0232C"/>
<path d="M66.3399 42.7841C56.18 52.8245 40.7917 57.4061 30.7491 47.2441C20.7065 37.0821 25.0538 23.3723 35.2137 13.3319C45.3735 3.29143 53.4105 4.76241 63.4531 14.9244C73.4957 25.0865 76.4997 32.7437 66.3399 42.7841Z" fill="#B0232C"/>
<path d="M150.451 153.195C153.607 159.058 153.636 166.542 147.772 169.699C141.908 172.856 136.348 169.111 133.191 163.249C130.035 157.387 131.748 153.985 137.612 150.828C143.475 147.671 147.294 147.333 150.451 153.195Z" fill="#B0232C"/>
<path d="M47.1694 86.0818C45.5783 92.547 40.5796 98.1169 34.1129 96.5255C27.6463 94.9341 26.0336 88.4269 27.6246 81.9616C29.2157 75.4964 32.7679 74.1228 39.2345 75.7142C45.7012 77.3056 48.7605 79.6165 47.1694 86.0818Z" fill="#B0232C"/>
<path d="M153.91 30.8998C157.003 36.7957 156.951 44.2796 151.054 47.3737C145.157 50.4679 139.637 46.664 136.543 40.7681C133.45 34.8722 135.199 31.4894 141.096 28.3952C146.994 25.3011 150.816 25.004 153.91 30.8998Z" fill="#B0232C"/>
<path d="M38.4496 34.9728L43.3996 37.4676L45.5776 34.7352L41.3404 32.3196L34.6876 33.6264L33.1828 41.2296L43.6768 51.09L42.2116 57.2676L37.618 56.832L35.1628 53.1492L32.7472 56.1588L35.9944 59.9208L44.6668 60.0396L47.5972 49.8624L36.43 39.5664L38.4496 34.9728ZM62.5236 32.3988L46.8024 33.3096L46.9608 35.5272H53.0196L52.5048 60.2772L55.9104 59.802L57.0984 35.5272L62.3652 35.6064L62.5236 32.3988ZM68.9091 48.3972L73.1859 60.198L75.9975 60L71.3643 48.1596L73.9779 48.12L75.9975 45.3876V36.1608L73.5819 32.874H65.0283V60H68.1171L67.7607 48.4764L68.9091 48.3972ZM67.2855 35.2896H71.6811L73.4631 37.3884L73.3443 43.8828L71.8395 45.3876L67.6419 45.546L67.2855 35.2896ZM81.9817 32.3592L77.8633 59.6832L81.1897 59.8812L83.1301 47.8428L86.4961 47.6052L88.6741 59.6832L91.3273 59.9604L86.3773 32.3592H81.9817ZM83.4469 46.1004L84.7933 38.2992L86.2189 45.9024L83.4469 46.1004ZM105.471 49.6644L108.679 59.9604L112.52 60.0792L117.787 32.874L112.797 32.7948L110.263 54.6144L106.342 43.4868L104.758 43.6848L99.9666 56.3568L96.8778 32.7948L92.8782 32.5968L97.8282 60.1188L101.511 60L105.471 49.6644ZM121.934 32.6364L121.103 60H130.923L133.854 57.7032V46.8924L130.527 44.358L133.616 36.8736L131.161 32.7552L121.934 32.6364ZM131.715 48.4368L131.517 55.8024L129.181 57.5052L125.379 57.1488L125.419 46.8924L129.062 46.2984L131.715 48.4368ZM127.637 44.2392L125.419 44.6748L125.459 35.1312L129.023 35.0916L130.488 37.2696L127.637 44.2392ZM147.601 32.7552L137.345 32.9928L138.018 60H148.274L148.512 56.7924L140.552 57.228L140.473 45.15L145.383 44.8728L144.987 42.6948L140.433 43.2492L140.394 35.8044L147.759 36.3588L147.601 32.7552ZM73.511 88.3972L77.7878 100.198L80.5994 100L75.9662 88.1596L78.5798 88.12L80.5994 85.3876V76.1608L78.1838 72.874H69.6302V100H72.719L72.3626 88.4764L73.511 88.3972ZM71.8874 75.2896H76.283L78.065 77.3884L77.9462 83.8828L76.4414 85.3876L72.2438 85.546L71.8874 75.2896ZM88.1677 88.3972L92.4445 100.198L95.2561 100L90.6229 88.1596L93.2365 88.12L95.2561 85.3876V76.1608L92.8405 72.874H84.2869V100H87.3757L87.0193 88.4764L88.1677 88.3972ZM86.5441 75.2896H90.9397L92.7217 77.3884L92.6029 83.8828L91.0981 85.3876L86.9005 85.546L86.5441 75.2896ZM108.349 72.7156L104.31 82.8532L99.4788 72.874L96.1128 73.072L102.924 86.4568L103.082 99.9604H107.201L106.805 86.536L112.507 72.9928L108.349 72.7156ZM37.9353 112.478L33.6981 112.953L30.2529 123.17L26.0553 112.755L21.4221 112.914L20.1153 139.96L23.9169 140.158L23.9565 117.903L27.9561 127.645L30.8865 128.001L34.7277 118.497L35.0445 139.881C35.0445 139.881 38.5689 139.881 39.2024 139.842L37.9353 112.478ZM44.7987 112.359L40.6803 139.683L44.0067 139.881L45.9471 127.843L49.3131 127.605L51.4911 139.683L54.1443 139.96L49.1943 112.359H44.7987ZM46.2639 126.1L47.6103 118.299L49.0359 125.902L46.2639 126.1ZM60.962 128.397L65.2388 140.198L68.0504 140L63.4172 128.16L66.0308 128.12L68.0504 125.388V116.161L65.6348 112.874H57.0812V140H60.17L59.8136 128.476L60.962 128.397ZM59.3384 115.29H63.734L65.516 117.388L65.3972 123.883L63.8924 125.388L59.6948 125.546L59.3384 115.29ZM89.0827 116.596L85.5583 113.112L80.6875 112.32L73.8367 115.21L70.5499 125.665L73.0051 137.07L80.6083 140.634L89.6767 137.901L89.3995 128.793L88.0531 127.209L83.5387 126.892V130.615L86.7463 130.377L86.5483 135.723L81.0439 136.99L76.0939 133.862L73.8763 125.982L76.7671 117.23L83.1031 115.408L86.7463 118.893L89.0827 116.596ZM95.3042 112.359L91.1858 139.683L94.5122 139.881L96.4526 127.843L99.8186 127.605L101.997 139.683L104.65 139.96L99.6998 112.359H95.3042ZM96.7694 126.1L98.1158 118.299L99.5414 125.902L96.7694 126.1ZM111.467 128.397L115.744 140.198L118.556 140L113.923 128.16L116.536 128.12L118.556 125.388V116.161L116.14 112.874H107.587V140H110.675L110.319 128.476L111.467 128.397ZM109.844 115.29H114.239L116.021 117.388L115.903 123.883L114.398 125.388L110.2 125.546L109.844 115.29ZM130.005 115.488L130.322 112.755L121.055 112.953L121.293 115.012L123.907 115.171L124.421 138.06L121.808 138.218L122.125 140.119L129.649 140.04L130.084 137.624L127.154 137.862L127.589 115.369L130.005 115.488ZM147.892 112.399L132.171 113.31L132.329 115.527H138.388L137.873 140.277L141.279 139.802L142.467 115.527L147.733 115.606L147.892 112.399ZM151.069 112.359L146.951 139.683L150.277 139.881L152.217 127.843L155.583 127.605L157.761 139.683L160.415 139.96L155.465 112.359H151.069ZM152.534 126.1L153.881 118.299L155.306 125.902L152.534 126.1Z" fill="white"/>
</g>
<defs>
<clipPath id="clip0_874_2204">
<rect width="180" height="180" fill="white"/>
</clipPath>
</defs>
</svg>
