<svg width="180" height="180" viewBox="0 0 180 180" fill="none" xmlns="http://www.w3.org/2000/svg">
<g clip-path="url(#clip0_874_2204)">
<rect width="180" height="180" fill="#3E2121"/>
<path d="M59.4791 156.795C55.108 170.393 43.5778 181.567 29.9761 177.195C16.3744 172.823 13.8952 158.655 18.2663 145.057C22.6374 131.458 30.4447 129.049 44.0464 133.421C57.6481 137.793 63.8502 143.196 59.4791 156.795Z" fill="#B0232C"/>
<path d="M154.292 89.0931C162.156 101.018 163.646 117.004 151.719 124.87C139.791 132.735 127.194 125.795 119.33 113.871C111.467 101.946 114.478 94.351 126.405 86.4854C138.332 78.6199 146.429 77.1686 154.292 89.0931Z" fill="#B0232C"/>
<path d="M66.3399 42.7841C56.18 52.8245 40.7917 57.4061 30.7491 47.2441C20.7065 37.0821 25.0538 23.3723 35.2137 13.3319C45.3735 3.29143 53.4105 4.76241 63.4531 14.9244C73.4957 25.0865 76.4997 32.7437 66.3399 42.7841Z" fill="#B0232C"/>
<path d="M150.451 153.195C153.607 159.058 153.636 166.542 147.772 169.699C141.908 172.856 136.348 169.111 133.191 163.249C130.035 157.387 131.748 153.985 137.612 150.828C143.475 147.671 147.294 147.333 150.451 153.195Z" fill="#B0232C"/>
<path d="M47.1694 86.0818C45.5783 92.547 40.5796 98.1169 34.1129 96.5255C27.6463 94.9341 26.0336 88.4269 27.6246 81.9616C29.2157 75.4964 32.7679 74.1228 39.2345 75.7142C45.7012 77.3056 48.7605 79.6165 47.1694 86.0818Z" fill="#B0232C"/>
<path d="M153.91 30.8998C157.003 36.7957 156.951 44.2796 151.054 47.3737C145.157 50.4679 139.637 46.664 136.543 40.7681C133.45 34.8722 135.199 31.4894 141.096 28.3952C146.994 25.3011 150.816 25.004 153.91 30.8998Z" fill="#B0232C"/>
<path d="M61.0271 36.636C59.0075 35.0916 56.0772 32.9532 53.2656 32.9532C49.86 32.9532 48.5136 35.8836 48.5136 38.3784C48.5136 45.6252 57.0275 47.2488 57.0275 53.5848C57.0275 54.9708 56.4731 56.5152 54.81 56.5152C52.4736 56.5152 50.6124 54.7332 48.7116 52.1196L46.4148 54.7332C48.7512 58.2972 51.048 60.3564 54.216 60.3564C57.3839 60.3564 60.2351 58.1784 60.2351 53.4264C60.2351 47.0112 51.3252 42.8928 51.3252 38.4972C51.3252 37.3488 51.9192 36.0816 53.0676 36.0816C54.9288 36.0816 57.3444 38.2992 59.364 39.804L61.0271 36.636ZM77.7603 32.3988L62.0391 33.3096L62.1975 35.5272H68.2563L67.7415 60.2772L71.1471 59.802L72.3351 35.5272L77.6019 35.6064L77.7603 32.3988ZM84.1458 48.3972L88.4226 60.198L91.2342 60L86.601 48.1596L89.2146 48.12L91.2342 45.3876V36.1608L88.8186 32.874H80.265V60H83.3538L82.9974 48.4764L84.1458 48.3972ZM82.5222 35.2896H86.9178L88.6998 37.3884L88.581 43.8828L87.0762 45.3876L82.8786 45.546L82.5222 35.2896ZM97.2185 32.3592L93.1001 59.6832L96.4265 59.8812L98.3669 47.8428L101.733 47.6052L103.911 59.6832L106.564 59.9604L101.614 32.3592H97.2185ZM98.6837 46.1004L100.03 38.2992L101.456 45.9024L98.6837 46.1004ZM120.708 49.6644L123.915 59.9604L127.757 60.0792L133.023 32.874L128.034 32.7948L125.499 54.6144L121.579 43.4868L119.995 43.6848L115.203 56.3568L112.115 32.7948L108.115 32.5968L113.065 60.1188L116.748 60L120.708 49.6644ZM55.5345 72.6364L54.7029 100H64.5237L67.4541 97.7032V86.8924L64.1277 84.358L67.2165 76.8736L64.7613 72.7552L55.5345 72.6364ZM65.3157 88.4368L65.1177 95.8024L62.7813 97.5052L58.9797 97.1488L59.0193 86.8924L62.6625 86.2984L65.3157 88.4368ZM61.2369 84.2392L59.0193 84.6748L59.0589 75.1312L62.6229 75.0916L64.0881 77.2696L61.2369 84.2392ZM81.2015 72.7552L70.9451 72.9928L71.6183 100H81.8747L82.1123 96.7924L74.1527 97.228L74.0735 85.15L78.9839 84.8728L78.5879 82.6948L74.0339 83.2492L73.9943 75.8044L81.3599 76.3588L81.2015 72.7552ZM88.4384 88.3972L92.7152 100.198L95.5268 100L90.8936 88.1596L93.5072 88.12L95.5268 85.3876V76.1608L93.1112 72.874H84.5576V100H87.6464L87.29 88.4764L88.4384 88.3972ZM86.8148 75.2896H91.2104L92.9924 77.3884L92.8736 83.8828L91.3688 85.3876L87.1712 85.546L86.8148 75.2896ZM103.095 88.3972L107.372 100.198L110.183 100L105.55 88.1596L108.164 88.12L110.183 85.3876V76.1608L107.768 72.874H99.2142V100H102.303L101.947 88.4764L103.095 88.3972ZM101.471 75.2896H105.867L107.649 77.3884L107.53 83.8828L106.025 85.3876L101.828 85.546L101.471 75.2896ZM123.276 72.7156L119.237 82.8532L114.406 72.874L111.04 73.072L117.851 86.4568L118.01 99.9604H122.128L121.732 86.536L127.434 72.9928L123.276 72.7156ZM37.9353 112.478L33.6981 112.953L30.2529 123.17L26.0553 112.755L21.4221 112.914L20.1153 139.96L23.9169 140.158L23.9565 117.903L27.9561 127.645L30.8865 128.001L34.7277 118.497L35.0445 139.881C35.0445 139.881 38.5689 139.881 39.2024 139.842L37.9353 112.478ZM44.7987 112.359L40.6803 139.683L44.0067 139.881L45.9471 127.843L49.3131 127.605L51.4911 139.683L54.1443 139.96L49.1943 112.359H44.7987ZM46.2639 126.1L47.6103 118.299L49.0359 125.902L46.2639 126.1ZM60.962 128.397L65.2388 140.198L68.0504 140L63.4172 128.16L66.0308 128.12L68.0504 125.388V116.161L65.6348 112.874H57.0812V140H60.17L59.8136 128.476L60.962 128.397ZM59.3384 115.29H63.734L65.516 117.388L65.3972 123.883L63.8924 125.388L59.6948 125.546L59.3384 115.29ZM89.0827 116.596L85.5583 113.112L80.6875 112.32L73.8367 115.21L70.5499 125.665L73.0051 137.07L80.6083 140.634L89.6767 137.901L89.3995 128.793L88.0531 127.209L83.5387 126.892V130.615L86.7463 130.377L86.5483 135.723L81.0439 136.99L76.0939 133.862L73.8763 125.982L76.7671 117.23L83.1031 115.408L86.7463 118.893L89.0827 116.596ZM95.3042 112.359L91.1858 139.683L94.5122 139.881L96.4526 127.843L99.8186 127.605L101.997 139.683L104.65 139.96L99.6998 112.359H95.3042ZM96.7694 126.1L98.1158 118.299L99.5414 125.902L96.7694 126.1ZM111.467 128.397L115.744 140.198L118.556 140L113.923 128.16L116.536 128.12L118.556 125.388V116.161L116.14 112.874H107.587V140H110.675L110.319 128.476L111.467 128.397ZM109.844 115.29H114.239L116.021 117.388L115.903 123.883L114.398 125.388L110.2 125.546L109.844 115.29ZM130.005 115.488L130.322 112.755L121.055 112.953L121.293 115.012L123.907 115.171L124.421 138.06L121.808 138.218L122.125 140.119L129.649 140.04L130.084 137.624L127.154 137.862L127.589 115.369L130.005 115.488ZM147.892 112.399L132.171 113.31L132.329 115.527H138.388L137.873 140.277L141.279 139.802L142.467 115.527L147.733 115.606L147.892 112.399ZM151.069 112.359L146.951 139.683L150.277 139.881L152.217 127.843L155.583 127.605L157.761 139.683L160.415 139.96L155.465 112.359H151.069ZM152.534 126.1L153.881 118.299L155.306 125.902L152.534 126.1Z" fill="white"/>
</g>
<defs>
<clipPath id="clip0_874_2204">
<rect width="180" height="180" fill="white"/>
</clipPath>
</defs>
</svg>
