<svg width="180" height="180" viewBox="0 0 180 180" fill="none" xmlns="http://www.w3.org/2000/svg">
<g clip-path="url(#clip0_874_2829)">
<rect width="180" height="180" fill="#FF9081"/>
<path d="M92.0772 47.3635C104.787 63.2891 108.966 85.8061 93.0406 98.5155C77.1151 111.225 58.3258 102.989 45.6165 87.0637C32.9071 71.1382 36.2042 59.9613 52.1297 47.2519C68.0553 34.5425 79.3679 31.4379 92.0772 47.3635Z" fill="#C62E2E"/>
<path d="M141.665 160.607C135.186 170.535 123.508 176.953 113.58 170.473C103.652 163.994 104.774 152.11 111.253 142.182C117.733 132.255 124.51 132.037 134.437 138.516C144.365 144.996 148.145 150.679 141.665 160.607Z" fill="#C62E2E"/>
<path d="M68.196 -27.6471C79.7012 -24.7878 89.5987 -15.8659 86.7394 -4.36071C83.8801 7.14451 72.2874 9.98839 60.7822 7.12912C49.277 4.26984 46.8454 -2.05936 49.7046 -13.5646C52.5639 -25.0698 56.6908 -30.5064 68.196 -27.6471Z" fill="#C62E2E"/>
<path d="M92.0836 148.408C92.0836 148.408 84.2529 112.732 107.724 89.5626C109.527 88.4868 109.519 91.5482 109.519 91.5482C109.519 91.5482 115.84 84.7216 117.817 85.9873C119.795 87.253 118.711 88.5107 118.711 88.5107C118.711 88.5107 124.486 83.8437 126.464 85.1094C128.441 86.3751 126.456 88.1707 126.456 88.1707C126.456 88.1707 133.306 85.3073 136.185 86.0351C139.065 86.7629 136.359 88.3766 136.359 88.3766C136.359 88.3766 152.03 86.9767 154.719 91.4857C157.409 95.9947 147.861 97.4105 147.861 97.4105C147.861 97.4105 150.377 99.578 145.33 101.366C145.33 101.366 145.148 102.086 142.442 103.699C142.442 103.699 142.972 107.662 137.925 109.45C137.925 109.45 138.099 111.792 133.052 113.579C133.052 113.579 132.499 118.8 128.535 119.33C128.535 119.33 130.513 120.596 122.943 123.277C115.372 125.959 95.8807 142.475 94.4251 148.234C93.8792 150.394 92.4395 150.03 92.0836 148.408Z" fill="#41A20F"/>
<path d="M122.167 46.5718C122.167 46.5718 126.725 25.802 113.061 12.3134C112.011 11.6871 112.016 13.4694 112.016 13.4694C112.016 13.4694 108.336 9.49508 107.185 10.2319C106.034 10.9688 106.665 11.701 106.665 11.701C106.665 11.701 103.303 8.98399 102.151 9.72086C101 10.4577 102.156 11.5031 102.156 11.5031C102.156 11.5031 98.1679 9.83606 96.4916 10.2598C94.8153 10.6835 96.3903 11.6229 96.3903 11.6229C96.3903 11.6229 87.2673 10.808 85.7015 13.433C84.1358 16.058 89.6944 16.8823 89.6944 16.8823C89.6944 16.8823 88.2299 18.1441 91.1681 19.1849C91.1681 19.1849 91.274 19.604 92.849 20.5434C92.849 20.5434 92.5405 22.8506 95.4787 23.8914C95.4787 23.8914 95.3774 25.2545 98.3156 26.2953C98.3156 26.2953 98.638 29.3347 100.945 29.6432C100.945 29.6432 99.794 30.3801 104.201 31.9412C108.609 33.5023 119.956 43.1179 120.803 46.4705C121.121 47.7277 121.959 47.5159 122.167 46.5718Z" fill="#41A20F"/>
<path d="M104.883 261.219C104.883 261.219 61.2752 249.69 49.0679 210.835C48.9039 208.246 52.2622 209.982 52.2622 209.982C52.2622 209.982 48.3298 199.188 50.836 197.729C53.3422 196.271 54.1123 198.171 54.1123 198.171C54.1123 198.171 52.2441 189.195 54.7503 187.737C57.2565 186.278 58.1086 189.473 58.1086 189.473C58.1086 189.473 58.8286 180.332 61.2528 177.58C63.677 174.827 63.923 178.71 63.923 178.71C63.923 178.71 71.2276 160.706 77.6981 160.296C84.1687 159.886 80.3364 171.173 80.3364 171.173C80.3364 171.173 84.1367 169.633 83.2527 176.185C83.2527 176.185 83.9408 176.791 84.1868 180.674C84.1868 180.674 88.8392 182.328 87.9552 188.881C87.9552 188.881 90.6254 190.011 89.7414 196.563C89.7414 196.563 95.1638 200.117 93.5097 204.77C93.5097 204.77 96.0159 203.312 94.6899 213.141C93.3638 222.969 100.509 253.7 106.013 258.548C108.077 260.367 106.865 261.743 104.883 261.219Z" fill="#41A20F"/>
<path d="M23.0467 58.5008L27.4967 60.7436L29.4547 58.2872L25.6455 56.1156L19.6647 57.2904L18.3119 64.1256L27.7459 72.99L26.4287 78.5436L22.2991 78.152L20.0919 74.8412L17.9203 77.5468L20.8395 80.9288L28.6359 81.0356L31.2703 71.8864L21.2311 62.6304L23.0467 58.5008ZM44.689 56.1868L30.5558 57.0056L30.6982 58.9992H36.145L35.6822 81.2492L38.7438 80.822L39.8118 58.9992L44.5466 59.0704L44.689 56.1868ZM50.4295 70.5692L54.2743 81.178L56.8019 81L52.6367 70.3556L54.9863 70.32L56.8019 67.8636V59.5688L54.6303 56.614H46.9407V81H49.7175L49.3971 70.6404L50.4295 70.5692ZM48.9699 58.7856H52.9215L54.5235 60.6724L54.4167 66.5108L53.0639 67.8636L49.2903 68.006L48.9699 58.7856ZM62.1817 56.1512L58.4793 80.7152L61.4697 80.8932L63.2141 70.0708L66.2401 69.8572L68.1981 80.7152L70.5833 80.9644L66.1333 56.1512H62.1817ZM63.4989 68.5044L64.7093 61.4912L65.9909 68.3264L63.4989 68.5044ZM83.2983 71.7084L86.1819 80.9644L89.6351 81.0712L94.3699 56.614L89.8843 56.5428L87.6059 76.1584L84.0815 66.1548L82.6575 66.3328L78.3499 77.7248L75.5731 56.5428L71.9775 56.3648L76.4275 81.1068L79.7383 81L83.2983 71.7084ZM98.0984 56.4004L97.3508 81H106.18L108.814 78.9352V69.2164L105.824 66.938L108.6 60.2096L106.393 56.5072L98.0984 56.4004ZM106.892 70.6048L106.714 77.2264L104.613 78.7572L101.196 78.4368L101.231 69.2164L104.506 68.6824L106.892 70.6048ZM103.225 66.8312L101.231 67.2228L101.267 58.6432L104.471 58.6076L105.788 60.5656L103.225 66.8312ZM121.173 56.5072L111.952 56.7208L112.558 81H121.778L121.992 78.1164L114.836 78.508L114.765 67.65L119.179 67.4008L118.823 65.4428L114.729 65.9412L114.694 59.2484L121.315 59.7468L121.173 56.5072ZM127.679 70.5692L131.524 81.178L134.051 81L129.886 70.3556L132.236 70.32L134.051 67.8636V59.5688L131.88 56.614H124.19V81H126.967L126.646 70.6404L127.679 70.5692ZM126.219 58.7856H130.171L131.773 60.6724L131.666 66.5108L130.313 67.8636L126.54 68.006L126.219 58.7856ZM140.855 70.5692L144.7 81.178L147.227 81L143.062 70.3556L145.412 70.32L147.227 67.8636V59.5688L145.056 56.614H137.366V81H140.143L139.822 70.6404L140.855 70.5692ZM139.395 58.7856H143.347L144.949 60.6724L144.842 66.5108L143.489 67.8636L139.716 68.006L139.395 58.7856ZM158.998 56.4716L155.367 65.5852L151.023 56.614L147.997 56.792L154.121 68.8248L154.263 80.9644H157.965L157.609 68.896L162.736 56.7208L158.998 56.4716ZM59.4011 92.258L55.5919 92.6852L52.4947 101.87L48.7211 92.5072L44.5559 92.6496L43.3811 116.964L46.7987 117.142L46.8343 97.1352L50.4299 105.893L53.0643 106.213L56.5175 97.6692L56.8023 116.893C56.8023 116.893 59.9707 116.893 60.5403 116.858L59.4011 92.258ZM78.7077 98.9508L74.2577 92.6852L67.9921 92.258L62.4029 98.5948L62.6877 110.984L67.2445 117.178L73.2609 117.107L78.0313 110.841L78.7077 98.9508ZM74.7561 110.378L71.8369 114.544L68.3837 114.437L65.7849 110.414L65.2153 100.731L69.5585 94.9636L72.2285 95.0704L74.9697 98.5948L74.7561 110.378ZM82.824 117.071H84.5684L84.2124 103.543H88.5912L88.8048 117.071H91.6528L90.7984 92.4004H88.4488L88.5912 101.799L84.1768 102.119L83.9276 92.4004H81.8628L82.824 117.071ZM102.886 94.9636L103.17 92.5072L94.8401 92.6852L95.0537 94.5364L97.4033 94.6788L97.8661 115.256L95.5165 115.398L95.8013 117.107L102.565 117.036L102.957 114.864L100.322 115.078L100.714 94.8568L102.886 94.9636ZM118.966 92.1868L104.833 93.0056L104.975 94.9992H110.422L109.959 117.249L113.021 116.822L114.089 94.9992L118.823 95.0704L118.966 92.1868ZM136.419 98.9508L131.969 92.6852L125.703 92.258L120.114 98.5948L120.399 110.984L124.955 117.178L130.972 117.107L135.742 110.841L136.419 98.9508ZM132.467 110.378L129.548 114.544L126.095 114.437L123.496 110.414L122.926 100.731L127.269 94.9636L129.939 95.0704L132.681 98.5948L132.467 110.378Z" fill="white"/>
</g>
<defs>
<clipPath id="clip0_874_2829">
<rect width="180" height="180" fill="white"/>
</clipPath>
</defs>
</svg>
