<svg width="180" height="180" viewBox="0 0 180 180" fill="none" xmlns="http://www.w3.org/2000/svg">
<g clip-path="url(#clip0_873_2103)">
<rect width="180" height="180" fill="#E78173"/>
<path d="M87.5 156.5C78.7 92.1 -3.83333 71.3333 -44 69L-17.5 196.5H186V72.5C122.4 62.1 93.8333 124.167 87.5 156.5Z" fill="#AC3424"/>
<path d="M15.6138 54.9728L20.5638 57.4676L22.7418 54.7352L18.5046 52.3196L11.8518 53.6264L10.347 61.2296L20.841 71.09L19.3758 77.2676L14.7822 76.832L12.327 73.1492L9.91145 76.1588L13.1586 79.9208L21.831 80.0396L24.7614 69.8624L13.5942 59.5664L15.6138 54.9728ZM39.6879 52.3988L23.9667 53.3096L24.1251 55.5272H30.1839L29.6691 80.2772L33.0747 79.802L34.2627 55.5272L39.5295 55.6064L39.6879 52.3988ZM46.0734 68.3972L50.3502 80.198L53.1618 80L48.5286 68.1596L51.1422 68.12L53.1618 65.3876V56.1608L50.7462 52.874H42.1926V80H45.2814L44.925 68.4764L46.0734 68.3972ZM44.4498 55.2896H48.8454L50.6274 57.3884L50.5086 63.8828L49.0038 65.3876L44.8062 65.546L44.4498 55.2896ZM59.146 52.3592L55.0276 79.6832L58.354 79.8812L60.2944 67.8428L63.6604 67.6052L65.8384 79.6832L68.4916 79.9604L63.5416 52.3592H59.146ZM60.6112 66.1004L61.9576 58.2992L63.3832 65.9024L60.6112 66.1004ZM82.6353 69.6644L85.8429 79.9604L89.6841 80.0792L94.9509 52.874L89.9613 52.7948L87.4269 74.6144L83.5065 63.4868L81.9225 63.6848L77.1309 76.3568L74.0421 52.7948L70.0425 52.5968L74.9925 80.1188L78.6753 80L82.6353 69.6644ZM99.0984 52.6364L98.2668 80H108.088L111.018 77.7032V66.8924L107.692 64.358L110.78 56.8736L108.325 52.7552L99.0984 52.6364ZM108.88 68.4368L108.682 75.8024L106.345 77.5052L102.544 77.1488L102.583 66.8924L106.226 66.2984L108.88 68.4368ZM104.801 64.2392L102.583 64.6748L102.623 55.1312L106.187 55.0916L107.652 57.2696L104.801 64.2392ZM124.765 52.7552L114.509 52.9928L115.182 80H125.439L125.676 76.7924L117.717 77.228L117.637 65.15L122.548 64.8728L122.152 62.6948L117.598 63.2492L117.558 55.8044L124.924 56.3588L124.765 52.7552ZM132.002 68.3972L136.279 80.198L139.091 80L134.457 68.1596L137.071 68.12L139.091 65.3876V56.1608L136.675 52.874L128.121 52.874V80H131.21L130.854 68.4764L132.002 68.3972ZM130.379 55.2896H134.774L136.556 57.3884L136.437 63.8828L134.933 65.3876L130.735 65.546L130.379 55.2896ZM146.659 68.3972L150.936 80.198L153.747 80L149.114 68.1596L151.728 68.12L153.747 65.3876V56.1608L151.332 52.874H142.778V80H145.867L145.51 68.4764L146.659 68.3972ZM145.035 55.2896H149.431L151.213 57.3884L151.094 63.8828L149.589 65.3876L145.392 65.546L145.035 55.2896ZM166.84 52.7156L162.801 62.8532L157.97 52.874L154.604 53.072L161.415 66.4568L161.574 79.9604H165.692L165.296 66.536L170.998 52.9928L166.84 52.7156ZM45.804 96.1608L43.3488 92.8344H34.4388V120H37.488L37.092 108.476L43.3488 108.278L45.7644 105.348L45.804 96.1608ZM42.7152 103.922L41.2104 105.348L37.0128 105.506L36.6564 95.3292H41.052L42.834 97.3884L42.7152 103.922ZM58.5784 92.7552L48.322 92.9928L48.9952 120H59.2516L59.4892 116.792L51.5296 117.228L51.4504 105.15L56.3608 104.873L55.9648 102.695L51.4108 103.249L51.3712 95.8044L58.7368 96.3588L58.5784 92.7552ZM76.7548 92.3988L61.0336 93.3096L61.192 95.5272H67.2508L66.736 120.277L70.1416 119.802L71.3296 95.5272L76.5964 95.6064L76.7548 92.3988ZM94.5052 92.3988L78.784 93.3096L78.9424 95.5272H85.0012L84.4864 120.277L87.892 119.802L89.08 95.5272L94.3468 95.6064L94.5052 92.3988ZM105.158 95.4876L105.475 92.7552L96.2087 92.9532L96.4463 95.0124L99.0599 95.1708L99.5747 118.06L96.9611 118.218L97.2779 120.119L104.802 120.04L105.237 117.624L102.307 117.862L102.743 95.3688L105.158 95.4876ZM124.481 92.874L120.085 92.676L120.838 112.278L113.274 92.676H109.037L109.433 120.04L113.155 119.96L112.561 98.8536L120.679 119.96H123.808L124.481 92.874ZM146.568 96.5964L143.044 93.1116L138.173 92.3196L131.322 95.2104L128.036 105.665L130.491 117.07L138.094 120.634L147.162 117.901L146.885 108.793L145.539 107.209L141.024 106.892V110.615L144.232 110.377L144.034 115.723L138.53 116.99L133.58 113.862L131.362 105.982L134.253 97.23L140.589 95.4084L144.232 98.8932L146.568 96.5964Z" fill="white"/>
<path fill-rule="evenodd" clip-rule="evenodd" d="M131.896 17.2605C143.581 10.6333 150 1.94083 150 -7C150 -15.9408 143.581 -24.6333 131.896 -31.2605C120.3 -37.8372 104.08 -42 86 -42C67.9201 -42 51.6996 -37.8372 40.1039 -31.2605C28.4189 -24.6333 22 -15.9408 22 -7C22 1.94083 28.4189 10.6333 40.1039 17.2605C51.6996 23.8372 67.9201 28 86 28C104.08 28 120.3 23.8372 131.896 17.2605ZM86 31C123.003 31 153 13.9868 153 -7C153 -27.9868 123.003 -45 86 -45C48.9969 -45 19 -27.9868 19 -7C19 13.9868 48.9969 31 86 31Z" fill="#FFBE3F"/>
</g>
<defs>
<clipPath id="clip0_873_2103">
<rect width="180" height="180" fill="white"/>
</clipPath>
</defs>
</svg>
