<svg width="180" height="180" viewBox="0 0 180 180" fill="none" xmlns="http://www.w3.org/2000/svg">
<g clip-path="url(#clip0_874_2185)">
<rect width="180" height="180" fill="#713FFF"/>
<path d="M50.1293 54.6738C57.372 61.737 74.3409 58.6782 82.9184 52.4777C91.4959 46.2772 104.62 30.2251 90.9869 20.8513C77.354 11.4774 69.7155 13.8319 59.0748 24.7429C48.4341 35.6539 42.8867 47.6105 50.1293 54.6738Z" fill="#FFC93F"/>
<path d="M160 32H19.5C39.3333 46.6667 71.6 81 42 101C12.4 121 26 177 48 184.5C64.1667 187 82.4 194 120 188C167 180.5 155.5 122.5 144 87.5C134.8 59.5 150.833 38.8333 160 32Z" fill="#511AC0"/>
<path fill-rule="evenodd" clip-rule="evenodd" d="M161.549 62.5431C153.106 59.4066 143.855 59.8792 138.058 61.3105L134.942 48.6895C142.646 46.7874 154.644 46.1101 166.076 50.3568C177.886 54.7442 188.727 64.2924 193.291 81.8659C198.918 103.527 190.879 122.885 177.304 132.44C170.507 137.225 162.218 139.578 153.778 138.142C145.278 136.697 137.39 131.543 131.188 122.745L141.813 115.255C146.361 121.706 151.41 124.553 155.957 125.326C160.563 126.11 165.431 124.9 169.821 121.81C178.622 115.615 185.083 101.973 180.709 85.1341C177.273 71.9075 169.614 65.5391 161.549 62.5431Z" fill="#511AC0"/>
<path d="M65.3137 136.945C72.957 144.679 76.3951 156.442 68.5654 164.18C60.7357 171.919 50.2551 168.654 42.6118 160.921C34.9685 153.187 36.1323 147.026 43.962 139.287C51.7917 131.549 57.6703 129.212 65.3137 136.945Z" fill="#C01A6A"/>
<path d="M153.078 45L71 129.495C85.4789 135.797 119.739 141.926 140.95 116.033C162.161 90.1405 157.873 57.8891 153.078 45Z" fill="#67B44C"/>
<path d="M37.1154 74.9728L42.0654 77.4676L44.2434 74.7352L40.0062 72.3196L33.3534 73.6264L31.8486 81.2296L42.3426 91.09L40.8774 97.2676L36.2838 96.832L33.8286 93.1492L31.413 96.1588L34.6602 99.9208L43.3326 100.04L46.263 89.8624L35.0958 79.5664L37.1154 74.9728ZM61.9322 91.6444L60.071 96.0004L55.0022 96.436L52.1906 91.7236L52.943 72.6364L48.983 72.3988L48.587 94.0204L52.3886 99.9208L62.0114 100.158L65.5754 94.456L66.2882 72.6364L61.457 72.8344L61.9322 91.6444ZM85.403 72.874L81.0074 72.676L81.7598 92.278L74.1962 72.676H69.959L70.355 100.04L74.0774 99.9604L73.4834 78.8536L81.6014 99.9604H84.7298L85.403 72.874ZM107.49 76.5964L103.966 73.1116L99.0953 72.3196L92.2445 75.2104L88.9577 85.6648L91.4129 97.0696L99.0161 100.634L108.084 97.9012L107.807 88.7932L106.461 87.2092L101.946 86.8924V90.6148L105.154 90.3772L104.956 95.7232L99.4517 96.9904L94.5017 93.862L92.2841 85.9816L95.1749 77.23L101.511 75.4084L105.154 78.8932L107.49 76.5964ZM115.296 88.3972L119.573 100.198L122.384 100L117.751 88.1596L120.365 88.12L122.384 85.3876V76.1608L119.969 72.874H111.415V100H114.504L114.148 88.4764L115.296 88.3972ZM113.672 75.2896H118.068L119.85 77.3884L119.731 83.8828L118.226 85.3876L114.029 85.546L113.672 75.2896ZM133.833 75.4876L134.15 72.7552L124.884 72.9532L125.121 75.0124L127.735 75.1708L128.25 98.0596L125.636 98.218L125.953 100.119L133.477 100.04L133.913 97.624L130.982 97.8616L131.418 75.3688L133.833 75.4876ZM140.009 72.3592L135.89 99.6832L139.217 99.8812L141.157 87.8428L144.523 87.6052L146.701 99.6832L149.354 99.9604L144.404 72.3592H140.009ZM141.474 86.1004L142.82 78.2992L144.246 85.9024L141.474 86.1004Z" fill="white"/>
</g>
<defs>
<clipPath id="clip0_874_2185">
<rect width="180" height="180" fill="white"/>
</clipPath>
</defs>
</svg>
