<svg width="180" height="180" viewBox="0 0 180 180" fill="none" xmlns="http://www.w3.org/2000/svg">
<g clip-path="url(#clip0_874_2185)">
<rect width="180" height="180" fill="#713FFF"/>
<path d="M50.1293 54.6738C57.372 61.737 74.3409 58.6782 82.9184 52.4777C91.4959 46.2772 104.62 30.2251 90.9869 20.8513C77.354 11.4774 69.7155 13.8319 59.0748 24.7429C48.4341 35.6539 42.8867 47.6105 50.1293 54.6738Z" fill="#FFC93F"/>
<path d="M160 32H19.5C39.3333 46.6667 71.6 81 42 101C12.4 121 26 177 48 184.5C64.1667 187 82.4 194 120 188C167 180.5 155.5 122.5 144 87.5C134.8 59.5 150.833 38.8333 160 32Z" fill="#511AC0"/>
<path fill-rule="evenodd" clip-rule="evenodd" d="M161.549 62.5431C153.106 59.4066 143.855 59.8792 138.058 61.3105L134.942 48.6895C142.646 46.7874 154.644 46.1101 166.076 50.3568C177.886 54.7442 188.727 64.2924 193.291 81.8659C198.918 103.527 190.879 122.885 177.304 132.44C170.507 137.225 162.218 139.578 153.778 138.142C145.278 136.697 137.39 131.543 131.188 122.745L141.813 115.255C146.361 121.706 151.41 124.553 155.957 125.326C160.563 126.11 165.431 124.9 169.821 121.81C178.622 115.615 185.083 101.973 180.709 85.1341C177.273 71.9075 169.614 65.5391 161.549 62.5431Z" fill="#511AC0"/>
<path d="M65.3137 136.945C72.957 144.679 76.3951 156.442 68.5654 164.18C60.7357 171.919 50.2551 168.654 42.6118 160.921C34.9685 153.187 36.1323 147.026 43.962 139.287C51.7917 131.549 57.6703 129.212 65.3137 136.945Z" fill="#C01A6A"/>
<path d="M153.078 45L71 129.495C85.4789 135.797 119.739 141.926 140.95 116.033C162.161 90.1405 157.873 57.8891 153.078 45Z" fill="#67B44C"/>
<path d="M48.6522 76.636C46.6326 75.0916 43.7022 72.9532 40.8906 72.9532C37.485 72.9532 36.1386 75.8836 36.1386 78.3784C36.1386 85.6252 44.6526 87.2488 44.6526 93.5848C44.6526 94.9708 44.0982 96.5152 42.435 96.5152C40.0986 96.5152 38.2374 94.7332 36.3366 92.1196L34.0398 94.7332C36.3762 98.2972 38.673 100.356 41.841 100.356C45.009 100.356 47.8602 98.1784 47.8602 93.4264C47.8602 87.0112 38.9502 82.8928 38.9502 78.4972C38.9502 77.3488 39.5442 76.0816 40.6926 76.0816C42.5538 76.0816 44.9694 78.2992 46.989 79.804L48.6522 76.636ZM54.0993 72.3592L49.9809 99.6832L53.3073 99.8812L55.2477 87.8428L58.6137 87.6052L60.7917 99.6832L63.4449 99.9604L58.4949 72.3592H54.0993ZM55.5645 86.1004L56.9109 78.2992L58.3365 85.9024L55.5645 86.1004ZM81.8258 72.874L77.4302 72.676L78.1826 92.278L70.619 72.676H66.3818L66.7778 100.04L70.5002 99.9604L69.9062 78.8536L78.0242 99.9604H81.1526L81.8258 72.874ZM103.913 76.5964L100.389 73.1116L95.5181 72.3196L88.6673 75.2104L85.3805 85.6648L87.8357 97.0696L95.4389 100.634L104.507 97.9012L104.23 88.7932L102.884 87.2092L98.3693 86.8924V90.6148L101.577 90.3772L101.379 95.7232L95.8745 96.9904L90.9245 93.862L88.7069 85.9816L91.5977 77.23L97.9337 75.4084L101.577 78.8932L103.913 76.5964ZM111.719 88.3972L115.996 100.198L118.807 100L114.174 88.1596L116.788 88.12L118.807 85.3876V76.1608L116.392 72.874H107.838V100H110.927L110.57 88.4764L111.719 88.3972ZM110.095 75.2896H114.491L116.273 77.3884L116.154 83.8828L114.649 85.3876L110.452 85.546L110.095 75.2896ZM130.256 75.4876L130.573 72.7552L121.307 72.9532L121.544 75.0124L124.158 75.1708L124.673 98.0596L122.059 98.218L122.376 100.119L129.9 100.04L130.335 97.624L127.405 97.8616L127.841 75.3688L130.256 75.4876ZM136.432 72.3592L132.313 99.6832L135.64 99.8812L137.58 87.8428L140.946 87.6052L143.124 99.6832L145.777 99.9604L140.827 72.3592H136.432ZM137.897 86.1004L139.243 78.2992L140.669 85.9024L137.897 86.1004Z" fill="white"/>
</g>
<defs>
<clipPath id="clip0_874_2185">
<rect width="180" height="180" fill="white"/>
</clipPath>
</defs>
</svg>
