<svg width="180" height="180" viewBox="0 0 180 180" fill="none" xmlns="http://www.w3.org/2000/svg">
<g clip-path="url(#clip0_873_1985)">
<rect width="180" height="180" fill="#135F28"/>
<path d="M18.5 129.5C28.1 136.3 83.8333 143.667 110.5 146.5L128.5 148.5L141.5 138.5C139.667 136.833 130.9 132.7 110.5 129.5C90.1 126.3 40.6667 124.833 18.5 124.5V129.5Z" fill="#FFBE3F"/>
<path d="M85.5 136.999C22.7 126.599 5 164.332 4 184.499C36.3333 189.999 103.7 201 114.5 201C125.3 201 181.667 189.999 208.5 184.499C208.667 168.666 209.6 126.299 212 83.4996C215 30.0003 134 6.49961 101 26.4996C74.6 42.4996 76.6667 64.4994 81 73.4993C81 51.9993 108 26.4993 137 42.9993C166 59.4993 164 149.999 85.5 136.999Z" fill="#80B78F"/>
<path d="M25.9779 54.9728L30.9279 57.4676L33.1059 54.7352L28.8687 52.3196L22.2159 53.6264L20.7111 61.2296L31.2051 71.09L29.7399 77.2676L25.1463 76.832L22.6911 73.1492L20.2755 76.1588L23.5227 79.9208L32.1951 80.0396L35.1255 69.8624L23.9583 59.5664L25.9779 54.9728ZM50.7947 71.6444L48.9335 76.0004L43.8647 76.436L41.0531 71.7236L41.8055 52.6364L37.8455 52.3988L37.4495 74.0204L41.2511 79.9208L50.8739 80.1584L54.4379 74.456L55.1507 52.6364L50.3195 52.8344L50.7947 71.6444ZM62.7023 68.3972L66.9791 80.198L69.7907 80L65.1575 68.1596L67.7711 68.12L69.7907 65.3876V56.1608L67.3751 52.874H58.8215V80H61.9103L61.5539 68.4764L62.7023 68.3972ZM61.0787 55.2896H65.4743L67.2563 57.3884L67.1375 63.8828L65.6327 65.3876L61.4351 65.546L61.0787 55.2896ZM74.0325 53.0324L73.4781 79.9604L77.2797 79.6832L76.9233 66.14L81.5169 66.2588L81.6357 64.0016L76.8837 64.358L76.7253 56.6756L83.3385 55.9628L83.0613 52.5176L74.0325 53.0324ZM95.9548 52.7552L85.6984 52.9928L86.3716 80H96.628L96.8656 76.7924L88.906 77.228L88.8268 65.15L93.7372 64.8728L93.3412 62.6948L88.7872 63.2492L88.7476 55.8044L96.1132 56.3588L95.9548 52.7552ZM103.192 68.3972L107.469 80.198L110.28 80L105.647 68.1596L108.261 68.12L110.28 65.3876V56.1608L107.865 52.874H99.3109V80H102.4L102.043 68.4764L103.192 68.3972ZM101.568 55.2896H105.964L107.746 57.3884L107.627 63.8828L106.122 65.3876L101.925 65.546L101.568 55.2896ZM139.733 59.9228L134.783 52.9532L127.813 52.478L121.596 59.5268L121.913 73.3076L126.981 80.198L133.674 80.1188L138.98 73.1492L139.733 59.9228ZM135.337 72.6344L132.09 77.2676L128.249 77.1488L125.358 72.674L124.724 61.9028L129.555 55.4876L132.525 55.6064L135.575 59.5268L135.337 72.6344ZM158.686 52.874L154.291 52.676L155.043 72.278L147.479 52.676H143.242L143.638 80.0396L147.361 79.9604L146.767 58.8536L154.885 79.9604H158.013L158.686 52.874ZM33.4872 92.3592L29.3688 119.683L32.6952 119.881L34.6356 107.843L38.0016 107.605L40.1796 119.683L42.8328 119.96L37.8828 92.3592H33.4872ZM34.9524 106.1L36.2988 98.2992L37.7244 105.902L34.9524 106.1ZM46.6013 92.6364L45.7697 120H55.5905L58.5209 117.703V106.892L55.1945 104.358L58.2833 96.8736L55.8281 92.7552L46.6013 92.6364ZM56.3825 108.437L56.1845 115.802L53.8481 117.505L50.0465 117.149L50.0861 106.892L53.7293 106.298L56.3825 108.437ZM52.3037 104.239L50.0861 104.675L50.1257 95.1312L53.6897 95.0916L55.1549 97.2696L52.3037 104.239ZM66.4867 94.9728L71.4367 97.4676L73.6147 94.7352L69.3775 92.3196L62.7247 93.6264L61.2199 101.23L71.7139 111.09L70.2487 117.268L65.6551 116.832L63.1999 113.149L60.7843 116.159L64.0315 119.921L72.7039 120.04L75.6343 109.862L64.4671 99.5664L66.4867 94.9728ZM84.3528 95.4876L84.6696 92.7552L75.4032 92.9532L75.6408 95.0124L78.2544 95.1708L78.7692 118.06L76.1556 118.218L76.4724 120.119L83.9964 120.04L84.432 117.624L81.5016 117.862L81.9372 95.3688L84.3528 95.4876ZM103.675 92.874L99.2798 92.676L100.032 112.278L92.4686 92.676H88.2314L88.6274 120.04L92.3498 119.96L91.7558 98.8536L99.8738 119.96H103.002L103.675 92.874ZM122.001 92.3988L106.28 93.3096L106.438 95.5272H112.497L111.982 120.277L115.388 119.802L116.576 95.5272L121.843 95.6064L122.001 92.3988ZM125.575 120.079H127.515L127.119 105.031H131.99L132.228 120.079H135.396L134.445 92.6364H131.832L131.99 103.091L127.08 103.447L126.802 92.6364H124.506L125.575 120.079ZM150.385 92.7552L140.129 92.9928L140.802 120H151.059L151.296 116.792L143.337 117.228L143.257 105.15L148.168 104.873L147.772 102.695L143.218 103.249L143.178 95.8044L150.544 96.3588L150.385 92.7552Z" fill="white"/>
</g>
<defs>
<clipPath id="clip0_873_1985">
<rect width="180" height="180" fill="white"/>
</clipPath>
</defs>
</svg>
