<svg width="180" height="180" viewBox="0 0 180 180" fill="none" xmlns="http://www.w3.org/2000/svg">
<g clip-path="url(#clip0_873_1985)">
<rect width="180" height="180" fill="#135F28"/>
<path d="M18.5 129.5C28.1 136.3 83.8333 143.667 110.5 146.5L128.5 148.5L141.5 138.5C139.667 136.833 130.9 132.7 110.5 129.5C90.1 126.3 40.6667 124.833 18.5 124.5V129.5Z" fill="#FFBE3F"/>
<path d="M85.5 136.999C22.7 126.599 5 164.332 4 184.499C36.3333 189.999 103.7 201 114.5 201C125.3 201 181.667 189.999 208.5 184.499C208.667 168.666 209.6 126.299 212 83.4996C215 30.0003 134 6.49961 101 26.4996C74.6 42.4996 76.6667 64.4994 81 73.4993C81 51.9993 108 26.4993 137 42.9993C166 59.4993 164 149.999 85.5 136.999Z" fill="#80B78F"/>
<path d="M34.6529 56.636C32.6333 55.0916 29.7029 52.9532 26.8913 52.9532C23.4857 52.9532 22.1393 55.8836 22.1393 58.3784C22.1393 65.6252 30.6533 67.2488 30.6533 73.5848C30.6533 74.9708 30.0989 76.5152 28.4357 76.5152C26.0993 76.5152 24.2381 74.7332 22.3373 72.1196L20.0405 74.7332C22.3769 78.2972 24.6737 80.3564 27.8417 80.3564C31.0097 80.3564 33.8609 78.1784 33.8609 73.4264C33.8609 67.0112 24.9509 62.8928 24.9509 58.4972C24.9509 57.3488 25.5449 56.0816 26.6933 56.0816C28.5545 56.0816 30.9701 58.2992 32.9897 59.804L34.6529 56.636ZM50.0793 71.6444L48.2181 76.0004L43.1493 76.436L40.3377 71.7236L41.0901 52.6364L37.1301 52.3988L36.7341 74.0204L40.5357 79.9208L50.1585 80.1584L53.7225 74.456L54.4353 52.6364L49.6041 52.8344L50.0793 71.6444ZM61.9868 68.3972L66.2636 80.198L69.0752 80L64.442 68.1596L67.0556 68.12L69.0752 65.3876V56.1608L66.6596 52.874H58.106V80H61.1948L60.8384 68.4764L61.9868 68.3972ZM60.3632 55.2896H64.7588L66.5408 57.3884L66.422 63.8828L64.9172 65.3876L60.7196 65.546L60.3632 55.2896ZM73.3171 53.0324L72.7627 79.9604L76.5643 79.6832L76.2079 66.14L80.8015 66.2588L80.9203 64.0016L76.1683 64.358L76.0099 56.6756L82.6231 55.9628L82.3459 52.5176L73.3171 53.0324ZM95.2394 52.7552L84.983 52.9928L85.6562 80H95.9126L96.1502 76.7924L88.1906 77.228L88.1114 65.15L93.0218 64.8728L92.6258 62.6948L88.0718 63.2492L88.0322 55.8044L95.3978 56.3588L95.2394 52.7552ZM102.476 68.3972L106.753 80.198L109.565 80L104.931 68.1596L107.545 68.12L109.565 65.3876V56.1608L107.149 52.874H98.5955V80H101.684L101.328 68.4764L102.476 68.3972ZM100.853 55.2896H105.248L107.03 57.3884L106.911 63.8828L105.407 65.3876L101.209 65.546L100.853 55.2896ZM139.017 59.9228L134.067 52.9532L127.098 52.478L120.88 59.5268L121.197 73.3076L126.266 80.198L132.958 80.1188L138.265 73.1492L139.017 59.9228ZM134.622 72.6344L131.374 77.2676L127.533 77.1488L124.642 72.674L124.009 61.9028L128.84 55.4876L131.81 55.6064L134.859 59.5268L134.622 72.6344ZM157.971 52.874L153.575 52.676L154.328 72.278L146.764 52.676H142.527L142.923 80.0396L146.645 79.9604L146.051 58.8536L154.169 79.9604H157.298L157.971 52.874ZM17.6836 92.3988L1.96237 93.3096L2.12077 95.5272H8.17957L7.66477 120.277L11.0704 119.802L12.2584 95.5272L17.5252 95.6064L17.6836 92.3988ZM21.2575 120.079H23.1979L22.8019 105.031H27.6727L27.9103 120.079H31.0783L30.1279 92.6364H27.5143L27.6727 103.091L22.7623 103.447L22.4851 92.6364H20.1883L21.2575 120.079ZM46.0681 92.7552L35.8117 92.9928L36.4849 120H46.7413L46.9789 116.792L39.0193 117.228L38.9401 105.15L43.8505 104.873L43.4545 102.695L38.9005 103.249L38.8609 95.8044L46.2265 96.3588L46.0681 92.7552ZM60.5769 92.3592L56.4585 119.683L59.7849 119.881L61.7253 107.843L65.0913 107.605L67.2693 119.683L69.9225 119.96L64.9725 92.3592H60.5769ZM62.0421 106.1L63.3885 98.2992L64.8141 105.902L62.0421 106.1ZM73.691 92.6364L72.8594 120H82.6802L85.6106 117.703V106.892L82.2842 104.358L85.373 96.8736L82.9178 92.7552L73.691 92.6364ZM83.4722 108.437L83.2742 115.802L80.9378 117.505L77.1362 117.149L77.1758 106.892L80.819 106.298L83.4722 108.437ZM79.3934 104.239L77.1758 104.675L77.2154 95.1312L80.7794 95.0916L82.2446 97.2696L79.3934 104.239ZM93.5763 94.9728L98.5263 97.4676L100.704 94.7352L96.4671 92.3196L89.8143 93.6264L88.3095 101.23L98.8035 111.09L97.3383 117.268L92.7447 116.832L90.2895 113.149L87.8739 116.159L91.1211 119.921L99.7935 120.04L102.724 109.862L91.5567 99.5664L93.5763 94.9728ZM111.442 95.4876L111.759 92.7552L102.493 92.9532L102.73 95.0124L105.344 95.1708L105.859 118.06L103.245 118.218L103.562 120.119L111.086 120.04L111.522 117.624L108.591 117.862L109.027 95.3688L111.442 95.4876ZM130.765 92.874L126.369 92.676L127.122 112.278L119.558 92.676H115.321L115.717 120.04L119.439 119.96L118.845 98.8536L126.963 119.96H130.092L130.765 92.874ZM149.091 92.3988L133.369 93.3096L133.528 95.5272H139.587L139.072 120.277L142.477 119.802L143.665 95.5272L148.932 95.6064L149.091 92.3988ZM152.664 120.079H154.605L154.209 105.031H159.08L159.317 120.079H162.485L161.535 92.6364H158.921L159.08 103.091L154.169 103.447L153.892 92.6364H151.595L152.664 120.079ZM177.475 92.7552L167.219 92.9928L167.892 120H178.148L178.386 116.792L170.426 117.228L170.347 105.15L175.258 104.873L174.862 102.695L170.308 103.249L170.268 95.8044L177.634 96.3588L177.475 92.7552Z" fill="white"/>
</g>
<defs>
<clipPath id="clip0_873_1985">
<rect width="180" height="180" fill="white"/>
</clipPath>
</defs>
</svg>
