<svg width="180" height="180" viewBox="0 0 180 180" fill="none" xmlns="http://www.w3.org/2000/svg">
<g clip-path="url(#clip0_874_2356)">
<rect width="180" height="180" fill="#4B93C7"/>
<path d="M158.005 131.413L57.3052 26.4287C39.6887 50.3538 13.3831 104.846 49.0921 131.413C84.8011 157.981 136.579 142.483 158.005 131.413Z" fill="#EC8348"/>
<path d="M45.1639 101.06C37.1651 71.636 55.1625 38.0933 65.161 25H49.449C34.4512 51.5437 12.5973 110.916 45.1639 136.055C77.7306 161.194 141.578 146.53 169.431 136.055L166.575 126.414C107.655 143.911 55.1625 137.841 45.1639 101.06Z" fill="#CD6022"/>
<path d="M51.9487 79.9923C51.3773 59.4239 66.4704 37.1415 74.0883 28.5713L88.3718 53.9247L51.9487 79.9923Z" fill="#EF6314"/>
<path d="M51.9487 88.5625L92.6569 57.4956L119.796 88.5625L63.7326 119.272C47.7349 108.131 49.211 94.1569 51.9487 88.5625Z" fill="#EF6314"/>
<path d="M76.2309 121.415L125.509 91.4192L145.864 112.13L138.722 127.485C106.155 134.056 83.4917 126.176 76.2309 121.415Z" fill="#EF6314"/>
<path d="M38.6687 56.5784L24.7847 57.3616L24.9271 59.284H30.1603L29.7331 81L32.9371 80.6084L34.0051 59.284L38.5619 59.3552L38.6687 56.5784ZM42.991 56.1512L39.2886 80.7152L42.279 80.8932L44.0234 70.0708L47.0494 69.8572L49.0074 80.7152L51.3926 80.9644L46.9426 56.1512H42.991ZM44.3082 68.5044L45.5186 61.4912L46.8002 68.3264L44.3082 68.5044ZM67.9169 56.614L63.9653 56.436L64.6417 74.058L57.8421 56.436H54.0329L54.3889 81.0356L57.7353 80.9644L57.2013 61.9896L64.4993 80.9644H67.3117L67.9169 56.614ZM87.7733 59.9604L84.6049 56.8276L80.2261 56.1156L74.0673 58.7144L71.1125 68.1128L73.3197 78.3656L80.1549 81.5696L88.3073 79.1132L88.0581 70.9252L86.8477 69.5012L82.7893 69.2164V72.5628L85.6729 72.3492L85.4949 77.1552L80.5465 78.2944L76.0965 75.482L74.1029 68.3976L76.7017 60.53L82.3977 58.8924L85.6729 62.0252L87.7733 59.9604ZM100.522 56.5072L91.3016 56.7208L91.9068 81H101.127L101.341 78.1164L94.1852 78.508L94.114 67.65L98.5284 67.4008L98.1724 65.4428L94.0784 65.9412L94.0428 59.2484L100.664 59.7468L100.522 56.5072ZM107.028 70.5692L110.873 81.178L113.4 81L109.235 70.3556L111.585 70.32L113.4 67.8636V59.5688L111.229 56.614H103.539V81H106.316L105.996 70.6404L107.028 70.5692ZM105.568 58.7856H109.52L111.122 60.6724L111.015 66.5108L109.662 67.8636L105.889 68.006L105.568 58.7856ZM123.693 58.9636L123.978 56.5072L115.647 56.6852L115.861 58.5364L118.21 58.6788L118.673 79.2556L116.324 79.398L116.608 81.1068L123.372 81.0356L123.764 78.864L121.13 79.0776L121.521 58.8568L123.693 58.9636ZM141.064 56.614L137.112 56.436L137.789 74.058L130.989 56.436H127.18L127.536 81.0356L130.882 80.9644L130.348 61.9896L137.646 80.9644H140.459L141.064 56.614ZM154.548 56.5072L145.327 56.7208L145.933 81H155.153L155.367 78.1164L148.211 78.508L148.14 67.65L152.554 67.4008L152.198 65.4428L148.104 65.9412L148.069 59.2484L154.69 59.7468L154.548 56.5072ZM34.9467 92.4004L34.1991 117H43.0279L45.6623 114.935V105.216L42.6719 102.938L45.4487 96.2096L43.2415 92.5072L34.9467 92.4004ZM43.7399 106.605L43.5619 113.226L41.4615 114.757L38.0439 114.437L38.0795 105.216L41.3547 104.682L43.7399 106.605ZM40.0731 102.831L38.0795 103.223L38.1151 94.6432L41.3191 94.6076L42.6363 96.5656L40.0731 102.831ZM64.0018 98.9508L59.5519 92.6852L53.2862 92.258L47.697 98.5948L47.9818 110.984L52.5386 117.178L58.5551 117.107L63.3255 110.841L64.0018 98.9508ZM60.0502 110.378L57.131 114.544L53.6779 114.437L51.079 110.414L50.5094 100.731L54.8526 94.9636L57.5226 95.0704L60.2639 98.5948L60.0502 110.378ZM78.5753 109.488L76.9021 113.404L72.3453 113.796L69.8177 109.56L70.4941 92.4004L66.9341 92.1868L66.5781 111.624L69.9957 116.929L78.6465 117.142L81.8505 112.016L82.4913 92.4004L78.1481 92.5784L78.5753 109.488ZM89.2801 106.569L93.1249 117.178L95.6525 117L91.4873 106.356L93.8369 106.32L95.6525 103.864V95.5688L93.4809 92.614H85.7913V117H88.5681L88.2477 106.64L89.2801 106.569ZM87.8205 94.7856H91.7721L93.3741 96.6724L93.2673 102.511L91.9145 103.864L88.1409 104.006L87.8205 94.7856ZM99.715 92.4004L98.9674 117H107.796L110.431 114.935V105.216L107.44 102.938L110.217 96.2096L108.01 92.5072L99.715 92.4004ZM108.508 106.605L108.33 113.226L106.23 114.757L102.812 114.437L102.848 105.216L106.123 104.682L108.508 106.605ZM104.841 102.831L102.848 103.223L102.883 94.6432L106.087 94.6076L107.405 96.5656L104.841 102.831ZM128.77 98.9508L124.32 92.6852L118.055 92.258L112.465 98.5948L112.75 110.984L117.307 117.178L123.323 117.107L128.094 110.841L128.77 98.9508ZM124.819 110.378L121.899 114.544L118.446 114.437L115.847 110.414L115.278 100.731L119.621 94.9636L122.291 95.0704L125.032 98.5948L124.819 110.378ZM145.809 92.614L141.858 92.436L142.534 110.058L135.734 92.436H131.925L132.281 117.036L135.628 116.964L135.094 97.9896L142.392 116.964H145.204L145.809 92.614Z" fill="white"/>
</g>
<defs>
<clipPath id="clip0_874_2356">
<rect width="180" height="180" fill="white"/>
</clipPath>
</defs>
</svg>
