<svg width="180" height="180" viewBox="0 0 180 180" fill="none" xmlns="http://www.w3.org/2000/svg">
<g clip-path="url(#clip0_873_1933)">
<rect width="180" height="180" fill="#6B291A"/>
<path d="M11.3379 99.5784L35.681 128.702C35.681 128.702 64.6964 128.091 99.9552 114.234L88.6475 85.4619C68.7736 93.285 33.0348 103.973 11.3379 99.5784Z" fill="#CA6821"/>
<path d="M154.881 43.1643L156.881 81.0695C156.881 81.0695 135.214 100.377 99.9549 114.234L88.6471 85.4619C108.53 77.6604 141.982 61.1557 154.881 43.1643Z" fill="#CA6821"/>
<path d="M156.186 43.646C158.38 49.2291 146.185 59.6678 126.132 70.655C115.728 76.3543 103.219 82.2001 89.4864 87.5972L89.4278 87.6202C75.7319 93.0028 62.6051 97.2439 51.1169 100.152C28.8841 105.788 12.7929 106.462 10.5933 100.865C8.13237 94.6037 23.77 82.2341 48.2985 69.8245C56.9986 65.42 66.8006 61.0256 77.3469 56.8808L77.4055 56.8578C87.9591 52.7101 98.1782 49.2479 107.56 46.5459C133.912 38.9707 153.729 37.3947 156.186 43.646Z" fill="#DA8F29"/>
<path d="M62.6669 19.3554L89.7296 88.2155L89.671 88.2385C75.9751 93.6211 62.7511 97.6147 51.0966 100.1C50.4661 97.4216 49.2043 91.8362 47.9787 84.9781C47.8185 84.0979 47.6619 83.1979 47.5088 82.2783C47.3426 81.2822 47.1784 80.2699 47.0163 79.2412C46.8757 78.3463 46.7308 77.4403 46.6065 76.5221C45.8938 71.6247 45.3096 66.474 45.01 61.4565C44.686 56.0008 44.7184 50.7429 45.3324 46.2447C45.5452 44.5928 45.8784 42.9587 46.3291 41.3554C51.6965 22.7758 62.6669 19.3554 62.6669 19.3554Z" fill="#EFAA29"/>
<path d="M126.109 70.5983C115.876 76.7318 103.46 82.8148 89.7292 88.2155L62.6665 19.3554C62.6665 19.3554 73.0301 14.3913 89.6113 24.3449C90.0477 24.5957 90.4992 24.8955 90.9448 25.2018C94.5255 27.6291 98.2662 31.2478 101.924 35.4186C102.713 36.3162 103.497 37.2369 104.277 38.1808C106.069 40.3564 107.828 42.6297 109.525 44.9274C110.499 46.234 111.459 47.5799 112.389 48.9036C115.1 52.7621 117.59 56.5726 119.719 59.9589C122.683 64.6642 124.942 68.5527 126.109 70.5983Z" fill="#EFAA29"/>
<path d="M73.6421 138.715L107.142 129.215V134.715L76.6421 146.215L73.6421 138.715Z" fill="#EFAA29"/>
<path d="M129.87 130.255L111.654 159.931L107.93 155.884L122.584 126.768L129.87 130.255Z" fill="#EFAA29"/>
<ellipse cx="68.1423" cy="145.715" rx="18" ry="14" transform="rotate(-15.8308 68.1423 145.715)" fill="#CA6821"/>
<ellipse cx="129.177" cy="121.38" rx="18" ry="14" transform="rotate(121.544 129.177 121.38)" fill="#CA6821"/>
<path d="M50.4386 52.3988L34.7174 53.3096L34.8758 55.5272H40.9346L40.4198 80.2772L43.8254 79.802L45.0134 55.5272L50.2802 55.6064L50.4386 52.3988ZM63.1997 52.7552L52.9433 52.9928L53.6165 80H63.8729L64.1105 76.7924L56.1509 77.228L56.0717 65.15L60.9821 64.8728L60.5861 62.6948L56.0321 63.2492L55.9925 55.8044L63.3581 56.3588L63.1997 52.7552ZM65.8826 73.2284L70.9118 80.0792L76.6142 80.1584L80.3366 84.3956L82.871 82.4948L78.5942 78.1388L81.9206 73.3472L82.2374 59.7248L76.3766 52.7552L69.8426 53.1908L65.249 60.0812L65.8826 73.2284ZM69.1298 59.7248L71.9414 55.8044L74.7926 55.6856L79.307 62.0612L78.7526 72.7136L76.6142 76.1192L74.1986 73.6244L72.0998 74.9708L74.0402 77.228L72.4166 77.2676L69.3674 72.674L69.1298 59.7248ZM98.7092 71.6444L96.848 76.0004L91.7792 76.436L88.9676 71.7236L89.72 52.6364L85.76 52.3988L85.364 74.0204L89.1656 79.9208L98.7884 80.1584L102.352 74.456L103.065 52.6364L98.234 52.8344L98.7092 71.6444ZM114.498 55.4876L114.814 52.7552L105.548 52.9532L105.786 55.0124L108.399 55.1708L108.914 78.0596L106.3 78.218L106.617 80.1188L114.141 80.0396L114.577 77.624L111.646 77.8616L112.082 55.3688L114.498 55.4876ZM129.385 75.9608L121.861 76.9112L122.693 53.0324L118.376 52.6364L118.812 80.1584L129.86 80.2772L129.385 75.9608ZM135.794 52.3592L131.675 79.6832L135.002 79.8812L136.942 67.8428L140.308 67.6052L142.486 79.6832L145.139 79.9604L140.189 52.3592L135.794 52.3592ZM137.259 66.1004L138.605 58.2992L140.031 65.9024L137.259 66.1004ZM41.176 94.9728L46.126 97.4676L48.304 94.7352L44.0668 92.3196L37.414 93.6264L35.9092 101.23L46.4032 111.09L44.938 117.268L40.3444 116.832L37.8892 113.149L35.4736 116.159L38.7208 119.921L47.3932 120.04L50.3236 109.862L39.1564 99.5664L41.176 94.9728ZM65.9928 111.644L64.1316 116L59.0628 116.436L56.2512 111.724L57.0036 92.6364L53.0436 92.3988L52.6476 114.02L56.4492 119.921L66.072 120.158L69.636 114.456L70.3488 92.6364L65.5176 92.8344L65.9928 111.644ZM89.4635 92.874L85.0679 92.676L85.8203 112.278L78.2567 92.676H74.0195L74.4155 120.04L78.1379 119.96L77.5439 98.8536L85.6619 119.96H88.7903L89.4635 92.874ZM98.087 108.397L102.364 120.198L105.175 120L100.542 108.16L103.156 108.12L105.175 105.388V96.1608L102.76 92.874H94.2062V120H97.295L96.9386 108.476L98.087 108.397ZM96.4634 95.2896H100.859L102.641 97.3884L102.522 103.883L101.017 105.388L96.8198 105.546L96.4634 95.2896ZM116.624 95.4876L116.941 92.7552L107.675 92.9532L107.912 95.0124L110.526 95.1708L111.041 118.06L108.427 118.218L108.744 120.119L116.268 120.04L116.704 117.624L113.773 117.862L114.209 95.3688L116.624 95.4876ZM122.928 94.9728L127.878 97.4676L130.056 94.7352L125.819 92.3196L119.166 93.6264L117.661 101.23L128.155 111.09L126.69 117.268L122.097 116.832L119.641 113.149L117.226 116.159L120.473 119.921L129.145 120.04L132.076 109.862L120.909 99.5664L122.928 94.9728ZM144.875 92.7552L134.618 92.9928L135.292 120H145.548L145.786 116.792L137.826 117.228L137.747 105.15L142.657 104.873L142.261 102.695L137.707 103.249L137.668 95.8044L145.033 96.3588L144.875 92.7552Z" fill="white"/>
</g>
<defs>
<clipPath id="clip0_873_1933">
<rect width="180" height="180" fill="white"/>
</clipPath>
</defs>
</svg>
