<svg width="180" height="180" viewBox="0 0 180 180" fill="none" xmlns="http://www.w3.org/2000/svg">
<g clip-path="url(#clip0_874_2573)">
<rect width="180" height="180" fill="#D76950"/>
<path d="M29 134.718L44.3462 32H143V149L29 134.718Z" fill="#85263D"/>
<circle cx="90" cy="84" r="33" fill="#FF3F6D"/>
<path d="M64.3316 74.1868L50.1984 75.0056L50.3408 76.9992H55.7876L55.3248 99.2492L58.3864 98.822L59.4544 76.9992L64.1892 77.0704L64.3316 74.1868ZM75.8037 74.5072L66.5833 74.7208L67.1885 99H76.4089L76.6225 96.1164L69.4669 96.508L69.3957 85.65L73.8101 85.4008L73.4541 83.4428L69.3601 83.9412L69.3245 77.2484L75.9461 77.7468L75.8037 74.5072ZM82.8436 76.5008L87.2936 78.7436L89.2516 76.2872L85.4424 74.1156L79.4616 75.2904L78.1088 82.1256L87.5428 90.99L86.2256 96.5436L82.096 96.152L79.8888 92.8412L77.7172 95.5468L80.6364 98.9288L88.4328 99.0356L91.0672 89.8864L81.028 80.6304L82.8436 76.5008ZM104.486 74.1868L90.3527 75.0056L90.4951 76.9992H95.9419L95.4791 99.2492L98.5407 98.822L99.6087 76.9992L104.343 77.0704L104.486 74.1868ZM115.958 74.5072L106.738 74.7208L107.343 99H116.563L116.777 96.1164L109.621 96.508L109.55 85.65L113.964 85.4008L113.608 83.4428L109.514 83.9412L109.479 77.2484L116.1 77.7468L115.958 74.5072ZM122.464 88.5692L126.309 99.178L128.836 99L124.671 88.3556L127.021 88.32L128.836 85.8636V77.5688L126.665 74.614H118.975V99H121.752L121.431 88.6404L122.464 88.5692ZM121.004 76.7856H124.956L126.558 78.6724L126.451 84.5108L125.098 85.8636L121.325 86.006L121.004 76.7856Z" fill="white"/>
<path fill-rule="evenodd" clip-rule="evenodd" d="M82.5 186.5V136H89.5V186.5H82.5Z" fill="#85263D"/>
</g>
<defs>
<clipPath id="clip0_874_2573">
<rect width="180" height="180" fill="white"/>
</clipPath>
</defs>
</svg>
