<svg width="180" height="180" viewBox="0 0 180 180" fill="none" xmlns="http://www.w3.org/2000/svg">
<g clip-path="url(#clip0_873_2062)">
<rect width="180" height="180" fill="#713FFF"/>
<path d="M121 159H9C15.1667 168.167 34.9 186.5 64.5 186.5C94.1 186.5 114.5 168.167 121 159Z" fill="#FFBE3F"/>
<path d="M242 159H130C136.167 168.167 155.9 186.5 185.5 186.5C215.1 186.5 235.5 168.167 242 159Z" fill="#FFBE3F"/>
<path d="M59 76H-53C-46.8333 85.1667 -27.1 103.5 2.5 103.5C32.1 103.5 52.5 85.1667 59 76Z" fill="#FFBE3F"/>
<path d="M180 76H68C74.1667 85.1667 93.9 103.5 123.5 103.5C153.1 103.5 173.5 85.1667 180 76Z" fill="#FFBE3F"/>
<path d="M121 49H9C15.1667 58.1667 34.9 76.5 64.5 76.5C94.1 76.5 114.5 58.1667 121 49Z" fill="#FFBE3F"/>
<path d="M242 49H130C136.167 58.1667 155.9 76.5 185.5 76.5C215.1 76.5 235.5 58.1667 242 49Z" fill="#FFBE3F"/>
<path d="M59 131H-53C-46.8333 140.167 -27.1 158.5 2.5 158.5C32.1 158.5 52.5 140.167 59 131Z" fill="#FFBE3F"/>
<path d="M180 131H68C74.1667 140.167 93.9 158.5 123.5 158.5C153.1 158.5 173.5 140.167 180 131Z" fill="#FFBE3F"/>
<path d="M121 104H9C15.1667 113.167 34.9 131.5 64.5 131.5C94.1 131.5 114.5 113.167 121 104Z" fill="#FFBE3F"/>
<path d="M242 104H130C136.167 113.167 155.9 131.5 185.5 131.5C215.1 131.5 235.5 113.167 242 104Z" fill="#FFBE3F"/>
<path d="M59 21H-53C-46.8333 30.1667 -27.1 48.5 2.5 48.5C32.1 48.5 52.5 30.1667 59 21Z" fill="#FFBE3F"/>
<path d="M180 21H68C74.1667 30.1667 93.9 48.5 123.5 48.5C153.1 48.5 173.5 30.1667 180 21Z" fill="#FFBE3F"/>
<path d="M121 -6H9C15.1667 3.16667 34.9 21.5 64.5 21.5C94.1 21.5 114.5 3.16667 121 -6Z" fill="#FFBE3F"/>
<path d="M242 -6H130C136.167 3.16667 155.9 21.5 185.5 21.5C215.1 21.5 235.5 3.16667 242 -6Z" fill="#FFBE3F"/>
<path d="M-53 186L59 186C52.8333 176.667 33.1 158 3.5 158C-26.1 158 -46.5 176.667 -53 186Z" fill="#FF843F"/>
<path d="M68 186L180 186C173.833 176.667 154.1 158 124.5 158C94.9 158 74.5 176.667 68 186Z" fill="#FF843F"/>
<path d="M9 159L121 159C114.833 149.667 95.1 131 65.5 131C35.9 131 15.5 149.667 9 159Z" fill="#FF843F"/>
<path d="M130 159L242 159C235.833 149.667 216.1 131 186.5 131C156.9 131 136.5 149.667 130 159Z" fill="#FF843F"/>
<path d="M-53 76L59 76C52.8333 66.6667 33.1 48 3.5 48C-26.1 48 -46.5 66.6667 -53 76Z" fill="#FF843F"/>
<path d="M68 76L180 76C173.833 66.6667 154.1 48 124.5 48C94.9 48 74.5 66.6667 68 76Z" fill="#FF843F"/>
<path d="M9 49L121 49C114.833 39.6667 95.1 21 65.5 21C35.9 21 15.5 39.6667 9 49Z" fill="#FF843F"/>
<path d="M130 49L242 49C235.833 39.6667 216.1 21 186.5 21C156.9 21 136.5 39.6667 130 49Z" fill="#FF843F"/>
<path d="M-53 131L59 131C52.8333 121.667 33.1 103 3.5 103C-26.1 103 -46.5 121.667 -53 131Z" fill="#FF843F"/>
<path d="M68 131L180 131C173.833 121.667 154.1 103 124.5 103C94.9 103 74.5 121.667 68 131Z" fill="#FF843F"/>
<path d="M9 104L121 104C114.833 94.6667 95.1 76 65.5 76C35.9 76 15.5 94.6667 9 104Z" fill="#FF843F"/>
<path d="M130 104L242 104C235.833 94.6667 216.1 76 186.5 76C156.9 76 136.5 94.6667 130 104Z" fill="#FF843F"/>
<path d="M-53 21L59 21C52.8333 11.6667 33.1 -6.99999 3.5 -7C-26.1 -7 -46.5 11.6667 -53 21Z" fill="#FF843F"/>
<path d="M68 21L180 21C173.833 11.6667 154.1 -6.99999 124.5 -7C94.9 -7 74.5 11.6667 68 21Z" fill="#FF843F"/>
<path d="M45.9269 52.8344L30.4829 53.7056L30.6413 55.844H36.4625L35.9873 80L39.5513 79.5644L40.7393 55.844L45.8081 55.9232L45.9269 52.8344ZM52.3189 68.3972L56.5957 80.198L59.4073 80L54.7741 68.1596L57.3877 68.12L59.4073 65.3876V56.1608L56.9917 52.874H48.4381V80H51.5269L51.1705 68.4764L52.3189 68.3972ZM50.6953 55.2896H55.0909L56.8729 57.3884L56.7541 63.8828L55.2493 65.3876L51.0517 65.546L50.6953 55.2896ZM80.0039 59.9228L75.0539 52.9532L68.0843 52.478L61.8671 59.5268L62.1839 73.3076L67.2527 80.198L73.9451 80.1188L79.2515 73.1492L80.0039 59.9228ZM75.6083 72.6344L72.3611 77.2676L68.5199 77.1488L65.6291 72.674L64.9955 61.9028L69.8267 55.4876L72.7967 55.6064L75.8459 59.5268L75.6083 72.6344ZM94.8786 56.1608L92.4235 52.8344H83.5135V80H86.5627L86.1667 68.4764L92.4235 68.2784L94.839 65.348L94.8786 56.1608ZM91.7899 63.9224L90.2851 65.348L86.0875 65.5064L85.7311 55.3292H90.1267L91.9087 57.3884L91.7899 63.9224ZM105.158 55.4876L105.475 52.7552L96.2087 52.9532L96.4463 55.0124L99.0599 55.1708L99.5747 78.0596L96.9611 78.218L97.2779 80.1188L104.802 80.0396L105.237 77.624L102.307 77.8616L102.743 55.3688L105.158 55.4876ZM119.71 76.7132L112.701 77.1488L110.721 64.754L112.344 57.2696L119.591 56.3192L119.67 52.2404L110.8 53.27L106.998 65.744L110.285 80.3168L120.145 80.0792L119.71 76.7132ZM126.184 52.3592L122.065 79.6832L125.392 79.8812L127.332 67.8428L130.698 67.6052L132.876 79.6832L135.529 79.9604L130.579 52.3592H126.184ZM127.649 66.1004L128.995 58.2992L130.421 65.9024L127.649 66.1004ZM149.475 75.9608L141.951 76.9112L142.783 53.0324L138.466 52.6364L138.902 80.1584L149.95 80.2772L149.475 75.9608ZM44.3152 96.1608L41.86 92.8344H32.95V120H35.9992L35.6032 108.476L41.86 108.278L44.2756 105.348L44.3152 96.1608ZM41.2264 103.922L39.7216 105.348L35.524 105.506L35.1676 95.3292H39.5632L41.3452 97.3884L41.2264 103.922ZM49.13 92.3592L45.0116 119.683L48.338 119.881L50.2784 107.843L53.6444 107.605L55.8224 119.683L58.4756 119.96L53.5256 92.3592H49.13ZM50.5952 106.1L51.9416 98.2992L53.3672 105.902L50.5952 106.1ZM65.2933 108.397L69.5701 120.198L72.3817 120L67.7485 108.16L70.3621 108.12L72.3817 105.388V96.1608L69.9661 92.874H61.4125V120H64.5013L64.1449 108.476L65.2933 108.397ZM63.6697 95.2896H68.0653L69.8473 97.3884L69.7285 103.883L68.2237 105.388L64.0261 105.546L63.6697 95.2896ZM78.3659 92.3592L74.2475 119.683L77.5739 119.881L79.5143 107.843L82.8803 107.605L85.0583 119.683L87.7115 119.96L82.7615 92.3592H78.3659ZM79.8311 106.1L81.1775 98.2992L82.6031 105.902L79.8311 106.1ZM91.2028 120.198L103.281 119.762L108.508 113.585L109.102 101.071L102.647 93.1908L90.6484 92.7552L91.2028 120.198ZM103.716 111.882L100.786 116.357L94.8064 116.594L95.1628 95.9628L100.469 95.8044L104.469 102.457L103.716 111.882ZM120.376 95.4876L120.692 92.7552L111.426 92.9532L111.664 95.0124L114.277 95.1708L114.792 118.06L112.178 118.218L112.495 120.119L120.019 120.04L120.455 117.624L117.524 117.862L117.96 95.3688L120.376 95.4876ZM126.679 94.9728L131.629 97.4676L133.807 94.7352L129.57 92.3196L122.917 93.6264L121.413 101.23L131.907 111.09L130.441 117.268L125.848 116.832L123.393 113.149L120.977 116.159L124.224 119.921L132.897 120.04L135.827 109.862L124.66 99.5664L126.679 94.9728ZM148.626 92.7552L138.369 92.9928L139.043 120H149.299L149.537 116.792L141.577 117.228L141.498 105.15L146.408 104.873L146.012 102.695L141.458 103.249L141.419 95.8044L148.784 96.3588L148.626 92.7552Z" fill="white"/>
</g>
<defs>
<clipPath id="clip0_873_2062">
<rect width="180" height="180" fill="white"/>
</clipPath>
</defs>
</svg>
