<svg width="180" height="180" viewBox="0 0 180 180" fill="none" xmlns="http://www.w3.org/2000/svg">
<g clip-path="url(#clip0_874_2382)">
<rect width="180" height="180" fill="#477F83"/>
<path d="M144.166 80.8583C152.158 107.291 132.027 125.794 102.951 134.585C73.8755 143.376 46.8651 139.126 38.8733 112.693C30.8815 86.2608 47.9734 57.7065 77.0491 48.9155C106.125 40.1245 136.174 54.4258 144.166 80.8583Z" fill="#D76950"/>
<path d="M56.5 189.5C91.7 165.5 78.8333 143.5 68 135.5L127 116C94.6 152.4 118.5 180.167 134.5 189.5H56.5Z" fill="#D76950"/>
<path d="M149.724 50.6022L97.8568 33.5066C101.023 27.9075 111.346 17.896 127.313 22.6431C143.28 27.3903 148.907 43.2605 149.724 50.6022Z" fill="#D76950"/>
<path d="M22.6314 165.054L14.8439 111C21.267 111.341 34.8279 116.127 37.6869 132.538C40.5458 148.948 28.8411 161.053 22.6314 165.054Z" fill="#D76950"/>
<path d="M158.483 128.055L129.909 144.799C128.631 141.114 128.215 132.403 136.777 127.042C145.338 121.681 154.815 125.484 158.483 128.055Z" fill="#D76950"/>
<path d="M48.7355 83.4718L6.92037 15.5421C15.7277 12.2713 36.6817 10.8138 50.0397 31.1498C63.3978 51.4858 54.7361 74.5045 48.7355 83.4718Z" fill="#D76950"/>
<path d="M163.526 34.4257L159.938 9.00031C156.83 10.1545 150.825 14.4121 151.672 22.2083C152.518 30.0044 159.927 33.6017 163.526 34.4257Z" fill="#D76950"/>
<path d="M45.9269 52.8344L30.4829 53.7056L30.6413 55.844H36.4625L35.9873 80L39.5513 79.5644L40.7393 55.844L45.8081 55.9232L45.9269 52.8344ZM52.3189 68.3972L56.5957 80.198L59.4073 80L54.7741 68.1596L57.3877 68.12L59.4073 65.3876V56.1608L56.9917 52.874H48.4381V80H51.5269L51.1705 68.4764L52.3189 68.3972ZM50.6953 55.2896H55.0909L56.8729 57.3884L56.7541 63.8828L55.2493 65.3876L51.0517 65.546L50.6953 55.2896ZM80.0039 59.9228L75.0539 52.9532L68.0843 52.478L61.8671 59.5268L62.1839 73.3076L67.2527 80.198L73.9451 80.1188L79.2515 73.1492L80.0039 59.9228ZM75.6083 72.6344L72.3611 77.2676L68.5199 77.1488L65.6291 72.674L64.9955 61.9028L69.8267 55.4876L72.7967 55.6064L75.8459 59.5268L75.6083 72.6344ZM94.8786 56.1608L92.4235 52.8344H83.5135V80H86.5627L86.1667 68.4764L92.4235 68.2784L94.839 65.348L94.8786 56.1608ZM91.7899 63.9224L90.2851 65.348L86.0875 65.5064L85.7311 55.3292H90.1267L91.9087 57.3884L91.7899 63.9224ZM105.158 55.4876L105.475 52.7552L96.2087 52.9532L96.4463 55.0124L99.0599 55.1708L99.5747 78.0596L96.9611 78.218L97.2779 80.1188L104.802 80.0396L105.237 77.624L102.307 77.8616L102.743 55.3688L105.158 55.4876ZM119.71 76.7132L112.701 77.1488L110.721 64.754L112.344 57.2696L119.591 56.3192L119.67 52.2404L110.8 53.27L106.998 65.744L110.285 80.3168L120.145 80.0792L119.71 76.7132ZM126.184 52.3592L122.065 79.6832L125.392 79.8812L127.332 67.8428L130.698 67.6052L132.876 79.6832L135.529 79.9604L130.579 52.3592H126.184ZM127.649 66.1004L128.995 58.2992L130.421 65.9024L127.649 66.1004ZM149.475 75.9608L141.951 76.9112L142.783 53.0324L138.466 52.6364L138.902 80.1584L149.95 80.2772L149.475 75.9608ZM54.7997 92.6364L53.9681 120H63.7889L66.7193 117.703V106.892L63.3929 104.358L66.4817 96.8736L64.0265 92.7552L54.7997 92.6364ZM64.5809 108.437L64.3829 115.802L62.0465 117.505L58.2449 117.149L58.2845 106.892L61.9277 106.298L64.5809 108.437ZM60.5021 104.239L58.2845 104.675L58.3241 95.1312L61.8881 95.0916L63.3533 97.2696L60.5021 104.239ZM81.2191 115.961L73.6951 116.911L74.5267 93.0324L70.2103 92.6364L70.6459 120.158L81.6943 120.277L81.2191 115.961ZM87.6278 92.3592L83.5094 119.683L86.8358 119.881L88.7762 107.843L92.1422 107.605L94.3202 119.683L96.9734 119.96L92.0234 92.3592H87.6278ZM89.093 106.1L90.4394 98.2992L91.865 105.902L89.093 106.1ZM104.385 94.9728L109.335 97.4676L111.513 94.7352L107.276 92.3196L100.623 93.6264L99.1183 101.23L109.612 111.09L108.147 117.268L103.554 116.832L101.098 113.149L98.6827 116.159L101.93 119.921L110.602 120.04L113.533 109.862L102.366 99.5664L104.385 94.9728ZM128.459 92.3988L112.738 93.3096L112.896 95.5272H118.955L118.44 120.277L121.846 119.802L123.034 95.5272L128.301 95.6064L128.459 92.3988Z" fill="white"/>
</g>
<defs>
<clipPath id="clip0_874_2382">
<rect width="180" height="180" fill="white"/>
</clipPath>
</defs>
</svg>
