<svg width="180" height="180" viewBox="0 0 180 180" fill="none" xmlns="http://www.w3.org/2000/svg">
<g clip-path="url(#clip0_874_2373)">
<rect width="180" height="180" fill="#713FFF"/>
<path d="M82.5 67L31.5 92C33.5 103.333 37.8 126.4 39 128C40.2 129.6 68.5 88 82.5 67Z" fill="#4CB469"/>
<path d="M82.5 63C62.6667 60.5 22.3 55.5 19.5 55.5V5L82.5 63Z" fill="#4CB469"/>
<path d="M86 59L66.5 21.5L105.5 30L86 59Z" fill="#4CB469"/>
<path d="M89 63C101.833 55.5 127.9 40.2 129.5 39L157 42.5L100.5 63L140 67V107L89 63Z" fill="#4CB469"/>
<path d="M45 192L87 67L127.5 195L45 192Z" fill="#CC7E6D"/>
<path d="M67.5638 32.8344L52.1198 33.7056L52.2782 35.844H58.0994L57.6242 60L61.1882 59.5644L62.3762 35.844L67.445 35.9232L67.5638 32.8344ZM73.9558 48.3972L78.2326 60.198L81.0442 60L76.411 48.1596L79.0246 48.12L81.0442 45.3876V36.1608L78.6286 32.874H70.075V60H73.1638L72.8074 48.4764L73.9558 48.3972ZM72.3322 35.2896H76.7278L78.5098 37.3884L78.391 43.8828L76.8862 45.3876L72.6886 45.546L72.3322 35.2896ZM101.641 39.9228L96.6908 32.9532L89.7212 32.478L83.504 39.5268L83.8208 53.3076L88.8896 60.198L95.582 60.1188L100.888 53.1492L101.641 39.9228ZM97.2452 52.6344L93.998 57.2676L90.1568 57.1488L87.266 52.674L86.6324 41.9028L91.4636 35.4876L94.4336 35.6064L97.4828 39.5268L97.2452 52.6344ZM116.516 36.1608L114.06 32.8344H105.15V60H108.2L107.804 48.4764L114.06 48.2784L116.476 45.348L116.516 36.1608ZM113.427 43.9224L111.922 45.348L107.724 45.5064L107.368 35.3292H111.764L113.546 37.3884L113.427 43.9224ZM126.795 35.4876L127.112 32.7552L117.846 32.9532L118.083 35.0124L120.697 35.1708L121.212 58.0596L118.598 58.218L118.915 60.1188L126.439 60.0396L126.874 57.624L123.944 57.8616L124.38 35.3688L126.795 35.4876ZM81.9273 96.7132L74.9181 97.1488L72.9381 84.754L74.5617 77.2696L81.8085 76.3192L81.8877 72.2404L73.0173 73.27L69.2157 85.744L72.5025 100.317L82.3629 100.079L81.9273 96.7132ZM88.4013 72.3592L84.2829 99.6832L87.6093 99.8812L89.5497 87.8428L92.9157 87.6052L95.0937 99.6832L97.7469 99.9604L92.7969 72.3592H88.4013ZM89.8665 86.1004L91.2129 78.2992L92.6385 85.9024L89.8665 86.1004ZM111.693 95.9608L104.169 96.9112L105 73.0324L100.684 72.6364L101.119 100.158L112.168 100.277L111.693 95.9608ZM37.9353 112.478L33.6981 112.953L30.2529 123.17L26.0553 112.755L21.4221 112.914L20.1153 139.96L23.9169 140.158L23.9565 117.903L27.9561 127.645L30.8865 128.001L34.7277 118.497L35.0445 139.881C35.0445 139.881 38.5689 139.881 39.2024 139.842L37.9353 112.478ZM44.7987 112.359L40.6803 139.683L44.0067 139.881L45.9471 127.843L49.3131 127.605L51.4911 139.683L54.1443 139.96L49.1943 112.359H44.7987ZM46.2639 126.1L47.6103 118.299L49.0359 125.902L46.2639 126.1ZM60.962 128.397L65.2388 140.198L68.0504 140L63.4172 128.16L66.0308 128.12L68.0504 125.388V116.161L65.6348 112.874H57.0812V140H60.17L59.8136 128.476L60.962 128.397ZM59.3384 115.29H63.734L65.516 117.388L65.3972 123.883L63.8924 125.388L59.6948 125.546L59.3384 115.29ZM89.0827 116.596L85.5583 113.112L80.6875 112.32L73.8367 115.21L70.5499 125.665L73.0051 137.07L80.6083 140.634L89.6767 137.901L89.3995 128.793L88.0531 127.209L83.5387 126.892V130.615L86.7463 130.377L86.5483 135.723L81.0439 136.99L76.0939 133.862L73.8763 125.982L76.7671 117.23L83.1031 115.408L86.7463 118.893L89.0827 116.596ZM95.3042 112.359L91.1858 139.683L94.5122 139.881L96.4526 127.843L99.8186 127.605L101.997 139.683L104.65 139.96L99.6998 112.359H95.3042ZM96.7694 126.1L98.1158 118.299L99.5414 125.902L96.7694 126.1ZM111.467 128.397L115.744 140.198L118.556 140L113.923 128.16L116.536 128.12L118.556 125.388V116.161L116.14 112.874H107.587V140H110.675L110.319 128.476L111.467 128.397ZM109.844 115.29H114.239L116.021 117.388L115.903 123.883L114.398 125.388L110.2 125.546L109.844 115.29ZM130.005 115.488L130.322 112.755L121.055 112.953L121.293 115.012L123.907 115.171L124.421 138.06L121.808 138.218L122.125 140.119L129.649 140.04L130.084 137.624L127.154 137.862L127.589 115.369L130.005 115.488ZM147.892 112.399L132.171 113.31L132.329 115.527H138.388L137.873 140.277L141.279 139.802L142.467 115.527L147.733 115.606L147.892 112.399ZM151.069 112.359L146.951 139.683L150.277 139.881L152.217 127.843L155.583 127.605L157.761 139.683L160.415 139.96L155.465 112.359H151.069ZM152.534 126.1L153.881 118.299L155.306 125.902L152.534 126.1Z" fill="white"/>
</g>
<defs>
<clipPath id="clip0_874_2373">
<rect width="180" height="180" fill="white"/>
</clipPath>
</defs>
</svg>
