<svg width="180" height="180" viewBox="0 0 180 180" fill="none" xmlns="http://www.w3.org/2000/svg">
<g clip-path="url(#clip0_873_2062)">
<rect width="180" height="180" fill="#713FFF"/>
<path d="M121 159H9C15.1667 168.167 34.9 186.5 64.5 186.5C94.1 186.5 114.5 168.167 121 159Z" fill="#FFBE3F"/>
<path d="M242 159H130C136.167 168.167 155.9 186.5 185.5 186.5C215.1 186.5 235.5 168.167 242 159Z" fill="#FFBE3F"/>
<path d="M59 76H-53C-46.8333 85.1667 -27.1 103.5 2.5 103.5C32.1 103.5 52.5 85.1667 59 76Z" fill="#FFBE3F"/>
<path d="M180 76H68C74.1667 85.1667 93.9 103.5 123.5 103.5C153.1 103.5 173.5 85.1667 180 76Z" fill="#FFBE3F"/>
<path d="M121 49H9C15.1667 58.1667 34.9 76.5 64.5 76.5C94.1 76.5 114.5 58.1667 121 49Z" fill="#FFBE3F"/>
<path d="M242 49H130C136.167 58.1667 155.9 76.5 185.5 76.5C215.1 76.5 235.5 58.1667 242 49Z" fill="#FFBE3F"/>
<path d="M59 131H-53C-46.8333 140.167 -27.1 158.5 2.5 158.5C32.1 158.5 52.5 140.167 59 131Z" fill="#FFBE3F"/>
<path d="M180 131H68C74.1667 140.167 93.9 158.5 123.5 158.5C153.1 158.5 173.5 140.167 180 131Z" fill="#FFBE3F"/>
<path d="M121 104H9C15.1667 113.167 34.9 131.5 64.5 131.5C94.1 131.5 114.5 113.167 121 104Z" fill="#FFBE3F"/>
<path d="M242 104H130C136.167 113.167 155.9 131.5 185.5 131.5C215.1 131.5 235.5 113.167 242 104Z" fill="#FFBE3F"/>
<path d="M59 21H-53C-46.8333 30.1667 -27.1 48.5 2.5 48.5C32.1 48.5 52.5 30.1667 59 21Z" fill="#FFBE3F"/>
<path d="M180 21H68C74.1667 30.1667 93.9 48.5 123.5 48.5C153.1 48.5 173.5 30.1667 180 21Z" fill="#FFBE3F"/>
<path d="M121 -6H9C15.1667 3.16667 34.9 21.5 64.5 21.5C94.1 21.5 114.5 3.16667 121 -6Z" fill="#FFBE3F"/>
<path d="M242 -6H130C136.167 3.16667 155.9 21.5 185.5 21.5C215.1 21.5 235.5 3.16667 242 -6Z" fill="#FFBE3F"/>
<path d="M-53 186L59 186C52.8333 176.667 33.1 158 3.5 158C-26.1 158 -46.5 176.667 -53 186Z" fill="#FF843F"/>
<path d="M68 186L180 186C173.833 176.667 154.1 158 124.5 158C94.9 158 74.5 176.667 68 186Z" fill="#FF843F"/>
<path d="M9 159L121 159C114.833 149.667 95.1 131 65.5 131C35.9 131 15.5 149.667 9 159Z" fill="#FF843F"/>
<path d="M130 159L242 159C235.833 149.667 216.1 131 186.5 131C156.9 131 136.5 149.667 130 159Z" fill="#FF843F"/>
<path d="M-53 76L59 76C52.8333 66.6667 33.1 48 3.5 48C-26.1 48 -46.5 66.6667 -53 76Z" fill="#FF843F"/>
<path d="M68 76L180 76C173.833 66.6667 154.1 48 124.5 48C94.9 48 74.5 66.6667 68 76Z" fill="#FF843F"/>
<path d="M9 49L121 49C114.833 39.6667 95.1 21 65.5 21C35.9 21 15.5 39.6667 9 49Z" fill="#FF843F"/>
<path d="M130 49L242 49C235.833 39.6667 216.1 21 186.5 21C156.9 21 136.5 39.6667 130 49Z" fill="#FF843F"/>
<path d="M-53 131L59 131C52.8333 121.667 33.1 103 3.5 103C-26.1 103 -46.5 121.667 -53 131Z" fill="#FF843F"/>
<path d="M68 131L180 131C173.833 121.667 154.1 103 124.5 103C94.9 103 74.5 121.667 68 131Z" fill="#FF843F"/>
<path d="M9 104L121 104C114.833 94.6667 95.1 76 65.5 76C35.9 76 15.5 94.6667 9 104Z" fill="#FF843F"/>
<path d="M130 104L242 104C235.833 94.6667 216.1 76 186.5 76C156.9 76 136.5 94.6667 130 104Z" fill="#FF843F"/>
<path d="M-53 21L59 21C52.8333 11.6667 33.1 -6.99999 3.5 -7C-26.1 -7 -46.5 11.6667 -53 21Z" fill="#FF843F"/>
<path d="M68 21L180 21C173.833 11.6667 154.1 -6.99999 124.5 -7C94.9 -7 74.5 11.6667 68 21Z" fill="#FF843F"/>
<path d="M46.0687 52.3988L30.3475 53.3096L30.5059 55.5272H36.5647L36.0499 80.2772L39.4555 79.802L40.6435 55.5272L45.9103 55.6064L46.0687 52.3988ZM52.4542 68.3972L56.731 80.198L59.5426 80L54.9094 68.1596L57.523 68.12L59.5426 65.3876V56.1608L57.127 52.874H48.5734V80H51.6622L51.3058 68.4764L52.4542 68.3972ZM50.8306 55.2896H55.2262L57.0082 57.3884L56.8894 63.8828L55.3846 65.3876L51.187 65.546L50.8306 55.2896ZM80.1393 59.9228L75.1893 52.9532L68.2197 52.478L62.0025 59.5268L62.3193 73.3076L67.3881 80.198L74.0805 80.1188L79.3869 73.1492L80.1393 59.9228ZM75.7437 72.6344L72.4965 77.2676L68.6553 77.1488L65.7645 72.674L65.1309 61.9028L69.9621 55.4876L72.9321 55.6064L75.9813 59.5268L75.7437 72.6344ZM95.014 56.1608L92.5588 52.8344H83.6488V80H86.698L86.302 68.4764L92.5588 68.2784L94.9744 65.348L95.014 56.1608ZM91.9252 63.9224L90.4204 65.348L86.2228 65.5064L85.8664 55.3292H90.262L92.044 57.3884L91.9252 63.9224ZM105.294 55.4876L105.61 52.7552L96.344 52.9532L96.5816 55.0124L99.1952 55.1708L99.71 78.0596L97.0964 78.218L97.4132 80.1188L104.937 80.0396L105.373 77.624L102.442 77.8616L102.878 55.3688L105.294 55.4876ZM119.845 76.7132L112.836 77.1488L110.856 64.754L112.479 57.2696L119.726 56.3192L119.805 52.2404L110.935 53.27L107.133 65.744L110.42 80.3168L120.281 80.0792L119.845 76.7132ZM126.319 52.3592L122.201 79.6832L125.527 79.8812L127.467 67.8428L130.833 67.6052L133.011 79.6832L135.665 79.9604L130.715 52.3592H126.319ZM127.784 66.1004L129.131 58.2992L130.556 65.9024L127.784 66.1004ZM149.61 75.9608L142.086 76.9112L142.918 53.0324L138.602 52.6364L139.037 80.1584L150.086 80.2772L149.61 75.9608ZM44.4799 120.079H46.4203L46.0243 105.031H50.8951L51.1327 120.079H54.3007L53.3503 92.6364H50.7367L50.8951 103.091L45.9847 103.447L45.7075 92.6364H43.4107L44.4799 120.079ZM69.2906 92.7552L59.0342 92.9928L59.7074 120H69.9638L70.2014 116.792L62.2418 117.228L62.1626 105.15L67.073 104.873L66.677 102.695L62.123 103.249L62.0834 95.8044L69.449 96.3588L69.2906 92.7552ZM76.2196 92.3592L72.1012 119.683L75.4276 119.881L77.368 107.843L80.734 107.605L82.912 119.683L85.5652 119.96L80.6152 92.3592H76.2196ZM77.6848 106.1L79.0312 98.2992L80.4568 105.902L77.6848 106.1ZM96.6204 119.921L104.778 93.1512L99.2736 92.7552L94.8384 114.575L89.6904 93.1512L84.978 92.9532L92.6208 120.04L96.6204 119.921ZM117.978 92.7552L107.722 92.9928L108.395 120H118.652L118.889 116.792L110.93 117.228L110.85 105.15L115.761 104.873L115.365 102.695L110.811 103.249L110.771 95.8044L118.137 96.3588L117.978 92.7552ZM136.779 92.874L132.383 92.676L133.135 112.278L125.572 92.676H121.335L121.731 120.04L125.453 119.96L124.859 98.8536L132.977 119.96H136.105L136.779 92.874Z" fill="white"/>
</g>
<defs>
<clipPath id="clip0_873_2062">
<rect width="180" height="180" fill="white"/>
</clipPath>
</defs>
</svg>
