<svg width="180" height="180" viewBox="0 0 180 180" fill="none" xmlns="http://www.w3.org/2000/svg">
<g clip-path="url(#clip0_874_2382)">
<rect width="180" height="180" fill="#477F83"/>
<path d="M144.166 80.8583C152.158 107.291 132.027 125.794 102.951 134.585C73.8755 143.376 46.8651 139.126 38.8733 112.693C30.8815 86.2608 47.9734 57.7065 77.0491 48.9155C106.125 40.1245 136.174 54.4258 144.166 80.8583Z" fill="#D76950"/>
<path d="M56.5 189.5C91.7 165.5 78.8333 143.5 68 135.5L127 116C94.6 152.4 118.5 180.167 134.5 189.5H56.5Z" fill="#D76950"/>
<path d="M149.724 50.6022L97.8568 33.5066C101.023 27.9075 111.346 17.896 127.313 22.6431C143.28 27.3903 148.907 43.2605 149.724 50.6022Z" fill="#D76950"/>
<path d="M22.6314 165.054L14.8439 111C21.267 111.341 34.8279 116.127 37.6869 132.538C40.5458 148.948 28.8411 161.053 22.6314 165.054Z" fill="#D76950"/>
<path d="M158.483 128.055L129.909 144.799C128.631 141.114 128.215 132.403 136.777 127.042C145.338 121.681 154.815 125.484 158.483 128.055Z" fill="#D76950"/>
<path d="M48.7355 83.4718L6.92037 15.5421C15.7277 12.2713 36.6817 10.8138 50.0397 31.1498C63.3978 51.4858 54.7361 74.5045 48.7355 83.4718Z" fill="#D76950"/>
<path d="M163.526 34.4257L159.938 9.00031C156.83 10.1545 150.825 14.4121 151.672 22.2083C152.518 30.0044 159.927 33.6017 163.526 34.4257Z" fill="#D76950"/>
<path d="M46.0687 52.3988L30.3475 53.3096L30.5059 55.5272H36.5647L36.0499 80.2772L39.4555 79.802L40.6435 55.5272L45.9103 55.6064L46.0687 52.3988ZM52.4542 68.3972L56.731 80.198L59.5426 80L54.9094 68.1596L57.523 68.12L59.5426 65.3876V56.1608L57.127 52.874H48.5734V80H51.6622L51.3058 68.4764L52.4542 68.3972ZM50.8306 55.2896H55.2262L57.0082 57.3884L56.8894 63.8828L55.3846 65.3876L51.187 65.546L50.8306 55.2896ZM80.1393 59.9228L75.1893 52.9532L68.2197 52.478L62.0025 59.5268L62.3193 73.3076L67.3881 80.198L74.0805 80.1188L79.3869 73.1492L80.1393 59.9228ZM75.7437 72.6344L72.4965 77.2676L68.6553 77.1488L65.7645 72.674L65.1309 61.9028L69.9621 55.4876L72.9321 55.6064L75.9813 59.5268L75.7437 72.6344ZM95.014 56.1608L92.5588 52.8344H83.6488V80H86.698L86.302 68.4764L92.5588 68.2784L94.9744 65.348L95.014 56.1608ZM91.9252 63.9224L90.4204 65.348L86.2228 65.5064L85.8664 55.3292H90.262L92.044 57.3884L91.9252 63.9224ZM105.294 55.4876L105.61 52.7552L96.344 52.9532L96.5816 55.0124L99.1952 55.1708L99.71 78.0596L97.0964 78.218L97.4132 80.1188L104.937 80.0396L105.373 77.624L102.442 77.8616L102.878 55.3688L105.294 55.4876ZM119.845 76.7132L112.836 77.1488L110.856 64.754L112.479 57.2696L119.726 56.3192L119.805 52.2404L110.935 53.27L107.133 65.744L110.42 80.3168L120.281 80.0792L119.845 76.7132ZM126.319 52.3592L122.201 79.6832L125.527 79.8812L127.467 67.8428L130.833 67.6052L133.011 79.6832L135.665 79.9604L130.715 52.3592H126.319ZM127.784 66.1004L129.131 58.2992L130.556 65.9024L127.784 66.1004ZM149.61 75.9608L142.086 76.9112L142.918 53.0324L138.602 52.6364L139.037 80.1584L150.086 80.2772L149.61 75.9608ZM30.8701 92.7552L20.6137 92.9928L21.2869 120H31.5433L31.7809 116.792L23.8213 117.228L23.7421 105.15L28.6525 104.873L28.2565 102.695L23.7025 103.249L23.6629 95.8044L31.0285 96.3588L30.8701 92.7552ZM44.0074 92.7156L40.5622 101.863L37.2358 92.7156L32.9194 92.874L38.4238 105.863L33.6718 120.198L37.0774 120.475L40.4038 109.942L44.5618 120.198L47.7298 119.842L42.1858 105.19L47.9674 92.9928L44.0074 92.7156ZM62.8003 96.1608L60.3451 92.8344H51.4351V120H54.4843L54.0883 108.476L60.3451 108.278L62.7607 105.348L62.8003 96.1608ZM59.7115 103.922L58.2067 105.348L54.0091 105.506L53.6527 95.3292H58.0483L59.8303 97.3884L59.7115 103.922ZM76.3271 115.961L68.8031 116.911L69.6347 93.0324L65.3183 92.6364L65.7539 120.158L76.8023 120.277L76.3271 115.961ZM94.4092 99.9228L89.4592 92.9532L82.4896 92.478L76.2724 99.5268L76.5892 113.308L81.658 120.198L88.3504 120.119L93.6568 113.149L94.4092 99.9228ZM90.0136 112.634L86.7664 117.268L82.9252 117.149L80.0344 112.674L79.4008 101.903L84.232 95.4876L87.202 95.6064L90.2512 99.5268L90.0136 112.634ZM102.394 94.9728L107.344 97.4676L109.522 94.7352L105.284 92.3196L98.6315 93.6264L97.1267 101.23L107.621 111.09L106.156 117.268L101.562 116.832L99.1067 113.149L96.6911 116.159L99.9383 119.921L108.611 120.04L111.541 109.862L100.374 99.5664L102.394 94.9728ZM120.26 95.4876L120.576 92.7552L111.31 92.9532L111.548 95.0124L114.161 95.1708L114.676 118.06L112.062 118.218L112.379 120.119L119.903 120.04L120.339 117.624L117.408 117.862L117.844 95.3688L120.26 95.4876ZM140.622 99.9228L135.672 92.9532L128.702 92.478L122.485 99.5268L122.802 113.308L127.871 120.198L134.563 120.119L139.87 113.149L140.622 99.9228ZM136.226 112.634L132.979 117.268L129.138 117.149L126.247 112.674L125.614 101.903L130.445 95.4876L133.415 95.6064L136.464 99.5268L136.226 112.634ZM159.576 92.874L155.18 92.676L155.932 112.278L148.369 92.676H144.132L144.528 120.04L148.25 119.96L147.656 98.8536L155.774 119.96H158.902L159.576 92.874Z" fill="white"/>
</g>
<defs>
<clipPath id="clip0_874_2382">
<rect width="180" height="180" fill="white"/>
</clipPath>
</defs>
</svg>
