<svg width="180" height="180" viewBox="0 0 180 180" fill="none" xmlns="http://www.w3.org/2000/svg">
<g clip-path="url(#clip0_873_2123)">
<rect width="180" height="180" fill="#3E5BC2"/>
<path d="M90 176L64 163L86 134.5L102 153L90 176Z" fill="#38ABFF"/>
<ellipse rx="11.5" ry="25.5" transform="matrix(-0.759667 -0.650312 -0.650312 0.759667 79.3191 143.85)" fill="#1656FB"/>
<path d="M81.9999 22.5004C40.749 25.54 33.9999 73.667 34.4999 91.0004H54.9997C54.9997 71.5003 75.4997 55.0004 81.9999 70.5004C87.2001 82.9004 88.1665 175.001 87.9997 194.501H129.5C130 148.334 138 18.3739 81.9999 22.5004Z" fill="#38ACFF"/>
<path d="M105 162.5C107.4 152.5 121 133.667 127.5 125.5L159 162.5L123.5 181.5C110.7 180.3 105.833 168.333 105 162.5Z" fill="#38ABFF"/>
<ellipse cx="143.319" cy="143.85" rx="11.5" ry="25.5" transform="rotate(-40.5651 143.319 143.85)" fill="#E75757"/>
<path d="M52 151.124C52 154.921 48.866 158 45 158C41.134 158 38 154.921 38 151.124C38 147.326 41.134 132 45 132C48.866 132 52 147.326 52 151.124Z" fill="#9ED6FF"/>
<path d="M30.0275 79.9208L38.1851 53.1512L32.6807 52.7552L28.2455 74.5748L23.0975 53.1512L18.3851 52.9532L26.0279 80.0396L30.0275 79.9208ZM43.4259 52.3592L39.3075 79.6832L42.6339 79.8812L44.5743 67.8428L47.9403 67.6052L50.1183 79.6832L52.7715 79.9604L47.8215 52.3592H43.4259ZM44.8911 66.1004L46.2375 58.2992L47.6631 65.9024L44.8911 66.1004ZM66.7172 75.9608L59.1932 76.9112L60.0248 53.0324L55.7084 52.6364L56.144 80.1584L67.1924 80.2772L66.7172 75.9608ZM79.8093 52.7552L69.5529 52.9928L70.2261 80H80.4825L80.7201 76.7924L72.7605 77.228L72.6813 65.15L77.5917 64.8728L77.1957 62.6948L72.6417 63.2492L72.6021 55.8044L79.9677 56.3588L79.8093 52.7552ZM98.6094 52.874L94.2138 52.676L94.9662 72.278L87.4026 52.676H83.1654L83.5614 80.0396L87.2838 79.9604L86.6898 58.8536L94.8078 79.9604H97.9362L98.6094 52.874ZM114.876 76.7132L107.867 77.1488L105.887 64.754L107.51 57.2696L114.757 56.3192L114.836 52.2404L105.966 53.27L102.164 65.744L105.451 80.3168L115.311 80.0792L114.876 76.7132ZM126.041 55.4876L126.358 52.7552L117.091 52.9532L117.329 55.0124L119.943 55.1708L120.457 78.0596L117.844 78.218L118.161 80.1188L125.685 80.0396L126.12 77.624L123.19 77.8616L123.625 55.3688L126.041 55.4876ZM132.216 52.3592L128.098 79.6832L131.424 79.8812L133.365 67.8428L136.731 67.6052L138.909 79.6832L141.562 79.9604L136.612 52.3592L132.216 52.3592ZM133.682 66.1004L135.028 58.2992L136.454 65.9024L133.682 66.1004ZM159.943 52.874L155.547 52.676L156.3 72.278L148.736 52.676H144.499L144.895 80.0396L148.617 79.9604L148.023 58.8536L156.141 79.9604H159.27L159.943 52.874ZM61.8105 109.664L65.0181 119.96L68.8593 120.079L74.1261 92.874L69.1365 92.7948L66.6021 114.614L62.6817 103.487L61.0977 103.685L56.3061 116.357L53.2173 92.7948L49.2177 92.5968L54.1677 120.119L57.8505 120L61.8105 109.664ZM79.7388 92.3592L75.6204 119.683L78.9468 119.881L80.8872 107.843L84.2532 107.605L86.4312 119.683L89.0844 119.96L84.1344 92.3592H79.7388ZM81.204 106.1L82.5504 98.2992L83.976 105.902L81.204 106.1ZM103.554 92.3988L87.8333 93.3096L87.9917 95.5272H94.0505L93.5357 120.277L96.9413 119.802L98.1293 95.5272L103.396 95.6064L103.554 92.3988ZM116.316 92.7552L106.059 92.9928L106.732 120H116.989L117.226 116.792L109.267 117.228L109.188 105.15L114.098 104.873L113.702 102.695L109.148 103.249L109.108 95.8044L116.474 96.3588L116.316 92.7552ZM123.552 108.397L127.829 120.198L130.641 120L126.008 108.16L128.621 108.12L130.641 105.388V96.1608L128.225 92.874H119.672V120H122.76L122.404 108.476L123.552 108.397ZM121.929 95.2896H126.324L128.106 97.3884L127.988 103.883L126.483 105.388L122.285 105.546L121.929 95.2896Z" fill="white"/>
</g>
<defs>
<clipPath id="clip0_873_2123">
<rect width="180" height="180" fill="white"/>
</clipPath>
</defs>
</svg>
