<svg width="180" height="180" viewBox="0 0 180 180" fill="none" xmlns="http://www.w3.org/2000/svg">
<g clip-path="url(#clip0_874_2277)">
<rect width="180" height="180" fill="#CC4163"/>
<path d="M146.843 29.5L126.343 53L122.343 40.5L126.343 32L131.343 40.5V29.5L143.843 14L146.843 29.5Z" fill="#EEC9C9"/>
<path d="M153.343 37.1096L129.989 57.7758L142.517 61.6871L150.988 57.6268L142.453 52.6873L153.453 52.6092L168.864 39.9996L153.343 37.1096Z" fill="#EEC9C9"/>
<path d="M77.8877 138.576C77.8877 138.576 50.1336 135.933 38.6727 125.759C27.2119 115.585 20.6797 88.4282 40.0078 79.1122C59.3359 69.7963 74.9385 88.6216 74.9385 88.6216C74.9385 88.6216 63.6797 59.7976 82.0079 43.0586C100.336 26.3195 127.729 39.4621 128.26 76.1431C128.79 112.824 114.578 138.073 114.578 138.073L77.8877 138.576Z" fill="#E6B5E4"/>
<path d="M135.343 40L117.843 60.5L121.343 71.5L142.343 49L135.343 40Z" fill="#B842A5"/>
<path d="M34.8433 140.5L61.3433 124L64.8433 128.5L45.8433 147.5L34.8433 140.5Z" fill="#B842A5"/>
<path d="M24.3433 156.5L35.8433 135.5C45.0433 135.5 50.6766 143.833 52.3433 148L24.3433 156.5Z" fill="#EEC9C9"/>
<path d="M26.3343 99.9208L34.4919 73.1512L28.9875 72.7552L24.5523 94.5748L19.4043 73.1512L14.6919 72.9532L22.3347 100.04L26.3343 99.9208ZM39.7327 72.3592L35.6143 99.6832L38.9407 99.8812L40.8811 87.8428L44.2471 87.6052L46.4251 99.6832L49.0783 99.9604L44.1283 72.3592H39.7327ZM41.1979 86.1004L42.5443 78.2992L43.9699 85.9024L41.1979 86.1004ZM63.024 95.9608L55.5 96.9112L56.3316 73.0324L52.0152 72.6364L52.4508 100.158L63.4992 100.277L63.024 95.9608ZM76.1161 72.7552L65.8597 72.9928L66.5329 100H76.7893L77.0269 96.7924L69.0673 97.228L68.9881 85.15L73.8985 84.8728L73.5025 82.6948L68.9485 83.2492L68.9089 75.8044L76.2745 76.3588L76.1161 72.7552ZM94.9162 72.874L90.5206 72.676L91.273 92.278L83.7094 72.676H79.4722L79.8682 100.04L83.5906 99.9604L82.9966 78.8536L91.1146 99.9604H94.243L94.9162 72.874ZM113.242 72.3988L97.5206 73.3096L97.679 75.5272H103.738L103.223 100.277L106.629 99.802L107.817 75.5272L113.083 75.6064L113.242 72.3988ZM123.895 75.4876L124.212 72.7552L114.945 72.9532L115.183 75.0124L117.796 75.1708L118.311 98.0596L115.698 98.218L116.014 100.119L123.538 100.04L123.974 97.624L121.044 97.8616L121.479 75.3688L123.895 75.4876ZM143.217 72.874L138.822 72.676L139.574 92.278L132.011 72.676H127.773L128.169 100.04L131.892 99.9604L131.298 78.8536L139.416 99.9604H142.544L143.217 72.874ZM164.869 79.9228L159.919 72.9532L152.95 72.478L146.733 79.5268L147.049 93.3076L152.118 100.198L158.811 100.119L164.117 93.1492L164.869 79.9228ZM160.474 92.6344L157.227 97.2676L153.385 97.1488L150.495 92.674L149.861 81.9028L154.692 75.4876L157.662 75.6064L160.711 79.5268L160.474 92.6344Z" fill="white"/>
</g>
<defs>
<clipPath id="clip0_874_2277">
<rect width="180" height="180" fill="white"/>
</clipPath>
</defs>
</svg>
