<svg width="180" height="180" viewBox="0 0 180 180" fill="none" xmlns="http://www.w3.org/2000/svg">
<g clip-path="url(#clip0_874_2277)">
<rect width="180" height="180" fill="#CC4163"/>
<path d="M146.843 29.5L126.343 53L122.343 40.5L126.343 32L131.343 40.5V29.5L143.843 14L146.843 29.5Z" fill="#EEC9C9"/>
<path d="M153.343 37.1096L129.989 57.7758L142.517 61.6871L150.988 57.6268L142.453 52.6873L153.453 52.6092L168.864 39.9996L153.343 37.1096Z" fill="#EEC9C9"/>
<path d="M77.8877 138.576C77.8877 138.576 50.1336 135.933 38.6727 125.759C27.2119 115.585 20.6797 88.4282 40.0078 79.1122C59.3359 69.7963 74.9385 88.6216 74.9385 88.6216C74.9385 88.6216 63.6797 59.7976 82.0079 43.0586C100.336 26.3195 127.729 39.4621 128.26 76.1431C128.79 112.824 114.578 138.073 114.578 138.073L77.8877 138.576Z" fill="#E6B5E4"/>
<path d="M135.343 40L117.843 60.5L121.343 71.5L142.343 49L135.343 40Z" fill="#B842A5"/>
<path d="M34.8433 140.5L61.3433 124L64.8433 128.5L45.8433 147.5L34.8433 140.5Z" fill="#B842A5"/>
<path d="M24.3433 156.5L35.8433 135.5C45.0433 135.5 50.6766 143.833 52.3433 148L24.3433 156.5Z" fill="#EEC9C9"/>
<path d="M24.4374 95.0896L24.0018 95.1292L17.9034 72.7156L13.7058 72.5176C16.5966 81.9424 19.329 90.7336 22.2594 100.158L26.5758 100.04L35.4858 73.1116L29.7834 72.7156L24.4374 95.0896ZM40.7188 72.3592L36.6004 99.6832L39.9268 99.8812L41.8672 87.8428L45.2332 87.6052L47.4112 99.6832L50.0644 99.9604L45.1144 72.3592H40.7188ZM42.184 86.1004L43.5304 78.2992L44.956 85.9024L42.184 86.1004ZM64.0101 95.9608L56.4861 96.9112L57.3177 73.0324L53.0013 72.6364L53.4369 100.158L64.4853 100.277L64.0101 95.9608ZM77.1023 72.7552L66.8459 72.9928L67.5191 100H77.7755L78.0131 96.7924L70.0535 97.228L69.9743 85.15L74.8847 84.8728L74.4887 82.6948L69.9347 83.2492L69.8951 75.8044L77.2607 76.3588L77.1023 72.7552ZM95.9024 72.874L91.5068 72.676L92.2592 92.278L84.6956 72.676H80.4584L80.8544 100.04L84.5768 99.9604L83.9828 78.8536L92.1008 99.9604H95.2292L95.9024 72.874ZM114.228 72.3988L98.5067 73.3096L98.6651 75.5272H104.724L104.209 100.277L107.615 99.802L108.803 75.5272L114.069 75.6064L114.228 72.3988ZM124.881 75.4876L125.198 72.7552L115.931 72.9532L116.169 75.0124L118.783 75.1708L119.297 98.0596L116.684 98.218L117.001 100.119L124.525 100.04L124.96 97.624L122.03 97.8616L122.465 75.3688L124.881 75.4876ZM144.204 72.874L139.808 72.676L140.56 92.278L132.997 72.676H128.76L129.156 100.04L132.878 99.9604L132.284 78.8536L140.402 99.9604H143.53L144.204 72.874ZM165.855 79.9228L160.905 72.9532L153.936 72.478L147.719 79.5268L148.035 93.3076L153.104 100.198L159.797 100.119L165.103 93.1492L165.855 79.9228ZM161.46 92.6344L158.213 97.2676L154.371 97.1488L151.481 92.674L150.847 81.9028L155.678 75.4876L158.648 75.6064L161.697 79.5268L161.46 92.6344Z" fill="white"/>
</g>
<defs>
<clipPath id="clip0_874_2277">
<rect width="180" height="180" fill="white"/>
</clipPath>
</defs>
</svg>
