<svg width="180" height="180" viewBox="0 0 180 180" fill="none" xmlns="http://www.w3.org/2000/svg">
<g clip-path="url(#clip0_874_2583)">
<rect width="180" height="180" fill="#6B291A"/>
<path d="M98.0001 16.9999C63.2001 4.59995 46.1668 33.8333 42.0001 50C37.0001 79.9999 63.5001 92 47.0001 123C33.8001 147.8 -15.3333 173.833 -11.5 186.5H211.5L196.5 144C170.833 137.167 118.7 121.1 115.5 111.5C111.5 99.5 141.5 32.5 98.0001 16.9999Z" fill="#709DBD"/>
<path d="M15 93L44.5 62C60.5 57.2 63.8333 71.6666 63.5 79.5L15 93Z" fill="#FFBE3F"/>
<path d="M29.9816 62.488C29.9816 59.4976 28.8068 56.6852 24.0008 56.6852L21.6512 56.97L21.5444 80.9644L24.3924 80.644L24.1432 70.0352C24.5704 69.964 24.9976 69.8572 25.3536 69.7148L27.9168 80.9644L30.302 80.8576L27.3472 68.6824C29.3408 67.1516 29.9816 64.6596 29.9816 62.488ZM24.1076 68.006L24.0008 58.8568C26.4928 59.106 27.7032 60.6012 27.7032 62.9152C27.7032 65.4428 26.4216 67.3652 24.1076 68.006ZM48.8093 62.9508L44.3593 56.6852L38.0937 56.258L32.5045 62.5948L32.7893 74.9836L37.3461 81.178L43.3625 81.1068L48.1329 74.8412L48.8093 62.9508ZM44.8577 74.3784L41.9385 78.5436L38.4853 78.4368L35.8865 74.414L35.3169 64.7308L39.6601 58.9636L42.3301 59.0704L45.0713 62.5948L44.8577 74.3784ZM63.3827 73.4884L61.7095 77.4044L57.1527 77.796L54.6251 73.5596L55.3015 56.4004L51.7415 56.1868L51.3855 75.6244L54.8031 80.9288L63.4539 81.1424L66.6579 76.016L67.2987 56.4004L62.9555 56.5784L63.3827 73.4884ZM86.1915 59.9604L83.0231 56.8276L78.6443 56.1156L72.4855 58.7144L69.5307 68.1128L71.7379 78.3656L78.5731 81.5696L86.7255 79.1132L86.4763 70.9252L85.2659 69.5012L81.2075 69.2164V72.5628L84.0911 72.3492L83.9131 77.1552L78.9647 78.2944L74.5147 75.482L72.5211 68.3976L75.1199 60.53L80.8159 58.8924L84.0911 62.0252L86.1915 59.9604ZM90.681 81.0712H92.4254L92.0694 67.5432H96.4482L96.6618 81.0712H99.5098L98.6554 56.4004H96.3058L96.4482 65.7988L92.0338 66.1192L91.7846 56.4004H89.7198L90.681 81.0712ZM113.791 56.1512L110.089 80.7152L113.079 80.8932L114.824 70.0708L117.85 69.8572L119.808 80.7152L122.193 80.9644L117.743 56.1512H113.791ZM115.108 68.5044L116.319 61.4912L117.6 68.3264L115.108 68.5044ZM138.717 56.614L134.765 56.436L135.442 74.058L128.642 56.436H124.833L125.189 81.0356L128.535 80.9644L128.001 61.9896L135.299 80.9644H138.112L138.717 56.614ZM143.479 81.178L154.337 80.7864L159.036 75.2328L159.57 63.9832L153.768 56.8988L142.981 56.5072L143.479 81.178ZM154.729 73.702L152.094 77.7248L146.719 77.9384L147.039 59.3908L151.81 59.2484L155.405 65.2292L154.729 73.702ZM58.9429 92.1868L44.8097 93.0056L44.9521 94.9992H50.3989L49.9361 117.249L52.9977 116.822L54.0657 94.9992L58.8005 95.0704L58.9429 92.1868ZM72.2306 109.488L70.5574 113.404L66.0006 113.796L63.473 109.56L64.1494 92.4004L60.5894 92.1868L60.2334 111.624L63.651 116.929L72.3018 117.142L75.5058 112.016L76.1466 92.4004L71.8034 92.5784L72.2306 109.488ZM94.1493 92.258L90.3401 92.6852L87.2429 101.87L83.4693 92.5072L79.3041 92.6496L78.1293 116.964L81.5469 117.142L81.5825 97.1352L85.1781 105.893L87.8125 106.213L91.2657 97.6692L91.5505 116.893C91.5505 116.893 94.7189 116.893 95.2885 116.858L94.1493 92.258ZM99.0024 92.4004L98.2548 117H107.084L109.718 114.935V105.216L106.728 102.938L109.504 96.2096L107.297 92.5072L99.0024 92.4004ZM107.796 106.605L107.618 113.226L105.517 114.757L102.1 114.437L102.135 105.216L105.41 104.682L107.796 106.605ZM104.129 102.831L102.135 103.223L102.171 94.6432L105.375 94.6076L106.692 96.5656L104.129 102.831ZM122.753 113.369L115.989 114.223L116.737 92.7564L112.856 92.4004L113.248 117.142L123.18 117.249L122.753 113.369ZM134.523 92.5072L125.302 92.7208L125.908 117H135.128L135.342 114.116L128.186 114.508L128.115 103.65L132.529 103.401L132.173 101.443L128.079 101.941L128.044 95.2484L134.665 95.7468L134.523 92.5072Z" fill="white"/>
</g>
<defs>
<clipPath id="clip0_874_2583">
<rect width="180" height="180" fill="white"/>
</clipPath>
</defs>
</svg>
