<svg width="180" height="180" viewBox="0 0 180 180" fill="none" xmlns="http://www.w3.org/2000/svg">
<g clip-path="url(#clip0_874_2583)">
<rect width="180" height="180" fill="#6B291A"/>
<path d="M98.0001 16.9999C63.2001 4.59995 46.1668 33.8333 42.0001 50C37.0001 79.9999 63.5001 92 47.0001 123C33.8001 147.8 -15.3333 173.833 -11.5 186.5H211.5L196.5 144C170.833 137.167 118.7 121.1 115.5 111.5C111.5 99.5 141.5 32.5 98.0001 16.9999Z" fill="#709DBD"/>
<path d="M15 93L44.5 62C60.5 57.2 63.8333 71.6666 63.5 79.5L15 93Z" fill="#FFBE3F"/>
<path d="M67.8624 71.7084L70.746 80.9644L74.1992 81.0712L78.934 56.614L74.4484 56.5428L72.17 76.1584L68.6456 66.1548L67.2216 66.3328L62.914 77.7248L60.1372 56.5428L56.5416 56.3648L60.9916 81.1068L64.3024 81L67.8624 71.7084ZM83.9797 56.1512L80.2773 80.7152L83.2677 80.8932L85.0121 70.0708L88.0381 69.8572L89.9961 80.7152L92.3813 80.9644L87.9313 56.1512H83.9797ZM85.2969 68.5044L86.5073 61.4912L87.7889 68.3264L85.2969 68.5044ZM104.918 77.3688L98.1543 78.2232L98.9019 56.7564L95.0215 56.4004L95.4131 81.1424L105.346 81.2492L104.918 77.3688ZM107.824 56.5072L107.468 81.0712L110.921 81.0356L111.028 70.498L112.772 68.8248L122.811 81.6052L125.41 79.7896L115.05 67.116L123.559 58.8568L121.565 56.7564L111.063 67.2584L111.17 56.7208L107.824 56.5072ZM42.7863 92.4004L42.0387 117H50.8675L53.5019 114.935V105.216L50.5115 102.938L53.2883 96.2096L51.0811 92.5072L42.7863 92.4004ZM51.5795 106.605L51.4015 113.226L49.3011 114.757L45.8835 114.437L45.9191 105.216L49.1943 104.682L51.5795 106.605ZM47.9127 102.831L45.9191 103.223L45.9547 94.6432L49.1587 94.6076L50.4759 96.5656L47.9127 102.831ZM58.7051 92.1512L55.0027 116.715L57.9931 116.893L59.7375 106.071L62.7635 105.857L64.7215 116.715L67.1067 116.964L62.6567 92.1512H58.7051ZM60.0223 104.504L61.2327 97.4912L62.5143 104.326L60.0223 104.504ZM73.7697 94.5008L78.2197 96.7436L80.1777 94.2872L76.3685 92.1156L70.3877 93.2904L69.0349 100.126L78.4689 108.99L77.1517 114.544L73.0221 114.152L70.8149 110.841L68.6433 113.547L71.5625 116.929L79.3589 117.036L81.9933 107.886L71.9541 98.6304L73.7697 94.5008ZM95.412 92.1868L81.2788 93.0056L81.4212 94.9992H86.868L86.4052 117.249L89.4668 116.822L90.5348 94.9992L95.2696 95.0704L95.412 92.1868ZM98.2684 92.1512L94.566 116.715L97.5564 116.893L99.3008 106.071L102.327 105.857L104.285 116.715L106.67 116.964L102.22 92.1512H98.2684ZM99.5856 104.504L100.796 97.4912L102.078 104.326L99.5856 104.504ZM112.799 106.569L116.644 117.178L119.171 117L115.006 106.356L117.356 106.32L119.171 103.864V95.5688L117 92.614H109.31V117H112.087L111.767 106.64L112.799 106.569ZM111.339 94.7856H115.291L116.893 96.6724L116.786 102.511L115.433 103.864L111.66 104.006L111.339 94.7856ZM122.985 117.178L133.843 116.786L138.542 111.233L139.076 99.9832L133.273 92.8988L122.486 92.5072L122.985 117.178ZM134.234 109.702L131.6 113.725L126.224 113.938L126.545 95.3908L131.315 95.2484L134.911 101.229L134.234 109.702Z" fill="white"/>
</g>
<defs>
<clipPath id="clip0_874_2583">
<rect width="180" height="180" fill="white"/>
</clipPath>
</defs>
</svg>
