<svg width="180" height="180" viewBox="0 0 180 180" fill="none" xmlns="http://www.w3.org/2000/svg">
<g clip-path="url(#clip0_874_2802)">
<rect width="180" height="180" fill="#C62E2E"/>
<path d="M142.5 120L52 43L37 70L46 112.5L69 137H95L138.5 125L142.5 120Z" fill="#FF3F6D"/>
<path d="M52.4999 116C38.4999 89.2 46.6666 55.5 52.4999 42L47.9998 36C33.4998 53.5 22 99.5 47.9998 126C80.1775 158.797 130.833 138.5 150.5 126L143.5 119.5C119 129.5 66.4999 142.8 52.4999 116Z" fill="#4CB469"/>
<ellipse cx="104.5" cy="96" rx="1.5" ry="5" fill="#3F3737"/>
<ellipse cx="90.3801" cy="125.651" rx="2.5" ry="8" transform="rotate(73.6529 90.3801 125.651)" fill="#3F3737"/>
<ellipse cx="58.0514" cy="81.3744" rx="2.5" ry="8" transform="rotate(19.7102 58.0514 81.3744)" fill="#3F3737"/>
<path d="M30.3886 76.016L25.4046 66.8312C25.0486 66.8668 24.6926 66.9736 24.301 67.0092L19.9578 77.2976L19.5662 77.262L16.8606 56.8276L12.9802 56.6496L17.3946 81.1068L21.987 80.8932L24.9062 71.8508L28.929 80.9644L32.7738 81.0712L37.4018 56.614L32.7026 56.5072L30.3886 76.016ZM42.4696 56.1512L38.7672 80.7152L41.7576 80.8932L43.502 70.0708L46.528 69.8572L48.486 80.7152L50.8712 80.9644L46.4212 56.1512H42.4696ZM43.7868 68.5044L44.9972 61.4912L46.2788 68.3264L43.7868 68.5044ZM63.8796 56.1868L49.7464 57.0056L49.8888 58.9992H55.3356L54.8728 81.2492L57.9344 80.822L59.0024 58.9992L63.7372 59.0704L63.8796 56.1868ZM75.3517 56.5072L66.1313 56.7208L66.7365 81H75.9569L76.1705 78.1164L69.0149 78.508L68.9437 67.65L73.3581 67.4008L73.0021 65.4428L68.9081 65.9412L68.8725 59.2484L75.4941 59.7468L75.3517 56.5072ZM81.8576 70.5692L85.7024 81.178L88.23 81L84.0648 70.3556L86.4144 70.32L88.23 67.8636V59.5688L86.0584 56.614H78.3688V81H81.1456L80.8252 70.6404L81.8576 70.5692ZM80.398 58.7856H84.3496L85.9516 60.6724L85.8448 66.5108L84.492 67.8636L80.7184 68.006L80.398 58.7856ZM106.248 56.258L102.439 56.6852L99.3414 65.87L95.5678 56.5072L91.4026 56.6496L90.2278 80.9644L93.6454 81.1424L93.681 61.1352L97.2766 69.8928L99.911 70.2132L103.364 61.6692L103.649 80.8932C103.649 80.8932 106.817 80.8932 107.387 80.8576L106.248 56.258ZM119.574 56.5072L110.353 56.7208L110.958 81H120.179L120.392 78.1164L113.237 78.508L113.166 67.65L117.58 67.4008L117.224 65.4428L113.13 65.9412L113.094 59.2484L119.716 59.7468L119.574 56.5072ZM132.487 77.3688L125.723 78.2232L126.471 56.7564L122.591 56.4004L122.982 81.1424L132.915 81.2492L132.487 77.3688ZM148.743 62.9508L144.293 56.6852L138.027 56.258L132.438 62.5948L132.723 74.9836L137.28 81.178L143.296 81.1068L148.067 74.8412L148.743 62.9508ZM144.791 74.3784L141.872 78.5436L138.419 78.4368L135.82 74.414L135.251 64.7308L139.594 58.9636L142.264 59.0704L145.005 62.5948L144.791 74.3784ZM165.782 56.614L161.831 56.436L162.507 74.058L155.707 56.436H151.898L152.254 81.0356L155.601 80.9644L155.067 61.9896L162.365 80.9644H165.177L165.782 56.614ZM54.3538 92.1868L40.2206 93.0056L40.363 94.9992H45.8098L45.347 117.249L48.4086 116.822L49.4766 94.9992L54.2114 95.0704L54.3538 92.1868ZM65.8259 92.5072L56.6055 92.7208L57.2107 117H66.4311L66.6447 114.116L59.4891 114.508L59.4179 103.65L63.8323 103.401L63.4763 101.443L59.3823 101.941L59.3467 95.2484L65.9683 95.7468L65.8259 92.5072ZM68.2378 110.912L72.759 117.071L77.8854 117.142L81.2318 120.952L83.5102 119.243L79.6654 115.327L82.6558 111.019L82.9406 98.7728L77.6718 92.5072L71.7978 92.8988L67.6682 99.0932L68.2378 110.912ZM71.157 98.7728L73.6846 95.2484L76.2478 95.1416L80.3062 100.873L79.8078 110.45L77.8854 113.511L75.7138 111.268L73.827 112.479L75.5714 114.508L74.1118 114.544L71.3706 110.414L71.157 98.7728ZM97.7486 109.488L96.0754 113.404L91.5186 113.796L88.991 109.56L89.6674 92.4004L86.1074 92.1868L85.7514 111.624L89.169 116.929L97.8198 117.142L101.024 112.016L101.665 92.4004L97.3214 92.5784L97.7486 109.488ZM111.942 94.9636L112.227 92.5072L103.897 92.6852L104.11 94.5364L106.46 94.6788L106.923 115.256L104.573 115.398L104.858 117.107L111.622 117.036L112.013 114.864L109.379 115.078L109.771 94.8568L111.942 94.9636ZM125.326 113.369L118.562 114.223L119.309 92.7564L115.429 92.4004L115.821 117.142L125.753 117.249L125.326 113.369ZM131.087 92.1512L127.385 116.715L130.375 116.893L132.12 106.071L135.146 105.857L137.104 116.715L139.489 116.964L135.039 92.1512H131.087ZM132.404 104.504L133.615 97.4912L134.896 104.326L132.404 104.504Z" fill="white"/>
</g>
<defs>
<clipPath id="clip0_874_2802">
<rect width="180" height="180" fill="white"/>
</clipPath>
</defs>
</svg>
