<svg width="180" height="180" viewBox="0 0 180 180" fill="none" xmlns="http://www.w3.org/2000/svg">
<g clip-path="url(#clip0_874_2473)">
<rect width="180" height="180" fill="#4CB469"/>
<path d="M50 80L58.3793 232.512L59.7759 238H90.5H121.224L122.621 232.512L131 80H90.5H50Z" fill="#2A8D46"/>
<path d="M151.763 45.986L43.6541 -3.32616L36.6106 26.7469L56.8913 65.1649L85.7152 82.4402L110.724 75.3292L149.283 51.8894L151.763 45.986Z" fill="#FF3F6D"/>
<path d="M64.1006 66.7531C43.3046 44.8039 41.9428 10.1553 43.8615 -4.42543L37.8919 -8.96586C28.731 11.8327 30.2508 59.224 62.5071 77.6026C102.428 100.348 145.601 66.9709 161.099 49.5686L152.588 45.2309C131.757 61.5504 84.8967 88.7022 64.1006 66.7531Z" fill="#366C45"/>
<ellipse cx="86.8103" cy="33.2194" rx="1.5" ry="5" transform="rotate(-15.8728 86.8103 33.2194)" fill="#3F3737"/>
<ellipse cx="119.81" cy="40.2192" rx="1.5" ry="5" transform="rotate(100.11 119.81 40.2192)" fill="#3F3737"/>
<ellipse cx="55.1854" cy="11.3539" rx="1.5" ry="5" transform="rotate(100.11 55.1854 11.3539)" fill="#3F3737"/>
<ellipse cx="103.176" cy="65.6753" rx="2.5" ry="8" transform="rotate(57.7802 103.176 65.6753)" fill="#3F3737"/>
<ellipse cx="63.0298" cy="37.1494" rx="2.5" ry="8" transform="rotate(3.83744 63.0298 37.1494)" fill="#3F3737"/>
<path d="M23.6907 74.456L18.1467 64.2392C17.7507 64.2788 17.3547 64.3976 16.9191 64.4372L12.0879 75.8816L11.6523 75.842L8.64274 53.1116L4.32634 52.9136L9.23674 80.1188L14.3451 79.8812L17.5923 69.8228L22.0671 79.9604L26.3439 80.0792L31.4919 52.874L26.2647 52.7552L23.6907 74.456ZM37.1291 52.3592L33.0107 79.6832L36.3371 79.8812L38.2775 67.8428L41.6435 67.6052L43.8215 79.6832L46.4747 79.9604L41.5247 52.3592H37.1291ZM38.5943 66.1004L39.9407 58.2992L41.3663 65.9024L38.5943 66.1004ZM60.9447 52.3988L45.2235 53.3096L45.3819 55.5272H51.4407L50.9259 80.2772L54.3315 79.802L55.5195 55.5272L60.7863 55.6064L60.9447 52.3988ZM73.7058 52.7552L63.4494 52.9928L64.1226 80H74.379L74.6166 76.7924L66.657 77.228L66.5778 65.15L71.4882 64.8728L71.0922 62.6948L66.5382 63.2492L66.4986 55.8044L73.8642 56.3588L73.7058 52.7552ZM80.9427 68.3972L85.2195 80.198L88.0311 80L83.3979 68.1596L86.0115 68.12L88.0311 65.3876V56.1608L85.6155 52.874H77.0619V80H80.1507L79.7943 68.4764L80.9427 68.3972ZM79.3191 55.2896H83.7147L85.4967 57.3884L85.3779 63.8828L83.8731 65.3876L79.6755 65.546L79.3191 55.2896ZM108.073 52.478L103.836 52.9532L100.391 63.17L96.1934 52.7552L91.5602 52.9136L90.2534 79.9604L94.055 80.1584L94.0946 57.9032L98.0942 67.6448L101.025 68.0012L104.866 58.4972L105.183 79.8812C105.183 79.8812 108.707 79.8812 109.341 79.8416L108.073 52.478ZM122.896 52.7552L112.64 52.9928L113.313 80H123.57L123.807 76.7924L115.848 77.228L115.768 65.15L120.679 64.8728L120.283 62.6948L115.729 63.2492L115.689 55.8044L123.055 56.3588L122.896 52.7552ZM137.261 75.9608L129.737 76.9112L130.569 53.0324L126.253 52.6364L126.688 80.1584L137.737 80.2772L137.261 75.9608ZM155.343 59.9228L150.393 52.9532L143.424 52.478L137.207 59.5268L137.523 73.3076L142.592 80.198L149.285 80.1188L154.591 73.1492L155.343 59.9228ZM150.948 72.6344L147.701 77.2676L143.859 77.1488L140.969 72.674L140.335 61.9028L145.166 55.4876L148.136 55.6064L151.185 59.5268L150.948 72.6344ZM174.297 52.874L169.901 52.676L170.654 72.278L163.09 52.676H158.853L159.249 80.0396L162.971 79.9604L162.377 58.8536L170.495 79.9604H173.624L174.297 52.874ZM54.7062 92.478L50.469 92.9532L47.0238 103.17L42.8262 92.7552L38.193 92.9136L36.8862 119.96L40.6878 120.158L40.7274 97.9032L44.727 107.645L47.6574 108.001L51.4986 98.4972L51.8154 119.881C51.8154 119.881 55.3398 119.881 55.9734 119.842L54.7062 92.478ZM76.1821 99.9228L71.2321 92.9532L64.2625 92.478L58.0453 99.5268L58.3621 113.308L63.4309 120.198L70.1233 120.119L75.4297 113.149L76.1821 99.9228ZM71.7865 112.634L68.5393 117.268L64.6981 117.149L61.8073 112.674L61.1737 101.903L66.0049 95.4876L68.9749 95.6064L72.0241 99.5268L71.7865 112.634ZM89.7104 114.496L83.8892 116.951L80.9588 111.684L77.672 113.862L81.434 120H88.1264L92.918 116.476L93.6704 92.874H89.0372L89.7104 114.496ZM105.59 95.4876L105.907 92.7552L96.6407 92.9532L96.8783 95.0124L99.4919 95.1708L100.007 118.06L97.3931 118.218L97.7099 120.119L105.234 120.04L105.67 117.624L102.739 117.862L103.175 95.3688L105.59 95.4876ZM123.477 92.3988L107.756 93.3096L107.914 95.5272H113.973L113.458 120.277L116.864 119.802L118.052 95.5272L123.319 95.6064L123.477 92.3988ZM142.891 99.9228L137.941 92.9532L130.971 92.478L124.754 99.5268L125.071 113.308L130.14 120.198L136.832 120.119L142.139 113.149L142.891 99.9228ZM138.495 112.634L135.248 117.268L131.407 117.149L128.516 112.674L127.883 101.903L132.714 95.4876L135.684 95.6064L138.733 99.5268L138.495 112.634Z" fill="white"/>
</g>
<defs>
<clipPath id="clip0_874_2473">
<rect width="180" height="180" fill="white"/>
</clipPath>
</defs>
</svg>
