<svg width="180" height="180" viewBox="0 0 180 180" fill="none" xmlns="http://www.w3.org/2000/svg">
<g clip-path="url(#clip0_874_2802)">
<rect width="180" height="180" fill="#C62E2E"/>
<path d="M142.5 120L52 43L37 70L46 112.5L69 137H95L138.5 125L142.5 120Z" fill="#FF3F6D"/>
<path d="M52.4999 116C38.4999 89.2 46.6666 55.5 52.4999 42L47.9998 36C33.4998 53.5 22 99.5 47.9998 126C80.1775 158.797 130.833 138.5 150.5 126L143.5 119.5C119 129.5 66.4999 142.8 52.4999 116Z" fill="#4CB469"/>
<ellipse cx="104.5" cy="96" rx="1.5" ry="5" fill="#3F3737"/>
<ellipse cx="90.3801" cy="125.651" rx="2.5" ry="8" transform="rotate(73.6529 90.3801 125.651)" fill="#3F3737"/>
<ellipse cx="58.0514" cy="81.3744" rx="2.5" ry="8" transform="rotate(19.7102 58.0514 81.3744)" fill="#3F3737"/>
<path d="M25.3266 71.7084L28.2102 80.9644L31.6634 81.0712L36.3982 56.614L31.9126 56.5428L29.6342 76.1584L26.1098 66.1548L24.6858 66.3328L20.3782 77.7248L17.6014 56.5428L14.0058 56.3648L18.4558 81.1068L21.7666 81L25.3266 71.7084ZM41.444 56.1512L37.7416 80.7152L40.732 80.8932L42.4764 70.0708L45.5024 69.8572L47.4604 80.7152L49.8456 80.9644L45.3956 56.1512H41.444ZM42.7612 68.5044L43.9716 61.4912L45.2532 68.3264L42.7612 68.5044ZM62.854 56.1868L48.7208 57.0056L48.8632 58.9992H54.31L53.8472 81.2492L56.9088 80.822L57.9768 58.9992L62.7116 59.0704L62.854 56.1868ZM74.3261 56.5072L65.1057 56.7208L65.7109 81H74.9313L75.1449 78.1164L67.9893 78.508L67.9181 67.65L72.3325 67.4008L71.9765 65.4428L67.8825 65.9412L67.8469 59.2484L74.4685 59.7468L74.3261 56.5072ZM80.832 70.5692L84.6768 81.178L87.2044 81L83.0392 70.3556L85.3888 70.32L87.2044 67.8636V59.5688L85.0328 56.614H77.3432V81H80.12L79.7996 70.6404L80.832 70.5692ZM79.3724 58.7856H83.324L84.926 60.6724L84.8192 66.5108L83.4664 67.8636L79.6928 68.006L79.3724 58.7856ZM105.222 56.258L101.413 56.6852L98.3158 65.87L94.5422 56.5072L90.377 56.6496L89.2022 80.9644L92.6198 81.1424L92.6554 61.1352L96.251 69.8928L98.8854 70.2132L102.339 61.6692L102.623 80.8932C102.623 80.8932 105.792 80.8932 106.361 80.8576L105.222 56.258ZM118.548 56.5072L109.328 56.7208L109.933 81H119.153L119.367 78.1164L112.211 78.508L112.14 67.65L116.554 67.4008L116.198 65.4428L112.104 65.9412L112.069 59.2484L118.69 59.7468L118.548 56.5072ZM131.462 77.3688L124.698 78.2232L125.446 56.7564L121.565 56.4004L121.957 81.1424L131.889 81.2492L131.462 77.3688ZM147.717 62.9508L143.267 56.6852L137.002 56.258L131.413 62.5948L131.697 74.9836L136.254 81.178L142.271 81.1068L147.041 74.8412L147.717 62.9508ZM143.766 74.3784L140.847 78.5436L137.393 78.4368L134.795 74.414L134.225 64.7308L138.568 58.9636L141.238 59.0704L143.979 62.5948L143.766 74.3784ZM164.757 56.614L160.805 56.436L161.481 74.058L154.682 56.436H150.873L151.229 81.0356L154.575 80.9644L154.041 61.9896L161.339 80.9644H164.151L164.757 56.614ZM54.3538 92.1868L40.2206 93.0056L40.363 94.9992H45.8098L45.347 117.249L48.4086 116.822L49.4766 94.9992L54.2114 95.0704L54.3538 92.1868ZM65.8259 92.5072L56.6055 92.7208L57.2107 117H66.4311L66.6447 114.116L59.4891 114.508L59.4179 103.65L63.8323 103.401L63.4763 101.443L59.3823 101.941L59.3467 95.2484L65.9683 95.7468L65.8259 92.5072ZM68.2378 110.912L72.759 117.071L77.8854 117.142L81.2318 120.952L83.5102 119.243L79.6654 115.327L82.6558 111.019L82.9406 98.7728L77.6718 92.5072L71.7978 92.8988L67.6682 99.0932L68.2378 110.912ZM71.157 98.7728L73.6846 95.2484L76.2478 95.1416L80.3062 100.873L79.8078 110.45L77.8854 113.511L75.7138 111.268L73.827 112.479L75.5714 114.508L74.1118 114.544L71.3706 110.414L71.157 98.7728ZM97.7486 109.488L96.0754 113.404L91.5186 113.796L88.991 109.56L89.6674 92.4004L86.1074 92.1868L85.7514 111.624L89.169 116.929L97.8198 117.142L101.024 112.016L101.665 92.4004L97.3214 92.5784L97.7486 109.488ZM111.942 94.9636L112.227 92.5072L103.897 92.6852L104.11 94.5364L106.46 94.6788L106.923 115.256L104.573 115.398L104.858 117.107L111.622 117.036L112.013 114.864L109.379 115.078L109.771 94.8568L111.942 94.9636ZM125.326 113.369L118.562 114.223L119.309 92.7564L115.429 92.4004L115.821 117.142L125.753 117.249L125.326 113.369ZM131.087 92.1512L127.385 116.715L130.375 116.893L132.12 106.071L135.146 105.857L137.104 116.715L139.489 116.964L135.039 92.1512H131.087ZM132.404 104.504L133.615 97.4912L134.896 104.326L132.404 104.504Z" fill="white"/>
</g>
<defs>
<clipPath id="clip0_874_2802">
<rect width="180" height="180" fill="white"/>
</clipPath>
</defs>
</svg>
