<svg width="180" height="180" viewBox="0 0 180 180" fill="none" xmlns="http://www.w3.org/2000/svg">
<g clip-path="url(#clip0_874_2473)">
<rect width="180" height="180" fill="#4CB469"/>
<path d="M50 80L58.3793 232.512L59.7759 238H90.5H121.224L122.621 232.512L131 80H90.5H50Z" fill="#2A8D46"/>
<path d="M151.763 45.986L43.6541 -3.32616L36.6106 26.7469L56.8913 65.1649L85.7152 82.4402L110.724 75.3292L149.283 51.8894L151.763 45.986Z" fill="#FF3F6D"/>
<path d="M64.1006 66.7531C43.3046 44.8039 41.9428 10.1553 43.8615 -4.42543L37.8919 -8.96586C28.731 11.8327 30.2508 59.224 62.5071 77.6026C102.428 100.348 145.601 66.9709 161.099 49.5686L152.588 45.2309C131.757 61.5504 84.8967 88.7022 64.1006 66.7531Z" fill="#366C45"/>
<ellipse cx="86.8103" cy="33.2194" rx="1.5" ry="5" transform="rotate(-15.8728 86.8103 33.2194)" fill="#3F3737"/>
<ellipse cx="119.81" cy="40.2192" rx="1.5" ry="5" transform="rotate(100.11 119.81 40.2192)" fill="#3F3737"/>
<ellipse cx="55.1854" cy="11.3539" rx="1.5" ry="5" transform="rotate(100.11 55.1854 11.3539)" fill="#3F3737"/>
<ellipse cx="103.176" cy="65.6753" rx="2.5" ry="8" transform="rotate(57.7802 103.176 65.6753)" fill="#3F3737"/>
<ellipse cx="63.0298" cy="37.1494" rx="2.5" ry="8" transform="rotate(3.83744 63.0298 37.1494)" fill="#3F3737"/>
<path d="M18.06 69.6644L21.2676 79.9604L25.1088 80.0792L30.3756 52.874L25.386 52.7948L22.8516 74.6144L18.9312 63.4868L17.3472 63.6848L12.5556 76.3568L9.46676 52.7948L5.46716 52.5968L10.4172 80.1188L14.1 80L18.06 69.6644ZM35.9882 52.3592L31.8698 79.6832L35.1962 79.8812L37.1366 67.8428L40.5026 67.6052L42.6806 79.6832L45.3338 79.9604L40.3838 52.3592H35.9882ZM37.4534 66.1004L38.7998 58.2992L40.2254 65.9024L37.4534 66.1004ZM59.8039 52.3988L44.0827 53.3096L44.2411 55.5272H50.2999L49.7851 80.2772L53.1907 79.802L54.3787 55.5272L59.6455 55.6064L59.8039 52.3988ZM72.565 52.7552L62.3086 52.9928L62.9818 80H73.2382L73.4758 76.7924L65.5162 77.228L65.437 65.15L70.3474 64.8728L69.9514 62.6948L65.3974 63.2492L65.3578 55.8044L72.7234 56.3588L72.565 52.7552ZM79.8019 68.3972L84.0787 80.198L86.8903 80L82.2571 68.1596L84.8707 68.12L86.8903 65.3876V56.1608L84.4747 52.874H75.9211V80H79.0099L78.6535 68.4764L79.8019 68.3972ZM78.1783 55.2896H82.5739L84.3559 57.3884L84.2371 63.8828L82.7323 65.3876L78.5347 65.546L78.1783 55.2896ZM106.933 52.478L102.695 52.9532L99.2502 63.17L95.0526 52.7552L90.4194 52.9136L89.1126 79.9604L92.9142 80.1584L92.9538 57.9032L96.9534 67.6448L99.8838 68.0012L103.725 58.4972L104.042 79.8812C104.042 79.8812 107.566 79.8812 108.2 79.8416L106.933 52.478ZM121.756 52.7552L111.499 52.9928L112.172 80H122.429L122.666 76.7924L114.707 77.228L114.628 65.15L119.538 64.8728L119.142 62.6948L114.588 63.2492L114.548 55.8044L121.914 56.3588L121.756 52.7552ZM136.121 75.9608L128.597 76.9112L129.428 53.0324L125.112 52.6364L125.547 80.1584L136.596 80.2772L136.121 75.9608ZM154.203 59.9228L149.253 52.9532L142.283 52.478L136.066 59.5268L136.383 73.3076L141.451 80.198L148.144 80.1188L153.45 73.1492L154.203 59.9228ZM149.807 72.6344L146.56 77.2676L142.719 77.1488L139.828 72.674L139.194 61.9028L144.025 55.4876L146.995 55.6064L150.045 59.5268L149.807 72.6344ZM173.156 52.874L168.761 52.676L169.513 72.278L161.949 52.676H157.712L158.108 80.0396L161.831 79.9604L161.237 58.8536L169.355 79.9604H172.483L173.156 52.874ZM55.963 92.478L51.7258 92.9532L48.2806 103.17L44.083 92.7552L39.4498 92.9136L38.143 119.96L41.9446 120.158L41.9842 97.9032L45.9838 107.645L48.9142 108.001L52.7554 98.4972L53.0722 119.881C53.0722 119.881 56.5966 119.881 57.2302 119.842L55.963 92.478ZM77.4389 99.9228L72.4889 92.9532L65.5193 92.478L59.3021 99.5268L59.6189 113.308L64.6877 120.198L71.3801 120.119L76.6865 113.149L77.4389 99.9228ZM73.0433 112.634L69.7961 117.268L65.9549 117.149L63.0641 112.674L62.4305 101.903L67.2617 95.4876L70.2317 95.6064L73.2809 99.5268L73.0433 112.634ZM82.0177 120.079H83.9581L83.5621 105.031H88.4329L88.6705 120.079H91.8385L90.8881 92.6364H88.2745L88.4329 103.091L83.5225 103.447L83.2453 92.6364H80.9485L82.0177 120.079ZM104.333 95.4876L104.65 92.7552L95.3839 92.9532L95.6215 95.0124L98.2351 95.1708L98.7499 118.06L96.1363 118.218L96.4531 120.119L103.977 120.04L104.413 117.624L101.482 117.862L101.918 95.3688L104.333 95.4876ZM122.22 92.3988L106.499 93.3096L106.658 95.5272H112.716L112.202 120.277L115.607 119.802L116.795 95.5272L122.062 95.6064L122.22 92.3988ZM141.634 99.9228L136.684 92.9532L129.715 92.478L123.497 99.5268L123.814 113.308L128.883 120.198L135.575 120.119L140.882 113.149L141.634 99.9228ZM137.239 112.634L133.991 117.268L130.15 117.149L127.259 112.674L126.626 101.903L131.457 95.4876L134.427 95.6064L137.476 99.5268L137.239 112.634Z" fill="white"/>
</g>
<defs>
<clipPath id="clip0_874_2473">
<rect width="180" height="180" fill="white"/>
</clipPath>
</defs>
</svg>
