<svg width="180" height="180" viewBox="0 0 180 180" fill="none" xmlns="http://www.w3.org/2000/svg">
<g clip-path="url(#clip0_873_1873)">
<rect width="180" height="180" fill="#713FFF"/>
<path d="M128.77 11.6024L57.6463 34.0945C63.8515 41.9466 81.1603 55.6323 100.753 47.5583C120.346 39.4844 127.595 20.2236 128.77 11.6024Z" fill="#FF843F"/>
<path d="M90.009 48H36L45.0437 163.726L43.235 180H90.009H136.765L134.956 163.726L144 48H90.009Z" fill="#EFAA29"/>
<path d="M42.9386 69.6644L46.1462 79.9604L49.9874 80.0792L55.2542 52.874L50.2646 52.7948L47.7302 74.6144L43.8098 63.4868L42.2258 63.6848L37.4342 76.3568L34.3454 52.7948L30.3458 52.5968L35.2958 80.1188L38.9786 80L42.9386 69.6644ZM59.6393 80.0792H61.5797L61.1837 65.0312H66.0545L66.2921 80.0792H69.4601L68.5097 52.6364H65.8961L66.0545 63.0908L61.1441 63.4472L60.8669 52.6364H58.5701L59.6393 80.0792ZM81.9551 55.4876L82.2719 52.7552L73.0055 52.9532L73.2431 55.0124L75.8567 55.1708L76.3715 78.0596L73.7579 78.218L74.0747 80.1188L81.5987 80.0396L82.0343 77.624L79.1039 77.8616L79.5395 55.3688L81.9551 55.4876ZM88.259 54.9728L93.209 57.4676L95.387 54.7352L91.1498 52.3196L84.497 53.6264L82.9922 61.2296L93.4862 71.09L92.021 77.2676L87.4274 76.832L84.9722 73.1492L82.5566 76.1588L85.8038 79.9208L94.4762 80.0396L97.4066 69.8624L86.2394 59.5664L88.259 54.9728ZM101.196 52.7552L100.8 80.0792L104.641 80.0396L104.76 68.318L106.7 66.4568L117.867 80.6732L120.758 78.6536L109.235 64.556L118.699 55.3688L116.481 53.0324L104.799 64.7144L104.918 52.9928L101.196 52.7552ZM132.635 52.7552L122.379 52.9928L123.052 80H133.308L133.546 76.7924L125.586 77.228L125.507 65.15L130.417 64.8728L130.021 62.6948L125.467 63.2492L125.428 55.8044L132.793 56.3588L132.635 52.7552ZM146.248 52.7156L142.208 62.8532L137.377 52.874L134.011 53.072L140.822 66.4568L140.981 79.9604H145.099L144.703 66.536L150.406 52.9928L146.248 52.7156ZM60.5312 94.9728L65.4812 97.4676L67.6592 94.7352L63.422 92.3196L56.7692 93.6264L55.2644 101.23L65.7584 111.09L64.2932 117.268L59.6996 116.832L57.2444 113.149L54.8288 116.159L58.076 119.921L66.7484 120.04L69.6788 109.862L58.5116 99.5664L60.5312 94.9728ZM89.9812 99.9228L85.0312 92.9532L78.0616 92.478L71.8444 99.5268L72.1612 113.308L77.23 120.198L83.9224 120.119L89.2288 113.149L89.9812 99.9228ZM85.5856 112.634L82.3384 117.268L78.4972 117.149L75.6064 112.674L74.9728 101.903L79.804 95.4876L82.774 95.6064L85.8232 99.5268L85.5856 112.634ZM106.192 111.644L104.331 116L99.2622 116.436L96.4506 111.724L97.203 92.6364L93.243 92.3988L92.847 114.02L96.6486 119.921L106.271 120.158L109.835 114.456L110.548 92.6364L105.717 92.8344L106.192 111.644ZM118.1 108.397L122.377 120.198L125.188 120L120.555 108.16L123.169 108.12L125.188 105.388V96.1608L122.773 92.874H114.219V120H117.308L116.951 108.476L118.1 108.397ZM116.476 95.2896H120.872L122.654 97.3884L122.535 103.883L121.03 105.388L116.833 105.546L116.476 95.2896Z" fill="white"/>
</g>
<defs>
<clipPath id="clip0_873_1873">
<rect width="180" height="180" fill="white"/>
</clipPath>
</defs>
</svg>
