<svg width="180" height="180" viewBox="0 0 180 180" fill="none" xmlns="http://www.w3.org/2000/svg">
<g clip-path="url(#clip0_874_2222)">
<rect width="180" height="180" fill="#75857A"/>
<path d="M67.1899 74.456L61.6459 64.2392C61.2499 64.2788 60.8539 64.3976 60.4183 64.4372L55.5871 75.8816L55.1515 75.842L52.1419 53.1116L47.8255 52.9136L52.7359 80.1188L57.8443 79.8812L61.0915 69.8228L65.5663 79.9604L69.8431 80.0792L74.9911 52.874L69.7639 52.7552L67.1899 74.456ZM79.4006 80.0792H81.341L80.945 65.0312H85.8158L86.0534 80.0792H89.2214L88.271 52.6364H85.6574L85.8158 63.0908L80.9054 63.4472L80.6282 52.6364H78.3314L79.4006 80.0792ZM101.716 55.4876L102.033 52.7552L92.7669 52.9532L93.0045 55.0124L95.6181 55.1708L96.1329 78.0596L93.5193 78.218L93.8361 80.1188L101.36 80.0396L101.796 77.624L98.8653 77.8616L99.3009 55.3688L101.716 55.4876ZM119.603 52.3988L103.882 53.3096L104.04 55.5272H110.099L109.584 80.2772L112.99 79.802L114.178 55.5272L119.445 55.6064L119.603 52.3988ZM132.364 52.7552L122.108 52.9928L122.781 80H133.038L133.275 76.7924L125.316 77.228L125.236 65.15L130.147 64.8728L129.751 62.6948L125.197 63.2492L125.157 55.8044L132.523 56.3588L132.364 52.7552ZM53.7714 92.478L49.5342 92.9532L46.089 103.17L41.8914 92.7552L37.2582 92.9136L35.9514 119.96L39.753 120.158L39.7926 97.9032L43.7922 107.645L46.7226 108.001L50.5638 98.4972L50.8806 119.881C50.8806 119.881 54.405 119.881 55.0386 119.842L53.7714 92.478ZM60.6349 92.3592L56.5165 119.683L59.8429 119.881L61.7833 107.843L65.1493 107.605L67.3273 119.683L69.9805 119.96L65.0305 92.3592H60.6349ZM62.1001 106.1L63.4465 98.2992L64.8721 105.902L62.1001 106.1ZM76.7982 108.397L81.075 120.198L83.8866 120L79.2534 108.16L81.867 108.12L83.8866 105.388V96.1608L81.471 92.874H72.9174V120H76.0062L75.6498 108.476L76.7982 108.397ZM75.1746 95.2896H79.5702L81.3522 97.3884L81.2334 103.883L79.7286 105.388L75.531 105.546L75.1746 95.2896ZM101.157 92.3988L85.4356 93.3096L85.594 95.5272H91.6528L91.138 120.277L94.5436 119.802L95.7316 95.5272L100.998 95.6064L101.157 92.3988ZM111.81 95.4876L112.127 92.7552L102.86 92.9532L103.098 95.0124L105.711 95.1708L106.226 118.06L103.613 118.218L103.929 120.119L111.453 120.04L111.889 117.624L108.959 117.862L109.394 95.3688L111.81 95.4876ZM131.132 92.874L126.737 92.676L127.489 112.278L119.926 92.676H115.688L116.084 120.04L119.807 119.96L119.213 98.8536L127.331 119.96H130.459L131.132 92.874ZM143.637 95.4876L143.954 92.7552L134.687 92.9532L134.925 95.0124L137.538 95.1708L138.053 118.06L135.44 118.218L135.756 120.119L143.28 120.04L143.716 117.624L140.786 117.862L141.221 95.3688L143.637 95.4876Z" fill="white"/>
<path d="M90.5 136.5H45V151.5H90.5C102.5 151.5 108.167 157.5 109.5 160.5H167.5V126.5H109.5C109.5 126.5 103 136.5 90.5 136.5Z" fill="#D9D9D9"/>
<path d="M46.0001 152V145.5C-23.2 145.5 -21.1665 175.833 -11.4997 191C41.167 194 147.9 197.1 153.5 185.5C160.5 171 133.5 172 123 167C112.5 162 107.5 168 94.0003 167C80.5003 166 87.0003 161 73.0003 157C59.0003 153 58.0001 157.5 50.5001 157C44.5001 156.6 45.0001 153.5 46.0001 152Z" fill="white"/>
<path d="M131 163L124 125.5L154 123.5L156.5 163H131Z" fill="#B7B7B7"/>
</g>
<defs>
<clipPath id="clip0_874_2222">
<rect width="180" height="180" fill="white"/>
</clipPath>
</defs>
</svg>
