<svg width="180" height="180" viewBox="0 0 180 180" fill="none" xmlns="http://www.w3.org/2000/svg">
<g clip-path="url(#clip0_874_2654)">
<rect width="180" height="180" fill="#713FFF"/>
<path d="M22.2301 -32.4773C16.1262 -21.0952 22.2299 5.38163 31.5566 26.4361C17.2004 15.9821 -26.5032 -13.5722 -35.0486 5.13745C-45.3519 27.5597 -41.4943 64.832 -29.4819 71.2803C-18.788 76.9957 5.33451 72.0132 25.6482 63.5621C13.8311 80.3178 -10.8284 119.007 6.65302 127.067C29.0664 137.326 66.3242 133.516 72.7699 121.498C79.2156 109.481 72.7701 83.6398 63.4434 62.5854C77.7996 72.9905 121.503 102.594 130.049 83.884C140.352 61.4617 136.494 24.1888 124.482 17.7406C113.788 12.0251 89.7143 16.9591 69.3518 25.459C81.1689 8.70339 105.828 -29.986 88.347 -38.0463C65.9336 -48.3537 28.5781 -44.4944 22.2301 -32.4773Z" fill="#A2CEE1"/>
<path d="M47.5 59C55.5081 59 62 52.5081 62 44.5C62 36.4918 55.5081 30 47.5 30C39.4919 30 33 36.4918 33 44.5C33 52.5081 39.4919 59 47.5 59Z" fill="#FFC81A"/>
<path d="M106.148 116.25C105.983 123.618 115.928 135.513 126.111 143.817C116.107 142.206 86.2358 138.457 86.7205 150.184C87.2699 164.254 98.8602 182.222 106.638 182.4C113.555 182.546 124.542 173.78 132.695 164.233C131.01 175.811 128.457 201.866 139.434 201.452C153.488 200.882 171.461 189.319 171.636 181.54C171.812 173.76 161.857 162.277 151.673 153.973C161.666 155.559 191.549 159.333 191.064 147.606C190.515 133.536 178.924 115.567 171.147 115.389C164.229 115.244 153.255 123.972 145.09 133.557C146.774 121.979 149.328 95.9238 138.351 96.3382C124.284 96.8832 106.274 108.496 106.148 116.25Z" fill="#A2CEE1"/>
<path d="M142.738 156.469C146.923 154.344 148.594 149.228 146.469 145.042C144.344 140.856 139.228 139.185 135.042 141.31C130.856 143.436 129.186 148.552 131.311 152.737C133.436 156.923 138.552 158.594 142.738 156.469Z" fill="#FFC81A"/>
<path d="M64.351 35.7084L67.2346 44.9644L70.6878 45.0712L75.4226 20.614L70.937 20.5428L68.6586 40.1584L65.1342 30.1548L63.7102 30.3328L59.4026 41.7248L56.6258 20.5428L53.0302 20.3648L57.4802 45.1068L60.791 45L64.351 35.7084ZM79.3648 45.0712H81.1092L80.7532 31.5432H85.132L85.3456 45.0712H88.1936L87.3392 20.4004H84.9896L85.132 29.7988L80.7176 30.1192L80.4684 20.4004H78.4036L79.3648 45.0712ZM99.4265 22.9636L99.7113 20.5072L91.3809 20.6852L91.5945 22.5364L93.9441 22.6788L94.4069 43.2556L92.0573 43.398L92.3421 45.1068L99.1061 45.0356L99.4977 42.864L96.8633 43.0776L97.2549 22.8568L99.4265 22.9636ZM115.507 20.1868L101.373 21.0056L101.516 22.9992H106.963L106.5 45.2492L109.561 44.822L110.629 22.9992L115.364 23.0704L115.507 20.1868ZM126.979 20.5072L117.758 20.7208L118.363 45H127.584L127.797 42.1164L120.642 42.508L120.571 31.65L124.985 31.4008L124.629 29.4428L120.535 29.9412L120.499 23.2484L127.121 23.7468L126.979 20.5072ZM36.4409 78.0452L30.1397 78.4368L28.3597 67.294L29.8193 60.5656L36.3341 59.7112L36.4053 56.0444L28.4309 56.97L25.0133 68.184L27.9681 81.2848L36.8325 81.0712L36.4409 78.0452ZM39.3495 81.0712H41.0939L40.7379 67.5432H45.1167L45.3303 81.0712H48.1783L47.3239 56.4004H44.9743L45.1167 65.7988L40.7023 66.1192L40.4531 56.4004H38.3883L39.3495 81.0712ZM54.4985 56.1512L50.7961 80.7152L53.7865 80.8932L55.5309 70.0708L58.5569 69.8572L60.5149 80.7152L62.9001 80.9644L58.4501 56.1512H54.4985ZM55.8157 68.5044L57.0261 61.4912L58.3077 68.3264L55.8157 68.5044ZM81.0079 56.258L77.1987 56.6852L74.1015 65.87L70.3279 56.5072L66.1627 56.6496L64.9879 80.9644L68.4055 81.1424L68.4411 61.1352L72.0367 69.8928L74.6711 70.2132L78.1243 61.6692L78.4091 80.8932C78.4091 80.8932 81.5775 80.8932 82.1471 80.8576L81.0079 56.258ZM100.315 62.9508L95.8645 56.6852L89.5989 56.258L84.0097 62.5948L84.2945 74.9836L88.8513 81.178L94.8677 81.1068L99.6381 74.8412L100.315 62.9508ZM96.3629 74.3784L93.4437 78.5436L89.9905 78.4368L87.3917 74.414L86.8221 64.7308L91.1653 58.9636L93.8353 59.0704L96.5765 62.5948L96.3629 74.3784ZM118.937 56.258L115.128 56.6852L112.031 65.87L108.257 56.5072L104.092 56.6496L102.917 80.9644L106.335 81.1424L106.37 61.1352L109.966 69.8928L112.6 70.2132L116.054 61.6692L116.338 80.8932C116.338 80.8932 119.507 80.8932 120.076 80.8576L118.937 56.258ZM130.02 58.9636L130.305 56.5072L121.975 56.6852L122.188 58.5364L124.538 58.6788L125.001 79.2556L122.651 79.398L122.936 81.1068L129.7 81.0356L130.091 78.864L127.457 79.0776L127.849 58.8568L130.02 58.9636ZM143.404 77.3688L136.64 78.2232L137.387 56.7564L133.507 56.4004L133.899 81.1424L143.831 81.2492L143.404 77.3688ZM155.174 56.5072L145.953 56.7208L146.558 81H155.779L155.992 78.1164L148.837 78.508L148.766 67.65L153.18 67.4008L152.824 65.4428L148.73 65.9412L148.694 59.2484L155.316 59.7468L155.174 56.5072ZM59.488 92.258L55.6788 92.6852L52.5816 101.87L48.808 92.5072L44.6428 92.6496L43.468 116.964L46.8856 117.142L46.9212 97.1352L50.5168 105.893L53.1512 106.213L56.6044 97.6692L56.8892 116.893C56.8892 116.893 60.0576 116.893 60.6272 116.858L59.488 92.258ZM75.3943 109.488L73.7211 113.404L69.1643 113.796L66.6367 109.56L67.3131 92.4004L63.7531 92.1868L63.3971 111.624L66.8147 116.929L75.4655 117.142L78.6695 112.016L79.3103 92.4004L74.9671 92.5784L75.3943 109.488ZM92.507 113.369L85.743 114.223L86.4906 92.7564L82.6102 92.4004L83.0018 117.142L92.9342 117.249L92.507 113.369ZM104.953 113.369L98.1891 114.223L98.9367 92.7564L95.0563 92.4004L95.4479 117.142L105.38 117.249L104.953 113.369ZM116.723 92.5072L107.502 92.7208L108.108 117H117.328L117.542 114.116L110.386 114.508L110.315 103.65L114.729 103.401L114.373 101.443L110.279 101.941L110.244 95.2484L116.865 95.7468L116.723 92.5072ZM120.238 117.178L131.096 116.786L135.795 111.233L136.329 99.9832L130.527 92.8988L119.74 92.5072L120.238 117.178ZM131.488 109.702L128.853 113.725L123.478 113.938L123.798 95.3908L128.569 95.2484L132.164 101.229L131.488 109.702ZM69.7223 143.708L72.6059 152.964L76.0591 153.071L80.7939 128.614L76.3083 128.543L74.0299 148.158L70.5055 138.155L69.0815 138.333L64.7739 149.725L61.9971 128.543L58.4015 128.365L62.8515 153.107L66.1623 153L69.7223 143.708ZM90.7525 130.964L91.0373 128.507L82.7069 128.685L82.9205 130.536L85.2701 130.679L85.7329 151.256L83.3833 151.398L83.6681 153.107L90.4321 153.036L90.8237 150.864L88.1893 151.078L88.5809 130.857L90.7525 130.964ZM108.123 128.614L104.172 128.436L104.848 146.058L98.0485 128.436H94.2393L94.5953 153.036L97.9417 152.964L97.4077 133.99L104.706 152.964H107.518L108.123 128.614ZM121.607 128.507L112.387 128.721L112.992 153H122.213L122.426 150.116L115.271 150.508L115.199 139.65L119.614 139.401L119.258 137.443L115.164 137.941L115.128 131.248L121.75 131.747L121.607 128.507Z" fill="white"/>
</g>
<defs>
<clipPath id="clip0_874_2654">
<rect width="180" height="180" fill="white"/>
</clipPath>
</defs>
</svg>
