<svg width="180" height="180" viewBox="0 0 180 180" fill="none" xmlns="http://www.w3.org/2000/svg">
<g clip-path="url(#clip0_874_2222)">
<rect width="180" height="180" fill="#75857A"/>
<path d="M61.5591 69.6644L64.7667 79.9604L68.6079 80.0792L73.8747 52.874L68.8851 52.7948L66.3507 74.6144L62.4303 63.4868L60.8463 63.6848L56.0547 76.3568L52.9659 52.7948L48.9663 52.5968L53.9163 80.1188L57.5991 80L61.5591 69.6644ZM78.2598 80.0792H80.2002L79.8042 65.0312H84.675L84.9126 80.0792H88.0806L87.1302 52.6364H84.5166L84.675 63.0908L79.7646 63.4472L79.4874 52.6364H77.1906L78.2598 80.0792ZM100.576 55.4876L100.892 52.7552L91.626 52.9532L91.8636 55.0124L94.4772 55.1708L94.992 78.0596L92.3784 78.218L92.6952 80.1188L100.219 80.0396L100.655 77.624L97.7244 77.8616L98.16 55.3688L100.576 55.4876ZM118.462 52.3988L102.741 53.3096L102.9 55.5272H108.958L108.444 80.2772L111.849 79.802L113.037 55.5272L118.304 55.6064L118.462 52.3988ZM131.224 52.7552L120.967 52.9928L121.64 80H131.897L132.134 76.7924L124.175 77.228L124.096 65.15L129.006 64.8728L128.61 62.6948L124.056 63.2492L124.016 55.8044L131.382 56.3588L131.224 52.7552ZM40.9107 108.397L45.1875 120.198L47.9991 120L43.3659 108.16L45.9795 108.12L47.9991 105.388V96.1608L45.5835 92.874H37.0299V120H40.1187L39.7623 108.476L40.9107 108.397ZM39.2871 95.2896H43.6827L45.4647 97.3884L45.3459 103.883L43.8411 105.388L39.6435 105.546L39.2871 95.2896ZM63.9625 111.644L62.1013 116L57.0325 116.436L54.2209 111.724L54.9733 92.6364L51.0133 92.3988L50.6173 114.02L54.4189 119.921L64.0417 120.158L67.6057 114.456L68.3185 92.6364L63.4873 92.8344L63.9625 111.644ZM75.6133 94.9728L80.5632 97.4676L82.7412 94.7352L78.5041 92.3196L71.8513 93.6264L70.3465 101.23L80.8404 111.09L79.3753 117.268L74.7817 116.832L72.3265 113.149L69.9109 116.159L73.1581 119.921L81.8304 120.04L84.7608 109.862L73.5937 99.5664L75.6133 94.9728ZM91.3914 94.9728L96.3414 97.4676L98.5194 94.7352L94.2822 92.3196L87.6294 93.6264L86.1246 101.23L96.6186 111.09L95.1534 117.268L90.5598 116.832L88.1046 113.149L85.689 116.159L88.9362 119.921L97.6086 120.04L100.539 109.862L89.3718 99.5664L91.3914 94.9728ZM109.257 95.4876L109.574 92.7552L100.308 92.9532L100.545 95.0124L103.159 95.1708L103.674 118.06L101.06 118.218L101.377 120.119L108.901 120.04L109.337 117.624L106.406 117.862L106.842 95.3688L109.257 95.4876ZM115.433 92.3592L111.315 119.683L114.641 119.881L116.581 107.843L119.947 107.605L122.125 119.683L124.778 119.96L119.829 92.3592H115.433ZM116.898 106.1L118.245 98.2992L119.67 105.902L116.898 106.1ZM143.159 92.874L138.764 92.676L139.516 112.278L131.953 92.676H127.715L128.111 120.04L131.834 119.96L131.24 98.8536L139.358 119.96H142.486L143.159 92.874Z" fill="white"/>
<path d="M90.5 136.5H45V151.5H90.5C102.5 151.5 108.167 157.5 109.5 160.5H167.5V126.5H109.5C109.5 126.5 103 136.5 90.5 136.5Z" fill="#D9D9D9"/>
<path d="M46.0001 152V145.5C-23.2 145.5 -21.1665 175.833 -11.4997 191C41.167 194 147.9 197.1 153.5 185.5C160.5 171 133.5 172 123 167C112.5 162 107.5 168 94.0003 167C80.5003 166 87.0003 161 73.0003 157C59.0003 153 58.0001 157.5 50.5001 157C44.5001 156.6 45.0001 153.5 46.0001 152Z" fill="white"/>
<path d="M131 163L124 125.5L154 123.5L156.5 163H131Z" fill="#B7B7B7"/>
</g>
<defs>
<clipPath id="clip0_874_2222">
<rect width="180" height="180" fill="white"/>
</clipPath>
</defs>
</svg>
