<svg width="180" height="180" viewBox="0 0 180 180" fill="none" xmlns="http://www.w3.org/2000/svg">
<g clip-path="url(#clip0_874_2546)">
<rect width="180" height="180" fill="#478358"/>
<path d="M107.623 36.042L130.849 53.406L70.014 129.036L49.5428 113.732L107.623 36.042Z" fill="#D76950"/>
<rect x="121.62" y="34.02" width="8" height="14" transform="rotate(36.7812 121.62 34.02)" fill="#D76950"/>
<rect x="56.5723" y="132.721" width="8" height="14" transform="rotate(-143.219 56.5723 132.721)" fill="#D76950"/>
<ellipse cx="124.824" cy="36.4153" rx="7" ry="6" transform="rotate(36.7812 124.824 36.4153)" fill="#D76950"/>
<ellipse cx="53.3684" cy="130.326" rx="7" ry="6" transform="rotate(-143.219 53.3684 130.326)" fill="#D76950"/>
<path d="M135.616 31.9984C133.632 34.6524 129.872 35.1955 127.218 33.2114C124.564 31.2273 124.021 27.4673 126.005 24.8132C127.989 22.1592 143.126 6.39848 145.78 8.3826C148.434 10.3667 137.6 29.3443 135.616 31.9984Z" fill="#D76950"/>
<path d="M42.5757 134.742C44.5598 132.088 48.3197 131.545 50.9738 133.529C53.6278 135.513 54.1709 139.273 52.1868 141.927C50.2027 144.582 35.0662 160.342 32.4122 158.358C29.7582 156.374 40.5915 137.396 42.5757 134.742Z" fill="#D76950"/>
<path d="M23.1596 74.5428C23.1952 74.5428 23.7648 90.2424 23.7648 91.6664C23.7648 94.1584 23.124 96.686 21.344 96.686C19.3148 96.686 18.674 93.1972 18.3892 91.7732L15.47 93.1616C15.47 93.2684 17.0364 98.9644 21.0948 98.9644C26.1856 98.9644 26.8976 94.8704 27.04 92.8412C27.2536 90.1356 27.2892 74.7564 27.2892 74.7564L23.1596 74.5428ZM42.054 91.4884L40.3808 95.4044L35.824 95.796L33.2964 91.5596L33.9728 74.4004L30.4128 74.1868L30.0568 93.6244L33.4744 98.9288L42.1252 99.1424L45.3292 94.016L45.97 74.4004L41.6268 74.5784L42.054 91.4884ZM49.7684 99.178L60.6264 98.7864L65.3256 93.2328L65.8596 81.9832L60.0568 74.8988L49.27 74.5072L49.7684 99.178ZM61.018 91.702L58.3836 95.7248L53.008 95.9384L53.3284 77.3908L58.0988 77.2484L61.6944 83.2292L61.018 91.702ZM75.6298 74.4716L71.9986 83.5852L67.6554 74.614L64.6294 74.792L70.7526 86.8248L70.895 98.9644H74.5974L74.2414 86.896L79.3678 74.7208L75.6298 74.4716ZM83.1617 72.6916L82.8769 79.954H84.4789L87.0065 73.0476L83.1617 72.6916ZM93.5166 76.5008L97.9666 78.7436L99.9246 76.2872L96.1154 74.1156L90.1346 75.2904L88.7818 82.1256L98.2158 90.99L96.8986 96.5436L92.769 96.152L90.5618 92.8412L88.3902 95.5468L91.3094 98.9288L99.1058 99.0356L101.74 89.8864L91.701 80.6304L93.5166 76.5008ZM116.241 88.5692L120.086 99.178L122.613 99L118.448 88.3556L120.798 88.32L122.613 85.8636V77.5688L120.442 74.614H112.752V99H115.529L115.208 88.6404L116.241 88.5692ZM114.781 76.7856H118.733L120.335 78.6724L120.228 84.5108L118.875 85.8636L115.102 86.006L114.781 76.7856ZM132.906 76.9636L133.191 74.5072L124.86 74.6852L125.074 76.5364L127.423 76.6788L127.886 97.2556L125.537 97.398L125.821 99.1068L132.585 99.0356L132.977 96.864L130.343 97.0776L130.734 76.8568L132.906 76.9636ZM151.211 80.9508L146.761 74.6852L140.496 74.258L134.907 80.5948L135.191 92.9836L139.748 99.178L145.765 99.1068L150.535 92.8412L151.211 80.9508ZM147.26 92.3784L144.341 96.5436L140.887 96.4368L138.289 92.414L137.719 82.7308L142.062 76.9636L144.732 77.0704L147.473 80.5948L147.26 92.3784ZM164.735 74.1868L150.601 75.0056L150.744 76.9992H156.191L155.728 99.2492L158.789 98.822L159.857 76.9992L164.592 77.0704L164.735 74.1868Z" fill="white"/>
</g>
<defs>
<clipPath id="clip0_874_2546">
<rect width="180" height="180" fill="white"/>
</clipPath>
</defs>
</svg>
