<svg width="180" height="180" viewBox="0 0 180 180" fill="none" xmlns="http://www.w3.org/2000/svg">
<g clip-path="url(#clip0_874_2546)">
<rect width="180" height="180" fill="#478358"/>
<path d="M107.623 36.042L130.849 53.406L70.014 129.036L49.5428 113.732L107.623 36.042Z" fill="#D76950"/>
<rect x="121.62" y="34.02" width="8" height="14" transform="rotate(36.7812 121.62 34.02)" fill="#D76950"/>
<rect x="56.5723" y="132.721" width="8" height="14" transform="rotate(-143.219 56.5723 132.721)" fill="#D76950"/>
<ellipse cx="124.824" cy="36.4153" rx="7" ry="6" transform="rotate(36.7812 124.824 36.4153)" fill="#D76950"/>
<ellipse cx="53.3684" cy="130.326" rx="7" ry="6" transform="rotate(-143.219 53.3684 130.326)" fill="#D76950"/>
<path d="M135.616 31.9984C133.632 34.6524 129.872 35.1955 127.218 33.2114C124.564 31.2273 124.021 27.4673 126.005 24.8132C127.989 22.1592 143.126 6.39848 145.78 8.3826C148.434 10.3667 137.6 29.3443 135.616 31.9984Z" fill="#D76950"/>
<path d="M42.5757 134.742C44.5598 132.088 48.3197 131.545 50.9738 133.529C53.6278 135.513 54.1709 139.273 52.1868 141.927C50.2027 144.582 35.0662 160.342 32.4122 158.358C29.7582 156.374 40.5915 137.396 42.5757 134.742Z" fill="#D76950"/>
<path d="M17.5565 89.7084L20.4401 98.9644L23.8933 99.0712L28.6281 74.614L24.1425 74.5428L21.8641 94.1584L18.3397 84.1548L16.9157 84.3328L12.6081 95.7248L9.8313 74.5428L6.2357 74.3648L10.6857 99.1068L13.9965 99L17.5565 89.7084ZM46.8102 80.9508L42.3602 74.6852L36.0946 74.258L30.5054 80.5948L30.7902 92.9836L35.347 99.178L41.3634 99.1068L46.1338 92.8412L46.8102 80.9508ZM42.8586 92.3784L39.9394 96.5436L36.4862 96.4368L33.8874 92.414L33.3178 82.7308L37.661 76.9636L40.331 77.0704L43.0722 80.5948L42.8586 92.3784ZM65.4329 74.258L61.6237 74.6852L58.5265 83.87L54.7529 74.5072L50.5877 74.6496L49.4129 98.9644L52.8305 99.1424L52.8661 79.1352L56.4617 87.8928L59.0961 88.2132L62.5493 79.6692L62.8341 98.8932C62.8341 98.8932 66.0025 98.8932 66.5721 98.8576L65.4329 74.258ZM71.6031 74.1512L67.9007 98.7152L70.8911 98.8932L72.6355 88.0708L75.6615 87.8572L77.6195 98.7152L80.0047 98.9644L75.5547 74.1512H71.6031ZM72.9203 86.5044L74.1307 79.4912L75.4123 86.3264L72.9203 86.5044ZM96.529 74.614L92.5774 74.436L93.2538 92.058L86.4542 74.436H82.645L83.001 99.0356L86.3474 98.9644L85.8134 79.9896L93.1114 98.9644H95.9238L96.529 74.614ZM103.321 76.5008L107.771 78.7436L109.729 76.2872L105.919 74.1156L99.9385 75.2904L98.5857 82.1256L108.02 90.99L106.703 96.5436L102.573 96.152L100.366 92.8412L98.1941 95.5468L101.113 98.9288L108.91 99.0356L111.544 89.8864L101.505 80.6304L103.321 76.5008ZM126.045 88.5692L129.89 99.178L132.417 99L128.252 88.3556L130.602 88.32L132.417 85.8636V77.5688L130.246 74.614H122.556V99H125.333L125.012 88.6404L126.045 88.5692ZM124.585 76.7856H128.537L130.139 78.6724L130.032 84.5108L128.679 85.8636L124.906 86.006L124.585 76.7856ZM142.71 76.9636L142.994 74.5072L134.664 74.6852L134.878 76.5364L137.227 76.6788L137.69 97.2556L135.34 97.398L135.625 99.1068L142.389 99.0356L142.781 96.864L140.146 97.0776L140.538 76.8568L142.71 76.9636ZM161.015 80.9508L156.565 74.6852L150.3 74.258L144.711 80.5948L144.995 92.9836L149.552 99.178L155.569 99.1068L160.339 92.8412L161.015 80.9508ZM157.064 92.3784L154.145 96.5436L150.691 96.4368L148.093 92.414L147.523 82.7308L151.866 76.9636L154.536 77.0704L157.277 80.5948L157.064 92.3784ZM174.539 74.1868L160.405 75.0056L160.548 76.9992H165.995L165.532 99.2492L168.593 98.822L169.661 76.9992L174.396 77.0704L174.539 74.1868Z" fill="white"/>
</g>
<defs>
<clipPath id="clip0_874_2546">
<rect width="180" height="180" fill="white"/>
</clipPath>
</defs>
</svg>
