<svg width="180" height="180" viewBox="0 0 180 180" fill="none" xmlns="http://www.w3.org/2000/svg">
<g clip-path="url(#clip0_874_2606)">
<rect width="180" height="180" fill="#1F6981"/>
<ellipse cx="90" cy="90" rx="66" ry="48" fill="#242320"/>
<path d="M49.2191 77.996C47.4035 76.6076 44.7691 74.6852 42.2415 74.6852C39.1799 74.6852 37.9695 77.3196 37.9695 79.5624C37.9695 86.0772 45.6235 87.5368 45.6235 93.2328C45.6235 94.4788 45.1251 95.8672 43.6299 95.8672C41.5295 95.8672 39.8563 94.2652 38.1475 91.9156L36.0827 94.2652C38.1831 97.4692 40.2479 99.3204 43.0959 99.3204C45.9439 99.3204 48.5071 97.3624 48.5071 93.0904C48.5071 87.3232 40.4971 83.6208 40.4971 79.6692C40.4971 78.6368 41.0311 77.4976 42.0635 77.4976C43.7367 77.4976 45.9083 79.4912 47.7239 80.844L49.2191 77.996ZM63.0872 91.4884L61.414 95.4044L56.8572 95.796L54.3296 91.5596L55.006 74.4004L51.446 74.1868L51.09 93.6244L54.5076 98.9288L63.1584 99.1424L66.3624 94.016L67.0032 74.4004L62.66 74.5784L63.0872 91.4884ZM71.0508 74.4004L70.3032 99H79.132L81.7664 96.9352V87.2164L78.776 84.938L81.5528 78.2096L79.3456 74.5072L71.0508 74.4004ZM79.844 88.6048L79.666 95.2264L77.5656 96.7572L74.148 96.4368L74.1836 87.2164L77.4588 86.6824L79.844 88.6048ZM76.1772 84.8312L74.1836 85.2228L74.2192 76.6432L77.4232 76.6076L78.7404 78.5656L76.1772 84.8312ZM95.9408 91.4884L94.2676 95.4044L89.7108 95.796L87.1832 91.5596L87.8596 74.4004L84.2996 74.1868L83.9436 93.6244L87.3612 98.9288L96.012 99.1424L99.216 94.016L99.8568 74.4004L95.5136 74.5784L95.9408 91.4884ZM106.646 88.5692L110.49 99.178L113.018 99L108.853 88.3556L111.202 88.32L113.018 85.8636V77.5688L110.846 74.614H103.157V99H105.934L105.613 88.6404L106.646 88.5692ZM105.186 76.7856H109.138L110.74 78.6724L110.633 84.5108L109.28 85.8636L105.506 86.006L105.186 76.7856ZM117.08 74.4004L116.333 99H125.162L127.796 96.9352V87.2164L124.806 84.938L127.582 78.2096L125.375 74.5072L117.08 74.4004ZM125.874 88.6048L125.696 95.2264L123.595 96.7572L120.178 96.4368L120.213 87.2164L123.488 86.6824L125.874 88.6048ZM122.207 84.8312L120.213 85.2228L120.249 76.6432L123.453 76.6076L124.77 78.5656L122.207 84.8312ZM134.957 76.5008L139.407 78.7436L141.365 76.2872L137.556 74.1156L131.575 75.2904L130.222 82.1256L139.656 90.99L138.339 96.5436L134.21 96.152L132.002 92.8412L129.831 95.5468L132.75 98.9288L140.546 99.0356L143.181 89.8864L133.142 80.6304L134.957 76.5008Z" fill="white"/>
</g>
<defs>
<clipPath id="clip0_874_2606">
<rect width="180" height="180" fill="white"/>
</clipPath>
</defs>
</svg>
