<svg width="180" height="180" viewBox="0 0 180 180" fill="none" xmlns="http://www.w3.org/2000/svg">
<g clip-path="url(#clip0_874_2606)">
<rect width="180" height="180" fill="#1F6981"/>
<ellipse cx="90" cy="90" rx="66" ry="48" fill="#242320"/>
<path d="M43.2415 74.7208L30.3187 74.7564L29.9983 78.53L39.5391 77.6756L28.0047 96.2232L28.8591 98.8932L41.3191 99V96.3656L31.5647 95.262L42.6363 79.2776L43.2415 74.7208ZM47.8756 74.1512L44.1732 98.7152L47.1636 98.8932L48.908 88.0708L51.934 87.8572L53.892 98.7152L56.2772 98.9644L51.8272 74.1512H47.8756ZM49.1928 86.5044L50.4032 79.4912L51.6848 86.3264L49.1928 86.5044ZM74.3851 74.258L70.5759 74.6852L67.4787 83.87L63.7051 74.5072L59.5399 74.6496L58.3651 98.9644L61.7827 99.1424L61.8183 79.1352L65.4139 87.8928L68.0483 88.2132L71.5015 79.6692L71.7863 98.8932C71.7863 98.8932 74.9547 98.8932 75.5243 98.8576L74.3851 74.258ZM78.8465 74.5072L78.4905 99.0712L81.9437 99.0356L82.0505 88.498L83.7949 86.8248L93.8341 99.6052L96.4329 97.7896L86.0733 85.116L94.5817 76.8568L92.5881 74.7564L82.0861 85.2584L82.1929 74.7208L78.8465 74.5072ZM101.032 74.1512L97.3298 98.7152L100.32 98.8932L102.065 88.0708L105.091 87.8572L107.049 98.7152L109.434 98.9644L104.984 74.1512H101.032ZM102.349 86.5044L103.56 79.4912L104.841 86.3264L102.349 86.5044ZM112.572 99.178L123.43 98.7864L128.13 93.2328L128.664 81.9832L122.861 74.8988L112.074 74.5072L112.572 99.178ZM123.822 91.702L121.188 95.7248L115.812 95.9384L116.132 77.3908L120.903 77.2484L124.498 83.2292L123.822 91.702ZM138.799 76.9636L139.083 74.5072L130.753 74.6852L130.967 76.5364L133.316 76.6788L133.779 97.2556L131.429 97.398L131.714 99.1068L138.478 99.0356L138.87 96.864L136.235 97.0776L136.627 76.8568L138.799 76.9636ZM151.506 74.5072L142.285 74.7208L142.891 99H152.111L152.325 96.1164L145.169 96.508L145.098 85.65L149.512 85.4008L149.156 83.4428L145.062 83.9412L145.027 77.2484L151.648 77.7468L151.506 74.5072Z" fill="white"/>
</g>
<defs>
<clipPath id="clip0_874_2606">
<rect width="180" height="180" fill="white"/>
</clipPath>
</defs>
</svg>
