<svg width="512" height="512" viewBox="0 0 512 512" fill="none" xmlns="http://www.w3.org/2000/svg">
<g clip-path="url(#clip0_52_4163)">
<rect width="512" height="512" fill="#242320"/>
<path d="M98.5697 124.886L116.672 185H135.799L99.7652 66.48H82.3458L61.3401 185H72.0991L81.1504 124.715L98.5697 124.886ZM87.1276 84.7533L96.1788 117.201L82.3458 116.689L87.1276 84.7533ZM152.001 66.9923L148.414 185H190.767L203.405 175.095L203.405 128.472L189.059 117.543L202.38 85.2656L191.792 67.5047L152.001 66.9923ZM194.183 135.133L193.329 166.898L183.253 174.241L166.858 172.704L167.029 128.472L182.741 125.911L194.183 135.133ZM176.593 117.03L167.029 118.909L167.2 77.7514L182.57 77.5806L188.889 86.9734L176.593 117.03ZM235.196 134.962L253.64 185.854L265.765 185L245.784 133.937L257.056 133.767L265.765 121.983V82.1916L255.348 68.017H218.46L218.46 185H231.781L230.244 135.304L235.196 134.962ZM228.194 78.4345H247.151L254.836 87.4857L254.323 115.493L247.834 121.983L229.731 122.666L228.194 78.4345ZM427.512 186.879L445.444 181.584L375.596 65.1138L358.689 63.7476L273.812 180.56L291.061 185.342L319.751 145.379L403.945 147.258L427.512 186.879ZM365.349 81.85L396.601 134.791L326.412 136.157L365.349 81.85ZM143.997 315.171L183.959 309.706L200.183 290.579L202.744 277.087L188.228 256.935L167.052 248.738V248.226L186.35 241.224L192.156 225L177.298 206.214L141.435 198.7L72.6115 198.359L69.1959 308.169L76.5394 315.683L143.997 315.171ZM88.4938 210.996L134.775 209.63L166.198 213.387L173.712 226.025L169.613 236.101L145.875 243.444L88.6646 244.469L88.4938 210.996ZM88.6646 301.167V254.374L152.023 255.569L176.957 262.571L186.862 280.844L173.029 299.288L143.143 299.801L88.6646 301.167ZM227.698 195.797L209.937 313.634L224.282 314.488L232.651 262.571L247.167 261.546L256.559 313.634L268.002 314.829L246.654 195.797H227.698ZM234.017 255.057L239.823 221.414L245.971 254.203L234.017 255.057ZM297.403 264.962L315.847 315.854L327.973 315L307.992 263.937L319.263 263.767L327.973 251.983V212.192L317.555 198.017H280.667V315H293.988L292.451 265.304L297.403 264.962ZM290.402 208.434H309.358L317.043 217.486L316.531 245.493L310.041 251.983L291.939 252.666L290.402 208.434Z" fill="white"/>
<path d="M101.156 418.153L145.297 401.381L154.001 426.849H178.247L177.626 408.835L254.717 410.699L389.006 389.579C389.628 387.094 389.628 385.231 389.628 385.231V380.261L298.859 389.579L216.793 383.988L215.55 373.429L185.708 375.292L162.083 390.821L155.866 382.746L178.247 367.217L172.03 362.247L158.353 370.944L145.297 376.534L144.053 378.398L138.458 369.702L169.543 354.793L165.813 346.097L138.458 356.657L134.106 351.688L168.3 333.052L198.142 357.899L216.793 361.626L219.28 352.93L269.017 356.036L390.25 356.657V346.097L405.171 334.295L404.549 324.356L400.197 311.311L360.408 318.144L345.487 297.646L353.569 289.57L355.434 280.253L402.684 283.359L394.602 266.587L355.434 269.072L359.786 261.618L372.22 256.648L345.487 251.679V244.846L363.516 228.075L355.434 219.378V188.32C355.434 188.32 363.516 169.063 374.707 167.821C382.789 166.579 410.144 169.063 410.144 169.063L430.661 147.943L428.174 168.442L449.312 151.671L439.364 171.548L458.638 164.715L448.69 182.108C448.69 182.108 455.529 206.334 453.042 215.03C451.799 225.59 441.23 247.952 439.364 251.679C441.851 250.437 461.746 238.013 465.476 247.331C466.72 258.512 459.881 275.905 459.881 275.905L439.986 283.359L446.203 315.66L463.611 337.401L466.72 389.579V481.512L459.881 512.571L489.101 604.504L500.292 629.351L481.019 616.928L508.374 684.014C508.374 684.014 510.239 679.666 512.726 679.045C516.456 678.424 527.647 684.635 530.134 687.12C531.377 690.847 528.268 700.164 523.295 702.028C516.456 704.513 500.913 692.71 500.913 692.71C500.913 692.71 498.427 706.376 490.966 708.861C483.506 711.967 477.289 712.588 476.045 704.513C473.558 697.059 479.154 690.226 479.154 690.226L490.966 686.499L469.206 622.518L470.45 640.532C470.45 640.532 463.611 629.351 462.368 625.003C459.881 622.518 457.394 641.153 457.394 641.153L412.009 531.206L328.701 662.894L314.401 661.031L309.428 684.635L300.102 708.861L265.286 700.164C265.286 700.164 230.471 693.953 230.471 690.226C230.471 685.878 246.014 687.741 250.987 688.362C246.014 686.499 221.767 677.802 223.632 672.833C224.875 669.106 248.5 677.802 254.717 679.666C250.365 677.181 224.875 662.273 226.119 658.546C227.362 656.683 287.046 679.666 287.046 679.666L293.885 657.304L281.451 650.471L298.237 613.201L347.973 534.933L394.602 486.482C394.602 486.482 382.167 456.665 382.789 445.484C383.411 439.894 384.033 428.713 385.898 419.395L278.964 448.59L183.843 447.348L182.599 442.379L154.001 445.484L131.619 468.468L116.698 458.529L147.162 439.273L145.297 433.061L112.968 444.242L107.994 437.409L141.567 422.501L140.323 413.184L102.399 424.365L101.156 418.153Z" fill="#4CB469"/>
</g>
<defs>
<clipPath id="clip0_52_4163">
<rect width="512" height="512" fill="white"/>
</clipPath>
</defs>
</svg>
