<svg width="180" height="180" viewBox="0 0 180 180" fill="none" xmlns="http://www.w3.org/2000/svg">
<g clip-path="url(#clip0_480_2392)">
<rect width="180" height="180" fill="#242320"/>
<path fill-rule="evenodd" clip-rule="evenodd" d="M159.718 40.9305C138.645 29.8327 118.515 39.9713 105.089 52.0678C105.669 42.654 103.848 31.6892 94.8431 27.7601C80.0527 21.3069 57.5768 37.0872 62.2984 61.2799L55.6553 58.6316C54.6057 49.1361 55.0846 36.0472 61.6644 27.906C57.0137 30.8255 49.9929 40.7635 54.5218 58.7412C54.3867 58.7843 54.252 58.8341 54.1182 58.8908C50.388 49.1266 42.3296 33.9899 32.0814 31.9094C37.1863 36.0109 48.0886 46.7453 53.8979 58.9912C50.3723 60.7097 47.7603 67.5157 58.1299 85.367C69.9948 105.792 129.77 114.508 158.174 116.312C154.947 109.673 141.471 99.3648 129.556 91.311C153.844 85.0756 189.057 56.3817 159.718 40.9305Z" fill="#969696"/>
<path fill-rule="evenodd" clip-rule="evenodd" d="M29.041 140.343C35.1187 132.908 44.1894 133.514 51.0793 135.901C49.3821 132.493 48.3316 128.132 51.0569 125.257C55.5329 120.535 66.3631 122.87 68.4187 132.603L70.4685 130.575C69.3633 126.881 67.1248 122.092 63.3998 120.1C65.5863 120.454 69.7579 123.045 70.9067 130.438C70.9636 130.433 71.0215 130.43 71.0801 130.43C70.9279 126.215 71.5371 119.324 75.0149 116.941C73.7651 119.267 71.4068 124.969 71.1777 130.433C72.7574 130.518 74.7988 132.637 73.7588 140.901C72.5688 150.356 51.7452 162.985 41.4822 168.117C41.6353 165.143 45.0163 159.195 48.1725 154.33C38.1723 155.827 20.5793 150.694 29.041 140.343Z" fill="#D9D9D9"/>
<path d="M55.5179 87.4688L59.2915 100H63.6347L56.1231 75.2936H52.1359L47.7571 100H49.9999L51.8867 87.4332L55.5179 87.4688ZM53.1327 79.1028L55.0195 85.8668L52.1359 85.76L53.1327 79.1028ZM67.0037 75.5784L66.2561 100H75.4409L78.0753 97.9352L78.3245 88.074L75.0849 85.938L77.8617 79.3876L75.6545 75.6852L67.0037 75.5784ZM75.7969 89.6048L75.6189 96.2264L73.5185 97.7572L70.1009 97.4368L70.1365 88.2164L73.4117 87.6824L75.7969 89.6048ZM72.1301 85.8312L70.1365 86.2228L70.1721 77.8212L73.3761 77.7856L74.6933 79.7436L72.1301 85.8312ZM95.2962 100L97.717 99.5016L90.597 75.2936H87.3218L79.8458 99.3948L83.3346 100.356L85.5774 91.7764L92.6262 91.1712L95.2962 100ZM89.0662 79.3164L92.1278 89.498L86.0758 89.854L89.0662 79.3164ZM115.1 99.9644L115.135 75.4716H111.29L111.184 87.0772L103.174 86.8992L103.245 75.4716H100.361L100.788 99.9644H103.067L103.174 88.7504H111.184L111.041 99.9644H115.1ZM123.222 100H130.271L132.371 95.4788L129.666 94.126L128.277 97.152L124.254 97.0096L121.727 93.8412L122.439 80.1708L124.254 77.8212L127.708 78.4976L129.203 81.7728L131.73 80.4556L129.488 75.4716H122.474L118.808 79.8504L118.345 95.4788L123.222 100Z" fill="white"/>
</g>
<defs>
<clipPath id="clip0_480_2392">
<rect width="180" height="180" fill="white"/>
</clipPath>
</defs>
</svg>
