<svg width="180" height="180" viewBox="0 0 180 180" fill="none" xmlns="http://www.w3.org/2000/svg">
<g clip-path="url(#clip0_486_4045)">
<rect width="180" height="180" fill="#4191CC"/>
<path d="M103.179 158.856L25.0117 37.4918C20.5776 30.6073 24.1894 21.4019 32.1221 19.3695L68.9023 9.94653C73.5182 8.76394 78.3965 10.4245 81.3323 14.1776L157.762 111.887C161.58 116.768 161.054 123.753 156.548 128.006L121.504 161.085C116.044 166.239 107.244 165.169 103.179 158.856Z" fill="#FCD07B"/>
<path d="M83.5 120L49.5 68L103.5 50L133.5 87.5L83.5 120Z" fill="#E6B173"/>
<circle cx="41.5" cy="27" r="3" fill="#EEB572"/>
<circle cx="104.5" cy="119" r="3" fill="#EEB572"/>
<circle cx="52.5" cy="42" r="3" fill="#EEB572"/>
<circle cx="119.5" cy="140" r="3" fill="#EEB572"/>
<circle cx="65.5" cy="21" r="3" fill="#EEB572"/>
<circle cx="128.5" cy="104" r="3" fill="#EEB572"/>
<circle cx="76.5" cy="36" r="3" fill="#EEB572"/>
<circle cx="139.5" cy="119" r="3" fill="#EEB572"/>
<path d="M11.028 76.0608L15.2256 90H20.0568L11.7012 62.5176H7.26598L2.39518 90H4.88998L6.98878 76.0212L11.028 76.0608ZM8.37478 66.7548L10.4736 74.2788L7.26598 74.16L8.37478 66.7548ZM23.8042 62.8344L22.9726 90H33.1894L36.1198 87.7032L36.397 76.734L32.7934 74.358L35.8822 67.0716L33.427 62.9532L23.8042 62.8344ZM33.5854 78.4368L33.3874 85.8024L31.051 87.5052L27.2494 87.1488L27.289 76.8924L30.9322 76.2984L33.5854 78.4368ZM29.5066 74.2392L27.289 74.6748L27.3286 65.3292L30.8926 65.2896L32.3578 67.4676L29.5066 74.2392ZM55.2757 90L57.9685 89.4456L50.0485 62.5176H46.4053L38.0893 89.3268L41.9701 90.396L44.4649 80.8524L52.3057 80.1792L55.2757 90ZM48.3457 66.9924L51.7513 78.318L45.0193 78.714L48.3457 66.9924ZM77.3041 89.9604L77.3437 62.7156H73.0669L72.9481 75.6252L64.0381 75.4272L64.1173 62.7156H60.9097L61.3849 89.9604H63.9193L64.0381 77.4864H72.9481L72.7897 89.9604H77.3041ZM95.6847 62.5572L79.9635 63.468L80.1219 65.6856H86.1807L85.6659 89.8812L89.0715 89.406L90.2595 65.6856L95.5263 65.7648L95.6847 62.5572ZM103.813 62.9136H100.13L98.1894 90H101.318L102.427 77.6844L107.02 78.12L106.941 85.0104L109.792 90H115.851L118.227 85.1688L118.504 67.8636L113.99 62.874H109.317L107.179 67.7052L107.06 75.2688L102.664 75.3876L103.813 62.9136ZM110.426 86.1588L108.921 82.0404L109.357 68.0616L111.337 64.9728L115.099 68.2992L114.703 83.2284L113.396 86.1588H110.426ZM125.573 78.8724L135.869 78.6744L139.394 75.7044L139.433 67.0716L135.671 62.9136H122.089V90H125.455L125.573 78.8724ZM125.573 76.4964L125.692 65.7252L133.454 66.2004L136.345 68.3388L135.592 74.2392L133.731 76.4172L125.573 76.4964ZM159.43 90.0792L158.44 62.9928L155.074 62.7948L145.847 81.8424L146.362 62.874H142.006L141.966 89.7228L144.58 89.8416L154.678 69.0516L155.232 90.0792H159.43ZM168.401 90H176.242L178.578 84.9708L175.568 83.466L174.024 86.832L169.549 86.6736L166.738 83.1492L167.53 67.9428L169.549 65.3292L173.39 66.0816L175.054 69.7248L177.865 68.2596L175.37 62.7156H167.569L163.49 67.5864L162.976 84.9708L168.401 90ZM77.4123 102.557L61.6911 103.468L61.8495 105.686H67.9083L67.3935 129.881L70.7991 129.406L71.9871 105.686L77.2539 105.765L77.4123 102.557ZM85.263 114.754L93.0246 130.119L96.9846 128.733L86.9262 113.13L95.3214 105.131L93.1434 102.914L84.9858 112.536H84.1542L84.2334 102.953L80.2734 102.755L79.917 130.158L83.8374 129.96L83.9562 114.912L85.263 114.754ZM115.468 130L118.161 129.446L110.241 102.518H106.598L98.2821 129.327L102.163 130.396L104.658 120.852L112.498 120.179L115.468 130ZM108.538 106.992L111.944 118.318L105.212 118.714L108.538 106.992Z" fill="white"/>
</g>
<defs>
<clipPath id="clip0_486_4045">
<rect width="180" height="180" fill="white"/>
</clipPath>
</defs>
</svg>
