<svg width="180" height="180" viewBox="0 0 180 180" fill="none" xmlns="http://www.w3.org/2000/svg">
<g clip-path="url(#clip0_492_3127)">
<rect width="180" height="180" fill="#D76950"/>
<path d="M57.5 164.5L174.5 105L93.5 90.5L57.5 164.5Z" fill="#FFBE3F"/>
<path d="M128 15L11 74.5L92 89L128 15Z" fill="#FFBE3F"/>
<path d="M56 160.5L13 77.5L90.5 91L56 160.5Z" fill="#E3A223"/>
<path d="M131.5 18L174.5 101L97 87.5L131.5 18Z" fill="#E3A223"/>
<path d="M50.8593 86.4688L54.6329 99H58.6201L51.1085 74.2936H47.4773L43.0985 99H45.3413L47.2281 86.4332L50.8593 86.4688ZM48.4741 78.1028L50.3609 84.8668L47.4773 84.76L48.4741 78.1028ZM68.2274 76.9636L68.5122 74.5072L60.1818 74.6852L60.3954 76.5364L62.745 76.6788L63.2078 97.2556L60.8582 97.398L61.143 99.1068L67.907 99.0356L68.2986 96.864L65.6642 97.0776L66.0558 76.8568L68.2274 76.9636ZM75.2031 88.5692L79.0479 99.178L81.5755 99L77.4103 88.3556L79.7599 88.32L81.5755 85.8636V77.5688L79.4039 74.614H71.7143V99H74.4911L74.1707 88.6404L75.2031 88.5692ZM73.7435 76.7856H77.6951L79.2971 78.6724L79.1903 84.5108L77.8375 85.8636L74.0639 86.006L73.7435 76.7856ZM99.5932 74.258L95.784 74.6852L92.6868 83.87L88.9132 74.5072L84.748 74.6496L83.5732 98.9644L86.9908 99.1424L87.0264 79.1352L90.622 87.8928L93.2564 88.2132L96.7096 79.6692L96.9944 98.8932C96.9944 98.8932 100.163 98.8932 100.732 98.8576L99.5932 74.258ZM105.763 74.1512L102.061 98.7152L105.051 98.8932L106.796 88.0708L109.822 87.8572L111.78 98.7152L114.165 98.9644L109.715 74.1512H105.763ZM107.081 86.5044L108.291 79.4912L109.573 86.3264L107.081 86.5044ZM123.783 76.9636L124.068 74.5072L115.737 74.6852L115.951 76.5364L118.3 76.6788L118.763 97.2556L116.414 97.398L116.698 99.1068L123.462 99.0356L123.854 96.864L121.22 97.0776L121.611 76.8568L123.783 76.9636ZM137.167 95.3688L130.403 96.2232L131.15 74.7564L127.27 74.4004L127.661 99.1424L137.594 99.2492L137.167 95.3688Z" fill="white"/>
</g>
<defs>
<clipPath id="clip0_492_3127">
<rect width="180" height="180" fill="white"/>
</clipPath>
</defs>
</svg>
