<svg width="180" height="180" viewBox="0 0 180 180" fill="none" xmlns="http://www.w3.org/2000/svg">
<g clip-path="url(#clip0_480_2079)">
<rect width="180" height="180" fill="#3EC26B"/>
<path d="M121.591 111.593C152.845 100.811 182.941 105.866 193.723 137.12C204.505 168.374 187.909 202.452 156.654 213.234C125.4 224.015 91.3225 207.419 80.5406 176.165C69.7587 144.91 90.3365 122.375 121.591 111.593Z" fill="#46932B"/>
<path d="M75.4598 22.0737C90.4834 32.6077 98.0129 47.7784 87.4789 62.802C76.9448 77.8256 56.2262 81.4651 41.2026 70.931C26.179 60.397 22.5395 39.6784 33.0736 24.6548C43.6077 9.63118 60.4362 11.5396 75.4598 22.0737Z" fill="#46932B"/>
<path d="M140.245 82.7143C129.412 83.0571 123.968 99.7143 122.6 108C118.661 99.0857 124.241 80.2857 127.524 72L140.245 82.7143Z" fill="#D56628"/>
<path d="M94.3463 21.1907C90.6258 16.3797 81.377 19.3096 77.2177 21.3759C79.9109 16.6943 90.1639 13.1315 94.9537 11.9353L94.3463 21.1907Z" fill="#D56628"/>
<path d="M35.156 56.4716H32.7708C28.7124 56.5784 25.9 60.1384 25.9 63.4848C25.9 67.0092 27.7868 69.1452 30.1008 69.8572C27.3952 73.9512 22.9452 80.2524 22.9452 80.288L25.9356 81.6764L32.5216 70.2844L32.3436 81H35.69L35.156 56.4716ZM28.036 63.734C28.036 61.0284 30.2076 58.3584 32.7352 58.2872L32.5572 68.3264C32.3792 68.362 32.2368 68.362 32.0944 68.362C29.7448 68.362 28.036 66.3328 28.036 63.734ZM50.6715 78.864V68.896L47.7879 66.404L42.7327 66.6176L42.8039 59.996L50.1375 59.5688L49.6391 56.4004H40.6679L39.9559 81H47.7879L50.6715 78.864ZM42.5191 78.4012L42.6971 68.4332L46.5063 68.2552L48.1083 69.964L48.0727 76.6924L46.8267 77.6892L42.5191 78.4012ZM61.4549 62.5592L66.2609 80.9644H69.7141L62.2381 56.5784H59.6393L51.8073 80.9644H54.7977L61.4549 62.5592ZM76.7198 81H80.9918L84.267 76.6212L84.6586 60.9572L80.3154 56.436H73.8718L70.8102 60.8148L70.4542 76.4788L76.7198 81ZM78.749 58.7144L81.0274 61.8828L80.3154 76.3008L78.037 78.5436L73.3734 75.1972L73.8362 60.7792L75.4026 58.6076L78.749 58.7144ZM98.5081 56.8988L95.3397 56.5784L95.0905 65.8344L90.0353 67.0448L88.6825 65.6564L89.9997 56.614L86.5821 56.4716L85.9057 66.938L89.5725 69.8572L95.0193 67.9704L94.6989 80.5372L97.7961 81.0712L98.5081 56.8988ZM117.516 80.9644L117.551 56.4716H113.707L113.6 68.0772L105.59 67.8992L105.661 56.4716H102.777L103.205 80.9644H105.483L105.59 69.7504H113.6L113.457 80.9644H117.516ZM121.829 56.8276L122.897 79.0776L125.211 81H131.192L132.794 77.6536L132.117 69.252L129.625 66.4752L125.852 66.1904L125.425 56.5784L121.829 56.8276ZM139.522 56.5784L135.464 56.5784L135.749 81H138.632L139.522 56.5784ZM128.842 68.6112L129.661 69.9284L130.302 77.4756L129.554 79.1844L126.421 78.8284L125.959 68.362L128.842 68.6112ZM153.27 50.4908C152.238 51.3096 151.312 51.6656 150.422 51.6656C149.141 51.6656 147.93 50.9892 146.542 50.028L144.904 52.2352C146.293 53.4812 147.895 54.0508 149.426 54.0508C151.241 54.0508 152.95 53.2676 154.125 51.986L153.27 50.4908ZM155.3 81L154.41 56.4004H152.096L147.61 74.0936L147.717 56.5072L143.801 56.436L145.581 81H147.93L152.452 62.7372L153.448 81H155.3ZM66.7641 106.996L76.0201 106.818L79.1885 104.148L79.2241 96.3876L75.8421 92.6496H63.6313V117H66.6573L66.7641 106.996ZM66.7641 104.86L66.8709 95.1772L73.8485 95.6044L76.4473 97.5268L75.7709 102.831L74.0977 104.789L66.7641 104.86ZM88.1577 117H92.4297L95.7049 112.621L96.0965 96.9572L91.7533 92.436H85.3097L82.2481 96.8148L81.8921 112.479L88.1577 117ZM90.1869 94.7144L92.4653 97.8828L91.7533 112.301L89.4749 114.544L84.8113 111.197L85.2741 96.7792L86.8405 94.6076L90.1869 94.7144ZM107.561 101.514L100.939 92.5072L99.6932 93.0412L98.198 117L100.975 117.32L101.616 98.7372L107.24 106.071L113.898 98.844L114.538 117.036L117.636 116.858L116.959 93.7176L115.108 92.5072L107.561 101.514Z" fill="white"/>
</g>
<defs>
<clipPath id="clip0_480_2079">
<rect width="180" height="180" fill="white"/>
</clipPath>
</defs>
</svg>
