<svg width="180" height="180" viewBox="0 0 180 180" fill="none" xmlns="http://www.w3.org/2000/svg">
<g clip-path="url(#clip0_486_3929)">
<rect width="180" height="180" fill="#0A9A3B"/>
<path fill-rule="evenodd" clip-rule="evenodd" d="M77.3322 14.797C84.0719 4.68735 97.7311 1.95552 107.841 8.69528C121.503 17.8035 140.331 35.6068 146.175 59.789C149.27 72.5985 148.549 86.7397 141.904 100.838C135.419 114.598 123.985 126.879 108.049 137.769C78.0823 158.247 61.4552 186.348 57.7876 210.132C54.2345 233.173 62.433 250.238 80.6731 258.464C108.768 271.134 128.724 292.08 142.151 312.215C155.506 332.242 163.202 352.643 166.265 366.311C168.922 378.167 161.465 389.933 149.609 392.59C137.753 395.248 125.988 387.791 123.33 375.935C121.44 367.499 115.874 352.117 105.544 336.626C95.2857 321.243 81.1347 306.939 62.5844 298.573C22.518 280.504 8.42287 241.549 14.3016 203.426C20.066 166.045 44.5965 127.837 83.2251 101.441C94.7274 93.5807 99.8708 86.817 102.103 82.0801C104.176 77.6813 104.312 73.8733 103.406 70.1245C101.247 61.1902 92.6369 51.4408 83.4339 45.3055C73.3243 38.5657 70.5924 24.9066 77.3322 14.797Z" fill="#E6AB9F"/>
<path d="M77.5002 158.5C62.3002 162.9 45.5002 153.333 39.0002 148L33.0002 158.5C31.0002 166.9 57.5002 170 71.0002 170.5L77.5002 158.5Z" fill="#DA9A8D"/>
<path d="M81.5 155C71.5 157.8 52.3333 148.167 44 143L47 139C58.1998 148.6 76.9999 150.333 85 150L81.5 155Z" fill="#DA9A8D"/>
<path d="M110 133.5C100 133.5 84.1668 120.5 77.5002 114L88 107C88 113.4 108 122.667 118 126.5L110 133.5Z" fill="#DA9A8D"/>
<path d="M120.5 122.5C105.3 120.9 95.1667 109.167 92 103.5L94.5 100.5C96.5 105.7 115.667 114 125 117.5L120.5 122.5Z" fill="#DA9A8D"/>
<path d="M140.5 93L104.5 83.5C110.9 73.1 108.833 65.1667 107 62.5L140.5 56.5C146.9 70.5 143.167 86.6667 140.5 93Z" fill="#DA9A8D"/>
<path d="M35.156 56.4716H32.7708C28.7124 56.5784 25.9 60.1384 25.9 63.4848C25.9 67.0092 27.7868 69.1452 30.1008 69.8572C27.3952 73.9512 22.9452 80.2524 22.9452 80.288L25.9356 81.6764L32.5216 70.2844L32.3436 81H35.69L35.156 56.4716ZM28.036 63.734C28.036 61.0284 30.2076 58.3584 32.7352 58.2872L32.5572 68.3264C32.3792 68.362 32.2368 68.362 32.0944 68.362C29.7448 68.362 28.036 66.3328 28.036 63.734ZM50.6715 78.864V68.896L47.7879 66.404L42.7327 66.6176L42.8039 59.996L50.1375 59.5688L49.6391 56.4004H40.6679L39.9559 81H47.7879L50.6715 78.864ZM42.5191 78.4012L42.6971 68.4332L46.5063 68.2552L48.1083 69.964L48.0727 76.6924L46.8267 77.6892L42.5191 78.4012ZM61.4549 62.5592L66.2609 80.9644H69.7141L62.2381 56.5784H59.6393L51.8073 80.9644H54.7977L61.4549 62.5592ZM76.7198 81H80.9918L84.267 76.6212L84.6586 60.9572L80.3154 56.436H73.8718L70.8102 60.8148L70.4542 76.4788L76.7198 81ZM78.749 58.7144L81.0274 61.8828L80.3154 76.3008L78.037 78.5436L73.3734 75.1972L73.8362 60.7792L75.4026 58.6076L78.749 58.7144ZM98.5081 56.8988L95.3397 56.5784L95.0905 65.8344L90.0353 67.0448L88.6825 65.6564L89.9997 56.614L86.5821 56.4716L85.9057 66.938L89.5725 69.8572L95.0193 67.9704L94.6989 80.5372L97.7961 81.0712L98.5081 56.8988ZM117.516 80.9644L117.551 56.4716H113.707L113.6 68.0772L105.59 67.8992L105.661 56.4716H102.777L103.205 80.9644H105.483L105.59 69.7504H113.6L113.457 80.9644H117.516ZM121.829 56.8276L122.897 79.0776L125.211 81H131.192L132.794 77.6536L132.117 69.252L129.625 66.4752L125.852 66.1904L125.425 56.5784L121.829 56.8276ZM139.522 56.5784L135.464 56.5784L135.749 81H138.632L139.522 56.5784ZM128.842 68.6112L129.661 69.9284L130.302 77.4756L129.554 79.1844L126.421 78.8284L125.959 68.362L128.842 68.6112ZM153.27 50.4908C152.238 51.3096 151.312 51.6656 150.422 51.6656C149.141 51.6656 147.93 50.9892 146.542 50.028L144.904 52.2352C146.293 53.4812 147.895 54.0508 149.426 54.0508C151.241 54.0508 152.95 53.2676 154.125 51.986L153.27 50.4908ZM155.3 81L154.41 56.4004H152.096L147.61 74.0936L147.717 56.5072L143.801 56.436L145.581 81H147.93L152.452 62.7372L153.448 81H155.3ZM33.1268 117H40.1756L42.276 112.479L39.5704 111.126L38.182 114.152L34.1592 114.01L31.6316 110.841L32.3436 97.1708L34.1592 94.8212L37.6124 95.4976L39.1076 98.7728L41.6352 97.4556L39.3924 92.4716H32.3792L28.7124 96.8504L28.2496 112.479L33.1268 117ZM50.0173 92.6496H46.7065L44.9621 117H47.7745L48.7713 105.928L52.9009 106.32L52.8297 112.514L55.3929 117H60.8397L62.9757 112.657L63.2249 97.0996L59.1665 92.614H54.9657L53.0433 96.9572L52.9365 103.757L48.9849 103.864L50.0173 92.6496ZM55.9625 113.547L54.6097 109.844L55.0013 97.2776L56.7813 94.5008L60.1633 97.4912L59.8073 110.912L58.6325 113.547H55.9625ZM69.5801 106.996L78.8361 106.818L82.0045 104.148L82.0401 96.3876L78.6581 92.6496H66.4473V117H69.4733L69.5801 106.996ZM69.5801 104.86L69.6869 95.1772L76.6645 95.6044L79.2633 97.5268L78.5869 102.831L76.9137 104.789L69.5801 104.86ZM87.3784 94.2516H95.6376V117.214L99.6604 116.751V92.5072H85.3492L84.3168 93.2192V117H87.3784V94.2516ZM107.057 106.996L116.313 106.818L119.482 104.148L119.517 96.3876L116.135 92.6496H103.925V117H106.951L107.057 106.996ZM107.057 104.86L107.164 95.1772L114.142 95.6044L116.741 97.5268L116.064 102.831L114.391 104.789L107.057 104.86ZM137.494 117.071L136.604 92.7208L133.578 92.5428L125.283 109.666L125.746 92.614H121.83L121.794 116.751L124.144 116.858L133.222 98.1676L133.72 117.071H137.494ZM139.649 116.537L149.973 116.822L151.896 108.883L151.29 106.356L147.624 104.077L150.187 101.728L151.148 94.6432L147.196 92.6496L140.539 94.3584L141.5 97.3844L145.844 95.0348L147.588 95.8892L147.552 100.838L145.559 103.365H142.284V105.537L145.274 105.608L148.549 108.492L147.268 114.579L140.112 113.404L139.649 116.537Z" fill="white"/>
</g>
<defs>
<clipPath id="clip0_486_3929">
<rect width="180" height="180" fill="white"/>
</clipPath>
</defs>
</svg>
