<svg width="180" height="180" viewBox="0 0 180 180" fill="none" xmlns="http://www.w3.org/2000/svg">
<g clip-path="url(#clip0_480_2072)">
<rect width="180" height="180" fill="#8F2E17"/>
<path d="M25.1293 104.353L51.728 126.096C63.9626 136.36 69.5117 134.477 79.7957 135.176L113.026 138.044L144.592 131.44L137.162 113.796L127.941 108.186L152.133 108.129L170.043 95.0048L137.33 79.1664L120.203 73.6258L130.585 49.6577L124.036 6.54894L85.5032 29.8178L74.352 56.1645L59.5065 40.326L43.9055 28.4471L35.5946 54.1362L31.817 73.9347L11.179 64.6303L25.1293 104.353Z" fill="#FF6D3F"/>
<path d="M38.8089 77.7604C35.1065 77.7604 34.0741 72.812 34.0741 68.4688C34.0741 64.2324 35.6049 58.6432 39.0581 58.6432C42.0841 58.6432 43.9353 63.4136 43.9353 68.362C43.9353 73.2392 42.2265 77.7604 38.8089 77.7604ZM38.8445 81.2136C44.2913 81.2136 46.9257 74.8412 46.9257 68.5044C46.9257 62.31 44.3981 56.1512 39.4141 56.1512C33.5757 56.1512 31.7601 64.1612 31.7601 68.9316C31.7601 74.4496 33.3265 81.2136 38.8445 81.2136ZM53.9166 81H60.9654L63.0658 76.4788L60.3602 75.126L58.9718 78.152L54.949 78.0096L52.4214 74.8412L53.1334 61.1708L54.949 58.8212L58.4022 59.4976L59.8974 62.7728L62.425 61.4556L60.1822 56.4716H53.169L49.5022 60.8504L49.0394 76.4788L53.9166 81ZM68.2796 60.2096L75.542 59.818V56.6496H66.2504L65.752 81H75.542V77.974L67.7812 77.2976L67.9948 69.5724L73.7976 70.3556V67.7568H68.066L68.2796 60.2096ZM92.4845 80.9644L92.5201 56.4716H88.6753L88.5685 68.0772L80.5585 67.8992L80.6297 56.4716H77.7461L78.1733 80.9644H80.4517L80.5585 69.7504H88.5685L88.4261 80.9644H92.4845ZM111.536 80.9644L111.572 56.4716H107.727L107.62 68.0772L99.6101 67.8992L99.6813 56.4716H96.7977L97.2249 80.9644H99.5033L99.6101 69.7504H107.62L107.478 80.9644H111.536ZM131.549 81.0712L130.659 56.7208L127.633 56.5428L119.338 73.6664L119.801 56.614H115.885L115.849 80.7508L118.199 80.8576L127.277 62.1676L127.775 81.0712H131.549ZM145.274 50.4908C144.242 51.3096 143.316 51.6656 142.426 51.6656C141.145 51.6656 139.934 50.9892 138.546 50.028L136.908 52.2352C138.297 53.4812 139.899 54.0508 141.43 54.0508C143.245 54.0508 144.954 53.2676 146.129 51.986L145.274 50.4908ZM147.304 81L146.414 56.4004H144.1L139.614 74.0936L139.721 56.5072L135.805 56.436L137.585 81H139.934L144.456 62.7372L145.452 81H147.304ZM74.938 112.158L81.9512 110.877L84.8348 101.977L81.0256 95.462L75.2228 94.1448L75.294 91.6884H72.1256L72.0544 94.216L64.97 94.6076L62.0152 104.148L64.5784 110.806L71.7696 112.479L71.6984 117H74.8312L74.938 112.158ZM71.8052 109.88L67.3552 108.99L65.504 103.33L67.3552 96.708L72.0188 96.2096L71.8052 109.88ZM81.0968 102.297L79.4948 108.741L74.9736 110.2L75.1872 96.7436L78.32 97.0284L81.0968 102.297ZM103.337 117.071L102.447 92.7208L99.4205 92.5428L91.1257 109.666L91.5885 92.614H87.6725L87.6369 116.751L89.9865 116.858L99.0645 98.1676L99.5629 117.071H103.337ZM105.492 116.537L115.816 116.822L117.738 108.883L117.133 106.356L113.466 104.077L116.03 101.728L116.991 94.6432L113.039 92.6496L106.382 94.3584L107.343 97.3844L111.686 95.0348L113.431 95.8892L113.395 100.838L111.402 103.365H108.126V105.537L111.117 105.608L114.392 108.492L113.11 114.579L105.955 113.404L105.492 116.537Z" fill="white"/>
<path d="M69.1449 152.82C50.3449 143.62 51.9782 123.986 55.1449 115.32C43.9449 123.32 44.8114 152.653 46.6447 166.32L69.1449 152.82Z" fill="#FF6D3F"/>
</g>
<defs>
<clipPath id="clip0_480_2072">
<rect width="180" height="180" fill="white"/>
</clipPath>
</defs>
</svg>
