<svg width="180" height="180" viewBox="0 0 180 180" fill="none" xmlns="http://www.w3.org/2000/svg">
<g clip-path="url(#clip0_486_4005)">
<rect width="180" height="180" fill="#713FFF"/>
<path d="M94.2861 122.5L56.7861 96.5L94.2861 5L163.286 35.5L94.2861 122.5Z" fill="#511AC0"/>
<path d="M38.3149 77.3884L45.7201 76.7152L45.4429 73.0324L35.8993 73.072L35.4637 100H38.0773L38.3149 77.3884ZM53.8514 100H58.6034L62.2466 95.1292L62.6822 77.7052L57.851 72.676H50.6834L47.2778 77.5468L46.8818 94.9708L53.8514 100ZM56.1086 75.2104L58.643 78.7348L57.851 94.7728L55.3166 97.2676L50.129 93.5452L50.6438 77.5072L52.3862 75.0916L56.1086 75.2104ZM69.6926 88.8724L79.9886 88.6744L83.513 85.7044L83.5526 77.0716L79.7906 72.9136H66.2078V100H69.5738L69.6926 88.8724ZM69.6926 86.4964L69.8114 75.7252L77.573 76.2004L80.4638 78.3388L79.7114 84.2392L77.8502 86.4172L69.6926 86.4964ZM92.1439 72.7156H87.7879L86.0851 100H94.8763L100.896 96.04L101.173 88.0804L97.9651 84.556L91.3123 86.14L92.1439 72.7156ZM96.3019 87.8032L97.9651 89.5456L97.7275 94.4956L92.8567 97.624L90.6787 97.1884L91.1935 88.9912L96.3019 87.8032ZM109.143 84.754L116.904 100.119L120.864 98.7328L110.806 83.1304L119.201 75.1312L117.023 72.9136L108.866 82.5364H108.034L108.113 72.9532L104.153 72.7552L103.797 100.158L107.717 99.9604L107.836 84.9124L109.143 84.754ZM127.637 100H132.389L136.032 95.1292L136.468 77.7052L131.637 72.676H124.469L121.064 77.5468L120.668 94.9708L127.637 100ZM129.894 75.2104L132.429 78.7348L131.637 94.7728L129.102 97.2676L123.915 93.5452L124.43 77.5072L126.172 75.0916L129.894 75.2104ZM140.39 98.4556C140.39 99.7624 141.459 100.634 142.766 100.634C144.548 100.634 145.498 99.208 145.498 97.9012C145.498 96.5548 144.31 95.8024 143.083 95.8024C141.736 95.8024 140.39 96.634 140.39 98.4556ZM141.419 91.288L143.954 91.3276L145.063 71.9236L141.419 71.488L140.865 71.8444L141.419 91.288Z" fill="white"/>
<path d="M83.7861 137.5C72.1861 137.5 55.2861 123.167 48.2861 116L54.7861 99.5L93.7861 125C90.4528 128.167 83.7861 135.1 83.7861 137.5Z" fill="#FFBE3F"/>
<rect x="43.9985" y="127" width="6" height="7" transform="rotate(5.84026 43.9985 127)" fill="#FFBE3F"/>
<rect x="61.165" y="140.681" width="3.33714" height="3.89333" transform="rotate(5.84026 61.165 140.681)" fill="#FFBE3F"/>
<rect x="38" y="150.294" width="9.57778" height="11.1741" transform="rotate(-9.17831 38 150.294)" fill="#FFBE3F"/>
<rect x="54.2861" y="168.699" width="9.57778" height="11.1741" transform="rotate(-53.4981 54.2861 168.699)" fill="#FFBE3F"/>
</g>
<defs>
<clipPath id="clip0_486_4005">
<rect width="180" height="180" fill="white"/>
</clipPath>
</defs>
</svg>
