<svg width="180" height="180" viewBox="0 0 180 180" fill="none" xmlns="http://www.w3.org/2000/svg">
<g clip-path="url(#clip0_461_2157)">
<rect width="180" height="180" fill="#242320"/>
<path fill-rule="evenodd" clip-rule="evenodd" d="M90 35C53.8268 35 40.9278 39.3333 39 41.5C39 41.5 38.7535 41.7256 38.7535 41.7923C34.1069 52.7693 30.0228 78.5786 50.859 94C48.0705 82.7335 46.5149 61.1539 57.4503 49.8315L60 56.5H122L125.056 51.5518C134.331 63.2261 132.794 83.2808 130.141 94C150.977 78.5786 146.893 52.7693 142.247 41.7923C142.083 41.7487 141.92 41.706 141.758 41.6642L142 41.5C140.034 39.3333 126.882 35 90 35Z" fill="#A71919"/>
<path fill-rule="evenodd" clip-rule="evenodd" d="M90.7658 152C109.993 152 116.849 149.723 117.874 148.585C117.874 148.585 118.005 148.466 118.005 148.431C120.475 142.664 122.646 129.103 111.57 121C113.053 126.92 113.879 138.258 108.067 144.207L106.712 140.703L73.7568 140.703L72.1323 143.303C67.2024 137.169 68.0194 126.632 69.4296 121C58.3544 129.103 60.5253 142.664 62.9951 148.431C63.082 148.454 63.1685 148.477 63.2548 148.498L63.1261 148.585C64.1709 149.723 71.1616 152 90.7658 152Z" fill="#A71919"/>
<path d="M27.0788 52.676L23.198 61.2296V52.676H19.5152L19.3568 80.0792H23.1188L23.1584 67.7636L28.8212 80.0792L32.2664 78.218L23.9504 64.6352L29.0192 54.2204L27.0788 52.676ZM38.0783 68.8724L48.3743 68.6744L51.8987 65.7044L51.9383 57.0716L48.1763 52.9136H34.5935V80H37.9595L38.0783 68.8724ZM38.0783 66.4964L38.1971 55.7252L45.9587 56.2004L48.8495 58.3388L48.0971 64.2392L46.2359 66.4172L38.0783 66.4964ZM61.8758 80H66.6278L70.271 75.1292L70.7066 57.7052L65.8754 52.676H58.7078L55.3022 57.5468L54.9062 74.9708L61.8758 80ZM64.133 55.2104L66.6674 58.7348L65.8754 74.7728L63.341 77.2676L58.1534 73.5452L58.6682 57.5072L60.4106 55.0916L64.133 55.2104ZM75.0638 52.8344L74.2322 80H84.449L87.3794 77.7032L87.6566 66.734L84.053 64.358L87.1418 57.0716L84.6866 52.9532L75.0638 52.8344ZM84.845 68.4368L84.647 75.8024L82.3106 77.5052L78.509 77.1488L78.5486 66.8924L82.1918 66.2984L84.845 68.4368ZM80.7662 64.2392L78.5486 64.6748L78.5882 55.3292L82.1522 55.2896L83.6174 57.4676L80.7662 64.2392ZM106.535 80L109.228 79.4456L101.308 52.5176H97.6649L89.3489 79.3268L93.2297 80.396L95.7245 70.8524L103.565 70.1792L106.535 80ZM99.6053 56.9924L103.011 68.318L96.2789 68.714L99.6053 56.9924ZM113.001 52.8344L112.169 80H122.386L125.317 77.7032L125.594 66.734L121.99 64.358L125.079 57.0716L122.624 52.9532L113.001 52.8344ZM122.782 68.4368L122.584 75.8024L120.248 77.5052L116.446 77.1488L116.486 66.8924L120.129 66.2984L122.782 68.4368ZM118.703 64.2392L116.486 64.6748L116.525 55.3292L120.089 55.2896L121.555 57.4676L118.703 64.2392ZM144.472 80L147.165 79.4456L139.245 52.5176L135.602 52.5176L127.286 79.3268L131.167 80.396L133.662 70.8524L141.502 70.1792L144.472 80ZM137.542 56.9924L140.948 68.318L134.216 68.714L137.542 56.9924ZM158.154 68.12L157.679 80H160.808V52.874H151.185L148.769 56.1608V65.3876L150.789 68.12H153.204L148.611 79.406L151.977 80.396L156.412 68.12H158.154ZM158.154 65.546H153.204L151.7 63.8828V57.3884L153.363 55.2896H158.154V65.546ZM50.4007 120.317L53.7271 97.2696L59.5879 111.486H62.0827L68.6959 98.3388L70.8343 120.277L75.0319 119.96L72.1807 93.468L68.8543 92.9928L60.8947 108.595L54.5191 92.9136L51.6283 93.3096L46.3219 119.723L50.4007 120.317ZM76.8607 120.238L87.9091 119.366L91.7899 105.15L90.7207 98.9328L87.5923 92.2404L77.6923 93.9828L79.1971 97.9824L85.4539 95.7252L87.7507 99.5664L88.4239 104.358L79.5139 103.962L79.6327 107.209L88.5823 106.972L85.5331 116.872L76.9795 116.119L76.8607 120.238ZM98.8318 108.872L109.128 108.674L112.652 105.704L112.692 97.0716L108.93 92.9136H95.347V120H98.713L98.8318 108.872ZM98.8318 106.496L98.9506 95.7252L106.712 96.2004L109.603 98.3388L108.851 104.239L106.989 106.417L98.8318 106.496ZM132.688 120.079L131.698 92.9928L128.332 92.7948L119.105 111.842L119.62 92.874H115.264L115.224 119.723L117.838 119.842L127.936 99.0516L128.49 120.079H132.688Z" fill="white"/>
</g>
<defs>
<clipPath id="clip0_461_2157">
<rect width="180" height="180" fill="white"/>
</clipPath>
</defs>
</svg>
