<svg width="180" height="180" viewBox="0 0 180 180" fill="none" xmlns="http://www.w3.org/2000/svg">
<g clip-path="url(#clip0_461_2167)">
<rect width="180" height="180" fill="#F0C3E9"/>
<path d="M86 147C-6.00001 147 8.33333 64.5 -7 74.5C-9.66667 82.5 -18 192.958 -18 195.358C-18 197.758 126.667 186.691 199 180.858V96.858C194.333 79.358 177.6 40.458 148 24.858C111 5.358 71 29 58.5 58.5C48.5 82.1 55.6667 102.358 64 104.858C66.1667 92.858 77.5578 65.8894 105.5 67.858C143 70.5 145.71 147 86 147Z" fill="#71C3FF"/>
<path d="M36.652 57.3884L44.0572 56.7152L43.78 53.0324L34.2364 53.072L33.8008 80H36.4144L36.652 57.3884ZM52.1885 80H56.9405L60.5837 75.1292L61.0193 57.7052L56.1881 52.676H49.0205L45.6149 57.5468L45.2189 74.9708L52.1885 80ZM54.4457 55.2104L56.9801 58.7348L56.1881 74.7728L53.6537 77.2676L48.4661 73.5452L48.9809 57.5072L50.7233 55.0916L54.4457 55.2104ZM73.4549 59.4872L78.8009 79.9604H82.6421L74.3261 52.8344H71.4353L62.7233 79.9604H66.0497L73.4549 59.4872ZM86.3753 78.7724L89.5037 80L97.0673 52.874H93.6617L90.2957 64.8332L86.6525 52.676L83.9993 53.5472L89.0681 69.2288L86.3753 78.7724ZM111.579 77.624V66.536L108.371 63.764L102.748 64.0016L102.827 56.636L110.985 56.1608L110.43 52.6364H100.451L99.659 80H108.371L111.579 77.624ZM102.51 77.1092L102.708 66.0212L106.945 65.8232L108.727 67.724L108.688 75.2084L107.302 76.3172L102.51 77.1092ZM130.028 80L132.721 79.4456L124.801 52.5176H121.158L112.842 79.3268L116.723 80.396L119.218 70.8524L127.058 70.1792L130.028 80ZM123.098 56.9924L126.504 68.318L119.772 68.714L123.098 56.9924ZM143.711 68.12L143.235 80H146.364V52.874H136.741L134.325 56.1608V65.3876L136.345 68.12H138.761L134.167 79.406L137.533 80.396L141.968 68.12H143.711ZM143.711 65.546H138.761L137.256 63.8828V57.3884L138.919 55.2896H143.711V65.546ZM44.683 99.4872L50.029 119.96H53.8702L45.5542 92.8344H42.6634L33.9514 119.96H37.2778L44.683 99.4872ZM72.5234 120L75.2162 119.446L67.2962 92.5176H63.653L55.337 119.327L59.2178 120.396L61.7126 110.852L69.5534 110.179L72.5234 120ZM65.5934 96.9924L68.999 108.318L62.267 108.714L65.5934 96.9924ZM81.9194 95.7252L89.4434 95.844L89.7206 92.9136H78.1574V120.158H82.5134L81.9194 95.7252ZM93.6843 118.772L96.8127 120L104.376 92.874H100.971L97.6047 104.833L93.9615 92.676L91.3083 93.5472L96.3771 109.229L93.6843 118.772ZM123.362 119.96L123.402 92.7156H119.125L119.006 105.625L110.096 105.427L110.176 92.7156H106.968L107.443 119.96H109.978L110.096 107.486H119.006L118.848 119.96H123.362ZM143.525 120L146.218 119.446L138.298 92.5176H134.655L126.339 119.327L130.219 120.396L132.714 110.852L140.555 110.179L143.525 120ZM136.595 96.9924L140.001 108.318L133.269 108.714L136.595 96.9924Z" fill="white"/>
</g>
<defs>
<clipPath id="clip0_461_2167">
<rect width="180" height="180" fill="white"/>
</clipPath>
</defs>
</svg>
