<svg width="180" height="180" viewBox="0 0 180 180" fill="none" xmlns="http://www.w3.org/2000/svg">
<g clip-path="url(#clip0_480_2381)">
<rect width="180" height="180" fill="#1F6981"/>
<path d="M29.0001 53C86.9996 119.367 134.795 80.653 151.444 53C155.74 98.3038 127.518 146.386 76.5 130.5C35.6855 117.791 30.4322 74.3771 29.0001 53Z" fill="#709DBD"/>
<path d="M21.1651 98.8932C21.9483 98.9644 23.7995 99 24.5115 99C30.4923 99 33.3403 96.2232 33.3403 92.0224C33.3403 88.142 30.7059 85.1872 25.6151 85.0804L25.9355 76.7144L32.8419 76.5364L33.2335 74.4716L22.4111 74.6852L21.1651 98.8932ZM26.3627 96.33C26.0067 96.33 25.6151 96.33 25.1879 96.2944L25.6151 86.9316C28.9259 87.074 30.8127 88.9608 30.8127 91.9156C30.8127 94.1584 29.4243 96.33 26.3627 96.33ZM39.2471 88.9964L48.5031 88.8184L51.6715 86.1484L51.7071 78.3876L48.3251 74.6496H36.1143V99H39.1403L39.2471 88.9964ZM39.2471 86.8604L39.3539 77.1772L46.3315 77.6044L48.9303 79.5268L48.2539 84.8312L46.5807 86.7892L39.2471 86.8604ZM56.5114 78.2096L63.7738 77.818V74.6496H54.4822L53.9838 99H63.7738V95.974L56.013 95.2976L56.2266 87.5724L62.0294 88.3556V85.7568H56.2978L56.5114 78.2096ZM67.9357 102.382L67.3661 98.9644H82.0333V102.24L84.0981 102.489L84.5609 97.8608L83.9557 96.864L80.9653 96.9352L78.0105 75.1836L76.9425 74.2224H73.8809L68.2205 97.1132L65.5861 97.1488L65.0521 97.932L65.6573 102.56L67.9357 102.382ZM74.9489 77.5332L77.3697 96.9708L70.7125 97.0776L74.9489 77.5332ZM91.5821 99H95.8541L99.1293 94.6212L99.5209 78.9572L95.1777 74.436H88.7341L85.6725 78.8148L85.3165 94.4788L91.5821 99ZM93.6113 76.7144L95.8897 79.8828L95.1777 94.3008L92.8993 96.5436L88.2357 93.1972L88.6985 78.7792L90.2649 76.6076L93.6113 76.7144ZM107.264 99H114.313L116.414 94.4788L113.708 93.126L112.32 96.152L108.297 96.0096L105.769 92.8412L106.481 79.1708L108.297 76.8212L111.75 77.4976L113.245 80.7728L115.773 79.4556L113.53 74.4716H106.517L102.85 78.8504L102.387 94.4788L107.264 99ZM123.906 85.294L130.883 99.1068L134.443 97.8608L125.401 83.8344L132.948 76.6432L130.99 74.6496L123.657 83.3004H122.909L122.98 74.6852L119.42 74.5072L119.1 99.1424L122.624 98.9644L122.731 85.4364L123.906 85.294ZM140.532 99H144.804L148.079 94.6212L148.471 78.9572L144.128 74.436H137.684L134.623 78.8148L134.267 94.4788L140.532 99ZM142.561 76.7144L144.84 79.8828L144.128 94.3008L141.849 96.5436L137.186 93.1972L137.649 78.7792L139.215 76.6076L142.561 76.7144ZM154.702 76.2516H162.961V99.2136L166.984 98.7508V74.5072H152.673L151.64 75.2192V99H154.702V76.2516Z" fill="white"/>
</g>
<defs>
<clipPath id="clip0_480_2381">
<rect width="180" height="180" fill="white"/>
</clipPath>
</defs>
</svg>
