<svg width="180" height="180" viewBox="0 0 180 180" fill="none" xmlns="http://www.w3.org/2000/svg">
<g clip-path="url(#clip0_486_4028)">
<rect width="180" height="180" fill="#6B291A"/>
<circle cx="151" cy="153" r="53" fill="#F0C3E9"/>
<circle cx="70" cy="126" r="20" fill="#F0C3E9"/>
<circle cx="110" cy="45" r="11" fill="#F0C3E9"/>
<circle cx="75" cy="-8" r="46" fill="#F0C3E9"/>
<path d="M34.7482 99.8812C35.6194 99.9604 37.6786 100 38.4706 100C45.1234 100 48.2914 96.9112 48.2914 92.2384C48.2914 87.922 45.361 84.6352 39.6982 84.5164L40.0546 75.2104L47.737 75.0124L48.1726 72.7156L36.1342 72.9532L34.7482 99.8812ZM40.5298 97.03C40.1338 97.03 39.6982 97.03 39.223 96.9904L39.6982 86.5756C43.381 86.734 45.4798 88.8328 45.4798 92.1196C45.4798 94.6144 43.9354 97.03 40.5298 97.03ZM54.8619 88.8724L65.1579 88.6744L68.6823 85.7044L68.7219 77.0716L64.9599 72.9136H51.3771V100H54.7431L54.8619 88.8724ZM54.8619 86.4964L54.9807 75.7252L62.7423 76.2004L65.6331 78.3388L64.8807 84.2392L63.0195 86.4172L54.8619 86.4964ZM84.5697 100L87.2625 99.4456L79.3425 72.5176H75.6993L67.3833 99.3268L71.2641 100.396L73.7589 90.8524L81.5997 90.1792L84.5697 100ZM77.6397 76.9924L81.0453 88.318L74.3133 88.714L77.6397 76.9924ZM99.4305 82.774L92.0649 72.7552L90.6789 73.3492L89.0157 100L92.1045 100.356L92.8173 79.6852L99.0741 87.8428L106.479 79.804L107.192 100.04L110.637 99.8416L109.885 74.1016L107.826 72.7552L99.4305 82.774ZM126.1 97.624V86.536L122.892 83.764L117.269 84.0016L117.348 76.636L125.506 76.1608L124.951 72.6364H114.972L114.18 100H122.892L126.1 97.624ZM117.031 97.1092L117.229 86.0212L121.467 85.8232L123.249 87.724L123.209 95.2084L121.823 96.3172L117.031 97.1092ZM138.095 79.4872L143.441 99.9604H147.282L138.966 72.8344H136.075L127.363 99.9604H130.69L138.095 79.4872Z" fill="white"/>
</g>
<defs>
<clipPath id="clip0_486_4028">
<rect width="180" height="180" fill="white"/>
</clipPath>
</defs>
</svg>
