<svg width="180" height="180" viewBox="0 0 180 180" fill="none" xmlns="http://www.w3.org/2000/svg">
<g clip-path="url(#clip0_480_1987)">
<rect width="180" height="180" fill="#3EC26B"/>
<path d="M3.5 185L57 148.5L93 169.5V185H3.5Z" fill="#304034"/>
<path d="M187.5 185.5L134 149L98 170V185.5H187.5Z" fill="#304034"/>
<path d="M94.1681 79.237C113.959 79.2772 129.986 88.0454 129.946 107.837C129.905 127.628 113.829 143.64 94.0371 143.599C74.2458 143.559 58.2343 127.482 58.2745 107.691C58.3148 87.8996 74.3767 79.1967 94.1681 79.237Z" fill="#478358"/>
<path d="M137.5 74C109.1 64.4 67 70 49.5 74L47 69.5L60.5 64V8.5L123 16.5L121 64C126.6 64.4 134.333 67.8333 137.5 69.5V74Z" fill="#304034"/>
<path d="M13.0362 38.436L9.54736 46.1256V38.436H6.23656L6.09416 63.0712H9.47616L9.51176 51.9996L14.6026 63.0712L17.6998 61.398L10.2238 49.1872L14.7806 39.8244L13.0362 38.436ZM33.6046 63L36.0254 62.5016L28.9054 38.2936H25.6302L18.1542 62.3948L21.643 63.356L23.8858 54.7764L30.9346 54.1712L33.6046 63ZM27.3746 42.3164L30.4362 52.498L24.3842 52.854L27.3746 42.3164ZM41.8024 52.9964L51.0584 52.8184L54.2267 50.1484L54.2624 42.3876L50.8804 38.6496H38.6696V63H41.6956L41.8024 52.9964ZM41.8024 50.8604L41.9092 41.1772L48.8867 41.6044L51.4856 43.5268L50.8092 48.8312L49.1359 50.7892L41.8024 50.8604ZM68.5093 63L70.9301 62.5016L63.8101 38.2936H60.5349L53.0589 62.3948L56.5477 63.356L58.7905 54.7764L65.8393 54.1712L68.5093 63ZM62.2793 42.3164L65.3409 52.498L59.2889 52.854L62.2793 42.3164ZM81.869 47.514L75.2474 38.5072L74.0014 39.0412L72.5062 63L75.283 63.3204L75.9238 44.7372L81.5486 52.0708L88.2058 44.844L88.8466 63.0356L91.9438 62.8576L91.2674 39.7176L89.4162 38.5072L81.869 47.514ZM97.6565 42.2096L104.919 41.818V38.6496H95.6273L95.1289 63H104.919V59.974L97.1581 59.2976L97.3717 51.5724L103.175 52.3556V49.7568H97.4429L97.6565 42.2096ZM116.246 44.5592L121.052 62.9644H124.505L117.029 38.5784H114.43L106.598 62.9644H109.588L116.246 44.5592ZM132.56 38.4716H128.644L127.113 63H135.016L140.428 59.44L140.677 52.2844L137.793 49.116L131.812 50.54L132.56 38.4716ZM136.298 52.0352L137.793 53.6016L137.58 58.0516L133.201 60.864L131.243 60.4724L131.706 53.1032L136.298 52.0352ZM157.774 62.9644L157.81 38.4716H153.965L153.858 50.0772L145.848 49.8992L145.92 38.4716H143.036L143.463 62.9644H145.742L145.848 51.7504H153.858L153.716 62.9644H157.774ZM167.25 63H171.522L174.797 58.6212L175.188 42.9572L170.845 38.436H164.402L161.34 42.8148L160.984 58.4788L167.25 63ZM169.279 40.7144L171.557 43.8828L170.845 58.3008L168.567 60.5436L163.903 57.1972L164.366 42.7792L165.932 40.6076L169.279 40.7144ZM18.9839 87.3232L26.9583 87.9996L27.3143 85.1872H18.9839V87.3232ZM38.8125 88.32L38.3853 99H41.1977V74.614H32.5469L30.3753 77.5688V85.8636L32.1909 88.32H34.3625L30.2329 98.466L33.2589 99.356L37.2461 88.32H38.8125ZM38.8125 86.006H34.3625L33.0097 84.5108V78.6724L34.5049 76.7856H38.8125V86.006ZM56.1992 96.864V86.896L53.3156 84.404L48.2604 84.6176L48.3316 77.996L55.6652 77.5688L55.1668 74.4004H46.1956L45.4836 99H53.3156L56.1992 96.864ZM48.0468 96.4012L48.2248 86.4332L52.034 86.2552L53.636 87.964L53.6004 94.6924L52.3544 95.6892L48.0468 96.4012ZM66.9827 80.5592L71.7887 98.9644H75.2419L67.7659 74.5784H65.1671L57.3351 98.9644H60.3255L66.9827 80.5592ZM82.2476 99H86.5196L89.7948 94.6212L90.1864 78.9572L85.8432 74.436H79.3996L76.338 78.8148L75.982 94.4788L82.2476 99ZM84.2768 76.7144L86.5552 79.8828L85.8432 94.3008L83.5648 96.5436L78.9012 93.1972L79.364 78.7792L80.9304 76.6076L84.2768 76.7144ZM104.036 74.8988L100.867 74.5784L100.618 83.8344L95.5631 85.0448L94.2103 83.6564L95.5275 74.614L92.1099 74.4716L91.4335 84.938L95.1003 87.8572L100.547 85.9704L100.227 98.5372L103.324 99.0712L104.036 74.8988ZM123.043 98.9644L123.079 74.4716H119.234L119.127 86.0772L111.117 85.8992L111.189 74.4716H108.305L108.732 98.9644H111.011L111.117 87.7504H119.127L118.985 98.9644H123.043ZM127.357 74.8276L128.425 97.0776L130.739 99H136.719L138.321 95.6536L137.645 87.252L135.153 84.4752L131.379 84.1904L130.952 74.5784L127.357 74.8276ZM145.05 74.5784H140.991L141.276 99H144.16L145.05 74.5784ZM134.37 86.6112L135.189 87.9284L135.829 95.4756L135.082 97.1844L131.949 96.8284L131.486 86.362L134.37 86.6112ZM158.798 68.4908C157.766 69.3096 156.84 69.6656 155.95 69.6656C154.669 69.6656 153.458 68.9892 152.07 68.028L150.432 70.2352C151.821 71.4812 153.423 72.0508 154.953 72.0508C156.769 72.0508 158.478 71.2676 159.653 69.986L158.798 68.4908ZM160.827 99L159.937 74.4004H157.623L153.138 92.0936L153.245 74.5072L149.329 74.436L151.109 99H153.458L157.979 80.7372L158.976 99H160.827ZM73.9599 119.514L67.3383 110.507L66.0923 111.041L64.5971 135L67.3739 135.32L68.0147 116.737L73.6395 124.071L80.2967 116.844L80.9375 135.036L84.0347 134.858L83.3583 111.718L81.5071 110.507L73.9599 119.514ZM87.9673 133.896L90.7797 135L97.5793 110.614H94.5177L91.4917 121.365L88.2165 110.436L85.8313 111.219L90.3881 125.317L87.9673 133.896ZM107.919 116.559L112.725 134.964H116.178L108.702 110.578H106.104L98.2716 134.964H101.262L107.919 116.559Z" fill="white"/>
<path d="M92 153L57 141.5V148.5L92 171V153Z" fill="#CBF1D6"/>
<path d="M99 153.5L134 142V149L99 171.5V153.5Z" fill="#CBF1D6"/>
<path d="M107.5 156.5H87.5L91 172L86 183H106L99 172L107.5 156.5Z" fill="#FFBE3F"/>
</g>
<defs>
<clipPath id="clip0_480_1987">
<rect width="180" height="180" fill="white"/>
</clipPath>
</defs>
</svg>
