<svg width="180" height="180" viewBox="0 0 180 180" fill="none" xmlns="http://www.w3.org/2000/svg">
<g clip-path="url(#clip0_486_4016)">
<rect width="180" height="180" fill="#FF843F"/>
<circle cx="144" cy="51" r="20" fill="#FFBE3F"/>
<circle cx="51" cy="139" r="14" fill="#FFBE3F"/>
<rect x="50" y="100.738" width="68" height="68" rx="8" transform="rotate(-33.8942 50 100.738)" fill="#AED8FF"/>
<rect x="54.6128" y="26.8105" width="40.2355" height="40.2355" rx="8" transform="rotate(29.1734 54.6128 26.8105)" fill="#63B0E8"/>
<path d="M17.7078 87.7328L18.777 89H36.8346L37.785 61.7948H34.4586L33.5874 86.5052L29.5086 86.4656L30.3006 76.13L27.5682 75.8924L26.8158 86.426L22.0638 86.3468L23.4102 61.7948H18.4206L17.7078 87.7328ZM57.8999 89L60.5927 88.4456L52.6727 61.5176H49.0295L40.7135 88.3268L44.5943 89.396L47.0891 79.8524L54.9299 79.1792L57.8999 89ZM50.9699 65.9924L54.3755 77.318L47.6435 77.714L50.9699 65.9924ZM72.7608 71.774L65.3952 61.7552L64.0092 62.3492L62.346 89L65.4348 89.3564L66.1476 68.6852L72.4044 76.8428L79.8096 68.804L80.5224 89.0396L83.9676 88.8416L83.2152 63.1016L81.156 61.7552L72.7608 71.774ZM90.9161 63.6956H100.103V89.2376L104.578 88.7228V61.7552H88.6589L87.5105 62.5472V89H90.9161V63.6956ZM124.686 89L127.379 88.4456L119.459 61.5176H115.816L107.5 88.3268L111.381 89.396L113.875 79.8524L121.716 79.1792L124.686 89ZM117.756 65.9924L121.162 77.318L114.43 77.714L117.756 65.9924ZM146.715 88.9604L146.754 61.7156H142.477L142.359 74.6252L133.449 74.4272L133.528 61.7156H130.32L130.795 88.9604H133.33L133.449 76.4864H142.359L142.2 88.9604H146.715ZM157.571 61.7156H153.215L151.512 89H160.304L166.323 85.04L166.6 77.0804L163.392 73.556L156.74 75.14L157.571 61.7156ZM161.729 76.8032L163.392 78.5456L163.155 83.4956L158.284 86.624L156.106 86.1884L156.621 77.9912L161.729 76.8032ZM80.8517 129L83.5445 128.446L75.6245 101.518H71.9813L63.6653 128.327L67.5461 129.396L70.0409 119.852L77.8817 119.179L80.8517 129ZM73.9217 105.992L77.3273 117.318L70.5953 117.714L73.9217 105.992ZM97.0193 95.0628C95.8709 95.9736 94.8413 96.3696 93.8513 96.3696C92.4257 96.3696 91.0793 95.6172 89.5349 94.548L87.7133 97.0032C89.2577 98.3892 91.0397 99.0228 92.7425 99.0228C94.7621 99.0228 96.6629 98.1516 97.9697 96.726L97.0193 95.0628ZM99.2765 129L98.2865 101.636H95.7125L90.7229 121.318L90.8417 101.755L86.4857 101.676L88.4657 129H91.0793L96.1085 108.685L97.2173 129H99.2765ZM108.28 129H116.121L118.457 123.971L115.448 122.466L113.903 125.832L109.428 125.674L106.617 122.149L107.409 106.943L109.428 104.329L113.27 105.082L114.933 108.725L117.744 107.26L115.25 101.716H107.448L103.37 106.586L102.855 123.971L108.28 129Z" fill="white"/>
</g>
<defs>
<clipPath id="clip0_486_4016">
<rect width="180" height="180" fill="white"/>
</clipPath>
</defs>
</svg>
