<svg width="180" height="180" viewBox="0 0 180 180" fill="none" xmlns="http://www.w3.org/2000/svg">
<g clip-path="url(#clip0_486_3983)">
<rect width="180" height="180" fill="#922B31"/>
<path d="M59.5002 145C83.1002 110.6 93.0002 28.3333 95.0002 -8.5L-11 -14V139.5C29 167.1 26.6667 204.667 20.5 220H40.5002C37.0002 209.333 35.9002 179.4 59.5002 145Z" fill="#FFBE3F"/>
<path d="M23.5 151.5C2.7 148.3 -5.83333 132.167 -7.5 124.5L-11 63.5C-6.16667 63 8.3 63.1 27.5 67.5C46.7 71.9 67.5 61.6667 75.5 56C74.8333 67.6667 72 95.1 66 111.5C58.5 132 49.5 155.5 23.5 151.5Z" fill="#ECA720"/>
<path d="M24.1201 97.8608L25.0813 99H41.3149L42.1693 74.5428H39.1789L38.3957 96.7572L34.7289 96.7216L35.4409 87.43L32.9845 87.2164L32.3081 96.686L28.0361 96.6148L29.2465 74.5428H24.7609L24.1201 97.8608ZM60.2525 99L62.6733 98.5016L55.5533 74.2936H52.2781L44.8021 98.3948L48.2909 99.356L50.5337 90.7764L57.5825 90.1712L60.2525 99ZM54.0225 78.3164L57.0841 88.498L51.0321 88.854L54.0225 78.3164ZM73.6122 83.514L66.9906 74.5072L65.7446 75.0412L64.2494 99L67.0262 99.3204L67.667 80.7372L73.2918 88.0708L79.949 80.844L80.5898 99.0356L83.687 98.8576L83.0106 75.7176L81.1594 74.5072L73.6122 83.514ZM89.9337 76.2516H98.1929V99.2136L102.216 98.7508V74.5072H87.9045L86.8721 75.2192V99H89.9337V76.2516ZM120.293 99L122.713 98.5016L115.593 74.2936H112.318L104.842 98.3948L108.331 99.356L110.574 90.7764L117.623 90.1712L120.293 99ZM114.063 78.3164L117.124 88.498L111.072 88.854L114.063 78.3164ZM140.096 98.9644L140.132 74.4716H136.287L136.18 86.0772L128.17 85.8992L128.241 74.4716H125.358L125.785 98.9644H128.063L128.17 87.7504H136.18L136.038 98.9644H140.096ZM149.856 74.4716H145.94L144.409 99H152.312L157.724 95.44L157.973 88.2844L155.089 85.116L149.108 86.54L149.856 74.4716ZM153.594 88.0352L155.089 89.6016L154.876 94.0516L150.497 96.864L148.539 96.4724L149.002 89.1032L153.594 88.0352Z" fill="white"/>
</g>
<defs>
<clipPath id="clip0_486_3983">
<rect width="180" height="180" fill="white"/>
</clipPath>
</defs>
</svg>
