<svg width="180" height="180" viewBox="0 0 180 180" fill="none" xmlns="http://www.w3.org/2000/svg">
<g clip-path="url(#clip0_480_1949)">
<rect width="180" height="180" fill="#D76950"/>
<path d="M137 29.5C88.6 43.1 37.8333 141.167 18.5 188.5L-20.5 191.5L-31 170L34 125C30.8 115.8 30.6667 92.8333 31 82.5H38C34.4 92.9 36.5 111.833 38 120C48.4 89.6 104.333 43.3333 131 24L137 29.5Z" fill="#6B291A"/>
<path d="M141.445 44.2227C144.998 50.923 144.976 59.4472 138.276 62.9998C131.576 66.5525 125.27 62.2465 121.717 55.5463C118.165 48.846 120.14 44.9846 126.84 41.432C133.541 37.8793 137.892 37.5224 141.445 44.2227Z" fill="#C01A1A"/>
<path d="M84.1766 44.7009C72.5401 39.7711 63.6077 28.7264 68.5374 17.0899C73.4671 5.45338 86.1471 4.39301 97.7837 9.32275C109.42 14.2525 110.925 21.322 105.995 32.9585C101.065 44.595 95.8131 49.6306 84.1766 44.7009Z" fill="#C01A1A"/>
<path d="M99.2973 89.1738C99.0059 96.752 94.708 104.113 87.1298 103.822C79.5515 103.531 76.2597 96.6408 76.5511 89.0625C76.8425 81.4843 80.4895 79.1366 88.0678 79.428C95.646 79.7194 99.5887 81.5955 99.2973 89.1738Z" fill="#C01A1A"/>
<path d="M34.9099 52.676L31.0291 61.2296V52.676H27.3463L27.1879 80.0792H30.9499L30.9895 67.7636L36.6523 80.0792L40.0975 78.218L31.7815 64.6352L36.8503 54.2204L34.9099 52.676ZM51.3346 59.4872L56.6806 79.9604H60.5218L52.2058 52.8344H49.315L40.603 79.9604H43.9294L51.3346 59.4872ZM69.0466 52.9136H65.3638L63.4234 80H66.5518L67.6606 67.6844L72.2542 68.12L72.175 75.0104L75.0262 80H81.085L83.461 75.1688L83.7382 57.8636L79.2238 52.874H74.551L72.4126 57.7052L72.2938 65.2688L67.8982 65.3876L69.0466 52.9136ZM75.6598 76.1588L74.155 72.0404L74.5906 58.0616L76.5706 54.9728L80.3326 58.2992L79.9366 73.2284L78.6298 76.1588H75.6598ZM92.6686 64.754L100.43 80.1188L104.39 78.7328L94.3318 63.1304L102.727 55.1312L100.549 52.9136L92.3914 62.5364H91.5598L91.639 52.9532L87.679 52.7552L87.3226 80.1584L91.243 79.9604L91.3618 64.9124L92.6686 64.754ZM107.103 52.8344L106.272 80H116.489L119.419 77.7032L119.696 66.734L116.093 64.358L119.181 57.0716L116.726 52.9532L107.103 52.8344ZM116.885 68.4368L116.687 75.8024L114.35 77.5052L110.549 77.1488L110.588 66.8924L114.231 66.2984L116.885 68.4368ZM112.806 64.2392L110.588 64.6748L110.628 55.3292L114.192 55.2896L115.657 57.4676L112.806 64.2392ZM126.022 56.8736L134.1 56.438V52.9136H123.765L123.21 80H134.1V76.634L125.467 75.8816L125.705 67.2884L132.16 68.1596V65.2688H125.784L126.022 56.8736ZM152.946 79.9604L152.986 52.7156H148.709L148.59 65.6252L139.68 65.4272L139.76 52.7156H136.552L137.027 79.9604H139.562L139.68 67.4864H148.59L148.432 79.9604H152.946ZM39.0963 119.96L39.1359 92.7156H34.8591L34.7403 105.625L25.8303 105.427L25.9095 92.7156H22.7019L23.1771 119.96H25.7115L25.8303 107.486H34.7403L34.5819 119.96H39.0963ZM43.8941 93.1116L45.0821 117.862L47.6561 120H54.3089L56.0909 116.278L55.3385 106.932L52.5665 103.843L48.3689 103.526L47.8937 92.8344L43.8941 93.1116ZM63.5753 92.8344H59.0609L59.3777 120H62.5853L63.5753 92.8344ZM51.6953 106.219L52.6061 107.684L53.3189 116.08L52.4873 117.98L49.0025 117.584L48.4877 105.942L51.6953 106.219ZM78.8683 86.0628C77.7199 86.9736 76.6903 87.3696 75.7003 87.3696C74.2747 87.3696 72.9283 86.6172 71.3839 85.548L69.5623 88.0032C71.1067 89.3892 72.8887 90.0228 74.5915 90.0228C76.6111 90.0228 78.5119 89.1516 79.8187 87.726L78.8683 86.0628ZM81.1255 120L80.1355 92.6364H77.5615L72.5719 112.318L72.6907 92.7552L68.3347 92.676L70.3147 120H72.9283L77.9575 99.6852L79.0663 120H81.1255ZM98.5096 95.7252L106.034 95.844L106.311 92.9136H94.7476V120.158H99.1036L98.5096 95.7252ZM112.154 108.872L122.45 108.674L125.975 105.704L126.014 97.0716L122.252 92.9136H108.67V120H112.036L112.154 108.872ZM112.154 106.496L112.273 95.7252L120.035 96.2004L122.926 98.3388L122.173 104.239L120.312 106.417L112.154 106.496ZM135.952 120H140.704L144.347 115.129L144.783 97.7052L139.951 92.676H132.784L129.378 97.5468L128.982 114.971L135.952 120ZM138.209 95.2104L140.743 98.7348L139.951 114.773L137.417 117.268L132.229 113.545L132.744 97.5072L134.487 95.0916L138.209 95.2104ZM152.07 95.7252L159.594 95.844L159.871 92.9136H148.308V120.158H152.664L152.07 95.7252Z" fill="white"/>
<path d="M91 132.5L22 158L11.5 190L37.5 183L91 141.5L145 155V149.5L91 132.5Z" fill="#6B291A"/>
</g>
<defs>
<clipPath id="clip0_480_1949">
<rect width="180" height="180" fill="white"/>
</clipPath>
</defs>
</svg>
