<svg width="180" height="180" viewBox="0 0 180 180" fill="none" xmlns="http://www.w3.org/2000/svg">
<g clip-path="url(#clip0_492_3119)">
<rect width="180" height="180" fill="#478358"/>
<path d="M107.149 145.06C105.347 158.99 87.4711 176.138 78.7585 182.97C73.9822 185.431 73.1408 195.528 89.4374 191.963C105.734 188.397 124.866 161.846 124.211 145.492C123.555 129.138 109.402 127.646 107.149 145.06Z" fill="#76CA4E"/>
<path d="M81.3841 127.012C88.0605 103.896 123.06 79.1467 139.725 69.6616C148.529 66.6322 152.573 49.7668 123.779 51.9369C94.9847 54.107 55.4104 94.4508 52.3126 122.244C49.2148 150.038 73.0387 155.908 81.3841 127.012Z" fill="#76CA4E"/>
<path d="M45.563 5.12556C59.2572 11.1622 71.6039 34.7929 76.0654 45.8536C77.201 51.5327 87.2608 55.4272 88.3163 37.4978C89.3719 19.5684 67.7929 -8.17847 50.9184 -12.398C34.0438 -16.6175 28.4452 -2.42024 45.563 5.12556Z" fill="#76CA4E"/>
<path d="M25.7892 80.7604C22.0868 80.7604 21.0544 75.812 21.0544 71.4688C21.0544 67.2324 22.5852 61.6432 26.0384 61.6432C29.0644 61.6432 30.9156 66.4136 30.9156 71.362C30.9156 76.2392 29.2068 80.7604 25.7892 80.7604ZM25.8248 84.2136C31.2716 84.2136 33.906 77.8412 33.906 71.5044C33.906 65.31 31.3784 59.1512 26.3944 59.1512C20.556 59.1512 18.7404 67.1612 18.7404 71.9316C18.7404 77.4496 20.3068 84.2136 25.8248 84.2136ZM40.4697 62.1772L47.2337 62.284L47.4829 59.6496H37.0877V84.1424H41.0037L40.4697 62.1772ZM51.0462 82.8964L53.8586 84L60.6582 59.614H57.5966L54.5706 70.3652L51.2954 59.436L48.9102 60.2192L53.467 74.3168L51.0462 82.8964ZM66.1209 73.9964L75.3769 73.8184L78.5453 71.1484L78.5809 63.3876L75.1989 59.6496H62.9881V84H66.0141L66.1209 73.9964ZM66.1209 71.8604L66.2277 62.1772L73.2053 62.6044L75.8041 64.5268L75.1277 69.8312L73.4545 71.7892L66.1209 71.8604ZM83.3852 63.2096L90.6476 62.818V59.6496H81.356L80.8576 84H90.6476V80.974L82.8868 80.2976L83.1004 72.5724L88.9032 73.3556V70.7568H83.1716L83.3852 63.2096ZM103.532 59.8988L100.363 59.5784L100.114 68.8344L95.059 70.0448L93.7062 68.6564L95.0234 59.614L91.6058 59.4716L90.9294 69.938L94.5962 72.8572L100.043 70.9704L99.7226 83.5372L102.82 84.0712L103.532 59.8988ZM122.539 83.9644L122.575 59.4716H118.73L118.623 71.0772L110.613 70.8992L110.685 59.4716H107.801L108.228 83.9644H110.507L110.613 72.7504H118.623L118.481 83.9644H122.539ZM126.853 59.8276L127.921 82.0776L130.235 84H136.215L137.817 80.6536L137.141 72.252L134.649 69.4752L130.875 69.1904L130.448 59.5784L126.853 59.8276ZM144.546 59.5784H140.487L140.772 84H143.656L144.546 59.5784ZM133.866 71.6112L134.685 72.9284L135.325 80.4756L134.578 82.1844L131.445 81.8284L130.982 71.362L133.866 71.6112ZM158.294 53.4908C157.262 54.3096 156.336 54.6656 155.446 54.6656C154.164 54.6656 152.954 53.9892 151.566 53.028L149.928 55.2352C151.316 56.4812 152.918 57.0508 154.449 57.0508C156.265 57.0508 157.974 56.2676 159.148 54.986L158.294 53.4908ZM160.323 84L159.433 59.4004H157.119L152.634 77.0936L152.74 59.5072L148.824 59.436L150.604 84H152.954L157.475 65.7372L158.472 84H160.323ZM34.6573 104.514L28.0357 95.5072L26.7897 96.0412L25.2945 120L28.0713 120.32L28.7121 101.737L34.3369 109.071L40.9941 101.844L41.6349 120.036L44.7321 119.858L44.0557 96.7176L42.2045 95.5072L34.6573 104.514ZM61.73 120L64.1508 119.502L57.0308 95.2936H53.7556L46.2796 119.395L49.7684 120.356L52.0112 111.776L59.06 111.171L61.73 120ZM55.5 99.3164L58.5616 109.498L52.5096 109.854L55.5 99.3164ZM69.9277 109.996L79.1837 109.818L82.3521 107.148L82.3877 99.3876L79.0057 95.6496H66.7949V120H69.8209L69.9277 109.996ZM69.9277 107.86L70.0345 98.1772L77.0121 98.6044L79.6109 100.527L78.9345 105.831L77.2613 107.789L69.9277 107.86ZM96.8753 95.3292L82.7421 96.148L82.8845 98.1416H88.3313L87.8685 119.893L90.9301 119.466L91.9981 98.1416L96.7329 98.2128L96.8753 95.3292ZM114.827 120.071L113.937 95.7208L110.911 95.5428L102.616 112.666L103.079 95.614H99.1626L99.127 119.751L101.477 119.858L110.555 101.168L111.053 120.071H114.827ZM133.821 119.964L133.856 95.4716H130.012L129.905 107.077L121.895 106.899L121.966 95.4716H119.082L119.51 119.964H121.788L121.895 108.75H129.905L129.762 119.964H133.821ZM153.834 120.071L152.944 95.7208L149.918 95.5428L141.623 112.666L142.086 95.614H138.17L138.134 119.751L140.484 119.858L149.562 101.168L150.06 120.071H153.834Z" fill="white"/>
</g>
<defs>
<clipPath id="clip0_492_3119">
<rect width="180" height="180" fill="white"/>
</clipPath>
</defs>
</svg>
