<svg width="180" height="180" viewBox="0 0 180 180" fill="none" xmlns="http://www.w3.org/2000/svg">
<g clip-path="url(#clip0_486_4029)">
<rect width="180" height="180" fill="#69193F"/>
<path d="M31 80L48.1901 197.765V254.709H89.7164H131.243V197.765L148.433 80H89.7164H31Z" fill="#B842A5"/>
<path d="M105 113.5C105.8 92.2997 78.6667 82.333 65 79.9997C65 72.9993 70.5 74.4997 85.5 74.4997C100.5 74.4997 105 76.9997 119 74.4997C130.2 72.4997 137.667 77.333 140 79.9997C141.667 79.9997 144 83.2997 140 96.4997C136 109.7 144.333 143.666 149 159C148 161.833 142.8 166.7 130 163.5C117.2 160.3 104.667 164.833 100 167.5C91 160.5 104 140 105 113.5Z" fill="#A09292"/>
<path d="M32.0887 57.3884L39.4939 56.7152L39.2167 53.0324L29.6731 53.072L29.2375 80H31.8511L32.0887 57.3884ZM45.368 68.8724L55.664 68.6744L59.1884 65.7044L59.228 57.0716L55.466 52.9136H41.8832V80H45.2492L45.368 68.8724ZM45.368 66.4964L45.4868 55.7252L53.2484 56.2004L56.1392 58.3388L55.3868 64.2392L53.5256 66.4172L45.368 66.4964ZM70.1953 68.12L69.7201 80H72.8485V52.874H63.2257L60.8101 56.1608V65.3876L62.8297 68.12H65.2453L60.6517 79.406L64.0177 80.396L68.4529 68.12H70.1953ZM70.1953 65.546H65.2453L63.7405 63.8828V57.3884L65.4037 55.2896H70.1953V65.546ZM75.2796 79.4852L86.7636 79.802L88.902 70.9712L88.2288 68.1596L84.15 65.6252L87.0012 63.0116L88.0704 55.1312L83.6748 52.9136L76.2696 54.8144L77.3388 58.1804L82.17 55.5668L84.1104 56.5172L84.0708 62.0216L81.8532 64.8332H78.21V67.2488L81.5364 67.328L85.1796 70.5356L83.754 77.3072L75.7944 76.0004L75.2796 79.4852ZM108.899 79.9604L108.939 52.7156H104.662L104.543 65.6252L95.6331 65.4272L95.7123 52.7156H92.5047L92.9799 79.9604H95.5143L95.6331 67.4864H104.543L104.385 79.9604H108.899ZM113.697 53.1116L114.885 77.8616L117.459 80H124.112L125.894 76.2776L125.141 66.932L122.369 63.8432L118.172 63.5264L117.696 52.8344L113.697 53.1116ZM133.378 52.8344H128.864L129.18 80H132.388L133.378 52.8344ZM121.498 66.2192L122.409 67.6844L123.122 76.0796L122.29 77.9804L118.805 77.5844L118.29 65.942L121.498 66.2192ZM148.671 46.0628C147.523 46.9736 146.493 47.3696 145.503 47.3696C144.077 47.3696 142.731 46.6172 141.187 45.548L139.365 48.0032C140.909 49.3892 142.691 50.0228 144.394 50.0228C146.414 50.0228 148.315 49.1516 149.621 47.726L148.671 46.0628ZM150.928 80L149.938 52.6364H147.364L142.375 72.3176L142.493 52.7552L138.137 52.676L140.117 80H142.731L147.76 59.6852L148.869 80H150.928ZM28.4289 102.774L21.0633 92.7552L19.6773 93.3492L18.0141 120L21.1029 120.356L21.8157 99.6852L28.0725 107.843L35.4777 99.804L36.1905 120.04L39.6357 119.842L38.8833 94.1016L36.8241 92.7552L28.4289 102.774ZM58.5435 120L61.2363 119.446L53.3163 92.5176H49.6731L41.3571 119.327L45.2379 120.396L47.7327 110.852L55.5735 110.179L58.5435 120ZM51.6135 96.9924L55.0191 108.318L48.2871 108.714L51.6135 96.9924ZM67.6623 108.872L77.9583 108.674L81.4827 105.704L81.5223 97.0716L77.7603 92.9136H64.1775V120H67.5435L67.6623 108.872ZM67.6623 106.496L67.7811 95.7252L75.5427 96.2004L78.4335 98.3388L77.6811 104.239L75.8199 106.417L67.6623 106.496ZM97.6377 92.5572L81.9165 93.468L82.0749 95.6856H88.1337L87.6189 119.881L91.0245 119.406L92.2125 95.6856L97.4793 95.7648L97.6377 92.5572ZM117.606 120.079L116.616 92.9928L113.25 92.7948L104.023 111.842L104.538 92.874H100.182L100.142 119.723L102.756 119.842L112.854 99.0516L113.408 120.079H117.606ZM138.734 119.96L138.774 92.7156H134.497L134.378 105.625L125.468 105.427L125.548 92.7156H122.34L122.815 119.96H125.35L125.468 107.486H134.378L134.22 119.96H138.734ZM160.996 120.079L160.006 92.9928L156.64 92.7948L147.413 111.842L147.928 92.874H143.572L143.532 119.723L146.146 119.842L156.244 99.0516L156.798 120.079H160.996Z" fill="white"/>
</g>
<defs>
<clipPath id="clip0_486_4029">
<rect width="180" height="180" fill="white"/>
</clipPath>
</defs>
</svg>
