<svg width="180" height="180" viewBox="0 0 180 180" fill="none" xmlns="http://www.w3.org/2000/svg">
<g clip-path="url(#clip0_486_3994)">
<rect width="180" height="180" fill="#D76950"/>
<path d="M59.9577 77.675C52.2958 84.7586 33.4601 87.2994 25 87.6844C46.8366 103.084 79.4319 99.4903 93 95.7687V77.675C89.6479 71.5153 69.5352 68.8204 59.9577 77.675Z" fill="#232222"/>
<path d="M124.042 77.675C131.704 84.7586 150.54 87.2994 159 87.6844C137.163 103.084 104.568 99.4903 91 95.7687V77.675C94.3521 71.5153 114.465 68.8204 124.042 77.675Z" fill="#232222"/>
<path d="M91.0277 170.433C47.4566 170.433 22.8553 145.98 16.001 133.753L69.909 135.976H91.0277V170.433Z" fill="#C92E2E"/>
<path d="M90.4718 170.845C134.043 170.845 158.644 146.392 165.499 134.165L111.59 136.388H90.4718V170.845Z" fill="#C92E2E"/>
<path d="M53.2365 118.192C44.3444 128.418 22.4848 132.086 12.6665 132.642C38.0089 154.872 75.8371 149.685 91.5835 144.312V118.192C87.6932 109.3 64.3516 105.41 53.2365 118.192Z" fill="#B31D1D"/>
<path d="M128.263 118.603C137.155 128.829 159.015 132.497 168.833 133.053C143.491 155.284 105.662 150.096 89.916 144.723V118.603C93.8063 109.711 117.148 105.821 128.263 118.603Z" fill="#B31D1D"/>
<path d="M26.2648 54.6144C32.4029 54.4956 37.6696 49.704 37.6696 43.0116C37.6696 38.6556 34.7789 34.7352 27.6508 34.5768L27.8488 31.8444H23.6117L23.4137 34.6164C15.9689 35.1312 12.0485 40.2792 12.0485 45.7044C12.0485 50.8128 15.0581 54.6144 22.0277 54.9708L21.6713 59.9604L25.8689 60L26.2648 54.6144ZM22.2257 52.08C17.7113 51.9216 15.8897 48.5556 15.8897 45.0312C15.8897 41.1108 18.7409 37.1904 23.2553 37.0716L22.2257 52.08ZM34.9768 43.6452C34.9768 47.6844 31.6108 51.8424 26.4233 52.4364L27.4528 37.4676C32.7196 37.5864 34.9768 40.2792 34.9768 43.6452ZM44.2658 48.8724L54.5618 48.6744L58.0862 45.7044L58.1258 37.0716L54.3638 32.9136H40.781V60H44.147L44.2658 48.8724ZM44.2658 46.4964L44.3846 35.7252L52.1462 36.2004L55.037 38.3388L54.2846 44.2392L52.4234 46.4172L44.2658 46.4964ZM73.9736 60L76.6664 59.4456L68.7464 32.5176H65.1032L56.7872 59.3268L60.668 60.396L63.1628 50.8524L71.0036 50.1792L73.9736 60ZM67.0436 36.9924L70.4492 48.318L63.7172 48.714L67.0436 36.9924ZM96.002 59.9604L96.0416 32.7156H91.7648L91.646 45.6252L82.736 45.4272L82.8152 32.7156H79.6076L80.0828 59.9604H82.6172L82.736 47.4864H91.646L91.4876 59.9604H96.002ZM100.8 32.7552V59.802H117.075L115.887 65.7816L119.966 66.5736L121.273 58.4556L120.243 56.8716H118.263L118.184 32.478L113.907 32.7948L114.739 56.8716H103.849L104.047 33.27L100.8 32.7552ZM125.685 58.7724L128.814 60L136.377 32.874L132.972 32.874L129.606 44.8332L125.962 32.676L123.309 33.5472L128.378 49.2288L125.685 58.7724ZM136.633 59.4852L148.117 59.802L150.255 50.9712L149.582 48.1596L145.503 45.6252L148.354 43.0116L149.423 35.1312L145.028 32.9136L137.623 34.8144L138.692 38.1804L143.523 35.5668L145.463 36.5172L145.424 42.0216L143.206 44.8332H139.563V47.2488L142.889 47.328L146.533 50.5356L145.107 57.3072L137.147 56.0004L136.633 59.4852ZM158.095 60H165.936L168.272 54.9708L165.262 53.466L163.718 56.832L159.243 56.6736L156.432 53.1492L157.224 37.9428L159.243 35.3292L163.084 36.0816L164.748 39.7248L167.559 38.2596L165.064 32.7156H157.263L153.184 37.5864L152.67 54.9708L158.095 60ZM68.46 84.754L76.2216 100.119L80.1816 98.7328L70.1232 83.1304L78.5184 75.1312L76.3404 72.9136L68.1828 82.5364H67.3512L67.4304 72.9532L63.4704 72.7552L63.114 100.158L67.0344 99.9604L67.1532 84.9124L68.46 84.754ZM99.5269 100.079L98.5369 72.9928L95.1709 72.7948L85.9441 91.8424L86.4589 72.874H82.1029L82.0633 99.7228L84.6769 99.8416L94.7749 79.0516L95.3293 100.079H99.5269ZM114.795 66.0628C113.646 66.9736 112.617 67.3696 111.627 67.3696C110.201 67.3696 108.855 66.6172 107.31 65.548L105.489 68.0032C107.033 69.3892 108.815 70.0228 110.518 70.0228C112.537 70.0228 114.438 69.1516 115.745 67.726L114.795 66.0628ZM117.052 100L116.062 72.6364H113.488L108.498 92.3176L108.617 72.7552L104.261 72.676L106.241 100H108.855L113.884 79.6852L114.993 100H117.052ZM30.2648 114.696H39.452V140.238L43.9268 139.723V112.755H28.0076L26.8592 113.547V140H30.2648V114.696ZM54.4121 140H59.1641L62.8073 135.129L63.2429 117.705L58.4117 112.676H51.2441L47.8385 117.547L47.4425 134.971L54.4121 140ZM56.6693 115.21L59.2037 118.735L58.4117 134.773L55.8773 137.268L50.6897 133.545L51.2045 117.507L52.9469 115.092L56.6693 115.21ZM66.7685 112.755V139.802H83.0441L81.8561 145.782L85.9349 146.574L87.2417 138.456L86.2121 136.872H84.2321L84.1529 112.478L79.8761 112.795L80.7077 136.872H69.8177L70.0157 113.27L66.7685 112.755ZM93.634 116.874L101.712 116.438V112.914H91.3768L90.8224 140H101.712V136.634L93.0796 135.882L93.3172 127.288L99.772 128.16V125.269H93.3964L93.634 116.874ZM114.312 119.487L119.658 139.96H123.499L115.183 112.834H112.292L103.58 139.96H106.907L114.312 119.487ZM127.232 138.772L130.361 140L137.924 112.874H134.519L131.153 124.833L127.509 112.676L124.856 113.547L129.925 129.229L127.232 138.772ZM151.049 106.063C149.901 106.974 148.871 107.37 147.881 107.37C146.456 107.37 145.109 106.617 143.565 105.548L141.743 108.003C143.288 109.389 145.07 110.023 146.773 110.023C148.792 110.023 150.693 109.152 152 107.726L151.049 106.063ZM153.307 140L152.317 112.636H149.743L144.753 132.318L144.872 112.755L140.516 112.676L142.496 140H145.109L150.139 119.685L151.247 140H153.307Z" fill="white"/>
</g>
<defs>
<clipPath id="clip0_486_3994">
<rect width="180" height="180" fill="white"/>
</clipPath>
</defs>
</svg>
