<svg width="180" height="180" viewBox="0 0 180 180" fill="none" xmlns="http://www.w3.org/2000/svg">
<g clip-path="url(#clip0_486_4039)">
<rect width="180" height="180" fill="#D76950"/>
<path d="M156 121.999C125.2 115.599 69.8332 55.3326 45.9998 25.9993C36.9998 11.4993 49.4998 7.99928 61.9998 14.9993C74.4998 21.9993 147 84.9993 164.5 93.4993C182 101.999 177.5 126.499 156 121.999Z" fill="#FCD07B"/>
<path d="M76.5 26.9998C70.9 22.9998 62.1667 24.6665 58.5 25.9998C70.1 28.3997 80.3333 32.9999 84 35L76.5 26.9998Z" fill="#E1AC45"/>
<path d="M98.4544 46.6517C92.2541 43.6658 83.9332 46.7981 80.5478 48.7375C92.3871 49.123 103.255 51.9097 107.209 53.2549L98.4544 46.6517Z" fill="#E1AC45"/>
<path d="M124.164 68.7513C117.964 65.7654 109.643 68.8977 106.257 70.8371C118.097 71.2226 128.965 74.0093 132.919 75.3545L124.164 68.7513Z" fill="#E1AC45"/>
<path d="M155.164 92.7513C148.964 89.7654 140.643 92.8977 137.257 94.8371C149.097 95.2226 159.965 98.0093 163.919 99.3545L155.164 92.7513Z" fill="#E1AC45"/>
<path d="M143 82H40L90.5 132V187H98V132L143 82Z" fill="#A9381E"/>
<path d="M26.2648 54.6144C32.4029 54.4956 37.6696 49.704 37.6696 43.0116C37.6696 38.6556 34.7789 34.7352 27.6508 34.5768L27.8488 31.8444H23.6117L23.4137 34.6164C15.9689 35.1312 12.0485 40.2792 12.0485 45.7044C12.0485 50.8128 15.0581 54.6144 22.0277 54.9708L21.6713 59.9604L25.8689 60L26.2648 54.6144ZM22.2257 52.08C17.7113 51.9216 15.8897 48.5556 15.8897 45.0312C15.8897 41.1108 18.7409 37.1904 23.2553 37.0716L22.2257 52.08ZM34.9768 43.6452C34.9768 47.6844 31.6108 51.8424 26.4233 52.4364L27.4528 37.4676C32.7196 37.5864 34.9768 40.2792 34.9768 43.6452ZM44.2658 48.8724L54.5618 48.6744L58.0862 45.7044L58.1258 37.0716L54.3638 32.9136H40.781V60H44.147L44.2658 48.8724ZM44.2658 46.4964L44.3846 35.7252L52.1462 36.2004L55.037 38.3388L54.2846 44.2392L52.4234 46.4172L44.2658 46.4964ZM73.9736 60L76.6664 59.4456L68.7464 32.5176H65.1032L56.7872 59.3268L60.668 60.396L63.1628 50.8524L71.0036 50.1792L73.9736 60ZM67.0436 36.9924L70.4492 48.318L63.7172 48.714L67.0436 36.9924ZM96.002 59.9604L96.0416 32.7156H91.7648L91.646 45.6252L82.736 45.4272L82.8152 32.7156H79.6076L80.0828 59.9604H82.6172L82.736 47.4864H91.646L91.4876 59.9604H96.002ZM100.8 32.7552V59.802H117.075L115.887 65.7816L119.966 66.5736L121.273 58.4556L120.243 56.8716H118.263L118.184 32.478L113.907 32.7948L114.739 56.8716H103.849L104.047 33.27L100.8 32.7552ZM125.685 58.7724L128.814 60L136.377 32.874L132.972 32.874L129.606 44.8332L125.962 32.676L123.309 33.5472L128.378 49.2288L125.685 58.7724ZM136.633 59.4852L148.117 59.802L150.255 50.9712L149.582 48.1596L145.503 45.6252L148.354 43.0116L149.423 35.1312L145.028 32.9136L137.623 34.8144L138.692 38.1804L143.523 35.5668L145.463 36.5172L145.424 42.0216L143.206 44.8332H139.563V47.2488L142.889 47.328L146.533 50.5356L145.107 57.3072L137.147 56.0004L136.633 59.4852ZM158.095 60H165.936L168.272 54.9708L165.262 53.466L163.718 56.832L159.243 56.6736L156.432 53.1492L157.224 37.9428L159.243 35.3292L163.084 36.0816L164.748 39.7248L167.559 38.2596L165.064 32.7156H157.263L153.184 37.5864L152.67 54.9708L158.095 60ZM68.46 84.754L76.2216 100.119L80.1816 98.7328L70.1232 83.1304L78.5184 75.1312L76.3404 72.9136L68.1828 82.5364H67.3512L67.4304 72.9532L63.4704 72.7552L63.114 100.158L67.0344 99.9604L67.1532 84.9124L68.46 84.754ZM99.5269 100.079L98.5369 72.9928L95.1709 72.7948L85.9441 91.8424L86.4589 72.874H82.1029L82.0633 99.7228L84.6769 99.8416L94.7749 79.0516L95.3293 100.079H99.5269ZM114.795 66.0628C113.646 66.9736 112.617 67.3696 111.627 67.3696C110.201 67.3696 108.855 66.6172 107.31 65.548L105.489 68.0032C107.033 69.3892 108.815 70.0228 110.518 70.0228C112.537 70.0228 114.438 69.1516 115.745 67.726L114.795 66.0628ZM117.052 100L116.062 72.6364H113.488L108.498 92.3176L108.617 72.7552L104.261 72.676L106.241 100H108.855L113.884 79.6852L114.993 100H117.052ZM28.4289 122.774L21.0633 112.755L19.6773 113.349L18.0141 140L21.1029 140.356L21.8157 119.685L28.0725 127.843L35.4777 119.804L36.1905 140.04L39.6357 139.842L38.8833 114.102L36.8241 112.755L28.4289 122.774ZM58.5435 140L61.2363 139.446L53.3163 112.518H49.6731L41.3571 139.327L45.2379 140.396L47.7327 130.852L55.5735 130.179L58.5435 140ZM51.6135 116.992L55.0191 128.318L48.2871 128.714L51.6135 116.992ZM67.6623 128.872L77.9583 128.674L81.4827 125.704L81.5223 117.072L77.7603 112.914H64.1775V140H67.5435L67.6623 128.872ZM67.6623 126.496L67.7811 115.725L75.5427 116.2L78.4335 118.339L77.6811 124.239L75.8199 126.417L67.6623 126.496ZM97.6377 112.557L81.9165 113.468L82.0749 115.686H88.1337L87.6189 139.881L91.0245 139.406L92.2125 115.686L97.4793 115.765L97.6377 112.557ZM117.606 140.079L116.616 112.993L113.25 112.795L104.023 131.842L104.538 112.874H100.182L100.142 139.723L102.756 139.842L112.854 119.052L113.408 140.079H117.606ZM138.734 139.96L138.774 112.716H134.497L134.378 125.625L125.468 125.427L125.548 112.716H122.34L122.815 139.96H125.35L125.468 127.486H134.378L134.22 139.96H138.734ZM160.996 140.079L160.006 112.993L156.64 112.795L147.413 131.842L147.928 112.874H143.572L143.532 139.723L146.146 139.842L156.244 119.052L156.798 140.079H160.996Z" fill="white"/>
</g>
<defs>
<clipPath id="clip0_486_4039">
<rect width="180" height="180" fill="white"/>
</clipPath>
</defs>
</svg>
