<svg width="180" height="180" viewBox="0 0 180 180" fill="none" xmlns="http://www.w3.org/2000/svg">
<g clip-path="url(#clip0_486_4034)">
<rect width="180" height="180" fill="#4B93C7"/>
<path d="M55.7612 123.356C58.0972 144.623 52.8792 164.272 49.9781 171.438L54.2844 172.742L98.7048 26.0383L82.0536 20.9965L72.9262 51.141C67.9712 67.5052 52.8412 96.7724 55.7612 123.356Z" fill="#22567B"/>
<path d="M79.9655 130.685C66.2245 147.084 59.6666 166.327 58.1054 173.899L53.7991 172.595L98.2195 25.8914L114.871 30.9332L105.743 61.0777C100.788 77.4419 97.1418 110.186 79.9655 130.685Z" fill="#22567B"/>
<rect x="86.0454" y="45.3984" width="13.1984" height="35.9955" transform="rotate(16.8458 86.0454 45.3984)" fill="#487A9E"/>
<path d="M82.1423 21.0244C84.7348 12.4624 93.7773 7.62312 102.339 10.2156L104.062 10.7372C112.624 13.3297 117.463 22.3722 114.871 30.9342L82.1423 21.0244Z" fill="#0C3450"/>
<path d="M34.966 84.6144C41.104 84.4956 46.3708 79.704 46.3708 73.0116C46.3708 68.6556 43.48 64.7352 36.352 64.5768L36.55 61.8444H32.3128L32.1148 64.6164C24.67 65.1312 20.7496 70.2792 20.7496 75.7044C20.7496 80.8128 23.7592 84.6144 30.7288 84.9708L30.3724 89.9604L34.57 90L34.966 84.6144ZM30.9268 82.08C26.4124 81.9216 24.5908 78.5556 24.5908 75.0312C24.5908 71.1108 27.442 67.1904 31.9564 67.0716L30.9268 82.08ZM43.678 73.6452C43.678 77.6844 40.312 81.8424 35.1244 82.4364L36.154 67.4676C41.4208 67.5864 43.678 70.2792 43.678 73.6452ZM52.967 78.8724L63.263 78.6744L66.7874 75.7044L66.827 67.0716L63.065 62.9136H49.4822V90H52.8482L52.967 78.8724ZM52.967 76.4964L53.0858 65.7252L60.8474 66.2004L63.7382 68.3388L62.9858 74.2392L61.1246 76.4172L52.967 76.4964ZM82.6747 90L85.3675 89.4456L77.4475 62.5176H73.8043L65.4883 89.3268L69.3691 90.396L71.8639 80.8524L79.7047 80.1792L82.6747 90ZM75.7447 66.9924L79.1503 78.318L72.4183 78.714L75.7447 66.9924ZM104.703 89.9604L104.743 62.7156H100.466L100.347 75.6252L91.4372 75.4272L91.5164 62.7156H88.3088L88.784 89.9604H91.3184L91.4372 77.4864H100.347L100.189 89.9604H104.703ZM109.501 62.7552V89.802H125.777L124.589 95.7816L128.667 96.5736L129.974 88.4556L128.945 86.8716H126.965L126.885 62.478L122.609 62.7948L123.44 86.8716H112.55L112.748 63.27L109.501 62.7552ZM134.386 88.7724L137.515 90L145.078 62.874H141.673L138.307 74.8332L134.664 62.676L132.01 63.5472L137.079 79.2288L134.386 88.7724ZM145.334 89.4852L156.818 89.802L158.956 80.9712L158.283 78.1596L154.204 75.6252L157.055 73.0116L158.124 65.1312L153.729 62.9136L146.324 64.8144L147.393 68.1804L152.224 65.5668L154.164 66.5172L154.125 72.0216L151.907 74.8332H148.264V77.2488L151.59 77.328L155.234 80.5356L153.808 87.3072L145.848 86.0004L145.334 89.4852ZM66.9139 117.011L75.7843 117.764L76.1803 114.635H66.9139V117.011ZM79.4665 103.27L79.1101 106.557C79.1101 106.557 88.6141 105.527 93.8809 105.369C84.5353 115.704 83.2285 129.921 83.2285 129.921L88.0993 130.238C88.6141 115.546 97.2073 105.844 97.2073 105.844L96.9697 103.072L79.4665 103.27ZM100.59 114.12C105.817 114.318 110.45 115.704 110.45 120.813C110.45 124.496 108.748 126.159 106.768 126.159C104.708 126.159 102.61 124.773 100.986 122.08L98.2932 123.941C99.8772 128.416 103.283 130.673 106.649 130.673C111.876 130.673 114.331 126.317 114.331 121.763C114.331 116.496 111.044 111.824 103.877 111.824L104.431 105.963L112.747 107.626V104.339L102.253 103.112L100.59 114.12Z" fill="white"/>
<path d="M27 131L0.999983 138.5C-4.33335 143.5 -15.2 154.2 -16 157C-16.8 159.8 -11.3334 184.167 -8.50002 196L182.5 186L170.5 174L121 169.5H78L62 161.5L47 164L27 131Z" fill="#98D2FC"/>
<path d="M-3 143.5L15.5 130L20.5 113L-9.5 99.5L-3 143.5Z" fill="#98D2FC"/>
</g>
<defs>
<clipPath id="clip0_486_4034">
<rect width="180" height="180" fill="white"/>
</clipPath>
</defs>
</svg>
