<svg width="180" height="180" viewBox="0 0 180 180" fill="none" xmlns="http://www.w3.org/2000/svg">
<g clip-path="url(#clip0_480_2063)">
<rect width="180" height="180" fill="#478358"/>
<path d="M134.5 61.5L51.5 92.5L47.5702 52.8452C46.6869 43.9314 52.8717 35.8615 61.7087 34.3974L114.776 25.6052C123.301 24.1927 131.254 30.2577 132.147 38.8534L134.5 61.5Z" fill="#2A5034"/>
<path d="M116.545 44.0217L65.0949 63.0996C63.8667 63.555 62.5395 62.7265 62.4094 61.423L59.1864 29.1337C59.0816 28.0837 59.8106 27.1328 60.8519 26.9616L113.24 18.3443C114.376 18.1575 115.434 18.9651 115.554 20.1096L117.838 41.9383C117.934 42.8467 117.401 43.7041 116.545 44.0217Z" fill="#2A5034"/>
<path d="M92.8942 117C85.0257 109.796 75.9665 110.154 69.0618 112.532C63.1352 114.574 59.8856 120.562 55.3606 124.9C45.7237 134.139 28.7478 134.102 20 132.523C39.9975 164.863 107.731 130.583 92.8942 117Z" fill="#2A5034"/>
<path d="M93.1058 118C100.974 110.796 110.033 111.154 116.938 113.532C122.865 115.574 126.114 121.562 130.639 125.9C140.276 135.139 157.252 135.102 166 133.523C146.002 165.863 78.2689 131.583 93.1058 118Z" fill="#2A5034"/>
<path d="M7.71869 81.6724L14.3759 81.0672L14.1267 77.7564L5.54709 77.792L5.15549 102H7.50509L7.71869 81.6724ZM30.3366 102L32.7574 101.502L25.6374 77.2936H22.3622L14.8862 101.395L18.375 102.356L20.6178 93.7764L27.6666 93.1712L30.3366 102ZM24.1066 81.3164L27.1682 91.498L21.1162 91.854L24.1066 81.3164ZM38.5344 91.9964L47.7904 91.8184L50.9588 89.1484L50.9944 81.3876L47.6124 77.6496H35.4016V102H38.4276L38.5344 91.9964ZM38.5344 89.8604L38.6412 80.1772L45.6188 80.6044L48.2176 82.5268L47.5412 87.8312L45.868 89.7892L38.5344 89.8604ZM68.9707 102.071L68.0807 77.7208L65.0547 77.5428L56.7599 94.6664L57.2227 77.614H53.3067L53.2711 101.751L55.6207 101.858L64.6987 83.1676L65.1971 102.071H68.9707ZM83.9422 99.864V89.896L81.0586 87.404L76.0034 87.6176L76.0746 80.996L83.4082 80.5688L82.9098 77.4004H73.9386L73.2266 102H81.0586L83.9422 99.864ZM75.7898 99.4012L75.9678 89.4332L79.777 89.2552L81.379 90.964L81.3434 97.6924L80.0974 98.6892L75.7898 99.4012ZM100.528 102L102.949 101.502L95.8292 77.2936H92.554L85.078 101.395L88.5668 102.356L90.8096 93.7764L97.8584 93.1712L100.528 102ZM94.2984 81.3164L97.36 91.498L91.308 91.854L94.2984 81.3164ZM113.603 83.5592L118.409 101.964H121.863L114.387 77.5784H111.788L103.956 101.964H106.946L113.603 83.5592ZM129.918 77.4716H126.002L124.471 102H132.374L137.786 98.44L138.035 91.2844L135.151 88.116L129.17 89.54L129.918 77.4716ZM133.656 91.0352L135.151 92.6016L134.938 97.0516L130.559 99.864L128.601 99.4724L129.064 92.1032L133.656 91.0352ZM140.857 105.382L140.287 101.964H154.954V105.24L157.019 105.489L157.482 100.861L156.877 99.864L153.886 99.9352L150.931 78.1836L149.863 77.2224H146.802L141.141 100.113L138.507 100.149L137.973 100.932L138.578 105.56L140.857 105.382ZM147.87 80.5332L150.291 99.9708L143.633 100.078L147.87 80.5332ZM175.041 102.071L174.151 77.7208L171.125 77.5428L162.83 94.6664L163.293 77.614H159.377L159.341 101.751L161.691 101.858L170.769 83.1676L171.267 102.071H175.041Z" fill="white"/>
</g>
<defs>
<clipPath id="clip0_480_2063">
<rect width="180" height="180" fill="white"/>
</clipPath>
</defs>
</svg>
