<svg width="180" height="180" viewBox="0 0 180 180" fill="none" xmlns="http://www.w3.org/2000/svg">
<g clip-path="url(#clip0_486_4011)">
<rect width="180" height="180" fill="#D76950"/>
<path d="M16.5 152C19.7 128.4 -4.5 65.1666 -17 36.5V-18C27 -19 115.3 -20.4 116.5 -18C118 -15 126 -15 109.5 36.5C96.3 77.7 133 120.333 153 136.5C143 152.5 97.5 152 67.5 139.5C43.5 129.5 23.5 143.667 16.5 152Z" fill="#FFBE3F"/>
<path d="M30.0722 80.198C30.5078 80.2376 30.9038 80.2376 31.3394 80.2376C37.3586 80.2376 42.5462 77.7824 42.5462 71.684C42.5462 69.0704 41.1206 66.6152 38.3882 65.4668C40.7246 63.6848 41.9522 61.1504 41.9522 58.7348C41.9522 55.448 39.6554 52.5176 34.745 52.5176C33.5174 52.5176 32.2898 52.7552 31.1414 53.1512L31.7354 55.5272C32.4482 55.3292 33.3194 55.1708 34.2302 55.1708C37.4378 55.1708 38.7842 56.9528 38.7842 59.012C38.7842 61.1504 37.3586 63.566 35.0618 64.7144C34.0322 64.7144 33.4778 64.754 32.9234 64.8332V67.2488C33.2006 67.2092 33.4778 67.2092 33.755 67.2092C37.2794 67.2092 38.903 69.11 38.903 71.1296C38.903 75.9608 33.8342 76.1984 30.5078 76.0004L30.0722 80.198ZM51.8791 80H56.6311L60.2743 75.1292L60.7099 57.7052L55.8787 52.676H48.7111L45.3055 57.5468L44.9095 74.9708L51.8791 80ZM54.1363 55.2104L56.6707 58.7348L55.8787 74.7728L53.3443 77.2676L48.1567 73.5452L48.6715 57.5072L50.4139 55.0916L54.1363 55.2104ZM73.1455 59.4872L78.4915 79.9604H82.3327L74.0167 52.8344H71.1259L62.4139 79.9604H65.7403L73.1455 59.4872ZM90.1256 80H94.8776L98.5208 75.1292L98.9564 57.7052L94.1252 52.676H86.9576L83.552 57.5468L83.156 74.9708L90.1256 80ZM92.3828 55.2104L94.9172 58.7348L94.1252 74.7728L91.5908 77.2676L86.4032 73.5452L86.918 57.5072L88.6604 55.0916L92.3828 55.2104ZM115.214 52.5572L99.4928 53.468L99.6512 55.6856H105.71L105.195 79.8812L108.601 79.406L109.789 55.6856L115.056 55.7648L115.214 52.5572ZM122.61 80H127.362L131.005 75.1292L131.441 57.7052L126.61 52.676H119.442L116.036 57.5468L115.64 74.9708L122.61 80ZM124.867 55.2104L127.402 58.7348L126.61 74.7728L124.075 77.2676L118.888 73.5452L119.402 57.5072L121.145 55.0916L124.867 55.2104ZM145.5 46.0628C144.352 46.9736 143.322 47.3696 142.332 47.3696C140.906 47.3696 139.56 46.6172 138.016 45.548L136.194 48.0032C137.738 49.3892 139.52 50.0228 141.223 50.0228C143.243 50.0228 145.144 49.1516 146.45 47.726L145.5 46.0628ZM147.757 80L146.767 52.6364H144.193L139.204 72.3176L139.322 52.7552L134.966 52.676L136.946 80H139.56L144.589 59.6852L145.698 80H147.757ZM50.6124 117.624V106.536L47.4048 103.764L41.7816 104.002L41.8608 96.636L50.0184 96.1608L49.464 92.6364H39.4848L38.6928 120H47.4048L50.6124 117.624ZM41.544 117.109L41.742 106.021L45.9792 105.823L47.7612 107.724L47.7216 115.208L46.3356 116.317L41.544 117.109ZM69.0622 120L71.755 119.446L63.835 92.5176H60.1918L51.8758 119.327L55.7566 120.396L58.2514 110.852L66.0922 110.179L69.0622 120ZM62.1322 96.9924L65.5378 108.318L58.8058 108.714L62.1322 96.9924ZM78.1811 108.872L88.4771 108.674L92.0015 105.704L92.0411 97.0716L88.2791 92.9136H74.6963V120H78.0623L78.1811 108.872ZM78.1811 106.496L78.2999 95.7252L86.0615 96.2004L88.9523 98.3388L88.1999 104.239L86.3387 106.417L78.1811 106.496ZM97.2268 120.119L101.345 108.041L106.216 120.198L109.384 119.05L102.89 105.15L108.354 92.9928L104.949 92.7156L101.345 103.21L96.5536 92.9136L94.0588 94.1412L99.484 105.15L93.2668 119.842L97.2268 120.119ZM128.23 120L130.923 119.446L123.003 92.5176H119.36L111.044 119.327L114.925 120.396L117.419 110.852L125.26 110.179L128.23 120ZM121.3 96.9924L124.706 108.318L117.974 108.714L121.3 96.9924ZM143.735 92.5572L128.013 93.468L128.172 95.6856H134.231L133.716 119.881L137.121 119.406L138.309 95.6856L143.576 95.7648L143.735 92.5572Z" fill="white"/>
</g>
<defs>
<clipPath id="clip0_486_4011">
<rect width="180" height="180" fill="white"/>
</clipPath>
</defs>
</svg>
