<svg width="180" height="180" viewBox="0 0 180 180" fill="none" xmlns="http://www.w3.org/2000/svg">
<g clip-path="url(#clip0_486_3948)">
<rect width="180" height="180" fill="#EAB144"/>
<path fill-rule="evenodd" clip-rule="evenodd" d="M99.467 44.2604C96.1912 44.952 93.1491 46.9716 91.7529 50.9926C90.0596 55.8689 94.5596 61.6955 100.28 69.1017C110.255 82.0171 123.94 99.7363 114.96 125.597C113.929 128.566 112.702 131.393 111.271 134C112.702 131.393 113.929 128.566 114.96 125.597C123.94 99.7363 110.255 82.0171 100.28 69.1017C94.5597 61.6955 90.0597 55.8689 91.753 50.9926C93.1492 46.9717 96.1912 44.952 99.467 44.2604ZM69.1578 91.2074C69.0567 92.2884 68.9285 93.485 68.7909 94.7694C67.6484 105.435 65.8574 122.154 73.5407 128.984C65.8575 122.154 67.6485 105.435 68.791 94.7695C68.9286 93.485 69.0568 92.2884 69.1579 91.2074L69.1578 91.2074ZM77.1619 131.158C77.2547 131.193 77.3484 131.227 77.443 131.26C77.443 131.26 77.4431 131.26 77.4431 131.26C77.3485 131.227 77.2547 131.193 77.1619 131.158ZM125.036 20.2399L119.937 35.5164C119.937 35.5164 119.937 35.5164 119.937 35.5164L125.036 20.2399L125.036 20.2399ZM127.12 40.8575C133.368 47.138 136.596 56.0381 134.911 65.7736L134.911 65.7736C136.596 56.0381 133.368 47.138 127.12 40.8575ZM131.979 17.1927L126.665 33.111C136.907 40.4984 142.842 52.9106 140.449 66.7324L139.672 71.2242L114.372 72.1481L114.305 66.3855C114.282 64.3325 113.851 60.6884 112.357 57.2946C110.9 53.9845 108.631 51.3017 105.026 50.0499C103.533 49.5315 101.612 49.425 100.052 49.9092C98.7037 50.3275 97.6515 51.1405 97.0627 52.8363C97.0255 52.9435 96.8957 53.3619 97.2981 54.5062C97.7259 55.7226 98.596 57.2961 100.034 59.3825C101.344 61.2838 102.926 63.3322 104.75 65.6945L105.229 66.315C107.216 68.8894 109.414 71.7598 111.549 74.8765C120.179 87.471 128.17 104.689 120.269 127.441C117.224 136.21 112.396 144.439 105.183 149.772C99.0542 154.302 91.5856 156.452 82.9814 155.465L78.9776 173.079L52.6576 165.743L59.1452 145.78C47.9636 137.594 44.1346 126.645 43.5964 116.173C43.1347 107.193 45.1231 98.1584 46.516 91.8295C46.8328 90.3903 47.1188 89.091 47.3381 87.9641L48.3495 82.7682L75.2575 86.3488L74.7542 91.7308C74.6407 92.944 74.5028 94.2378 74.3587 95.5908C73.7791 101.03 73.0976 107.426 73.4912 113.371C74.0103 121.213 76.172 124.868 79.2869 125.95C81.2562 126.634 82.5966 126.694 83.5028 126.552C84.3592 126.418 85.1628 126.055 86.0249 125.298C87.9926 123.569 89.969 120.069 92.0272 114.142C95.0088 105.556 95.553 93.7945 85.0983 81.7817C79.7377 75.6587 75.4901 70.0242 73.1943 64.2546C70.7691 58.1599 70.6063 52.148 72.858 45.6637C77.2823 32.9226 88.8226 25.9614 101.979 25.7729L107.013 6L131.979 17.1927Z" fill="#4CB469"/>
<path d="M38.0293 63.178C38.4209 63.2136 38.7769 63.2136 39.1685 63.2136C44.5797 63.2136 49.2433 61.0064 49.2433 55.524C49.2433 53.1744 47.9617 50.9672 45.5053 49.9348C47.6057 48.3328 48.7093 46.0544 48.7093 43.8828C48.7093 40.928 46.6445 38.2936 42.2301 38.2936C41.1265 38.2936 40.0229 38.5072 38.9905 38.8632L39.5245 40.9992C40.1653 40.8212 40.9485 40.6788 41.7673 40.6788C44.6509 40.6788 45.8613 42.2808 45.8613 44.132C45.8613 46.0544 44.5797 48.226 42.5149 49.2584C41.5893 49.2584 41.0909 49.294 40.5925 49.3652V51.5368C40.8417 51.5012 41.0909 51.5012 41.3401 51.5012C44.5085 51.5012 45.9681 53.21 45.9681 55.0256C45.9681 59.3688 41.4113 59.5824 38.4209 59.4044L38.0293 63.178ZM57.6335 63H61.9055L65.1807 58.6212L65.5723 42.9572L61.2291 38.436H54.7855L51.7239 42.8148L51.3679 58.4788L57.6335 63ZM59.6627 40.7144L61.9411 43.8828L61.2291 58.3008L58.9507 60.5436L54.2871 57.1972L54.7499 42.7792L56.3163 40.6076L59.6627 40.7144ZM76.7518 44.5592L81.5578 62.9644H85.011L77.535 38.5784H74.9362L67.1042 62.9644H70.0946L76.7518 44.5592ZM92.0167 63H96.2887L99.5639 58.6212L99.9555 42.9572L95.6123 38.436H89.1687L86.1071 42.8148L85.7511 58.4788L92.0167 63ZM94.0459 40.7144L96.3243 43.8828L95.6123 58.3008L93.3339 60.5436L88.6703 57.1972L89.1331 42.7792L90.6995 40.6076L94.0459 40.7144ZM114.571 38.3292L100.438 39.148L100.58 41.1416H106.027L105.564 62.8932L108.626 62.466L109.694 41.1416L114.429 41.2128L114.571 38.3292ZM121.22 63H125.492L128.767 58.6212L129.159 42.9572L124.815 38.436H118.372L115.31 42.8148L114.954 58.4788L121.22 63ZM123.249 40.7144L125.527 43.8828L124.815 58.3008L122.537 60.5436L117.873 57.1972L118.336 42.7792L119.903 40.6076L123.249 40.7144ZM134.856 42.2096L142.118 41.818V38.6496L132.827 38.6496L132.328 63H142.118V59.974L134.357 59.2976L134.571 51.5724L140.374 52.3556V49.7568H134.642L134.856 42.2096ZM23.435 97.576L24.7166 99H44.2966L43.4422 74.5428L39.633 75.0768L41.0214 96.4012H34.7202L34.293 86.184H31.6586L32.3706 96.33H26.3186L25.7134 74.7564L22.2602 74.436L23.435 97.576ZM62.3905 99L64.8113 98.5016L57.6913 74.2936H54.4161L46.9401 98.3948L50.4289 99.356L52.6717 90.7764L59.7205 90.1712L62.3905 99ZM56.1605 78.3164L59.2221 88.498L53.1701 88.854L56.1605 78.3164ZM75.7503 83.514L69.1287 74.5072L67.8827 75.0412L66.3875 99L69.1643 99.3204L69.8051 80.7372L75.4299 88.0708L82.0871 80.844L82.7279 99.0356L85.8251 98.8576L85.1487 75.7176L83.2975 74.5072L75.7503 83.514ZM92.0718 76.2516H100.331V99.2136L104.354 98.7508V74.5072H90.0426L89.0102 75.2192V99H92.0718V76.2516ZM122.431 99L124.852 98.5016L117.732 74.2936H114.456L106.98 98.3948L110.469 99.356L112.712 90.7764L119.761 90.1712L122.431 99ZM116.201 78.3164L119.262 88.498L113.21 88.854L116.201 78.3164ZM142.234 98.9644L142.27 74.4716H138.425L138.318 86.0772L130.308 85.8992L130.379 74.4716H127.496L127.923 98.9644H130.201L130.308 87.7504H138.318L138.176 98.9644H142.234ZM150.356 99H157.405L159.506 94.4788L156.8 93.126L155.412 96.152L151.389 96.0096L148.861 92.8412L149.573 79.1708L151.389 76.8212L154.842 77.4976L156.337 80.7728L158.865 79.4556L156.622 74.4716H149.609L145.942 78.8504L145.479 94.4788L150.356 99ZM74.7646 121.294L81.7422 135.107L85.3022 133.861L76.2598 119.834L83.807 112.643L81.849 110.65L74.5154 119.3H73.7678L73.839 110.685L70.279 110.507L69.9586 135.142L73.483 134.964L73.5898 121.436L74.7646 121.294ZM91.3909 135H95.6629L98.9381 130.621L99.3297 114.957L94.9865 110.436H88.5429L85.4813 114.815L85.1253 130.479L91.3909 135ZM93.4201 112.714L95.6985 115.883L94.9865 130.301L92.7081 132.544L88.0445 129.197L88.5073 114.779L90.0737 112.608L93.4201 112.714ZM105.027 114.21L112.289 113.818V110.65H102.998L102.499 135H112.289V131.974L104.528 131.298L104.742 123.572L110.545 124.356V121.757H104.813L105.027 114.21Z" fill="white"/>
</g>
<defs>
<clipPath id="clip0_486_3948">
<rect width="180" height="180" fill="white"/>
</clipPath>
</defs>
</svg>
