<svg width="180" height="180" viewBox="0 0 180 180" fill="none" xmlns="http://www.w3.org/2000/svg">
<g clip-path="url(#clip0_486_4048)">
<rect width="180" height="180" fill="#06451B"/>
<path d="M54.5002 87.3398C38.1002 70.5398 46.0002 48.6732 52.0002 39.8398H23C23 80.6398 44.0002 88.5065 54.5002 87.3398Z" fill="#26871B"/>
<path d="M126 87.3398C142.4 70.5398 134.5 48.6732 128.5 39.8398H157.5C157.5 80.6398 136.5 88.5065 126 87.3398Z" fill="#26871B"/>
<path d="M69.5 19.339C59.9 33.739 28.5 39.339 14 40.339C35.2 52.3384 74.5 49.006 91.5 45.8398V21.839C88.1667 15.0057 79.1 4.93903 69.5 19.339Z" fill="#26871B"/>
<path d="M113 19.339C122.6 33.739 154 39.339 168.5 40.339C147.3 52.3384 108 49.006 91 45.8398V21.839C94.3333 15.0057 103.4 4.93903 113 19.339Z" fill="#26871B"/>
<path d="M29.9755 80.198C30.4111 80.2376 30.8071 80.2376 31.2427 80.2376C37.2619 80.2376 42.4495 77.7824 42.4495 71.684C42.4495 69.0704 41.0239 66.6152 38.2915 65.4668C40.6279 63.6848 41.8555 61.1504 41.8555 58.7348C41.8555 55.448 39.5587 52.5176 34.6483 52.5176C33.4207 52.5176 32.1931 52.7552 31.0447 53.1512L31.6387 55.5272C32.3515 55.3292 33.2227 55.1708 34.1335 55.1708C37.3411 55.1708 38.6875 56.9528 38.6875 59.012C38.6875 61.1504 37.2619 63.566 34.9651 64.7144C33.9355 64.7144 33.3811 64.754 32.8267 64.8332V67.2488C33.1039 67.2092 33.3811 67.2092 33.6583 67.2092C37.1827 67.2092 38.8063 69.11 38.8063 71.1296C38.8063 75.9608 33.7375 76.1984 30.4111 76.0004L29.9755 80.198ZM48.852 56.8736L56.9304 56.438V52.9136H46.5948L46.0404 80H56.9304V76.634L48.2976 75.8816L48.5352 67.2884L54.99 68.1596V65.2688H48.6144L48.852 56.8736ZM69.5297 59.4872L74.8757 79.9604H78.7169L70.4009 52.8344H67.5101L58.7981 79.9604H62.1245L69.5297 59.4872ZM84.4301 56.8736L92.5085 56.438V52.9136H82.1729L81.6185 80H92.5085V76.634L83.8757 75.8816L84.1133 67.2884L90.5681 68.1596V65.2688H84.1925L84.4301 56.8736ZM111.355 79.9604L111.394 52.7156H107.118L106.999 65.6252L98.0887 65.4272L98.1679 52.7156H94.9603L95.4355 79.9604H97.9699L98.0887 67.4864H106.999L106.84 79.9604H111.355ZM131.517 80L134.21 79.4456L126.29 52.5176H122.647L114.331 79.3268L118.212 80.396L120.707 70.8524L128.547 70.1792L131.517 80ZM124.587 56.9924L127.993 68.318L121.261 68.714L124.587 56.9924ZM145.199 68.12L144.724 80H147.853V52.874H138.23L135.814 56.1608V65.3876L137.834 68.12H140.249L135.656 79.406L139.022 80.396L143.457 68.12H145.199ZM145.199 65.546H140.249L138.745 63.8828V57.3884L140.408 55.2896L145.199 55.2896V65.546ZM50.4007 120.317L53.7271 97.2696L59.5879 111.486H62.0827L68.6959 98.3388L70.8343 120.277L75.0319 119.96L72.1807 93.468L68.8543 92.9928L60.8947 108.595L54.5191 92.9136L51.6283 93.3096L46.3219 119.723L50.4007 120.317ZM76.8607 120.238L87.9091 119.366L91.7899 105.15L90.7207 98.9328L87.5923 92.2404L77.6923 93.9828L79.1971 97.9824L85.4539 95.7252L87.7507 99.5664L88.4239 104.358L79.5139 103.962L79.6327 107.209L88.5823 106.972L85.5331 116.872L76.9795 116.119L76.8607 120.238ZM98.8318 108.872L109.128 108.674L112.652 105.704L112.692 97.0716L108.93 92.9136H95.347V120H98.713L98.8318 108.872ZM98.8318 106.496L98.9506 95.7252L106.712 96.2004L109.603 98.3388L108.851 104.239L106.989 106.417L98.8318 106.496ZM132.688 120.079L131.698 92.9928L128.332 92.7948L119.105 111.842L119.62 92.874H115.264L115.224 119.723L117.838 119.842L127.936 99.0516L128.49 120.079H132.688Z" fill="white"/>
<path d="M116 125.068C125.892 135.654 121.127 149.434 117.508 155L135 155C135 129.29 122.333 124.332 116 125.068Z" fill="#26871B"/>
<path d="M66 125.068C55.5874 135.654 60.6032 149.434 64.4127 155L46 155C46 129.29 59.3333 124.332 66 125.068Z" fill="#26871B"/>
<path d="M90 150.5C58 150.5 43.3333 154.833 40 157C47 161.167 66.8 169.5 90 169.5V150.5Z" fill="#26871B"/>
<path d="M90 150.5C122 150.5 136.667 154.833 140 157C133 161.167 113.2 169.5 90 169.5V150.5Z" fill="#26871B"/>
</g>
<defs>
<clipPath id="clip0_486_4048">
<rect width="180" height="180" fill="white"/>
</clipPath>
</defs>
</svg>
