<svg width="180" height="180" viewBox="0 0 180 180" fill="none" xmlns="http://www.w3.org/2000/svg">
<g clip-path="url(#clip0_486_4053)">
<rect width="180" height="180" fill="#49BC70"/>
<path d="M115 113.5L88 158.5L93 163.5L130.5 127L115 113.5Z" fill="#1F3930"/>
<path d="M64.8164 67.5L91.8164 112.5L86.8164 117.5L49.3164 81L64.8164 67.5Z" fill="#1F3930"/>
<ellipse cx="136.908" cy="99.382" rx="32" ry="39" transform="rotate(36.4381 136.908 99.382)" fill="#275322"/>
<ellipse rx="32" ry="39" transform="matrix(-0.804499 0.593954 0.593954 0.804499 42.9081 53.382)" fill="#275322"/>
<path d="M150 131C117.2 123 108 94.6667 107.5 81.5C107.012 77.1 113.297 73.3333 116.5 72C120.1 95.2 153.667 105.667 170 108C170 116.4 156.667 126.833 150 131Z" fill="#3A8332"/>
<path d="M29.8164 85C62.6164 77 71.8164 48.6667 72.3164 35.5C72.8047 31.1 66.5199 27.3333 63.3164 26C59.7164 49.2 26.1497 59.6667 9.81637 62C9.81637 70.4 23.1497 80.8333 29.8164 85Z" fill="#3A8332"/>
<path d="M27.2105 60.198C27.6461 60.2376 28.0421 60.2376 28.4777 60.2376C34.4969 60.2376 39.6845 57.7824 39.6845 51.684C39.6845 49.0704 38.2589 46.6152 35.5265 45.4668C37.8629 43.6848 39.0905 41.1504 39.0905 38.7348C39.0905 35.448 36.7937 32.5176 31.8833 32.5176C30.6557 32.5176 29.4281 32.7552 28.2797 33.1512L28.8737 35.5272C29.5865 35.3292 30.4577 35.1708 31.3685 35.1708C34.5761 35.1708 35.9225 36.9528 35.9225 39.012C35.9225 41.1504 34.4969 43.566 32.2001 44.7144C31.1705 44.7144 30.6161 44.754 30.0617 44.8332V47.2488C30.3389 47.2092 30.6161 47.2092 30.8933 47.2092C34.4177 47.2092 36.0413 49.11 36.0413 51.1296C36.0413 55.9608 30.9725 56.1984 27.6461 56.0004L27.2105 60.198ZM46.087 36.8736L54.1654 36.438V32.9136H43.8298L43.2754 60H54.1654V56.634L45.5326 55.8816L45.7702 47.2884L52.225 48.1596V45.2688H45.8494L46.087 36.8736ZM66.7647 39.4872L72.1107 59.9604H75.9519L67.6359 32.8344H64.7451L56.0331 59.9604H59.3595L66.7647 39.4872ZM81.6651 36.8736L89.7435 36.438V32.9136H79.4079L78.8535 60H89.7435V56.634L81.1107 55.8816L81.3483 47.2884L87.8031 48.1596V45.2688H81.4275L81.6651 36.8736ZM108.59 59.9604L108.629 32.7156H104.352L104.234 45.6252L95.3237 45.4272L95.4029 32.7156H92.1953L92.6705 59.9604H95.2049L95.3237 47.4864H104.234L104.075 59.9604H108.59ZM113.387 33.1116L114.575 57.8616L117.149 60H123.802L125.584 56.2776L124.832 46.932L122.06 43.8432L117.862 43.5264L117.387 32.8344L113.387 33.1116ZM133.069 32.8344H128.554L128.871 60H132.079L133.069 32.8344ZM121.189 46.2192L122.099 47.6844L122.812 56.0796L121.981 57.9804L118.496 57.5844L117.981 45.942L121.189 46.2192ZM148.362 26.0628C147.213 26.9736 146.184 27.3696 145.194 27.3696C143.768 27.3696 142.422 26.6172 140.877 25.548L139.056 28.0032C140.6 29.3892 142.382 30.0228 144.085 30.0228C146.104 30.0228 148.005 29.1516 149.312 27.726L148.362 26.0628ZM150.619 60L149.629 32.6364H147.055L142.065 52.3176L142.184 32.7552L137.828 32.676L139.808 60H142.422L147.451 39.6852L148.56 60H150.619ZM33.1662 82.774L25.8006 72.7552L24.4146 73.3492L22.7514 100L25.8402 100.356L26.553 79.6852L32.8098 87.8428L40.215 79.804L40.9278 100.04L44.373 99.8416L43.6206 74.1016L41.5614 72.7552L33.1662 82.774ZM50.7276 76.8736L58.806 76.438V72.9136H48.4704L47.916 100H58.806V96.634L50.1732 95.8816L50.4108 87.2884L56.8656 88.1596V85.2688H50.49L50.7276 76.8736ZM66.6038 84.754L74.3654 100.119L78.3254 98.7328L68.267 83.1304L76.6622 75.1312L74.4842 72.9136L66.3266 82.5364H65.495L65.5742 72.9532L61.6142 72.7552L61.2578 100.158L65.1782 99.9604L65.297 84.9124L66.6038 84.754ZM84.4442 100H92.285L94.6214 94.9708L91.6118 93.466L90.0674 96.832L85.5926 96.6736L82.781 93.1492L83.573 77.9428L85.5926 75.3292L89.4338 76.0816L91.097 79.7248L93.9086 78.2596L91.4138 72.7156H83.6126L79.5338 77.5864L79.019 94.9708L84.4442 100ZM115.073 100.079L114.083 72.9928L110.717 72.7948L101.49 91.8424L102.005 72.874H97.649L97.6094 99.7228L100.223 99.8416L110.321 79.0516L110.875 100.079H115.073ZM125.153 84.754L132.915 100.119L136.875 98.7328L126.816 83.1304L135.211 75.1312L133.033 72.9136L124.876 82.5364H124.044L124.123 72.9532L120.163 72.7552L119.807 100.158L123.727 99.9604L123.846 84.9124L125.153 84.754ZM155.359 100L158.051 99.4456L150.131 72.5176H146.488L138.172 99.3268L142.053 100.396L144.548 90.8524L152.389 90.1792L155.359 100ZM148.429 76.9924L151.834 88.318L145.102 88.714L148.429 76.9924ZM79.5664 139.96L79.606 112.716H75.3292L75.2104 125.625L66.3004 125.427L66.3796 112.716H63.172L63.6472 139.96H66.1816L66.3004 127.486H75.2104L75.052 139.96H79.5664ZM87.1758 116.874L95.2542 116.438V112.914H84.9186L84.3642 140H95.2542V136.634L86.6214 135.882L86.859 127.288L93.3138 128.16V125.269H86.9382L87.1758 116.874ZM97.706 112.755V139.802H113.982L112.794 145.782L116.872 146.574L118.179 138.456L117.15 136.872H115.17L115.09 112.478L110.814 112.795L111.645 136.872H100.755L100.953 113.27L97.706 112.755Z" fill="white"/>
</g>
<defs>
<clipPath id="clip0_486_4053">
<rect width="180" height="180" fill="white"/>
</clipPath>
</defs>
</svg>
