<svg width="180" height="180" viewBox="0 0 180 180" fill="none" xmlns="http://www.w3.org/2000/svg">
<g clip-path="url(#clip0_480_2335)">
<rect width="180" height="180" fill="#D76950"/>
<path d="M167.235 99.1763C167.235 122.827 148.063 142 124.412 142C100.761 142 81.5884 122.827 81.5884 99.1763C81.5884 75.5255 100.761 66.2939 124.412 66.2939C148.063 66.2939 167.235 75.5255 167.235 99.1763Z" fill="#C62E2E"/>
<path d="M97.6471 99.1763C97.6471 122.827 78.4743 142 54.8235 142C31.1727 142 12 122.827 12 99.1763C12 75.5255 31.1727 66.2939 54.8235 66.2939C78.4743 66.2939 97.6471 75.5255 97.6471 99.1763Z" fill="#9E2828"/>
<path d="M116.765 25.5712C95.9648 20.3712 72.4118 51.9536 63.2354 68.3947C97.4942 34.7476 109.628 34.2379 111.412 38.1889C109.118 49.2772 112.304 60.238 116.765 64.9536C113.094 57.0007 120.588 43.7968 124.794 38.1889L116.765 25.5712Z" fill="#148D3D"/>
<path d="M34.5769 99H38.1013L37.6385 75.2192L36.6061 74.2936L22.2949 74.5072V98.7508L26.3177 99.2136V76.2516H34.8261L34.5769 99ZM47.5515 99H51.8235L55.0987 94.6212L55.4903 78.9572L51.1471 74.436H44.7035L41.6419 78.8148L41.2859 94.4788L47.5515 99ZM49.5807 76.7144L51.8591 79.8828L51.1471 94.3008L48.8687 96.5436L44.2051 93.1972L44.6679 78.7792L46.2343 76.6076L49.5807 76.7144ZM61.7214 76.2516H69.9806V99.2136L74.0034 98.7508V74.5072H59.6922L58.6598 75.2192V99H61.7214V76.2516ZM92.0804 99L94.5012 98.5016L87.3812 74.2936H84.106L76.63 98.3948L80.1188 99.356L82.3616 90.7764L89.4104 90.1712L92.0804 99ZM85.8504 78.3164L88.912 88.498L82.86 88.854L85.8504 78.3164ZM107.634 78.2096L114.897 77.818V74.6496H105.605L105.107 99H114.897V95.974L107.136 95.2976L107.349 87.5724L113.152 88.3556V85.7568H107.421L107.634 78.2096ZM130.415 86.362L137.393 99.1068L140.953 97.8608L132.373 84.582L139.458 76.6432L137.5 74.6496L130.166 84.3684H129.418L129.49 74.6852L125.609 74.5072L125.467 84.3684H125.396L118.062 74.6496L115.784 77.2128L122.654 85.3652L115.143 98.644L118.489 99.4984L125.146 86.362L125.431 86.3976L125.289 99.1424L129.134 98.9644L129.24 86.5044L130.415 86.362ZM157.092 99L159.513 98.5016L152.393 74.2936H149.118L141.642 98.3948L145.131 99.356L147.373 90.7764L154.422 90.1712L157.092 99ZM150.862 78.3164L153.924 88.498L147.872 88.854L150.862 78.3164Z" fill="white"/>
</g>
<defs>
<clipPath id="clip0_480_2335">
<rect width="180" height="180" fill="white"/>
</clipPath>
</defs>
</svg>
