<svg width="180" height="180" viewBox="0 0 180 180" fill="none" xmlns="http://www.w3.org/2000/svg">
<g clip-path="url(#clip0_480_1979)">
<rect width="180" height="180" fill="#1F6981"/>
<path d="M53.7186 131.5C32.5186 171.9 50.8853 189 62.7186 192.5L217.219 201C216.552 194.167 214.619 178.3 212.219 169.5C209.219 158.5 203.219 89.5 196.719 66C191.519 47.2 175.885 32.8333 168.719 28C177.219 36.5 178.719 72.5 153.219 66C132.819 60.8 131.052 18.5 132.719 -2C123.219 8.83333 107.119 39.7 118.719 76.5C133.219 122.5 68.2188 145.5 78.7188 117.5C87.1188 95.1 75.2188 73.8333 68.2188 66C72.2187 71 74.9186 91.1 53.7186 131.5Z" fill="#E0204E"/>
<path d="M25.9235 85.5856L33.1307 72.7948L29.2499 72.3988L24.2603 81.6256L20.6567 72.7948H16.0235L21.9239 85.744L14.7167 99.8416L18.0035 100.04L23.6267 89.4268L28.4975 99.9604L32.0219 100.04L25.9235 85.5856ZM41.0123 100H45.7643L49.4075 95.1292L49.8431 77.7052L45.0119 72.676H37.8443L34.4387 77.5468L34.0427 94.9708L41.0123 100ZM43.2695 75.2104L45.8039 78.7348L45.0119 94.7728L42.4775 97.2676L37.2899 93.5452L37.8047 77.5072L39.5471 75.0916L43.2695 75.2104ZM66.1007 72.5572L50.3795 73.468L50.5379 75.6856H56.5967L56.0819 99.8812L59.4875 99.406L60.6755 75.6856L65.9423 75.7648L66.1007 72.5572ZM82.8073 84.754L90.5689 100.119L94.5289 98.7328L84.4705 83.1304L92.8657 75.1312L90.6877 72.9136L82.5301 82.5364H81.6985L81.7777 72.9532L77.8177 72.7552L77.4613 100.158L81.3817 99.9604L81.5005 84.9124L82.8073 84.754ZM113.874 100.079L112.884 72.9928L109.518 72.7948L100.291 91.8424L100.806 72.874H96.4501L96.4105 99.7228L99.0241 99.8416L109.122 79.0516L109.677 100.079H113.874ZM122.093 88.8724L132.389 88.6744L135.913 85.7044L135.953 77.0716L132.191 72.9136H118.608V100H121.974L122.093 88.8724ZM122.093 86.4964L122.212 75.7252L129.973 76.2004L132.864 78.3388L132.112 84.2392L130.251 86.4172L122.093 86.4964ZM139.792 98.416L141.218 100H162.998L162.048 72.7948L157.81 73.3888L159.355 97.1092H152.346L151.87 85.744H148.94L149.732 97.03H143L142.327 73.0324L138.486 72.676L139.792 98.416Z" fill="white"/>
</g>
<defs>
<clipPath id="clip0_480_1979">
<rect width="180" height="180" fill="white"/>
</clipPath>
</defs>
</svg>
