<svg width="180" height="180" viewBox="0 0 180 180" fill="none" xmlns="http://www.w3.org/2000/svg">
<g clip-path="url(#clip0_486_3992)">
<rect width="180" height="180" fill="#D3951A"/>
<path d="M14.9998 42C-5.40018 48.4 -5.83352 80 -3.50019 95L-13 191H186.5C193.167 165 199.2 107.1 170 83.5C140.8 59.9 157.833 39 170 31.5C156.5 32.3333 132.4 42.9 144 78.5C158.5 123 132.5 132 129.5 113C127.1 97.8 114.5 94.6667 108.5 95C116 115.5 85.5 138 64.5 126C47.7 116.4 57.5 87.6667 64.5 74.5C50 74.5 49 122.5 22 105C0.4 91 8.33321 57.1667 14.9998 42Z" fill="#D32E2E"/>
<path d="M46.0214 76.3964C41.903 76.3964 40.7546 70.892 40.7546 66.0608C40.7546 61.3484 42.4574 55.1312 46.2986 55.1312C49.6646 55.1312 51.7238 60.4376 51.7238 65.942C51.7238 71.3672 49.823 76.3964 46.0214 76.3964ZM46.061 80.2376C52.1198 80.2376 55.0502 73.1492 55.0502 66.1004C55.0502 59.21 52.2386 52.3592 46.6946 52.3592C40.2002 52.3592 38.1806 61.2692 38.1806 66.5756C38.1806 72.7136 39.923 80.2376 46.061 80.2376ZM62.8266 80H70.6674L73.0038 74.9708L69.9942 73.466L68.4498 76.832L63.975 76.6736L61.1634 73.1492L61.9554 57.9428L63.975 55.3292L67.8162 56.0816L69.4794 59.7248L72.291 58.2596L69.7962 52.7156H61.995L57.9162 57.5864L57.4014 74.9708L62.8266 80ZM88.7238 52.5572L73.0026 53.468L73.161 55.6856H79.2198L78.705 79.8812L82.1106 79.406L83.2986 55.6856L88.5654 55.7648L88.7238 52.5572ZM94.7133 68.8724L105.009 68.6744L108.534 65.7044L108.573 57.0716L104.811 52.9136H91.2285V80H94.5945L94.7133 68.8724ZM94.7133 66.4964L94.8321 55.7252L102.594 56.2004L105.484 58.3388L104.732 64.2392L102.871 66.4172L94.7133 66.4964ZM124.421 80L127.114 79.4456L119.194 52.5176H115.551L107.235 79.3268L111.115 80.396L113.61 70.8524L121.451 70.1792L124.421 80ZM117.491 56.9924L120.897 68.318L114.165 68.714L117.491 56.9924ZM138.103 68.12L137.628 80H140.756V52.874L131.134 52.874L128.718 56.1608V65.3876L130.738 68.12H133.153L128.56 79.406L131.926 80.396L136.361 68.12H138.103ZM138.103 65.546H133.153L131.648 63.8828V57.3884L133.312 55.2896H138.103V65.546ZM50.4007 120.317L53.7271 97.2696L59.5879 111.486H62.0827L68.6959 98.3388L70.8343 120.277L75.0319 119.96L72.1807 93.468L68.8543 92.9928L60.8947 108.595L54.5191 92.9136L51.6283 93.3096L46.3219 119.723L50.4007 120.317ZM76.8607 120.238L87.9091 119.366L91.7899 105.15L90.7207 98.9328L87.5923 92.2404L77.6923 93.9828L79.1971 97.9824L85.4539 95.7252L87.7507 99.5664L88.4239 104.358L79.5139 103.962L79.6327 107.209L88.5823 106.972L85.5331 116.872L76.9795 116.119L76.8607 120.238ZM98.8318 108.872L109.128 108.674L112.652 105.704L112.692 97.0716L108.93 92.9136H95.347V120H98.713L98.8318 108.872ZM98.8318 106.496L98.9506 95.7252L106.712 96.2004L109.603 98.3388L108.851 104.239L106.989 106.417L98.8318 106.496ZM132.688 120.079L131.698 92.9928L128.332 92.7948L119.105 111.842L119.62 92.874H115.264L115.224 119.723L117.838 119.842L127.936 99.0516L128.49 120.079H132.688Z" fill="white"/>
</g>
<defs>
<clipPath id="clip0_486_3992">
<rect width="180" height="180" fill="white"/>
</clipPath>
</defs>
</svg>
