<svg width="180" height="180" viewBox="0 0 180 180" fill="none" xmlns="http://www.w3.org/2000/svg">
<g clip-path="url(#clip0_480_2146)">
<rect width="180" height="180" fill="#4CB469"/>
<path d="M50 40.5332L58.3793 193.045L59.7759 198.533H90.5H121.224L122.621 193.045L131 40.5332H90.5H50Z" fill="#2A8D46"/>
<path d="M130.757 28.0331C116.357 23.2331 105.757 33.0331 102.257 38.5331C95.257 13.0332 119.257 4.53305 130.757 16.033C139.957 25.233 147.924 23.533 150.757 21.533C150.09 25.6997 145.157 32.8331 130.757 28.0331Z" fill="#78E645"/>
<rect x="91" y="134.384" width="33.1523" height="33.1523" rx="9" transform="rotate(-14.6491 91 134.384)" fill="#AED8FF"/>
<rect x="72.481" y="109" width="21.9942" height="21.9942" rx="5" transform="rotate(37.8021 72.481 109)" fill="#AED8FF"/>
<path d="M28.7545 68.0416L35.2337 56.5428L31.7449 56.1868L27.2593 64.4816L24.0197 56.5428H19.8545L25.1589 68.184L18.6797 80.8576L21.6345 81.0356L26.6897 71.4948L31.0685 80.9644L34.2369 81.0356L28.7545 68.0416ZM42.3192 81H46.5912L49.8664 76.6212L50.258 60.9572L45.9148 56.436H39.4712L36.4096 60.8148L36.0536 76.4788L42.3192 81ZM44.3484 58.7144L46.6268 61.8828L45.9148 76.3008L43.6364 78.5436L38.9728 75.1972L39.4356 60.7792L41.002 58.6076L44.3484 58.7144ZM61.4376 62.5592L66.2436 80.9644H69.6968L62.2208 56.5784H59.622L51.79 80.9644H54.7804L61.4376 62.5592ZM76.7024 81H80.9744L84.2496 76.6212L84.6412 60.9572L80.298 56.436H73.8544L70.7928 60.8148L70.4368 76.4788L76.7024 81ZM78.7316 58.7144L81.01 61.8828L80.298 76.3008L78.0196 78.5436L73.356 75.1972L73.8188 60.7792L75.3852 58.6076L78.7316 58.7144ZM88.2736 84.382L87.704 80.9644H102.371V84.2396L104.436 84.4888L104.899 79.8608L104.294 78.864L101.303 78.9352L98.3484 57.1836L97.2804 56.2224H94.2188L88.5584 79.1132L85.924 79.1488L85.39 79.932L85.9952 84.56L88.2736 84.382ZM95.2868 59.5332L97.7076 78.9708L91.0504 79.0776L95.2868 59.5332ZM121.496 80.9644L121.532 56.4716H117.687L117.58 68.0772L109.57 67.8992L109.642 56.4716H106.758L107.185 80.9644H109.464L109.57 69.7504H117.58L117.438 80.9644H121.496ZM125.81 56.8276L126.878 79.0776L129.192 81H135.172L136.774 77.6536L136.098 69.252L133.606 66.4752L129.832 66.1904L129.405 56.5784L125.81 56.8276ZM143.503 56.5784H139.444L139.729 81H142.613L143.503 56.5784ZM132.823 68.6112L133.642 69.9284L134.282 77.4756L133.535 79.1844L130.402 78.8284L129.939 68.362L132.823 68.6112ZM157.251 50.4908C156.219 51.3096 155.293 51.6656 154.403 51.6656C153.121 51.6656 151.911 50.9892 150.523 50.028L148.885 52.2352C150.273 53.4812 151.875 54.0508 153.406 54.0508C155.222 54.0508 156.931 53.2676 158.105 51.986L157.251 50.4908ZM159.28 81L158.39 56.4004H156.076L151.591 74.0936L151.697 56.5072L147.781 56.436L149.561 81H151.911L156.432 62.7372L157.429 81H159.28ZM14.2363 92.8988L11.0679 92.5784L10.8187 101.834L5.76347 103.045L4.41067 101.656L5.72787 92.614L2.31027 92.4716L1.63387 102.938L5.30067 105.857L10.7475 103.97L10.4271 116.537L13.5243 117.071L14.2363 92.8988ZM32.3183 117L34.7391 116.502L27.6191 92.2936H24.3439L16.8679 116.395L20.3567 117.356L22.5995 108.776L29.6483 108.171L32.3183 117ZM26.0883 96.3164L29.1499 106.498L23.0979 106.854L26.0883 96.3164ZM46.8528 86.4908C45.8204 87.3096 44.8948 87.6656 44.0048 87.6656C42.7232 87.6656 41.5128 86.9892 40.1244 86.028L38.4868 88.2352C39.8752 89.4812 41.4772 90.0508 43.008 90.0508C44.8236 90.0508 46.5324 89.2676 47.7072 87.986L46.8528 86.4908ZM48.882 117L47.992 92.4004H45.678L41.1924 110.094L41.2992 92.5072L37.3832 92.436L39.1632 117H41.5128L46.034 98.7372L47.0308 117H48.882ZM64.9373 117H71.9861L74.0865 112.479L71.3809 111.126L69.9925 114.152L65.9697 114.01L63.4421 110.841L64.1541 97.1708L65.9697 94.8212L69.4229 95.4976L70.9181 98.7728L73.4457 97.4556L71.2029 92.4716H64.1897L60.5229 96.8504L60.0601 112.479L64.9373 117ZM87.8668 106.996L97.1228 106.818L100.291 104.148L100.327 96.3876L96.9448 92.6496H84.734V117H87.76L87.8668 106.996ZM87.8668 104.86L87.9736 95.1772L94.9512 95.6044L97.55 97.5268L96.8736 102.831L95.2004 104.789L87.8668 104.86ZM109.26 117H113.532L116.808 112.621L117.199 96.9572L112.856 92.436H106.412L103.351 96.8148L102.995 112.479L109.26 117ZM111.29 94.7144L113.568 97.8828L112.856 112.301L110.578 114.544L105.914 111.197L106.377 96.7792L107.943 94.6076L111.29 94.7144ZM128.664 101.514L122.042 92.5072L120.796 93.0412L119.301 117L122.078 117.32L122.718 98.7372L128.343 106.071L135 98.844L135.641 117.036L138.738 116.858L138.062 93.7176L136.211 92.5072L128.664 101.514ZM148.233 117H152.505L155.78 112.621L156.172 96.9572L151.828 92.436H145.385L142.323 96.8148L141.967 112.479L148.233 117ZM150.262 94.7144L152.54 97.8828L151.828 112.301L149.55 114.544L144.886 111.197L145.349 96.7792L146.916 94.6076L150.262 94.7144ZM167.636 101.514L161.014 92.5072L159.768 93.0412L158.273 117L161.05 117.32L161.691 98.7372L167.315 106.071L173.973 98.844L174.613 117.036L177.711 116.858L177.034 93.7176L175.183 92.5072L167.636 101.514Z" fill="white"/>
</g>
<defs>
<clipPath id="clip0_480_2146">
<rect width="180" height="180" fill="white"/>
</clipPath>
</defs>
</svg>
