<svg width="180" height="180" viewBox="0 0 180 180" fill="none" xmlns="http://www.w3.org/2000/svg">
<g clip-path="url(#clip0_480_2326)">
<rect width="180" height="180" fill="#CC4163"/>
<path fill-rule="evenodd" clip-rule="evenodd" d="M64.1433 153.072L87.1093 163.879C87.7444 164.178 88.4999 163.902 88.7968 163.263L119.014 98.1988C114.996 89.9787 112.567 61.4627 135 13.1597L126.732 9.26879L126.731 9.26989L121.908 7C99.4746 55.303 76.1803 71.7139 67.3373 73.8815L37.1198 138.946C36.8229 139.585 37.097 140.346 37.7321 140.644L64.1428 153.073L64.1433 153.072Z" fill="#3A2D2D"/>
<path d="M59.631 74.4716H57.2458C53.1874 74.5784 50.375 78.1384 50.375 81.4848C50.375 85.0092 52.2618 87.1452 54.5758 87.8572C51.8702 91.9512 47.4202 98.2524 47.4202 98.288L50.4106 99.6764L56.9966 88.2844L56.8186 99H60.165L59.631 74.4716ZM52.511 81.734C52.511 79.0284 54.6826 76.3584 57.2102 76.2872L57.0322 86.3264C56.8542 86.362 56.7118 86.362 56.5694 86.362C54.2198 86.362 52.511 84.3328 52.511 81.734ZM72.0362 87.3232L80.0106 87.9996L80.3666 85.1872H72.0362V87.3232ZM92.991 74.5784L92.2434 99H101.428L104.063 96.9352L104.312 87.074L101.072 84.938L103.849 78.3876L101.642 74.6852L92.991 74.5784ZM101.784 88.6048L101.606 95.2264L99.5058 96.7572L96.0882 96.4368L96.1238 87.2164L99.399 86.6824L101.784 88.6048ZM98.1174 84.8312L96.1238 85.2228L96.1594 76.8212L99.3634 76.7856L100.681 78.7436L98.1174 84.8312ZM111.28 99H118.329L120.429 94.4788L117.724 93.126L116.335 96.152L112.312 96.0096L109.785 92.8412L110.497 79.1708L112.312 76.8212L115.766 77.4976L117.261 80.7728L119.788 79.4556L117.546 74.4716H110.532L106.866 78.8504L106.403 94.4788L111.28 99ZM125.643 78.2096L132.905 77.818V74.6496H123.614L123.115 99H132.905V95.974L125.144 95.2976L125.358 87.5724L131.161 88.3556V85.7568H125.429L125.643 78.2096Z" fill="white"/>
<path d="M71.5 126L103.5 134L98.5 146.5L91 134L71.5 129L61.5 115.5L71.5 126Z" fill="#CC4163"/>
</g>
<defs>
<clipPath id="clip0_480_2326">
<rect width="180" height="180" fill="white"/>
</clipPath>
</defs>
</svg>
