<svg width="180" height="180" viewBox="0 0 180 180" fill="none" xmlns="http://www.w3.org/2000/svg">
<g clip-path="url(#clip0_480_2088)">
<rect width="180" height="180" fill="#6B291A"/>
<path d="M83 35.5L90.5 100.5H98V35.5H83Z" fill="#F2B133"/>
<path d="M51.5 97L62 136.5L135.5 124.5V91.5L51.5 97Z" fill="#CE6048"/>
<path d="M22 132.5L35 168H152.5L155 113L22 132.5Z" fill="#D7745D"/>
<path d="M43.8214 62.5728L44.0706 38.5428H40.4394L30.1154 58.2652L30.0086 38.6496L26.4842 39.0768L27.125 62.9644H30.0086L40.831 42.0316L40.6174 62.9644L43.8214 62.5728ZM51.4846 52.9964L60.7406 52.8184L63.909 50.1484L63.9446 42.3876L60.5626 38.6496H48.3518V63H51.3778L51.4846 52.9964ZM51.4846 50.8604L51.5914 41.1772L58.569 41.6044L61.1678 43.5268L60.4914 48.8312L58.8182 50.7892L51.4846 50.8604ZM74.2313 44.5592L79.0373 62.9644H82.4905L75.0145 38.5784H72.4157L64.5837 62.9644H67.5741L74.2313 44.5592ZM99.2595 63L101.68 62.5016L94.5603 38.2936H91.2851L83.8091 62.3948L87.2979 63.356L89.5407 54.7764L96.5895 54.1712L99.2595 63ZM93.0295 42.3164L96.0911 52.498L90.0391 52.854L93.0295 42.3164ZM119.063 62.9644L119.098 38.4716H115.254L115.147 50.0772L107.137 49.8992L107.208 38.4716H104.324L104.752 62.9644H107.03L107.137 51.7504H115.147L115.004 62.9644H119.063ZM123.839 66.382L123.269 62.9644H137.936V66.2396L140.001 66.4888L140.464 61.8608L139.859 60.864L136.868 60.9352L133.914 39.1836L132.846 38.2224H129.784L124.124 61.1132L121.489 61.1488L120.955 61.932L121.56 66.56L123.839 66.382ZM130.852 41.5332L133.273 60.9708L126.616 61.0776L130.852 41.5332ZM146.132 63H153.181L155.282 58.4788L152.576 57.126L151.188 60.152L147.165 60.0096L144.637 56.8412L145.349 43.1708L147.165 40.8212L150.618 41.4976L152.113 44.7728L154.641 43.4556L152.398 38.4716H145.385L141.718 42.8504L141.255 58.4788L146.132 63ZM22.8074 85.294L29.785 99.1068L33.345 97.8608L24.3026 83.8344L31.8498 76.6432L29.8918 74.6496L22.5582 83.3004H21.8106L21.8818 74.6852L18.3218 74.5072L18.0014 99.1424L21.5258 98.9644L21.6326 85.4364L22.8074 85.294ZM50.7361 99.0712L49.8461 74.7208L46.8201 74.5428L38.5253 91.6664L38.9881 74.614H35.0721L35.0365 98.7508L37.3861 98.8576L46.4641 80.1676L46.9625 99.0712H50.7361ZM64.4616 68.4908C63.4292 69.3096 62.5036 69.6656 61.6136 69.6656C60.332 69.6656 59.1216 68.9892 57.7332 68.028L56.0956 70.2352C57.484 71.4812 59.086 72.0508 60.6168 72.0508C62.4324 72.0508 64.1412 71.2676 65.316 69.986L64.4616 68.4908ZM66.4908 99L65.6008 74.4004H63.2868L58.8012 92.0936L58.908 74.5072L54.992 74.436L56.772 99H59.1216L63.6428 80.7372L64.6396 99H66.4908ZM81.7985 76.2516H90.0577V99.2136L94.0805 98.7508V74.5072H79.7693L78.7369 75.2192V99H81.7985V76.2516ZM114.044 99.0712L113.154 74.7208L110.128 74.5428L101.834 91.6664L102.296 74.614H98.3803L98.3447 98.7508L100.694 98.8576L109.772 80.1676L110.271 99.0712H114.044ZM121.433 88.9964L130.689 88.8184L133.857 86.1484L133.893 78.3876L130.511 74.6496H118.3V99H121.326L121.433 88.9964ZM121.433 86.8604L121.54 77.1772L128.517 77.6044L131.116 79.5268L130.44 84.8312L128.767 86.7892L121.433 86.8604ZM142.827 99H147.099L150.374 94.6212L150.765 78.9572L146.422 74.436H139.979L136.917 78.8148L136.561 94.4788L142.827 99ZM144.856 76.7144L147.134 79.8828L146.422 94.3008L144.144 96.5436L139.48 93.1972L139.943 78.7792L141.509 76.6076L144.856 76.7144ZM157.317 77.1772L164.081 77.284L164.33 74.6496H153.935V99.1424H157.851L157.317 77.1772ZM60.0179 110.578L46.1339 111.362L46.2763 113.284H51.5095L51.0823 135L54.2863 134.608L55.3543 113.284L59.9111 113.355L60.0179 110.578ZM67.4374 135H71.7094L74.9846 130.621L75.3762 114.957L71.033 110.436H64.5894L61.5278 114.815L61.1718 130.479L67.4374 135ZM69.4666 112.714L71.745 115.883L71.033 130.301L68.7546 132.544L64.091 129.197L64.5538 114.779L66.1202 112.608L69.4666 112.714ZM79.0085 138.382L78.4389 134.964H93.1061V138.24L95.1709 138.489L95.6337 133.861L95.0285 132.864L92.0381 132.935L89.0833 111.184L88.0153 110.222H84.9537L79.2933 133.113L76.6589 133.149L76.1249 133.932L76.7301 138.56L79.0085 138.382ZM86.0217 113.533L88.4425 132.971L81.7853 133.078L86.0217 113.533ZM97.9558 138.382L97.3862 134.964H112.053V138.24L114.118 138.489L114.581 133.861L113.976 132.864L110.985 132.935L108.031 111.184L106.963 110.222H103.901L98.2406 133.113L95.6062 133.149L95.0722 133.932L95.6774 138.56L97.9558 138.382ZM104.969 113.533L107.39 132.971L100.733 133.078L104.969 113.533ZM132.14 135.071L131.25 110.721L128.224 110.543L119.929 127.666L120.392 110.614H116.476L116.44 134.751L118.79 134.858L127.868 116.168L128.366 135.071H132.14Z" fill="white"/>
<path d="M94 28.7778C94 31.1096 92.2091 33 90 33C87.7909 33 86 31.1096 86 28.7778C86 26.4459 87.7909 14 90 14C92.2091 14 94 26.4459 94 28.7778Z" fill="#FF3F6D"/>
</g>
<defs>
<clipPath id="clip0_480_2088">
<rect width="180" height="180" fill="white"/>
</clipPath>
</defs>
</svg>
