<svg width="180" height="180" viewBox="0 0 180 180" fill="none" xmlns="http://www.w3.org/2000/svg">
<g clip-path="url(#clip0_461_2151)">
<rect width="180" height="180" fill="#3EC26B"/>
<path fill-rule="evenodd" clip-rule="evenodd" d="M112.274 30C116.942 22.2695 124.249 12.8851 132 10.5C145 6.50002 128.5 -0.99998 118.5 10.5C113.152 16.6503 109.442 24.186 107.222 30H90.0069H49L55.8665 161.507L54.4932 180H90.0069H125.507L124.133 161.507L131 30H112.274Z" fill="#3A6227"/>
<path d="M62.5652 37.1508L66.3668 59.9604H70.8812L66.0104 32.7156H61.4168L56.1104 59.6832L58.6448 60.4356L62.5652 37.1508ZM79.5295 60H84.2815L87.9247 55.1292L88.3603 37.7052L83.5291 32.676H76.3615L72.9559 37.5468L72.5599 54.9708L79.5295 60ZM81.7867 35.2104L84.3211 38.7348L83.5291 54.7728L80.9947 57.2676L75.8071 53.5452L76.3219 37.5072L78.0643 35.0916L81.7867 35.2104ZM108.28 59.9604L108.32 32.7156H104.043L103.924 45.6252L95.0143 45.4272L95.0935 32.7156H91.8859L92.3611 59.9604H94.8955L95.0143 47.4864H103.924L103.766 59.9604H108.28ZM116.84 35.7252L124.364 35.844L124.641 32.9136H113.078V60.1584H117.434L116.84 35.7252ZM50.2484 100L52.9412 99.4456L45.0212 72.5176H41.378L33.062 99.3268L36.9428 100.396L39.4376 90.8524L47.2784 90.1792L50.2484 100ZM43.3184 76.9924L46.724 88.318L39.992 88.714L43.3184 76.9924ZM66.416 66.0628C65.2676 66.9736 64.238 67.3696 63.248 67.3696C61.8224 67.3696 60.476 66.6172 58.9316 65.548L57.11 68.0032C58.6544 69.3892 60.4364 70.0228 62.1392 70.0228C64.1588 70.0228 66.0596 69.1516 67.3664 67.726L66.416 66.0628ZM68.6732 100L67.6832 72.6364H65.1092L60.1196 92.3176L60.2384 72.7552L55.8824 72.676L57.8624 100H60.476L65.5052 79.6852L66.614 100H68.6732ZM82.3494 79.4872L87.6954 99.9604H91.5366L83.2206 72.8344H80.3298L71.6178 99.9604H74.9442L82.3494 79.4872ZM97.2499 76.8736L105.328 76.438V72.9136H94.9927L94.4383 100H105.328V96.634L96.6955 95.8816L96.9331 87.2884L103.388 88.1596V85.2688H97.0123L97.2499 76.8736ZM124.174 99.9604L124.214 72.7156H119.937L119.818 85.6252L110.908 85.4272L110.988 72.7156H107.78L108.255 99.9604H110.79L110.908 87.4864H119.818L119.66 99.9604H124.174ZM129.487 103.762L128.853 99.9604H145.169V103.604L147.465 103.881L147.98 98.7328L147.307 97.624L143.981 97.7032L140.694 73.5076L139.506 72.4384H136.1L129.804 97.9012L126.873 97.9408L126.279 98.812L126.953 103.96L129.487 103.762ZM137.288 76.1212L139.981 97.7428L132.576 97.8616L137.288 76.1212ZM56.2812 140L58.974 139.446L51.054 112.518H47.4108L39.0948 139.327L42.9756 140.396L45.4704 130.852L53.3112 130.179L56.2812 140ZM49.3512 116.992L52.7568 128.318L46.0248 128.714L49.3512 116.992ZM72.4488 106.063C71.3004 106.974 70.2708 107.37 69.2808 107.37C67.8552 107.37 66.5088 106.617 64.9644 105.548L63.1428 108.003C64.6872 109.389 66.4692 110.023 68.172 110.023C70.1916 110.023 72.0924 109.152 73.3992 107.726L72.4488 106.063ZM74.706 140L73.716 112.636H71.142L66.1524 132.318L66.2712 112.755L61.9152 112.676L63.8952 140H66.5088L71.538 119.685L72.6468 140H74.706ZM83.7094 140H91.5502L93.8866 134.971L90.877 133.466L89.3326 136.832L84.8578 136.674L82.0462 133.149L82.8382 117.943L84.8578 115.329L88.699 116.082L90.3622 119.725L93.1738 118.26L90.679 112.716H82.8778L78.799 117.586L78.2842 134.971L83.7094 140ZM119.313 112.557L103.592 113.468L103.75 115.686H109.809L109.294 139.881L112.7 139.406L113.888 115.686L119.155 115.765L119.313 112.557ZM139.282 140.079L138.292 112.993L134.926 112.795L125.699 131.842L126.214 112.874H121.858L121.818 139.723L124.432 139.842L134.53 119.052L135.084 140.079H139.282Z" fill="white"/>
</g>
<defs>
<clipPath id="clip0_461_2151">
<rect width="180" height="180" fill="white"/>
</clipPath>
</defs>
</svg>
