<svg width="180" height="180" viewBox="0 0 180 180" fill="none" xmlns="http://www.w3.org/2000/svg">
<g clip-path="url(#clip0_486_4017)">
<rect width="180" height="180" fill="#B842A5"/>
<path d="M43.9207 95.5228C43.9207 95.5228 20.0666 81.0916 14.1599 66.9503C8.25314 52.8091 14.1599 25.5096 35.6159 25.5096C57.072 25.5096 62.9534 49.2423 62.9534 49.2423C62.9534 49.2423 65.3262 18.3886 89.1046 11.2675C112.883 4.14649 131.853 27.8791 116.404 61.1527C100.956 94.4263 77.1902 111 77.1902 111L43.9207 95.5228Z" fill="#4192B5"/>
<path d="M90.4263 136.344C90.4263 136.344 85.9442 120.344 89.1637 111.775C92.3832 103.207 106.057 93.7535 115.349 102.461C124.641 111.169 117.558 123.946 117.558 123.946C117.558 123.946 131.156 111.485 144.388 118.056C157.619 124.628 156.205 142.713 135.954 150.915C115.703 159.117 98.6202 156.653 98.6202 156.653L90.4263 136.344Z" fill="#FFC81A"/>
<path d="M40.6455 57.072L37.2795 56.5968L37.1211 83.9208H49.9515L50.3871 80.04L40.0515 80.9904L40.6455 57.072ZM69.6537 63.9228L64.7037 56.9532L57.7341 56.478L51.5169 63.5268L51.8337 77.3076L56.9025 84.198L63.5949 84.1188L68.9013 77.1492L69.6537 63.9228ZM65.2581 76.6344L62.0109 81.2676L58.1697 81.1488L55.2789 76.674L54.6453 65.9028L59.4765 59.4876L62.4465 59.6064L65.4957 63.5268L65.2581 76.6344ZM81.707 83.9208L89.8646 57.1512L84.3602 56.7552L79.925 78.5748L74.777 57.1512L70.0646 56.9532L77.7074 84.0396L81.707 83.9208ZM103.065 56.7552L92.8086 56.9928L93.4818 84H103.738L103.976 80.7924L96.0162 81.228L95.937 69.15L100.847 68.8728L100.451 66.6948L95.8974 67.2492L95.8578 59.8044L103.223 60.3588L103.065 56.7552ZM131.632 56.478L127.395 56.9532L123.949 67.17L119.752 56.7552L115.119 56.9136L113.812 83.9604L117.613 84.1584L117.653 61.9032L121.653 71.6448L124.583 72.0012L128.424 62.4972L128.741 83.8812C128.741 83.8812 132.265 83.8812 132.899 83.8416L131.632 56.478ZM146.455 56.7552L136.198 56.9928L136.872 84H147.128L147.366 80.7924L139.406 81.228L139.327 69.15L144.237 68.8728L143.841 66.6948L139.287 67.2492L139.248 59.8044L146.613 60.3588L146.455 56.7552ZM54.6353 96.3592L50.5169 123.683L53.8433 123.881L55.7837 111.843L59.1497 111.605L61.3277 123.683L63.9809 123.96L59.0309 96.3592H54.6353ZM56.1005 110.1L57.4469 102.299L58.8725 109.902L56.1005 110.1ZM84.2626 100.596L80.7382 97.1116L75.8674 96.3196L69.0166 99.2104L65.7298 109.665L68.185 121.07L75.7882 124.634L84.8565 121.901L84.5794 112.793L83.233 111.209L78.7186 110.892V114.615L81.9261 114.377L81.7282 119.723L76.2238 120.99L71.2738 117.862L69.0562 109.982L71.947 101.23L78.283 99.4084L81.9261 102.893L84.2626 100.596ZM90.4841 96.3592L86.3657 123.683L89.6921 123.881L91.6325 111.843L94.9985 111.605L97.1765 123.683L99.8297 123.96L94.8797 96.3592H90.4841ZM91.9493 110.1L93.2957 102.299L94.7213 109.902L91.9493 110.1ZM110.528 99.4876L110.845 96.7552L101.579 96.9532L101.816 99.0124L104.43 99.1708L104.945 122.06L102.331 122.218L102.648 124.119L110.172 124.04L110.607 121.624L107.677 121.862L108.113 99.3688L110.528 99.4876ZM129.851 96.874L125.455 96.676L126.208 116.278L118.644 96.676H114.407L114.803 124.04L118.525 123.96L117.931 102.854L126.049 123.96H129.178L129.851 96.874Z" fill="white"/>
</g>
<defs>
<clipPath id="clip0_486_4017">
<rect width="180" height="180" fill="white"/>
</clipPath>
</defs>
</svg>
