<svg width="180" height="180" viewBox="0 0 180 180" fill="none" xmlns="http://www.w3.org/2000/svg">
<g clip-path="url(#clip0_486_4004)">
<rect width="180" height="180" fill="#4B93C7"/>
<path d="M12.5 117L57.5 20L186 52L135.5 132L149 96L82.5 194L24 136L64.5 90L27 117H12.5Z" fill="#38ACFF"/>
<path d="M4.48764 52.8344L3.65604 80H13.8728L16.8032 77.7032L17.0804 66.734L13.4768 64.358L16.5656 57.0716L14.1104 52.9532L4.48764 52.8344ZM14.2688 68.4368L14.0708 75.8024L11.7344 77.5052L7.93284 77.1488L7.97244 66.8924L11.6156 66.2984L14.2688 68.4368ZM10.19 64.2392L7.97244 64.6748L8.01204 55.3292L11.576 55.2896L13.0412 57.4676L10.19 64.2392ZM27.1098 80H31.8618L35.505 75.1292L35.9406 57.7052L31.1094 52.676H23.9418L20.5362 57.5468L20.1402 74.9708L27.1098 80ZM29.367 55.2104L31.9014 58.7348L31.1094 74.7728L28.575 77.2676L23.3874 73.5452L23.9022 57.5072L25.6446 55.0916L29.367 55.2104ZM48.3762 59.4872L53.7222 79.9604H57.5634L49.2474 52.8344H46.3566L37.6446 79.9604H40.971L48.3762 59.4872ZM61.7718 78.416L63.1974 80H84.9774L84.027 52.7948L79.7898 53.3888L81.3342 77.1092H74.325L73.8498 65.744H70.9194L71.7114 77.03H64.9794L64.3062 53.0324L60.465 52.676L61.7718 78.416ZM92.5512 56.8736L100.63 56.438V52.9136H90.294L89.7396 80H100.63V76.634L91.9968 75.8816L92.2344 67.2884L98.6892 68.1596V65.2688H92.3136L92.5512 56.8736ZM115.001 77.624V66.536L111.793 63.764L106.17 64.0016L106.249 56.636L114.407 56.1608L113.853 52.6364H103.873L103.081 80H111.793L115.001 77.624ZM105.933 77.1092L106.131 66.0212L110.368 65.8232L112.15 67.724L112.11 75.2084L110.724 76.3172L105.933 77.1092ZM134.48 79.9604L134.52 52.7156H130.243L130.124 65.6252L121.214 65.4272L121.294 52.7156H118.086L118.561 79.9604H121.096L121.214 67.4864H130.124L129.966 79.9604H134.48ZM139.278 53.1116L140.466 77.8616L143.04 80H149.693L151.475 76.2776L150.723 66.932L147.951 63.8432L143.753 63.5264L143.278 52.8344L139.278 53.1116ZM158.959 52.8344H154.445L154.762 80H157.969L158.959 52.8344ZM147.079 66.2192L147.99 67.6844L148.703 76.0796L147.871 77.9804L144.387 77.5844L143.872 65.942L147.079 66.2192ZM174.252 46.0628C173.104 46.9736 172.074 47.3696 171.084 47.3696C169.659 47.3696 168.312 46.6172 166.768 45.548L164.946 48.0032C166.491 49.3892 168.273 50.0228 169.976 50.0228C171.995 50.0228 173.896 49.1516 175.203 47.726L174.252 46.0628ZM176.51 80L175.52 52.6364H172.946L167.956 72.3176L168.075 52.7552L163.719 52.676L165.699 80H168.312L173.342 59.6852L174.45 80H176.51ZM72.7853 120.079L71.7953 92.9928L68.4293 92.7948L59.2025 111.842L59.7173 92.874H55.3613L55.3217 119.723L57.9353 119.842L68.0333 99.0516L68.5877 120.079H72.7853ZM93.9137 119.96L93.9533 92.7156H89.6765L89.5577 105.625L80.6477 105.427L80.7269 92.7156H77.5193L77.9945 119.96H80.5289L80.6477 107.486H89.5577L89.3993 119.96H93.9137ZM101.523 96.8736L109.601 96.438V92.9136H99.2659L98.7115 120H109.601V116.634L100.969 115.882L101.206 107.288L107.661 108.16V105.269H101.285L101.523 96.8736ZM122.587 86.0628C121.438 86.9736 120.409 87.3696 119.419 87.3696C117.993 87.3696 116.647 86.6172 115.102 85.548L113.281 88.0032C114.825 89.3892 116.607 90.0228 118.31 90.0228C120.33 90.0228 122.23 89.1516 123.537 87.726L122.587 86.0628ZM124.844 120L123.854 92.6364H121.28L116.29 112.318L116.409 92.7552L112.053 92.676L114.033 120H116.647L121.676 99.6852L122.785 120H124.844Z" fill="white"/>
</g>
<defs>
<clipPath id="clip0_486_4004">
<rect width="180" height="180" fill="white"/>
</clipPath>
</defs>
</svg>
