<svg width="180" height="180" viewBox="0 0 180 180" fill="none" xmlns="http://www.w3.org/2000/svg">
<g clip-path="url(#clip0_461_2161)">
<rect width="180" height="180" fill="#85263D"/>
<g clip-path="url(#clip1_461_2161)">
<path d="M46 196V88.1455L104 87L100.879 196H46Z" fill="#B842A5"/>
<path d="M26 233V125.145L84 124L80.8785 233H26Z" fill="#B842A5"/>
<path d="M-3 205V97.1455L13 96L12.1389 205H-3Z" fill="#B842A5"/>
<path d="M60.6742 92.4779L58.1143 64.3294H68.3542C68.3542 64.3294 65.7943 53.2202 74.7514 53.6873C83.7085 54.1544 81.1485 61.799 81.1485 61.799H91.3826V95.032L60.6742 92.4779Z" fill="#B842A5"/>
<path d="M60.6743 61.7694H66.2851C66.2851 61.7694 66.2851 51.8604 76.0995 51.8604V38.741C76.0995 38.741 60.6743 33.621 60.6743 61.7694Z" fill="#B842A5"/>
<path d="M90.1235 61.7694H84.5127C84.5127 61.7694 84.5126 51.8604 74.6982 51.8604V38.741C74.6982 38.741 90.1235 33.621 90.1235 61.7694Z" fill="#B842A5"/>
<path d="M65.7944 45.3688C65.7944 45.3688 65.7943 23.3868 75.2954 23.3868C84.7964 23.3868 84.8024 42.6195 84.8024 42.6195L65.7944 45.3688Z" fill="#B842A5"/>
<path d="M71.1152 26.7982C71.1152 26.7982 71.1151 17.1257 75.2951 17.1257C79.4751 17.1257 79.4811 25.5922 79.4811 25.5922L71.1152 26.7982Z" fill="#B842A5"/>
<path d="M76.0995 19.5321C75.9339 18.7635 74.7515 -17 74.7515 -17V19.0295L76.0995 19.5321Z" fill="#B842A5"/>
<path d="M126.823 122.718H106.722V208.395H126.823V122.718Z" fill="#B842A5"/>
<path d="M120 144H97V190H120V144Z" fill="#B842A5"/>
<path d="M128.553 112.769H122.05V183.125H128.553V112.769Z" fill="#B842A5"/>
<path d="M132.101 185.49H179.99V115.134L132.101 119.864V185.49Z" fill="#B842A5"/>
</g>
<path d="M8.65446 100.317L11.9809 77.2696L17.8417 91.486H20.3365L26.9497 78.3388L29.0881 100.277L33.2857 99.9604L30.4345 73.468L27.1081 72.9928L19.1485 88.5952L12.7729 72.9136L9.88206 73.3096L4.57566 99.7228L8.65446 100.317ZM52.182 100L54.8748 99.4456L46.9548 72.5176H43.3116L34.9956 99.3268L38.8764 100.396L41.3712 90.8524L49.212 90.1792L52.182 100ZM45.252 76.9924L48.6576 88.318L41.9256 88.714L45.252 76.9924ZM74.2104 99.9604L74.25 72.7156H69.9732L69.8544 85.6252L60.9444 85.4272L61.0236 72.7156H57.816L58.2912 99.9604H60.8256L60.9444 87.4864H69.8544L69.696 99.9604H74.2104ZM81.6614 100.119L85.7798 88.0408L90.6506 100.198L93.8186 99.0496L87.3242 85.15L92.789 72.9928L89.3834 72.7156L85.7798 83.2096L80.9882 72.9136L78.4934 74.1412L83.9186 85.15L77.7014 99.8416L81.6614 100.119ZM95.5972 100.238L106.646 99.3664L110.526 85.15L109.457 78.9328L106.329 72.2404L96.4288 73.9828L97.9336 77.9824L104.19 75.7252L106.487 79.5664L107.16 84.358L98.2504 83.962L98.3692 87.2092L107.319 86.9716L104.27 96.8716L95.716 96.1192L95.5972 100.238ZM126.042 72.5572L110.321 73.468L110.479 75.6856H116.538L116.023 99.8812L119.429 99.406L120.617 75.6856L125.884 75.7648L126.042 72.5572ZM142.13 72.5572L126.408 73.468L126.567 75.6856H132.626L132.111 99.8812L135.516 99.406L136.704 75.6856L141.971 75.7648L142.13 72.5572ZM147.446 76.8736L155.524 76.438V72.9136H145.189L144.634 100H155.524V96.634L146.892 95.8816L147.129 87.2884L153.584 88.1596V85.2688H147.208L147.446 76.8736ZM174.371 99.9604L174.41 72.7156H170.133L170.015 85.6252L161.105 85.4272L161.184 72.7156H157.976L158.451 99.9604H160.986L161.105 87.4864H170.015L169.856 99.9604H174.371Z" fill="white"/>
</g>
<defs>
<clipPath id="clip0_461_2161">
<rect width="180" height="180" fill="white"/>
</clipPath>
<clipPath id="clip1_461_2161">
<rect width="179.99" height="202.49" fill="white" transform="translate(0 -17)"/>
</clipPath>
</defs>
</svg>
