<svg width="180" height="180" viewBox="0 0 180 180" fill="none" xmlns="http://www.w3.org/2000/svg">
<g clip-path="url(#clip0_486_3952)">
<rect width="180" height="180" fill="#FF3F6D"/>
<path fill-rule="evenodd" clip-rule="evenodd" d="M106.569 45.2722C114.094 44.9221 119.92 38.7428 119.583 31.4718C119.244 24.2006 112.981 20.9704 105.456 21.3205C97.9311 21.6707 91.9942 25.4665 92.3315 32.7389C92.6697 40.0101 99.0438 45.6208 106.569 45.2722ZM154.741 43.6584C154.964 48.4615 152.498 52.7872 148.629 55.2721C153.135 56.5392 156.327 59.6586 156.566 64.793C156.904 72.064 151.078 78.2433 143.553 78.5934C139.566 78.7779 135.902 77.2897 133.288 74.7688C133.498 75.347 133.658 75.9625 133.765 76.616C133.839 77.0662 133.889 77.5344 133.911 78.0216C134.164 83.4752 130.951 88.3136 126.153 90.54C126.3 90.9343 126.423 91.347 126.522 91.7764C126.598 92.1092 126.66 92.4541 126.708 92.808C126.753 93.1482 126.784 93.4979 126.8 93.8581C127.138 101.129 121.312 107.308 113.787 107.658C113.452 107.674 113.119 107.678 112.79 107.67C113.161 108.668 113.387 109.779 113.444 111.005C113.519 112.634 113.286 114.209 112.792 115.676C114.116 117.238 114.93 119.258 115.046 121.753C115.351 128.321 110.627 133.998 104.165 135.292C104.38 141.788 99.6825 147.377 93.276 148.661C93.5158 155.857 87.7213 161.944 80.2554 162.291C75.1644 162.527 70.6003 160.036 68.0757 156.148C67.4952 160.28 66.5467 163.979 65.3094 167.027C66.4097 166.796 67.569 166.652 68.7686 166.597C76.2936 166.247 82.5568 169.477 82.8951 176.748C83.2327 184.019 77.4067 190.199 69.8817 190.549C66.3513 190.712 63.0738 189.564 60.5543 187.549L61 190L54.5248 190.304C52.1822 192.688 48.923 194.239 45.2617 194.409C41.8538 194.567 38.6818 193.503 36.2 191.616C35.821 191.822 35.4344 191.989 35.0405 192.114C34.575 192.263 34.0996 192.356 33.6159 192.387C31.8719 197.403 27.0875 201.122 21.2967 201.392C15.0864 201.68 9.66018 197.909 7.76322 192.496L-3.00001 193L-6.49731 154.03C-8.39625 151.884 -9.59571 149.131 -9.73729 146.087C-10.0745 138.814 -4.13763 135.018 3.38739 134.668C8.6371 134.424 13.2725 135.922 15.7106 139.319C17.9545 138.62 20.4844 138.029 23.2326 137.546C25.3062 134.912 27.9018 133.541 30.7609 133.407C30.9878 133.396 31.214 133.394 31.4387 133.4L31.4025 133.345C24.0507 133.483 17.893 127.942 17.5607 120.799C17.2541 114.189 22.1324 110.45 28.6748 109.562C23.403 107.941 19.4846 103.288 19.2211 97.6297C18.8838 90.3573 24.8207 86.5614 32.3457 86.2113C39.8708 85.8612 46.134 89.0913 46.4723 96.3626C46.5187 97.3596 46.4491 98.3361 46.2752 99.2799L46.3087 99.2987C47.2736 93.6272 52.6679 90.6477 59.2934 90.3395C64.8275 90.0816 69.6791 91.7609 71.9938 95.5589C73.1944 94.7591 74.5936 94.1469 76.1332 93.7215C69.7933 93.3585 64.5503 88.7755 63.536 82.7285C61.4708 84.1541 58.9735 85.0412 56.2538 85.1682C48.7285 85.5168 42.3543 79.9061 42.0161 72.6349C41.6788 65.3625 47.6157 61.5667 55.1407 61.2165C62.6658 60.8664 68.929 64.0966 69.2673 71.3678L69.2712 71.4654C71.3371 70.465 73.817 69.9018 76.4978 69.7776C78.0233 69.7072 79.4968 69.7831 80.8796 70.0094C80.069 68.4249 79.577 66.656 79.4899 64.7745C79.1526 57.5021 85.0895 53.7062 92.6145 53.3561C98.6089 53.0765 103.803 55.0705 105.839 59.5689C108.225 57.6298 111.621 56.5738 115.422 56.3966C122.285 56.0773 128.099 58.7355 129.325 64.7227C129.582 60.6999 131.911 57.8813 135.356 56.2605C130.901 54.2647 127.726 50 127.49 44.9255C127.153 37.6531 133.089 33.8572 140.615 33.5071C148.14 33.157 154.403 36.3871 154.741 43.6584ZM129.539 67.9256C129.497 68.6006 129.404 69.2634 129.261 69.9088C129.678 70.1637 130.071 70.4428 130.441 70.7474C130.037 69.856 129.731 68.9113 129.539 67.9256ZM147.655 115.565C147.992 122.836 142.166 129.016 134.641 129.366C127.116 129.714 120.742 124.104 120.403 116.833C120.066 109.56 126.003 105.764 133.528 105.414C141.053 105.064 147.316 108.294 147.655 115.565Z" fill="#B8133B"/>
<path d="M35.6537 99.2848L38.6441 78.5656L43.9129 91.346H46.1557L52.1009 79.5268L54.0233 99.2492L57.7969 98.9644L55.2337 75.148L52.2433 74.7208L45.0877 88.7472L39.3561 74.6496L36.7573 75.0056L31.9869 98.7508L35.6537 99.2848ZM76.6713 99.0712L75.7813 74.7208L72.7553 74.5428L64.4605 91.6664L64.9233 74.614H61.0073L60.9717 98.7508L63.3213 98.8576L72.3993 80.1676L72.8977 99.0712H76.6713ZM89.222 83.514L82.6004 74.5072L81.3544 75.0412L79.8592 99L82.636 99.3204L83.2768 80.7372L88.9016 88.0708L95.5588 80.844L96.1996 99.0356L99.2968 98.8576L98.6204 75.7176L96.7692 74.5072L89.222 83.514ZM108.791 99H113.063L116.338 94.6212L116.73 78.9572L112.387 74.436H105.943L102.882 78.8148L102.526 94.4788L108.791 99ZM110.82 76.7144L113.099 79.8828L112.387 94.3008L110.108 96.5436L105.445 93.1972L105.908 78.7792L107.474 76.6076L110.82 76.7144ZM117.799 98.5372L128.123 98.822L130.045 90.8832L129.44 88.3556L125.773 86.0772L128.337 83.7276L129.298 76.6432L125.346 74.6496L118.689 76.3584L119.65 79.3844L123.993 77.0348L125.738 77.8892L125.702 82.8376L123.709 85.3652H120.433V87.5368L123.424 87.608L126.699 90.4916L125.417 96.5792L118.262 95.4044L117.799 98.5372ZM146.332 99L148.753 98.5016L141.633 74.2936H138.358L130.882 98.3948L134.371 99.356L136.613 90.7764L143.662 90.1712L146.332 99ZM140.102 78.3164L143.164 88.498L137.112 88.854L140.102 78.3164Z" fill="white"/>
</g>
<defs>
<clipPath id="clip0_486_3952">
<rect width="180" height="180" fill="white"/>
</clipPath>
</defs>
</svg>
