<svg width="180" height="180" viewBox="0 0 180 180" fill="none" xmlns="http://www.w3.org/2000/svg">
<g clip-path="url(#clip0_461_2124)">
<rect width="180" height="180" fill="#A6C54F"/>
<g clip-path="url(#clip1_461_2124)">
<path d="M71.9239 158.69C71.9239 158.69 74.7319 109.576 113.59 88.0569C116.319 87.3171 115.197 91.2844 115.197 91.2844C115.197 91.2844 125.874 84.7278 127.979 87.0878C130.084 89.4479 128.221 90.6852 128.221 90.6852C128.221 90.6852 137.406 86.7309 139.511 89.091C141.616 91.4511 138.388 93.0583 138.388 93.0583C138.388 93.0583 148.313 91.834 151.783 93.8241C155.253 95.8143 151.158 96.924 151.158 96.924C151.158 96.924 171.989 100.803 173.839 107.628C175.688 114.452 162.791 112.819 162.791 112.819C162.791 112.819 165.266 116.544 158.071 117.029C158.071 117.029 157.574 117.896 153.479 119.006C153.479 119.006 152.726 124.338 145.531 124.823C145.531 124.823 144.906 127.923 137.711 128.407C137.711 128.407 135.096 134.977 129.764 134.224C129.764 134.224 131.868 136.584 121.076 137.311C110.284 138.038 79.004 152.375 75.0237 159.315C73.5311 161.917 71.7962 160.922 71.9239 158.69Z" fill="#3CB200"/>
<path d="M125.817 -0.797823C125.817 -0.797823 99.9413 -20.0308 72.7868 -9.53786C71.2673 -8.47614 73.7341 -7.373 73.7341 -7.373C73.7341 -7.373 65.9489 -4.76011 66.2508 -2.7097C66.5528 -0.659294 67.9579 -1.0757 67.9579 -1.0757C67.9579 -1.0757 62.1086 1.88056 62.4105 3.93097C62.7125 5.98137 64.8773 5.0341 64.8773 5.0341C64.8773 5.0341 60.0898 9.50991 59.632 12.0912C59.1742 14.6724 61.4535 13.0799 61.4535 13.0799C61.4535 13.0799 54.6471 25.185 57.3014 28.9839C59.9558 32.7827 64.5558 25.6112 64.5558 25.6112C64.5558 25.6112 65.3886 28.4214 68.6566 25.0073C68.6566 25.0073 69.3019 25.1218 71.5813 23.5292C71.5813 23.5292 74.5789 25.3921 77.8469 21.978C77.8469 21.978 79.6684 22.9667 82.9364 19.5526C82.9364 19.5526 87.3392 20.9991 89.2021 18.0014C89.2021 18.0014 89.5041 20.0519 94.4061 14.9307C99.3081 9.80962 119.666 0.108028 124.829 1.02367C126.765 1.36704 126.993 0.0764049 125.817 -0.797823Z" fill="#3CB200"/>
<path d="M82.1181 90.2856C82.1181 90.2856 46.927 100.068 22.501 77.9084C21.3275 76.1667 24.3847 76.0062 24.3847 76.0062C24.3847 76.0062 17.2205 70.071 18.3755 68.0267C19.5304 65.9824 20.8459 66.9953 20.8459 66.9953C20.8459 66.9953 15.868 61.4863 17.023 59.442C18.1779 57.3977 20.0801 59.2814 20.0801 59.2814C20.0801 59.2814 16.8439 52.599 17.4121 49.6839C17.9803 46.7688 19.7405 49.3813 19.7405 49.3813C19.7405 49.3813 17.4802 33.8115 21.8343 30.8779C26.1884 27.9443 28.1276 37.3998 28.1276 37.3998C28.1276 37.3998 30.1534 34.7689 32.2161 39.7097C32.2161 39.7097 32.9449 39.8517 34.7051 42.4642C34.7051 42.4642 38.633 41.7169 40.6958 46.6578C40.6958 46.6578 43.0242 46.3552 45.0869 51.296C45.0869 51.296 50.3304 51.5616 51.0776 55.4896C51.0776 55.4896 52.2326 53.4453 55.3267 60.8566C58.4208 68.2678 75.9854 86.8208 81.8155 87.9572C84.0018 88.3833 83.7177 89.8409 82.1181 90.2856Z" fill="#41A20F"/>
<path d="M82.198 188.847L47.6334 134.683C42.489 141.606 34.9709 159.075 46.054 173.576C57.1371 188.077 74.7679 189.799 82.198 188.847Z" fill="#5CDD1A"/>
<path d="M90.1382 35.3043L138.943 77.0954C141.855 68.9774 143.976 50.0772 129.159 39.4203C114.343 28.7634 96.9717 32.2359 90.1382 35.3043Z" fill="#B9DE24"/>
</g>
<path d="M34.2552 100.317L37.5816 77.2696L43.4424 91.486H45.9372L52.5504 78.3388L54.6888 100.277L58.8864 99.9604L56.0352 73.468L52.7088 72.9928L44.7492 88.5952L38.3736 72.9136L35.4828 73.3096L30.1764 99.7228L34.2552 100.317ZM68.1599 100H72.9119L76.5551 95.1292L76.9907 77.7052L72.1595 72.676H64.9919L61.5863 77.5468L61.1903 94.9708L68.1599 100ZM70.4171 75.2104L72.9515 78.7348L72.1595 94.7728L69.6251 97.2676L64.4375 93.5452L64.9523 77.5072L66.6947 75.0916L70.4171 75.2104ZM83.1696 100.119L87.288 88.0408L92.1588 100.198L95.3268 99.0496L88.8324 85.15L94.2972 72.9928L90.8916 72.7156L87.288 83.2096L82.4964 72.9136L80.0016 74.1412L85.4268 85.15L79.2096 99.8416L83.1696 100.119ZM116.272 100.079L115.282 72.9928L111.916 72.7948L102.689 91.8424L103.204 72.874H98.8478L98.8082 99.7228L101.422 99.8416L111.52 79.0516L112.074 100.079H116.272ZM133.815 72.5572L118.094 73.468L118.252 75.6856H124.311L123.796 99.8812L127.202 99.406L128.39 75.6856L133.657 75.7648L133.815 72.5572ZM141.211 100H145.963L149.606 95.1292L150.042 77.7052L145.211 72.676H138.043L134.638 77.5468L134.242 94.9708L141.211 100ZM143.468 75.2104L146.003 78.7348L145.211 94.7728L142.676 97.2676L137.489 93.5452L138.004 77.5072L139.746 75.0916L143.468 75.2104Z" fill="white"/>
</g>
<defs>
<clipPath id="clip0_461_2124">
<rect width="180" height="180" fill="white"/>
</clipPath>
<clipPath id="clip1_461_2124">
<rect width="180" height="180" fill="white"/>
</clipPath>
</defs>
</svg>
