<svg width="180" height="180" viewBox="0 0 180 180" fill="none" xmlns="http://www.w3.org/2000/svg">
<g clip-path="url(#clip0_480_2399)">
<rect width="180" height="180" fill="#304034"/>
<path d="M121 37.9997L97.5002 51.4997C91.1669 59.1664 77.7002 72.5 74.5002 64.5C70.5002 54.5 91.0002 51.4997 92.0002 45.5C93.0002 39.5003 108.5 32.5 114 31.5C119.5 30.5 117.5 25.9994 117.5 14.4994C117.5 2.99938 131 6.49938 143 14.4994C155 22.4994 157 12.9993 180.5 11.4993C204 9.99933 188.5 32.9993 189 34.4993C189.5 35.9993 183 37.9997 178.5 37.9997C174 37.9997 168 51.4997 159.5 53.9993C151 56.499 138.5 51.4997 137 41.9997C135.8 34.3997 125.834 36.1663 121 37.9997Z" fill="#E44242"/>
<path d="M49 74.3545C49 74.3545 60.0588 93.5589 80.7439 88.2723C80.7439 88.2723 82.9491 102.83 102.697 108.473L127.429 149.472L126.468 157.8L116.22 170.848L117.275 172.925L159.913 151.255L158.858 149.178L142.277 149.766L134.983 145.633L116.441 101.487C123.523 82.2092 113.063 71.8466 113.063 71.8466C129.526 58.2532 120.531 37.9998 120.531 37.9998L49 74.3545Z" fill="#E49988"/>
<path d="M36.2795 81.2848L39.2699 60.5656L44.5387 73.346H46.7815L52.7267 61.5268L54.6491 81.2492L58.4227 80.9644L55.8595 57.148L52.8691 56.7208L45.7135 70.7472L39.9819 56.6496L37.3831 57.0056L32.6127 80.7508L36.2795 81.2848ZM75.4103 81L77.8311 80.5016L70.7111 56.2936H67.4359L59.9599 80.3948L63.4487 81.356L65.6915 72.7764L72.7403 72.1712L75.4103 81ZM69.1803 60.3164L72.2419 70.498L66.1899 70.854L69.1803 60.3164ZM88.77 65.514L82.1484 56.5072L80.9024 57.0412L79.4072 81L82.184 81.3204L82.8248 62.7372L88.4496 70.0708L95.1068 62.844L95.7476 81.0356L98.8448 80.8576L98.1684 57.7176L96.3172 56.5072L88.77 65.514ZM115.843 81L118.263 80.5016L111.143 56.2936H107.868L100.392 80.3948L103.881 81.356L106.124 72.7764L113.173 72.1712L115.843 81ZM109.613 60.3164L112.674 70.498L106.622 70.854L109.613 60.3164ZM121.726 84.8804C123.186 83.5276 125.464 81.1424 125.856 77.5824H122.332C122.26 79.1844 121.477 82.3884 120.48 83.6344L121.726 84.8804ZM144.1 70.32L143.673 81H146.485V56.614H137.835L135.663 59.5688V67.8636L137.479 70.32H139.65L135.521 80.466L138.547 81.356L142.534 70.32H144.1ZM144.1 68.006H139.65L138.297 66.5108V60.6724L139.793 58.7856L144.1 58.7856V68.006ZM51.6452 92.3292L37.512 93.148L37.6544 95.1416H43.1012L42.6384 116.893L45.7 116.466L46.768 95.1416L51.5028 95.2128L51.6452 92.3292ZM65.1023 117L67.5231 116.502L60.4031 92.2936H57.1279L49.6519 116.395L53.1407 117.356L55.3835 108.776L62.4323 108.171L65.1023 117ZM58.8723 96.3164L61.9339 106.498L55.8819 106.854L58.8723 96.3164ZM84.9056 116.964L84.9412 92.4716H81.0964L80.9896 104.077L72.9796 103.899L73.0508 92.4716H70.1672L70.5944 116.964H72.8728L72.9796 105.75H80.9896L80.8472 116.964H84.9056ZM89.2188 92.5072V116.822H103.85L102.782 122.198L106.449 122.91L107.624 115.612L106.698 114.188H104.918L104.847 92.258L101.002 92.5428L101.75 114.188H91.96L92.138 92.97L89.2188 92.5072ZM111.591 115.896L114.403 117L121.203 92.614H118.141L115.115 103.365L111.84 92.436L109.455 93.2192L114.011 107.317L111.591 115.896ZM128.588 92.6496H125.277L123.532 117H126.345L127.342 105.928L131.471 106.32L131.4 112.514L133.963 117H139.41L141.546 112.657L141.795 97.0996L137.737 92.614H133.536L131.614 96.9572L131.507 103.757L127.555 103.864L128.588 92.6496ZM134.533 113.547L133.18 109.844L133.572 97.2776L135.352 94.5008L138.734 97.4912L138.378 110.912L137.203 113.547H134.533Z" fill="white"/>
<path d="M181.238 9.70311C175.288 9.44445 168.512 11.1041 165.868 11.9663C164.38 12.4087 160.91 8.40994 170.33 4.85345C179.751 1.29697 188.676 10.0264 181.238 9.70311Z" fill="#E44242"/>
<path d="M109.9 27.2281C111.781 26.0961 113.002 23.5568 113.377 22.4287C113.608 21.8214 116.521 23.6224 115.413 27.9516C114.306 32.2809 107.549 28.643 109.9 27.2281Z" fill="#E44242"/>
</g>
<defs>
<clipPath id="clip0_480_2399">
<rect width="180" height="180" fill="white"/>
</clipPath>
</defs>
</svg>
