<svg width="180" height="180" viewBox="0 0 180 180" fill="none" xmlns="http://www.w3.org/2000/svg">
<g clip-path="url(#clip0_480_2140)">
<rect width="180" height="180" fill="#3EC26B"/>
<path d="M22.6907 47.6377L140.739 133.653C145.913 114.753 147.391 71.5723 111.911 50.0574C76.4305 28.5425 37.6473 39.4797 22.6907 47.6377Z" fill="#FFB26A"/>
<path d="M147 150.077C147 153.348 144.314 156 141 156C137.686 156 135 153.348 135 150.077C135 146.806 139.636 135 141 135C142.364 135 147 146.806 147 150.077Z" fill="#FFB26A"/>
<path d="M60.0081 99L59.7233 74.436H55.8073L55.7005 83.514L45.5901 83.3004L45.6613 74.436H42.5285V99H45.4477L45.5545 85.2228H55.7005L55.5581 99H60.0081ZM66.8194 78.2096L74.0818 77.818V74.6496H64.7902L64.2918 99H74.0818V95.974L66.321 95.2976L66.5346 87.5724L72.3374 88.3556V85.7568H66.6058L66.8194 78.2096ZM81.0919 85.294L88.0695 99.1068L91.6295 97.8608L82.5871 83.8344L90.1343 76.6432L88.1763 74.6496L80.8427 83.3004H80.0951L80.1663 74.6852L76.6063 74.5072L76.2859 99.1424L79.8103 98.9644L79.9171 85.4364L81.0919 85.294ZM105.532 74.3292L91.3987 75.148L91.5411 77.1416H96.9879L96.5251 98.8932L99.5867 98.466L100.655 77.1416L105.39 77.2128L105.532 74.3292ZM118.989 99L121.41 98.5016L114.29 74.2936H111.015L103.539 98.3948L107.027 99.356L109.27 90.7764L116.319 90.1712L118.989 99ZM112.759 78.3164L115.821 88.498L109.769 88.854L112.759 78.3164ZM127.187 88.9964L136.443 88.8184L139.611 86.1484L139.647 78.3876L136.265 74.6496H124.054V99H127.08L127.187 88.9964ZM127.187 86.8604L127.294 77.1772L134.271 77.6044L136.87 79.5268L136.194 84.8312L134.52 86.7892L127.187 86.8604Z" fill="white"/>
</g>
<defs>
<clipPath id="clip0_480_2140">
<rect width="180" height="180" fill="white"/>
</clipPath>
</defs>
</svg>
