<svg width="180" height="180" viewBox="0 0 180 180" fill="none" xmlns="http://www.w3.org/2000/svg">
<g clip-path="url(#clip0_486_3893)">
<rect width="180" height="180" fill="#713FFF"/>
<path d="M87.0063 116.5C57.4063 100.1 61.0063 42 66.5063 15L34.0063 21.5C24.5063 39.3333 5.60625 83.3 6.00625 116.5C6.40625 149.7 29.8396 166.333 41.5062 170.5C53.5062 145.3 103.506 148.333 127.006 153C126.006 147.667 116.606 132.9 87.0063 116.5Z" fill="#C12F2F"/>
<path d="M-13.174 47.5C54.026 69.1 110.159 21.5 129.826 -5L-8.17402 -9C-37.8407 0.833333 -80.374 25.9 -13.174 47.5Z" fill="#D23A3A"/>
<path d="M121.462 110.775C88.6836 115.478 58.2319 69.2965 47.1034 45.6179C53.6054 29.9565 67.1107 2.91415 69.1159 20.0361C71.121 37.158 111.92 42.9341 132.069 43.6819C111.718 62.3023 116.518 96.169 121.462 110.775Z" fill="#D23A3A"/>
<path d="M23.7128 81L23.428 56.436H19.512L19.4052 65.514L9.29482 65.3004L9.36602 56.436H6.23322L6.23322 81H9.15242L9.25922 67.2228H19.4052L19.2628 81H23.7128ZM33.1585 81H37.4305L40.7057 76.6212L41.0973 60.9572L36.7541 56.436H30.3105L27.2489 60.8148L26.8929 76.4788L33.1585 81ZM35.1877 58.7144L37.4661 61.8828L36.7541 76.3008L34.4757 78.5436L29.8121 75.1972L30.2749 60.7792L31.8413 58.6076L35.1877 58.7144ZM45.0144 56.5784L44.2668 81H53.4516L56.086 78.9352L56.3352 69.074L53.0956 66.938L55.8724 60.3876L53.6652 56.6852L45.0144 56.5784ZM53.8076 70.6048L53.6296 77.2264L51.5292 78.7572L48.1116 78.4368L48.1472 69.2164L51.4224 68.6824L53.8076 70.6048ZM50.1408 66.8312L48.1472 67.2228L48.1828 58.8212L51.3868 58.7856L52.704 60.7436L50.1408 66.8312ZM65.3515 81H69.6235L72.8987 76.6212L73.2903 60.9572L68.9471 56.436H62.5035L59.4419 60.8148L59.0859 76.4788L65.3515 81ZM67.3807 58.7144L69.6591 61.8828L68.9471 76.3008L66.6687 78.5436L62.0051 75.1972L62.4679 60.7792L64.0343 58.6076L67.3807 58.7144ZM79.8418 59.1772L86.6058 59.284L86.855 56.6496H76.4598V81.1424H80.3758L79.8418 59.1772ZM93.3726 81H97.6446L100.92 76.6212L101.311 60.9572L96.9682 56.436H90.5246L87.463 60.8148L87.107 76.4788L93.3726 81ZM95.4018 58.7144L97.6802 61.8828L96.9682 76.3008L94.6898 78.5436L90.0262 75.1972L90.489 60.7792L92.0554 58.6076L95.4018 58.7144ZM104.944 84.382L104.374 80.9644H119.041V84.2396L121.106 84.4888L121.569 79.8608L120.964 78.864L117.973 78.9352L115.018 57.1836L113.95 56.2224H110.889L105.228 79.1132L102.594 79.1488L102.06 79.932L102.665 84.56L104.944 84.382ZM111.957 59.5332L114.378 78.9708L107.72 79.0776L111.957 59.5332ZM138.167 80.9644L138.202 56.4716L134.357 56.4716L134.251 68.0772L126.241 67.8992L126.312 56.4716H123.428L123.855 80.9644H126.134L126.241 69.7504H134.251L134.108 80.9644H138.167ZM158.179 81.0712L157.289 56.7208L154.263 56.5428L145.968 73.6664L146.431 56.614H142.515L142.48 80.7508L144.829 80.8576L153.907 62.1676L154.406 81.0712H158.179ZM171.905 50.4908C170.872 51.3096 169.947 51.6656 169.057 51.6656C167.775 51.6656 166.565 50.9892 165.176 50.028L163.539 52.2352C164.927 53.4812 166.529 54.0508 168.06 54.0508C169.876 54.0508 171.584 53.2676 172.759 51.986L171.905 50.4908ZM173.934 81L173.044 56.4004H170.73L166.244 74.0936L166.351 56.5072L162.435 56.436L164.215 81H166.565L171.086 62.7372L172.083 81H173.934ZM23.6258 95.1772L30.3898 95.284L30.639 92.6496H20.2438V117.142H24.1598L23.6258 95.1772ZM37.8143 98.5592L42.6203 116.964H46.0735L38.5975 92.5784H35.9987L28.1667 116.964H31.1571L37.8143 98.5592ZM64.3816 117.071L63.4916 92.7208L60.4656 92.5428L52.1708 109.666L52.6336 92.614H48.7176L48.682 116.751L51.0316 116.858L60.1096 98.1676L60.608 117.071H64.3816ZM83.3759 116.964L83.4115 92.4716H79.5667L79.4599 104.077L71.4499 103.899L71.5211 92.4716H68.6375L69.0647 116.964H71.3431L71.4499 105.75H79.4599L79.3175 116.964H83.3759ZM99.8999 92.3292L85.7667 93.148L85.9091 95.1416H91.3559L90.8931 116.893L93.9547 116.466L95.0227 95.1416L99.7575 95.2128L99.8999 92.3292ZM102.899 92.5784L102.152 117H111.336L113.971 114.935L114.22 105.074L110.98 102.938L113.757 96.3876L111.55 92.6852L102.899 92.5784ZM111.692 106.605L111.514 113.226L109.414 114.757L105.996 114.437L106.032 105.216L109.307 104.682L111.692 106.605ZM108.026 102.831L106.032 103.223L106.068 94.8212L109.272 94.7856L110.589 96.7436L108.026 102.831ZM119.907 96.2096L127.169 95.818V92.6496H117.877L117.379 117H127.169V113.974L119.408 113.298L119.622 105.572L125.425 106.356V103.757H119.693L119.907 96.2096ZM138.843 86.4908C137.81 87.3096 136.885 87.6656 135.995 87.6656C134.713 87.6656 133.503 86.9892 132.114 86.028L130.477 88.2352C131.865 89.4812 133.467 90.0508 134.998 90.0508C136.813 90.0508 138.522 89.2676 139.697 87.986L138.843 86.4908ZM140.872 117L139.982 92.4004H137.668L133.182 110.094L133.289 92.5072L129.373 92.436L131.153 117H133.503L138.024 98.7372L139.021 117H140.872ZM159.895 116.964L159.931 92.4716H156.086L155.979 104.077L147.969 103.899L148.04 92.4716H145.157L145.584 116.964H147.862L147.969 105.75H155.979L155.837 116.964H159.895Z" fill="white"/>
</g>
<defs>
<clipPath id="clip0_486_3893">
<rect width="180" height="180" fill="white"/>
</clipPath>
</defs>
</svg>
