<svg width="180" height="180" viewBox="0 0 180 180" fill="none" xmlns="http://www.w3.org/2000/svg">
<g clip-path="url(#clip0_486_3934)">
<rect width="180" height="180" fill="#6B291A"/>
<path fill-rule="evenodd" clip-rule="evenodd" d="M109.225 9L23 86.1648L41.4964 108.389L74.3921 80.9601C73.6747 84.8482 73.8042 88.9525 75.5272 92.8197C77.5798 97.4265 81.6151 101.075 87.644 103.567C89.9389 104.516 92.1519 105.188 94.2767 105.608C94.3499 106.218 94.4471 106.827 94.5698 107.434C95.7061 113.053 98.9865 118.183 105.024 121.809C108.878 124.123 112.63 125.613 116.183 126.426C116.07 131.011 117.48 135.899 121.318 140.575C127.619 148.253 134.682 152.878 141.15 154.164C143.079 156.697 145.711 159.31 149.09 162L154.127 155.662C152.998 154.763 152.004 153.905 151.129 153.092C151.866 152.719 152.568 152.269 153.228 151.74C155.995 149.518 157.569 146.239 157.946 142.457C158.175 140.164 157.676 137.979 156.355 136.204C155.063 134.469 153.253 133.481 151.475 133.025C148.048 132.146 144.043 133.031 141.142 135.343C138.664 137.318 137.03 140.305 137.061 143.919C134.116 142.176 130.855 139.437 127.571 135.435C125.329 132.704 124.355 129.88 124.281 127.152C127.732 126.961 130.857 126.109 133.532 124.787C137.011 123.069 139.801 120.502 141.343 117.506C142.898 114.486 143.284 110.686 141.104 107.412C139.789 105.438 137.803 104.419 135.731 104.194C133.799 103.983 131.895 104.457 130.255 105.156C126.964 106.559 123.664 109.322 121.126 112.737C119.861 114.439 118.733 116.388 117.875 118.508C115.219 117.888 112.305 116.737 109.187 114.864C105.167 112.45 103.243 109.318 102.53 105.97C104.118 105.776 105.635 105.425 107.079 104.93C112.515 103.068 116.487 99.3259 119.051 95.2617C121.584 91.2481 122.912 86.6581 122.818 82.7252C122.771 80.7666 122.362 78.6793 121.276 76.902C120.115 75.0027 118.216 73.5597 115.699 73.2448C113.409 72.9583 111.234 73.6698 109.449 74.6306C107.624 75.6124 105.877 77.0272 104.289 78.6578C101.114 81.9185 98.2037 86.4259 96.3182 91.3646C95.5879 93.2777 94.9941 95.3019 94.6058 97.3831C93.3876 97.0732 92.0976 96.6456 90.7331 96.0815C86.1274 94.1775 83.9302 91.7947 82.9172 89.521C81.8756 87.1832 81.8019 84.323 82.6709 80.99C83.7138 76.9901 85.9873 72.8148 88.6177 69.0987L130.31 34.3352L109.225 9ZM148.165 145.422C147.62 145.86 146.848 146.221 145.805 146.366C145.581 145.873 145.424 145.426 145.321 145.027C144.848 143.195 145.443 142.268 146.182 141.679C147.182 140.882 148.595 140.647 149.466 140.87C149.728 140.937 149.835 141.016 149.864 141.042C149.888 141.104 149.932 141.281 149.895 141.652C149.695 143.655 148.957 144.787 148.165 145.422ZM149.862 141.038C149.856 141.022 149.851 141.016 149.851 141.016C149.85 141.017 149.851 141.019 149.853 141.024C149.855 141.027 149.858 141.032 149.862 141.038ZM129.95 117.525C129.057 117.967 128.033 118.346 126.89 118.62C127.121 118.263 127.364 117.913 127.618 117.571C129.487 115.057 131.714 113.337 133.426 112.607C133.912 112.4 134.273 112.307 134.513 112.269C134.568 112.575 134.529 113.061 134.15 113.797C133.543 114.977 132.179 116.424 129.95 117.525ZM104.459 97.2675C103.936 97.4466 103.384 97.6003 102.802 97.7226C103.076 96.569 103.437 95.4082 103.877 94.2555C105.387 90.2998 107.714 86.7444 110.084 84.3105C111.269 83.0939 112.371 82.2534 113.28 81.7641C113.848 81.4586 114.235 81.3448 114.459 81.3032C114.57 81.5734 114.709 82.089 114.728 82.9186C114.779 85.0419 114.012 88.0808 112.21 90.9369C110.44 93.7423 107.837 96.1103 104.459 97.2675Z" fill="#201E1E"/>
<path d="M27.3284 81L27.0436 56.436H23.1276L23.0208 65.514L12.9104 65.3004L12.9816 56.436H9.84884V81H12.768L12.8748 67.2228H23.0208L22.8784 81H27.3284ZM36.7741 81H41.0461L44.3213 76.6212L44.7129 60.9572L40.3697 56.436H33.9261L30.8645 60.8148L30.5085 76.4788L36.7741 81ZM38.8033 58.7144L41.0817 61.8828L40.3697 76.3008L38.0913 78.5436L33.4277 75.1972L33.8905 60.7792L35.4569 58.6076L38.8033 58.7144ZM48.63 56.5784L47.8824 81H57.0672L59.7016 78.9352L59.9508 69.074L56.7112 66.938L59.488 60.3876L57.2808 56.6852L48.63 56.5784ZM57.4232 70.6048L57.2452 77.2264L55.1448 78.7572L51.7272 78.4368L51.7628 69.2164L55.038 68.6824L57.4232 70.6048ZM53.7564 66.8312L51.7628 67.2228L51.7984 58.8212L55.0024 58.7856L56.3196 60.7436L53.7564 66.8312ZM68.9671 81H73.2391L76.5143 76.6212L76.9059 60.9572L72.5627 56.436H66.1191L63.0575 60.8148L62.7015 76.4788L68.9671 81ZM70.9963 58.7144L73.2747 61.8828L72.5627 76.3008L70.2843 78.5436L65.6207 75.1972L66.0835 60.7792L67.6499 58.6076L70.9963 58.7144ZM83.4574 59.1772L90.2214 59.284L90.4706 56.6496H80.0754V81.1424H83.9914L83.4574 59.1772ZM96.9882 81H101.26L104.535 76.6212L104.927 60.9572L100.584 56.436H94.1402L91.0786 60.8148L90.7226 76.4788L96.9882 81ZM99.0174 58.7144L101.296 61.8828L100.584 76.3008L98.3054 78.5436L93.6418 75.1972L94.1046 60.7792L95.671 58.6076L99.0174 58.7144ZM108.559 84.382L107.99 80.9644H122.657V84.2396L124.722 84.4888L125.184 79.8608L124.579 78.864L121.589 78.9352L118.634 57.1836L117.566 56.2224H114.504L108.844 79.1132L106.21 79.1488L105.676 79.932L106.281 84.56L108.559 84.382ZM115.572 59.5332L117.993 78.9708L111.336 79.0776L115.572 59.5332ZM141.782 80.9644L141.818 56.4716H137.973L137.866 68.0772L129.856 67.8992L129.927 56.4716H127.044L127.471 80.9644H129.749L129.856 69.7504H137.866L137.724 80.9644H141.782ZM153.678 70.32L153.251 81H156.063V56.614H147.413L145.241 59.5688V67.8636L147.057 70.32H149.228L145.099 80.466L148.125 81.356L152.112 70.32H153.678ZM153.678 68.006H149.228L147.875 66.5108V60.6724L149.371 58.7856H153.678V68.006ZM167.932 70.32L167.505 81H170.317V56.614H161.666L159.495 59.5688V67.8636L161.31 70.32H163.482L159.352 80.466L162.378 81.356L166.366 70.32H167.932ZM167.932 68.006H163.482L162.129 66.5108V60.6724L163.624 58.7856H167.932V68.006ZM34.1146 117H38.3866L41.6618 112.621L42.0534 96.9572L37.7102 92.436H31.2666L28.205 96.8148L27.849 112.479L34.1146 117ZM36.1438 94.7144L38.4222 97.8828L37.7102 112.301L35.4318 114.544L30.7682 111.197L31.231 96.7792L32.7974 94.6076L36.1438 94.7144ZM56.6688 92.3292L42.5356 93.148L42.678 95.1416H48.1248L47.662 116.893L50.7236 116.466L51.7916 95.1416L56.5264 95.2128L56.6688 92.3292ZM59.6681 92.5784L58.9205 117H68.1053L70.7397 114.935L70.9889 105.074L67.7493 102.938L70.5261 96.3876L68.3189 92.6852L59.6681 92.5784ZM68.4613 106.605L68.2833 113.226L66.1829 114.757L62.7653 114.437L62.8009 105.216L66.0761 104.682L68.4613 106.605ZM64.7945 102.831L62.8009 103.223L62.8365 94.8212L66.0405 94.7856L67.3577 96.7436L64.7945 102.831ZM76.6755 96.2096L83.9379 95.818V92.6496H74.6463L74.1479 117H83.9379V113.974L76.1771 113.298L76.3907 105.572L82.1935 106.356V103.757H76.4619L76.6755 96.2096ZM89.2748 106.996L98.5308 106.818L101.699 104.148L101.735 96.3876L98.3528 92.6496H86.142V117H89.168L89.2748 106.996ZM89.2748 104.86L89.3816 95.1772L96.3592 95.6044L98.958 97.5268L98.2816 102.831L96.6084 104.789L89.2748 104.86ZM116.222 92.3292L102.089 93.148L102.232 95.1416H107.678L107.216 116.893L110.277 116.466L111.345 95.1416L116.08 95.2128L116.222 92.3292ZM123.28 103.294L130.258 117.107L133.818 115.861L124.775 101.834L132.322 94.6432L130.364 92.6496L123.031 101.3H122.283L122.354 92.6852L118.794 92.5072L118.474 117.142L121.998 116.964L122.105 103.436L123.28 103.294ZM150.434 117L152.855 116.502L145.735 92.2936H142.46L134.984 116.395L138.473 117.356L140.716 108.776L147.764 108.171L150.434 117ZM144.204 96.3164L147.266 106.498L141.214 106.854L144.204 96.3164Z" fill="white"/>
</g>
<defs>
<clipPath id="clip0_486_3934">
<rect width="180" height="180" fill="white"/>
</clipPath>
</defs>
</svg>
