<svg width="180" height="180" viewBox="0 0 180 180" fill="none" xmlns="http://www.w3.org/2000/svg">
<g clip-path="url(#clip0_486_3904)">
<rect width="180" height="180" fill="#478358"/>
<path d="M45.4976 112H135C108.384 37.3586 59.2432 28.2676 38 33.0523C50.7459 49.7031 48.3092 92.6219 45.4976 112Z" fill="#D51442"/>
<path d="M50 112C50 112 51.1685 134.353 72.2014 139.059C72.2014 139.059 67.5274 153.176 82.7179 167.294L86.2233 215.529L81.5494 222.588L66.3589 229.647V232H114.641V229.647L99.4506 222.588L94.7767 215.529L98.2821 167.294C113.473 153.176 108.799 139.059 108.799 139.059C129.832 134.353 131 112 131 112H50Z" fill="#405A43"/>
<path d="M27.3284 81L27.0436 56.436H23.1276L23.0208 65.514L12.9104 65.3004L12.9816 56.436H9.84884V81H12.768L12.8748 67.2228H23.0208L22.8784 81H27.3284ZM36.7741 81H41.0461L44.3213 76.6212L44.7129 60.9572L40.3697 56.436H33.9261L30.8645 60.8148L30.5085 76.4788L36.7741 81ZM38.8033 58.7144L41.0817 61.8828L40.3697 76.3008L38.0913 78.5436L33.4277 75.1972L33.8905 60.7792L35.4569 58.6076L38.8033 58.7144ZM48.63 56.5784L47.8824 81H57.0672L59.7016 78.9352L59.9508 69.074L56.7112 66.938L59.488 60.3876L57.2808 56.6852L48.63 56.5784ZM57.4232 70.6048L57.2452 77.2264L55.1448 78.7572L51.7272 78.4368L51.7628 69.2164L55.038 68.6824L57.4232 70.6048ZM53.7564 66.8312L51.7628 67.2228L51.7984 58.8212L55.0024 58.7856L56.3196 60.7436L53.7564 66.8312ZM68.9671 81H73.2391L76.5143 76.6212L76.9059 60.9572L72.5627 56.436H66.1191L63.0575 60.8148L62.7015 76.4788L68.9671 81ZM70.9963 58.7144L73.2747 61.8828L72.5627 76.3008L70.2843 78.5436L65.6207 75.1972L66.0835 60.7792L67.6499 58.6076L70.9963 58.7144ZM83.4574 59.1772L90.2214 59.284L90.4706 56.6496H80.0754V81.1424H83.9914L83.4574 59.1772ZM96.9882 81H101.26L104.535 76.6212L104.927 60.9572L100.584 56.436H94.1402L91.0786 60.8148L90.7226 76.4788L96.9882 81ZM99.0174 58.7144L101.296 61.8828L100.584 76.3008L98.3054 78.5436L93.6418 75.1972L94.1046 60.7792L95.671 58.6076L99.0174 58.7144ZM108.559 84.382L107.99 80.9644H122.657V84.2396L124.722 84.4888L125.184 79.8608L124.579 78.864L121.589 78.9352L118.634 57.1836L117.566 56.2224H114.504L108.844 79.1132L106.21 79.1488L105.676 79.932L106.281 84.56L108.559 84.382ZM115.572 59.5332L117.993 78.9708L111.336 79.0776L115.572 59.5332ZM141.782 80.9644L141.818 56.4716H137.973L137.866 68.0772L129.856 67.8992L129.927 56.4716H127.044L127.471 80.9644H129.749L129.856 69.7504H137.866L137.724 80.9644H141.782ZM153.678 70.32L153.251 81H156.063V56.614H147.413L145.241 59.5688V67.8636L147.057 70.32H149.228L145.099 80.466L148.125 81.356L152.112 70.32H153.678ZM153.678 68.006H149.228L147.875 66.5108V60.6724L149.371 58.7856H153.678V68.006ZM167.932 70.32L167.505 81H170.317V56.614H161.666L159.495 59.5688V67.8636L161.31 70.32H163.482L159.352 80.466L162.378 81.356L166.366 70.32H167.932ZM167.932 68.006H163.482L162.129 66.5108V60.6724L163.624 58.7856H167.932V68.006ZM23.4106 101.514L16.789 92.5072L15.543 93.0412L14.0478 117L16.8246 117.32L17.4654 98.7372L23.0902 106.071L29.7474 98.844L30.3882 117.036L33.4854 116.858L32.809 93.7176L30.9578 92.5072L23.4106 101.514ZM50.4833 117L52.9041 116.502L45.7841 92.2936H42.5089L35.0329 116.395L38.5217 117.356L40.7645 108.776L47.8133 108.171L50.4833 117ZM44.2533 96.3164L47.3149 106.498L41.2629 106.854L44.2533 96.3164ZM58.6811 106.996L67.9371 106.818L71.1055 104.148L71.1411 96.3876L67.7591 92.6496H55.5483V117H58.5743L58.6811 106.996ZM58.6811 104.86L58.7879 95.1772L65.7655 95.6044L68.3643 97.5268L67.6879 102.831L66.0147 104.789L58.6811 104.86ZM76.7998 95.1772L83.5638 95.284L83.813 92.6496H73.4178V117.142H77.3338L76.7998 95.1772ZM96.4087 117L98.8295 116.502L91.7095 92.2936H88.4343L80.9583 116.395L84.4471 117.356L86.6899 108.776L93.7387 108.171L96.4087 117ZM90.1787 96.3164L93.2403 106.498L87.1883 106.854L90.1787 96.3164ZM104.606 106.996L113.862 106.818L117.031 104.148L117.066 96.3876L113.684 92.6496H101.474V117H104.5L104.606 106.996ZM104.606 104.86L104.713 95.1772L111.691 95.6044L114.29 97.5268L113.613 102.831L111.94 104.789L104.606 104.86ZM135.043 117.071L134.153 92.7208L131.127 92.5428L122.832 109.666L123.295 92.614H119.379L119.343 116.751L121.693 116.858L130.771 98.1676L131.269 117.071H135.043ZM150.814 92.3292L136.681 93.148L136.823 95.1416H142.27L141.807 116.893L144.869 116.466L145.937 95.1416L150.672 95.2128L150.814 92.3292ZM164.271 117L166.692 116.502L159.572 92.2936H156.297L148.821 116.395L152.31 117.356L154.552 108.776L161.601 108.171L164.271 117ZM158.041 96.3164L161.103 106.498L155.051 106.854L158.041 96.3164Z" fill="white"/>
<circle cx="38" cy="29" r="15" fill="#F4D8D8"/>
</g>
<defs>
<clipPath id="clip0_486_3904">
<rect width="180" height="180" fill="white"/>
</clipPath>
</defs>
</svg>
