<svg width="180" height="180" viewBox="0 0 180 180" fill="none" xmlns="http://www.w3.org/2000/svg">
<g clip-path="url(#clip0_480_2100)">
<rect width="180" height="180" fill="#242320"/>
<path d="M129.457 140.951C71.8147 103.949 109.135 55.2978 135 35.5977C112.494 32.7426 65.3654 38.6812 56.9003 85.2763C48.4353 131.871 101.745 141.807 129.457 140.951Z" fill="#555555"/>
<path d="M63.6585 81L63.3737 56.436H59.4577L59.3509 65.514L49.2405 65.3004L49.3117 56.436H46.1789V81H49.0981L49.2049 67.2228H59.3509L59.2085 81H63.6585ZM73.1042 81H77.3762L80.6514 76.6212L81.043 60.9572L76.6998 56.436H70.2562L67.1946 60.8148L66.8386 76.4788L73.1042 81ZM75.1334 58.7144L77.4118 61.8828L76.6998 76.3008L74.4214 78.5436L69.7578 75.1972L70.2206 60.7792L71.787 58.6076L75.1334 58.7144ZM94.8925 56.8988L91.7241 56.5784L91.4749 65.8344L86.4197 67.0448L85.0669 65.6564L86.3841 56.614L82.9665 56.4716L82.2901 66.938L85.9569 69.8572L91.4037 67.9704L91.0833 80.5372L94.1805 81.0712L94.8925 56.8988ZM104.609 56.4716H100.693L99.1617 81H107.065L112.476 77.44L112.725 70.2844L109.842 67.116L103.861 68.54L104.609 56.4716ZM108.347 70.0352L109.842 71.6016L109.628 76.0516L105.249 78.864L103.291 78.4724L103.754 71.1032L108.347 70.0352ZM123.793 56.5784L123.046 81H132.231L134.865 78.9352L135.114 69.074L131.875 66.938L134.651 60.3876L132.444 56.6852L123.793 56.5784ZM132.587 70.6048L132.409 77.2264L130.308 78.7572L126.891 78.4368L126.926 69.2164L130.201 68.6824L132.587 70.6048ZM128.92 66.8312L126.926 67.2228L126.962 58.8212L130.166 58.7856L131.483 60.7436L128.92 66.8312ZM57.4104 92.5784L43.5264 93.3616L43.6688 95.284H48.902L48.4748 117L51.6788 116.608L52.7468 95.284L57.3036 95.3552L57.4104 92.5784ZM60.4156 115.896L63.228 117L70.0276 92.614H66.966L63.94 103.365L60.6648 92.436L58.2796 93.2192L62.8364 107.317L60.4156 115.896ZM87.0958 116.964L87.1314 92.4716H83.2866L83.1798 104.077L75.1698 103.899L75.241 92.4716H72.3574L72.7846 116.964H75.063L75.1698 105.75H83.1798L83.0374 116.964H87.0958ZM107.109 117.071L106.219 92.7208L103.193 92.5428L94.8978 109.666L95.3606 92.614H91.4446L91.409 116.751L93.7586 116.858L102.837 98.1676L103.335 117.071H107.109ZM115.174 117H122.222L124.323 112.479L121.617 111.126L120.229 114.152L116.206 114.01L113.678 110.841L114.39 97.1708L116.206 94.8212L119.659 95.4976L121.154 98.7728L123.682 97.4556L121.439 92.4716H114.426L110.759 96.8504L110.296 112.479L115.174 117ZM129.537 96.2096L136.799 95.818V92.6496H127.507L127.009 117H136.799V113.974L129.038 113.298L129.252 105.572L135.055 106.356V103.757H129.323L129.537 96.2096Z" fill="white"/>
</g>
<defs>
<clipPath id="clip0_480_2100">
<rect width="180" height="180" fill="white"/>
</clipPath>
</defs>
</svg>
