<svg width="180" height="180" viewBox="0 0 180 180" fill="none" xmlns="http://www.w3.org/2000/svg">
<g clip-path="url(#clip0_486_3956)">
<rect width="180" height="180" fill="#3C47A5"/>
<path d="M138 18L90.1061 27.9039C84.4175 59.083 71.6091 121.881 65.8838 123.642C60.1586 125.403 38.9091 131.345 29 134.096V144H81.298C101.116 137.397 118.549 85.8603 124.788 60.917L120.384 144H138V18Z" fill="#FFBE3F"/>
<path d="M19.4792 77.7604C15.7768 77.7604 14.7444 72.812 14.7444 68.4688C14.7444 64.2324 16.2752 58.6432 19.7284 58.6432C22.7544 58.6432 24.6056 63.4136 24.6056 68.362C24.6056 73.2392 22.8968 77.7604 19.4792 77.7604ZM19.5148 81.2136C24.9616 81.2136 27.596 74.8412 27.596 68.5044C27.596 62.31 25.0684 56.1512 20.0844 56.1512C14.246 56.1512 12.4304 64.1612 12.4304 68.9316C12.4304 74.4496 13.9968 81.2136 19.5148 81.2136ZM33.9106 70.9964L43.1666 70.8184L46.335 68.1484L46.3706 60.3876L42.9886 56.6496H30.7778V81H33.8038L33.9106 70.9964ZM33.9106 68.8604L34.0174 59.1772L40.995 59.6044L43.5938 61.5268L42.9174 66.8312L41.2442 68.7892L33.9106 68.8604ZM60.6175 81L63.0383 80.5016L55.9183 56.2936H52.6431L45.1671 80.3948L48.6559 81.356L50.8987 72.7764L57.9475 72.1712L60.6175 81ZM54.3875 60.3164L57.4491 70.498L51.3971 70.854L54.3875 60.3164ZM80.4208 80.9644L80.4564 56.4716H76.6116L76.5048 68.0772L68.4948 67.8992L68.566 56.4716H65.6824L66.1096 80.9644H68.388L68.4948 69.7504H76.5048L76.3624 80.9644H80.4208ZM98.0484 68.362L105.026 81.1068L108.586 79.8608L100.006 66.582L107.091 58.6432L105.133 56.6496L97.7992 66.3684H97.0516L97.1228 56.6852L93.2424 56.5072L93.1 66.3684H93.0288L85.6952 56.6496L83.4168 59.2128L90.2876 67.3652L82.776 80.644L86.1224 81.4984L92.7796 68.362L93.0644 68.3976L92.922 81.1424L96.7668 80.9644L96.8736 68.5044L98.0484 68.362ZM113.44 60.2096L120.703 59.818V56.6496H111.411L110.913 81H120.703V77.974L112.942 77.2976L113.155 69.5724L118.958 70.3556V67.7568H113.227L113.44 60.2096ZM123.654 56.5784L122.907 81H132.091L134.726 78.9352L134.975 69.074L131.735 66.938L134.512 60.3876L132.305 56.6852L123.654 56.5784ZM132.447 70.6048L132.269 77.2264L130.169 78.7572L126.751 78.4368L126.787 69.2164L130.062 68.6824L132.447 70.6048ZM128.781 66.8312L126.787 67.2228L126.823 58.8212L130.027 58.7856L131.344 60.7436L128.781 66.8312ZM151.947 81L154.368 80.5016L147.248 56.2936H143.972L136.496 80.3948L139.985 81.356L142.228 72.7764L149.277 72.1712L151.947 81ZM145.717 60.3164L148.778 70.498L142.726 70.854L145.717 60.3164ZM164.247 70.32L163.82 81H166.632V56.614H157.981L155.81 59.5688V67.8636L157.625 70.32H159.797L155.667 80.466L158.693 81.356L162.68 70.32H164.247ZM164.247 68.006H159.797L158.444 66.5108V60.6724L159.939 58.7856H164.247V68.006ZM60.9054 101.514L54.2838 92.5072L53.0378 93.0412L51.5426 117L54.3194 117.32L54.9602 98.7372L60.585 106.071L67.2422 98.844L67.883 117.036L70.9802 116.858L70.3038 93.7176L68.4526 92.5072L60.9054 101.514ZM76.6929 96.2096L83.9553 95.818V92.6496H74.6637L74.1653 117H83.9553V113.974L76.1945 113.298L76.4081 105.572L82.2109 106.356V103.757H76.4793L76.6929 96.2096ZM96.8394 92.8988L93.671 92.5784L93.4218 101.834L88.3666 103.045L87.0138 101.656L88.331 92.614L84.9134 92.4716L84.237 102.938L87.9038 105.857L93.3506 103.97L93.0302 116.537L96.1274 117.071L96.8394 92.8988ZM113.319 92.3292L99.1862 93.148L99.3286 95.1416H104.775L104.313 116.893L107.374 116.466L108.442 95.1416L113.177 95.2128L113.319 92.3292ZM126.776 117L129.197 116.502L122.077 92.2936H118.802L111.326 116.395L114.815 117.356L117.058 108.776L124.106 108.171L126.776 117ZM120.546 96.3164L123.608 106.498L117.556 106.854L120.546 96.3164Z" fill="white"/>
</g>
<defs>
<clipPath id="clip0_486_3956">
<rect width="180" height="180" fill="white"/>
</clipPath>
</defs>
</svg>
