<svg width="180" height="180" viewBox="0 0 180 180" fill="none" xmlns="http://www.w3.org/2000/svg">
<g clip-path="url(#clip0_526_2344)">
<rect width="180" height="180" fill="#E1B37E"/>
<circle cx="81" cy="47" r="38" fill="#EA864E"/>
<circle cx="119" cy="31" r="22" fill="#EA864E"/>
<circle cx="25" cy="61" r="11" fill="#EA864E"/>
<circle cx="32" cy="50" r="7" fill="#EA864E"/>
<circle cx="36" cy="137" r="7" fill="#EA864E"/>
<circle cx="60" cy="120" r="21" fill="#EA864E"/>
<path d="M155.246 161.188C176.032 121.314 153.239 105.305 141.862 82.8016C130.485 60.2986 133.881 32.9996 133.881 32.9996L80.0945 50.5229C80.0945 50.5229 98.8019 70.6378 102.859 95.5085C106.916 120.379 97.8766 146.845 138.203 166.741L150.002 190.485L130.221 204.384L131.189 207.353L184.976 189.83L184.008 186.86L159.78 187.367L155.246 161.188Z" fill="#BC7745"/>
<path d="M62.7575 60H66.6779L66.1631 33.5472L65.0147 32.5176L49.0955 32.7552V59.7228L53.5703 60.2376V34.6956H63.0347L62.7575 60ZM88.9114 60.0792L87.9214 32.9928L84.5554 32.7948L75.3286 51.8424L75.8434 32.874H71.4874L71.4478 59.7228L74.0614 59.8416L84.1594 39.0516L84.7138 60.0792H88.9114ZM110.04 59.9604L110.079 32.7156H105.803L105.684 45.6252L96.7739 45.4272L96.8531 32.7156H93.6455L94.1207 59.9604H96.6551L96.7739 47.4864H105.684L105.525 59.9604H110.04ZM130.202 60L132.895 59.4456L124.975 32.5176H121.332L113.016 59.3268L116.897 60.396L119.392 50.8524L127.232 50.1792L130.202 60ZM123.272 36.9924L126.678 48.318L119.946 48.714L123.272 36.9924ZM36.6524 84.754L44.414 100.119L48.374 98.7328L38.3156 83.1304L46.7108 75.1312L44.5328 72.9136L36.3752 82.5364H35.5436L35.6228 72.9532L31.6628 72.7552L31.3064 100.158L35.2268 99.9604L35.3456 84.9124L36.6524 84.754ZM55.1469 100H59.8989L63.5421 95.1292L63.9777 77.7052L59.1465 72.676H51.9789L48.5733 77.5468L48.1773 94.9708L55.1469 100ZM57.4041 75.2104L59.9385 78.7348L59.1465 94.7728L56.6121 97.2676L51.4245 93.5452L51.9393 77.5072L53.6817 75.0916L57.4041 75.2104ZM76.4133 79.4872L81.7593 99.9604H85.6005L77.2845 72.8344H74.3937L65.6817 99.9604H69.0081L76.4133 79.4872ZM104.254 100L106.946 99.4456L99.0264 72.5176H95.3832L87.0672 99.3268L90.948 100.396L93.4428 90.8524L101.284 90.1792L104.254 100ZM97.3236 76.9924L100.729 88.318L93.9972 88.714L97.3236 76.9924ZM110.402 103.762L109.769 99.9604H126.084V103.604L128.381 103.881L128.896 98.7328L128.222 97.624L124.896 97.7032L121.609 73.5076L120.421 72.4384H117.016L110.719 97.9012L107.789 97.9408L107.195 98.812L107.868 103.96L110.402 103.762ZM118.204 76.1212L120.896 97.7428L113.491 97.8616L118.204 76.1212ZM147.992 100L150.684 99.4456L142.764 72.5176H139.121L130.805 99.3268L134.686 100.396L137.181 90.8524L145.022 90.1792L147.992 100ZM141.062 76.9924L144.467 88.318L137.735 88.714L141.062 76.9924ZM63.3615 119.487L68.7075 139.96H72.5487L64.2327 112.834H61.3419L52.6299 139.96H55.9563L63.3615 119.487ZM91.2019 140L93.8947 139.446L85.9747 112.518H82.3315L74.0155 139.327L77.8963 140.396L80.3911 130.852L88.2319 130.179L91.2019 140ZM84.2719 116.992L87.6775 128.318L80.9455 128.714L84.2719 116.992ZM107.37 106.063C106.221 106.974 105.192 107.37 104.202 107.37C102.776 107.37 101.43 106.617 99.8851 105.548L98.0635 108.003C99.6079 109.389 101.39 110.023 103.093 110.023C105.112 110.023 107.013 109.152 108.32 107.726L107.37 106.063ZM109.627 140L108.637 112.636H106.063L101.073 132.318L101.192 112.755L96.8359 112.676L98.8159 140H101.43L106.459 119.685L107.568 140H109.627ZM127.976 112.557L112.255 113.468L112.413 115.686H118.472L117.957 139.881L121.363 139.406L122.551 115.686L127.817 115.765L127.976 112.557Z" fill="white"/>
</g>
<defs>
<clipPath id="clip0_526_2344">
<rect width="180" height="180" fill="white"/>
</clipPath>
</defs>
</svg>
