<svg width="180" height="180" viewBox="0 0 180 180" fill="none" xmlns="http://www.w3.org/2000/svg">
<g clip-path="url(#clip0_551_1989)">
<rect width="180" height="180" fill="#421D40"/>
<path d="M67.7988 78.6302C57.9018 97.2423 58.3568 116.839 68.8151 122.4C79.2733 127.961 95.7745 117.381 105.671 98.7689C115.568 80.1567 115.113 60.5604 104.655 54.9992C94.1969 49.4381 77.6958 60.018 67.7988 78.6302Z" fill="#CC2BA9"/>
<path d="M126.847 51.9782L112.646 67.0707L88.5387 94.5991C128.019 107.688 126.075 136.791 120.168 149.707C168.9 146.636 172.638 106.519 168.416 86.8452C168.479 103.759 135.401 86.9929 125.02 79.4148C116.716 73.3523 122.778 58.5977 126.847 51.9782Z" fill="#CC2BA9"/>
<path d="M95.0724 35.0819L90.5001 55.2944L81.1564 90.6733C48.2295 65.2597 25.188 83.1443 17.7831 95.2634C-6.91922 53.1438 24.2499 27.614 42.9223 20.1141C28.8639 29.5186 61.26 47.5685 73.3468 51.9371C83.0162 55.432 91.8595 42.1565 95.0724 35.0819Z" fill="#CC2BA9"/>
<path d="M18.7586 81H22.283L21.8202 57.2192L20.7878 56.2936L6.47658 56.5072L6.47658 80.7508L10.4994 81.2136V58.2516H19.0078L18.7586 81ZM31.7331 81H36.0051L39.2803 76.6212L39.6719 60.9572L35.3287 56.436H28.8851L25.8235 60.8148L25.4675 76.4788L31.7331 81ZM33.7623 58.7144L36.0407 61.8828L35.3287 76.3008L33.0503 78.5436L28.3867 75.1972L28.8495 60.7792L30.4159 58.6076L33.7623 58.7144ZM45.903 58.2516H54.1622V81.2136L58.185 80.7508V56.5072H43.8738L42.8414 57.2192V81H45.903V58.2516ZM63.1968 79.8964L66.0092 81L72.8088 56.614H69.7472L66.7212 67.3652L63.446 56.436L61.0608 57.2192L65.6176 71.3168L63.1968 79.8964ZM83.1487 62.5592L87.9547 80.9644H91.4079L83.9319 56.5784H81.3331L73.5011 80.9644H76.4915L83.1487 62.5592ZM101.599 70.32L101.172 81H103.984V56.614H95.3336L93.162 59.5688V67.8636L94.9776 70.32H97.1492L93.0196 80.466L96.0456 81.356L100.033 70.32H101.599ZM101.599 68.006H97.1492L95.7964 66.5108V60.6724L97.2916 58.7856H101.599V68.006ZM111.403 70.9964L120.659 70.8184L123.828 68.1484L123.863 60.3876L120.481 56.6496H108.27V81H111.296L111.403 70.9964ZM111.403 68.8604L111.51 59.1772L118.488 59.6044L121.086 61.5268L120.41 66.8312L118.737 68.7892L111.403 68.8604ZM140.878 80.9644L140.914 56.4716H137.069L136.962 68.0772L128.952 67.8992L129.023 56.4716H126.14L126.567 80.9644H128.845L128.952 69.7504H136.962L136.82 80.9644H140.878ZM159.004 81L161.425 80.5016L154.305 56.2936H151.03L143.554 80.3948L147.043 81.356L149.285 72.7764L156.334 72.1712L159.004 81ZM152.774 60.3164L155.836 70.498L149.784 70.854L152.774 60.3164ZM171.304 70.32L170.877 81H173.689V56.614H165.039L162.867 59.5688V67.8636L164.683 70.32H166.854L162.725 80.466L165.751 81.356L169.738 70.32H171.304ZM171.304 68.006H166.854L165.501 66.5108V60.6724L166.997 58.7856H171.304V68.006ZM73.8675 116.964L73.9031 92.4716H70.0583L69.9515 104.077L61.9415 103.899L62.0127 92.4716H59.1291L59.5563 116.964H61.8347L61.9415 105.75H69.9515L69.8091 116.964H73.8675ZM83.3427 117H87.6147L90.8899 112.621L91.2815 96.9572L86.9383 92.436H80.4947L77.4331 96.8148L77.0771 112.479L83.3427 117ZM85.3719 94.7144L87.6503 97.8828L86.9383 112.301L84.6599 114.544L79.9963 111.197L80.4591 96.7792L82.0255 94.6076L85.3719 94.7144ZM105.131 92.8988L101.963 92.5784L101.713 101.834L96.6582 103.045L95.3054 101.656L96.6226 92.614L93.205 92.4716L92.5286 102.938L96.1954 105.857L101.642 103.97L101.322 116.537L104.419 117.071L105.131 92.8988ZM114.847 92.4716H110.931L109.4 117H117.303L122.715 113.44L122.964 106.284L120.08 103.116L114.099 104.54L114.847 92.4716ZM118.585 106.035L120.08 107.602L119.867 112.052L115.488 114.864L113.53 114.472L113.993 107.103L118.585 106.035Z" fill="white"/>
</g>
<defs>
<clipPath id="clip0_551_1989">
<rect width="180" height="180" fill="white"/>
</clipPath>
</defs>
</svg>
