<svg width="180" height="180" viewBox="0 0 180 180" fill="none" xmlns="http://www.w3.org/2000/svg">
<g clip-path="url(#clip0_480_2056)">
<rect width="180" height="180" fill="#FF843F"/>
<path d="M127 135L157 41.5H148L116 137.5L137.5 162.5L143.5 155.5L127 135Z" fill="#C3612A"/>
<path d="M62.5 58L9.5 90L4.5 165L36 185H42.5L13 160V96.5L46 147L102 106L96 76H107L128.5 96.5L174 61.5L143.5 17L102 44.5L99 61.5L88.5 67.5L62.5 58Z" fill="#C4612A"/>
<path d="M49 132L24.5 90.5L65 67.5L90.5 105L49 132Z" fill="#934F28"/>
<path d="M129.045 81L109 46.8992L142.136 28L163 58.814L129.045 81Z" fill="#934F28"/>
<path d="M26.0345 56.5784L12.1505 57.3616L12.2929 59.284H17.5261L17.0989 81L20.3029 80.6084L21.3709 59.284L25.9277 59.3552L26.0345 56.5784ZM28.292 56.8276L29.36 79.0776L31.674 81H37.6548L39.2568 77.6536L38.5804 69.252L36.0884 66.4752L32.3148 66.1904L31.8876 56.5784L28.292 56.8276ZM45.9852 56.5784H41.9268L42.2116 81H45.0952L45.9852 56.5784ZM35.3052 68.6112L36.124 69.9284L36.7648 77.4756L36.0172 79.1844L32.8844 78.8284L32.4216 68.362L35.3052 68.6112ZM55.0699 67.294L62.0475 81.1068L65.6075 79.8608L56.5651 65.8344L64.1123 58.6432L62.1543 56.6496L54.8207 65.3004H54.0731L54.1443 56.6852L50.5843 56.5072L50.2639 81.1424L53.7883 80.9644L53.8951 67.4364L55.0699 67.294ZM68.0466 56.5784L67.299 81H76.4838L79.1182 78.9352L79.3674 69.074L76.1278 66.938L78.9046 60.3876L76.6974 56.6852L68.0466 56.5784ZM76.8398 70.6048L76.6618 77.2264L74.5614 78.7572L71.1438 78.4368L71.1794 69.2164L74.4546 68.6824L76.8398 70.6048ZM73.173 66.8312L71.1794 67.2228L71.215 58.8212L74.419 58.7856L75.7362 60.7436L73.173 66.8312ZM85.054 60.2096L92.3164 59.818V56.6496H83.0248L82.5264 81H92.3164V77.974L84.5556 77.2976L84.7692 69.5724L90.572 70.3556V67.7568H84.8404L85.054 60.2096ZM109.259 80.9644L109.295 56.4716H105.45L105.343 68.0772L97.3329 67.8992L97.4041 56.4716H94.5205L94.9477 80.9644H97.2261L97.3329 69.7504H105.343L105.201 80.9644H109.259ZM128.31 80.9644L128.346 56.4716H124.501L124.394 68.0772L116.384 67.8992L116.456 56.4716H113.572L113.999 80.9644H116.278L116.384 69.7504H124.394L124.252 80.9644H128.31ZM132.624 56.8276L133.692 79.0776L136.006 81H141.986L143.588 77.6536L142.912 69.252L140.42 66.4752L136.646 66.1904L136.219 56.5784L132.624 56.8276ZM150.317 56.5784H146.258L146.543 81H149.427L150.317 56.5784ZM139.637 68.6112L140.456 69.9284L141.096 77.4756L140.349 79.1844L137.216 78.8284L136.753 68.362L139.637 68.6112ZM164.065 50.4908C163.033 51.3096 162.107 51.6656 161.217 51.6656C159.936 51.6656 158.725 50.9892 157.337 50.028L155.699 52.2352C157.088 53.4812 158.69 54.0508 160.22 54.0508C162.036 54.0508 163.745 53.2676 164.92 51.986L164.065 50.4908ZM166.094 81L165.204 56.4004H162.89L158.405 74.0936L158.512 56.5072L154.596 56.436L156.376 81H158.725L163.246 62.7372L164.243 81H166.094ZM24.0499 117H28.3219L31.5971 112.621L31.9887 96.9572L27.6455 92.436H21.2019L18.1403 96.8148L17.7843 112.479L24.0499 117ZM26.0791 94.7144L28.3575 97.8828L27.6455 112.301L25.3671 114.544L20.7035 111.197L21.1663 96.7792L22.7327 94.6076L26.0791 94.7144ZM43.1682 98.5592L47.9742 116.964H51.4274L43.9514 92.5784H41.3526L33.5206 116.964H36.511L43.1682 98.5592ZM54.4988 120.382L53.9292 116.964H68.5964V120.24L70.6612 120.489L71.124 115.861L70.5188 114.864L67.5284 114.935L64.5736 93.1836L63.5056 92.2224H60.444L54.7836 115.113L52.1492 115.149L51.6152 115.932L52.2204 120.56L54.4988 120.382ZM61.512 95.5332L63.9328 114.971L57.2756 115.078L61.512 95.5332ZM92.4077 112.158L99.4209 110.877L102.305 101.977L98.4953 95.462L92.6925 94.1448L92.7637 91.6884H89.5953L89.5241 94.216L82.4397 94.6076L79.4849 104.148L82.0481 110.806L89.2393 112.479L89.1681 117H92.3009L92.4077 112.158ZM89.2749 109.88L84.8249 108.99L82.9737 103.33L84.8249 96.708L89.4885 96.2096L89.2749 109.88ZM98.5665 102.297L96.9645 108.741L92.4433 110.2L92.6569 96.7436L95.7897 97.0284L98.5665 102.297ZM103.576 117.214L113.508 116.43L116.997 103.65L116.036 98.0608L113.223 92.0444L104.323 93.6108L105.676 97.2064L111.301 95.1772L113.366 98.6304L113.971 102.938L105.961 102.582L106.068 105.501L114.113 105.288L111.372 114.188L103.683 113.511L103.576 117.214ZM121.37 115.576L122.651 117H142.231L141.377 92.5428L137.568 93.0768L138.956 114.401H132.655L132.228 104.184H129.593L130.305 114.33H124.253L123.648 92.7564L120.195 92.436L121.37 115.576ZM161.251 116.964L161.287 92.4716H157.442L157.335 104.077L149.325 103.899L149.396 92.4716H146.513L146.94 116.964H149.218L149.325 105.75H157.335L157.193 116.964H161.251Z" fill="white"/>
</g>
<defs>
<clipPath id="clip0_480_2056">
<rect width="180" height="180" fill="white"/>
</clipPath>
</defs>
</svg>
