<svg width="180" height="180" viewBox="0 0 180 180" fill="none" xmlns="http://www.w3.org/2000/svg">
<g clip-path="url(#clip0_486_4041)">
<rect width="180" height="180" fill="#6B291A"/>
<path d="M17.705 105.621C23.4298 74.5211 56.0361 45.7096 80.2267 29.9419C111.213 23.3449 157.906 30.0623 168.776 39.4951C150.723 43.2458 147.337 66.6372 147.9 77.8641C122.357 69.2832 98.6897 94.0145 90.0489 107.453C68.8194 85.0807 32.974 96.9101 17.705 105.621Z" fill="#7452D2"/>
<path d="M123.808 128.322C118.569 120.593 81.6303 48.8698 63.8159 13.9746L67.7195 14.8475L121.817 116.605C127.848 121.711 139.3 134.656 136.855 145.586C134.411 156.516 119.92 157.169 112.979 156.129L115.38 145.394C126.384 148.88 130.358 137.984 123.808 128.322Z" fill="#7452D2"/>
<path d="M28.0871 80.3168L31.4135 57.2696L37.2743 71.486H39.7691L46.3823 58.3388L48.5207 80.2772L52.7183 79.9604L49.8671 53.468L46.5407 52.9928L38.5811 68.5952L32.2055 52.9136L29.3147 53.3096L24.0083 79.7228L28.0871 80.3168ZM71.6146 80L74.3074 79.4456L66.3874 52.5176H62.7442L54.4282 79.3268L58.309 80.396L60.8038 70.8524L68.6446 70.1792L71.6146 80ZM64.6846 56.9924L68.0902 68.318L61.3582 68.714L64.6846 56.9924ZM86.1586 59.4872L91.5046 79.9604H95.3458L87.0298 52.8344H84.139L75.427 79.9604H78.7534L86.1586 59.4872ZM115.711 80.0792L114.721 52.9928L111.355 52.7948L102.128 71.8424L102.643 52.874H98.287L98.2474 79.7228L100.861 79.8416L110.959 59.0516L111.513 80.0792H115.711ZM136.839 79.9604L136.879 52.7156L132.602 52.7156L132.483 65.6252L123.573 65.4272L123.653 52.7156H120.445L120.92 79.9604H123.455L123.573 67.4864H132.483L132.325 79.9604H136.839ZM147.379 80H152.131L155.774 75.1292L156.21 57.7052L151.379 52.676H144.211L140.806 57.5468L140.41 74.9708L147.379 80ZM149.636 55.2104L152.171 58.7348L151.379 74.7728L148.844 77.2676L143.657 73.5452L144.172 57.5072L145.914 55.0916L149.636 55.2104ZM23.4175 92.8344L22.5859 120H32.8027L35.7331 117.703L36.0103 106.734L32.4067 104.358L35.4955 97.0716L33.0403 92.9532L23.4175 92.8344ZM33.1987 108.437L33.0007 115.802L30.6643 117.505L26.8627 117.149L26.9023 106.892L30.5455 106.298L33.1987 108.437ZM29.1199 104.239L26.9023 104.675L26.9419 95.3292L30.5059 95.2896L31.9711 97.4676L29.1199 104.239ZM39.5242 93.1116L40.7122 117.862L43.2862 120H49.939L51.721 116.278L50.9686 106.932L48.1966 103.843L43.999 103.526L43.5238 92.8344L39.5242 93.1116ZM59.2054 92.8344H54.691L55.0078 120H58.2154L59.2054 92.8344ZM47.3254 106.219L48.2362 107.684L48.949 116.08L48.1174 117.98L44.6326 117.584L44.1178 105.942L47.3254 106.219ZM74.4984 86.0628C73.35 86.9736 72.3204 87.3696 71.3304 87.3696C69.9048 87.3696 68.5584 86.6172 67.014 85.548L65.1924 88.0032C66.7368 89.3892 68.5188 90.0228 70.2216 90.0228C72.2412 90.0228 74.142 89.1516 75.4488 87.726L74.4984 86.0628ZM76.7556 120L75.7656 92.6364H73.1916L68.202 112.318L68.3208 92.7552L63.9648 92.676L65.9448 120H68.5584L73.5876 99.6852L74.6964 120H76.7556ZM102.297 117.624V106.536L99.0897 103.764L93.4665 104.002L93.5457 96.636L101.703 96.1608L101.149 92.6364H91.1697L90.3777 120H99.0897L102.297 117.624ZM93.2289 117.109L93.4269 106.021L97.6641 105.823L99.4461 107.724L99.4065 115.208L98.0205 116.317L93.2289 117.109ZM108.867 108.872L119.163 108.674L122.688 105.704L122.727 97.0716L118.965 92.9136H105.382V120H108.748L108.867 108.872ZM108.867 106.496L108.986 95.7252L116.748 96.2004L119.638 98.3388L118.886 104.239L117.025 106.417L108.867 106.496ZM142.723 120.079L141.733 92.9928L138.367 92.7948L129.141 111.842L129.655 92.874H125.299L125.26 119.723L127.873 119.842L137.971 99.0516L138.526 120.079H142.723ZM145.121 119.485L156.605 119.802L158.743 110.971L158.07 108.16L153.991 105.625L156.843 103.012L157.912 95.1312L153.516 92.9136L146.111 94.8144L147.18 98.1804L152.011 95.5668L153.952 96.5172L153.912 102.022L151.695 104.833H148.051V107.249L151.378 107.328L155.021 110.536L153.595 117.307L145.636 116L145.121 119.485Z" fill="white"/>
</g>
<defs>
<clipPath id="clip0_486_4041">
<rect width="180" height="180" fill="white"/>
</clipPath>
</defs>
</svg>
