<svg width="180" height="180" viewBox="0 0 180 180" fill="none" xmlns="http://www.w3.org/2000/svg">
<g clip-path="url(#clip0_551_1994)">
<rect width="180" height="180" fill="#478358"/>
<path d="M48.914 159.302L30 19.2447L127.059 10L140 163L48.914 159.302Z" fill="#2F6B40"/>
<path d="M35 22.0261L120.046 18.7882L135 159.864L58.7069 155.675L35 22.0261Z" fill="#ADBB87"/>
<path d="M20.9209 68.318C26.1481 67.4864 27.5737 63.2492 27.5737 59.7248C27.5737 56.3192 26.2273 53.1116 20.7625 53.1116H18.7429L17.7529 54.458L17.7133 80L21.1981 79.6436L20.9209 68.318ZM24.9601 60.2C24.9601 63.0908 23.5345 65.2688 20.8813 66.0212L20.7625 55.5668C23.6137 55.844 24.9601 57.5468 24.9601 60.2ZM32.9385 56.8736L41.0169 56.438V52.9136H30.6813L30.1269 80H41.0169V76.634L32.3841 75.8816L32.6217 67.2884L39.0765 68.1596V65.2688H32.7009L32.9385 56.8736ZM44.3003 52.8344L43.4687 80H53.6855L56.6159 77.7032L56.8931 66.734L53.2895 64.358L56.3783 57.0716L53.9231 52.9532L44.3003 52.8344ZM54.0815 68.4368L53.8835 75.8024L51.5471 77.5052L47.7455 77.1488L47.7851 66.8924L51.4283 66.2984L54.0815 68.4368ZM50.0027 64.2392L47.7851 64.6748L47.8247 55.3292L51.3887 55.2896L52.8539 57.4676L50.0027 64.2392ZM63.2186 56.8736L71.297 56.438V52.9136H60.9614L60.407 80H71.297V76.634L62.6642 75.8816L62.9018 67.2884L69.3566 68.1596V65.2688H62.981L63.2186 56.8736ZM90.1432 79.9604L90.1828 52.7156H85.906L85.7872 65.6252L76.8772 65.4272L76.9564 52.7156H73.7488L74.224 79.9604H76.7584L76.8772 67.4864H85.7872L85.6288 79.9604H90.1432ZM97.7526 56.8736L105.831 56.438V52.9136H95.4954L94.941 80H105.831V76.634L97.1982 75.8816L97.4358 67.2884L103.891 68.1596V65.2688H97.515L97.7526 56.8736ZM109.114 52.8344L108.283 80H118.5L121.43 77.7032L121.707 66.734L118.104 64.358L121.192 57.0716L118.737 52.9532L109.114 52.8344ZM118.896 68.4368L118.698 75.8024L116.361 77.5052L112.56 77.1488L112.599 66.8924L116.242 66.2984L118.896 68.4368ZM114.817 64.2392L112.599 64.6748L112.639 55.3292L116.203 55.2896L117.668 57.4676L114.817 64.2392ZM125.221 53.1116L126.409 77.8616L128.983 80H135.636L137.418 76.2776L136.665 66.932L133.893 63.8432L129.696 63.5264L129.221 52.8344L125.221 53.1116ZM144.902 52.8344H140.388L140.705 80H143.912L144.902 52.8344ZM133.022 66.2192L133.933 67.6844L134.646 76.0796L133.814 77.9804L130.329 77.5844L129.815 65.942L133.022 66.2192ZM160.195 46.0628C159.047 46.9736 158.017 47.3696 157.027 47.3696C155.602 47.3696 154.255 46.6172 152.711 45.548L150.889 48.0032C152.434 49.3892 154.216 50.0228 155.918 50.0228C157.938 50.0228 159.839 49.1516 161.146 47.726L160.195 46.0628ZM162.452 80L161.462 52.6364H158.888L153.899 72.3176L154.018 52.7552L149.662 52.676L151.642 80H154.255L159.284 59.6852L160.393 80H162.452ZM23.0693 119.881C23.9405 119.96 25.9997 120 26.7917 120C33.4445 120 36.6125 116.911 36.6125 112.238C36.6125 107.922 33.6821 104.635 28.0193 104.516L28.3757 95.2104L36.0581 95.0124L36.4937 92.7156L24.4553 92.9532L23.0693 119.881ZM28.8509 117.03C28.4549 117.03 28.0193 117.03 27.5441 116.99L28.0193 106.576C31.7021 106.734 33.8009 108.833 33.8009 112.12C33.8009 114.614 32.2565 117.03 28.8509 117.03ZM42.5098 96.8736L50.5882 96.438V92.9136H40.2526L39.6982 120H50.5882V116.634L41.9554 115.882L42.193 107.288L48.6478 108.16V105.269H42.2722L42.5098 96.8736ZM63.1875 99.4872L68.5335 119.96H72.3747L64.0587 92.8344H61.1679L52.4559 119.96H55.7823L63.1875 99.4872ZM84.1863 99.4872L89.5323 119.96H93.3735L85.0575 92.8344H82.1667L73.4547 119.96H76.7811L84.1863 99.4872ZM113.739 120.079L112.749 92.9928L109.383 92.7948L100.156 111.842L100.671 92.874H96.3148L96.2752 119.723L98.8888 119.842L108.987 99.0516L109.541 120.079H113.739ZM134.867 119.96L134.907 92.7156H130.63L130.511 105.625L121.601 105.427L121.68 92.7156H118.473L118.948 119.96H121.482L121.601 107.486H130.511L130.353 119.96H134.867ZM157.129 120.079L156.139 92.9928L152.773 92.7948L143.546 111.842L144.061 92.874H139.705L139.665 119.723L142.279 119.842L152.377 99.0516L152.931 120.079H157.129Z" fill="white"/>
<path d="M106 140C106 142.761 101.747 145 96.5 145C91.2533 145 87 142.761 87 140C87 137.239 91.2533 135 96.5 135C101.747 135 106 137.239 106 140Z" fill="#98A671"/>
</g>
<defs>
<clipPath id="clip0_551_1994">
<rect width="180" height="180" fill="white"/>
</clipPath>
</defs>
</svg>
