<svg width="180" height="180" viewBox="0 0 180 180" fill="none" xmlns="http://www.w3.org/2000/svg">
<g clip-path="url(#clip0_480_2372)">
<rect width="180" height="180" fill="#421A14"/>
<path d="M32.5 189V81.5L119 71.5L168.5 185.5L32.5 189Z" fill="#815018"/>
<path d="M31.597 80.0131C45.4304 72.5131 81.097 59.5131 113.097 67.5131C153.097 77.5131 21.097 92.5131 31.597 80.0131Z" fill="#AF8350"/>
<path d="M98 74.5L82.5 76.5C82.5 76.5 81 75 74 67.5C67 60 57 61 57 61L102.5 26C102.5 26 105 32.5 111 42C117 51.5 121 55 121 55L98 74.5Z" fill="#C5BABA"/>
<path d="M151 -4L53.5 65.5V59.5L138.5 -9.5L151 -4Z" fill="#AF8350"/>
<path d="M4.73177 101.919L4.26897 99H19.3634V101.919H21.2858L21.7842 97.1488L21.4282 96.6504L18.4378 96.7216L15.661 75.326L14.237 74.2224H10.9974L5.69296 96.8996L2.27537 96.9352L1.84817 97.3624L2.59577 101.919H4.73177ZM11.9942 77.5688L14.2726 96.7572L8.07817 96.864L11.9942 77.5688ZM26.161 78.2096L33.4234 77.818V74.6496H24.1318L23.6334 99H33.4234V95.974L25.6626 95.2976L25.8762 87.5724L31.679 88.3556V85.7568H25.9474L26.161 78.2096ZM38.7604 88.9964L48.0164 88.8184L51.1848 86.1484L51.2204 78.3876L47.8384 74.6496H35.6276V99H38.6536L38.7604 88.9964ZM38.7604 86.8604L38.8672 77.1772L45.8448 77.6044L48.4436 79.5268L47.7672 84.8312L46.094 86.7892L38.7604 86.8604ZM56.0247 78.2096L63.2871 77.818V74.6496H53.9955L53.4971 99H63.2871V95.974L55.5263 95.2976L55.7399 87.5724L61.5427 88.3556V85.7568H55.8111L56.0247 78.2096ZM66.2388 74.5784L65.4912 99H74.676L77.3104 96.9352L77.5596 87.074L74.32 84.938L77.0968 78.3876L74.8896 74.6852L66.2388 74.5784ZM75.032 88.6048L74.854 95.2264L72.7536 96.7572L69.336 96.4368L69.3716 87.2164L72.6468 86.6824L75.032 88.6048ZM71.3652 84.8312L69.3716 85.2228L69.4072 76.8212L72.6112 76.7856L73.9284 78.7436L71.3652 84.8312ZM83.2462 78.2096L90.5086 77.818V74.6496H81.217L80.7186 99H90.5086V95.974L82.7478 95.2976L82.9614 87.5724L88.7642 88.3556V85.7568H83.0326L83.2462 78.2096ZM107.451 98.9644L107.487 74.4716H103.642L103.535 86.0772L95.5251 85.8992L95.5963 74.4716H92.7127L93.1399 98.9644H95.4183L95.5251 87.7504H103.535L103.393 98.9644H107.451ZM115.573 99H122.622L124.723 94.4788L122.017 93.126L120.629 96.152L116.606 96.0096L114.078 92.8412L114.79 79.1708L116.606 76.8212L120.059 77.4976L121.554 80.7728L124.082 79.4556L121.839 74.4716H114.826L111.159 78.8504L110.696 94.4788L115.573 99ZM132.215 85.294L139.192 99.1068L142.752 97.8608L133.71 83.8344L141.257 76.6432L139.299 74.6496L131.966 83.3004H131.218L131.289 74.6852L127.729 74.5072L127.409 99.1424L130.933 98.9644L131.04 85.4364L132.215 85.294ZM160.144 99.0712L159.254 74.7208L156.228 74.5428L147.933 91.6664L148.396 74.614H144.48L144.444 98.7508L146.794 98.8576L155.872 80.1676L156.37 99.0712H160.144ZM173.869 68.4908C172.837 69.3096 171.911 69.6656 171.021 69.6656C169.739 69.6656 168.529 68.9892 167.141 68.028L165.503 70.2352C166.891 71.4812 168.493 72.0508 170.024 72.0508C171.84 72.0508 173.549 71.2676 174.723 69.986L173.869 68.4908ZM175.898 99L175.008 74.4004H172.694L168.209 92.0936L168.315 74.5072L164.399 74.436L166.179 99H168.529L173.05 80.7372L174.047 99H175.898Z" fill="white"/>
</g>
<defs>
<clipPath id="clip0_480_2372">
<rect width="180" height="180" fill="white"/>
</clipPath>
</defs>
</svg>
