<svg width="180" height="180" viewBox="0 0 180 180" fill="none" xmlns="http://www.w3.org/2000/svg">
<g clip-path="url(#clip0_461_2163)">
<rect width="180" height="180" fill="#B6002C"/>
<g clip-path="url(#clip1_461_2163)">
<path d="M86.6659 93.8754L42.4152 138.058L33.8448 140.15L23.7005 160.03L28.7369 164.221L47.6032 149.915L47.1153 142.046L90.663 102.029L86.6659 93.8754Z" fill="#FFDF8B"/>
<path d="M77.6522 88.6583L94.3969 109.105C94.3969 109.105 100.146 109.699 107.458 105.917C114.77 102.135 108.586 94.2295 114.934 90.9682C118.76 89.0041 122.893 87.7054 127.156 87.1283L169.827 47.0402L144.961 19.1609L96.645 65.4773C96.645 65.4773 99.1352 76.8517 95.5526 77.441C91.97 78.0304 86.3774 76.2575 86.3774 76.2575C86.3774 76.2575 80.7115 75.3584 77.6522 88.6583Z" fill="#B27500"/>
<path d="M113 146.5L80.5 141L113 151L109.5 160H115.5L122.5 141H115.5L113 146.5Z" fill="#D9D9D9"/>
<path d="M76.5 31L80.5 57L70.5 33H60V28L86 22.5V28L76.5 31Z" fill="#D9D9D9"/>
</g>
<path d="M27.7296 96.3964C23.6112 96.3964 22.4628 90.892 22.4628 86.0608C22.4628 81.3484 24.1656 75.1312 28.0068 75.1312C31.3728 75.1312 33.432 80.4376 33.432 85.942C33.432 91.3672 31.5312 96.3964 27.7296 96.3964ZM27.7692 100.238C33.828 100.238 36.7584 93.1492 36.7584 86.1004C36.7584 79.21 33.9468 72.3592 28.4028 72.3592C21.9084 72.3592 19.8888 81.2692 19.8888 86.5756C19.8888 92.7136 21.6312 100.238 27.7692 100.238ZM53.8804 72.5572L38.1592 73.468L38.3176 75.6856H44.3764L43.8616 99.8812L47.2672 99.406L48.4552 75.6856L53.722 75.7648L53.8804 72.5572ZM57.2167 72.8344L56.3851 100H66.6019L69.5323 97.7032L69.8095 86.734L66.2059 84.358L69.2947 77.0716L66.8395 72.9532L57.2167 72.8344ZM66.9979 88.4368L66.7999 95.8024L64.4635 97.5052L60.6619 97.1488L60.7015 86.8924L64.3447 86.2984L66.9979 88.4368ZM62.9191 84.2392L60.7015 84.6748L60.7411 75.3292L64.3051 75.2896L65.7703 77.4676L62.9191 84.2392ZM76.135 76.8736L84.2134 76.438V72.9136H73.8778L73.3234 100H84.2134V96.634L75.5806 95.8816L75.8182 87.2884L82.273 88.1596V85.2688H75.8974L76.135 76.8736ZM90.15 88.8724L100.446 88.6744L103.97 85.7044L104.01 77.0716L100.248 72.9136H86.6652V100H90.0312L90.15 88.8724ZM90.15 86.4964L90.2688 75.7252L98.0304 76.2004L100.921 78.3388L100.169 84.2392L98.3076 86.4172L90.15 86.4964ZM120.125 72.5572L104.404 73.468L104.563 75.6856H110.621L110.107 99.8812L113.512 99.406L114.7 75.6856L119.967 75.7648L120.125 72.5572ZM127.976 84.754L135.738 100.119L139.698 98.7328L129.639 83.1304L138.034 75.1312L135.856 72.9136L127.699 82.5364H126.867L126.946 72.9532L122.986 72.7552L122.63 100.158L126.55 99.9604L126.669 84.9124L127.976 84.754ZM158.182 100L160.874 99.4456L152.954 72.5176H149.311L140.995 99.3268L144.876 100.396L147.371 90.8524L155.212 90.1792L158.182 100ZM151.252 76.9924L154.657 88.318L147.925 88.714L151.252 76.9924Z" fill="white"/>
</g>
<defs>
<clipPath id="clip0_461_2163">
<rect width="180" height="180" fill="white"/>
</clipPath>
<clipPath id="clip1_461_2163">
<rect width="180" height="180" fill="white"/>
</clipPath>
</defs>
</svg>
