<svg width="180" height="180" viewBox="0 0 180 180" fill="none" xmlns="http://www.w3.org/2000/svg">
<g clip-path="url(#clip0_480_2138)">
<rect width="180" height="180" fill="#242320"/>
<path d="M67 141.5C53 131.9 34.8333 143.5 27.5 150.5C12.5 -14.9999 118.5 12.5003 132 37.0003C142.8 56.6003 147 116.167 143.5 146C137 141.5 127.5 141.5 109.5 150.5C91.5 159.5 84.5 153.5 67 141.5Z" fill="#464646"/>
<path d="M21.4888 83.9192L21.026 81H36.1204V83.9192H38.0428L38.5412 79.1488L38.1852 78.6504L35.1948 78.7216L32.418 57.326L30.994 56.2224H27.7544L22.45 78.8996L19.0324 78.9352L18.6052 79.3624L19.3528 83.9192H21.4888ZM28.7512 59.5688L31.0296 78.7572L24.8352 78.864L28.7512 59.5688ZM41.138 79.8964L43.9504 81L50.75 56.614H47.6884L44.6624 67.3652L41.3872 56.436L39.002 57.2192L43.5588 71.3168L41.138 79.8964ZM54.2547 79.576L55.5363 81H75.1163L74.2619 56.5428L70.4527 57.0768L71.8411 78.4012H65.5399L65.1127 68.184H62.4783L63.1903 78.33H57.1383L56.5331 56.7564L53.0799 56.436L54.2547 79.576ZM81.9251 60.2096L89.1875 59.818V56.6496H79.8959L79.3975 81H89.1875V77.974L81.4267 77.2976L81.6403 69.5724L87.4431 70.3556V67.7568H81.7115L81.9251 60.2096ZM92.1392 56.5784L91.3916 81H100.576L103.211 78.9352L103.46 69.074L100.22 66.938L102.997 60.3876L100.79 56.6852L92.1392 56.5784ZM100.932 70.6048L100.754 77.2264L98.654 78.7572L95.2364 78.4368L95.272 69.2164L98.5472 68.6824L100.932 70.6048ZM97.2656 66.8312L95.272 67.2228L95.3076 58.8212L98.5116 58.7856L99.8288 60.7436L97.2656 66.8312ZM121.357 80.9644L121.393 56.4716H117.548L117.441 68.0772L109.431 67.8992L109.503 56.4716H106.619L107.046 80.9644H109.325L109.431 69.7504H117.441L117.299 80.9644H121.357ZM125.671 56.8276L126.739 79.0776L129.053 81H135.033L136.635 77.6536L135.959 69.252L133.467 66.4752L129.693 66.1904L129.266 56.5784L125.671 56.8276ZM143.364 56.5784H139.305L139.59 81H142.474L143.364 56.5784ZM132.684 68.6112L133.503 69.9284L134.143 77.4756L133.396 79.1844L130.263 78.8284L129.8 68.362L132.684 68.6112ZM157.112 50.4908C156.08 51.3096 155.154 51.6656 154.264 51.6656C152.982 51.6656 151.772 50.9892 150.384 50.028L148.746 52.2352C150.134 53.4812 151.736 54.0508 153.267 54.0508C155.083 54.0508 156.792 53.2676 157.966 51.986L157.112 50.4908ZM159.141 81L158.251 56.4004H155.937L151.452 74.0936L151.558 56.5072L147.642 56.436L149.422 81H151.772L156.293 62.7372L157.29 81H159.141ZM56.4544 94.2516H64.7136V117.214L68.7364 116.751V92.5072H54.4252L53.3928 93.2192V117H56.4544V94.2516ZM73.7482 115.896L76.5606 117L83.3602 92.614H80.2986L77.2726 103.365L73.9974 92.436L71.6122 93.2192L76.169 107.317L73.7482 115.896ZM100.428 116.964L100.464 92.4716H96.6192L96.5124 104.077L88.5024 103.899L88.5736 92.4716H85.69L86.1172 116.964H88.3956L88.5024 105.75H96.5124L96.37 116.964H100.428ZM105.916 115.576L107.198 117H126.778L125.924 92.5428L122.114 93.0768L123.503 114.401H117.202L116.774 104.184H114.14L114.852 114.33H108.8L108.195 92.7564L104.742 92.436L105.916 115.576Z" fill="white"/>
</g>
<defs>
<clipPath id="clip0_480_2138">
<rect width="180" height="180" fill="white"/>
</clipPath>
</defs>
</svg>
