<svg width="180" height="180" viewBox="0 0 180 180" fill="none" xmlns="http://www.w3.org/2000/svg">
<g clip-path="url(#clip0_486_4025)">
<rect width="180" height="180" fill="#3E2121"/>
<path d="M59.4791 156.795C55.108 170.393 43.5778 181.567 29.9761 177.195C16.3744 172.823 13.8952 158.655 18.2663 145.057C22.6374 131.458 30.4447 129.049 44.0464 133.421C57.6481 137.793 63.8502 143.196 59.4791 156.795Z" fill="#B0232C"/>
<path d="M154.292 89.0931C162.156 101.018 163.646 117.004 151.719 124.87C139.791 132.735 127.194 125.795 119.33 113.871C111.467 101.946 114.478 94.351 126.405 86.4854C138.332 78.6199 146.429 77.1686 154.292 89.0931Z" fill="#B0232C"/>
<path d="M66.3399 42.7841C56.18 52.8245 40.7917 57.4061 30.7491 47.2441C20.7065 37.0821 25.0538 23.3723 35.2137 13.3319C45.3735 3.29143 53.4105 4.76241 63.4531 14.9244C73.4957 25.0865 76.4997 32.7437 66.3399 42.7841Z" fill="#B0232C"/>
<path d="M150.451 153.195C153.607 159.058 153.636 166.542 147.772 169.699C141.908 172.856 136.348 169.111 133.191 163.249C130.035 157.387 131.748 153.985 137.612 150.828C143.475 147.671 147.294 147.333 150.451 153.195Z" fill="#B0232C"/>
<path d="M47.1694 86.0818C45.5783 92.547 40.5796 98.1169 34.1129 96.5255C27.6463 94.9341 26.0336 88.4269 27.6246 81.9616C29.2157 75.4964 32.7679 74.1228 39.2345 75.7142C45.7012 77.3056 48.7605 79.6165 47.1694 86.0818Z" fill="#B0232C"/>
<path d="M153.91 30.8998C157.003 36.7957 156.951 44.2796 151.054 47.3737C145.157 50.4679 139.637 46.664 136.543 40.7681C133.45 34.8722 135.199 31.4894 141.096 28.3952C146.994 25.3011 150.816 25.004 153.91 30.8998Z" fill="#B0232C"/>
<path d="M37.5009 32.676L33.6201 41.2296V32.676H29.9373L29.7789 60.0792H33.5409L33.5805 47.7636L39.2433 60.0792L42.6885 58.218L34.3725 44.6352L39.4413 34.2204L37.5009 32.676ZM53.9256 39.4872L59.2716 59.9604H63.1128L54.7968 32.8344H51.906L43.194 59.9604H46.5204L53.9256 39.4872ZM66.846 58.7724L69.9744 60L77.538 32.874H74.1324L70.7664 44.8332L67.1232 32.676L64.47 33.5472L69.5388 49.2288L66.846 58.7724ZM92.0493 57.624V46.536L88.8417 43.764L83.2185 44.0016L83.2977 36.636L91.4553 36.1608L90.9009 32.6364H80.9217L80.1297 60H88.8417L92.0493 57.624ZM82.9809 57.1092L83.1789 46.0212L87.4161 45.8232L89.1981 47.724L89.1585 55.2084L87.7725 56.3172L82.9809 57.1092ZM111.529 59.9604L111.568 32.7156H107.292L107.173 45.6252L98.2627 45.4272L98.3419 32.7156H95.1343L95.6095 59.9604H98.1439L98.2627 47.4864H107.173L107.014 59.9604H111.529ZM133.79 60.0792L132.8 32.9928L129.434 32.7948L120.207 51.8424L120.722 32.874H116.366L116.327 59.7228L118.94 59.8416L129.038 39.0516L129.593 60.0792H133.79ZM150.404 33.1908L146.88 32.8344L146.603 43.1304L140.979 44.4768L139.475 42.9324L140.94 32.874L137.138 32.7156L136.386 44.358L140.465 47.6052L146.523 45.5064L146.167 59.4852L149.612 60.0792L150.404 33.1908ZM80.0305 99.9604L80.0701 72.7156H75.7933L75.6745 85.6252L66.7645 85.4272L66.8437 72.7156H63.6361L64.1113 99.9604H66.6457L66.7645 87.4864H75.6745L75.5161 99.9604H80.0305ZM100.193 100L102.886 99.4456L94.9659 72.5176H91.3227L83.0067 99.3268L86.8875 100.396L89.3823 90.8524L97.2231 90.1792L100.193 100ZM93.2631 76.9924L96.6687 88.318L89.9367 88.714L93.2631 76.9924ZM113.875 88.12L113.4 100H116.528V72.874H106.906L104.49 76.1608V85.3876L106.51 88.12H108.925L104.332 99.406L107.698 100.396L112.133 88.12H113.875ZM113.875 85.546H108.925L107.42 83.8828V77.3884L109.084 75.2896H113.875V85.546ZM15.9186 122.774L8.55298 112.755L7.16698 113.349L5.50378 140L8.59258 140.356L9.30538 119.685L15.5622 127.843L22.9674 119.804L23.6802 140.04L27.1254 139.842L26.373 114.102L24.3138 112.755L15.9186 122.774ZM46.0331 140L48.7259 139.446L40.8059 112.518H37.1627L28.8467 139.327L32.7275 140.396L35.2223 130.852L43.0631 130.179L46.0331 140ZM39.1031 116.992L42.5087 128.318L35.7767 128.714L39.1031 116.992ZM55.152 128.872L65.448 128.674L68.9724 125.704L69.012 117.072L65.25 112.914H51.6672V140H55.0332L55.152 128.872ZM55.152 126.496L55.2708 115.725L63.0324 116.2L65.9232 118.339L65.1708 124.239L63.3096 126.417L55.152 126.496ZM75.3065 115.725L82.8305 115.844L83.1077 112.914H71.5445V140.158H75.9005L75.3065 115.725ZM97.1187 140L99.8115 139.446L91.8915 112.518H88.2483L79.9323 139.327L83.8131 140.396L86.3079 130.852L94.1487 130.179L97.1187 140ZM90.1887 116.992L93.5943 128.318L86.8623 128.714L90.1887 116.992ZM106.238 128.872L116.534 128.674L120.058 125.704L120.097 117.072L116.336 112.914H102.753V140H106.119L106.238 128.872ZM106.238 126.496L106.356 115.725L114.118 116.2L117.009 118.339L116.256 124.239L114.395 126.417L106.238 126.496ZM140.094 140.079L139.104 112.993L135.738 112.795L126.511 131.842L127.026 112.874H122.67L122.63 139.723L125.244 139.842L135.342 119.052L135.896 140.079H140.094ZM157.637 112.557L141.916 113.468L142.074 115.686H148.133L147.618 139.881L151.024 139.406L152.212 115.686L157.479 115.765L157.637 112.557ZM172.606 140L175.299 139.446L167.379 112.518H163.736L155.42 139.327L159.301 140.396L161.795 130.852L169.636 130.179L172.606 140ZM165.676 116.992L169.082 128.318L162.35 128.714L165.676 116.992Z" fill="white"/>
<path d="M37.5009 32.676L33.6201 41.2296V32.676H29.9373L29.7789 60.0792H33.5409L33.5805 47.7636L39.2433 60.0792L42.6885 58.218L34.3725 44.6352L39.4413 34.2204L37.5009 32.676ZM53.9256 39.4872L59.2716 59.9604H63.1128L54.7968 32.8344H51.906L43.194 59.9604H46.5204L53.9256 39.4872ZM66.846 58.7724L69.9744 60L77.538 32.874H74.1324L70.7664 44.8332L67.1232 32.676L64.47 33.5472L69.5388 49.2288L66.846 58.7724ZM92.0493 57.624V46.536L88.8417 43.764L83.2185 44.0016L83.2977 36.636L91.4553 36.1608L90.9009 32.6364H80.9217L80.1297 60H88.8417L92.0493 57.624ZM82.9809 57.1092L83.1789 46.0212L87.4161 45.8232L89.1981 47.724L89.1585 55.2084L87.7725 56.3172L82.9809 57.1092ZM111.529 59.9604L111.568 32.7156H107.292L107.173 45.6252L98.2627 45.4272L98.3419 32.7156H95.1343L95.6095 59.9604H98.1439L98.2627 47.4864H107.173L107.014 59.9604H111.529ZM133.79 60.0792L132.8 32.9928L129.434 32.7948L120.207 51.8424L120.722 32.874H116.366L116.327 59.7228L118.94 59.8416L129.038 39.0516L129.593 60.0792H133.79ZM150.404 33.1908L146.88 32.8344L146.603 43.1304L140.979 44.4768L139.475 42.9324L140.94 32.874L137.138 32.7156L136.386 44.358L140.465 47.6052L146.523 45.5064L146.167 59.4852L149.612 60.0792L150.404 33.1908ZM80.0305 99.9604L80.0701 72.7156H75.7933L75.6745 85.6252L66.7645 85.4272L66.8437 72.7156H63.6361L64.1113 99.9604H66.6457L66.7645 87.4864H75.6745L75.5161 99.9604H80.0305ZM100.193 100L102.886 99.4456L94.9659 72.5176H91.3227L83.0067 99.3268L86.8875 100.396L89.3823 90.8524L97.2231 90.1792L100.193 100ZM93.2631 76.9924L96.6687 88.318L89.9367 88.714L93.2631 76.9924ZM113.875 88.12L113.4 100H116.528V72.874H106.906L104.49 76.1608V85.3876L106.51 88.12H108.925L104.332 99.406L107.698 100.396L112.133 88.12H113.875ZM113.875 85.546H108.925L107.42 83.8828V77.3884L109.084 75.2896H113.875V85.546ZM15.9186 122.774L8.55298 112.755L7.16698 113.349L5.50378 140L8.59258 140.356L9.30538 119.685L15.5622 127.843L22.9674 119.804L23.6802 140.04L27.1254 139.842L26.373 114.102L24.3138 112.755L15.9186 122.774ZM46.0331 140L48.7259 139.446L40.8059 112.518H37.1627L28.8467 139.327L32.7275 140.396L35.2223 130.852L43.0631 130.179L46.0331 140ZM39.1031 116.992L42.5087 128.318L35.7767 128.714L39.1031 116.992ZM55.152 128.872L65.448 128.674L68.9724 125.704L69.012 117.072L65.25 112.914H51.6672V140H55.0332L55.152 128.872ZM55.152 126.496L55.2708 115.725L63.0324 116.2L65.9232 118.339L65.1708 124.239L63.3096 126.417L55.152 126.496ZM75.3065 115.725L82.8305 115.844L83.1077 112.914H71.5445V140.158H75.9005L75.3065 115.725ZM97.1187 140L99.8115 139.446L91.8915 112.518H88.2483L79.9323 139.327L83.8131 140.396L86.3079 130.852L94.1487 130.179L97.1187 140ZM90.1887 116.992L93.5943 128.318L86.8623 128.714L90.1887 116.992ZM106.238 128.872L116.534 128.674L120.058 125.704L120.097 117.072L116.336 112.914H102.753V140H106.119L106.238 128.872ZM106.238 126.496L106.356 115.725L114.118 116.2L117.009 118.339L116.256 124.239L114.395 126.417L106.238 126.496ZM140.094 140.079L139.104 112.993L135.738 112.795L126.511 131.842L127.026 112.874H122.67L122.63 139.723L125.244 139.842L135.342 119.052L135.896 140.079H140.094ZM157.637 112.557L141.916 113.468L142.074 115.686H148.133L147.618 139.881L151.024 139.406L152.212 115.686L157.479 115.765L157.637 112.557ZM172.606 140L175.299 139.446L167.379 112.518H163.736L155.42 139.327L159.301 140.396L161.795 130.852L169.636 130.179L172.606 140ZM165.676 116.992L169.082 128.318L162.35 128.714L165.676 116.992Z" fill="white"/>
</g>
<defs>
<clipPath id="clip0_486_4025">
<rect width="180" height="180" fill="white"/>
</clipPath>
</defs>
</svg>
