<svg width="180" height="180" viewBox="0 0 180 180" fill="none" xmlns="http://www.w3.org/2000/svg">
<g clip-path="url(#clip0_486_4020)">
<rect width="180" height="180" fill="#713FFF"/>
<path d="M50.1293 54.6738C57.372 61.737 74.3409 58.6782 82.9184 52.4777C91.4959 46.2772 104.62 30.2251 90.9869 20.8513C77.354 11.4774 69.7155 13.8319 59.0748 24.7429C48.4341 35.6539 42.8867 47.6105 50.1293 54.6738Z" fill="#FFC93F"/>
<path d="M160 32H19.5C39.3333 46.6667 71.6 81 42 101C12.4 121 26 177 48 184.5C64.1667 187 82.4 194 120 188C167 180.5 155.5 122.5 144 87.5C134.8 59.5 150.833 38.8333 160 32Z" fill="#511AC0"/>
<path fill-rule="evenodd" clip-rule="evenodd" d="M161.549 62.5431C153.106 59.4066 143.855 59.8792 138.058 61.3105L134.942 48.6895C142.646 46.7874 154.644 46.1101 166.076 50.3568C177.886 54.7442 188.727 64.2924 193.291 81.8659C198.918 103.527 190.879 122.885 177.304 132.44C170.507 137.225 162.218 139.578 153.778 138.142C145.278 136.697 137.39 131.543 131.188 122.745L141.813 115.255C146.361 121.706 151.41 124.553 155.957 125.326C160.563 126.11 165.431 124.9 169.821 121.81C178.622 115.615 185.083 101.973 180.709 85.1341C177.273 71.9075 169.614 65.5391 161.549 62.5431Z" fill="#511AC0"/>
<path d="M65.3137 136.945C72.957 144.679 76.3951 156.442 68.5654 164.18C60.7357 171.919 50.2551 168.654 42.6118 160.921C34.9685 153.187 36.1323 147.026 43.962 139.287C51.7917 131.549 57.6703 129.212 65.3137 136.945Z" fill="#C01A6A"/>
<path d="M153.078 45L71 129.495C85.4789 135.797 119.739 141.926 140.95 116.033C162.161 90.1405 157.873 57.8891 153.078 45Z" fill="#67B44C"/>
<path d="M39.4749 96.0796C34.2081 95.8816 29.8125 93.7432 29.8125 86.6944C29.8125 78.7348 33.4953 75.1708 40.3461 75.1708V72.7156C39.7521 72.6364 39.1581 72.6364 38.6037 72.6364C30.9213 72.6364 26.3673 78.8932 26.3673 87.3676C26.3673 94.8916 30.8025 100.317 38.2473 100.317C38.6433 100.317 39.0393 100.317 39.4749 100.277V96.0796ZM58.6982 100L61.391 99.4456L53.471 72.5176H49.8278L41.5118 99.3268L45.3926 100.396L47.8874 90.8524L55.7282 90.1792L58.6982 100ZM51.7682 76.9924L55.1738 88.318L48.4418 88.714L51.7682 76.9924ZM80.7266 99.9604L80.7662 72.7156H76.4894L76.3706 85.6252L67.4606 85.4272L67.5398 72.7156H64.3322L64.8074 99.9604H67.3418L67.4606 87.4864H76.3706L76.2122 99.9604H80.7266ZM89.2864 75.7252L96.8104 75.844L97.0876 72.9136H85.5244V100.158H89.8804L89.2864 75.7252ZM102.931 88.8724L113.227 88.6744L116.751 85.7044L116.791 77.0716L113.029 72.9136H99.4463V100H102.812L102.931 88.8724ZM102.931 86.4964L103.05 75.7252L110.811 76.2004L113.702 78.3388L112.95 84.2392L111.089 86.4172L102.931 86.4964ZM136.787 100.079L135.797 72.9928L132.431 72.7948L123.204 91.8424L123.719 72.874H119.363L119.324 99.7228L121.937 99.8416L132.035 79.0516L132.59 100.079H136.787ZM149.956 88.12L149.481 100H152.609V72.874H142.986L140.571 76.1608V85.3876L142.59 88.12H145.006L140.412 99.406L143.778 100.396L148.214 88.12H149.956ZM149.956 85.546H145.006L143.501 83.8828V77.3884L145.164 75.2896H149.956V85.546Z" fill="white"/>
</g>
<defs>
<clipPath id="clip0_486_4020">
<rect width="180" height="180" fill="white"/>
</clipPath>
</defs>
</svg>
