<svg width="180" height="180" viewBox="0 0 180 180" fill="none" xmlns="http://www.w3.org/2000/svg">
<g clip-path="url(#clip0_486_4049)">
<rect width="180" height="180" fill="#135F28"/>
<path d="M18.5 129.5C28.1 136.3 83.8333 143.667 110.5 146.5L128.5 148.5L141.5 138.5C139.667 136.833 130.9 132.7 110.5 129.5C90.1 126.3 40.6667 124.833 18.5 124.5V129.5Z" fill="#FFBE3F"/>
<path d="M85.5 136.999C22.7 126.599 5 164.332 4 184.499C36.3333 189.999 103.7 201 114.5 201C125.3 201 181.667 189.999 208.5 184.499C208.667 168.666 209.6 126.299 212 83.4996C215 30.0003 134 6.49961 101 26.4996C74.6 42.4996 76.6667 64.4994 81 73.4993C81 51.9993 108 26.4993 137 42.9993C166 59.4993 164 149.999 85.5 136.999Z" fill="#80B78F"/>
<path d="M24.3155 76.0796C19.0487 75.8816 14.6531 73.7432 14.6531 66.6944C14.6531 58.7348 18.3359 55.1708 25.1867 55.1708V52.7156C24.5927 52.6364 23.9987 52.6364 23.4443 52.6364C15.7619 52.6364 11.2079 58.8932 11.2079 67.3676C11.2079 74.8916 15.6431 80.3168 23.0879 80.3168C23.4839 80.3168 23.8799 80.3168 24.3155 80.2772V76.0796ZM30.9856 56.8736L39.064 56.438V52.9136H28.7284L28.174 80H39.064V76.634L30.4312 75.8816L30.6688 67.2884L37.1236 68.1596V65.2688H30.748L30.9856 56.8736ZM45.0006 68.8724L55.2966 68.6744L58.821 65.7044L58.8606 57.0716L55.0986 52.9136H41.5158V80H44.8818L45.0006 68.8724ZM45.0006 66.4964L45.1194 55.7252L52.881 56.2004L55.7718 58.3388L55.0194 64.2392L53.1582 66.4172L45.0006 66.4964ZM74.1443 74.6144L81.9455 73.1888L85.1531 63.2888L80.9159 56.042L74.4611 54.5768L74.5403 51.8444H71.0159L70.9367 54.656L63.0563 55.0916L59.7695 65.7044L62.6207 73.1096L70.6199 74.9708L70.5407 80H74.0255L74.1443 74.6144ZM70.6595 72.08L65.7095 71.09L63.6503 64.7936L65.7095 57.428L70.8971 56.8736L70.6595 72.08ZM80.9951 63.6452L79.2131 70.8128L74.1839 72.4364L74.4215 57.4676L77.9063 57.7844L80.9951 63.6452ZM91.0817 56.8736L99.1601 56.438V52.9136H88.8245L88.2701 80H99.1601V76.634L90.5273 75.8816L90.7649 67.2884L97.2197 68.1596V65.2688H90.8441L91.0817 56.8736ZM105.097 68.8724L115.393 68.6744L118.917 65.7044L118.957 57.0716L115.195 52.9136H101.612V80H104.978L105.097 68.8724ZM105.097 66.4964L105.215 55.7252L112.977 56.2004L115.868 58.3388L115.115 64.2392L113.254 66.4172L105.097 66.4964ZM146.739 79.9604L146.779 52.7156H142.502L142.383 65.6252L133.473 65.4272L133.553 52.7156H130.345L130.82 79.9604H133.355L133.473 67.4864H142.383L142.225 79.9604H146.739ZM166.902 80L169.595 79.4456L161.675 52.5176H158.032L149.716 79.3268L153.596 80.396L156.091 70.8524L163.932 70.1792L166.902 80ZM159.972 56.9924L163.378 68.318L156.646 68.714L159.972 56.9924ZM49.1462 120L51.839 119.446L43.919 92.5176H40.2758L31.9598 119.327L35.8406 120.396L38.3354 110.852L46.1762 110.179L49.1462 120ZM42.2162 96.9924L45.6218 108.318L38.8898 108.714L42.2162 96.9924ZM66.6999 117.624V106.536L63.4922 103.764L57.8691 104.002L57.9483 96.636L66.1058 96.1608L65.5515 92.6364H55.5723L54.7803 120H63.4922L66.6999 117.624ZM57.6315 117.109L57.8295 106.021L62.0667 105.823L63.8486 107.724L63.8091 115.208L62.4231 116.317L57.6315 117.109ZM74.0221 120H81.8629L84.1993 114.971L81.1897 113.466L79.6453 116.832L75.1705 116.674L72.3589 113.149L73.1509 97.9428L75.1705 95.3292L79.0117 96.0816L80.6749 99.7248L83.4865 98.2596L80.9917 92.7156H73.1905L69.1117 97.5864L68.5969 114.971L74.0221 120ZM89.9989 96.8736L98.0773 96.438V92.9136H87.7417L87.1873 120H98.0773V116.634L89.4445 115.882L89.6821 107.288L96.1369 108.16V105.269H89.7613L89.9989 96.8736ZM116.923 119.96L116.963 92.7156H112.686L112.567 105.625L103.657 105.427L103.737 92.7156H100.529L101.004 119.96H103.539L103.657 107.486H112.567L112.409 119.96H116.923ZM135.304 92.5572L119.583 93.468L119.741 95.6856H125.8L125.285 119.881L128.691 119.406L129.879 95.6856L135.146 95.7648L135.304 92.5572ZM140.62 96.8736L148.699 96.438V92.9136H138.363L137.809 120H148.699V116.634L140.066 115.882L140.304 107.288L146.758 108.16V105.269H140.383L140.62 96.8736Z" fill="white"/>
</g>
<defs>
<clipPath id="clip0_486_4049">
<rect width="180" height="180" fill="white"/>
</clipPath>
</defs>
</svg>
