<svg width="180" height="180" viewBox="0 0 180 180" fill="none" xmlns="http://www.w3.org/2000/svg">
<g clip-path="url(#clip0_486_3887)">
<rect width="180" height="180" fill="#4B93C7"/>
<path d="M158.005 131.413L57.3052 26.4287C39.6887 50.3538 13.3831 104.846 49.0921 131.413C84.8011 157.981 136.579 142.483 158.005 131.413Z" fill="#EC8348"/>
<path d="M45.1639 101.06C37.1651 71.636 55.1625 38.0933 65.161 25H49.449C34.4512 51.5437 12.5973 110.916 45.1639 136.055C77.7306 161.194 141.578 146.53 169.431 136.055L166.575 126.414C107.655 143.911 55.1625 137.841 45.1639 101.06Z" fill="#CD6022"/>
<path d="M51.9487 79.9923C51.3773 59.4239 66.4704 37.1415 74.0883 28.5713L88.3718 53.9247L51.9487 79.9923Z" fill="#EF6314"/>
<path d="M51.9487 88.5625L92.6569 57.4956L119.796 88.5625L63.7326 119.272C47.7349 108.131 49.211 94.1569 51.9487 88.5625Z" fill="#EF6314"/>
<path d="M76.2309 121.415L125.509 91.4192L145.864 112.13L138.722 127.485C106.155 134.056 83.4917 126.176 76.2309 121.415Z" fill="#EF6314"/>
<path d="M5.66835 81.2848L8.65875 60.5656L13.9275 73.346H16.1703L22.1155 61.5268L24.0379 81.2492L27.8115 80.9644L25.2483 57.148L22.2579 56.7208L15.1023 70.7472L9.37075 56.6496L6.77195 57.0056L2.00155 80.7508L5.66835 81.2848ZM44.7991 81L47.2199 80.5016L40.0999 56.2936H36.8247L29.3487 80.3948L32.8375 81.356L35.0803 72.7764L42.1291 72.1712L44.7991 81ZM38.5691 60.3164L41.6307 70.498L35.5787 70.854L38.5691 60.3164ZM64.6025 80.9644L64.6381 56.4716H60.7933L60.6865 68.0772L52.6765 67.8992L52.7477 56.4716H49.8641L50.2913 80.9644H52.5697L52.6765 69.7504H60.6865L60.5441 80.9644H64.6025ZM69.3784 84.382L68.8088 80.9644H83.476V84.2396L85.5408 84.4888L86.0036 79.8608L85.3984 78.864L82.408 78.9352L79.4532 57.1836L78.3852 56.2224H75.3236L69.6632 79.1132L67.0288 79.1488L66.4948 79.932L67.1 84.56L69.3784 84.382ZM76.3916 59.5332L78.8124 78.9708L72.1552 79.0776L76.3916 59.5332ZM103.171 81L105.591 80.5016L98.4714 56.2936H95.1962L87.7202 80.3948L91.209 81.356L93.4518 72.7764L100.501 72.1712L103.171 81ZM96.9406 60.3164L100.002 70.498L93.9502 70.854L96.9406 60.3164ZM111.368 70.9964L120.624 70.8184L123.793 68.1484L123.828 60.3876L120.446 56.6496H108.236V81H111.262L111.368 70.9964ZM111.368 68.8604L111.475 59.1772L118.453 59.6044L121.052 61.5268L120.375 66.8312L118.702 68.7892L111.368 68.8604ZM141.805 81.0712L140.915 56.7208L137.889 56.5428L129.594 73.6664L130.057 56.614H126.141L126.105 80.7508L128.455 80.8576L137.533 62.1676L138.031 81.0712H141.805ZM160.799 80.9644L160.835 56.4716H156.99L156.883 68.0772L148.873 67.8992L148.944 56.4716H146.061L146.488 80.9644H148.766L148.873 69.7504H156.883L156.741 80.9644H160.799ZM170.274 81H174.546L177.821 76.6212L178.213 60.9572L173.87 56.436H167.426L164.365 60.8148L164.009 76.4788L170.274 81ZM172.303 58.7144L174.582 61.8828L173.87 76.3008L171.591 78.5436L166.928 75.1972L167.391 60.7792L168.957 58.6076L172.303 58.7144ZM15.5158 92.5784L14.7682 117H23.953L26.5874 114.935L26.8366 105.074L23.597 102.938L26.3738 96.3876L24.1666 92.6852L15.5158 92.5784ZM24.309 106.605L24.131 113.226L22.0306 114.757L18.613 114.437L18.6486 105.216L21.9238 104.682L24.309 106.605ZM20.6422 102.831L18.6486 103.223L18.6842 94.8212L21.8882 94.7856L23.2054 96.7436L20.6422 102.831ZM29.9955 92.8276L31.0635 115.078L33.3775 117H39.3583L40.9603 113.654L40.2839 105.252L37.7919 102.475L34.0183 102.19L33.5911 92.5784L29.9955 92.8276ZM47.6887 92.5784H43.6303L43.9151 117H46.7987L47.6887 92.5784ZM37.0087 104.611L37.8275 105.928L38.4683 113.476L37.7207 115.184L34.5879 114.828L34.1251 104.362L37.0087 104.611ZM61.437 86.4908C60.4046 87.3096 59.479 87.6656 58.589 87.6656C57.3074 87.6656 56.097 86.9892 54.7086 86.028L53.071 88.2352C54.4594 89.4812 56.0614 90.0508 57.5922 90.0508C59.4078 90.0508 61.1166 89.2676 62.2914 87.986L61.437 86.4908ZM63.4662 117L62.5762 92.4004H60.2622L55.7766 110.094L55.8834 92.5072L51.9674 92.436L53.7474 117H56.097L60.6182 98.7372L61.615 117H63.4662ZM86.4279 114.864V104.896L83.5443 102.404L78.4891 102.618L78.5603 95.996L85.8939 95.5688L85.3955 92.4004H76.4243L75.7123 117H83.5443L86.4279 114.864ZM78.2755 114.401L78.4535 104.433L82.2627 104.255L83.8647 105.964L83.8291 112.692L82.5831 113.689L78.2755 114.401ZM89.949 115.896L92.7614 117L99.561 92.614H96.4994L93.4734 103.365L90.1982 92.436L87.813 93.2192L92.3698 107.317L89.949 115.896ZM105.024 106.996L114.28 106.818L117.448 104.148L117.484 96.3876L114.102 92.6496H101.891V117H104.917L105.024 106.996ZM105.024 104.86L105.13 95.1772L112.108 95.6044L114.707 97.5268L114.03 102.831L112.357 104.789L105.024 104.86ZM130.476 114.864V104.896L127.592 102.404L122.537 102.618L122.608 95.996L129.942 95.5688L129.444 92.4004H120.472L119.76 117H127.592L130.476 114.864ZM122.324 114.401L122.502 104.433L126.311 104.255L127.913 105.964L127.877 112.692L126.631 113.689L122.324 114.401ZM139.524 117H143.796L147.071 112.621L147.463 96.9572L143.12 92.436H136.676L133.614 96.8148L133.258 112.479L139.524 117ZM141.553 94.7144L143.832 97.8828L143.12 112.301L140.841 114.544L136.178 111.197L136.64 96.7792L138.207 94.6076L141.553 94.7144ZM165.371 116.964L165.406 92.4716H161.561L161.455 104.077L153.445 103.899L153.516 92.4716H150.632L151.059 116.964H153.338L153.445 105.75H161.455L161.312 116.964H165.371Z" fill="white"/>
</g>
<defs>
<clipPath id="clip0_486_3887">
<rect width="180" height="180" fill="white"/>
</clipPath>
</defs>
</svg>
