<svg width="180" height="180" viewBox="0 0 180 180" fill="none" xmlns="http://www.w3.org/2000/svg">
<g clip-path="url(#clip0_486_3988)">
<rect width="180" height="180" fill="#713FFF"/>
<path d="M82.5 67L31.5 92C33.5 103.333 37.8 126.4 39 128C40.2 129.6 68.5 88 82.5 67Z" fill="#4CB469"/>
<path d="M82.5 63C62.6667 60.5 22.3 55.5 19.5 55.5V5L82.5 63Z" fill="#4CB469"/>
<path d="M86 59L66.5 21.5L105.5 30L86 59Z" fill="#4CB469"/>
<path d="M89 63C101.833 55.5 127.9 40.2 129.5 39L157 42.5L100.5 63L140 67V107L89 63Z" fill="#4CB469"/>
<path d="M45 192L87 67L127.5 195L45 192Z" fill="#CC7E6D"/>
<path d="M32.353 32.8344L16.909 33.7056L17.0674 35.844H22.8886L22.4134 60L25.9774 59.5644L27.1654 35.844L32.2342 35.9232L32.353 32.8344ZM38.349 48.8724L48.645 48.6744L52.1694 45.7044L52.209 37.0716L48.447 32.9136H34.8642V60H38.2302L38.349 48.8724ZM38.349 46.4964L38.4678 35.7252L46.2294 36.2004L49.1202 38.3388L48.3678 44.2392L46.5066 46.4172L38.349 46.4964ZM62.1465 60H66.8985L70.5417 55.1292L70.9773 37.7052L66.1461 32.676H58.9785L55.5729 37.5468L55.1769 54.9708L62.1465 60ZM64.4037 35.2104L66.9381 38.7348L66.1461 54.7728L63.6117 57.2676L58.4241 53.5452L58.9389 37.5072L60.6813 35.0916L64.4037 35.2104ZM77.9085 34.6956H87.0957V60.2376L91.5705 59.7228V32.7552H75.6513L74.5029 33.5472V60H77.9085V34.6956ZM113.777 60.0792L112.787 32.9928L109.421 32.7948L100.195 51.8424L100.709 32.874H96.3534L96.3138 59.7228L98.9274 59.8416L109.025 39.0516L109.58 60.0792H113.777ZM130.391 33.1908L126.867 32.8344L126.59 43.1304L120.967 44.4768L119.462 42.9324L120.927 32.874L117.125 32.7156L116.373 44.358L120.452 47.6052L126.511 45.5064L126.154 59.4852L129.599 60.0792L130.391 33.1908ZM137.952 36.8736L146.03 36.438V32.9136L135.695 32.9136L135.14 60H146.03V56.634L137.398 55.8816L137.635 47.2884L144.09 48.1596V45.2688H137.714L137.952 36.8736ZM152.719 60H160.56L162.897 54.9708L159.887 53.466L158.343 56.832L153.868 56.6736L151.056 53.1492L151.848 37.9428L153.868 35.3292L157.709 36.0816L159.372 39.7248L162.184 38.2596L159.689 32.7156H151.888L147.809 37.5864L147.294 54.9708L152.719 60ZM69.4848 84.754L77.2464 100.119L81.2064 98.7328L71.148 83.1304L79.5432 75.1312L77.3652 72.9136L69.2076 82.5364H68.376L68.4552 72.9532L64.4952 72.7552L64.1388 100.158L68.0592 99.9604L68.178 84.9124L69.4848 84.754ZM99.6904 100L102.383 99.4456L94.4632 72.5176H90.82L82.504 99.3268L86.3848 100.396L88.8796 90.8524L96.7204 90.1792L99.6904 100ZM92.7604 76.9924L96.166 88.318L89.434 88.714L92.7604 76.9924ZM113.372 88.12L112.897 100H116.026V72.874H106.403L103.987 76.1608V85.3876L106.007 88.12H108.422L103.829 99.406L107.195 100.396L111.63 88.12H113.372ZM113.372 85.546H108.422L106.918 83.8828V77.3884L108.581 75.2896H113.372V85.546ZM15.9186 122.774L8.55298 112.755L7.16698 113.349L5.50378 140L8.59258 140.356L9.30538 119.685L15.5622 127.843L22.9674 119.804L23.6802 140.04L27.1254 139.842L26.373 114.102L24.3138 112.755L15.9186 122.774ZM46.0331 140L48.7259 139.446L40.8059 112.518H37.1627L28.8467 139.327L32.7275 140.396L35.2223 130.852L43.0631 130.179L46.0331 140ZM39.1031 116.992L42.5087 128.318L35.7767 128.714L39.1031 116.992ZM55.152 128.872L65.448 128.674L68.9724 125.704L69.012 117.072L65.25 112.914H51.6672V140H55.0332L55.152 128.872ZM55.152 126.496L55.2708 115.725L63.0324 116.2L65.9232 118.339L65.1708 124.239L63.3096 126.417L55.152 126.496ZM75.3065 115.725L82.8305 115.844L83.1077 112.914H71.5445V140.158H75.9005L75.3065 115.725ZM97.1187 140L99.8115 139.446L91.8915 112.518H88.2483L79.9323 139.327L83.8131 140.396L86.3079 130.852L94.1487 130.179L97.1187 140ZM90.1887 116.992L93.5943 128.318L86.8623 128.714L90.1887 116.992ZM106.238 128.872L116.534 128.674L120.058 125.704L120.097 117.072L116.336 112.914H102.753V140H106.119L106.238 128.872ZM106.238 126.496L106.356 115.725L114.118 116.2L117.009 118.339L116.256 124.239L114.395 126.417L106.238 126.496ZM140.094 140.079L139.104 112.993L135.738 112.795L126.511 131.842L127.026 112.874H122.67L122.63 139.723L125.244 139.842L135.342 119.052L135.896 140.079H140.094ZM157.637 112.557L141.916 113.468L142.074 115.686H148.133L147.618 139.881L151.024 139.406L152.212 115.686L157.479 115.765L157.637 112.557ZM172.606 140L175.299 139.446L167.379 112.518H163.736L155.42 139.327L159.301 140.396L161.795 130.852L169.636 130.179L172.606 140ZM165.676 116.992L169.082 128.318L162.35 128.714L165.676 116.992Z" fill="white"/>
</g>
<defs>
<clipPath id="clip0_486_3988">
<rect width="180" height="180" fill="white"/>
</clipPath>
</defs>
</svg>
