<svg width="180" height="180" viewBox="0 0 180 180" fill="none" xmlns="http://www.w3.org/2000/svg">
<g clip-path="url(#clip0_486_4040)">
<rect width="180" height="180" fill="#3E5BC2"/>
<path d="M90 176L64 163L86 134.5L102 153L90 176Z" fill="#38ABFF"/>
<ellipse rx="11.5" ry="25.5" transform="matrix(-0.759667 -0.650312 -0.650312 0.759667 79.3191 143.85)" fill="#1656FB"/>
<path d="M81.9999 22.5004C40.749 25.54 33.9999 73.667 34.4999 91.0004H54.9997C54.9997 71.5003 75.4997 55.0004 81.9999 70.5004C87.2001 82.9004 88.1665 175.001 87.9997 194.501H129.5C130 148.334 138 18.3739 81.9999 22.5004Z" fill="#38ACFF"/>
<path d="M105 162.5C107.4 152.5 121 133.667 127.5 125.5L159 162.5L123.5 181.5C110.7 180.3 105.833 168.333 105 162.5Z" fill="#38ABFF"/>
<ellipse cx="143.319" cy="143.85" rx="11.5" ry="25.5" transform="rotate(-40.5651 143.319 143.85)" fill="#E75757"/>
<path d="M52 151.124C52 154.921 48.866 158 45 158C41.134 158 38 154.921 38 151.124C38 147.326 41.134 132 45 132C48.866 132 52 147.326 52 151.124Z" fill="#9ED6FF"/>
<path d="M10.0912 56.4776C12.2296 56.4776 14.8036 57.1904 14.8036 60.002C14.8036 62.576 12.9028 65.3876 9.73479 65.3876L10.0912 56.4776ZM6.36879 52.6364C5.33919 76.1984 5.29959 79.802 5.29959 80.1188L9.02199 80.3564C13.378 80.3564 17.7736 78.2972 17.7736 73.1492C17.7736 69.9416 15.9124 67.0904 12.5464 66.536C16.2688 65.546 17.5756 62.6156 17.5756 59.9228C17.5756 54.7352 13.1008 52.2404 6.36879 52.6364ZM9.73479 67.8824C12.7048 67.8824 14.7244 69.6248 14.7244 72.9116C14.7244 75.7628 12.8236 77.4656 9.93279 77.4656C9.77439 77.4656 9.57639 77.426 9.37839 77.426L9.73479 67.8824ZM36.6745 80L39.3673 79.4456L31.4473 52.5176H27.8041L19.4881 79.3268L23.3689 80.396L25.8637 70.8524L33.7045 70.1792L36.6745 80ZM29.7445 56.9924L33.1501 68.318L26.4181 68.714L29.7445 56.9924ZM51.2186 59.4872L56.5646 79.9604H60.4058L52.0898 52.8344H49.199L40.487 79.9604H43.8134L51.2186 59.4872ZM66.119 56.8736L74.1974 56.438V52.9136H63.8618L63.3074 80H74.1974V76.634L65.5646 75.8816L65.8022 67.2884L72.257 68.1596V65.2688H65.8814L66.119 56.8736ZM93.0436 79.9604L93.0832 52.7156H88.8064L88.6876 65.6252L79.7776 65.4272L79.8568 52.7156H76.6492L77.1244 79.9604H79.6588L79.7776 67.4864H88.6876L88.5292 79.9604H93.0436ZM102.079 80H109.919L112.256 74.9708L109.246 73.466L107.702 76.832L103.227 76.6736L100.415 73.1492L101.207 57.9428L103.227 55.3292L107.068 56.0816L108.731 59.7248L111.543 58.2596L109.048 52.7156H101.247L97.1682 57.5864L96.6534 74.9708L102.079 80ZM132.707 80.0792L131.717 52.9928L128.351 52.7948L119.125 71.8424L119.639 52.874H115.283L115.244 79.7228L117.857 79.8416L127.955 59.0516L128.51 80.0792H132.707ZM152.806 80L155.499 79.4456L147.579 52.5176H143.936L135.62 79.3268L139.501 80.396L141.995 70.8524L149.836 70.1792L152.806 80ZM145.876 56.9924L149.282 68.318L142.55 68.714L145.876 56.9924ZM174.835 79.9604L174.874 52.7156H170.597L170.479 65.6252L161.569 65.4272L161.648 52.7156H158.44L158.915 79.9604H161.45L161.569 67.4864H170.479L170.32 79.9604H174.835ZM15.4729 120H23.3137L25.6501 114.971L22.6405 113.466L21.0961 116.832L16.6213 116.674L13.8097 113.149L14.6017 97.9428L16.6213 95.3292L20.4625 96.0816L22.1257 99.7248L24.9373 98.2596L22.4425 92.7156H14.6413L10.5625 97.5864L10.0477 114.971L15.4729 120ZM33.9841 104.754L41.7457 120.119L45.7057 118.733L35.6473 103.13L44.0425 95.1312L41.8645 92.9136L33.7069 102.536H32.8753L32.9545 92.9532L28.9945 92.7552L28.6381 120.158L32.5585 119.96L32.6773 104.912L33.9841 104.754ZM64.1896 120L66.8824 119.446L58.9624 92.5176H55.3192L47.0032 119.327L50.884 120.396L53.3788 110.852L61.2196 110.179L64.1896 120ZM57.2596 96.9924L60.6652 108.318L53.9332 108.714L57.2596 96.9924ZM77.8717 108.12L77.3965 120H80.5249V92.874H70.9021L68.4865 96.1608V105.388L70.5061 108.12H72.9217L68.3281 119.406L71.6941 120.396L76.1293 108.12H77.8717ZM77.8717 105.546H72.9217L71.4169 103.883V97.3884L73.0801 95.2896H77.8717V105.546ZM94.9798 92.8344L94.1482 120H104.365L107.295 117.703L107.573 106.734L103.969 104.358L107.058 97.0716L104.603 92.9532L94.9798 92.8344ZM104.761 108.437L104.563 115.802L102.227 117.505L98.425 117.149L98.4646 106.892L102.108 106.298L104.761 108.437ZM100.682 104.239L98.4646 104.675L98.5042 95.3292L102.068 95.2896L103.533 97.4676L100.682 104.239ZM117.602 120H122.354L125.997 115.129L126.433 97.7052L121.602 92.676H114.434L111.028 97.5468L110.632 114.971L117.602 120ZM119.859 95.2104L122.394 98.7348L121.602 114.773L119.067 117.268L113.88 113.545L114.394 97.5072L116.137 95.0916L119.859 95.2104ZM130.473 123.762L129.84 119.96H146.155V123.604L148.452 123.881L148.966 118.733L148.293 117.624L144.967 117.703L141.68 93.5076L140.492 92.4384H137.086L130.79 117.901L127.86 117.941L127.266 118.812L127.939 123.96L130.473 123.762ZM138.274 96.1212L140.967 117.743L133.562 117.862L138.274 96.1212ZM168.062 120L170.755 119.446L162.835 92.5176H159.192L150.876 119.327L154.757 120.396L157.251 110.852L165.092 110.179L168.062 120ZM161.132 96.9924L164.538 108.318L157.806 108.714L161.132 96.9924Z" fill="white"/>
</g>
<defs>
<clipPath id="clip0_486_4040">
<rect width="180" height="180" fill="white"/>
</clipPath>
</defs>
</svg>
