<svg width="180" height="180" viewBox="0 0 180 180" fill="none" xmlns="http://www.w3.org/2000/svg">
<g clip-path="url(#clip0_480_2361)">
<rect width="180" height="180" fill="#6B291A"/>
<path d="M98.0001 16.9999C63.2001 4.59995 46.1668 33.8333 42.0001 50C37.0001 79.9999 63.5001 92 47.0001 123C33.8001 147.8 -15.3333 173.833 -11.5 186.5H211.5L196.5 144C170.833 137.167 118.7 121.1 115.5 111.5C111.5 99.5 141.5 32.5 98.0001 16.9999Z" fill="#709DBD"/>
<path d="M15 93L44.5 62C60.5 57.2 63.8333 71.6666 63.5 79.5L15 93Z" fill="#FFBE3F"/>
<path d="M54.4784 60.6724L61.1356 60.0672L60.8864 56.7564L52.3068 56.792L51.9152 81H54.2648L54.4784 60.6724ZM64.0312 79.8964L66.8436 81L73.6432 56.614H70.5816L67.5556 67.3652L64.2804 56.436L61.8952 57.2192L66.452 71.3168L64.0312 79.8964ZM83.9831 62.5592L88.7891 80.9644H92.2423L84.7663 56.5784H82.1675L74.3355 80.9644H77.3259L83.9831 62.5592ZM102.434 70.32L102.006 81H104.819V56.614H96.168L93.9964 59.5688V67.8636L95.812 70.32H97.9836L93.854 80.466L96.88 81.356L100.867 70.32H102.434ZM102.434 68.006H97.9836L96.6308 66.5108V60.6724L98.126 58.7856H102.434V68.006ZM118.574 50.4908C117.542 51.3096 116.616 51.6656 115.726 51.6656C114.445 51.6656 113.234 50.9892 111.846 50.028L110.208 52.2352C111.597 53.4812 113.199 54.0508 114.729 54.0508C116.545 54.0508 118.254 53.2676 119.429 51.986L118.574 50.4908ZM120.603 81L119.713 56.4004H117.399L112.914 74.0936L113.021 56.5072L109.105 56.436L110.885 81H113.234L117.755 62.7372L118.752 81H120.603ZM125.707 84.8804C127.167 83.5276 129.445 81.1424 129.837 77.5824H126.312C126.241 79.1844 125.458 82.3884 124.461 83.6344L125.707 84.8804ZM29.7967 95.1772L36.5607 95.284L36.8099 92.6496H26.4147V117.142H30.3307L29.7967 95.1772ZM43.3274 117H47.5994L50.8746 112.621L51.2662 96.9572L46.923 92.436H40.4794L37.4178 96.8148L37.0618 112.479L43.3274 117ZM45.3566 94.7144L47.635 97.8828L46.923 112.301L44.6446 114.544L39.981 111.197L40.4438 96.7792L42.0102 94.6076L45.3566 94.7144ZM62.4458 98.5592L67.2518 116.964H70.705L63.229 92.5784H60.6302L52.7982 116.964H55.7886L62.4458 98.5592ZM73.3135 92.8276L74.3815 115.078L76.6955 117H82.6763L84.2783 113.654L83.6019 105.252L81.1099 102.475L77.3363 102.19L76.9091 92.5784L73.3135 92.8276ZM91.0067 92.5784H86.9483L87.2331 117H90.1167L91.0067 92.5784ZM80.3267 104.611L81.1455 105.928L81.7863 113.476L81.0387 115.184L77.9059 114.828L77.4431 104.362L80.3267 104.611ZM107.496 92.3292L93.363 93.148L93.5054 95.1416H98.9522L98.4894 116.893L101.551 116.466L102.619 95.1416L107.354 95.2128L107.496 92.3292ZM115.195 92.4716H111.279L109.748 117H117.651L123.062 113.44L123.311 106.284L120.428 103.116L114.447 104.54L115.195 92.4716ZM118.933 106.035L120.428 107.602L120.214 112.052L115.835 114.864L113.877 114.472L114.34 107.103L118.933 106.035ZM136.386 114.864V104.896L133.503 102.404L128.447 102.618L128.519 95.996L135.852 95.5688L135.354 92.4004H126.383L125.671 117H133.503L136.386 114.864ZM128.234 114.401L128.412 104.433L132.221 104.255L133.823 105.964L133.787 112.692L132.541 113.689L128.234 114.401ZM152.972 117L155.393 116.502L148.273 92.2936H144.998L137.522 116.395L141.011 117.356L143.254 108.776L150.302 108.171L152.972 117ZM146.742 96.3164L149.804 106.498L143.752 106.854L146.742 96.3164Z" fill="white"/>
</g>
<defs>
<clipPath id="clip0_480_2361">
<rect width="180" height="180" fill="white"/>
</clipPath>
</defs>
</svg>
