<svg width="180" height="180" viewBox="0 0 180 180" fill="none" xmlns="http://www.w3.org/2000/svg">
<g clip-path="url(#clip0_486_4000)">
<rect width="180" height="180" fill="#4CB469"/>
<path d="M50 80L58.3793 232.512L59.7759 238H90.5H121.224L122.621 232.512L131 80H90.5H50Z" fill="#2A8D46"/>
<path d="M151.763 45.986L43.6541 -3.32616L36.6106 26.7469L56.8913 65.1649L85.7152 82.4402L110.724 75.3292L149.283 51.8894L151.763 45.986Z" fill="#FF3F6D"/>
<path d="M64.1006 66.7531C43.3046 44.8039 41.9428 10.1553 43.8615 -4.42543L37.8919 -8.96586C28.731 11.8327 30.2508 59.224 62.5071 77.6026C102.428 100.348 145.601 66.9709 161.099 49.5686L152.588 45.2309C131.757 61.5504 84.8967 88.7022 64.1006 66.7531Z" fill="#366C45"/>
<ellipse cx="86.8103" cy="33.2194" rx="1.5" ry="5" transform="rotate(-15.8728 86.8103 33.2194)" fill="#3F3737"/>
<ellipse cx="119.81" cy="40.2192" rx="1.5" ry="5" transform="rotate(100.11 119.81 40.2192)" fill="#3F3737"/>
<ellipse cx="55.1854" cy="11.3539" rx="1.5" ry="5" transform="rotate(100.11 55.1854 11.3539)" fill="#3F3737"/>
<ellipse cx="103.176" cy="65.6753" rx="2.5" ry="8" transform="rotate(57.7802 103.176 65.6753)" fill="#3F3737"/>
<ellipse cx="63.0298" cy="37.1494" rx="2.5" ry="8" transform="rotate(3.83744 63.0298 37.1494)" fill="#3F3737"/>
<path d="M26.3614 66.0608L30.559 80H35.3902L27.0346 52.5176H22.5994L17.7286 80H20.2234L22.3222 66.0212L26.3614 66.0608ZM23.7082 56.7548L25.807 64.2788L22.5994 64.16L23.7082 56.7548ZM41.7908 68.8724L52.0868 68.6744L55.6112 65.7044L55.6508 57.0716L51.8888 52.9136H38.306V80H41.672L41.7908 68.8724ZM41.7908 66.4964L41.9096 55.7252L49.6712 56.2004L52.562 58.3388L51.8096 64.2392L49.9484 66.4172L41.7908 66.4964ZM70.103 77.624V66.536L66.8954 63.764L61.2722 64.0016L61.3514 56.636L69.509 56.1608L68.9546 52.6364H58.9754L58.1834 80H66.8954L70.103 77.624ZM61.0346 77.1092L61.2326 66.0212L65.4698 65.8232L67.2518 67.724L67.2122 75.2084L65.8262 76.3172L61.0346 77.1092ZM74.0197 78.7724L77.1481 80L84.7117 52.874H81.3061L77.9401 64.8332L74.2969 52.676L71.6437 53.5472L76.7125 69.2288L74.0197 78.7724ZM84.9669 79.4852L96.4509 79.802L98.5893 70.9712L97.9161 68.1596L93.8373 65.6252L96.6885 63.0116L97.7577 55.1312L93.3621 52.9136L85.9569 54.8144L87.0261 58.1804L91.8573 55.5668L93.7977 56.5172L93.7581 62.0216L91.5405 64.8332H87.8973V67.2488L91.2237 67.328L94.8669 70.5356L93.4413 77.3072L85.4817 76.0004L84.9669 79.4852ZM118.586 79.9604L118.626 52.7156H114.349L114.23 65.6252L105.32 65.4272L105.4 52.7156H102.192L102.667 79.9604H105.202L105.32 67.4864H114.23L114.072 79.9604H118.586ZM123.384 53.1116L124.572 77.8616L127.146 80H133.799L135.581 76.2776L134.829 66.932L132.057 63.8432L127.859 63.5264L127.384 52.8344L123.384 53.1116ZM143.065 52.8344H138.551L138.868 80H142.075L143.065 52.8344ZM131.185 66.2192L132.096 67.6844L132.809 76.0796L131.977 77.9804L128.493 77.5844L127.978 65.942L131.185 66.2192ZM158.358 46.0628C157.21 46.9736 156.18 47.3696 155.19 47.3696C153.765 47.3696 152.418 46.6172 150.874 45.548L149.052 48.0032C150.597 49.3892 152.379 50.0228 154.082 50.0228C156.101 50.0228 158.002 49.1516 159.309 47.726L158.358 46.0628ZM160.616 80L159.626 52.6364H157.052L152.062 72.3176L152.181 52.7552L147.825 52.676L149.805 80H152.418L157.448 59.6852L158.556 80H160.616ZM43.4916 102.774L36.126 92.7552L34.74 93.3492L33.0768 120L36.1656 120.356L36.8784 99.6852L43.1352 107.843L50.5404 99.804L51.2532 120.04L54.6984 119.842L53.946 94.1016L51.8868 92.7552L43.4916 102.774ZM65.2596 120H70.0116L73.6548 115.129L74.0904 97.7052L69.2592 92.676H62.0916L58.686 97.5468L58.29 114.971L65.2596 120ZM67.5168 95.2104L70.0512 98.7348L69.2592 114.773L66.7248 117.268L61.5372 113.545L62.052 97.5072L63.7944 95.0916L67.5168 95.2104ZM80.2692 120.119L84.3876 108.041L89.2584 120.198L92.4264 119.05L85.932 105.15L91.3968 92.9928L87.9912 92.7156L84.3876 103.21L79.596 92.9136L77.1012 94.1412L82.5264 105.15L76.3092 119.842L80.2692 120.119ZM113.371 120.079L112.381 92.9928L109.015 92.7948L99.7886 111.842L100.303 92.874H95.9474L95.9078 119.723L98.5214 119.842L108.619 99.0516L109.174 120.079H113.371ZM130.915 92.5572L115.194 93.468L115.352 95.6856H121.411L120.896 119.881L124.302 119.406L125.49 95.6856L130.756 95.7648L130.915 92.5572ZM138.311 120H143.063L146.706 115.129L147.142 97.7052L142.31 92.676H135.143L131.737 97.5468L131.341 114.971L138.311 120ZM140.568 95.2104L143.102 98.7348L142.31 114.773L139.776 117.268L134.588 113.545L135.103 97.5072L136.846 95.0916L140.568 95.2104Z" fill="white"/>
</g>
<defs>
<clipPath id="clip0_486_4000">
<rect width="180" height="180" fill="white"/>
</clipPath>
</defs>
</svg>
