<svg width="180" height="180" viewBox="0 0 180 180" fill="none" xmlns="http://www.w3.org/2000/svg">
<g clip-path="url(#clip0_480_2384)">
<rect width="180" height="180" fill="#1F6981"/>
<ellipse cx="90" cy="90" rx="66" ry="48" fill="#242320"/>
<path d="M21.7938 99.178C22.1854 99.2136 22.5414 99.2136 22.933 99.2136C28.3442 99.2136 33.0078 97.0064 33.0078 91.524C33.0078 89.1744 31.7262 86.9672 29.2698 85.9348C31.3702 84.3328 32.4738 82.0544 32.4738 79.8828C32.4738 76.928 30.409 74.2936 25.9946 74.2936C24.891 74.2936 23.7874 74.5072 22.755 74.8632L23.289 76.9992C23.9298 76.8212 24.713 76.6788 25.5318 76.6788C28.4154 76.6788 29.6258 78.2808 29.6258 80.132C29.6258 82.0544 28.3442 84.226 26.2794 85.2584C25.3538 85.2584 24.8554 85.294 24.357 85.3652V87.5368C24.6062 87.5012 24.8554 87.5012 25.1046 87.5012C28.273 87.5012 29.7326 89.21 29.7326 91.0256C29.7326 95.3688 25.1758 95.5824 22.1854 95.4044L21.7938 99.178ZM50.0488 99L52.4696 98.5016L45.3496 74.2936H42.0744L34.5984 98.3948L38.0872 99.356L40.33 90.7764L47.3788 90.1712L50.0488 99ZM43.8188 78.3164L46.8804 88.498L40.8284 88.854L43.8188 78.3164ZM63.4085 83.514L56.7869 74.5072L55.5409 75.0412L54.0457 99L56.8225 99.3204L57.4633 80.7372L63.0881 88.0708L69.7453 80.844L70.3861 99.0356L73.4833 98.8576L72.8069 75.7176L70.9557 74.5072L63.4085 83.514ZM81.4744 85.294L88.452 99.1068L92.012 97.8608L82.9696 83.8344L90.5168 76.6432L88.5588 74.6496L81.2252 83.3004H80.4776L80.5488 74.6852L76.9888 74.5072L76.6684 99.1424L80.1928 98.9644L80.2996 85.4364L81.4744 85.294ZM108.629 99L111.05 98.5016L103.93 74.2936H100.654L93.1784 98.3948L96.6672 99.356L98.91 90.7764L105.959 90.1712L108.629 99ZM102.399 78.3164L105.46 88.498L99.4084 88.854L102.399 78.3164ZM114.157 102.382L113.587 98.9644H128.254V102.24L130.319 102.489L130.782 97.8608L130.177 96.864L127.186 96.9352L124.231 75.1836L123.163 74.2224H120.102L114.441 97.1132L111.807 97.1488L111.273 97.932L111.878 102.56L114.157 102.382ZM121.17 77.5332L123.591 96.9708L116.933 97.0776L121.17 77.5332ZM138.088 74.4716H134.172L132.641 99H140.544L145.955 95.44L146.205 88.2844L143.321 85.116L137.34 86.54L138.088 74.4716ZM141.826 88.0352L143.321 89.6016L143.107 94.0516L138.729 96.864L136.771 96.4724L137.233 89.1032L141.826 88.0352ZM151.091 78.2096L158.354 77.818V74.6496H149.062L148.564 99H158.354V95.974L150.593 95.2976L150.806 87.5724L156.609 88.3556V85.7568H150.878L151.091 78.2096Z" fill="white"/>
</g>
<defs>
<clipPath id="clip0_480_2384">
<rect width="180" height="180" fill="white"/>
</clipPath>
</defs>
</svg>
