<svg width="360" height="411" viewBox="0 0 360 411" fill="none" xmlns="http://www.w3.org/2000/svg">
<g clip-path="url(#clip0_1056_2313)">
<g clip-path="url(#clip1_1056_2313)">
<rect width="226.503" height="226.503" transform="translate(-33 80.4688) rotate(-20)" fill="#75857A"/>
<path d="M77.8955 137.948L66.9428 128.253C66.4916 128.47 66.0745 128.781 65.5765 129.015L64.7892 144.627L64.2571 144.768L50.9156 119.185L45.7264 120.809L63.2414 150.865L69.1796 148.385L68.6904 135.094L78.3447 145.155L83.453 143.455L77.8317 109.07L71.5996 111.18L77.8955 137.948ZM94.7544 139.342L97.0488 138.507L90.1042 120.883L95.8637 118.787L102.621 136.479L106.367 135.115L93.4324 103.074L90.3419 104.199L95.0286 116.493L89.3756 119.027L84.3951 106.363L81.6792 107.352L94.7544 139.342ZM110.558 100.659L109.757 97.2916L98.8849 101.514L100.052 103.846L103.211 102.909L113.67 129.752L110.648 131.065L111.841 133.176L120.704 129.844L120.179 126.8L116.816 128.342L107.651 101.558L110.558 100.659ZM130.379 89.3083L112.182 97.1514L113.323 99.7055L120.488 97.0979L130.531 126.585L134.353 124.558L125.311 95.3424L131.573 93.1693L130.379 89.3083ZM145.622 84.2376L133.597 88.9327L146.016 120.578L158.144 116.164L157.044 112.269L147.82 116.209L142.528 101.962L148.215 99.5206L146.81 97.1157L141.663 99.7312L138.412 90.945L147.361 88.4306L145.622 84.2376ZM69.6707 164.719L64.8649 167.105L65.1882 180.669L55.7423 170.16L50.3319 172.341L60.4271 204.886L65.0076 203.484L55.4762 177.151L64.3982 186.948L68.0167 186.109L68.4684 173.217L78.0463 198.367C78.0463 198.367 82.2137 196.85 82.9459 196.53L69.6707 164.719ZM77.7354 161.625L84.6253 195.707L88.6438 194.51L85.7572 179.44L89.6351 177.71L97.4086 191.054L100.665 190.24L82.933 159.733L77.7354 161.625ZM85.3819 177.243L83.6165 167.439L88.5745 175.816L85.3819 177.243ZM103.75 173.633L113.886 185.746L117.126 184.302L106.551 172.295L109.625 171.124L110.837 167.024L106.866 156.113L102.595 153.266L92.4806 156.948L104.155 189.023L107.807 187.694L102.426 174.221L103.75 173.633ZM96.1892 158.832L101.387 156.941L104.397 158.656L107.052 166.386L105.92 168.813L101.025 170.807L96.1892 158.832ZM125.668 144.232L107.47 152.075L108.612 154.629L115.776 152.022L125.82 181.509L129.642 179.481L120.599 150.266L126.861 148.093L125.668 144.232ZM139.594 143.299L138.793 139.932L127.921 144.154L129.088 146.487L132.247 145.55L142.706 172.393L139.684 173.705L140.877 175.817L149.74 172.485L149.215 169.441L145.852 170.983L136.687 144.199L139.594 143.299ZM161.318 131.893L156.035 133.551L165.361 156.405L147.981 136.482L142.971 138.306L155.216 170.492L159.583 168.796L149.797 144.094L168.48 165.558L172.179 164.211L161.318 131.893ZM177.228 129.602L176.427 126.234L165.555 130.457L166.722 132.789L169.881 131.852L180.341 158.695L177.318 160.008L178.511 162.119L187.374 158.787L186.849 155.743L183.486 157.285L174.321 130.501L177.228 129.602Z" fill="white"/>
<path d="M132.76 202.925L78.9576 222.508L85.4133 240.245L139.215 220.662C153.405 215.498 162.688 220.154 165.556 223.127L234.138 198.165L219.506 157.961L150.923 182.924C150.923 182.924 147.54 197.546 132.76 202.925Z" fill="#D9D9D9"/>
<path d="M86.8109 240.406L84.0135 232.72C2.18682 262.502 17.6464 297.495 35.6045 311.268C99.172 292.149 226.714 249.879 228.344 233.752C230.38 213.594 198.884 226.396 184.317 225.003C169.749 223.61 166.419 232.856 150.025 237.484C133.632 242.112 139.166 233.402 120.89 234.697C102.614 235.993 103.368 241.744 94.2839 244.381C87.017 246.49 86.2741 242.61 86.8109 240.406Z" fill="white"/>
<path d="M192.055 216.83L167.638 175.501L202.251 160.224L222.207 205.856L192.055 216.83Z" fill="#B7B7B7"/>
<path d="M153.087 30.39L159.255 34.8022L159.619 35.0625L160.066 35.0346L167.635 34.5617L165.345 41.7917L165.21 42.2183L165.374 42.6344L168.163 49.6871L160.579 49.7433L160.132 49.7466L159.787 50.0317L153.941 54.8634L151.544 47.6681L151.403 47.2436L151.025 47.0037L144.623 42.9372L150.726 38.434L151.086 38.1683L151.197 37.735L153.087 30.39Z" fill="#FFBE3F" stroke="#FFEECE" stroke-width="2.5167"/>
</g>
<g clip-path="url(#clip2_1056_2313)">
<rect width="180" height="180" transform="translate(183.587 183) rotate(15)" fill="#69193F"/>
<path d="M192.826 268.297L178.95 386.498L164.212 441.502L204.323 452.25L244.435 462.998L259.173 407.994L306.257 298.691L249.541 283.494L192.826 268.297Z" fill="#B842A5"/>
<path d="M255.634 319.808C261.893 299.538 238.264 282.888 225.667 277.097C227.479 270.335 232.403 273.208 246.892 277.09C261.381 280.973 265.081 284.552 279.251 285.761C290.587 286.728 296.548 293.329 298.112 296.509C299.721 296.94 301.121 300.731 293.841 312.446C286.561 324.161 285.819 359.127 286.358 375.146C284.659 377.624 278.377 380.979 266.841 374.575C255.305 368.171 242.026 369.306 236.828 370.674C229.946 361.584 247.809 345.147 255.634 319.808Z" fill="#A09292"/>
<path d="M212.694 273.826L224.473 276.531L231.121 271.917L234.934 259.984L230.738 250.701L219.261 247.175L212.694 273.826ZM226.933 269.032L222.945 272.596L217.107 271.278L222.791 251.442L227.958 252.662L230.099 260.123L226.933 269.032ZM247.268 257.508L248.281 254.951L239.279 252.744L238.976 254.794L241.46 255.624L236.033 277.866L233.467 277.343L233.281 279.261L240.569 281.131L241.615 278.911L238.723 278.382L244.966 256.768L247.268 257.508ZM251.422 271.986L252.499 284.492L255.266 285.028L253.855 272.392L256.39 273.03L259.048 270.914L261.436 262.001L259.953 258.201L251.691 255.988L244.67 282.189L247.654 282.989L250.292 271.766L251.422 271.986ZM253.246 258.905L257.492 260.043L258.67 262.531L256.874 268.774L255.031 269.838L250.936 268.904L253.246 258.905ZM279.091 262.837L263.67 259.648L263.249 261.831L269.101 263.399L262.198 287.173L265.611 287.595L273.041 264.455L278.108 265.895L279.091 262.837ZM292.531 266.767L286.006 275.513L283.922 264.624L280.619 263.944L283.734 278.635L280.392 291.72L284.37 292.786L287.462 279.716L296.475 268.111L292.531 266.767ZM211.592 286.244L207.376 285.606L201.404 294.583L200.045 283.437L195.528 282.391L187.266 308.178L190.887 309.353L196.685 287.866L198.027 298.311L200.765 299.414L206.935 291.228L201.707 311.965C201.707 311.965 205.111 312.877 205.733 313.003L211.592 286.244ZM218.252 287.906L207.202 313.233L210.364 314.285L215.354 303.159L218.667 303.801L217.644 316.031L220.135 316.985L222.498 289.043L218.252 287.906ZM216.111 301.558L219.43 294.371L218.839 302.084L216.111 301.558ZM229.714 307.581L230.79 320.086L233.557 320.623L232.147 307.987L234.681 308.625L237.339 306.508L239.727 297.596L238.245 293.796L229.983 291.582L222.962 317.784L225.945 318.583L228.584 307.36L229.714 307.581ZM231.538 294.499L235.784 295.637L236.962 298.126L235.166 304.368L233.323 305.432L229.227 304.499L231.538 294.499ZM257.383 298.432L241.962 295.243L241.541 297.426L247.393 298.994L240.49 322.767L243.902 323.19L251.333 300.049L256.4 301.489L257.383 298.432ZM266.873 304.173L267.887 301.615L258.885 299.408L258.581 301.459L261.065 302.288L255.638 324.53L253.072 324.007L252.887 325.925L260.175 327.796L261.221 325.575L258.329 325.046L264.571 303.433L266.873 304.173ZM286.214 306.649L282.02 305.32L277.673 324.449L275.44 303.557L271.348 302.461L264.648 328.994L268.264 329.881L273.153 309.34L275.532 331.829L278.553 332.638L286.214 306.649ZM297.616 312.41L298.629 309.853L289.627 307.646L289.324 309.696L291.807 310.526L286.38 332.768L283.815 332.244L283.629 334.162L290.917 336.033L291.963 333.813L289.071 333.284L295.313 311.67L297.616 312.41Z" fill="white"/>
<path d="M333.345 235.814L335.349 241.498L335.467 241.834L335.771 242.019L340.914 245.161L336.127 248.824L335.845 249.04L335.762 249.386L334.363 255.248L329.401 251.828L329.108 251.626L328.753 251.655L322.746 252.136L324.465 246.359L324.566 246.018L324.43 245.69L322.116 240.125L328.141 239.975L328.497 239.966L328.767 239.735L333.345 235.814Z" fill="#FFBE3F" stroke="#FFEECE" stroke-width="2"/>
</g>
<path d="M293.743 11.1118C283.474 6.56663 266.981 16.3681 260.44 26.1771C253.899 35.9861 246.426 57.8414 264.243 62.3068C282.06 66.7721 289.107 61.3404 295.978 45.8147C302.85 30.289 304.013 15.6569 293.743 11.1118Z" fill="#FF3F6D"/>
<rect x="285" y="61.3176" width="100.11" height="100.11" rx="20.3355" transform="rotate(-14.6491 285 61.3176)" fill="#AED8FF"/>
<path d="M91.6567 292.034L-45.6881 389.804C-26.5137 402.123 20.9499 419.032 57.4094 388.109C93.8689 357.186 95.4324 311.175 91.6567 292.034Z" fill="#FFC93F"/>
</g>
<defs>
<clipPath id="clip0_1056_2313">
<rect width="360" height="411" fill="white"/>
</clipPath>
<clipPath id="clip1_1056_2313">
<rect width="226.503" height="226.503" fill="white" transform="translate(-33 80.4688) rotate(-20)"/>
</clipPath>
<clipPath id="clip2_1056_2313">
<rect width="180" height="180" fill="white" transform="translate(183.587 183) rotate(15)"/>
</clipPath>
</defs>
</svg>
