<svg width="360" height="391" viewBox="0 0 360 391" fill="none" xmlns="http://www.w3.org/2000/svg">
<g clip-path="url(#clip0_1037_1999)">
<g opacity="0.1">
<path d="M6.08185 265.801H54.7402L10.5053 336.577H-47L6.08185 265.801Z" fill="#C9C6BF"/>
<path d="M111.361 265.801H160.019L137.017 336.577H79.5117L111.361 265.801Z" fill="#C9C6BF"/>
<path d="M248.489 265.801H199.831L222.833 336.577H280.338L248.489 265.801Z" fill="#C9C6BF"/>
<path d="M353.768 265.801H305.109L349.344 336.577H406.85L353.768 265.801Z" fill="#C9C6BF"/>
</g>
<g clip-path="url(#clip1_1037_1999)">
<path d="M243.708 287.55C242.836 286.708 236.872 288.527 236.872 288.527L233.874 275.793L235.821 277.404L237.414 270.521L244.277 274.043L234.591 256.001L227.987 238.831L226.366 213.673L230.216 216.065L230.537 220.233L229.77 225.388L234.245 219.714L233.858 214.176L234.639 209.877C234.639 209.877 227.916 178.364 227.054 173.126C226.192 167.888 228.069 151.255 228.262 150.549C228.455 149.843 221.939 137.702 221.939 137.702L214.997 136.529L214.28 124.913L226.713 113.349L223.094 106.754L216.59 108.058C216.59 108.058 222.739 88.8661 222.93 88.9742C223.12 89.0823 212.575 71.3727 212.575 71.3727L209.285 71.3273L213.446 69.2664L218.501 70.318L211.584 66.6423L199.171 70.9896L206.393 63.6735L201.58 64.7259L193.216 70.8708L184.158 65.7756L168.685 66.0457L178.155 68.8198L181.819 71.6182L167.376 85.779L170.337 94.4428L169.829 99.7135L173.08 102.93L164.384 110.684L167.028 114.922L171.078 115.34L176.964 115.383L174.523 122.77L180.037 124.122L183.358 118.065L190.203 117.62L190.268 121.372L193.602 121.314L194.359 116.278L202.499 117.86L201.766 129.107L190.431 130.694L189.01 125.354L185.585 125.413L185.678 130.776L182.082 130.839L179.241 127.564L174.659 129.581L181.187 140.933L197.087 139.053L195.856 146.547L189.508 153.882L189.512 154.122L186.139 157.138L152.174 147.241L133.92 144.809L133.764 147.125L120.016 144.734L104.076 146.727L99.7032 150.908L102.62 154.611L107.259 150.93L117.529 150.408L107.298 153.158L104.268 157.256L104.519 161.802L107.021 161.39L109.516 157.061L120.198 154.647L112.956 157.858L112.226 162.156L115.177 163.904L117.02 161.009L121.916 159.313L118.289 162.05L119.085 165.464L122.033 166.072L122.48 163.691L127.558 160.174L132.864 160.347L132.735 162.303L135.663 171.533L141.118 163.58L146.125 165.84L148.799 164.422L155.094 164.39L184.923 168.942L174.771 180.646L139.812 175.146L121.394 175.047L121.464 176.135L105.07 173.276L89.1298 175.268L84.7571 179.449L87.6999 183.151L92.3383 179.471L102.608 178.949L92.3772 181.698L89.3478 185.796L89.5985 190.342L92.1011 189.93L94.5953 185.602L105.278 183.187L98.0356 186.399L97.3054 190.696L100.257 192.444L102.099 189.55L106.995 187.853L103.368 190.591L104.164 194.005L107.113 194.613L107.56 192.231L112.638 188.715L122.28 189.035L122.496 192.545L126.563 201.326L130.971 192.748L136.224 194.37L138.695 192.613L144.933 191.776L181.234 192.659L185.71 189.008L182.583 220.916L188.443 213.101L192.806 213.736L192.74 213.883L162.954 245.16L147.323 277.141L155.153 281.623L152.185 295.147L147.638 295.226L147.631 294.806L145.005 285.708C145.005 285.708 125.43 283.616 112.368 295.422L111.968 297.563L163.542 307.803L164.353 305.218L159.18 303.26L159.363 296.118L164.433 282.318L164.841 282.114L167.37 291.068L168.589 282.88L170.766 285.893L184.068 256.883L204.552 238.426L212.959 266.637L222.702 284.995L223.745 274.084L225.309 274.862C226.971 279.744 230.109 289.253 230.123 291.541C230.123 291.541 223.228 296.443 223.387 298.189C223.546 299.934 226.075 304.998 226.075 304.998L233.782 304.863L237.959 298.791L247.394 299.484C247.394 299.484 249.031 295.17 249.002 293.457C248.972 291.743 244.579 288.392 243.708 287.55Z" fill="#FFBE3F"/>
<path d="M72.9996 289.085C72.1766 288.29 66.5434 290.007 66.5434 290.007L63.7122 277.98L65.551 279.502L67.0556 273L73.5374 276.327L64.3891 259.287L58.1516 243.07L56.6203 219.309L60.2568 221.568L60.5601 225.504L59.8361 230.373L64.0628 225.014L63.6964 219.784L64.4346 215.724C64.4346 215.724 58.0851 185.96 57.2706 181.012C56.4561 176.065 58.2288 160.356 58.4113 159.689C58.5938 159.022 52.4392 147.555 52.4392 147.555L45.8828 146.447L45.2059 135.476L56.9485 124.554L53.5308 118.325L47.3875 119.557C47.3875 119.557 53.1955 101.43 53.3752 101.532C53.555 101.634 43.5951 84.9078 43.5951 84.9078L40.4877 84.8649L44.418 82.9185L49.1924 83.9117L42.6596 80.4401L30.9355 84.546L37.7564 77.6361L33.2108 78.6301L25.3108 84.4338L16.7562 79.6214L2.14143 79.8765L11.0865 82.4967L14.5468 85.1397L0.905334 98.5144L3.70179 106.697L3.22235 111.675L6.29309 114.714L-1.92022 122.036L0.576755 126.04L4.40228 126.434L9.96104 126.475L7.65573 133.452L12.8639 134.729L16.0002 129.008L22.4651 128.588L22.527 132.132L25.6757 132.077L26.3908 127.32L34.0787 128.814L33.3867 139.437L22.6807 140.936L21.3386 135.892L18.1035 135.949L18.1919 141.014L14.795 141.073L12.1116 137.98L7.78418 139.884L13.9501 150.607L28.9671 148.831L27.8043 155.909L21.8089 162.837L21.8129 163.064L18.6265 165.912L-13.453 156.564L-30.6932 154.267L-30.841 156.455L-43.825 154.197L-58.8806 156.079L-63.0106 160.028L-60.2554 163.525L-55.8745 160.049L-46.1747 159.556L-55.8378 162.153L-58.699 166.023L-58.4622 170.317L-56.0985 169.927L-53.7428 165.839L-43.6535 163.559L-50.4935 166.592L-51.1832 170.651L-48.3955 172.302L-46.6553 169.568L-42.0313 167.966L-45.4569 170.551L-44.7049 173.776L-41.9199 174.35L-41.498 172.101L-36.7018 168.78L-31.691 168.943L-31.8125 170.791L-29.0471 179.508L-23.8953 171.996L-19.1656 174.131L-16.6405 172.792L-10.6947 172.761L17.4781 177.061L7.88985 188.115L-25.1285 182.92L-42.5243 182.827L-42.4579 183.854L-57.9413 181.154L-72.997 183.035L-77.1269 186.984L-74.3475 190.481L-69.9666 187.005L-60.2668 186.512L-69.9299 189.109L-72.791 192.979L-72.5543 197.273L-70.1906 196.884L-67.8349 192.796L-57.7456 190.515L-64.5856 193.548L-65.2752 197.607L-62.4876 199.258L-60.7474 196.525L-56.1234 194.922L-59.549 197.507L-58.797 200.732L-56.012 201.307L-55.5901 199.057L-50.7938 195.736L-41.6869 196.038L-41.4835 199.353L-37.6414 207.647L-33.4788 199.545L-28.5169 201.078L-26.1835 199.418L-20.2914 198.627L13.9938 199.461L18.2215 196.012L15.2687 226.149L20.8031 218.768L24.9235 219.368L24.8612 219.507L-3.27107 249.047L-18.0346 279.253L-10.6389 283.487L-13.4417 296.259L-17.7364 296.334L-17.7433 295.938L-20.2233 287.345C-20.2233 287.345 -38.7119 285.369 -51.0491 296.519L-51.4265 298.541L-2.71566 308.213L-1.94924 305.771L-6.83572 303.922L-6.66222 297.177L-1.87371 284.143L-1.48874 283.95L0.899891 292.407L2.05126 284.673L4.10734 287.519L16.6707 260.12L36.0178 242.688L43.9584 269.332L53.1604 286.671L54.1455 276.366L55.6227 277.101C57.1918 281.712 60.1559 290.693 60.1694 292.854C60.1694 292.854 53.6566 297.484 53.8067 299.132C53.9568 300.781 56.346 305.563 56.346 305.563L63.6251 305.436L67.5702 299.702L76.481 300.355C76.481 300.355 78.0279 296.281 77.9997 294.663C77.9714 293.045 73.8225 289.88 72.9996 289.085Z" fill="#4191CC"/>
<path d="M406 289.085C405.177 288.29 399.543 290.007 399.543 290.007L396.712 277.98L398.551 279.502L400.056 273L406.537 276.327L397.389 259.287L391.152 243.07L389.62 219.309L393.257 221.568L393.56 225.504L392.836 230.373L397.063 225.014L396.696 219.784L397.435 215.724C397.435 215.724 391.085 185.96 390.271 181.012C389.456 176.065 391.229 160.356 391.411 159.689C391.594 159.022 385.439 147.555 385.439 147.555L378.883 146.447L378.206 135.476L389.949 124.554L386.531 118.325L380.388 119.557C380.388 119.557 386.195 101.43 386.375 101.532C386.555 101.634 376.595 84.9078 376.595 84.9078L373.488 84.8649L377.418 82.9185L382.192 83.9117L375.66 80.4401L363.936 84.546L370.756 77.6361L366.211 78.6301L358.311 84.4338L349.756 79.6214L335.141 79.8765L344.087 82.4967L347.547 85.1397L333.905 98.5144L336.702 106.697L336.222 111.675L339.293 114.714L331.08 122.036L333.577 126.04L337.402 126.434L342.961 126.475L340.656 133.452L345.864 134.729L349 129.008L355.465 128.588L355.527 132.132L358.676 132.077L359.391 127.32L367.079 128.814L366.387 139.437L355.681 140.936L354.339 135.892L351.103 135.949L351.192 141.014L347.795 141.073L345.112 137.98L340.784 139.884L346.95 150.607L361.967 148.831L360.804 155.909L354.809 162.837L354.813 163.064L351.626 165.912L319.547 156.564L302.307 154.267L302.159 156.455L289.175 154.197L274.119 156.079L269.989 160.028L272.745 163.525L277.125 160.049L286.825 159.556L277.162 162.153L274.301 166.023L274.538 170.317L276.901 169.927L279.257 165.839L289.346 163.559L282.506 166.592L281.817 170.651L284.604 172.302L286.345 169.568L290.969 167.966L287.543 170.551L288.295 173.776L291.08 174.35L291.502 172.101L296.298 168.78L301.309 168.943L301.188 170.791L303.953 179.508L309.105 171.996L313.834 174.131L316.359 172.792L322.305 172.761L350.478 177.061L340.89 188.115L307.872 182.92L290.476 182.827L290.542 183.854L275.059 181.154L260.003 183.035L255.873 186.984L258.652 190.481L263.033 187.005L272.733 186.512L263.07 189.109L260.209 192.979L260.446 197.273L262.809 196.884L265.165 192.796L275.254 190.515L268.414 193.548L267.725 197.607L270.512 199.258L272.253 196.525L276.877 194.922L273.451 197.507L274.203 200.732L276.988 201.307L277.41 199.057L282.206 195.736L291.313 196.038L291.517 199.353L295.359 207.647L299.521 199.545L304.483 201.078L306.816 199.418L312.709 198.627L346.994 199.461L351.222 196.012L348.269 226.149L353.803 218.768L357.923 219.368L357.861 219.507L329.729 249.047L314.965 279.253L322.361 283.487L319.558 296.259L315.264 296.334L315.257 295.938L312.777 287.345C312.777 287.345 294.288 285.369 281.951 296.519L281.574 298.541L330.284 308.213L331.051 305.771L326.164 303.922L326.338 297.177L331.126 284.143L331.511 283.95L333.9 292.407L335.051 284.673L337.107 287.519L349.671 260.12L369.018 242.688L376.958 269.332L386.16 286.671L387.146 276.366L388.623 277.101C390.192 281.712 393.156 290.693 393.169 292.854C393.169 292.854 386.657 297.484 386.807 299.132C386.957 300.781 389.346 305.563 389.346 305.563L396.625 305.436L400.57 299.702L409.481 300.355C409.481 300.355 411.028 296.281 411 294.663C410.971 293.045 406.822 289.88 406 289.085Z" fill="#4CB469"/>
</g>
</g>
<defs>
<clipPath id="clip0_1037_1999">
<rect width="360" height="391" fill="white"/>
</clipPath>
<clipPath id="clip1_1037_1999">
<rect width="360" height="397" fill="white" transform="translate(0 -3)"/>
</clipPath>
</defs>
</svg>
