<svg width="360" height="334" viewBox="0 0 360 334" fill="none" xmlns="http://www.w3.org/2000/svg">
<g clip-path="url(#clip0_1056_2251)">
<g clip-path="url(#clip1_1056_2251)">
<rect width="207.471" height="92.7856" transform="translate(89.6445 21.1953) rotate(-5.86361)" fill="#FF4A3F"/>
<path d="M112.041 39.5772C113.031 39.0585 113.254 37.622 113.143 36.5442C112.959 34.7555 111.51 33.2822 109.607 33.4776C107.566 33.6872 106.584 35.1785 106.81 37.38C106.925 38.5036 107.428 39.5643 108.4 39.9975C106.368 40.971 105.527 43.1661 105.739 45.2299C106.003 47.7983 107.89 50.1536 111.238 49.8097C114.494 49.4753 115.89 47.2695 115.591 44.3572C115.384 42.3392 114.307 40.202 112.041 39.5772ZM109.869 38.966C108.815 39.0743 108.234 38.1607 108.131 37.1517C108.02 36.0739 108.457 34.9166 109.443 34.8154C110.613 34.6952 111.29 35.6454 111.396 36.6773C111.504 37.7322 111.016 38.8482 109.869 38.966ZM110.183 41.1122C112.636 40.8602 113.05 44.6645 113.055 44.7103C113.286 46.9576 112.233 47.9927 111.018 48.1175C109 48.3247 107.885 46.7243 107.709 45.0045C107.525 43.2158 108.348 41.3006 110.183 41.1122ZM124.962 48.1685L125.518 34.6244L129.757 42.5084L131.202 42.36L134.25 34.3534L136.793 46.9304L138.975 46.5208L135.749 31.3491L134.024 31.2482L130.342 40.7566L125.718 32.0549L124.067 32.4561L122.565 48.0671L124.962 48.1685ZM143.99 37.8719L147.25 45.6942L149.819 45.4304L143.346 30.0128L141.007 30.253L139.82 46.4572L141.265 46.3089L141.649 38.0892L143.99 37.8719ZM141.901 32.6407L143.563 36.8729L141.699 36.9949L141.901 32.6407ZM155.723 32.7739C155.525 30.8476 154.582 29.1137 151.486 29.4316L149.992 29.7705L151.51 45.2336L153.323 44.8388L152.461 38.0216C152.732 37.9475 153 37.8504 153.22 37.7352L155.615 44.812L157.144 44.5854L154.435 36.9382C155.618 35.8203 155.866 34.1727 155.723 32.7739ZM152.304 36.7169L151.63 30.8305C153.252 30.8261 154.13 31.7092 154.283 33.1998C154.45 34.8279 153.752 36.151 152.304 36.7169ZM165.953 41.4793C162.891 41.6779 160.218 40.701 159.799 36.6192C159.326 32.0099 161.246 29.727 165.214 29.3196L165.068 27.8978C164.719 27.8873 164.375 27.9226 164.054 27.9556C159.605 28.4125 157.34 32.3065 157.844 37.2139C158.291 41.5709 161.182 44.4488 165.494 44.006C165.723 43.9825 165.952 43.9589 166.202 43.9101L165.953 41.4793ZM179.68 42.3638L177.881 26.6515L175.358 26.9105L175.89 32.7652L169.134 33.32L168.593 27.6053L166.805 27.789L168.42 43.5201L170.071 43.3505L169.238 34.5606L176.003 33.8659L176.813 42.6582L179.68 42.3638Z" fill="#242320"/>
<path d="M112.295 94.0544L111.938 93.9636L110.782 95.4496L111.144 95.7021L111.885 94.6874L112.307 101.052L110.759 101.211L110.804 101.646L114.095 101.308L114.05 100.873L112.731 101.008L112.295 94.0544ZM115.221 95.7352L116.634 93.7015L116.474 93.3819L114.261 93.6092L114.302 94.0105L116.056 93.8303L114.74 95.7962L114.889 96.1169C114.948 96.1225 116.476 96.2205 116.672 98.1353C116.842 99.7863 116.272 100.668 115.435 100.754C115.137 100.784 114.835 100.664 114.583 100.354L114.265 100.642C114.674 101.133 115.101 101.228 115.468 101.19C116.569 101.077 117.305 100.005 117.108 98.0905C116.931 96.3706 115.792 95.8851 115.245 95.7444L115.221 95.7352ZM126.121 99.2273C125.576 99.6772 124.755 99.9122 124.113 99.9782C122.645 100.129 121.197 99.5708 120.915 96.819C120.666 94.3997 121.562 93.1954 123.42 93.0046C124.406 92.9033 125.12 93.2008 125.439 93.3765L125.594 92.9667C125.154 92.7453 124.385 92.4767 123.365 92.5815C121.175 92.8064 120.185 94.3448 120.443 96.8558C120.695 99.3095 121.885 100.624 124.109 100.396C125.061 100.298 125.799 100.037 126.377 99.5719L126.121 99.2273ZM127.834 92.192C126.401 92.3392 126.286 93.9268 126.526 96.2658C126.787 98.7998 127.487 100.095 128.531 99.9879C130.297 99.8066 130.273 97.8856 130.111 95.9673C129.86 93.525 129.396 92.0548 127.834 92.192ZM128.48 99.4949C127.758 99.5691 127.218 98.3731 126.996 96.2176C126.743 93.7524 126.991 92.7769 127.919 92.6815C128.917 92.5791 129.347 93.4966 129.605 96.0076C129.8 98.1311 129.673 99.3724 128.48 99.4949ZM136.691 98.1418C136.146 98.5917 135.325 98.8267 134.683 98.8927C133.215 99.0434 131.767 98.4853 131.485 95.7335C131.236 93.3142 132.132 92.1098 133.99 91.9191C134.976 91.8178 135.69 92.1152 136.009 92.291L136.164 91.8811C135.724 91.6598 134.955 91.3912 133.935 91.496C131.745 91.7209 130.756 93.2593 131.013 95.7703C131.265 98.224 132.455 99.5386 134.679 99.3101C135.631 99.2124 136.369 98.9512 136.947 98.4863L136.691 98.1418ZM139.971 91.131L139.61 90.8899L137.821 93.7734L137.502 91.2339L137.056 91.2913L137.995 98.8537L138.43 98.7975L137.983 95.2399L140.867 98.6167L141.195 98.305L137.915 94.459L139.971 91.131ZM140.346 91.4053L142.88 91.1451L143.337 98.3051L143.785 98.2592L143.327 91.0991L145.838 90.8413L145.791 90.3826L140.299 90.9467L140.346 91.4053ZM149.371 97.616L146.996 90.1778L146.573 90.2328L146.035 97.9701L146.477 97.9827L146.746 94.3979L147.855 94.3651L148.955 97.7398L149.371 97.616ZM146.771 93.9666L146.927 91.4246L147.719 93.9388L146.771 93.9666ZM150.861 90.3138L152.205 90.199L152.171 89.7507L148.977 90.0207L149.012 90.469C149.482 90.4208 149.954 90.3954 150.424 90.3471L151.147 97.1555L149.766 97.2509L149.801 97.6993L152.953 97.4798L152.93 97.0303L151.584 97.1222L150.861 90.3138ZM154.268 96.8233L153.653 89.5869L153.216 89.6202L153.845 97.0986L154.098 97.3043L157.942 96.7126L157.885 96.2781L154.268 96.8233ZM161.945 89.5463C161.188 88.9405 160.476 88.7818 159.605 88.8713C158.212 89.0723 157.726 89.8753 157.823 90.8155C157.948 92.0309 159.057 92.45 160.112 92.7935C161.083 93.1109 162.18 93.5312 162.289 94.586C162.382 95.4918 161.803 96.0611 160.565 96.1883C159.762 96.2707 159.007 96.0238 158.408 95.7261L158.197 96.1533C158.85 96.5266 159.67 96.732 160.611 96.6354C162.583 96.4329 162.829 95.3301 162.744 94.5045C162.601 93.1172 161.437 92.7269 160.323 92.3663C159.328 92.0398 158.379 91.7201 158.277 90.7225C158.2 89.9772 158.654 89.4324 159.824 89.3123C160.523 89.2405 161.101 89.4477 161.619 89.8695L161.945 89.5463Z" fill="#242320"/>
<g clip-path="url(#clip2_1056_2251)">
<path d="M240.534 72.5309C237.594 72.7228 233.196 77.056 230.26 81.4187C230.547 77.386 231.017 65.3744 226.356 65.9689C220.774 66.6754 214.026 71.8699 214.23 74.9889C214.41 77.7571 218.262 81.8166 222.351 84.7337C217.689 84.4651 207.247 84.3382 207.792 88.6795C208.498 94.2613 213.693 101.01 216.812 100.811C219.753 100.619 224.151 96.2804 227.087 91.9236C226.8 95.9563 226.33 107.962 230.991 107.373C236.573 106.667 243.321 101.472 243.122 98.347C242.943 95.5846 239.084 91.5199 234.995 88.6028C239.658 88.8771 250.099 88.9983 249.555 84.657C248.831 79.0827 243.632 72.3402 240.534 72.5309Z" fill="#FFC2BE"/>
<path d="M248.804 66.7514C248.804 66.7514 237.295 61.2999 233.951 55.1431C230.608 48.9863 232.016 36.2932 241.762 35.2923C251.508 34.2915 255.288 44.8122 255.288 44.8122C255.288 44.8122 254.924 30.6673 265.392 26.319C275.861 21.9707 285.586 31.8809 280.123 47.7364C274.66 63.592 264.639 72.2394 264.639 72.2394L248.804 66.7514Z" fill="#0071BC"/>
<path d="M271.915 82.8257C271.915 82.8257 269.135 75.7768 270.197 71.7397C271.26 67.7027 277.028 62.7768 281.653 66.2935C286.279 69.8101 283.658 75.9364 283.658 75.9364C283.658 75.9364 289.251 69.6497 295.566 72.0138C301.88 74.3779 302.08 82.6476 293.267 87.3127C284.453 91.9777 276.582 91.6564 276.582 91.6564L271.915 82.8257Z" fill="#FFC81A"/>
<path d="M233.757 65.4884C233.757 65.4884 222.818 49.2316 216.511 49.8793C210.205 50.5269 214.299 59.6481 214.299 59.6481C214.299 59.6481 223.245 59.0365 233.757 65.4884Z" fill="#FFC81A"/>
<path d="M281.924 56.7063C281.924 56.7063 288.122 49.981 290.985 50.724C293.848 51.467 291.313 55.383 291.313 55.383C291.313 55.383 287.233 54.4695 281.924 56.7063Z" fill="#FFC2BE"/>
<path d="M229.101 90.0545C231.001 89.8594 232.383 88.1612 232.188 86.2614C231.993 84.3617 230.295 82.9798 228.395 83.1749C226.495 83.37 225.113 85.0682 225.308 86.968C225.503 88.8677 227.202 90.2496 229.101 90.0545Z" fill="#E2766F"/>
<path d="M257.041 87.3774C256.462 88.7867 257.498 91.8204 258.846 94.1788C257.035 93.1251 251.548 90.1836 250.77 92.4824C249.831 95.238 250.733 99.5657 252.221 100.178C253.545 100.719 256.317 99.8438 258.6 98.6071C257.415 100.716 254.986 105.554 257.135 106.289C259.89 107.223 264.219 106.326 264.831 104.838C265.443 103.35 264.374 100.395 263.026 98.0367C264.837 99.0848 270.324 102.032 271.102 99.7332C272.041 96.9776 271.139 92.6499 269.651 92.0379C268.327 91.4961 265.56 92.3654 263.272 93.6085C264.457 91.4996 266.886 86.6618 264.737 85.9266C261.981 84.9872 257.642 85.8905 257.041 87.3774Z" fill="#4192B5"/>
<path d="M261.111 97.8446C262.095 97.7434 262.812 96.8632 262.71 95.8785C262.609 94.8938 261.729 94.1776 260.744 94.2787C259.76 94.3798 259.043 95.26 259.145 96.2447C259.246 97.2294 260.126 97.9457 261.111 97.8446Z" fill="#FFC81A"/>
</g>
</g>
<g clip-path="url(#clip3_1056_2251)">
<rect width="201.762" height="90.2327" transform="translate(13.4224 77.5642) rotate(11.1328)" fill="#FFBE3F"/>
<path d="M24.5211 94.4238L21.0681 109.532L26.5232 110.606L28.4019 109.65L29.5836 103.645L28.013 101.874L30.5468 98.0543L29.6332 95.4983L24.5211 94.4238ZM28.227 104.269L27.3119 108.339L25.828 109.029L23.7554 108.416L24.8985 102.723L26.987 102.792L28.227 104.269ZM26.4203 101.492L25.1409 101.492L26.206 96.1948L28.19 96.5623L28.7658 97.9323L26.4203 101.492ZM37.0806 98.5404L37.5553 97.0572L32.3865 96.1543L32.2934 97.3241L33.7278 97.6978L31.5119 110.468L30.0428 110.27L30.011 111.361L34.1989 112.139L34.7049 110.845L33.0513 110.657L35.7518 98.2103L37.0806 98.5404ZM39.9796 106.559L41.0652 113.582L42.6486 113.779L41.3693 106.696L42.8254 106.959L44.2458 105.662L45.2544 100.537L44.2719 98.4475L39.5207 97.5126L36.5557 112.58L38.2714 112.918L39.333 106.478L39.9796 106.559ZM40.5105 99.1011L42.952 99.5815L43.7125 100.942L42.9366 104.537L41.9362 105.208L39.5873 104.837L40.5105 99.1011ZM55.2585 100.335L46.4265 99.1229L46.2721 100.372L49.6375 101.034L46.6462 114.726L48.5898 114.834L51.9031 101.48L54.8199 102.1L55.2585 100.335ZM54.218 116.101L55.2958 116.313L56.7207 107.912L59.4263 108.444L57.9134 116.829L59.6731 117.175L62.1449 101.828L60.6931 101.542L59.6384 107.366L56.8719 107.027L57.8996 100.992L56.6238 100.741L54.218 116.101ZM62.5973 117.819L69.3537 118.897L72.9325 116.037L74.6302 109.151L71.9062 104.068L65.289 102.515L62.5973 117.819ZM70.4571 114.567L68.3402 116.733L64.9928 116.211L67.446 104.79L70.4108 105.282L71.9052 109.415L70.4571 114.567ZM78.8091 104.947L73.5348 119.674L75.3608 120.148L77.7545 113.673L79.6502 113.909L79.5397 120.856L80.9832 121.3L81.2507 105.427L78.8091 104.947ZM78.1209 112.74L79.7215 108.554L79.6823 112.933L78.1209 112.74ZM89.6785 107.292L86.3268 112.481L84.7341 106.41L82.8427 106.152L85.163 114.331L83.775 121.849L86.0626 122.299L87.31 114.799L91.9578 107.9L89.6785 107.292Z" fill="#242320"/>
<path d="M13.9198 151.023L13.6136 150.837L12.1155 151.891L12.3803 152.228L13.3585 151.496L11.9417 157.534L10.4569 157.242L10.3747 157.66L13.5311 158.281L13.6134 157.863L12.3486 157.614L13.9198 151.023ZM16.2471 151.973L17.16 152.152L17.2466 151.712L16.1577 151.498L15.9187 151.668L15.3457 153.36L15.4894 153.617C15.8084 153.68 17.2143 154.082 16.8334 156.018C16.5174 157.624 15.6646 158.358 14.4548 158.12C14.3778 158.105 14.2898 158.088 14.226 158.064L14.1129 158.464C14.1877 158.49 14.2977 158.512 14.3967 158.531C15.8484 158.817 16.9007 157.882 17.247 156.122C17.5002 154.835 17.0151 153.643 15.7808 153.297L16.2471 151.973ZM25.039 159.712C24.4045 159.975 23.5735 159.96 22.9576 159.839C21.5498 159.562 20.3621 158.631 20.8815 155.992C21.3382 153.671 22.5138 152.806 24.2955 153.157C25.2413 153.343 25.8209 153.822 26.0679 154.077L26.3285 153.739C25.9823 153.409 25.3434 152.94 24.3646 152.747C22.2639 152.334 20.9067 153.484 20.4328 155.892C19.9696 158.246 20.7021 159.806 22.8357 160.226C23.7485 160.406 24.509 160.373 25.1787 160.105L25.039 159.712ZM28.6323 153.656C27.2576 153.385 26.6993 154.829 26.2578 157.073C25.7795 159.503 26.063 160.907 27.0638 161.104C28.7575 161.437 29.2817 159.644 29.6762 157.814C30.1372 155.471 30.1237 153.972 28.6323 153.656ZM27.1569 160.631C26.464 160.495 26.3018 159.229 26.7087 157.161C27.174 154.797 27.6814 153.96 28.5723 154.135C29.5291 154.324 29.6684 155.299 29.1944 157.708C28.772 159.738 28.3007 160.856 27.1569 160.631ZM35.1779 161.707C34.5434 161.97 33.7124 161.955 33.0965 161.834C31.6887 161.557 30.501 160.627 31.0204 157.987C31.4771 155.666 32.6527 154.801 34.4344 155.152C35.3802 155.338 35.9598 155.818 36.2068 156.072L36.4674 155.735C36.1212 155.404 35.4823 154.935 34.5034 154.743C32.4028 154.329 31.0456 155.479 30.5716 157.887C30.1085 160.241 30.8409 161.802 32.9746 162.222C33.8874 162.401 34.6479 162.368 35.3176 162.1L35.1779 161.707ZM40.2213 156.119L39.9543 155.792L37.4704 157.965L37.8959 155.513L37.4648 155.44L36.1881 162.74L36.6082 162.811L37.2043 159.375L38.9269 163.336L39.3197 163.139L37.3625 158.63L40.2213 156.119ZM40.4921 156.481L42.9227 156.959L41.3126 163.748L41.7415 163.833L43.3516 157.044L45.7602 157.518L45.8468 157.078L40.5787 156.041L40.4921 156.481ZM47.1194 164.822L47.0256 157.23L46.6165 157.161L43.9168 164.203L44.3239 164.341L45.5932 161.083L46.6339 161.368L46.6973 164.819L47.1194 164.822ZM45.7393 160.689L46.607 158.37L46.6282 160.933L45.7393 160.689ZM50.5814 158.455L51.8638 158.73L51.9592 158.303L48.9126 157.647L48.8172 158.073C49.2681 158.162 49.7147 158.273 50.1656 158.362L48.902 164.899L47.5909 164.595L47.4955 165.022L50.4895 165.714L50.5959 165.289L49.3178 164.992L50.5814 158.455ZM51.8996 165.477L53.3841 158.572L52.9683 158.479L51.4274 165.613L51.6041 165.876L55.3472 166.419L55.4185 165.998L51.8996 165.477ZM61.1076 160.892C60.5755 160.113 59.9589 159.763 59.123 159.599C57.7704 159.39 57.0908 159.999 56.9134 160.9C56.6839 162.066 57.5962 162.771 58.4796 163.391C59.2926 163.962 60.1938 164.665 59.9947 165.677C59.8237 166.545 59.1236 166.91 57.9358 166.677C57.166 166.525 56.5337 166.081 56.0619 165.634L55.7442 165.971C56.2448 166.504 56.9496 166.928 57.8514 167.106C59.7431 167.478 60.2853 166.522 60.4411 165.73C60.703 164.399 59.7314 163.706 58.7973 163.053C57.9646 162.467 57.1736 161.9 57.3619 160.943C57.5026 160.228 58.0796 159.851 59.2014 160.071C59.8723 160.203 60.3504 160.56 60.7126 161.1L61.1076 160.892Z" fill="#242320"/>
<path d="M148.597 135.296L146.448 162.297L149.494 162.896L154.69 136.495L148.597 135.296Z" fill="#FFF5E1"/>
<path d="M163.802 127.777L157.414 154.1L160.327 155.173L169.629 129.923L163.802 127.777Z" fill="#FFF5E1"/>
<path d="M171.796 145.662L161.699 170.796L164.428 172.276L177.255 148.622L171.796 145.662Z" fill="#FFF5E1"/>
<path d="M176.666 154.532L169.244 169.737L139.629 162.643L142.986 145.584L176.666 154.532Z" fill="#C9680F"/>
<path d="M127.727 159.876L130.17 175.334L177.896 184.726L181.533 166.245L127.727 159.876Z" fill="#A2422C"/>
<path d="M187.162 185.879L176.237 203.809L111.87 191.142L116.746 166.365L187.162 185.879Z" fill="#E7643B"/>
<path d="M153.602 133.445C153.416 134.392 152.538 135.017 151.64 134.84C150.743 134.664 150.167 133.753 150.353 132.806C150.539 131.859 152.262 126.946 153.159 127.123C154.056 127.3 153.789 132.498 153.602 133.445Z" fill="#F2521F"/>
<path d="M169.036 126.74C168.702 127.646 167.736 128.124 166.878 127.808C166.02 127.492 165.595 126.501 165.928 125.595C166.262 124.689 168.739 120.111 169.597 120.427C170.455 120.743 169.37 125.834 169.036 126.74Z" fill="#F2521F"/>
<path d="M177.125 145.389C176.665 146.237 175.64 146.572 174.836 146.136C174.032 145.7 173.754 144.659 174.214 143.81C174.674 142.961 177.782 138.786 178.586 139.221C179.389 139.657 177.585 144.54 177.125 145.389Z" fill="#F2521F"/>
</g>
<g clip-path="url(#clip4_1056_2251)">
<rect width="216.085" height="96.6381" transform="translate(250.086 89.8933) rotate(47.6784)" fill="#4CB469"/>
<path d="M249.477 113.927L250.379 117.165L252.493 117.026L251.846 114.14L248.545 111.691L244.522 114.12L244.385 122.85L241.018 124.715L239.338 122.478L239.987 119.874L237.651 120.019L237.291 123.011L240.778 126.947L246.536 124.106L246.593 114.897L249.477 113.927ZM256.705 119.512L242.775 128.82L244.044 130.392L250.233 126.347L251.714 127.759L247.188 133.666L248.147 134.969L258.5 121.482L256.705 119.512ZM251.143 125.778L255.19 123.197L252.364 126.94L251.143 125.778ZM263.485 129.774L264.839 128.801L260.968 124.728L260.142 125.675L261.138 126.911L251.087 136.485L249.949 135.379L249.226 136.296L252.333 139.637L253.594 138.846L252.291 137.63L262.552 128.643L263.485 129.774ZM272.545 137.369L270.839 135.318L262.359 143.657L268.059 132.265L266.329 130.365L254.224 141.713L255.779 143.349L264.998 134.467L258.85 146.722L260.127 148.125L272.545 137.369ZM280.238 145.39L273.412 138.715L272.483 139.691L274.956 142.407L263.651 152.28L265.254 153.612L276.621 144.235L278.736 146.629L280.238 145.39ZM287.829 157.114L288.318 154.655L284.681 150.661L272.503 161.75L273.748 163.117L278.752 158.236L281.395 160.96L283.694 160.846L287.829 157.114ZM283.089 158.898L281.835 158.805L280.051 156.988L284.468 152.674L286.262 154.644L286.066 156.283L283.089 158.898ZM291.499 157.72L277.569 167.028L278.838 168.6L285.026 164.556L286.507 165.968L281.982 171.874L282.941 173.177L293.293 159.691L291.499 157.72ZM285.937 163.986L289.984 161.405L287.157 165.148L285.937 163.986ZM301.203 168.413L294.377 161.737L293.447 162.713L295.921 165.429L284.616 175.302L286.219 176.634L297.586 167.258L299.7 169.651L301.203 168.413ZM296.638 177.806L293.093 184.54L294.33 185.72L297.746 178.81L298.831 179.965L300.88 179.755L305.017 175.988L305.504 173.564L302.012 169.729L289.852 180.803L291.113 182.187L296.133 177.323L296.638 177.806ZM301.851 171.727L303.645 173.698L303.432 175.353L300.472 177.951L299.183 177.891L297.399 176.074L301.851 171.727ZM309.992 180.846L311.346 179.873L307.475 175.8L306.649 176.747L307.645 177.983L297.594 187.557L296.456 186.45L295.733 187.368L298.84 190.709L300.101 189.918L298.798 188.701L309.059 179.715L309.992 180.846ZM306.417 196.034L303.361 193.07L308.109 187.122L312.127 184.795L315.511 187.656L317.372 186.026L313.289 182.47L306.145 185.858L300.954 193.28L305.086 197.603L306.417 196.034ZM318.708 187.957L306.298 198.934L307.884 200.64L313.187 195.908L314.813 196.018L312.999 206.827L315.084 207.299L316.7 196.378L324.682 196.871L324.824 194.923L314.818 194.455L320.121 189.723L318.708 187.957ZM328.669 197.077L324.918 200.233L325.646 201.032L330.238 199.156L328.669 197.077ZM331.472 203.97L332.374 207.208L334.488 207.069L333.841 204.183L330.54 201.734L326.517 204.163L326.38 212.893L323.013 214.758L321.333 212.521L321.982 209.917L319.647 210.063L319.286 213.054L322.773 216.99L328.531 214.149L328.588 204.94L331.472 203.97ZM218.823 138.626L223.949 143.863L228.852 143.684L234.704 138.842L235.602 132.732L230.899 127.175L218.823 138.626ZM227.659 140.841L224.457 141.354L221.91 138.77L231.304 130.508L233.541 132.822L232.191 137.331L227.659 140.841ZM240.981 137.89L227.051 147.198L228.32 148.77L234.509 144.725L235.989 146.137L231.464 152.044L232.423 153.347L242.775 139.86L240.981 137.89ZM235.419 144.156L239.466 141.575L236.639 145.318L235.419 144.156ZM248.838 146.839L242.644 149.167L245.146 142.927L243.683 141.499L240.463 150.016L234.474 155.6L236.156 157.446L242.012 151.788L250.411 148.816L248.838 146.839Z" fill="white"/>
<path d="M203.348 153.709L203.203 153.354L201.242 153.305L201.254 153.764L202.563 153.757L197.493 158.05L196.402 156.851L196.065 157.159L198.385 159.706L198.722 159.399L197.792 158.378L203.348 153.709ZM199.323 160.095C199.953 159.538 201.083 159.353 202.256 159.161C203.532 158.958 204.834 158.746 205.64 158.028C206.181 157.552 206.491 156.734 205.861 156.041C205.505 155.651 205.038 155.459 204.415 155.523L204.463 155.95C204.924 155.904 205.282 156.065 205.5 156.305C205.969 156.82 205.734 157.31 205.334 157.674C204.651 158.296 203.469 158.496 202.252 158.711C200.941 158.93 199.588 159.155 198.846 159.945L198.815 160.249L200.706 162.326L201.061 162.003L199.323 160.095ZM207.484 168.397C206.77 168.219 206.065 167.676 205.612 167.179C204.578 166.043 204.149 164.485 206.279 162.545C208.152 160.84 209.716 160.845 211.025 162.283C211.72 163.046 211.913 163.829 211.963 164.205L212.403 164.081C212.316 163.575 212.065 162.765 211.345 161.975C209.802 160.28 207.901 160.403 205.957 162.173C204.057 163.903 203.692 165.713 205.26 167.435C205.931 168.172 206.607 168.628 207.354 168.824L207.484 168.397ZM214.438 165.478C213.428 164.369 212.027 165.255 210.216 166.904C208.254 168.69 207.603 170.079 208.339 170.886C209.583 172.253 211.178 171.045 212.685 169.722C214.575 168 215.52 166.702 214.438 165.478ZM208.72 170.539C208.211 169.98 208.879 168.787 210.547 167.268C212.456 165.53 213.426 165.133 214.081 165.852C214.784 166.625 214.282 167.553 212.338 169.323C210.68 170.801 209.561 171.462 208.72 170.539ZM214.936 176.58C214.222 176.402 213.516 175.859 213.063 175.362C212.029 174.226 211.6 172.668 213.731 170.728C215.604 169.022 217.167 169.028 218.476 170.465C219.171 171.229 219.364 172.011 219.415 172.387L219.854 172.263C219.767 171.758 219.516 170.947 218.797 170.158C217.253 168.462 215.352 168.586 213.408 170.356C211.509 172.086 211.144 173.895 212.712 175.617C213.382 176.354 214.058 176.811 214.805 177.007L214.936 176.58ZM222.838 174.988L222.817 174.537L219.294 174.823L221.224 172.984L220.9 172.646L215.146 178.113L215.462 178.442L218.166 175.866L217.122 180.372L217.586 180.453L218.778 175.325L222.838 174.988ZM222.841 175.472L224.627 177.434L218.912 182.248L219.227 182.595L224.942 177.78L226.712 179.724L227.067 179.401L223.196 175.149L222.841 175.472ZM223.223 186.876L227.985 180.283L227.677 179.963L220.863 184.301L221.125 184.679L224.295 182.685L225.009 183.594L222.862 186.604L223.223 186.876ZM224.672 182.44L226.898 180.997L225.281 183.216L224.672 182.44ZM230.263 183.605L231.191 184.66L231.545 184.353L229.342 181.845L228.988 182.152C229.32 182.516 229.633 182.896 229.965 183.26L224.708 188.079L223.774 186.981L223.42 187.287L225.554 189.792L225.917 189.495L225.007 188.424L230.263 183.605ZM226.919 190.488L232.599 185.493L232.301 185.148L226.426 190.303L226.41 190.643L229.285 193.496L229.614 193.18L226.919 190.488ZM237.766 192.415C237.804 191.405 237.497 190.711 236.883 190.037C235.852 188.994 234.879 189.085 234.151 189.747C233.211 190.604 233.546 191.793 233.911 192.889C234.246 193.899 234.573 195.078 233.757 195.822C233.056 196.46 232.22 196.328 231.347 195.369C230.782 194.748 230.521 193.962 230.4 193.277L229.912 193.365C230.003 194.142 230.339 194.957 231.001 195.685C232.392 197.211 233.468 196.735 234.107 196.153C235.181 195.175 234.787 193.958 234.399 192.801C234.057 191.765 233.738 190.773 234.51 190.07C235.087 189.545 235.824 189.588 236.649 190.493C237.142 191.034 237.326 191.646 237.293 192.342L237.766 192.415Z" fill="white"/>
<g clip-path="url(#clip5_1056_2251)">
<path d="M325.552 291.744C325.552 291.744 327.418 301.234 318.837 314.703L283.368 273.095L325.552 291.744Z" fill="#FF8B00"/>
<path d="M379.844 246.604C379.844 246.604 376.335 244.98 376.082 244.99C375.828 245 372.401 247.623 371.327 248.437C371.793 247.049 373.072 242.857 373.072 242.857C373.072 242.857 370.527 240.043 368.47 239.722C366.412 239.401 363.475 240.642 363.475 240.642C363.475 240.642 361.857 244.149 361.863 244.4C361.869 244.651 364.436 247.993 365.283 249.107C363.807 248.614 359.796 247.391 359.796 247.391C359.796 247.391 356.987 249.934 356.663 251.987C356.339 254.041 357.587 256.979 357.587 256.979C357.587 256.979 361.098 258.598 361.349 258.593C361.6 258.587 365.028 255.964 366.102 255.15C365.636 256.538 364.359 260.726 364.359 260.726C364.359 260.726 366.904 263.54 368.959 263.865C371.015 264.191 373.954 262.946 373.954 262.946C373.954 262.946 375.572 259.438 375.545 259.173C375.518 258.908 372.972 255.58 372.125 254.466C373.603 254.954 377.607 256.18 377.607 256.18C377.607 256.18 380.433 253.612 380.745 251.586C381.058 249.56 379.844 246.604 379.844 246.604Z" fill="#FFBE3F"/>
<path d="M366.949 254.385C366.949 254.385 368.643 266.82 358.268 264.87L358.668 267.202C358.668 267.202 368.035 266.321 368.016 256.182L368.831 254.987L367.463 254.66L366.949 254.385Z" fill="#FFBE3F"/>
<path d="M266.762 224.072C266.762 224.072 269.357 224.926 269.481 225.065C269.605 225.205 270.125 228.208 270.289 229.148C270.711 228.201 272.062 225.412 272.062 225.412C272.062 225.412 274.727 225.162 275.957 226.007C277.187 226.851 278.101 228.894 278.101 228.894C278.101 228.894 277.255 231.492 277.116 231.616C276.978 231.739 274.058 232.239 273.081 232.41C274.081 232.86 276.748 234.166 276.748 234.166C276.748 234.166 277.002 236.834 276.164 238.069C275.326 239.303 273.288 240.211 273.288 240.211C273.288 240.211 270.69 239.358 270.57 239.218C270.45 239.077 269.928 236.078 269.761 235.135C269.34 236.082 267.988 238.871 267.988 238.871C267.988 238.871 265.316 239.102 264.094 238.276C262.871 237.45 261.95 235.389 261.95 235.389C261.95 235.389 262.792 232.792 262.934 232.667C263.077 232.542 265.993 232.043 266.966 231.874C265.97 231.422 263.302 230.116 263.302 230.116C263.302 230.116 263.067 227.441 263.887 226.214C264.707 224.987 266.762 224.072 266.762 224.072Z" fill="#FFBE3F"/>
<path d="M269.927 234.231C269.927 234.231 262.481 239.985 268.945 243.573L267.512 244.588C267.512 244.588 263.062 239.964 268.428 234.667L268.616 233.708L269.511 234.158L269.927 234.231Z" fill="#FFBE3F"/>
<path d="M297.946 285.329C320.661 300.584 341.036 310.028 343.453 306.422C345.871 302.817 329.417 287.528 306.701 272.273C283.986 257.017 263.612 247.574 261.194 251.179C258.776 254.784 275.231 270.074 297.946 285.329Z" fill="#43A038"/>
<path d="M327.336 230.332C309.229 218.172 302.023 216.904 301.236 222.173C299.747 232.146 279.62 262.775 279.62 262.775C279.62 262.775 284.186 269.022 301.191 280.443C318.196 291.864 325.721 293.719 325.721 293.719C325.721 293.719 343.934 261.633 353.522 258.516C356.757 257.463 345.442 242.492 327.336 230.332Z" fill="#82DD22"/>
<path d="M308.184 270.023L283.496 253.367L288.647 243.379L315.539 259.054L308.184 270.023Z" fill="#43A038"/>
<path d="M308.185 270.021L333.966 287.341L338.879 276.705L315.541 259.052L308.185 270.021Z" fill="#43A038"/>
<path d="M296.287 265.212L306.514 249.957L328.238 262.657L317.134 279.215L296.287 265.212Z" fill="#FFBE3F"/>
<path d="M316.019 274.829L300.766 264.584L307.796 254.097L323.691 263.392L316.019 274.829Z" fill="#1C3F19"/>
</g>
</g>
<g clip-path="url(#clip6_1056_2251)">
<rect width="213.784" height="95.6087" transform="translate(66.4111 168.371) rotate(19.9199)" fill="#713FFF"/>
<path d="M83.8119 193.416L82.5365 190.731L79.9515 189.289L75.4971 189.519L71.507 194.743L70.5608 201.676L74.1203 205.24L79.7928 205.553L81.4979 200.359L81.0623 199.191L78.5812 198.09L77.8204 200.189L79.6779 200.71L78.4737 203.685L75.1105 203.275L72.9583 200.499L73.3182 195.601L76.737 191.257L80.6825 191.524L82.0249 194.234L83.8119 193.416ZM85.8021 201.667L85.8023 209.196L87.4284 209.659L87.2353 202.034L88.7174 202.546L90.4147 201.418L92.3004 196.214L91.6099 193.867L86.786 192.119L81.2423 207.417L82.9842 208.048L85.1383 201.477L85.8021 201.667ZM87.5653 193.943L90.0442 194.841L90.6202 196.389L89.226 200.027L88.0698 200.568L85.6702 199.8L87.5653 193.943ZM96.4522 195.294L88.5454 209.861L90.3809 210.653L93.9354 204.26L95.8823 204.814L94.6422 212.071L96.0818 212.769L98.9311 196.192L96.4522 195.294ZM94.4702 203.342L96.8238 199.218L96.0739 203.797L94.4702 203.342ZM98.0022 213.617L104.903 215.839L109.113 213.424L112.005 206.488L109.976 200.725L103.298 198.027L98.0022 213.617ZM106.759 211.484L104.192 213.409L100.771 212.321L105.188 200.759L108.213 201.754L109.109 206.323L106.759 211.484ZM118.748 215.678L116.808 217.754L113.861 216.964L113.238 213.731L117.563 203.121L115.379 202.178L110.737 214.29L111.675 218.395L117.053 220.495L120.228 218.008L125.09 205.848L122.324 204.973L118.748 215.678ZM128.512 206.911L120.605 221.479L122.44 222.271L125.995 215.878L127.942 216.432L126.702 223.689L128.141 224.387L130.99 207.81L128.512 206.911ZM126.53 214.96L128.883 210.836L128.133 215.415L126.53 214.96ZM141.934 211.801L132.882 209.102L132.518 210.385L135.935 211.623L130.587 225.476L132.604 225.904L138.235 212.457L141.19 213.578L141.934 211.801ZM147.311 215.72L148.048 214.244L142.782 212.462L142.495 213.672L143.936 214.295L139.549 227.309L138.043 226.864L137.833 228L142.092 229.493L142.832 228.22L141.13 227.755L145.973 215.159L147.311 215.72ZM157.888 222.383L156.521 217.441L152.687 215.748L147.741 218.453L145.103 226.289L146.553 231.211L150.344 232.534L154.761 229.688L157.888 222.383ZM152.811 228.653L150.033 230.602L147.891 229.75L147.175 226.636L149.019 220.432L153.055 217.802L154.706 218.476L155.624 221.31L152.811 228.653ZM170.017 222.281L167.579 221.271L163.997 232.48L163.738 219.879L161.348 219.013L155.979 234.526L158.095 235.242L162.073 223.217L162.338 236.78L164.102 237.419L170.017 222.281Z" fill="white"/>
<path d="M54.8633 245.867L54.5728 245.622L52.8336 246.483L53.0562 246.879L54.1991 246.27L51.7381 252.364L50.2306 251.818L50.0769 252.242L53.2816 253.404L53.4353 252.979L52.1512 252.514L54.8633 245.867ZM54.2825 253.312C54.5769 252.534 55.4813 251.851 56.4201 251.143C57.4431 250.377 58.4854 249.592 58.8607 248.591C59.1147 247.925 59.0092 247.066 58.1383 246.75C57.647 246.572 57.1498 246.619 56.6337 246.963L56.8725 247.315C57.2548 247.062 57.6424 247.038 57.9439 247.147C58.5915 247.382 58.6114 247.92 58.4293 248.422C58.1177 249.282 57.1748 250.001 56.2086 250.75C55.1623 251.546 54.0816 252.367 53.7955 253.4L53.9085 253.681L56.5214 254.628L56.6833 254.182L54.2825 253.312ZM65.253 256.82C64.546 256.993 63.6782 256.843 63.0529 256.616C61.6236 256.098 60.5305 254.932 61.5017 252.252C62.3555 249.896 63.7266 249.18 65.5355 249.835C66.4958 250.183 67.0252 250.779 67.2426 251.085L67.5701 250.775C67.2611 250.372 66.6679 249.778 65.6741 249.418C63.5413 248.645 61.9341 249.629 61.0479 252.075C60.182 254.464 60.6963 256.217 62.8626 257.002C63.7894 257.338 64.5911 257.426 65.3357 257.254L65.253 256.82ZM69.996 251.06C68.6002 250.554 67.7819 251.976 66.9564 254.254C66.0622 256.721 66.1318 258.237 67.1479 258.605C68.8675 259.229 69.7068 257.436 70.416 255.583C71.2779 253.205 71.5065 251.633 69.996 251.06ZM67.3219 258.125C66.6185 257.87 66.6535 256.519 67.4143 254.42C68.2843 252.019 68.9511 251.225 69.8555 251.552C70.827 251.904 70.8149 252.949 69.9288 255.394C69.1578 257.452 68.4832 258.546 67.3219 258.125ZM75.5469 260.55C74.8399 260.723 73.9721 260.573 73.3468 260.347C71.9175 259.829 70.8244 258.662 71.7956 255.982C72.6494 253.626 74.0205 252.91 75.8294 253.566C76.7897 253.914 77.3191 254.51 77.5365 254.816L77.864 254.505C77.555 254.103 76.9618 253.509 75.968 253.148C73.8352 252.376 72.228 253.36 71.3418 255.805C70.4759 258.195 70.9902 259.947 73.1565 260.732C74.0833 261.068 74.885 261.157 75.6296 260.984L75.5469 260.55ZM81.7326 255.515L81.5059 255.13L78.5532 257.003L79.3957 254.504L78.9561 254.358L76.4377 261.795L76.8661 261.938L78.0464 258.437L79.209 262.863L79.6523 262.72L78.3327 257.681L81.7326 255.515ZM81.9577 255.938L84.4254 256.832L81.6405 263.681L82.076 263.838L84.8609 256.99L87.3063 257.876L87.4682 257.43L82.1195 255.491L81.9577 255.938ZM87.5472 265.745L88.6779 257.78L88.2607 257.641L84.2938 264.579L84.6979 264.789L86.5543 261.583L87.5979 262.05L87.1057 265.674L87.5472 265.745ZM86.771 261.194L88.0551 258.906L87.6624 261.593L86.771 261.194ZM92.203 259.638L93.5014 260.134L93.6703 259.702L90.5864 258.522L90.4174 258.953C90.8752 259.119 91.3249 259.307 91.7827 259.473L89.4014 266.114L88.0777 265.584L87.9087 266.015L90.9318 267.224L91.112 266.797L89.8217 266.279L92.203 259.638ZM92.4467 267.205L95.1189 260.215L94.6986 260.05L91.9303 267.271L92.0727 267.575L95.9045 268.749L96.0471 268.32L92.4467 267.205ZM102.831 263.894C102.4 262.992 101.811 262.526 100.962 262.219C99.5797 261.781 98.7695 262.308 98.4377 263.224C98.0087 264.408 98.8499 265.293 99.6747 266.085C100.434 266.815 101.263 267.697 100.891 268.724C100.572 269.606 99.7793 269.875 98.5734 269.438C97.7917 269.155 97.2016 268.587 96.7799 268.043L96.3926 268.344C96.8306 268.983 97.4999 269.542 98.4156 269.873C100.336 270.569 101.059 269.656 101.35 268.852C101.84 267.501 100.935 266.617 100.062 265.783C99.2849 265.034 98.5485 264.313 98.9005 263.341C99.1635 262.615 99.8288 262.313 100.968 262.726C101.649 262.973 102.092 263.424 102.384 264.048L102.831 263.894Z" fill="white"/>
<g clip-path="url(#clip7_1056_2251)">
<path d="M185.185 253.555C195.381 259.037 205.978 251.651 212.211 247.102L216.709 254.733C197.474 263.659 196.318 272.379 198.852 275.971L171.669 305.167L148.751 271.041L185.185 253.555Z" fill="#511AC0"/>
<path d="M178.348 299.519L157.674 265.129L172.541 258.254L192.927 284.629L178.348 299.519Z" fill="#B69CFF"/>
<path d="M251.443 253.814C242.881 241.179 227.594 245.966 221.021 249.939C237.082 246.227 245.05 247.848 247.085 257.341C249.12 266.834 232.16 264.529 211.207 277.022C194.444 287.016 202.106 304.024 208.033 311.278L220.017 303.705C204.077 281.588 262.146 269.608 251.443 253.814Z" fill="#FFBE3F"/>
<path d="M223.513 297.307C221.578 290.795 228.396 285.286 232.047 283.345C226.394 287.613 227.009 292.889 227.596 295.628C228.182 298.367 224.278 300.426 223.513 297.307Z" fill="#FFBE3F"/>
<path d="M204.274 295.147C201.34 303.242 207.158 310.719 207.692 311.86C206.758 316.47 206.01 323.125 210.483 312.872C216.076 300.055 207.208 287.051 204.274 295.147Z" fill="#713FFF"/>
<path d="M204.352 319.721L207.799 329.133L208.291 331.56L216.657 329.863L225.023 328.165L224.53 325.737L224.036 315.727L224.724 314.071L224.032 300.561L211.238 303.158L198.443 305.754L203.072 318.464L204.352 319.721Z" fill="#511AC0"/>
</g>
</g>
</g>
<defs>
<clipPath id="clip0_1056_2251">
<rect width="360" height="334" fill="white"/>
</clipPath>
<clipPath id="clip1_1056_2251">
<rect width="207.471" height="92.7856" fill="white" transform="translate(89.6445 21.1953) rotate(-5.86361)"/>
</clipPath>
<clipPath id="clip2_1056_2251">
<rect width="99.125" height="92.7856" fill="white" transform="translate(197.424 10.1257) rotate(-5.86361)"/>
</clipPath>
<clipPath id="clip3_1056_2251">
<rect width="201.762" height="90.2327" fill="white" transform="translate(13.4224 77.5642) rotate(11.1328)"/>
</clipPath>
<clipPath id="clip4_1056_2251">
<rect width="216.085" height="96.6381" fill="white" transform="translate(250.086 89.8933) rotate(47.6784)"/>
</clipPath>
<clipPath id="clip5_1056_2251">
<rect width="109.843" height="96.6381" fill="white" transform="translate(321.618 168.448) rotate(47.6784)"/>
</clipPath>
<clipPath id="clip6_1056_2251">
<rect width="213.784" height="95.6087" fill="white" transform="translate(66.4111 168.371) rotate(19.9199)"/>
</clipPath>
<clipPath id="clip7_1056_2251">
<rect width="102.735" height="95.6087" fill="white" transform="translate(170.816 206.205) rotate(19.9199)"/>
</clipPath>
</defs>
</svg>
