<svg width="360" height="334" viewBox="0 0 360 334" fill="none" xmlns="http://www.w3.org/2000/svg">
<g clip-path="url(#clip0_1037_1899)">
<g clip-path="url(#clip1_1037_1899)">
<rect width="207.471" height="92.7856" transform="translate(89.6445 21.1953) rotate(-5.86361)" fill="#FF4A3F"/>
<path d="M112.041 39.5772C113.031 39.0585 113.254 37.622 113.143 36.5442C112.96 34.7555 111.511 33.2822 109.607 33.4776C107.566 33.6872 106.584 35.1785 106.81 37.38C106.926 38.5036 107.428 39.5643 108.4 39.9975C106.368 40.971 105.527 43.1661 105.739 45.2299C106.003 47.7983 107.89 50.1536 111.238 49.8097C114.495 49.4753 115.89 47.2695 115.591 44.3572C115.384 42.3392 114.307 40.202 112.041 39.5772ZM109.87 38.966C108.815 39.0743 108.234 38.1607 108.131 37.1517C108.02 36.0739 108.457 34.9166 109.443 34.8154C110.613 34.6952 111.29 35.6454 111.396 36.6773C111.504 37.7322 111.016 38.8482 109.87 38.966ZM110.183 41.1122C112.637 40.8602 113.05 44.6645 113.055 44.7103C113.286 46.9576 112.234 47.9927 111.018 48.1175C109 48.3247 107.886 46.7243 107.709 45.0045C107.525 43.2158 108.348 41.3006 110.183 41.1122ZM127.749 37.6165L122.888 32.2528L122.121 32.6792L122.742 48.2111L124.552 48.2338L123.736 36.2211L127.844 40.5729L131.654 35.4774L133.27 47.1531L135.254 46.8336L133.287 31.9727L132.015 31.3155L127.749 37.6165ZM146.212 45.8008L147.739 45.3196L141.551 30.1971L139.441 30.4138L136.22 46.4331L138.531 46.8214L139.408 41.1465L143.908 40.2904L146.212 45.8008ZM140.831 32.8896L143.477 39.2456L139.602 39.8753L140.831 32.8896ZM150.831 38.8147L156.781 38.0878L158.646 36.1583L158.155 31.1568L155.73 28.9727L147.864 29.7805L149.475 45.4658L151.424 45.2656L150.831 38.8147ZM150.69 37.4388L150.118 31.1943L154.641 31.0079L156.442 32.0743L156.357 35.5359L155.409 36.9078L150.69 37.4388ZM167.219 27.5842L158.169 29.0466L158.393 30.3213L161.901 29.961L163.042 44.0029L164.986 43.5252L164.263 29.7185L167.318 29.4511L167.219 27.5842ZM177.519 42.5857L179.046 42.1045L172.858 26.9819L170.748 27.1986L167.527 43.2179L169.838 43.6063L170.715 37.9314L175.215 37.0752L177.519 42.5857ZM172.138 29.6745L174.784 36.0304L170.909 36.6601L172.138 29.6745Z" fill="#242320"/>
<path d="M111.392 101.169C111.321 100.365 111.823 99.3864 112.344 98.3711C112.915 97.2697 113.494 96.1442 113.4 95.1111C113.341 94.422 112.886 93.7156 111.992 93.8074C111.487 93.8592 111.073 94.1104 110.767 94.6284L111.124 94.8351C111.351 94.4526 111.68 94.2682 111.989 94.2364C112.654 94.1681 112.899 94.6296 112.952 95.1456C113.042 96.0285 112.522 97.0552 111.994 98.1175C111.415 99.2544 110.818 100.428 111.004 101.452L111.221 101.65L113.904 101.374L113.857 100.916L111.392 101.169ZM117.672 100.941L118.131 100.894C117.948 99.4525 117.741 98.0023 117.559 96.5611L117.673 96.5493L120.885 100.75L121.259 100.433L118.13 96.2591L119.996 93.2171L119.635 92.9761L117.677 96.1319C117.631 96.1366 117.575 96.1539 117.517 96.1598L117.167 93.3107L116.721 93.3681L117.672 100.941ZM122.09 92.7819C120.657 92.9291 120.542 94.5167 120.782 96.8558C121.042 99.3897 121.743 100.685 122.786 100.578C124.552 100.396 124.529 98.4755 124.366 96.5572C124.116 94.1149 123.652 92.6447 122.09 92.7819ZM122.736 100.085C122.013 100.159 121.473 98.9631 121.252 96.8075C120.999 94.3423 121.246 93.3668 122.175 93.2714C123.173 93.169 123.603 94.0865 123.861 96.5975C124.056 98.721 123.928 99.9623 122.736 100.085ZM125.801 100.106L126.26 100.059C126.077 98.6177 125.87 97.1674 125.688 95.7263L125.802 95.7145L129.015 99.915L129.388 99.5986L126.259 95.4243L128.125 92.3823L127.764 92.1412L125.806 95.297C125.76 95.3017 125.704 95.3191 125.646 95.325L125.296 92.4758L124.85 92.5332L125.801 100.106ZM131.16 92.3603L131.617 99.4045L132.066 99.3815L131.619 92.3132L134.253 92.0194L134.207 91.5722L128.486 92.1598L128.533 92.6185L131.16 92.3603ZM134.939 91.7173L135.672 98.8605L135.936 99.0651L139.537 98.6954L139.488 98.2253L136.118 98.5715L135.711 94.6158L138.202 94.163L138.112 93.732L135.667 94.1801L135.43 91.8754L138.87 91.5222L138.826 91.0979L135.146 91.4759L134.939 91.7173ZM143.416 98.2969L142.316 90.7395L142.087 90.7631C141.712 92.7597 141.29 94.8539 140.926 96.8379L139.977 90.9797L139.518 91.0268L140.814 98.5642L141.066 98.5383L142.167 92.2263L143.015 98.3382L143.416 98.2969ZM140.995 90.516C141.362 90.4783 141.764 90.3327 142.058 90.036L141.77 89.6021C141.507 89.8609 141.234 90.0164 140.947 90.0459C140.66 90.0753 140.372 89.9774 140.062 89.7776L139.857 90.2621C140.216 90.4917 140.64 90.5525 140.995 90.516ZM146.635 97.9779L147.054 97.877L144.932 90.413L144.519 90.4553L144.236 98.1896L144.675 98.1793L144.889 91.8077L146.635 97.9779ZM149.455 89.9831C148.472 90.2232 148.096 91.3045 148.172 92.3744C148.247 93.2241 148.648 94.191 149.417 94.4596L147.594 97.6941L148.001 97.9304L149.706 94.7891L149.962 97.6247L150.386 97.5811L149.743 90.1854L149.455 89.9831ZM148.62 92.3399C148.548 91.5247 148.788 90.8164 149.334 90.4938L149.63 94.0553C149.004 93.9343 148.676 93.1105 148.62 92.3399Z" fill="#242320"/>
<g clip-path="url(#clip2_1037_1899)">
<path d="M240.534 72.5309C237.594 72.7228 233.196 77.056 230.26 81.4187C230.547 77.386 231.017 65.3744 226.356 65.9689C220.774 66.6754 214.026 71.8699 214.23 74.9889C214.41 77.7571 218.262 81.8166 222.351 84.7337C217.689 84.4651 207.247 84.3382 207.792 88.6795C208.498 94.2613 213.693 101.01 216.812 100.811C219.753 100.619 224.151 96.2804 227.087 91.9236C226.8 95.9563 226.33 107.962 230.991 107.373C236.573 106.667 243.321 101.472 243.122 98.347C242.943 95.5846 239.084 91.5199 234.995 88.6028C239.658 88.8771 250.099 88.9983 249.555 84.657C248.831 79.0827 243.632 72.3402 240.534 72.5309Z" fill="#FFC2BE"/>
<path d="M248.804 66.7514C248.804 66.7514 237.295 61.2999 233.951 55.1431C230.608 48.9863 232.015 36.2932 241.761 35.2923C251.507 34.2915 255.288 44.8122 255.288 44.8122C255.288 44.8122 254.924 30.6673 265.392 26.319C275.86 21.9707 285.586 31.8809 280.123 47.7364C274.66 63.592 264.639 72.2394 264.639 72.2394L248.804 66.7514Z" fill="#0071BC"/>
<path d="M271.915 82.8257C271.915 82.8257 269.135 75.7768 270.197 71.7397C271.26 67.7027 277.028 62.7768 281.653 66.2935C286.279 69.8101 283.658 75.9364 283.658 75.9364C283.658 75.9364 289.251 69.6497 295.566 72.0138C301.88 74.3779 302.08 82.6476 293.267 87.3127C284.453 91.9777 276.582 91.6564 276.582 91.6564L271.915 82.8257Z" fill="#FFC81A"/>
<path d="M233.757 65.4884C233.757 65.4884 222.818 49.2316 216.511 49.8793C210.205 50.5269 214.299 59.6481 214.299 59.6481C214.299 59.6481 223.245 59.0365 233.757 65.4884Z" fill="#FFC81A"/>
<path d="M281.924 56.7063C281.924 56.7063 288.122 49.981 290.985 50.724C293.848 51.467 291.313 55.383 291.313 55.383C291.313 55.383 287.233 54.4695 281.924 56.7063Z" fill="#FFC2BE"/>
<path d="M229.102 90.0545C231.001 89.8594 232.383 88.1612 232.188 86.2614C231.993 84.3617 230.295 82.9798 228.395 83.1749C226.495 83.37 225.113 85.0682 225.309 86.968C225.504 88.8677 227.202 90.2496 229.102 90.0545Z" fill="#E2766F"/>
<path d="M257.041 87.3774C256.462 88.7867 257.498 91.8204 258.846 94.1788C257.035 93.1251 251.548 90.1836 250.77 92.4824C249.831 95.238 250.733 99.5657 252.221 100.178C253.545 100.719 256.317 99.8438 258.6 98.6071C257.415 100.716 254.986 105.554 257.135 106.289C259.89 107.223 264.219 106.326 264.831 104.838C265.443 103.35 264.374 100.395 263.026 98.0367C264.837 99.0848 270.324 102.032 271.102 99.7332C272.041 96.9776 271.139 92.6499 269.651 92.0379C268.327 91.4961 265.56 92.3654 263.272 93.6085C264.457 91.4996 266.886 86.6618 264.737 85.9266C261.981 84.9872 257.642 85.8905 257.041 87.3774Z" fill="#4192B5"/>
<path d="M261.111 97.8446C262.095 97.7434 262.812 96.8632 262.71 95.8785C262.609 94.8938 261.729 94.1776 260.744 94.2787C259.76 94.3798 259.043 95.26 259.145 96.2447C259.246 97.2294 260.126 97.9457 261.111 97.8446Z" fill="#FFC81A"/>
</g>
</g>
<g clip-path="url(#clip3_1037_1899)">
<rect width="201.762" height="90.2327" transform="translate(13.4224 77.5642) rotate(11.1328)" fill="#FFBE3F"/>
<path d="M20.9991 111.392L21.0681 109.532L30.3945 111.368L30.0396 113.171L31.2274 113.405L32.1153 110.518L31.956 110.167L30.0996 109.847L30.9854 96.2899L30.2397 95.4349L28.2381 95.041L22.2033 108.408L20.0874 108.014L19.7715 108.226L19.6794 111.132L20.9991 111.392ZM28.4471 97.2298L27.5217 109.363L23.6814 108.676L28.4471 97.2298ZM37.1224 99.3483L41.6573 99.9893L42.0425 98.0317L36.3015 96.9019L33.0328 111.887L39.0818 113.077L39.4497 111.207L34.7368 109.846L35.8081 105.099L39.2982 106.288L39.6142 104.682L36.0728 103.985L37.1224 99.3483ZM49.5544 115.115L52.5545 99.986L50.1789 99.5186L48.7018 106.676L43.7743 105.592L45.2077 98.5403L43.426 98.1897L40.7119 113.375L42.1197 113.652L43.5492 106.736L48.4983 107.71L47.0469 114.622L49.5544 115.115ZM58.5629 101.168L56.1433 100.692L52.2151 115.662L57.0982 116.622L60.8745 115.081L61.8985 110.69L60.5021 108.382L56.6336 108.534L58.5629 101.168ZM59.2233 110.003L59.9567 111.153L59.2836 113.877L56.2361 115.082L55.0739 114.602L56.2559 110.105L59.2233 110.003ZM19.8789 124.98C22.8733 125.089 24.1283 122.892 24.5136 120.934C24.8858 119.042 24.4885 117.113 21.4531 116.516L20.3313 116.295L19.6342 116.935L16.8203 131.118L18.7949 131.301L19.8789 124.98ZM23.0099 120.912C22.6939 122.518 21.6639 123.572 20.108 123.7L21.1847 117.88C22.7381 118.346 23.2999 119.439 23.0099 120.912ZM26.905 133.103L29.5446 133.622L32.1006 131.315L34.2471 121.684L32.1133 118.363L28.132 117.579L25.7079 119.912L23.5834 129.547L26.905 133.103ZM30.8685 119.58L31.891 121.815L29.698 130.636L28.0175 131.745L25.5429 129.111L27.5819 120.258L28.8138 119.107L30.8685 119.58ZM43.5317 128.264L46.2934 136.987L48.6445 136.65L44.9579 127.402L50.3005 123.358L49.3331 121.888L43.6202 127.002L43.1582 126.911L44.3796 120.936L42.0036 120.355L40.7167 126.43L40.6727 126.422L37.3231 119.525L35.6037 120.832L38.8578 126.704L32.602 133.995L34.5658 134.93L40.2763 127.623L40.4479 127.68L38.8103 135.537L41.2076 135.894L42.7885 128.209L43.5317 128.264ZM50.2908 139.875L50.3544 137.694L59.4168 139.478L59.0186 141.501L60.264 141.906L61.1127 139.103L60.86 138.414L59.0036 138.094L59.8227 124.295L59.2797 123.571L57.388 123.199L51.1074 136.655L49.4753 136.356L49.0501 136.775L48.8614 139.708L50.2908 139.875ZM57.6453 125.375L56.7777 137.679L52.6514 136.936L57.6453 125.375ZM66.2126 127.495L70.7474 128.136L71.1327 126.178L65.3917 125.048L62.123 140.033L68.1719 141.224L68.5399 139.354L63.8269 137.992L64.8982 133.245L68.3884 134.435L68.7043 132.829L65.163 132.132L66.2126 127.495ZM78.6446 143.262L81.6446 128.133L79.269 127.665L77.7919 134.823L72.8644 133.739L74.2979 126.687L72.5162 126.336L69.8021 141.521L71.2098 141.799L72.6393 134.883L77.5885 135.857L76.137 142.768L78.6446 143.262ZM90.9969 145.761L93.4077 130.607L91.5597 130.129L84.3525 139.701L86.7118 129.221L84.2923 128.745L81.3355 143.654L82.7743 144.006L90.6558 133.561L88.6653 145.302L90.9969 145.761ZM99.6189 140.557L98.0563 147.104L99.794 147.446L102.759 132.379L97.414 131.327L95.713 132.889L94.7044 138.014L95.5276 139.752L96.8693 140.016L93.0841 145.783L94.8456 146.701L98.651 140.367L99.6189 140.557ZM99.9002 139.128L97.1507 138.587L96.4966 137.498L97.2065 133.891L98.3598 132.907L101.021 133.431L99.9002 139.128Z" fill="#242320"/>
<path d="M11.0575 157.383C11.22 156.615 11.965 155.848 12.7386 155.052C13.5822 154.19 14.4412 153.308 14.647 152.32C14.7879 151.663 14.5656 150.876 13.7078 150.707C13.2238 150.612 12.767 150.728 12.3351 151.123L12.6086 151.417C12.9287 151.125 13.2867 151.047 13.5837 151.106C14.2216 151.231 14.3176 151.73 14.2203 152.225C14.0536 153.072 13.2779 153.879 12.4847 154.717C11.6236 155.609 10.7339 156.531 10.6161 157.536L10.7619 157.782L13.3355 158.288L13.4221 157.848L11.0575 157.383ZM16.9632 158.956L17.4031 159.043C17.6428 157.651 17.8627 156.243 18.1024 154.851L18.2124 154.873L20.0057 159.692L20.4426 159.504L18.7198 154.733L21.3198 152.434L21.0528 152.107L18.3343 154.485C18.2903 154.477 18.2332 154.477 18.1782 154.466L18.6621 151.717L18.231 151.643L16.9632 158.956ZM23.391 152.624C22.0163 152.354 21.458 153.798 21.0165 156.041C20.5382 158.472 20.8217 159.876 21.8225 160.073C23.5162 160.406 24.0405 158.613 24.4349 156.783C24.8959 154.44 24.8825 152.941 23.391 152.624ZM21.9156 159.6C21.2227 159.463 21.0605 158.198 21.4674 156.13C21.9327 153.765 22.4401 152.929 23.331 153.104C24.2878 153.292 24.4271 154.268 23.9531 156.676C23.5308 158.707 23.0594 159.825 21.9156 159.6ZM24.7607 160.491L25.2006 160.577C25.4403 159.185 25.6602 157.778 25.8999 156.385L26.0099 156.407L27.8032 161.227L28.2401 161.039L26.5173 156.267L29.1173 153.968L28.8503 153.642L26.1318 156.02C26.0878 156.011 26.0306 156.011 25.9757 156L26.4596 153.251L26.0285 153.178L24.7607 160.491ZM31.946 154.811L30.3685 161.492L30.7931 161.598L32.3859 154.897L34.9198 155.373L35.0042 154.944L29.5162 153.864L29.4296 154.304L31.946 154.811ZM35.6429 155.287L34.2946 162.139L34.4822 162.404L37.9356 163.084L38.0244 162.633L34.7909 161.996L35.5376 158.202L37.983 158.489L38.0212 158.062L35.6199 157.784L36.0549 155.573L39.3543 156.223L39.4344 155.816L35.904 155.121L35.6429 155.287ZM41.657 163.816L42.7818 156.475L42.5619 156.431C41.6462 158.182 40.6582 160.009 39.7557 161.751L40.5382 156.033L40.0983 155.946L39.1605 163.325L39.4024 163.372L42.221 157.815L41.2721 163.74L41.657 163.816ZM41.6171 155.891C41.9691 155.96 42.3845 155.939 42.7422 155.747L42.5978 155.262C42.2796 155.428 41.9808 155.494 41.7059 155.44C41.4309 155.386 41.1908 155.213 40.9591 154.939L40.6306 155.332C40.8998 155.647 41.2762 155.824 41.6171 155.891ZM44.7415 164.434L45.1592 164.459L45.3074 156.914L44.9114 156.837L42.4494 163.949L42.8608 164.064L44.8717 158.2L44.7415 164.434ZM49.6368 157.801C48.654 157.744 47.9973 158.643 47.763 159.66C47.5918 160.471 47.6895 161.484 48.3285 161.953L45.7136 164.443L46.0246 164.778L48.5033 162.341L47.9357 165.051L48.3427 165.132L49.8465 158.07L49.6368 157.801ZM48.1898 159.755C48.3544 158.976 48.7791 158.386 49.3787 158.241L48.6418 161.638C48.0936 161.347 48.0228 160.488 48.1898 159.755Z" fill="#242320"/>
<path d="M148.597 135.296L146.448 162.297L149.494 162.896L154.69 136.495L148.597 135.296Z" fill="#FFF5E1"/>
<path d="M163.801 127.777L157.413 154.1L160.327 155.173L169.628 129.923L163.801 127.777Z" fill="#FFF5E1"/>
<path d="M171.796 145.662L161.699 170.796L164.428 172.276L177.255 148.622L171.796 145.662Z" fill="#FFF5E1"/>
<path d="M176.665 154.532L169.243 169.737L139.629 162.643L142.986 145.584L176.665 154.532Z" fill="#C9680F"/>
<path d="M127.727 159.876L130.17 175.334L177.896 184.726L181.533 166.245L127.727 159.876Z" fill="#A2422C"/>
<path d="M187.162 185.879L176.236 203.809L111.87 191.142L116.746 166.365L187.162 185.879Z" fill="#E7643B"/>
<path d="M153.602 133.445C153.416 134.392 152.537 135.017 151.64 134.84C150.742 134.664 150.166 133.753 150.352 132.806C150.539 131.859 152.261 126.946 153.158 127.123C154.056 127.3 153.788 132.498 153.602 133.445Z" fill="#F2521F"/>
<path d="M169.035 126.74C168.702 127.646 167.736 128.124 166.877 127.808C166.019 127.492 165.594 126.501 165.928 125.595C166.262 124.689 168.738 120.111 169.596 120.427C170.454 120.743 169.369 125.834 169.035 126.74Z" fill="#F2521F"/>
<path d="M177.125 145.389C176.664 146.237 175.64 146.572 174.836 146.136C174.032 145.7 173.753 144.659 174.213 143.81C174.673 142.961 177.781 138.786 178.585 139.221C179.389 139.657 177.585 144.54 177.125 145.389Z" fill="#F2521F"/>
</g>
<g clip-path="url(#clip4_1037_1899)">
<rect width="216.085" height="96.6381" transform="translate(250.086 89.8933) rotate(47.6784)" fill="#4CB469"/>
<path d="M235.185 123.694L236.431 122.138L243.285 129.665L241.829 130.99L242.702 131.949L245.307 130.031L245.394 129.627L244.001 128.168L253.409 117.068L253.313 115.857L251.842 114.242L238.125 121.894L236.555 120.206L236.148 120.187L234.215 122.629L235.185 123.694ZM250.626 116.258L242.092 126.108L239.226 123.067L250.626 116.258ZM256.739 123.614L260.232 127.057L261.812 125.619L257.593 120.985L245.224 131.794L249.669 136.676L251.178 135.302L247.992 131.125L251.941 127.723L254.185 130.972L255.481 129.792L252.878 126.934L256.739 123.614ZM257.381 145.108L269.61 134.004L267.864 132.087L262.029 137.303L258.48 133.228L264.211 128.075L262.901 126.637L250.882 137.972L251.917 139.108L257.557 134.069L261.194 138.063L255.538 143.084L257.381 145.108ZM274.026 138.853L272.248 136.9L259.321 147.275L262.91 151.216L267.142 152.298L270.824 149.173L271.094 146.296L267.668 143.96L274.026 138.853ZM268.96 146.876L268.857 148.333L266.541 150.247L263.151 149.341L262.457 148.186L266.342 145.071L268.96 146.876ZM271.896 161.084L275.097 164.599L278.305 163.593L277.751 161.63L275.612 162.312L273.856 160.241L274.288 157.542L281.429 151.69L283.425 151.528L284.655 153.557L283.701 155.79L285.506 156.452L286.973 153.071L283.788 149.573L279.939 149.733L271.936 156.599L271.896 161.084ZM289.788 156.269L277.271 166.986L281.441 171.566L283.667 171.942L288.698 167.588L288.292 165.003L292.819 163.413L293.663 160.632L289.788 156.269ZM286.786 167.023L283.404 169.941L281.687 169.589L280.295 167.739L284.909 163.57L286.662 164.961L286.786 167.023ZM287.003 163.481L285.903 162.665L290.108 158.868L291.581 160.449L291.203 161.995L287.003 163.481ZM292.954 173.511L287.434 178.147L288.711 179.55L300.872 168.476L296.943 164.163L294.484 164.422L290.348 168.188L289.947 170.209L290.933 171.292L283.999 173.84L284.929 175.753L292.243 172.73L292.954 173.511ZM294.108 172.46L292.087 170.241L292.218 168.887L295.13 166.236L296.75 166.125L298.706 168.273L294.108 172.46ZM308.504 176.573L301.678 169.897L300.749 170.874L303.222 173.59L292.166 183.236L293.769 184.569L304.887 175.418L307.002 177.812L308.504 176.573ZM299.221 191.091L301.161 193.222L304.832 192.866L312.821 185.949L313.103 181.73L310.177 178.517L306.603 178.979L298.631 185.914L299.221 191.091ZM311.256 181.984L310.71 184.558L303.197 190.75L301.044 190.633L300.595 186.788L307.995 180.471L309.789 180.266L311.256 181.984ZM316.683 188.408L319.701 191.829L321.128 190.757L316.408 185.573L304.194 196.695L305.973 198.648L316.683 188.408ZM311.945 205.064L313.885 207.194L317.556 206.839L325.545 199.922L325.827 195.703L322.901 192.49L319.327 192.951L311.355 199.887L311.945 205.064ZM323.979 195.956L323.434 198.531L315.921 204.723L313.768 204.606L313.319 200.76L320.719 194.444L322.513 194.239L323.979 195.956ZM231.42 129.494L235.17 133.612L223.72 144.039L225.777 145.835L237.867 134.826L231.368 127.69L230.544 127.498L218.686 138.297L220.076 139.823L231.42 129.494ZM233.862 154.962L235.209 155.943L244.048 141.4L242.56 139.767L227.148 146.983L228.253 149.159L233.549 146.382L237.052 149.622L233.862 154.962ZM241.347 142.463L237.66 148.613L234.734 145.757L241.347 142.463ZM252.493 150.71L245.667 144.034L244.737 145.01L247.211 147.726L236.154 157.373L237.757 158.705L248.876 149.555L250.99 151.948L252.493 150.71ZM247.624 160.055L251.916 164.59L254.686 164.957L258.572 161.451L258.9 158.067L253.356 151.978L241.213 163.035L242.587 164.544L247.624 160.055ZM248.689 159.085L253.566 154.741L256.522 158.415L256.743 160.583L253.791 162.655L252.055 162.71L248.689 159.085ZM256.421 179.807L268.159 168.306L266.874 166.716L254.569 170.356L263.282 162.843L261.504 160.89L249.452 171.833L250.465 173.053L263.907 169.093L254.707 177.925L256.421 179.807ZM267.406 178.07L263.686 187.821L265.924 189.031L268.813 178.152L275.825 178.65L275.931 176.769L268.287 177.04L267.947 176.667L272.276 172.791L270.748 170.935L258.318 181.961L260.007 183.638L266.801 177.548L267.406 178.07ZM272.902 197.834L274.249 198.815L283.088 184.272L281.6 182.639L266.188 189.855L267.293 192.031L272.589 189.253L276.092 192.494L272.902 197.834ZM280.387 185.335L276.7 191.485L273.774 188.629L280.387 185.335Z" fill="white"/>
<path d="M196.83 157.356C197.459 156.799 198.589 156.614 199.762 156.422C201.038 156.218 202.34 156.007 203.147 155.289C203.687 154.813 203.998 153.994 203.367 153.302C203.011 152.912 202.545 152.72 201.921 152.784L201.969 153.211C202.43 153.165 202.788 153.326 203.006 153.566C203.475 154.081 203.24 154.571 202.84 154.935C202.157 155.557 200.975 155.757 199.758 155.972C198.448 156.191 197.094 156.416 196.352 157.206L196.321 157.51L198.212 159.587L198.567 159.264L196.83 157.356ZM200.907 162.476L201.231 162.831C202.325 161.786 203.412 160.715 204.506 159.67L204.587 159.759L203.056 165.049L203.552 165.166L205.113 159.962L208.816 159.642L208.794 159.191L204.939 159.503C204.906 159.468 204.857 159.431 204.817 159.387L206.986 157.33L206.662 156.992L200.907 162.476ZM210.476 161.127C209.466 160.017 208.065 160.904 206.254 162.552C204.292 164.339 203.641 165.727 204.377 166.535C205.621 167.902 207.216 166.693 208.723 165.37C210.613 163.649 211.558 162.35 210.476 161.127ZM204.758 166.188C204.249 165.628 204.917 164.436 206.585 162.916C208.494 161.179 209.464 160.782 210.119 161.501C210.822 162.273 210.32 163.202 208.376 164.972C206.718 166.449 205.599 167.111 204.758 166.188ZM206.638 168.769L206.961 169.124C208.055 168.079 209.142 167.008 210.236 165.963L210.317 166.052L208.787 171.342L209.282 171.459L210.843 166.255L214.546 165.935L214.525 165.484L210.669 165.796C210.637 165.761 210.587 165.724 210.547 165.68L212.717 163.623L212.393 163.285L206.638 168.769ZM216.443 168.464L210.825 173.206L211.122 173.568L216.766 168.819L218.643 170.844L218.989 170.529L214.956 166.1L214.601 166.423L216.443 168.464ZM219.32 171.231L213.79 176.267L213.782 176.615L216.32 179.402L216.684 179.07L214.308 176.461L217.37 173.672L219.291 175.479L219.596 175.136L217.708 173.365L219.492 171.74L221.916 174.403L222.245 174.104L219.65 171.255L219.32 171.231ZM219.055 182.405L224.705 176.806L224.543 176.628C222.639 177.55 220.624 178.493 218.736 179.416L223.056 174.995L222.733 174.64L217.221 180.39L217.398 180.585L223.368 177.601L218.772 182.094L219.055 182.405ZM224.075 175.561C224.334 175.845 224.704 176.092 225.135 176.155L225.32 175.645C224.941 175.585 224.641 175.452 224.439 175.23C224.237 175.008 224.14 174.706 224.116 174.322L223.583 174.45C223.613 174.894 223.824 175.286 224.075 175.561ZM221.315 184.904L221.658 185.192L226.597 178.795L226.306 178.475L219.652 183.025L219.933 183.386L225.403 179.623L221.315 184.904ZM229.757 182.318C228.948 181.643 227.809 181.998 226.96 182.723C226.295 183.312 225.733 184.246 225.984 185.057L222.146 185.531L222.2 186.018L225.886 185.502L223.67 187.472L223.969 187.801L229.766 182.684L229.757 182.318ZM227.266 183.077C227.904 182.512 228.646 182.275 229.254 182.533L226.454 184.985C226.168 184.385 226.655 183.601 227.266 183.077Z" fill="#242320"/>
<g clip-path="url(#clip5_1037_1899)">
<path d="M325.552 291.744C325.552 291.744 327.418 301.234 318.837 314.703L283.369 273.095L325.552 291.744Z" fill="#FF8B00"/>
<path d="M379.844 246.604C379.844 246.604 376.335 244.98 376.082 244.99C375.829 245 372.401 247.623 371.327 248.437C371.793 247.049 373.072 242.857 373.072 242.857C373.072 242.857 370.527 240.043 368.47 239.722C366.413 239.401 363.475 240.642 363.475 240.642C363.475 240.642 361.857 244.149 361.863 244.4C361.869 244.651 364.436 247.993 365.283 249.107C363.808 248.614 359.797 247.391 359.797 247.391C359.797 247.391 356.987 249.934 356.663 251.987C356.339 254.041 357.587 256.979 357.587 256.979C357.587 256.979 361.099 258.598 361.35 258.593C361.601 258.587 365.029 255.964 366.102 255.15C365.637 256.538 364.36 260.726 364.36 260.726C364.36 260.726 366.904 263.54 368.96 263.865C371.015 264.191 373.955 262.946 373.955 262.946C373.955 262.946 375.572 259.438 375.546 259.173C375.519 258.908 372.973 255.58 372.126 254.466C373.603 254.954 377.608 256.18 377.608 256.18C377.608 256.18 380.434 253.612 380.746 251.586C381.058 249.56 379.844 246.604 379.844 246.604Z" fill="#FFBE3F"/>
<path d="M366.949 254.385C366.949 254.385 368.644 266.82 358.268 264.87L358.668 267.202C358.668 267.202 368.036 266.321 368.016 256.182L368.832 254.987L367.464 254.66L366.949 254.385Z" fill="#FFBE3F"/>
<path d="M266.763 224.072C266.763 224.072 269.358 224.926 269.481 225.065C269.605 225.205 270.125 228.208 270.29 229.148C270.712 228.201 272.063 225.412 272.063 225.412C272.063 225.412 274.727 225.162 275.958 226.007C277.188 226.851 278.102 228.894 278.102 228.894C278.102 228.894 277.256 231.492 277.117 231.616C276.978 231.739 274.059 232.239 273.082 232.41C274.081 232.86 276.749 234.166 276.749 234.166C276.749 234.166 277.002 236.834 276.164 238.069C275.326 239.303 273.289 240.211 273.289 240.211C273.289 240.211 270.69 239.358 270.57 239.218C270.45 239.077 269.928 236.078 269.762 235.135C269.34 236.082 267.989 238.871 267.989 238.871C267.989 238.871 265.316 239.102 264.094 238.276C262.872 237.45 261.95 235.389 261.95 235.389C261.95 235.389 262.792 232.792 262.935 232.667C263.077 232.542 265.993 232.043 266.966 231.874C265.971 231.422 263.303 230.116 263.303 230.116C263.303 230.116 263.068 227.441 263.888 226.214C264.707 224.987 266.763 224.072 266.763 224.072Z" fill="#FFBE3F"/>
<path d="M269.928 234.231C269.928 234.231 262.481 239.985 268.945 243.573L267.513 244.588C267.513 244.588 263.063 239.964 268.429 234.667L268.616 233.708L269.512 234.158L269.928 234.231Z" fill="#FFBE3F"/>
<path d="M297.946 285.329C320.662 300.584 341.036 310.028 343.454 306.422C345.872 302.817 329.417 287.528 306.702 272.273C283.987 257.017 263.612 247.574 261.195 251.179C258.777 254.784 275.231 270.074 297.946 285.329Z" fill="#43A038"/>
<path d="M327.336 230.332C309.229 218.172 302.024 216.904 301.237 222.173C299.747 232.146 279.621 262.775 279.621 262.775C279.621 262.775 284.186 269.022 301.191 280.443C318.196 291.864 325.722 293.719 325.722 293.719C325.722 293.719 343.934 261.633 353.522 258.516C356.758 257.463 345.442 242.492 327.336 230.332Z" fill="#82DD22"/>
<path d="M308.184 270.023L283.496 253.367L288.647 243.379L315.54 259.054L308.184 270.023Z" fill="#43A038"/>
<path d="M308.186 270.021L333.967 287.341L338.88 276.705L315.541 259.052L308.186 270.021Z" fill="#43A038"/>
<path d="M296.287 265.212L306.515 249.957L328.238 262.657L317.135 279.215L296.287 265.212Z" fill="#FFBE3F"/>
<path d="M316.019 274.829L300.766 264.584L307.796 254.097L323.691 263.392L316.019 274.829Z" fill="#1C3F19"/>
</g>
</g>
<g clip-path="url(#clip6_1037_1899)">
<rect width="213.784" height="95.6087" transform="translate(66.4109 168.371) rotate(19.9199)" fill="#713FFF"/>
<path d="M75.2678 187.92L69.247 203.07L75.0088 205.158L77.1308 204.462L79.5289 198.332L77.9823 196.256L81.2133 192.778L80.6704 189.953L75.2678 187.92ZM77.5953 198.718L75.9784 202.831L74.3127 203.314L72.2416 202.336L74.3601 196.56L76.5361 196.97L77.5953 198.718ZM76.1529 195.517L74.8133 195.309L76.7456 190.047L78.7636 190.753L79.1448 192.281L76.1529 195.517ZM84.2946 191.368L79.9064 205.569L80.921 207.301L84.6729 208.66L86.4386 206.925L87.9242 201.501L86.9922 199.192L84.6897 198.156L86.6068 192.029L84.2946 191.368ZM95.4505 195.234L92.9046 194.311L87.5314 209.696L89.3404 210.352L95.4505 195.234ZM86.0153 200.354L86.2295 201.367L84.9158 206.247L84.0583 207.149L82.174 206.213L84.263 199.542L86.0153 200.354ZM99.6748 197.952L104.856 199.83L99.636 214.234L102.265 214.858L107.776 199.65L98.7984 196.397L97.9889 196.608L92.5828 211.527L94.5034 212.223L99.6748 197.952ZM105.603 215.462L107.116 216.793L116.926 203.041L115.005 202.345L110.663 208.402L111.093 200.801L109.418 200.75L109.072 210.63L105.603 215.462ZM115.233 219.735L119.655 221.337L122 218.978L120.611 217.515L119.052 219.097L116.56 218.094L115.695 215.531L119.25 207.118L120.923 206.056L122.935 207.266L123.129 209.66L125.014 209.408L124.74 205.772L120.34 204.178L117.044 206.091L113.201 215.79L115.233 219.735ZM128.788 214.92L130.025 225.171L132.542 225.199L130.058 214.344L136.427 211.549L135.652 209.853L129.085 213.613L128.616 213.443L130.619 208.054L128.427 207.133L122.625 222.515L124.877 223.204L128.019 214.742L128.788 214.92ZM142.598 229.626L148.188 214.269L145.776 213.395L143.071 220.652L138.087 218.719L140.729 211.566L138.92 210.911L133.62 226.373L135.049 226.891L137.666 219.88L142.691 221.701L140.052 228.704L142.598 229.626ZM148.534 231.803L151.214 232.774L154.264 230.771L158.07 221.034L156.373 217.21L152.331 215.746L149.415 217.797L145.631 227.542L148.534 231.803ZM154.873 218.284L155.582 220.789L151.857 229.672L149.918 230.561L147.754 227.402L151.322 218.462L152.798 217.456L154.873 218.284ZM168.378 217.342C167.544 217.621 166.883 217.633 166.325 217.431C165.521 217.14 164.915 216.44 164.263 215.522L162.734 216.534C163.321 217.631 164.197 218.353 165.157 218.701C166.296 219.114 167.546 219.011 168.574 218.474L168.378 217.342ZM162.715 236.942L167.749 221.308L166.298 220.782L159.462 230.861L163.527 219.853L161.086 218.918L156.619 234.732L158.093 235.267L165.081 224.838L161.554 236.521L162.715 236.942Z" fill="white"/>
<path d="M50.8364 252.063C51.1309 251.285 52.0352 250.602 52.9741 249.894C53.9971 249.128 55.0393 248.343 55.4147 247.342C55.6686 246.677 55.5632 245.817 54.6922 245.502C54.2009 245.324 53.7037 245.371 53.1876 245.714L53.4265 246.066C53.8087 245.813 54.1963 245.789 54.4978 245.899C55.1454 246.133 55.1653 246.671 54.9832 247.173C54.6716 248.033 53.7288 248.753 52.7626 249.502C51.7163 250.297 50.6355 251.118 50.3495 252.152L50.4624 252.433L53.0753 253.38L53.2372 252.933L50.8364 252.063ZM56.7659 254.666L57.2125 254.828C57.6889 253.409 58.147 251.971 58.6234 250.552L58.735 250.592L59.8327 255.929L60.3207 255.803L59.289 250.528L62.3837 248.542L62.157 248.156L58.9254 250.206C58.8807 250.19 58.8208 250.181 58.765 250.161L59.7167 247.36L59.2772 247.214L56.7659 254.666ZM64.5217 249.076C63.1259 248.57 62.3076 249.992 61.4821 252.27C60.5878 254.738 60.6575 256.254 61.6736 256.622C63.3932 257.245 64.2324 255.452 64.9417 253.599C65.8036 251.221 66.0322 249.649 64.5217 249.076ZM61.8476 256.142C61.1441 255.887 61.1792 254.535 61.9399 252.436C62.8099 250.035 63.4767 249.241 64.3812 249.569C65.3527 249.921 65.3406 250.965 64.4544 253.41C63.6835 255.468 63.0089 256.562 61.8476 256.142ZM64.6826 257.535L65.1293 257.697C65.6056 256.278 66.0637 254.84 66.5401 253.421L66.6517 253.461L67.7494 258.798L68.2374 258.672L67.2057 253.397L70.3004 251.41L70.0737 251.025L66.8421 253.075C66.7974 253.059 66.7375 253.05 66.6817 253.03L67.6334 250.229L67.1939 250.083L64.6826 257.535ZM73.1261 252.75L70.3928 259.491L70.8202 259.671L73.5727 252.912L76.1491 253.82L76.3069 253.385L70.7349 251.366L70.5731 251.812L73.1261 252.75ZM76.9202 253.847L74.3992 260.804L74.5528 261.112L78.059 262.383L78.2249 261.925L74.942 260.735L76.3381 256.883L78.8523 257.579L78.9614 257.139L76.4918 256.459L77.3052 254.214L80.6551 255.428L80.8048 255.015L77.2204 253.716L76.9202 253.847ZM81.8373 263.752L84.2034 256.247L83.9801 256.166C82.7379 257.85 81.4076 259.604 80.1806 261.282L81.9255 255.421L81.4789 255.259L79.3026 262.833L79.5482 262.922L83.3992 257.56L81.4465 263.61L81.8373 263.752ZM83.0783 255.447C83.4356 255.577 83.874 255.622 84.2797 255.478L84.2071 254.947C83.847 255.069 83.5233 255.091 83.2442 254.989C82.965 254.888 82.7415 254.668 82.5433 254.344L82.1358 254.701C82.3665 255.076 82.7321 255.322 83.0783 255.447ZM84.9671 264.899L85.4004 264.993L86.7768 257.116L86.3748 256.97L82.6454 264.02L83.0576 264.207L86.1126 258.391L84.9671 264.899ZM91.1669 258.745C90.1469 258.527 89.3137 259.362 88.9039 260.388C88.5933 261.21 88.5315 262.287 89.1248 262.881L85.9836 265.065L86.255 265.467L89.245 263.316L88.212 266.062L88.6252 266.212L91.3428 259.061L91.1669 258.745ZM89.3353 260.557C89.6338 259.768 90.174 259.219 90.8254 259.164L89.504 262.602C88.9769 262.208 89.0419 261.297 89.3353 260.557Z" fill="#242320"/>
<g clip-path="url(#clip7_1037_1899)">
<path d="M185.185 253.555C195.381 259.037 205.977 251.651 212.211 247.102L216.709 254.733C197.473 263.659 196.318 272.379 198.852 275.971L171.669 305.167L148.751 271.041L185.185 253.555Z" fill="#511AC0"/>
<path d="M178.347 299.519L157.673 265.129L172.541 258.254L192.926 284.629L178.347 299.519Z" fill="#B69CFF"/>
<path d="M251.442 253.814C242.88 241.179 227.594 245.966 221.021 249.939C237.081 246.227 245.049 247.848 247.084 257.341C249.12 266.834 232.16 264.529 211.206 277.022C194.443 287.016 202.105 304.024 208.032 311.278L220.016 303.705C204.076 281.588 262.145 269.608 251.442 253.814Z" fill="#FFBE3F"/>
<path d="M223.513 297.307C221.578 290.795 228.395 285.286 232.046 283.345C226.394 287.613 227.009 292.889 227.595 295.628C228.182 298.367 224.277 300.426 223.513 297.307Z" fill="#FFBE3F"/>
<path d="M204.274 295.147C201.34 303.242 207.157 310.719 207.691 311.86C206.758 316.47 206.009 323.125 210.483 312.872C216.075 300.055 207.207 287.051 204.274 295.147Z" fill="#713FFF"/>
<path d="M204.352 319.721L207.798 329.133L208.291 331.56L216.657 329.863L225.022 328.165L224.53 325.737L224.035 315.727L224.724 314.071L224.032 300.561L211.238 303.158L198.443 305.754L203.072 318.464L204.352 319.721Z" fill="#511AC0"/>
</g>
</g>
</g>
<defs>
<clipPath id="clip0_1037_1899">
<rect width="360" height="334" fill="white"/>
</clipPath>
<clipPath id="clip1_1037_1899">
<rect width="207.471" height="92.7856" fill="white" transform="translate(89.6445 21.1953) rotate(-5.86361)"/>
</clipPath>
<clipPath id="clip2_1037_1899">
<rect width="99.125" height="92.7856" fill="white" transform="translate(197.424 10.1257) rotate(-5.86361)"/>
</clipPath>
<clipPath id="clip3_1037_1899">
<rect width="201.762" height="90.2327" fill="white" transform="translate(13.4224 77.5642) rotate(11.1328)"/>
</clipPath>
<clipPath id="clip4_1037_1899">
<rect width="216.085" height="96.6381" fill="white" transform="translate(250.086 89.8933) rotate(47.6784)"/>
</clipPath>
<clipPath id="clip5_1037_1899">
<rect width="109.843" height="96.6381" fill="white" transform="translate(321.618 168.448) rotate(47.6784)"/>
</clipPath>
<clipPath id="clip6_1037_1899">
<rect width="213.784" height="95.6087" fill="white" transform="translate(66.4109 168.371) rotate(19.9199)"/>
</clipPath>
<clipPath id="clip7_1037_1899">
<rect width="102.735" height="95.6087" fill="white" transform="translate(170.815 206.205) rotate(19.9199)"/>
</clipPath>
</defs>
</svg>
