<svg width="360" height="393" viewBox="0 0 360 393" fill="none" xmlns="http://www.w3.org/2000/svg">
<g clip-path="url(#clip0_1056_2328)">
<rect x="558.818" y="405.943" width="720.966" height="330.112" transform="rotate(-175 558.818 405.943)" fill="#FF3F6D"/>
<path opacity="0.5" d="M152.273 284.954C151.367 284.262 150.054 283.303 148.794 283.303C147.268 283.303 146.665 284.616 146.665 285.734C146.665 288.982 150.48 289.709 150.48 292.549C150.48 293.17 150.232 293.862 149.486 293.862C148.44 293.862 147.605 293.063 146.754 291.892L145.724 293.063C146.771 294.66 147.801 295.583 149.22 295.583C150.64 295.583 151.918 294.607 151.918 292.478C151.918 289.603 147.925 287.757 147.925 285.788C147.925 285.273 148.191 284.705 148.706 284.705C149.54 284.705 150.622 285.699 151.527 286.373L152.273 284.954ZM159.771 283.055L152.726 283.463L152.797 284.457H155.512L155.281 295.548L156.807 295.335L157.34 284.457L159.7 284.492L159.771 283.055ZM165.489 283.215L160.893 283.321L161.195 295.423H165.791L165.897 293.986L162.331 294.181L162.295 288.769L164.496 288.645L164.318 287.669L162.277 287.917L162.26 284.581L165.56 284.829L165.489 283.215ZM172.086 284.741L170.986 283.25H166.993V295.423H168.36L168.182 290.259L170.986 290.171L172.068 288.858L172.086 284.741ZM170.702 288.219L170.028 288.858L168.147 288.929L167.987 284.368H169.957L170.755 285.291L170.702 288.219ZM182.826 284.386L182.56 283.232H177.36L176.881 284.829L181.122 284.492L178.833 287.544C178.833 287.544 179.082 288.378 179.153 288.627C181.158 288.627 181.939 289.922 181.939 291.253C181.939 292.797 180.892 294.057 179.738 294.057C178.514 294.057 177.786 292.584 177.786 292.584C177.786 292.584 176.881 292.726 176.384 292.815C176.633 293.738 177.644 295.654 179.88 295.654C181.832 295.654 183.713 294.199 183.713 291.431C183.713 287.917 180.501 287.438 180.501 287.438L182.826 284.386ZM197.151 286.426L194.933 283.303L191.809 283.09L189.023 286.249L189.165 292.424L191.437 295.512L194.436 295.477L196.814 292.353L197.151 286.426ZM195.181 292.123L193.726 294.199L192.005 294.146L190.709 292.14L190.425 287.314L192.59 284.439L193.921 284.492L195.288 286.249L195.181 292.123ZM198.972 283.339L198.723 295.406L200.427 295.281L200.267 289.212L202.326 289.266L202.379 288.254L200.25 288.414L200.179 284.971L203.142 284.652L203.018 283.108L198.972 283.339ZM208.594 288.307C210.936 288.396 213.013 289.017 213.013 291.306C213.013 292.957 212.249 293.702 211.362 293.702C210.439 293.702 209.499 293.081 208.771 291.874L207.565 292.708C208.275 294.714 209.801 295.725 211.309 295.725C213.651 295.725 214.752 293.773 214.752 291.732C214.752 289.372 213.279 287.278 210.067 287.278L210.315 284.652L214.042 285.397V283.924L209.339 283.374L208.594 288.307Z" fill="white"/>
<path d="M84.3792 321.972L86.5737 329.26H88.8924L84.5241 314.892H82.4124L79.8659 329.26H81.1702L82.2675 321.952L84.3792 321.972ZM82.9921 317.107L84.0893 321.041L82.4124 320.979L82.9921 317.107ZM90.6908 329.343C96.8189 329.218 99.9657 325.616 99.9657 321.682C99.9657 316.341 94.8728 315.14 90.4217 314.954L90.6908 329.343ZM92.7818 316.652C95.5353 316.9 97.6263 318.846 97.6263 321.972C97.6263 324.954 95.8458 326.734 92.6162 327.811L92.7818 316.652ZM102.073 329.343C108.201 329.218 111.348 325.616 111.348 321.682C111.348 316.341 106.255 315.14 101.804 314.954L102.073 329.343ZM104.164 316.652C106.918 316.9 109.009 318.846 109.009 321.972C109.009 324.954 107.228 326.734 103.999 327.811L104.164 316.652ZM120.156 316.176L122.744 317.48L123.883 316.051L121.667 314.788L118.189 315.472L117.403 319.447L122.889 324.602L122.123 327.831L119.721 327.604L118.438 325.678L117.175 327.252L118.872 329.218L123.406 329.28L124.938 323.96L119.1 318.577L120.156 316.176ZM132.209 316.797L130.926 315.058H126.268V329.26H127.862L127.655 323.235L130.926 323.132L132.189 321.6L132.209 316.797ZM130.595 320.854L129.808 321.6L127.613 321.682L127.427 316.362H129.725L130.657 317.438L130.595 320.854ZM134.727 314.809L132.573 329.094L134.313 329.198L135.327 322.904L137.087 322.78L138.225 329.094L139.612 329.239L137.025 314.809H134.727ZM135.493 321.993L136.196 317.915L136.942 321.89L135.493 321.993ZM143.177 323.194L145.413 329.363L146.883 329.26L144.46 323.07L145.827 323.049L146.883 321.62V316.797L145.62 315.078H141.148V329.26H142.763L142.576 323.235L143.177 323.194ZM142.328 316.341H144.626L145.558 317.438L145.495 320.834L144.709 321.62L142.514 321.703L142.328 316.341ZM149.017 315.016L148.81 329.301L150.819 329.28L150.881 323.152L151.895 322.179L157.733 329.612L159.245 328.556L153.22 321.186L158.168 316.383L157.009 315.161L150.901 321.268L150.963 315.14L149.017 315.016ZM163.927 316.445L164.093 315.016L159.248 315.12L159.373 316.196L160.739 316.279L161.008 328.245L159.642 328.328L159.807 329.322L163.741 329.28L163.969 328.018L162.437 328.142L162.664 316.383L163.927 316.445ZM174.029 315.078L171.731 314.975L172.124 325.223L168.17 314.975H165.955L166.162 329.28L168.108 329.239L167.798 318.204L172.042 329.239H173.677L174.029 315.078ZM185.577 317.024L183.734 315.202L181.187 314.788L177.606 316.3L175.888 321.765L177.171 327.728L181.146 329.591L185.887 328.163L185.742 323.401L185.038 322.573L182.678 322.407V324.353L184.355 324.229L184.252 327.024L181.374 327.686L178.786 326.051L177.627 321.931L179.138 317.356L182.45 316.403L184.355 318.225L185.577 317.024ZM198.117 323.856L199.794 329.239L201.802 329.301L204.556 315.078L201.947 315.037L200.622 326.444L198.573 320.627L197.744 320.73L195.239 327.355L193.625 315.037L191.534 314.933L194.121 329.322L196.047 329.26L198.117 323.856ZM210.347 316.445L210.513 315.016L205.668 315.12L205.792 316.196L207.159 316.279L207.428 328.245L206.062 328.328L206.227 329.322L210.161 329.28L210.388 328.018L208.856 328.142L209.084 316.383L210.347 316.445ZM220.449 315.078L218.151 314.975L218.544 325.223L214.59 314.975H212.375L212.582 329.28L214.528 329.239L214.217 318.204L218.461 329.239H220.097L220.449 315.078ZM228.291 315.016L222.928 315.14L223.28 329.26H228.642L228.767 327.583L224.605 327.811L224.564 321.496L227.131 321.351L226.924 320.213L224.543 320.502L224.523 316.61L228.373 316.9L228.291 315.016ZM243.515 318.763L240.927 315.12L237.284 314.871L234.033 318.556L234.199 325.761L236.849 329.363L240.348 329.322L243.122 325.678L243.515 318.763ZM241.217 325.409L239.519 327.831L237.511 327.769L236 325.43L235.669 319.799L238.194 316.445L239.747 316.507L241.341 318.556L241.217 325.409ZM253.424 315.078L251.126 314.975L251.519 325.223L247.565 314.975H245.35L245.557 329.28L247.503 329.239L247.192 318.204L251.437 329.239H253.072L253.424 315.078ZM267.634 314.83L259.415 315.306L259.498 316.465H262.666L262.397 329.405L264.177 329.156L264.798 316.465L267.552 316.507L267.634 314.83ZM277.784 318.763L275.196 315.12L271.552 314.871L268.302 318.556L268.468 325.761L271.118 329.363L274.617 329.322L277.391 325.678L277.784 318.763ZM275.486 325.409L273.788 327.831L271.78 327.769L270.269 325.43L269.938 319.799L272.463 316.445L274.016 316.507L275.61 318.556L275.486 325.409ZM285.561 316.797L284.277 315.058H279.619V329.26H281.213L281.006 323.235L284.277 323.132L285.54 321.6L285.561 316.797ZM283.946 320.854L283.159 321.6L280.965 321.682L280.778 316.362H283.076L284.008 317.438L283.946 320.854Z" fill="white"/>
<path d="M222.22 72.7114H142.405C147.028 86.297 147.687 100.936 144.305 114.888C134.119 155.973 117.7 170.485 148.106 201.16C155.638 209.032 165.792 213.812 176.611 214.58L174.711 247.171L146.206 260.591V266.342H218.419V260.591L189.914 247.171L188.013 214.58C198.832 213.812 208.986 209.032 216.519 201.16C246.924 170.485 230.505 155.973 220.319 114.888C216.937 100.936 217.597 86.297 222.22 72.7114Z" fill="white"/>
<path d="M159.147 145.813C159.147 162.789 150.133 179.624 133.093 179.624C116.053 179.624 108.067 164.497 108.067 147.521C108.067 130.545 116.053 124.98 133.093 124.98C150.133 124.98 159.147 128.837 159.147 145.813Z" fill="#C01A6A"/>
<path d="M213.165 134.928C218.073 121.664 236.833 121.664 241.741 134.928L244.796 143.183C246.339 147.353 249.627 150.641 253.797 152.184L262.052 155.239C275.316 160.147 275.316 178.907 262.052 183.815L253.797 186.87C249.627 188.413 246.339 191.701 244.796 195.871L241.741 204.126C236.833 217.39 218.073 217.39 213.165 204.126L210.11 195.871C208.567 191.701 205.28 188.413 201.109 186.87L192.854 183.815C179.59 178.907 179.59 160.147 192.854 155.239L201.109 152.184C205.279 150.641 208.567 147.353 210.11 143.183L213.165 134.928Z" fill="#9C0EDF"/>
<path d="M195.217 8.51367L83.9081 95.4316C100.045 105.305 139.677 118.232 169.111 90.9474C198.544 63.6633 198.779 24.6232 195.217 8.51367Z" fill="#67B44C"/>
</g>
<defs>
<clipPath id="clip0_1056_2328">
<rect width="360" height="393" fill="white"/>
</clipPath>
</defs>
</svg>
