<svg width="360" height="508" viewBox="0 0 360 508" fill="none" xmlns="http://www.w3.org/2000/svg">
<g clip-path="url(#clip0_1056_2246)">
<rect width="1095.14" height="425.021" transform="matrix(-0.996195 -0.0871557 -0.0871557 0.996195 736.68 85.4481)" fill="#FFBE3F"/>
<path d="M70.8832 110.22L70.2532 141H86.9932V137.175L73.1782 136.32L73.6282 126.42L85.2382 126.285L85.3732 123.855L73.8082 124.17L74.2582 114.27L86.9932 113.775V110.22H70.8832ZM100.88 109.995L96.9649 120.39L93.1849 109.995L88.2799 110.175L94.5349 124.935L89.1349 141.225L93.0049 141.54L96.7849 129.57L101.51 141.225L105.11 140.82L98.8099 124.17L105.38 110.31L100.88 109.995ZM122.236 113.91L119.446 110.13H109.321V141H112.786L112.336 127.905L119.446 127.68L122.191 124.35L122.236 113.91ZM118.726 122.73L117.016 124.35L112.246 124.53L111.841 112.965H116.836L118.861 115.305L118.726 122.73ZM127.707 109.59L123.027 140.64L126.807 140.865L129.012 127.185L132.837 126.915L135.312 140.64L138.327 140.955L132.702 109.59H127.707ZM129.372 125.205L130.902 116.34L132.522 124.98L129.372 125.205ZM159.214 110.175L154.219 109.95L155.074 132.225L146.479 109.95H141.664L142.114 141.045L146.344 140.955L145.669 116.97L154.894 140.955H158.449L159.214 110.175ZM165.234 141.225L178.959 140.73L184.899 133.71L185.574 119.49L178.239 110.535L164.604 110.04L165.234 141.225ZM179.454 131.775L176.124 136.86L169.329 137.13L169.734 113.685L175.764 113.505L180.309 121.065L179.454 131.775ZM211.283 109.995L206.693 121.515L201.203 110.175L197.378 110.4L205.118 125.61L205.298 140.955H209.978L209.528 125.7L216.008 110.31L211.283 109.995ZM236.949 118.185L231.324 110.265L223.404 109.725L216.339 117.735L216.699 133.395L222.459 141.225L230.064 141.135L236.094 133.215L236.949 118.185ZM231.954 132.63L228.264 137.895L223.899 137.76L220.614 132.675L219.894 120.435L225.384 113.145L228.759 113.28L232.224 117.735L231.954 132.63ZM255.37 131.505L253.255 136.455L247.495 136.95L244.3 131.595L245.155 109.905L240.655 109.635L240.205 134.205L244.525 140.91L255.46 141.18L259.51 134.7L260.32 109.905L254.83 110.13L255.37 131.505ZM268.902 127.815L273.762 141.225L276.957 141L271.692 127.545L274.662 127.5L276.957 124.395V113.91L274.212 110.175H264.492V141H268.002L267.597 127.905L268.902 127.815ZM267.057 112.92H272.052L274.077 115.305L273.942 122.685L272.232 124.395L267.462 124.575L267.057 112.92ZM76.7533 163.725L71.9383 164.265L68.0233 175.875L63.2533 164.04L57.9883 164.22L56.5033 194.955L60.8233 195.18L60.8683 169.89L65.4133 180.96L68.7433 181.365L73.1083 170.565L73.4683 194.865C73.4683 194.865 77.4733 194.865 78.1933 194.82L76.7533 163.725ZM90.7627 167.145L91.1227 164.04L80.5927 164.265L80.8627 166.605L83.8327 166.785L84.4177 192.795L81.4477 192.975L81.8077 195.135L90.3577 195.045L90.8527 192.3L87.5227 192.57L88.0177 167.01L90.7627 167.145ZM106.285 163.995L102.37 174.39L98.5902 163.995L93.6852 164.175L99.9402 178.935L94.5402 195.225L98.4102 195.54L102.19 183.57L106.915 195.225L110.515 194.82L104.215 178.17L110.785 164.31L106.285 163.995ZM133.941 172.185L128.316 164.265L120.396 163.725L113.331 171.735L113.691 187.395L119.451 195.225L127.056 195.135L133.086 187.215L133.941 172.185ZM128.946 186.63L125.256 191.895L120.891 191.76L117.606 186.675L116.886 174.435L122.376 167.145L125.751 167.28L129.216 171.735L128.946 186.63ZM150.439 190.41L141.889 191.49L142.834 164.355L137.929 163.905L138.424 195.18L150.979 195.315L150.439 190.41ZM170.987 172.185L165.362 164.265L157.442 163.725L150.377 171.735L150.737 187.395L156.497 195.225L164.102 195.135L170.132 187.215L170.987 172.185ZM165.992 186.63L162.302 191.895L157.937 191.76L154.652 186.675L153.932 174.435L159.422 167.145L162.797 167.28L166.262 171.735L165.992 186.63ZM194.685 168.405L190.68 164.445L185.145 163.545L177.36 166.83L173.625 178.71L176.415 191.67L185.055 195.72L195.36 192.615L195.045 182.265L193.515 180.465L188.385 180.105V184.335L192.03 184.065L191.805 190.14L185.55 191.58L179.925 188.025L177.405 179.07L180.69 169.125L187.89 167.055L192.03 171.015L194.685 168.405ZM210.8 163.995L206.21 175.515L200.72 164.175L196.895 164.4L204.635 179.61L204.815 194.955H209.495L209.045 179.7L215.525 164.31L210.8 163.995ZM231.374 163.59L226.694 194.64L230.474 194.865L232.679 181.185L236.504 180.915L238.979 194.64L241.994 194.955L236.369 163.59H231.374ZM233.039 179.205L234.569 170.34L236.189 178.98L233.039 179.205ZM262.881 164.175L257.886 163.95L258.741 186.225L250.146 163.95H245.331L245.781 195.045L250.011 194.955L249.336 170.97L258.561 194.955H262.116L262.881 164.175ZM268.901 195.225L282.626 194.73L288.566 187.71L289.241 173.49L281.906 164.535L268.271 164.04L268.901 195.225ZM283.121 185.775L279.791 190.86L272.996 191.13L273.401 167.685L279.431 167.505L283.976 175.065L283.121 185.775ZM47.0891 221.91L44.2991 218.13H34.1741V249H37.6391L37.1891 235.905L44.2991 235.68L47.0441 232.35L47.0891 221.91ZM43.5791 230.73L41.8691 232.35L37.0991 232.53L36.6941 220.965H41.6891L43.7141 223.305L43.5791 230.73ZM54.3605 235.815L59.2205 249.225L62.4155 249L57.1505 235.545L60.1205 235.5L62.4155 232.395L62.4155 221.91L59.6705 218.175H49.9505V249H53.4605L53.0555 235.905L54.3605 235.815ZM52.5155 220.92H57.5105L59.5355 223.305L59.4005 230.685L57.6905 232.395L52.9205 232.575L52.5155 220.92ZM78.2608 218.04L66.6058 218.31L67.3708 249H79.0258L79.2958 245.355L70.2508 245.85L70.1608 232.125L75.7408 231.81L75.2908 229.335L70.1158 229.965L70.0708 221.505L78.4408 222.135L78.2608 218.04ZM94.9895 221.91L92.1995 218.13H82.0745V249H85.5395L85.0895 235.905L92.1995 235.68L94.9445 232.35L94.9895 221.91ZM91.4795 230.73L89.7695 232.35L84.9995 232.53L84.5945 220.965H89.5895L91.6145 223.305L91.4795 230.73ZM100.461 217.59L95.7809 248.64L99.5609 248.865L101.766 235.185L105.591 234.915L108.066 248.64L111.081 248.955L105.456 217.59H100.461ZM102.126 233.205L103.656 224.34L105.276 232.98L102.126 233.205ZM118.828 235.815L123.688 249.225L126.883 249L121.618 235.545L124.588 235.5L126.883 232.395V221.91L124.138 218.175H114.418V249H117.928L117.523 235.905L118.828 235.815ZM116.983 220.92H121.978L124.003 223.305L123.868 230.685L122.158 232.395L117.388 232.575L116.983 220.92ZM142.729 218.04L131.074 218.31L131.839 249H143.494L143.764 245.355L134.719 245.85L134.629 232.125L140.209 231.81L139.759 229.335L134.584 229.965L134.539 221.505L142.909 222.135L142.729 218.04ZM169.701 245.265L161.736 245.76L159.486 231.675L161.331 223.17L169.566 222.09L169.656 217.455L159.576 218.625L155.256 232.8L158.991 249.36L170.196 249.09L169.701 245.265ZM190.938 226.185L185.313 218.265L177.393 217.725L170.328 225.735L170.688 241.395L176.448 249.225L184.053 249.135L190.083 241.215L190.938 226.185ZM185.943 240.63L182.253 245.895L177.888 245.76L174.603 240.675L173.883 228.435L179.373 221.145L182.748 221.28L186.213 225.735L185.943 240.63ZM208.021 245.265L200.056 245.76L197.806 231.675L199.651 223.17L207.886 222.09L207.976 217.455L197.896 218.625L193.576 232.8L197.311 249.36L208.516 249.09L208.021 245.265ZM212.339 218.04L211.889 249.09L216.254 249.045L216.389 235.725L218.594 233.61L231.284 249.765L234.569 247.47L221.474 231.45L232.229 221.01L229.709 218.355L216.434 231.63L216.569 218.31L212.339 218.04ZM251.362 217.635L233.497 218.67L233.677 221.19H240.562L239.977 249.315L243.847 248.775L245.197 221.19L251.182 221.28L251.362 217.635ZM254.973 217.59L250.293 248.64L254.073 248.865L256.278 235.185L260.103 234.915L262.578 248.64L265.593 248.955L259.968 217.59H254.973ZM256.638 233.205L258.168 224.34L259.788 232.98L256.638 233.205ZM277.75 221.145L278.11 218.04L267.58 218.265L267.85 220.605L270.82 220.785L271.405 246.795L268.435 246.975L268.795 249.135L277.345 249.045L277.84 246.3L274.51 246.57L275.005 221.01L277.75 221.145ZM294.668 244.41L286.118 245.49L287.063 218.355L282.158 217.905L282.653 249.18L295.208 249.315L294.668 244.41ZM302.975 220.56L308.6 223.395L311.075 220.29L306.26 217.545L298.7 219.03L296.99 227.67L308.915 238.875L307.25 245.895L302.03 245.4L299.24 241.215L296.495 244.635L300.185 248.91L310.04 249.045L313.37 237.48L300.68 225.78L302.975 220.56ZM39.9385 298.41L31.3885 299.49L32.3335 272.355L27.4285 271.905L27.9235 303.18L40.4785 303.315L39.9385 298.41ZM51.9809 275.145L52.3409 272.04L41.8109 272.265L42.0809 274.605L45.0509 274.785L45.6359 300.795L42.6659 300.975L43.0259 303.135L51.5759 303.045L52.0709 300.3L48.7409 300.57L49.2359 275.01L51.9809 275.145ZM56.8385 272.04L56.3885 303.09L60.7535 303.045L60.8885 289.725L63.0935 287.61L75.7835 303.765L79.0685 301.47L65.9735 285.45L76.7285 275.01L74.2085 272.355L60.9335 285.63L61.0685 272.31L56.8385 272.04ZM92.565 272.04L80.91 272.31L81.675 303H93.33L93.6 299.355L84.555 299.85L84.465 286.125L90.045 285.81L89.595 283.335L84.42 283.965L84.375 275.505L92.745 276.135L92.565 272.04ZM109.052 271.59L104.372 302.64L108.152 302.865L110.357 289.185L114.182 288.915L116.657 302.64L119.672 302.955L114.047 271.59H109.052ZM110.717 287.205L112.247 278.34L113.867 286.98L110.717 287.205ZM137.483 289.815L142.343 303.225L145.538 303L140.273 289.545L143.243 289.5L145.538 286.395V275.91L142.793 272.175H133.073V303H136.583L136.178 289.905L137.483 289.815ZM135.638 274.92H140.633L142.658 277.305L142.523 284.685L140.813 286.395L136.043 286.575L135.638 274.92ZM161.383 272.04L149.728 272.31L150.493 303H162.148L162.418 299.355L153.373 299.85L153.283 286.125L158.863 285.81L158.413 283.335L153.238 283.965L153.193 275.505L161.563 276.135L161.383 272.04ZM169.257 271.59L164.577 302.64L168.357 302.865L170.562 289.185L174.387 288.915L176.862 302.64L179.877 302.955L174.252 271.59H169.257ZM170.922 287.205L172.452 278.34L174.072 286.98L170.922 287.205ZM195.725 298.41L187.175 299.49L188.12 272.355L183.215 271.905L183.71 303.18L196.265 303.315L195.725 298.41ZM209.956 271.905L209.011 303H220.171L223.501 300.39V288.105L219.721 285.225L223.231 276.72L220.441 272.04L209.956 271.905ZM221.071 289.86L220.846 298.23L218.191 300.165L213.871 299.76L213.916 288.105L218.056 287.43L221.071 289.86ZM216.436 285.09L213.916 285.585L213.961 274.74L218.011 274.695L219.676 277.17L216.436 285.09ZM230.078 271.59L225.398 302.64L229.178 302.865L231.383 289.185L235.208 288.915L237.683 302.64L240.698 302.955L235.073 271.59H230.078ZM231.743 287.205L233.273 278.34L234.893 286.98L231.743 287.205ZM248.445 289.815L253.305 303.225L256.5 303L251.235 289.545L254.205 289.5L256.5 286.395V275.91L253.755 272.175H244.035V303H247.545L247.14 289.905L248.445 289.815ZM246.6 274.92H251.595L253.62 277.305L253.485 284.685L251.775 286.395L247.005 286.575L246.6 274.92ZM279.275 271.725L274.46 272.265L270.545 283.875L265.775 272.04L260.51 272.22L259.025 302.955L263.345 303.18L263.39 277.89L267.935 288.96L271.265 289.365L275.63 278.565L275.99 302.865C275.99 302.865 279.995 302.865 280.715 302.82L279.275 271.725ZM287.075 271.59L282.395 302.64L286.175 302.865L288.38 289.185L292.205 288.915L294.68 302.64L297.695 302.955L292.07 271.59H287.075ZM288.74 287.205L290.27 278.34L291.89 286.98L288.74 287.205ZM318.582 272.175L313.587 271.95L314.442 294.225L305.847 271.95H301.032L301.482 303.045L305.712 302.955L305.037 278.97L314.262 302.955H317.817L318.582 272.175ZM148.313 345.255L151.958 356.955L156.323 357.09L162.308 326.175L156.638 326.085L153.758 350.88L149.303 338.235L147.503 338.46L142.058 352.86L138.548 326.085L134.003 325.86L139.628 357.135L143.813 357L148.313 345.255ZM174.896 329.145L175.256 326.04L164.726 326.265L164.996 328.605L167.966 328.785L168.551 354.795L165.581 354.975L165.941 357.135L174.491 357.045L174.986 354.3L171.656 354.57L172.151 329.01L174.896 329.145ZM195.222 325.635L177.357 326.67L177.537 329.19H184.422L183.837 357.315L187.707 356.775L189.057 329.19L195.042 329.28L195.222 325.635ZM199.283 357.09H201.488L201.038 339.99H206.573L206.843 357.09H210.443L209.363 325.905H206.393L206.573 337.785L200.993 338.19L200.678 325.905H198.068L199.283 357.09Z" fill="black"/>
<g clip-path="url(#clip1_1056_2246)">
<rect width="286.507" height="59.2714" transform="translate(33 415.971) rotate(-5)" fill="#FF3F6D"/>
<path d="M87.8449 451.623L91.5936 450.151L74.4174 426.467L70.7635 426.492L54.742 453.153L58.5333 453.855L63.9401 444.741L82.0434 443.563L87.8449 451.623ZM72.5326 430.251L80.2334 441.026L65.1963 442.637L72.5326 430.251ZM110.433 449.278L118.906 447.355L122.029 442.946L122.325 440.002L118.832 435.95L114.133 434.589L114.124 434.479L118.133 432.614L119.075 429.023L115.534 425.271L107.696 424.331L92.9203 425.55L94.249 449.18L95.966 450.654L110.433 449.278ZM96.5659 427.964L106.472 426.802L113.286 427.018L115.136 429.589L114.446 431.828L109.489 433.85L97.231 435.144L96.5659 427.964ZM98.2955 447.312L97.417 437.27L111.036 436.337L116.519 437.371L118.987 441.107L116.365 445.324L109.961 445.996L98.2955 447.312ZM142.893 435.285L154.105 445.679L157.024 443.577L146.877 435.232L154.811 435.166L157.918 431.423L157.284 423.76L153.882 420.328L125.552 422.806L124.227 424.547L126.241 447.563L129.979 447.235L128.83 435.371L142.893 435.285ZM153.908 430.333L152.499 432.377L128.614 433.322L127.782 425.085L151.557 423.301L154.032 425.004L153.908 430.333ZM193.891 442.346L197.64 440.873L180.464 417.189L176.81 417.214L160.788 443.875L164.58 444.578L169.986 435.463L188.09 434.285L193.891 442.346ZM178.579 420.973L186.28 431.748L171.243 433.359L178.579 420.973ZM216.479 440L224.952 438.077L228.075 433.668L228.371 430.724L224.878 426.672L220.179 425.311L220.17 425.201L224.18 423.336L225.121 419.745L221.58 415.993L213.743 415.053L198.967 416.272L200.295 439.902L202.012 441.377L216.479 440ZM202.612 418.686L212.519 417.524L219.333 417.74L221.182 420.311L220.492 422.551L215.536 424.572L203.277 425.866L202.612 418.686ZM204.342 438.034L203.463 427.992L217.083 427.059L222.565 428.093L225.034 431.829L222.411 436.047L216.007 436.718L204.342 438.034ZM263.646 436.243L267.395 434.77L250.219 411.087L246.565 411.111L230.543 437.772L234.335 438.475L239.742 429.36L257.845 428.183L263.646 436.243ZM248.334 414.871L256.035 425.645L240.998 427.256L248.334 414.871ZM286.805 422.695L298.018 433.088L300.936 430.986L290.789 422.641L298.723 422.575L301.83 418.832L301.197 411.169L297.794 407.737L269.464 410.215L268.139 411.956L270.153 434.972L273.891 434.645L272.742 422.78L286.805 422.695ZM297.82 417.742L296.411 419.786L272.526 420.731L271.695 412.494L295.469 410.71L297.945 412.414L297.82 417.742Z" fill="#242320"/>
</g>
</g>
<defs>
<clipPath id="clip0_1056_2246">
<rect width="360" height="508" fill="white"/>
</clipPath>
<clipPath id="clip1_1056_2246">
<rect width="286.507" height="59.2714" fill="white" transform="translate(33 415.971) rotate(-5)"/>
</clipPath>
</defs>
</svg>
