<svg width="139" height="138" viewBox="0 0 139 138" fill="none" xmlns="http://www.w3.org/2000/svg">
<path d="M14.715 21.8511L21.0837 43L27.8129 43L15.1356 1.30302L9.00719 1.30302L1.61709 43H5.40226L8.58661 21.791L14.715 21.8511ZM10.6895 7.73181L13.8738 19.1474L9.00719 18.9672L10.6895 7.73181ZM33.5127 1.48327L32.251 43H47.1513L51.5974 39.5152L51.5974 23.1128L46.5505 19.2676L51.2369 7.91205L47.5118 1.66351L33.5127 1.48327ZM48.353 25.456L48.0526 36.6313L44.5077 39.2148L38.7398 38.6741L38.7999 23.1128L44.3275 22.2116L48.353 25.456ZM42.1645 19.0873L38.7999 19.7482L38.86 5.26844L44.2674 5.20836L46.4904 8.51287L42.1645 19.0873ZM62.7821 25.3959L69.2709 43.3004L73.5368 43L66.5072 25.0355L70.4726 24.9754L73.5368 20.8297V6.83057L69.8718 1.84376L56.894 1.84376L56.894 43H61.5804L61.0397 25.5161L62.7821 25.3959ZM60.3187 5.50877L66.9878 5.50877L69.6915 8.69312L69.5113 18.5466L67.2282 20.8297L60.8594 21.07L60.3187 5.50877ZM130.442 43.6609L136.75 41.7984L112.177 0.822365L106.228 0.341707L76.3677 41.4379L82.436 43.1202L92.5298 29.061L122.15 29.7219L130.442 43.6609ZM108.572 6.71041L119.567 25.3359L94.873 25.8165L108.572 6.71041ZM32.1637 89.0601L46.2229 87.1375L51.9307 80.4083L52.8319 75.6618L47.7249 68.5721L40.2748 65.6881V65.5079L47.064 63.0445L49.1068 57.3367L43.8797 50.7277L31.2624 48.0841L7.04935 47.9639L5.84771 86.5967L8.43124 89.2403L32.1637 89.0601ZM12.637 52.41L28.9192 51.9293L39.9743 53.2511L42.618 57.6972L41.176 61.2421L32.8246 63.8256L12.6971 64.1861L12.637 52.41ZM12.6971 84.1333L12.6971 67.6709L34.9875 68.0914L43.7595 70.5548L47.2443 76.9836L42.3776 83.4724L31.8633 83.6527L12.6971 84.1333ZM61.6109 47.0627L55.3624 88.5193L60.4093 88.8198L63.3533 70.5548L68.4603 70.1943L71.7648 88.5193L75.7903 88.9399L68.2801 47.0627L61.6109 47.0627ZM63.834 67.9112L65.8768 56.075L68.0397 67.6108L63.834 67.9112ZM109.086 70.9153L125.849 89.4206L130.895 86.4165L115.575 71.3959L128.492 72.4173L134.08 66.7696L134.14 54.2125L129.093 48.1442L82.6495 48.1442L80.2462 50.7878V88.5193H86.3746L86.1944 69.0527L109.086 70.9153ZM127.711 64.4264L125.128 67.5507L86.1343 65.6881L85.954 52.1697L124.887 52.6503L128.672 55.7746L127.711 64.4264Z" fill="white"/>
<path d="M15.066 101.888L17.2619 102.389V101.041L15.798 100.655L11.021 100.155L4.47202 101.773L2.83476 106.665L2.85402 108.09L4.49128 111.847L11.6374 113.696L17.7819 112.501L17.416 110.864L11.7145 111.789L6.03222 110.498L4.95356 107.108L6.2441 102.774L10.944 101.407L15.066 101.888ZM21.1776 113.542L27.6688 114.119L35.1424 113.503L37.5887 110.306L37.9161 103.66L35.6625 100.463L28.8823 99.6345L21.5628 100.251L18.7313 103.487L18.635 110.402L21.1776 113.542ZM22.7956 101.618L28.3237 100.925L34.2179 101.676L35.6047 103.487L35.4506 109.785L33.9675 111.904L27.168 112.752L22.1792 112.135L20.8694 110.094L20.5805 104.566L22.7956 101.618ZM45.2278 111.866L41.8185 112.078L40.8554 106.049L41.6451 102.408L45.17 101.946L45.2085 99.962L40.8939 100.463L39.0448 106.53L40.6435 113.619L45.4397 113.503L45.2278 111.866ZM63.333 100.039L45.8818 100.54L45.8433 101.792L53.4324 101.696L53.5095 113.715L55.5127 113.426L54.9349 101.696H63.2945L63.333 100.039ZM75.3905 113.676L77.413 113.079L69.5349 99.9427L67.628 99.7886L58.0548 112.964L60.0003 113.503L63.2363 108.996L72.7323 109.208L75.3905 113.676ZM68.3792 101.83L71.9041 107.802L63.9875 107.956L68.3792 101.83ZM77.6527 113.465L89.961 113.407L89.7684 112.058L85.0492 112.039L84.3558 101.85L89.8069 101.715L89.961 100.232L77.6527 100.366L77.7683 102.023L82.6993 101.907L83.0075 112.02L77.749 112.001L77.6527 113.465ZM92.0848 100.155L92.3159 112.444L93.0864 113.503L107.128 113.407L106.801 111.269L93.7413 112.02L94.2036 100.289L92.0848 100.155ZM110.457 101.291L112.865 102.505L113.924 101.175L111.863 100L108.627 100.636L107.895 104.334L113 109.131L112.287 112.135L110.053 111.924L108.858 110.132L107.683 111.596L109.263 113.426L113.481 113.484L114.907 108.533L109.475 103.525L110.457 101.291ZM122.656 99.1337L121.886 99.3648L121.385 102.119L121.481 114.119L121.847 114.351L129.417 114.351L129.956 113.946L129.783 100.174L129.244 99.1337H122.656ZM123.061 109.131C124.062 109.169 126.99 109.227 126.99 109.227L128.955 110.113L128.666 112.001L127.009 112.829L123.061 112.887V109.131ZM126.836 104.739L128.492 104.758L128.358 108.264L127.144 108.264L124.332 106.164L124.505 108.264H122.964L122.906 104.739H124.447L127.009 106.588L126.836 104.739ZM122.232 103.853L124.621 100.655L123.484 100.713L123.581 99.9042L126.142 99.9234L129.224 103.853L127.568 103.911L127.009 103.063H124.313L123.773 103.872L122.232 103.853ZM127.163 110.479L126.181 109.92H124.794L124.659 112.078C125.256 112.078 125.719 112.039 126.277 112.039L127.009 111.577L127.163 110.479ZM125.642 101.079L124.833 102.293L126.605 102.389L125.642 101.079ZM5.27868 120.541L5.43277 119.212L0.925504 119.309L1.04107 120.31L2.31236 120.387L2.56276 131.521L1.29148 131.598L1.44557 132.522L5.10532 132.484L5.3172 131.309L3.89183 131.424L4.10371 120.484L5.27868 120.541ZM14.6774 119.27L12.5393 119.174L12.9053 128.708L9.2263 119.174H7.16529L7.3579 132.484L9.16852 132.445L8.87959 122.179L12.8283 132.445H14.35L14.6774 119.27ZM30.3135 120.753L32.5286 121.331L32.7405 119.964L30.3328 119.424L23.8223 118.981L18.1208 120.31L16.4065 125.993L18.0822 131.347L24.6313 132.542L28.4066 132.811L32.0856 131.906L33.9155 127.129L32.9909 125.877L24.8431 126.57L25.2091 128.227L32.2012 127.36L31.1418 130.346L27.7324 130.981L24.2268 130.789L19.3728 130.095L18.6023 125.954L19.6617 121.389L24.0341 120.118L30.3135 120.753ZM37.419 126.821L39.4993 132.561L40.8669 132.465L38.6132 126.705L39.8845 126.686L40.8669 125.357L40.8669 120.869L39.6919 119.27H35.5313L35.5313 132.465H37.0338L36.8604 126.859L37.419 126.821ZM36.6293 120.445H38.7673L39.6341 121.466L39.5763 124.625L38.8444 125.357L36.8026 125.434L36.6293 120.445ZM42.4679 132.465L54.7762 132.407L54.5836 131.058L49.8644 131.039L49.171 120.85L54.6221 120.715L54.7762 119.232L42.4679 119.366L42.5834 121.023L47.5145 120.907L47.8227 131.02L42.5642 131.001L42.4679 132.465ZM57.3815 119.212L56.8999 132.542L70.075 132.426L74.6786 129.19L74.3319 123.334L69.9402 120.079C69.9402 120.079 57.4778 119.289 57.3815 119.212ZM72.4442 128.4L68.9193 130.847L58.9224 130.885L58.9417 120.888L68.9193 121.312L72.1553 123.97L72.4442 128.4ZM80.1628 120.541L80.3169 119.212L75.8097 119.309L75.9252 120.31L77.1965 120.387L77.4469 131.521L76.1756 131.598L76.3297 132.522L79.9895 132.484L80.2014 131.309L78.776 131.424L78.9879 120.484L80.1628 120.541ZM87.0382 119.212L82.0494 119.328L82.3769 132.465H87.3657L87.4813 130.904L83.6096 131.116L83.5711 125.241L85.9596 125.106L85.767 124.047L83.5519 124.317L83.5326 120.696L87.1153 120.965L87.0382 119.212ZM88.8826 119.27L88.6707 132.387L90.2502 132.58L90.462 121.562L104.658 132.33L106.237 132.522L106.469 119.251L104.677 119.039L104.889 130.153L90.3465 119.155L88.8826 119.27ZM115.386 119.039L107.739 119.482L107.816 120.561H110.763L110.513 132.599L112.169 132.368L112.747 120.561L115.309 120.599L115.386 119.039ZM128.123 120.869L130.781 122.14L131.282 120.291L128.951 119.521L120.919 118.943L117.355 119.944L116.623 124.509L118.029 125.819L126.986 126.705L130.01 128.978L128.758 131.617L121.92 132.118L117.028 129.132L116.007 130.808L121.343 133.466L130.107 132.696L131.782 129.498L131.416 127.225L127.333 124.991L118.665 123.989L118.973 121.293L121.054 120.079L128.123 120.869Z" fill="#FFBE3F"/>
</svg>
